<svg viewBox="-16 -32 880 192" width="880" height="192" xmlns="http://www.w3.org/2000/svg"><desc>Generated with https://github.com/Platane/snk</desc><style>:root{--cb:#1b1f230a;--cs:764ba2;--ce:#ebedf0;--c0:#ebedf0;--c1:#9be9a8;--c2:#40c463;--c3:#30a14e;--c4:#216e39}.c{shape-rendering:geometricPrecision;fill:var(--ce);stroke-width:1px;stroke:var(--cb);animation:none 29900ms linear infinite;width:12px;height:12px}@keyframes c0{54.51%{fill:var(--c2)}54.53%,100%{fill:var(--ce)}}.c.c0{fill:var(--c2);animation-name:c0}@keyframes c1{33.43%{fill:var(--c1)}33.45%,100%{fill:var(--ce)}}.c.c1{fill:var(--c1);animation-name:c1}@keyframes c2{11.7%{fill:var(--c1)}11.72%,100%{fill:var(--ce)}}.c.c2{fill:var(--c1);animation-name:c2}@keyframes c3{52.16%{fill:var(--c2)}52.18%,100%{fill:var(--ce)}}.c.c3{fill:var(--c2);animation-name:c3}@keyframes c4{12.03%{fill:var(--c1)}12.05%,100%{fill:var(--ce)}}.c.c4{fill:var(--c1);animation-name:c4}@keyframes c5{51.83%{fill:var(--c2)}51.85%,100%{fill:var(--ce)}}.c.c5{fill:var(--c2);animation-name:c5}@keyframes c6{13.7%{fill:var(--c1)}13.72%,100%{fill:var(--ce)}}.c.c6{fill:var(--c1);animation-name:c6}@keyframes c7{50.16%{fill:var(--c2)}50.18%,100%{fill:var(--ce)}}.c.c7{fill:var(--c2);animation-name:c7}@keyframes c8{73.23%{fill:var(--c3)}73.25%,100%{fill:var(--ce)}}.c.c8{fill:var(--c3);animation-name:c8}@keyframes c9{73.57%{fill:var(--c4)}73.59%,100%{fill:var(--ce)}}.c.c9{fill:var(--c4);animation-name:c9}@keyframes ca{73.9%{fill:var(--c4)}73.92%,100%{fill:var(--ce)}}.c.ca{fill:var(--c4);animation-name:ca}@keyframes cb{16.38%{fill:var(--c1)}16.4%,100%{fill:var(--ce)}}.c.cb{fill:var(--c1);animation-name:cb}@keyframes cc{75.58%{fill:var(--c4)}75.6%,100%{fill:var(--ce)}}.c.cc{fill:var(--c4);animation-name:cc}@keyframes cd{75.91%{fill:var(--c4)}75.93%,100%{fill:var(--ce)}}.c.cd{fill:var(--c4);animation-name:cd}@keyframes ce{43.8%{fill:var(--c2)}43.82%,100%{fill:var(--ce)}}.c.ce{fill:var(--c2);animation-name:ce}@keyframes cf{82.93%{fill:var(--c4)}82.95%,100%{fill:var(--ce)}}.c.cf{fill:var(--c4);animation-name:cf}@keyframes cg{45.81%{fill:var(--c2)}45.83%,100%{fill:var(--ce)}}.c.cg{fill:var(--c2);animation-name:cg}@keyframes ch{69.56%{fill:var(--c3)}69.58%,100%{fill:var(--ce)}}.c.ch{fill:var(--c3);animation-name:ch}@keyframes ci{46.14%{fill:var(--c2)}46.16%,100%{fill:var(--ce)}}.c.ci{fill:var(--c2);animation-name:ci}@keyframes cj{77.25%{fill:var(--c4)}77.27%,100%{fill:var(--ce)}}.c.cj{fill:var(--c4);animation-name:cj}@keyframes ck{19.39%{fill:var(--c1)}19.41%,100%{fill:var(--ce)}}.c.ck{fill:var(--c1);animation-name:ck}@keyframes cl{64.54%{fill:var(--c3)}64.56%,100%{fill:var(--ce)}}.c.cl{fill:var(--c3);animation-name:cl}@keyframes cm{42.13%{fill:var(--c2)}42.15%,100%{fill:var(--ce)}}.c.cm{fill:var(--c2);animation-name:cm}@keyframes cn{41.8%{fill:var(--c1)}41.82%,100%{fill:var(--ce)}}.c.cn{fill:var(--c1);animation-name:cn}@keyframes co{64.87%{fill:var(--c3)}64.89%,100%{fill:var(--ce)}}.c.co{fill:var(--c3);animation-name:co}@keyframes cp{61.86%{fill:var(--c2)}61.88%,100%{fill:var(--ce)}}.c.cp{fill:var(--c2);animation-name:cp}@keyframes cq{78.25%{fill:var(--c4)}78.27%,100%{fill:var(--ce)}}.c.cq{fill:var(--c4);animation-name:cq}@keyframes cr{63.2%{fill:var(--c3)}63.22%,100%{fill:var(--ce)}}.c.cr{fill:var(--c3);animation-name:cr}@keyframes cs{66.21%{fill:var(--c3)}66.23%,100%{fill:var(--ce)}}.c.cs{fill:var(--c3);animation-name:cs}@keyframes ct{65.88%{fill:var(--c3)}65.9%,100%{fill:var(--ce)}}.c.ct{fill:var(--c3);animation-name:ct}@keyframes cu{65.54%{fill:var(--c3)}65.56%,100%{fill:var(--ce)}}.c.cu{fill:var(--c3);animation-name:cu}@keyframes cv{79.25%{fill:var(--c4)}79.27%,100%{fill:var(--ce)}}.c.cv{fill:var(--c4);animation-name:cv}@keyframes cw{62.2%{fill:var(--c3)}62.22%,100%{fill:var(--ce)}}.c.cw{fill:var(--c3);animation-name:cw}@keyframes cx{62.53%{fill:var(--c3)}62.55%,100%{fill:var(--ce)}}.c.cx{fill:var(--c3);animation-name:cx}@keyframes cy{62.87%{fill:var(--c3)}62.89%,100%{fill:var(--ce)}}.c.cy{fill:var(--c3);animation-name:cy}@keyframes cz{80.59%{fill:var(--c4)}80.61%,100%{fill:var(--ce)}}.c.cz{fill:var(--c4);animation-name:cz}@keyframes c10{23.4%{fill:var(--c1)}23.42%,100%{fill:var(--ce)}}.c.c10{fill:var(--c1);animation-name:c10}.u{transform-origin:0 0;transform:scale(0,1);animation:none linear 29900ms infinite}@keyframes u0{11.7%{transform:scale(0.000,1)}11.72%,12.03%{transform:scale(0.125,1)}12.05%,13.7%{transform:scale(0.250,1)}13.72%,16.38%{transform:scale(0.375,1)}16.4%,19.39%{transform:scale(0.500,1)}19.41%,23.4%{transform:scale(0.625,1)}23.42%,33.43%{transform:scale(0.750,1)}33.45%,41.8%{transform:scale(0.875,1)}41.82%,100%{transform:scale(1.000,1)}}.u.u0{fill:var(--c1);animation-name:u0;transform-origin:0.0px 0}@keyframes u1{42.13%{transform:scale(0.000,1)}42.15%,43.8%{transform:scale(0.111,1)}43.82%,45.81%{transform:scale(0.222,1)}45.83%,46.14%{transform:scale(0.333,1)}46.16%,50.16%{transform:scale(0.444,1)}50.18%,51.83%{transform:scale(0.556,1)}51.85%,52.16%{transform:scale(0.667,1)}52.18%,54.51%{transform:scale(0.778,1)}54.53%,61.86%{transform:scale(0.889,1)}61.88%,100%{transform:scale(1.000,1)}}.u.u1{fill:var(--c2);animation-name:u1;transform-origin:183.4px 0}@keyframes u2{62.2%{transform:scale(0.000,1)}62.22%,62.53%{transform:scale(0.091,1)}62.55%,62.87%{transform:scale(0.182,1)}62.89%,63.2%{transform:scale(0.273,1)}63.22%,64.54%{transform:scale(0.364,1)}64.56%,64.87%{transform:scale(0.455,1)}64.89%,65.54%{transform:scale(0.545,1)}65.56%,65.88%{transform:scale(0.636,1)}65.9%,66.21%{transform:scale(0.727,1)}66.23%,69.56%{transform:scale(0.818,1)}69.58%,73.23%{transform:scale(0.909,1)}73.25%,100%{transform:scale(1.000,1)}}.u.u2{fill:var(--c3);animation-name:u2;transform-origin:389.6px 0}@keyframes u3{73.57%{transform:scale(0.000,1)}73.59%,73.9%{transform:scale(0.111,1)}73.92%,75.58%{transform:scale(0.222,1)}75.6%,75.91%{transform:scale(0.333,1)}75.93%,77.25%{transform:scale(0.444,1)}77.27%,78.25%{transform:scale(0.556,1)}78.27%,79.25%{transform:scale(0.667,1)}79.27%,80.59%{transform:scale(0.778,1)}80.61%,82.93%{transform:scale(0.889,1)}82.95%,100%{transform:scale(1.000,1)}}.u.u3{fill:var(--c4);animation-name:u3;transform-origin:641.7px 0}.s{shape-rendering:geometricPrecision;fill:var(--cs);animation:none linear 29900ms infinite}@keyframes s0{0%,99.67%{transform:translate(0px,-16px)}0.33%{transform:translate(0px,0px)}11.37%{transform:translate(528px,0px)}11.71%{transform:translate(528px,16px)}13.04%{transform:translate(592px,16px)}13.71%{transform:translate(592px,48px)}14.38%,37.12%{transform:translate(624px,48px)}15.05%{transform:translate(624px,16px)}16.05%{transform:translate(672px,16px)}16.39%{transform:translate(672px,0px)}18.73%,20.74%{transform:translate(784px,0px)}19.4%{transform:translate(784px,32px)}19.73%,41.14%{transform:translate(768px,32px)}20.07%{transform:translate(768px,16px)}20.4%{transform:translate(784px,16px)}21.07%{transform:translate(800px,0px)}21.4%{transform:translate(800px,-16px)}22.41%{transform:translate(848px,-16px)}23.08%{transform:translate(848px,16px)}23.41%{transform:translate(832px,16px)}25.42%{transform:translate(832px,112px)}28.43%{transform:translate(688px,112px)}29.1%{transform:translate(688px,80px)}33.44%,54.85%{transform:translate(480px,80px)}34.11%{transform:translate(480px,48px)}37.46%{transform:translate(624px,64px)}38.46%{transform:translate(672px,64px)}38.8%{transform:translate(672px,48px)}40.8%,68.23%{transform:translate(768px,48px)}41.81%,65.22%{transform:translate(800px,32px)}42.14%{transform:translate(800px,16px)}43.81%{transform:translate(720px,16px)}44.15%{transform:translate(720px,32px)}44.48%{transform:translate(736px,32px)}44.82%{transform:translate(736px,48px)}45.15%,68.56%{transform:translate(752px,48px)}45.82%{transform:translate(752px,80px)}46.15%{transform:translate(768px,80px)}46.49%{transform:translate(768px,64px)}50.17%{transform:translate(592px,64px)}50.84%{transform:translate(592px,32px)}53.51%{transform:translate(464px,32px)}54.52%{transform:translate(464px,80px)}55.18%{transform:translate(480px,64px)}62.21%{transform:translate(816px,64px)}62.88%{transform:translate(816px,96px)}63.55%{transform:translate(784px,96px)}64.55%{transform:translate(784px,48px)}64.88%{transform:translate(800px,48px)}65.55%{transform:translate(816px,32px)}66.22%{transform:translate(816px,0px)}67.22%{transform:translate(768px,0px)}69.57%{transform:translate(752px,96px)}69.9%{transform:translate(736px,96px)}70.57%{transform:translate(736px,64px)}72.58%{transform:translate(640px,64px)}73.24%{transform:translate(640px,32px)}73.58%{transform:translate(656px,32px)}73.91%{transform:translate(656px,48px)}74.92%{transform:translate(704px,48px)}75.92%{transform:translate(704px,96px)}77.93%{transform:translate(800px,96px)}78.26%{transform:translate(800px,80px)}78.6%{transform:translate(816px,80px)}79.26%{transform:translate(816px,48px)}79.6%{transform:translate(832px,48px)}80.6%{transform:translate(832px,0px)}82.27%{transform:translate(752px,0px)}82.94%{transform:translate(752px,32px)}97.32%{transform:translate(64px,32px)}98.33%{transform:translate(64px,-16px)}}.s.s0{transform:translate(0px,-16px);animation-name:s0}@keyframes s1{0%,99.67%{transform:translate(16px,-16px)}0.33%{transform:translate(0px,-16px)}0.67%{transform:translate(0px,0px)}11.71%{transform:translate(528px,0px)}12.04%{transform:translate(528px,16px)}13.38%{transform:translate(592px,16px)}14.05%{transform:translate(592px,48px)}14.72%,37.46%{transform:translate(624px,48px)}15.38%{transform:translate(624px,16px)}16.39%{transform:translate(672px,16px)}16.72%{transform:translate(672px,0px)}19.06%,21.07%{transform:translate(784px,0px)}19.73%{transform:translate(784px,32px)}20.07%,41.47%{transform:translate(768px,32px)}20.4%{transform:translate(768px,16px)}20.74%{transform:translate(784px,16px)}21.4%{transform:translate(800px,0px)}21.74%{transform:translate(800px,-16px)}22.74%{transform:translate(848px,-16px)}23.41%{transform:translate(848px,16px)}23.75%{transform:translate(832px,16px)}25.75%{transform:translate(832px,112px)}28.76%{transform:translate(688px,112px)}29.43%{transform:translate(688px,80px)}33.78%,55.18%{transform:translate(480px,80px)}34.45%{transform:translate(480px,48px)}37.79%{transform:translate(624px,64px)}38.8%{transform:translate(672px,64px)}39.13%{transform:translate(672px,48px)}41.14%,68.56%{transform:translate(768px,48px)}42.14%,65.55%{transform:translate(800px,32px)}42.47%{transform:translate(800px,16px)}44.15%{transform:translate(720px,16px)}44.48%{transform:translate(720px,32px)}44.82%{transform:translate(736px,32px)}45.15%{transform:translate(736px,48px)}45.48%,68.9%{transform:translate(752px,48px)}46.15%{transform:translate(752px,80px)}46.49%{transform:translate(768px,80px)}46.82%{transform:translate(768px,64px)}50.5%{transform:translate(592px,64px)}51.17%{transform:translate(592px,32px)}53.85%{transform:translate(464px,32px)}54.85%{transform:translate(464px,80px)}55.52%{transform:translate(480px,64px)}62.54%{transform:translate(816px,64px)}63.21%{transform:translate(816px,96px)}63.88%{transform:translate(784px,96px)}64.88%{transform:translate(784px,48px)}65.22%{transform:translate(800px,48px)}65.89%{transform:translate(816px,32px)}66.56%{transform:translate(816px,0px)}67.56%{transform:translate(768px,0px)}69.9%{transform:translate(752px,96px)}70.23%{transform:translate(736px,96px)}70.9%{transform:translate(736px,64px)}72.91%{transform:translate(640px,64px)}73.58%{transform:translate(640px,32px)}73.91%{transform:translate(656px,32px)}74.25%{transform:translate(656px,48px)}75.25%{transform:translate(704px,48px)}76.25%{transform:translate(704px,96px)}78.26%{transform:translate(800px,96px)}78.6%{transform:translate(800px,80px)}78.93%{transform:translate(816px,80px)}79.6%{transform:translate(816px,48px)}79.93%{transform:translate(832px,48px)}80.94%{transform:translate(832px,0px)}82.61%{transform:translate(752px,0px)}83.28%{transform:translate(752px,32px)}97.66%{transform:translate(64px,32px)}98.66%{transform:translate(64px,-16px)}}.s.s1{transform:translate(16px,-16px);animation-name:s1}@keyframes s2{0%,99.67%{transform:translate(32px,-16px)}0.67%{transform:translate(0px,-16px)}1%{transform:translate(0px,0px)}12.04%{transform:translate(528px,0px)}12.37%{transform:translate(528px,16px)}13.71%{transform:translate(592px,16px)}14.38%{transform:translate(592px,48px)}15.05%,37.79%{transform:translate(624px,48px)}15.72%{transform:translate(624px,16px)}16.72%{transform:translate(672px,16px)}17.06%{transform:translate(672px,0px)}19.4%,21.4%{transform:translate(784px,0px)}20.07%{transform:translate(784px,32px)}20.4%,41.81%{transform:translate(768px,32px)}20.74%{transform:translate(768px,16px)}21.07%{transform:translate(784px,16px)}21.74%{transform:translate(800px,0px)}22.07%{transform:translate(800px,-16px)}23.08%{transform:translate(848px,-16px)}23.75%{transform:translate(848px,16px)}24.08%{transform:translate(832px,16px)}26.09%{transform:translate(832px,112px)}29.1%{transform:translate(688px,112px)}29.77%{transform:translate(688px,80px)}34.11%,55.52%{transform:translate(480px,80px)}34.78%{transform:translate(480px,48px)}38.13%{transform:translate(624px,64px)}39.13%{transform:translate(672px,64px)}39.46%{transform:translate(672px,48px)}41.47%,68.9%{transform:translate(768px,48px)}42.47%,65.89%{transform:translate(800px,32px)}42.81%{transform:translate(800px,16px)}44.48%{transform:translate(720px,16px)}44.82%{transform:translate(720px,32px)}45.15%{transform:translate(736px,32px)}45.48%{transform:translate(736px,48px)}45.82%,69.23%{transform:translate(752px,48px)}46.49%{transform:translate(752px,80px)}46.82%{transform:translate(768px,80px)}47.16%{transform:translate(768px,64px)}50.84%{transform:translate(592px,64px)}51.51%{transform:translate(592px,32px)}54.18%{transform:translate(464px,32px)}55.18%{transform:translate(464px,80px)}55.85%{transform:translate(480px,64px)}62.88%{transform:translate(816px,64px)}63.55%{transform:translate(816px,96px)}64.21%{transform:translate(784px,96px)}65.22%{transform:translate(784px,48px)}65.55%{transform:translate(800px,48px)}66.22%{transform:translate(816px,32px)}66.89%{transform:translate(816px,0px)}67.89%{transform:translate(768px,0px)}70.23%{transform:translate(752px,96px)}70.57%{transform:translate(736px,96px)}71.24%{transform:translate(736px,64px)}73.24%{transform:translate(640px,64px)}73.91%{transform:translate(640px,32px)}74.25%{transform:translate(656px,32px)}74.58%{transform:translate(656px,48px)}75.59%{transform:translate(704px,48px)}76.59%{transform:translate(704px,96px)}78.6%{transform:translate(800px,96px)}78.93%{transform:translate(800px,80px)}79.26%{transform:translate(816px,80px)}79.93%{transform:translate(816px,48px)}80.27%{transform:translate(832px,48px)}81.27%{transform:translate(832px,0px)}82.94%{transform:translate(752px,0px)}83.61%{transform:translate(752px,32px)}97.99%{transform:translate(64px,32px)}99%{transform:translate(64px,-16px)}}.s.s2{transform:translate(32px,-16px);animation-name:s2}@keyframes s3{0%,99.67%{transform:translate(48px,-16px)}1%{transform:translate(0px,-16px)}1.34%{transform:translate(0px,0px)}12.37%{transform:translate(528px,0px)}12.71%{transform:translate(528px,16px)}14.05%{transform:translate(592px,16px)}14.72%{transform:translate(592px,48px)}15.38%,38.13%{transform:translate(624px,48px)}16.05%{transform:translate(624px,16px)}17.06%{transform:translate(672px,16px)}17.39%{transform:translate(672px,0px)}19.73%,21.74%{transform:translate(784px,0px)}20.4%{transform:translate(784px,32px)}20.74%,42.14%{transform:translate(768px,32px)}21.07%{transform:translate(768px,16px)}21.4%{transform:translate(784px,16px)}22.07%{transform:translate(800px,0px)}22.41%{transform:translate(800px,-16px)}23.41%{transform:translate(848px,-16px)}24.08%{transform:translate(848px,16px)}24.41%{transform:translate(832px,16px)}26.42%{transform:translate(832px,112px)}29.43%{transform:translate(688px,112px)}30.1%{transform:translate(688px,80px)}34.45%,55.85%{transform:translate(480px,80px)}35.12%{transform:translate(480px,48px)}38.46%{transform:translate(624px,64px)}39.46%{transform:translate(672px,64px)}39.8%{transform:translate(672px,48px)}41.81%,69.23%{transform:translate(768px,48px)}42.81%,66.22%{transform:translate(800px,32px)}43.14%{transform:translate(800px,16px)}44.82%{transform:translate(720px,16px)}45.15%{transform:translate(720px,32px)}45.48%{transform:translate(736px,32px)}45.82%{transform:translate(736px,48px)}46.15%,69.57%{transform:translate(752px,48px)}46.82%{transform:translate(752px,80px)}47.16%{transform:translate(768px,80px)}47.49%{transform:translate(768px,64px)}51.17%{transform:translate(592px,64px)}51.84%{transform:translate(592px,32px)}54.52%{transform:translate(464px,32px)}55.52%{transform:translate(464px,80px)}56.19%{transform:translate(480px,64px)}63.21%{transform:translate(816px,64px)}63.88%{transform:translate(816px,96px)}64.55%{transform:translate(784px,96px)}65.55%{transform:translate(784px,48px)}65.89%{transform:translate(800px,48px)}66.56%{transform:translate(816px,32px)}67.22%{transform:translate(816px,0px)}68.23%{transform:translate(768px,0px)}70.57%{transform:translate(752px,96px)}70.9%{transform:translate(736px,96px)}71.57%{transform:translate(736px,64px)}73.58%{transform:translate(640px,64px)}74.25%{transform:translate(640px,32px)}74.58%{transform:translate(656px,32px)}74.92%{transform:translate(656px,48px)}75.92%{transform:translate(704px,48px)}76.92%{transform:translate(704px,96px)}78.93%{transform:translate(800px,96px)}79.26%{transform:translate(800px,80px)}79.6%{transform:translate(816px,80px)}80.27%{transform:translate(816px,48px)}80.6%{transform:translate(832px,48px)}81.61%{transform:translate(832px,0px)}83.28%{transform:translate(752px,0px)}83.95%{transform:translate(752px,32px)}98.33%{transform:translate(64px,32px)}99.33%{transform:translate(64px,-16px)}}.s.s3{transform:translate(48px,-16px);animation-name:s3}</style><rect class="c" x="2" y="2" rx="2" ry="2"/><rect class="c" x="2" y="18" rx="2" ry="2"/><rect class="c" x="2" y="34" rx="2" ry="2"/><rect class="c" x="2" y="50" rx="2" ry="2"/><rect class="c" x="2" y="66" rx="2" ry="2"/><rect class="c" x="2" y="82" rx="2" ry="2"/><rect class="c" x="2" y="98" rx="2" ry="2"/><rect class="c" x="18" y="2" rx="2" ry="2"/><rect class="c" x="18" y="18" rx="2" ry="2"/><rect class="c" x="18" y="34" rx="2" ry="2"/><rect class="c" x="18" y="50" rx="2" ry="2"/><rect class="c" x="18" y="66" rx="2" ry="2"/><rect class="c" x="18" y="82" rx="2" ry="2"/><rect class="c" x="18" y="98" rx="2" ry="2"/><rect class="c" x="34" y="2" rx="2" ry="2"/><rect class="c" x="34" y="18" rx="2" ry="2"/><rect class="c" x="34" y="34" rx="2" ry="2"/><rect class="c" x="34" y="50" rx="2" ry="2"/><rect class="c" x="34" y="66" rx="2" ry="2"/><rect class="c" x="34" y="82" rx="2" ry="2"/><rect class="c" x="34" y="98" rx="2" ry="2"/><rect class="c" x="50" y="2" rx="2" ry="2"/><rect class="c" x="50" y="18" rx="2" ry="2"/><rect class="c" x="50" y="34" rx="2" ry="2"/><rect class="c" x="50" y="50" rx="2" ry="2"/><rect class="c" x="50" y="66" rx="2" ry="2"/><rect class="c" x="50" y="82" rx="2" ry="2"/><rect class="c" x="50" y="98" rx="2" ry="2"/><rect class="c" x="66" y="2" rx="2" ry="2"/><rect class="c" x="66" y="18" rx="2" ry="2"/><rect class="c" x="66" y="34" rx="2" ry="2"/><rect class="c" x="66" y="50" rx="2" ry="2"/><rect class="c" x="66" y="66" rx="2" ry="2"/><rect class="c" x="66" y="82" rx="2" ry="2"/><rect class="c" x="66" y="98" rx="2" ry="2"/><rect class="c" x="82" y="2" rx="2" ry="2"/><rect class="c" x="82" y="18" rx="2" ry="2"/><rect class="c" x="82" y="34" rx="2" ry="2"/><rect class="c" x="82" y="50" rx="2" ry="2"/><rect class="c" x="82" y="66" rx="2" ry="2"/><rect class="c" x="82" y="82" rx="2" ry="2"/><rect class="c" x="82" y="98" rx="2" ry="2"/><rect class="c" x="98" y="2" rx="2" ry="2"/><rect class="c" x="98" y="18" rx="2" ry="2"/><rect class="c" x="98" y="34" rx="2" ry="2"/><rect class="c" x="98" y="50" rx="2" ry="2"/><rect class="c" x="98" y="66" rx="2" ry="2"/><rect class="c" x="98" y="82" rx="2" ry="2"/><rect class="c" x="98" y="98" rx="2" ry="2"/><rect class="c" x="114" y="2" rx="2" ry="2"/><rect class="c" x="114" y="18" rx="2" ry="2"/><rect class="c" x="114" y="34" rx="2" ry="2"/><rect class="c" x="114" y="50" rx="2" ry="2"/><rect class="c" x="114" y="66" rx="2" ry="2"/><rect class="c" x="114" y="82" rx="2" ry="2"/><rect class="c" x="114" y="98" rx="2" ry="2"/><rect class="c" x="130" y="2" rx="2" ry="2"/><rect class="c" x="130" y="18" rx="2" ry="2"/><rect class="c" x="130" y="34" rx="2" ry="2"/><rect class="c" x="130" y="50" rx="2" ry="2"/><rect class="c" x="130" y="66" rx="2" ry="2"/><rect class="c" x="130" y="82" rx="2" ry="2"/><rect class="c" x="130" y="98" rx="2" ry="2"/><rect class="c" x="146" y="2" rx="2" ry="2"/><rect class="c" x="146" y="18" rx="2" ry="2"/><rect class="c" x="146" y="34" rx="2" ry="2"/><rect class="c" x="146" y="50" rx="2" ry="2"/><rect class="c" x="146" y="66" rx="2" ry="2"/><rect class="c" x="146" y="82" rx="2" ry="2"/><rect class="c" x="146" y="98" rx="2" ry="2"/><rect class="c" x="162" y="2" rx="2" ry="2"/><rect class="c" x="162" y="18" rx="2" ry="2"/><rect class="c" x="162" y="34" rx="2" ry="2"/><rect class="c" x="162" y="50" rx="2" ry="2"/><rect class="c" x="162" y="66" rx="2" ry="2"/><rect class="c" x="162" y="82" rx="2" ry="2"/><rect class="c" x="162" y="98" rx="2" ry="2"/><rect class="c" x="178" y="2" rx="2" ry="2"/><rect class="c" x="178" y="18" rx="2" ry="2"/><rect class="c" x="178" y="34" rx="2" ry="2"/><rect class="c" x="178" y="50" rx="2" ry="2"/><rect class="c" x="178" y="66" rx="2" ry="2"/><rect class="c" x="178" y="82" rx="2" ry="2"/><rect class="c" x="178" y="98" rx="2" ry="2"/><rect class="c" x="194" y="2" rx="2" ry="2"/><rect class="c" x="194" y="18" rx="2" ry="2"/><rect class="c" x="194" y="34" rx="2" ry="2"/><rect class="c" x="194" y="50" rx="2" ry="2"/><rect class="c" x="194" y="66" rx="2" ry="2"/><rect class="c" x="194" y="82" rx="2" ry="2"/><rect class="c" x="194" y="98" rx="2" ry="2"/><rect class="c" x="210" y="2" rx="2" ry="2"/><rect class="c" x="210" y="18" rx="2" ry="2"/><rect class="c" x="210" y="34" rx="2" ry="2"/><rect class="c" x="210" y="50" rx="2" ry="2"/><rect class="c" x="210" y="66" rx="2" ry="2"/><rect class="c" x="210" y="82" rx="2" ry="2"/><rect class="c" x="210" y="98" rx="2" ry="2"/><rect class="c" x="226" y="2" rx="2" ry="2"/><rect class="c" x="226" y="18" rx="2" ry="2"/><rect class="c" x="226" y="34" rx="2" ry="2"/><rect class="c" x="226" y="50" rx="2" ry="2"/><rect class="c" x="226" y="66" rx="2" ry="2"/><rect class="c" x="226" y="82" rx="2" ry="2"/><rect class="c" x="226" y="98" rx="2" ry="2"/><rect class="c" x="242" y="2" rx="2" ry="2"/><rect class="c" x="242" y="18" rx="2" ry="2"/><rect class="c" x="242" y="34" rx="2" ry="2"/><rect class="c" x="242" y="50" rx="2" ry="2"/><rect class="c" x="242" y="66" rx="2" ry="2"/><rect class="c" x="242" y="82" rx="2" ry="2"/><rect class="c" x="242" y="98" rx="2" ry="2"/><rect class="c" x="258" y="2" rx="2" ry="2"/><rect class="c" x="258" y="18" rx="2" ry="2"/><rect class="c" x="258" y="34" rx="2" ry="2"/><rect class="c" x="258" y="50" rx="2" ry="2"/><rect class="c" x="258" y="66" rx="2" ry="2"/><rect class="c" x="258" y="82" rx="2" ry="2"/><rect class="c" x="258" y="98" rx="2" ry="2"/><rect class="c" x="274" y="2" rx="2" ry="2"/><rect class="c" x="274" y="18" rx="2" ry="2"/><rect class="c" x="274" y="34" rx="2" ry="2"/><rect class="c" x="274" y="50" rx="2" ry="2"/><rect class="c" x="274" y="66" rx="2" ry="2"/><rect class="c" x="274" y="82" rx="2" ry="2"/><rect class="c" x="274" y="98" rx="2" ry="2"/><rect class="c" x="290" y="2" rx="2" ry="2"/><rect class="c" x="290" y="18" rx="2" ry="2"/><rect class="c" x="290" y="34" rx="2" ry="2"/><rect class="c" x="290" y="50" rx="2" ry="2"/><rect class="c" x="290" y="66" rx="2" ry="2"/><rect class="c" x="290" y="82" rx="2" ry="2"/><rect class="c" x="290" y="98" rx="2" ry="2"/><rect class="c" x="306" y="2" rx="2" ry="2"/><rect class="c" x="306" y="18" rx="2" ry="2"/><rect class="c" x="306" y="34" rx="2" ry="2"/><rect class="c" x="306" y="50" rx="2" ry="2"/><rect class="c" x="306" y="66" rx="2" ry="2"/><rect class="c" x="306" y="82" rx="2" ry="2"/><rect class="c" x="306" y="98" rx="2" ry="2"/><rect class="c" x="322" y="2" rx="2" ry="2"/><rect class="c" x="322" y="18" rx="2" ry="2"/><rect class="c" x="322" y="34" rx="2" ry="2"/><rect class="c" x="322" y="50" rx="2" ry="2"/><rect class="c" x="322" y="66" rx="2" ry="2"/><rect class="c" x="322" y="82" rx="2" ry="2"/><rect class="c" x="322" y="98" rx="2" ry="2"/><rect class="c" x="338" y="2" rx="2" ry="2"/><rect class="c" x="338" y="18" rx="2" ry="2"/><rect class="c" x="338" y="34" rx="2" ry="2"/><rect class="c" x="338" y="50" rx="2" ry="2"/><rect class="c" x="338" y="66" rx="2" ry="2"/><rect class="c" x="338" y="82" rx="2" ry="2"/><rect class="c" x="338" y="98" rx="2" ry="2"/><rect class="c" x="354" y="2" rx="2" ry="2"/><rect class="c" x="354" y="18" rx="2" ry="2"/><rect class="c" x="354" y="34" rx="2" ry="2"/><rect class="c" x="354" y="50" rx="2" ry="2"/><rect class="c" x="354" y="66" rx="2" ry="2"/><rect class="c" x="354" y="82" rx="2" ry="2"/><rect class="c" x="354" y="98" rx="2" ry="2"/><rect class="c" x="370" y="2" rx="2" ry="2"/><rect class="c" x="370" y="18" rx="2" ry="2"/><rect class="c" x="370" y="34" rx="2" ry="2"/><rect class="c" x="370" y="50" rx="2" ry="2"/><rect class="c" x="370" y="66" rx="2" ry="2"/><rect class="c" x="370" y="82" rx="2" ry="2"/><rect class="c" x="370" y="98" rx="2" ry="2"/><rect class="c" x="386" y="2" rx="2" ry="2"/><rect class="c" x="386" y="18" rx="2" ry="2"/><rect class="c" x="386" y="34" rx="2" ry="2"/><rect class="c" x="386" y="50" rx="2" ry="2"/><rect class="c" x="386" y="66" rx="2" ry="2"/><rect class="c" x="386" y="82" rx="2" ry="2"/><rect class="c" x="386" y="98" rx="2" ry="2"/><rect class="c" x="402" y="2" rx="2" ry="2"/><rect class="c" x="402" y="18" rx="2" ry="2"/><rect class="c" x="402" y="34" rx="2" ry="2"/><rect class="c" x="402" y="50" rx="2" ry="2"/><rect class="c" x="402" y="66" rx="2" ry="2"/><rect class="c" x="402" y="82" rx="2" ry="2"/><rect class="c" x="402" y="98" rx="2" ry="2"/><rect class="c" x="418" y="2" rx="2" ry="2"/><rect class="c" x="418" y="18" rx="2" ry="2"/><rect class="c" x="418" y="34" rx="2" ry="2"/><rect class="c" x="418" y="50" rx="2" ry="2"/><rect class="c" x="418" y="66" rx="2" ry="2"/><rect class="c" x="418" y="82" rx="2" ry="2"/><rect class="c" x="418" y="98" rx="2" ry="2"/><rect class="c" x="434" y="2" rx="2" ry="2"/><rect class="c" x="434" y="18" rx="2" ry="2"/><rect class="c" x="434" y="34" rx="2" ry="2"/><rect class="c" x="434" y="50" rx="2" ry="2"/><rect class="c" x="434" y="66" rx="2" ry="2"/><rect class="c" x="434" y="82" rx="2" ry="2"/><rect class="c" x="434" y="98" rx="2" ry="2"/><rect class="c" x="450" y="2" rx="2" ry="2"/><rect class="c" x="450" y="18" rx="2" ry="2"/><rect class="c" x="450" y="34" rx="2" ry="2"/><rect class="c" x="450" y="50" rx="2" ry="2"/><rect class="c" x="450" y="66" rx="2" ry="2"/><rect class="c" x="450" y="82" rx="2" ry="2"/><rect class="c" x="450" y="98" rx="2" ry="2"/><rect class="c" x="466" y="2" rx="2" ry="2"/><rect class="c" x="466" y="18" rx="2" ry="2"/><rect class="c" x="466" y="34" rx="2" ry="2"/><rect class="c" x="466" y="50" rx="2" ry="2"/><rect class="c" x="466" y="66" rx="2" ry="2"/><rect class="c c0" x="466" y="82" rx="2" ry="2"/><rect class="c" x="466" y="98" rx="2" ry="2"/><rect class="c" x="482" y="2" rx="2" ry="2"/><rect class="c" x="482" y="18" rx="2" ry="2"/><rect class="c" x="482" y="34" rx="2" ry="2"/><rect class="c" x="482" y="50" rx="2" ry="2"/><rect class="c" x="482" y="66" rx="2" ry="2"/><rect class="c c1" x="482" y="82" rx="2" ry="2"/><rect class="c" x="482" y="98" rx="2" ry="2"/><rect class="c" x="498" y="2" rx="2" ry="2"/><rect class="c" x="498" y="18" rx="2" ry="2"/><rect class="c" x="498" y="34" rx="2" ry="2"/><rect class="c" x="498" y="50" rx="2" ry="2"/><rect class="c" x="498" y="66" rx="2" ry="2"/><rect class="c" x="498" y="82" rx="2" ry="2"/><rect class="c" x="498" y="98" rx="2" ry="2"/><rect class="c" x="514" y="2" rx="2" ry="2"/><rect class="c" x="514" y="18" rx="2" ry="2"/><rect class="c" x="514" y="34" rx="2" ry="2"/><rect class="c" x="514" y="50" rx="2" ry="2"/><rect class="c" x="514" y="66" rx="2" ry="2"/><rect class="c" x="514" y="82" rx="2" ry="2"/><rect class="c" x="514" y="98" rx="2" ry="2"/><rect class="c" x="530" y="2" rx="2" ry="2"/><rect class="c c2" x="530" y="18" rx="2" ry="2"/><rect class="c c3" x="530" y="34" rx="2" ry="2"/><rect class="c" x="530" y="50" rx="2" ry="2"/><rect class="c" x="530" y="66" rx="2" ry="2"/><rect class="c" x="530" y="82" rx="2" ry="2"/><rect class="c" x="530" y="98" rx="2" ry="2"/><rect class="c" x="546" y="2" rx="2" ry="2"/><rect class="c c4" x="546" y="18" rx="2" ry="2"/><rect class="c c5" x="546" y="34" rx="2" ry="2"/><rect class="c" x="546" y="50" rx="2" ry="2"/><rect class="c" x="546" y="66" rx="2" ry="2"/><rect class="c" x="546" y="82" rx="2" ry="2"/><rect class="c" x="546" y="98" rx="2" ry="2"/><rect class="c" x="562" y="2" rx="2" ry="2"/><rect class="c" x="562" y="18" rx="2" ry="2"/><rect class="c" x="562" y="34" rx="2" ry="2"/><rect class="c" x="562" y="50" rx="2" ry="2"/><rect class="c" x="562" y="66" rx="2" ry="2"/><rect class="c" x="562" y="82" rx="2" ry="2"/><rect class="c" x="562" y="98" rx="2" ry="2"/><rect class="c" x="578" y="2" rx="2" ry="2"/><rect class="c" x="578" y="18" rx="2" ry="2"/><rect class="c" x="578" y="34" rx="2" ry="2"/><rect class="c" x="578" y="50" rx="2" ry="2"/><rect class="c" x="578" y="66" rx="2" ry="2"/><rect class="c" x="578" y="82" rx="2" ry="2"/><rect class="c" x="578" y="98" rx="2" ry="2"/><rect class="c" x="594" y="2" rx="2" ry="2"/><rect class="c" x="594" y="18" rx="2" ry="2"/><rect class="c" x="594" y="34" rx="2" ry="2"/><rect class="c c6" x="594" y="50" rx="2" ry="2"/><rect class="c c7" x="594" y="66" rx="2" ry="2"/><rect class="c" x="594" y="82" rx="2" ry="2"/><rect class="c" x="594" y="98" rx="2" ry="2"/><rect class="c" x="610" y="2" rx="2" ry="2"/><rect class="c" x="610" y="18" rx="2" ry="2"/><rect class="c" x="610" y="34" rx="2" ry="2"/><rect class="c" x="610" y="50" rx="2" ry="2"/><rect class="c" x="610" y="66" rx="2" ry="2"/><rect class="c" x="610" y="82" rx="2" ry="2"/><rect class="c" x="610" y="98" rx="2" ry="2"/><rect class="c" x="626" y="2" rx="2" ry="2"/><rect class="c" x="626" y="18" rx="2" ry="2"/><rect class="c" x="626" y="34" rx="2" ry="2"/><rect class="c" x="626" y="50" rx="2" ry="2"/><rect class="c" x="626" y="66" rx="2" ry="2"/><rect class="c" x="626" y="82" rx="2" ry="2"/><rect class="c" x="626" y="98" rx="2" ry="2"/><rect class="c" x="642" y="2" rx="2" ry="2"/><rect class="c" x="642" y="18" rx="2" ry="2"/><rect class="c c8" x="642" y="34" rx="2" ry="2"/><rect class="c" x="642" y="50" rx="2" ry="2"/><rect class="c" x="642" y="66" rx="2" ry="2"/><rect class="c" x="642" y="82" rx="2" ry="2"/><rect class="c" x="642" y="98" rx="2" ry="2"/><rect class="c" x="658" y="2" rx="2" ry="2"/><rect class="c" x="658" y="18" rx="2" ry="2"/><rect class="c c9" x="658" y="34" rx="2" ry="2"/><rect class="c ca" x="658" y="50" rx="2" ry="2"/><rect class="c" x="658" y="66" rx="2" ry="2"/><rect class="c" x="658" y="82" rx="2" ry="2"/><rect class="c" x="658" y="98" rx="2" ry="2"/><rect class="c cb" x="674" y="2" rx="2" ry="2"/><rect class="c" x="674" y="18" rx="2" ry="2"/><rect class="c" x="674" y="34" rx="2" ry="2"/><rect class="c" x="674" y="50" rx="2" ry="2"/><rect class="c" x="674" y="66" rx="2" ry="2"/><rect class="c" x="674" y="82" rx="2" ry="2"/><rect class="c" x="674" y="98" rx="2" ry="2"/><rect class="c" x="690" y="2" rx="2" ry="2"/><rect class="c" x="690" y="18" rx="2" ry="2"/><rect class="c" x="690" y="34" rx="2" ry="2"/><rect class="c" x="690" y="50" rx="2" ry="2"/><rect class="c" x="690" y="66" rx="2" ry="2"/><rect class="c" x="690" y="82" rx="2" ry="2"/><rect class="c" x="690" y="98" rx="2" ry="2"/><rect class="c" x="706" y="2" rx="2" ry="2"/><rect class="c" x="706" y="18" rx="2" ry="2"/><rect class="c" x="706" y="34" rx="2" ry="2"/><rect class="c" x="706" y="50" rx="2" ry="2"/><rect class="c" x="706" y="66" rx="2" ry="2"/><rect class="c cc" x="706" y="82" rx="2" ry="2"/><rect class="c cd" x="706" y="98" rx="2" ry="2"/><rect class="c" x="722" y="2" rx="2" ry="2"/><rect class="c ce" x="722" y="18" rx="2" ry="2"/><rect class="c" x="722" y="34" rx="2" ry="2"/><rect class="c" x="722" y="50" rx="2" ry="2"/><rect class="c" x="722" y="66" rx="2" ry="2"/><rect class="c" x="722" y="82" rx="2" ry="2"/><rect class="c" x="722" y="98" rx="2" ry="2"/><rect class="c" x="738" y="2" rx="2" ry="2"/><rect class="c" x="738" y="18" rx="2" ry="2"/><rect class="c" x="738" y="34" rx="2" ry="2"/><rect class="c" x="738" y="50" rx="2" ry="2"/><rect class="c" x="738" y="66" rx="2" ry="2"/><rect class="c" x="738" y="82" rx="2" ry="2"/><rect class="c" x="738" y="98" rx="2" ry="2"/><rect class="c" x="754" y="2" rx="2" ry="2"/><rect class="c" x="754" y="18" rx="2" ry="2"/><rect class="c cf" x="754" y="34" rx="2" ry="2"/><rect class="c" x="754" y="50" rx="2" ry="2"/><rect class="c" x="754" y="66" rx="2" ry="2"/><rect class="c cg" x="754" y="82" rx="2" ry="2"/><rect class="c ch" x="754" y="98" rx="2" ry="2"/><rect class="c" x="770" y="2" rx="2" ry="2"/><rect class="c" x="770" y="18" rx="2" ry="2"/><rect class="c" x="770" y="34" rx="2" ry="2"/><rect class="c" x="770" y="50" rx="2" ry="2"/><rect class="c" x="770" y="66" rx="2" ry="2"/><rect class="c ci" x="770" y="82" rx="2" ry="2"/><rect class="c cj" x="770" y="98" rx="2" ry="2"/><rect class="c" x="786" y="2" rx="2" ry="2"/><rect class="c" x="786" y="18" rx="2" ry="2"/><rect class="c ck" x="786" y="34" rx="2" ry="2"/><rect class="c cl" x="786" y="50" rx="2" ry="2"/><rect class="c" x="786" y="66" rx="2" ry="2"/><rect class="c" x="786" y="82" rx="2" ry="2"/><rect class="c" x="786" y="98" rx="2" ry="2"/><rect class="c" x="802" y="2" rx="2" ry="2"/><rect class="c cm" x="802" y="18" rx="2" ry="2"/><rect class="c cn" x="802" y="34" rx="2" ry="2"/><rect class="c co" x="802" y="50" rx="2" ry="2"/><rect class="c cp" x="802" y="66" rx="2" ry="2"/><rect class="c cq" x="802" y="82" rx="2" ry="2"/><rect class="c cr" x="802" y="98" rx="2" ry="2"/><rect class="c cs" x="818" y="2" rx="2" ry="2"/><rect class="c ct" x="818" y="18" rx="2" ry="2"/><rect class="c cu" x="818" y="34" rx="2" ry="2"/><rect class="c cv" x="818" y="50" rx="2" ry="2"/><rect class="c cw" x="818" y="66" rx="2" ry="2"/><rect class="c cx" x="818" y="82" rx="2" ry="2"/><rect class="c cy" x="818" y="98" rx="2" ry="2"/><rect class="c cz" x="834" y="2" rx="2" ry="2"/><rect class="c c10" x="834" y="18" rx="2" ry="2"/><rect class="u u0" height="12" width="184.0" x="0.0" y="144"/><rect class="u u1" height="12" width="206.9" x="183.4" y="144"/><rect class="u u2" height="12" width="252.7" x="389.6" y="144"/><rect class="u u3" height="12" width="206.9" x="641.7" y="144"/><rect class="s s0" x="0.8" y="0.8" width="14.4" height="14.4" rx="4.5" ry="4.5"/><rect class="s s1" x="1.8" y="1.8" width="12.3" height="12.3" rx="4.1" ry="4.1"/><rect class="s s2" x="2.6" y="2.6" width="10.8" height="10.8" rx="3.6" ry="3.6"/><rect class="s s3" x="3.0" y="3.0" width="9.9" height="9.9" rx="3.3" ry="3.3"/></svg>