<svg viewBox="-16 -32 880 192" width="880" height="192" xmlns="http://www.w3.org/2000/svg"><desc>Generated with https://github.com/Platane/snk</desc><style>:root{--cb:#1b1f230a;--cs:764ba2;--ce:#ebedf0;--c0:#ebedf0;--c1:#9be9a8;--c2:#40c463;--c3:#30a14e;--c4:#216e39}.c{shape-rendering:geometricPrecision;fill:var(--ce);stroke-width:1px;stroke:var(--cb);animation:none 34900ms linear infinite;width:12px;height:12px}@keyframes c0{13.17%{fill:var(--c1)}13.19%,100%{fill:var(--ce)}}.c.c0{fill:var(--c1);animation-name:c0}@keyframes c1{12.88%{fill:var(--c1)}12.9%,100%{fill:var(--ce)}}.c.c1{fill:var(--c1);animation-name:c1}@keyframes c2{8.01%{fill:var(--c1)}8.03%,100%{fill:var(--ce)}}.c.c2{fill:var(--c1);animation-name:c2}@keyframes c3{8.87%{fill:var(--c1)}8.89%,100%{fill:var(--ce)}}.c.c3{fill:var(--c1);animation-name:c3}@keyframes c4{8.3%{fill:var(--c1)}8.32%,100%{fill:var(--ce)}}.c.c4{fill:var(--c1);animation-name:c4}@keyframes c5{8.59%{fill:var(--c1)}8.61%,100%{fill:var(--ce)}}.c.c5{fill:var(--c1);animation-name:c5}@keyframes c6{10.31%{fill:var(--c1)}10.33%,100%{fill:var(--ce)}}.c.c6{fill:var(--c1);animation-name:c6}@keyframes c7{10.59%{fill:var(--c1)}10.61%,100%{fill:var(--ce)}}.c.c7{fill:var(--c1);animation-name:c7}@keyframes c8{64.17%{fill:var(--c2)}64.19%,100%{fill:var(--ce)}}.c.c8{fill:var(--c2);animation-name:c8}@keyframes c9{63.89%{fill:var(--c2)}63.91%,100%{fill:var(--ce)}}.c.c9{fill:var(--c2);animation-name:c9}@keyframes ca{80.22%{fill:var(--c4)}80.24%,100%{fill:var(--ce)}}.c.ca{fill:var(--c4);animation-name:ca}@keyframes cb{18.33%{fill:var(--c1)}18.35%,100%{fill:var(--ce)}}.c.cb{fill:var(--c1);animation-name:cb}@keyframes cc{78.79%{fill:var(--c3)}78.81%,100%{fill:var(--ce)}}.c.cc{fill:var(--c3);animation-name:cc}@keyframes cd{61.88%{fill:var(--c2)}61.9%,100%{fill:var(--ce)}}.c.cd{fill:var(--c2);animation-name:cd}@keyframes ce{19.47%{fill:var(--c1)}19.49%,100%{fill:var(--ce)}}.c.ce{fill:var(--c1);animation-name:ce}@keyframes cf{56.44%{fill:var(--c2)}56.46%,100%{fill:var(--ce)}}.c.cf{fill:var(--c2);animation-name:cf}@keyframes cg{22.91%{fill:var(--c1)}22.93%,100%{fill:var(--ce)}}.c.cg{fill:var(--c1);animation-name:cg}@keyframes ch{57.58%{fill:var(--c2)}57.6%,100%{fill:var(--ce)}}.c.ch{fill:var(--c2);animation-name:ch}@keyframes ci{22.63%{fill:var(--c1)}22.65%,100%{fill:var(--ce)}}.c.ci{fill:var(--c1);animation-name:ci}@keyframes cj{57.87%{fill:var(--c2)}57.89%,100%{fill:var(--ce)}}.c.cj{fill:var(--c2);animation-name:cj}@keyframes ck{21.48%{fill:var(--c1)}21.5%,100%{fill:var(--ce)}}.c.ck{fill:var(--c1);animation-name:ck}@keyframes cl{55.58%{fill:var(--c2)}55.6%,100%{fill:var(--ce)}}.c.cl{fill:var(--c2);animation-name:cl}@keyframes cm{20.91%{fill:var(--c1)}20.93%,100%{fill:var(--ce)}}.c.cm{fill:var(--c1);animation-name:cm}@keyframes cn{21.19%{fill:var(--c1)}21.21%,100%{fill:var(--ce)}}.c.cn{fill:var(--c1);animation-name:cn}@keyframes co{44.4%{fill:var(--c2)}44.42%,100%{fill:var(--ce)}}.c.co{fill:var(--c2);animation-name:co}@keyframes cp{44.12%{fill:var(--c1)}44.14%,100%{fill:var(--ce)}}.c.cp{fill:var(--c1);animation-name:cp}@keyframes cq{83.37%{fill:var(--c4)}83.39%,100%{fill:var(--ce)}}.c.cq{fill:var(--c4);animation-name:cq}@keyframes cr{58.44%{fill:var(--c2)}58.46%,100%{fill:var(--ce)}}.c.cr{fill:var(--c2);animation-name:cr}@keyframes cs{52.43%{fill:var(--c2)}52.45%,100%{fill:var(--ce)}}.c.cs{fill:var(--c2);animation-name:cs}@keyframes ct{52.14%{fill:var(--c2)}52.16%,100%{fill:var(--ce)}}.c.ct{fill:var(--c2);animation-name:ct}@keyframes cu{53.57%{fill:var(--c2)}53.59%,100%{fill:var(--ce)}}.c.cu{fill:var(--c2);animation-name:cu}@keyframes cv{76.21%{fill:var(--c3)}76.23%,100%{fill:var(--ce)}}.c.cv{fill:var(--c3);animation-name:cv}@keyframes cw{46.69%{fill:var(--c2)}46.71%,100%{fill:var(--ce)}}.c.cw{fill:var(--c2);animation-name:cw}@keyframes cx{59.59%{fill:var(--c2)}59.61%,100%{fill:var(--ce)}}.c.cx{fill:var(--c2);animation-name:cx}@keyframes cy{58.73%{fill:var(--c2)}58.75%,100%{fill:var(--ce)}}.c.cy{fill:var(--c2);animation-name:cy}@keyframes cz{75.06%{fill:var(--c3)}75.08%,100%{fill:var(--ce)}}.c.cz{fill:var(--c3);animation-name:cz}@keyframes c10{51.85%{fill:var(--c2)}51.87%,100%{fill:var(--ce)}}.c.c10{fill:var(--c2);animation-name:c10}@keyframes c11{53.86%{fill:var(--c2)}53.88%,100%{fill:var(--ce)}}.c.c11{fill:var(--c2);animation-name:c11}@keyframes c12{73.63%{fill:var(--c3)}73.65%,100%{fill:var(--ce)}}.c.c12{fill:var(--c3);animation-name:c12}@keyframes c13{46.98%{fill:var(--c1)}47%,100%{fill:var(--ce)}}.c.c13{fill:var(--c1);animation-name:c13}@keyframes c14{47.27%{fill:var(--c2)}47.29%,100%{fill:var(--ce)}}.c.c14{fill:var(--c2);animation-name:c14}@keyframes c15{59.02%{fill:var(--c2)}59.04%,100%{fill:var(--ce)}}.c.c15{fill:var(--c2);animation-name:c15}@keyframes c16{50.71%{fill:var(--c2)}50.73%,100%{fill:var(--ce)}}.c.c16{fill:var(--c2);animation-name:c16}@keyframes c17{50.42%{fill:var(--c2)}50.44%,100%{fill:var(--ce)}}.c.c17{fill:var(--c2);animation-name:c17}@keyframes c18{50.13%{fill:var(--c2)}50.15%,100%{fill:var(--ce)}}.c.c18{fill:var(--c2);animation-name:c18}@keyframes c19{73.92%{fill:var(--c3)}73.94%,100%{fill:var(--ce)}}.c.c19{fill:var(--c3);animation-name:c19}@keyframes c1a{84.52%{fill:var(--c4)}84.54%,100%{fill:var(--ce)}}.c.c1a{fill:var(--c4);animation-name:c1a}@keyframes c1b{47.55%{fill:var(--c2)}47.57%,100%{fill:var(--ce)}}.c.c1b{fill:var(--c2);animation-name:c1b}@keyframes c1c{26.06%{fill:var(--c1)}26.08%,100%{fill:var(--ce)}}.c.c1c{fill:var(--c1);animation-name:c1c}@keyframes c1d{50.99%{fill:var(--c2)}51.01%,100%{fill:var(--ce)}}.c.c1d{fill:var(--c2);animation-name:c1d}@keyframes c1e{39.25%{fill:var(--c1)}39.27%,100%{fill:var(--ce)}}.c.c1e{fill:var(--c1);animation-name:c1e}@keyframes c1f{38.96%{fill:var(--c1)}38.98%,100%{fill:var(--ce)}}.c.c1f{fill:var(--c1);animation-name:c1f}@keyframes c1g{85.09%{fill:var(--c4)}85.11%,100%{fill:var(--ce)}}.c.c1g{fill:var(--c4);animation-name:c1g}@keyframes c1h{48.13%{fill:var(--c2)}48.15%,100%{fill:var(--ce)}}.c.c1h{fill:var(--c2);animation-name:c1h}@keyframes c1i{36.95%{fill:var(--c1)}36.97%,100%{fill:var(--ce)}}.c.c1i{fill:var(--c1);animation-name:c1i}@keyframes c1j{26.35%{fill:var(--c1)}26.37%,100%{fill:var(--ce)}}.c.c1j{fill:var(--c1);animation-name:c1j}@keyframes c1k{31.8%{fill:var(--c1)}31.82%,100%{fill:var(--ce)}}.c.c1k{fill:var(--c1);animation-name:c1k}@keyframes c1l{39.53%{fill:var(--c2)}39.55%,100%{fill:var(--ce)}}.c.c1l{fill:var(--c2);animation-name:c1l}@keyframes c1m{38.67%{fill:var(--c1)}38.69%,100%{fill:var(--ce)}}.c.c1m{fill:var(--c1);animation-name:c1m}@keyframes c1n{34.95%{fill:var(--c1)}34.97%,100%{fill:var(--ce)}}.c.c1n{fill:var(--c1);animation-name:c1n}@keyframes c1o{35.23%{fill:var(--c1)}35.25%,100%{fill:var(--ce)}}.c.c1o{fill:var(--c1);animation-name:c1o}@keyframes c1p{36.67%{fill:var(--c1)}36.69%,100%{fill:var(--ce)}}.c.c1p{fill:var(--c1);animation-name:c1p}@keyframes c1q{26.64%{fill:var(--c1)}26.66%,100%{fill:var(--ce)}}.c.c1q{fill:var(--c1);animation-name:c1q}@keyframes c1r{31.51%{fill:var(--c1)}31.53%,100%{fill:var(--ce)}}.c.c1r{fill:var(--c1);animation-name:c1r}@keyframes c1s{32.94%{fill:var(--c1)}32.96%,100%{fill:var(--ce)}}.c.c1s{fill:var(--c1);animation-name:c1s}@keyframes c1t{49.27%{fill:var(--c2)}49.29%,100%{fill:var(--ce)}}.c.c1t{fill:var(--c2);animation-name:c1t}@keyframes c1u{34.66%{fill:var(--c1)}34.68%,100%{fill:var(--ce)}}.c.c1u{fill:var(--c1);animation-name:c1u}@keyframes c1v{35.52%{fill:var(--c1)}35.54%,100%{fill:var(--ce)}}.c.c1v{fill:var(--c1);animation-name:c1v}@keyframes c1w{36.38%{fill:var(--c1)}36.4%,100%{fill:var(--ce)}}.c.c1w{fill:var(--c1);animation-name:c1w}@keyframes c1x{26.92%{fill:var(--c1)}26.94%,100%{fill:var(--ce)}}.c.c1x{fill:var(--c1);animation-name:c1x}@keyframes c1y{31.22%{fill:var(--c1)}31.24%,100%{fill:var(--ce)}}.c.c1y{fill:var(--c1);animation-name:c1y}@keyframes c1z{33.23%{fill:var(--c1)}33.25%,100%{fill:var(--ce)}}.c.c1z{fill:var(--c1);animation-name:c1z}@keyframes c20{34.09%{fill:var(--c1)}34.11%,100%{fill:var(--ce)}}.c.c20{fill:var(--c1);animation-name:c20}@keyframes c21{34.37%{fill:var(--c1)}34.39%,100%{fill:var(--ce)}}.c.c21{fill:var(--c1);animation-name:c21}@keyframes c22{35.81%{fill:var(--c1)}35.83%,100%{fill:var(--ce)}}.c.c22{fill:var(--c1);animation-name:c22}@keyframes c23{36.09%{fill:var(--c1)}36.11%,100%{fill:var(--ce)}}.c.c23{fill:var(--c1);animation-name:c23}@keyframes c24{27.21%{fill:var(--c1)}27.23%,100%{fill:var(--ce)}}.c.c24{fill:var(--c1);animation-name:c24}@keyframes c25{30.94%{fill:var(--c1)}30.96%,100%{fill:var(--ce)}}.c.c25{fill:var(--c1);animation-name:c25}@keyframes c26{33.51%{fill:var(--c1)}33.53%,100%{fill:var(--ce)}}.c.c26{fill:var(--c1);animation-name:c26}@keyframes c27{29.79%{fill:var(--c1)}29.81%,100%{fill:var(--ce)}}.c.c27{fill:var(--c1);animation-name:c27}@keyframes c28{29.5%{fill:var(--c1)}29.52%,100%{fill:var(--ce)}}.c.c28{fill:var(--c1);animation-name:c28}@keyframes c29{29.22%{fill:var(--c1)}29.24%,100%{fill:var(--ce)}}.c.c29{fill:var(--c1);animation-name:c29}@keyframes c2a{28.93%{fill:var(--c1)}28.95%,100%{fill:var(--ce)}}.c.c2a{fill:var(--c1);animation-name:c2a}@keyframes c2b{27.5%{fill:var(--c1)}27.52%,100%{fill:var(--ce)}}.c.c2b{fill:var(--c1);animation-name:c2b}@keyframes c2c{30.65%{fill:var(--c1)}30.67%,100%{fill:var(--ce)}}.c.c2c{fill:var(--c1);animation-name:c2c}@keyframes c2d{30.36%{fill:var(--c1)}30.38%,100%{fill:var(--ce)}}.c.c2d{fill:var(--c1);animation-name:c2d}@keyframes c2e{30.08%{fill:var(--c1)}30.1%,100%{fill:var(--ce)}}.c.c2e{fill:var(--c1);animation-name:c2e}@keyframes c2f{70.48%{fill:var(--c2)}70.5%,100%{fill:var(--ce)}}.c.c2f{fill:var(--c2);animation-name:c2f}@keyframes c2g{70.76%{fill:var(--c3)}70.78%,100%{fill:var(--ce)}}.c.c2g{fill:var(--c3);animation-name:c2g}@keyframes c2h{71.05%{fill:var(--c3)}71.07%,100%{fill:var(--ce)}}.c.c2h{fill:var(--c3);animation-name:c2h}@keyframes c2i{27.78%{fill:var(--c1)}27.8%,100%{fill:var(--ce)}}.c.c2i{fill:var(--c1);animation-name:c2i}.u{transform-origin:0 0;transform:scale(0,1);animation:none linear 34900ms infinite}@keyframes u0{8.01%{transform:scale(0.000,1)}8.03%,8.3%{transform:scale(0.020,1)}8.32%,8.59%{transform:scale(0.040,1)}8.61%,8.87%{transform:scale(0.060,1)}8.89%,10.31%{transform:scale(0.080,1)}10.33%,10.59%{transform:scale(0.100,1)}10.61%,12.88%{transform:scale(0.120,1)}12.9%,13.17%{transform:scale(0.140,1)}13.19%,18.33%{transform:scale(0.160,1)}18.35%,19.47%{transform:scale(0.180,1)}19.49%,20.91%{transform:scale(0.200,1)}20.93%,21.19%{transform:scale(0.220,1)}21.21%,21.48%{transform:scale(0.240,1)}21.5%,22.63%{transform:scale(0.260,1)}22.65%,22.91%{transform:scale(0.280,1)}22.93%,26.06%{transform:scale(0.300,1)}26.08%,26.35%{transform:scale(0.320,1)}26.37%,26.64%{transform:scale(0.340,1)}26.66%,26.92%{transform:scale(0.360,1)}26.94%,27.21%{transform:scale(0.380,1)}27.23%,27.5%{transform:scale(0.400,1)}27.52%,27.78%{transform:scale(0.420,1)}27.8%,28.93%{transform:scale(0.440,1)}28.95%,29.22%{transform:scale(0.460,1)}29.24%,29.5%{transform:scale(0.480,1)}29.52%,29.79%{transform:scale(0.500,1)}29.81%,30.08%{transform:scale(0.520,1)}30.1%,30.36%{transform:scale(0.540,1)}30.38%,30.65%{transform:scale(0.560,1)}30.67%,30.94%{transform:scale(0.580,1)}30.96%,31.22%{transform:scale(0.600,1)}31.24%,31.51%{transform:scale(0.620,1)}31.53%,31.8%{transform:scale(0.640,1)}31.82%,32.94%{transform:scale(0.660,1)}32.96%,33.23%{transform:scale(0.680,1)}33.25%,33.51%{transform:scale(0.700,1)}33.53%,34.09%{transform:scale(0.720,1)}34.11%,34.37%{transform:scale(0.740,1)}34.39%,34.66%{transform:scale(0.760,1)}34.68%,34.95%{transform:scale(0.780,1)}34.97%,35.23%{transform:scale(0.800,1)}35.25%,35.52%{transform:scale(0.820,1)}35.54%,35.81%{transform:scale(0.840,1)}35.83%,36.09%{transform:scale(0.860,1)}36.11%,36.38%{transform:scale(0.880,1)}36.4%,36.67%{transform:scale(0.900,1)}36.69%,36.95%{transform:scale(0.920,1)}36.97%,38.67%{transform:scale(0.940,1)}38.69%,38.96%{transform:scale(0.960,1)}38.98%,39.25%{transform:scale(0.980,1)}39.27%,100%{transform:scale(1.000,1)}}.u.u0{fill:var(--c1);animation-name:u0;transform-origin:0.0px 0}@keyframes u1{39.53%{transform:scale(0.000,1)}39.55%,100%{transform:scale(1.000,1)}}.u.u1{fill:var(--c2);animation-name:u1;transform-origin:465.9px 0}@keyframes u2{44.12%{transform:scale(0.000,1)}44.14%,100%{transform:scale(1.000,1)}}.u.u2{fill:var(--c1);animation-name:u2;transform-origin:475.3px 0}@keyframes u3{44.4%{transform:scale(0.000,1)}44.42%,46.69%{transform:scale(0.500,1)}46.71%,100%{transform:scale(1.000,1)}}.u.u3{fill:var(--c2);animation-name:u3;transform-origin:484.6px 0}@keyframes u4{46.98%{transform:scale(0.000,1)}47%,100%{transform:scale(1.000,1)}}.u.u4{fill:var(--c1);animation-name:u4;transform-origin:503.2px 0}@keyframes u5{47.27%{transform:scale(0.000,1)}47.29%,47.55%{transform:scale(0.040,1)}47.57%,48.13%{transform:scale(0.080,1)}48.15%,49.27%{transform:scale(0.120,1)}49.29%,50.13%{transform:scale(0.160,1)}50.15%,50.42%{transform:scale(0.200,1)}50.44%,50.71%{transform:scale(0.240,1)}50.73%,50.99%{transform:scale(0.280,1)}51.01%,51.85%{transform:scale(0.320,1)}51.87%,52.14%{transform:scale(0.360,1)}52.16%,52.43%{transform:scale(0.400,1)}52.45%,53.57%{transform:scale(0.440,1)}53.59%,53.86%{transform:scale(0.480,1)}53.88%,55.58%{transform:scale(0.520,1)}55.6%,56.44%{transform:scale(0.560,1)}56.46%,57.58%{transform:scale(0.600,1)}57.6%,57.87%{transform:scale(0.640,1)}57.89%,58.44%{transform:scale(0.680,1)}58.46%,58.73%{transform:scale(0.720,1)}58.75%,59.02%{transform:scale(0.760,1)}59.04%,59.59%{transform:scale(0.800,1)}59.61%,61.88%{transform:scale(0.840,1)}61.9%,63.89%{transform:scale(0.880,1)}63.91%,64.17%{transform:scale(0.920,1)}64.19%,70.48%{transform:scale(0.960,1)}70.5%,100%{transform:scale(1.000,1)}}.u.u5{fill:var(--c2);animation-name:u5;transform-origin:512.5px 0}@keyframes u6{70.76%{transform:scale(0.000,1)}70.78%,71.05%{transform:scale(0.143,1)}71.07%,73.63%{transform:scale(0.286,1)}73.65%,73.92%{transform:scale(0.429,1)}73.94%,75.06%{transform:scale(0.571,1)}75.08%,76.21%{transform:scale(0.714,1)}76.23%,78.79%{transform:scale(0.857,1)}78.81%,100%{transform:scale(1.000,1)}}.u.u6{fill:var(--c3);animation-name:u6;transform-origin:745.5px 0}@keyframes u7{80.22%{transform:scale(0.000,1)}80.24%,83.37%{transform:scale(0.250,1)}83.39%,84.52%{transform:scale(0.500,1)}84.54%,85.09%{transform:scale(0.750,1)}85.11%,100%{transform:scale(1.000,1)}}.u.u7{fill:var(--c4);animation-name:u7;transform-origin:810.7px 0}.s{shape-rendering:geometricPrecision;fill:var(--cs);animation:none linear 34900ms infinite}@keyframes s0{0%,99.71%{transform:translate(0px,-16px)}0.29%{transform:translate(0px,0px)}7.74%{transform:translate(416px,0px)}8.02%{transform:translate(416px,16px)}8.31%{transform:translate(432px,16px)}8.6%{transform:translate(432px,32px)}8.88%{transform:translate(416px,32px)}9.17%{transform:translate(416px,48px)}10.32%{transform:translate(480px,48px)}10.6%{transform:translate(480px,64px)}12.61%{transform:translate(368px,64px)}12.89%{transform:translate(368px,80px)}13.18%{transform:translate(352px,80px)}13.47%{transform:translate(352px,64px)}17.19%{transform:translate(560px,64px)}18.34%{transform:translate(560px,0px)}19.2%{transform:translate(608px,0px)}19.48%{transform:translate(608px,16px)}20.92%,44.99%,53.01%{transform:translate(688px,16px)}21.2%,45.85%{transform:translate(688px,32px)}21.78%,42.98%,56.16%{transform:translate(656px,32px)}22.64%{transform:translate(656px,80px)}22.92%{transform:translate(640px,80px)}23.21%{transform:translate(640px,64px)}23.78%{transform:translate(672px,64px)}24.64%{transform:translate(672px,112px)}25.79%{transform:translate(736px,112px)}26.07%{transform:translate(736px,96px)}27.79%{transform:translate(832px,96px)}28.08%{transform:translate(832px,112px)}28.37%{transform:translate(816px,112px)}29.8%,33.81%{transform:translate(816px,32px)}30.09%{transform:translate(832px,32px)}30.66%{transform:translate(832px,0px)}31.81%{transform:translate(768px,0px)}32.09%,40.11%{transform:translate(768px,-16px)}32.38%{transform:translate(784px,-16px)}32.95%{transform:translate(784px,16px)}33.52%{transform:translate(816px,16px)}34.1%{transform:translate(800px,32px)}34.38%{transform:translate(800px,48px)}34.96%{transform:translate(768px,48px)}35.24%{transform:translate(768px,64px)}35.82%{transform:translate(800px,64px)}36.1%{transform:translate(800px,80px)}36.96%,47.85%{transform:translate(752px,80px)}37.25%{transform:translate(752px,96px)}37.54%{transform:translate(768px,96px)}38.68%{transform:translate(768px,32px)}38.97%{transform:translate(752px,32px)}39.26%,51.29%{transform:translate(752px,16px)}39.54%{transform:translate(768px,16px)}41.83%{transform:translate(672px,-16px)}42.69%,45.56%{transform:translate(672px,32px)}43.55%{transform:translate(656px,64px)}44.13%,46.42%,83.09%{transform:translate(688px,64px)}45.27%,55.01%{transform:translate(672px,16px)}46.99%{transform:translate(720px,64px)}47.28%,59.31%,73.07%{transform:translate(720px,80px)}48.14%,84.81%{transform:translate(752px,64px)}48.71%{transform:translate(784px,64px)}49.28%{transform:translate(784px,32px)}50.14%{transform:translate(736px,32px)}50.72%,74.79%{transform:translate(736px,0px)}51%{transform:translate(752px,0px)}52.15%,53.3%{transform:translate(704px,16px)}52.44%,75.36%{transform:translate(704px,0px)}52.72%{transform:translate(688px,0px)}53.58%{transform:translate(704px,32px)}53.87%{transform:translate(720px,32px)}54.15%{transform:translate(720px,16px)}55.59%{transform:translate(672px,48px)}55.87%{transform:translate(656px,48px)}56.45%{transform:translate(640px,32px)}57.59%{transform:translate(640px,96px)}59.03%{transform:translate(720px,96px)}59.6%{transform:translate(704px,80px)}59.89%{transform:translate(704px,96px)}62.18%{transform:translate(576px,96px)}63.32%{transform:translate(576px,32px)}64.18%{transform:translate(528px,32px)}64.47%{transform:translate(528px,16px)}69.91%{transform:translate(832px,16px)}71.06%{transform:translate(832px,80px)}73.64%{transform:translate(720px,48px)}73.93%{transform:translate(736px,48px)}76.22%{transform:translate(704px,48px)}78.22%{transform:translate(592px,48px)}78.8%{transform:translate(592px,80px)}79.08%{transform:translate(576px,80px)}79.66%{transform:translate(576px,48px)}80.23%{transform:translate(544px,48px)}80.52%{transform:translate(544px,64px)}83.38%{transform:translate(688px,80px)}84.24%{transform:translate(736px,80px)}84.53%{transform:translate(736px,64px)}85.1%{transform:translate(752px,48px)}96.85%{transform:translate(96px,48px)}97.42%{transform:translate(96px,16px)}97.71%{transform:translate(80px,16px)}98.28%{transform:translate(80px,-16px)}}.s.s0{transform:translate(0px,-16px);animation-name:s0}@keyframes s1{0%,99.71%{transform:translate(16px,-16px)}0.29%{transform:translate(0px,-16px)}0.57%{transform:translate(0px,0px)}8.02%{transform:translate(416px,0px)}8.31%{transform:translate(416px,16px)}8.6%{transform:translate(432px,16px)}8.88%{transform:translate(432px,32px)}9.17%{transform:translate(416px,32px)}9.46%{transform:translate(416px,48px)}10.6%{transform:translate(480px,48px)}10.89%{transform:translate(480px,64px)}12.89%{transform:translate(368px,64px)}13.18%{transform:translate(368px,80px)}13.47%{transform:translate(352px,80px)}13.75%{transform:translate(352px,64px)}17.48%{transform:translate(560px,64px)}18.62%{transform:translate(560px,0px)}19.48%{transform:translate(608px,0px)}19.77%{transform:translate(608px,16px)}21.2%,45.27%,53.3%{transform:translate(688px,16px)}21.49%,46.13%{transform:translate(688px,32px)}22.06%,43.27%,56.45%{transform:translate(656px,32px)}22.92%{transform:translate(656px,80px)}23.21%{transform:translate(640px,80px)}23.5%{transform:translate(640px,64px)}24.07%{transform:translate(672px,64px)}24.93%{transform:translate(672px,112px)}26.07%{transform:translate(736px,112px)}26.36%{transform:translate(736px,96px)}28.08%{transform:translate(832px,96px)}28.37%{transform:translate(832px,112px)}28.65%{transform:translate(816px,112px)}30.09%,34.1%{transform:translate(816px,32px)}30.37%{transform:translate(832px,32px)}30.95%{transform:translate(832px,0px)}32.09%{transform:translate(768px,0px)}32.38%,40.4%{transform:translate(768px,-16px)}32.66%{transform:translate(784px,-16px)}33.24%{transform:translate(784px,16px)}33.81%{transform:translate(816px,16px)}34.38%{transform:translate(800px,32px)}34.67%{transform:translate(800px,48px)}35.24%{transform:translate(768px,48px)}35.53%{transform:translate(768px,64px)}36.1%{transform:translate(800px,64px)}36.39%{transform:translate(800px,80px)}37.25%,48.14%{transform:translate(752px,80px)}37.54%{transform:translate(752px,96px)}37.82%{transform:translate(768px,96px)}38.97%{transform:translate(768px,32px)}39.26%{transform:translate(752px,32px)}39.54%,51.58%{transform:translate(752px,16px)}39.83%{transform:translate(768px,16px)}42.12%{transform:translate(672px,-16px)}42.98%,45.85%{transform:translate(672px,32px)}43.84%{transform:translate(656px,64px)}44.41%,46.7%,83.38%{transform:translate(688px,64px)}45.56%,55.3%{transform:translate(672px,16px)}47.28%{transform:translate(720px,64px)}47.56%,59.6%,73.35%{transform:translate(720px,80px)}48.42%,85.1%{transform:translate(752px,64px)}49%{transform:translate(784px,64px)}49.57%{transform:translate(784px,32px)}50.43%{transform:translate(736px,32px)}51%,75.07%{transform:translate(736px,0px)}51.29%{transform:translate(752px,0px)}52.44%,53.58%{transform:translate(704px,16px)}52.72%,75.64%{transform:translate(704px,0px)}53.01%{transform:translate(688px,0px)}53.87%{transform:translate(704px,32px)}54.15%{transform:translate(720px,32px)}54.44%{transform:translate(720px,16px)}55.87%{transform:translate(672px,48px)}56.16%{transform:translate(656px,48px)}56.73%{transform:translate(640px,32px)}57.88%{transform:translate(640px,96px)}59.31%{transform:translate(720px,96px)}59.89%{transform:translate(704px,80px)}60.17%{transform:translate(704px,96px)}62.46%{transform:translate(576px,96px)}63.61%{transform:translate(576px,32px)}64.47%{transform:translate(528px,32px)}64.76%{transform:translate(528px,16px)}70.2%{transform:translate(832px,16px)}71.35%{transform:translate(832px,80px)}73.93%{transform:translate(720px,48px)}74.21%{transform:translate(736px,48px)}76.5%{transform:translate(704px,48px)}78.51%{transform:translate(592px,48px)}79.08%{transform:translate(592px,80px)}79.37%{transform:translate(576px,80px)}79.94%{transform:translate(576px,48px)}80.52%{transform:translate(544px,48px)}80.8%{transform:translate(544px,64px)}83.67%{transform:translate(688px,80px)}84.53%{transform:translate(736px,80px)}84.81%{transform:translate(736px,64px)}85.39%{transform:translate(752px,48px)}97.13%{transform:translate(96px,48px)}97.71%{transform:translate(96px,16px)}97.99%{transform:translate(80px,16px)}98.57%{transform:translate(80px,-16px)}}.s.s1{transform:translate(16px,-16px);animation-name:s1}@keyframes s2{0%,99.71%{transform:translate(32px,-16px)}0.57%{transform:translate(0px,-16px)}0.86%{transform:translate(0px,0px)}8.31%{transform:translate(416px,0px)}8.6%{transform:translate(416px,16px)}8.88%{transform:translate(432px,16px)}9.17%{transform:translate(432px,32px)}9.46%{transform:translate(416px,32px)}9.74%{transform:translate(416px,48px)}10.89%{transform:translate(480px,48px)}11.17%{transform:translate(480px,64px)}13.18%{transform:translate(368px,64px)}13.47%{transform:translate(368px,80px)}13.75%{transform:translate(352px,80px)}14.04%{transform:translate(352px,64px)}17.77%{transform:translate(560px,64px)}18.91%{transform:translate(560px,0px)}19.77%{transform:translate(608px,0px)}20.06%{transform:translate(608px,16px)}21.49%,45.56%,53.58%{transform:translate(688px,16px)}21.78%,46.42%{transform:translate(688px,32px)}22.35%,43.55%,56.73%{transform:translate(656px,32px)}23.21%{transform:translate(656px,80px)}23.5%{transform:translate(640px,80px)}23.78%{transform:translate(640px,64px)}24.36%{transform:translate(672px,64px)}25.21%{transform:translate(672px,112px)}26.36%{transform:translate(736px,112px)}26.65%{transform:translate(736px,96px)}28.37%{transform:translate(832px,96px)}28.65%{transform:translate(832px,112px)}28.94%{transform:translate(816px,112px)}30.37%,34.38%{transform:translate(816px,32px)}30.66%{transform:translate(832px,32px)}31.23%{transform:translate(832px,0px)}32.38%{transform:translate(768px,0px)}32.66%,40.69%{transform:translate(768px,-16px)}32.95%{transform:translate(784px,-16px)}33.52%{transform:translate(784px,16px)}34.1%{transform:translate(816px,16px)}34.67%{transform:translate(800px,32px)}34.96%{transform:translate(800px,48px)}35.53%{transform:translate(768px,48px)}35.82%{transform:translate(768px,64px)}36.39%{transform:translate(800px,64px)}36.68%{transform:translate(800px,80px)}37.54%,48.42%{transform:translate(752px,80px)}37.82%{transform:translate(752px,96px)}38.11%{transform:translate(768px,96px)}39.26%{transform:translate(768px,32px)}39.54%{transform:translate(752px,32px)}39.83%,51.86%{transform:translate(752px,16px)}40.11%{transform:translate(768px,16px)}42.41%{transform:translate(672px,-16px)}43.27%,46.13%{transform:translate(672px,32px)}44.13%{transform:translate(656px,64px)}44.7%,46.99%,83.67%{transform:translate(688px,64px)}45.85%,55.59%{transform:translate(672px,16px)}47.56%{transform:translate(720px,64px)}47.85%,59.89%,73.64%{transform:translate(720px,80px)}48.71%,85.39%{transform:translate(752px,64px)}49.28%{transform:translate(784px,64px)}49.86%{transform:translate(784px,32px)}50.72%{transform:translate(736px,32px)}51.29%,75.36%{transform:translate(736px,0px)}51.58%{transform:translate(752px,0px)}52.72%,53.87%{transform:translate(704px,16px)}53.01%,75.93%{transform:translate(704px,0px)}53.3%{transform:translate(688px,0px)}54.15%{transform:translate(704px,32px)}54.44%{transform:translate(720px,32px)}54.73%{transform:translate(720px,16px)}56.16%{transform:translate(672px,48px)}56.45%{transform:translate(656px,48px)}57.02%{transform:translate(640px,32px)}58.17%{transform:translate(640px,96px)}59.6%{transform:translate(720px,96px)}60.17%{transform:translate(704px,80px)}60.46%{transform:translate(704px,96px)}62.75%{transform:translate(576px,96px)}63.9%{transform:translate(576px,32px)}64.76%{transform:translate(528px,32px)}65.04%{transform:translate(528px,16px)}70.49%{transform:translate(832px,16px)}71.63%{transform:translate(832px,80px)}74.21%{transform:translate(720px,48px)}74.5%{transform:translate(736px,48px)}76.79%{transform:translate(704px,48px)}78.8%{transform:translate(592px,48px)}79.37%{transform:translate(592px,80px)}79.66%{transform:translate(576px,80px)}80.23%{transform:translate(576px,48px)}80.8%{transform:translate(544px,48px)}81.09%{transform:translate(544px,64px)}83.95%{transform:translate(688px,80px)}84.81%{transform:translate(736px,80px)}85.1%{transform:translate(736px,64px)}85.67%{transform:translate(752px,48px)}97.42%{transform:translate(96px,48px)}97.99%{transform:translate(96px,16px)}98.28%{transform:translate(80px,16px)}98.85%{transform:translate(80px,-16px)}}.s.s2{transform:translate(32px,-16px);animation-name:s2}@keyframes s3{0%,99.71%{transform:translate(48px,-16px)}0.86%{transform:translate(0px,-16px)}1.15%{transform:translate(0px,0px)}8.6%{transform:translate(416px,0px)}8.88%{transform:translate(416px,16px)}9.17%{transform:translate(432px,16px)}9.46%{transform:translate(432px,32px)}9.74%{transform:translate(416px,32px)}10.03%{transform:translate(416px,48px)}11.17%{transform:translate(480px,48px)}11.46%{transform:translate(480px,64px)}13.47%{transform:translate(368px,64px)}13.75%{transform:translate(368px,80px)}14.04%{transform:translate(352px,80px)}14.33%{transform:translate(352px,64px)}18.05%{transform:translate(560px,64px)}19.2%{transform:translate(560px,0px)}20.06%{transform:translate(608px,0px)}20.34%{transform:translate(608px,16px)}21.78%,45.85%,53.87%{transform:translate(688px,16px)}22.06%,46.7%{transform:translate(688px,32px)}22.64%,43.84%,57.02%{transform:translate(656px,32px)}23.5%{transform:translate(656px,80px)}23.78%{transform:translate(640px,80px)}24.07%{transform:translate(640px,64px)}24.64%{transform:translate(672px,64px)}25.5%{transform:translate(672px,112px)}26.65%{transform:translate(736px,112px)}26.93%{transform:translate(736px,96px)}28.65%{transform:translate(832px,96px)}28.94%{transform:translate(832px,112px)}29.23%{transform:translate(816px,112px)}30.66%,34.67%{transform:translate(816px,32px)}30.95%{transform:translate(832px,32px)}31.52%{transform:translate(832px,0px)}32.66%{transform:translate(768px,0px)}32.95%,40.97%{transform:translate(768px,-16px)}33.24%{transform:translate(784px,-16px)}33.81%{transform:translate(784px,16px)}34.38%{transform:translate(816px,16px)}34.96%{transform:translate(800px,32px)}35.24%{transform:translate(800px,48px)}35.82%{transform:translate(768px,48px)}36.1%{transform:translate(768px,64px)}36.68%{transform:translate(800px,64px)}36.96%{transform:translate(800px,80px)}37.82%,48.71%{transform:translate(752px,80px)}38.11%{transform:translate(752px,96px)}38.4%{transform:translate(768px,96px)}39.54%{transform:translate(768px,32px)}39.83%{transform:translate(752px,32px)}40.11%,52.15%{transform:translate(752px,16px)}40.4%{transform:translate(768px,16px)}42.69%{transform:translate(672px,-16px)}43.55%,46.42%{transform:translate(672px,32px)}44.41%{transform:translate(656px,64px)}44.99%,47.28%,83.95%{transform:translate(688px,64px)}46.13%,55.87%{transform:translate(672px,16px)}47.85%{transform:translate(720px,64px)}48.14%,60.17%,73.93%{transform:translate(720px,80px)}49%,85.67%{transform:translate(752px,64px)}49.57%{transform:translate(784px,64px)}50.14%{transform:translate(784px,32px)}51%{transform:translate(736px,32px)}51.58%,75.64%{transform:translate(736px,0px)}51.86%{transform:translate(752px,0px)}53.01%,54.15%{transform:translate(704px,16px)}53.3%,76.22%{transform:translate(704px,0px)}53.58%{transform:translate(688px,0px)}54.44%{transform:translate(704px,32px)}54.73%{transform:translate(720px,32px)}55.01%{transform:translate(720px,16px)}56.45%{transform:translate(672px,48px)}56.73%{transform:translate(656px,48px)}57.31%{transform:translate(640px,32px)}58.45%{transform:translate(640px,96px)}59.89%{transform:translate(720px,96px)}60.46%{transform:translate(704px,80px)}60.74%{transform:translate(704px,96px)}63.04%{transform:translate(576px,96px)}64.18%{transform:translate(576px,32px)}65.04%{transform:translate(528px,32px)}65.33%{transform:translate(528px,16px)}70.77%{transform:translate(832px,16px)}71.92%{transform:translate(832px,80px)}74.5%{transform:translate(720px,48px)}74.79%{transform:translate(736px,48px)}77.08%{transform:translate(704px,48px)}79.08%{transform:translate(592px,48px)}79.66%{transform:translate(592px,80px)}79.94%{transform:translate(576px,80px)}80.52%{transform:translate(576px,48px)}81.09%{transform:translate(544px,48px)}81.38%{transform:translate(544px,64px)}84.24%{transform:translate(688px,80px)}85.1%{transform:translate(736px,80px)}85.39%{transform:translate(736px,64px)}85.96%{transform:translate(752px,48px)}97.71%{transform:translate(96px,48px)}98.28%{transform:translate(96px,16px)}98.57%{transform:translate(80px,16px)}99.14%{transform:translate(80px,-16px)}}.s.s3{transform:translate(48px,-16px);animation-name:s3}</style><rect class="c" x="2" y="2" rx="2" ry="2"/><rect class="c" x="2" y="18" rx="2" ry="2"/><rect class="c" x="2" y="34" rx="2" ry="2"/><rect class="c" x="2" y="50" rx="2" ry="2"/><rect class="c" x="2" y="66" rx="2" ry="2"/><rect class="c" x="2" y="82" rx="2" ry="2"/><rect class="c" x="2" y="98" rx="2" ry="2"/><rect class="c" x="18" y="2" rx="2" ry="2"/><rect class="c" x="18" y="18" rx="2" ry="2"/><rect class="c" x="18" y="34" rx="2" ry="2"/><rect class="c" x="18" y="50" rx="2" ry="2"/><rect class="c" x="18" y="66" rx="2" ry="2"/><rect class="c" x="18" y="82" rx="2" ry="2"/><rect class="c" x="18" y="98" rx="2" ry="2"/><rect class="c" x="34" y="2" rx="2" ry="2"/><rect class="c" x="34" y="18" rx="2" ry="2"/><rect class="c" x="34" y="34" rx="2" ry="2"/><rect class="c" x="34" y="50" rx="2" ry="2"/><rect class="c" x="34" y="66" rx="2" ry="2"/><rect class="c" x="34" y="82" rx="2" ry="2"/><rect class="c" x="34" y="98" rx="2" ry="2"/><rect class="c" x="50" y="2" rx="2" ry="2"/><rect class="c" x="50" y="18" rx="2" ry="2"/><rect class="c" x="50" y="34" rx="2" ry="2"/><rect class="c" x="50" y="50" rx="2" ry="2"/><rect class="c" x="50" y="66" rx="2" ry="2"/><rect class="c" x="50" y="82" rx="2" ry="2"/><rect class="c" x="50" y="98" rx="2" ry="2"/><rect class="c" x="66" y="2" rx="2" ry="2"/><rect class="c" x="66" y="18" rx="2" ry="2"/><rect class="c" x="66" y="34" rx="2" ry="2"/><rect class="c" x="66" y="50" rx="2" ry="2"/><rect class="c" x="66" y="66" rx="2" ry="2"/><rect class="c" x="66" y="82" rx="2" ry="2"/><rect class="c" x="66" y="98" rx="2" ry="2"/><rect class="c" x="82" y="2" rx="2" ry="2"/><rect class="c" x="82" y="18" rx="2" ry="2"/><rect class="c" x="82" y="34" rx="2" ry="2"/><rect class="c" x="82" y="50" rx="2" ry="2"/><rect class="c" x="82" y="66" rx="2" ry="2"/><rect class="c" x="82" y="82" rx="2" ry="2"/><rect class="c" x="82" y="98" rx="2" ry="2"/><rect class="c" x="98" y="2" rx="2" ry="2"/><rect class="c" x="98" y="18" rx="2" ry="2"/><rect class="c" x="98" y="34" rx="2" ry="2"/><rect class="c" x="98" y="50" rx="2" ry="2"/><rect class="c" x="98" y="66" rx="2" ry="2"/><rect class="c" x="98" y="82" rx="2" ry="2"/><rect class="c" x="98" y="98" rx="2" ry="2"/><rect class="c" x="114" y="2" rx="2" ry="2"/><rect class="c" x="114" y="18" rx="2" ry="2"/><rect class="c" x="114" y="34" rx="2" ry="2"/><rect class="c" x="114" y="50" rx="2" ry="2"/><rect class="c" x="114" y="66" rx="2" ry="2"/><rect class="c" x="114" y="82" rx="2" ry="2"/><rect class="c" x="114" y="98" rx="2" ry="2"/><rect class="c" x="130" y="2" rx="2" ry="2"/><rect class="c" x="130" y="18" rx="2" ry="2"/><rect class="c" x="130" y="34" rx="2" ry="2"/><rect class="c" x="130" y="50" rx="2" ry="2"/><rect class="c" x="130" y="66" rx="2" ry="2"/><rect class="c" x="130" y="82" rx="2" ry="2"/><rect class="c" x="130" y="98" rx="2" ry="2"/><rect class="c" x="146" y="2" rx="2" ry="2"/><rect class="c" x="146" y="18" rx="2" ry="2"/><rect class="c" x="146" y="34" rx="2" ry="2"/><rect class="c" x="146" y="50" rx="2" ry="2"/><rect class="c" x="146" y="66" rx="2" ry="2"/><rect class="c" x="146" y="82" rx="2" ry="2"/><rect class="c" x="146" y="98" rx="2" ry="2"/><rect class="c" x="162" y="2" rx="2" ry="2"/><rect class="c" x="162" y="18" rx="2" ry="2"/><rect class="c" x="162" y="34" rx="2" ry="2"/><rect class="c" x="162" y="50" rx="2" ry="2"/><rect class="c" x="162" y="66" rx="2" ry="2"/><rect class="c" x="162" y="82" rx="2" ry="2"/><rect class="c" x="162" y="98" rx="2" ry="2"/><rect class="c" x="178" y="2" rx="2" ry="2"/><rect class="c" x="178" y="18" rx="2" ry="2"/><rect class="c" x="178" y="34" rx="2" ry="2"/><rect class="c" x="178" y="50" rx="2" ry="2"/><rect class="c" x="178" y="66" rx="2" ry="2"/><rect class="c" x="178" y="82" rx="2" ry="2"/><rect class="c" x="178" y="98" rx="2" ry="2"/><rect class="c" x="194" y="2" rx="2" ry="2"/><rect class="c" x="194" y="18" rx="2" ry="2"/><rect class="c" x="194" y="34" rx="2" ry="2"/><rect class="c" x="194" y="50" rx="2" ry="2"/><rect class="c" x="194" y="66" rx="2" ry="2"/><rect class="c" x="194" y="82" rx="2" ry="2"/><rect class="c" x="194" y="98" rx="2" ry="2"/><rect class="c" x="210" y="2" rx="2" ry="2"/><rect class="c" x="210" y="18" rx="2" ry="2"/><rect class="c" x="210" y="34" rx="2" ry="2"/><rect class="c" x="210" y="50" rx="2" ry="2"/><rect class="c" x="210" y="66" rx="2" ry="2"/><rect class="c" x="210" y="82" rx="2" ry="2"/><rect class="c" x="210" y="98" rx="2" ry="2"/><rect class="c" x="226" y="2" rx="2" ry="2"/><rect class="c" x="226" y="18" rx="2" ry="2"/><rect class="c" x="226" y="34" rx="2" ry="2"/><rect class="c" x="226" y="50" rx="2" ry="2"/><rect class="c" x="226" y="66" rx="2" ry="2"/><rect class="c" x="226" y="82" rx="2" ry="2"/><rect class="c" x="226" y="98" rx="2" ry="2"/><rect class="c" x="242" y="2" rx="2" ry="2"/><rect class="c" x="242" y="18" rx="2" ry="2"/><rect class="c" x="242" y="34" rx="2" ry="2"/><rect class="c" x="242" y="50" rx="2" ry="2"/><rect class="c" x="242" y="66" rx="2" ry="2"/><rect class="c" x="242" y="82" rx="2" ry="2"/><rect class="c" x="242" y="98" rx="2" ry="2"/><rect class="c" x="258" y="2" rx="2" ry="2"/><rect class="c" x="258" y="18" rx="2" ry="2"/><rect class="c" x="258" y="34" rx="2" ry="2"/><rect class="c" x="258" y="50" rx="2" ry="2"/><rect class="c" x="258" y="66" rx="2" ry="2"/><rect class="c" x="258" y="82" rx="2" ry="2"/><rect class="c" x="258" y="98" rx="2" ry="2"/><rect class="c" x="274" y="2" rx="2" ry="2"/><rect class="c" x="274" y="18" rx="2" ry="2"/><rect class="c" x="274" y="34" rx="2" ry="2"/><rect class="c" x="274" y="50" rx="2" ry="2"/><rect class="c" x="274" y="66" rx="2" ry="2"/><rect class="c" x="274" y="82" rx="2" ry="2"/><rect class="c" x="274" y="98" rx="2" ry="2"/><rect class="c" x="290" y="2" rx="2" ry="2"/><rect class="c" x="290" y="18" rx="2" ry="2"/><rect class="c" x="290" y="34" rx="2" ry="2"/><rect class="c" x="290" y="50" rx="2" ry="2"/><rect class="c" x="290" y="66" rx="2" ry="2"/><rect class="c" x="290" y="82" rx="2" ry="2"/><rect class="c" x="290" y="98" rx="2" ry="2"/><rect class="c" x="306" y="2" rx="2" ry="2"/><rect class="c" x="306" y="18" rx="2" ry="2"/><rect class="c" x="306" y="34" rx="2" ry="2"/><rect class="c" x="306" y="50" rx="2" ry="2"/><rect class="c" x="306" y="66" rx="2" ry="2"/><rect class="c" x="306" y="82" rx="2" ry="2"/><rect class="c" x="306" y="98" rx="2" ry="2"/><rect class="c" x="322" y="2" rx="2" ry="2"/><rect class="c" x="322" y="18" rx="2" ry="2"/><rect class="c" x="322" y="34" rx="2" ry="2"/><rect class="c" x="322" y="50" rx="2" ry="2"/><rect class="c" x="322" y="66" rx="2" ry="2"/><rect class="c" x="322" y="82" rx="2" ry="2"/><rect class="c" x="322" y="98" rx="2" ry="2"/><rect class="c" x="338" y="2" rx="2" ry="2"/><rect class="c" x="338" y="18" rx="2" ry="2"/><rect class="c" x="338" y="34" rx="2" ry="2"/><rect class="c" x="338" y="50" rx="2" ry="2"/><rect class="c" x="338" y="66" rx="2" ry="2"/><rect class="c" x="338" y="82" rx="2" ry="2"/><rect class="c" x="338" y="98" rx="2" ry="2"/><rect class="c" x="354" y="2" rx="2" ry="2"/><rect class="c" x="354" y="18" rx="2" ry="2"/><rect class="c" x="354" y="34" rx="2" ry="2"/><rect class="c" x="354" y="50" rx="2" ry="2"/><rect class="c" x="354" y="66" rx="2" ry="2"/><rect class="c c0" x="354" y="82" rx="2" ry="2"/><rect class="c" x="354" y="98" rx="2" ry="2"/><rect class="c" x="370" y="2" rx="2" ry="2"/><rect class="c" x="370" y="18" rx="2" ry="2"/><rect class="c" x="370" y="34" rx="2" ry="2"/><rect class="c" x="370" y="50" rx="2" ry="2"/><rect class="c" x="370" y="66" rx="2" ry="2"/><rect class="c c1" x="370" y="82" rx="2" ry="2"/><rect class="c" x="370" y="98" rx="2" ry="2"/><rect class="c" x="386" y="2" rx="2" ry="2"/><rect class="c" x="386" y="18" rx="2" ry="2"/><rect class="c" x="386" y="34" rx="2" ry="2"/><rect class="c" x="386" y="50" rx="2" ry="2"/><rect class="c" x="386" y="66" rx="2" ry="2"/><rect class="c" x="386" y="82" rx="2" ry="2"/><rect class="c" x="386" y="98" rx="2" ry="2"/><rect class="c" x="402" y="2" rx="2" ry="2"/><rect class="c" x="402" y="18" rx="2" ry="2"/><rect class="c" x="402" y="34" rx="2" ry="2"/><rect class="c" x="402" y="50" rx="2" ry="2"/><rect class="c" x="402" y="66" rx="2" ry="2"/><rect class="c" x="402" y="82" rx="2" ry="2"/><rect class="c" x="402" y="98" rx="2" ry="2"/><rect class="c" x="418" y="2" rx="2" ry="2"/><rect class="c c2" x="418" y="18" rx="2" ry="2"/><rect class="c c3" x="418" y="34" rx="2" ry="2"/><rect class="c" x="418" y="50" rx="2" ry="2"/><rect class="c" x="418" y="66" rx="2" ry="2"/><rect class="c" x="418" y="82" rx="2" ry="2"/><rect class="c" x="418" y="98" rx="2" ry="2"/><rect class="c" x="434" y="2" rx="2" ry="2"/><rect class="c c4" x="434" y="18" rx="2" ry="2"/><rect class="c c5" x="434" y="34" rx="2" ry="2"/><rect class="c" x="434" y="50" rx="2" ry="2"/><rect class="c" x="434" y="66" rx="2" ry="2"/><rect class="c" x="434" y="82" rx="2" ry="2"/><rect class="c" x="434" y="98" rx="2" ry="2"/><rect class="c" x="450" y="2" rx="2" ry="2"/><rect class="c" x="450" y="18" rx="2" ry="2"/><rect class="c" x="450" y="34" rx="2" ry="2"/><rect class="c" x="450" y="50" rx="2" ry="2"/><rect class="c" x="450" y="66" rx="2" ry="2"/><rect class="c" x="450" y="82" rx="2" ry="2"/><rect class="c" x="450" y="98" rx="2" ry="2"/><rect class="c" x="466" y="2" rx="2" ry="2"/><rect class="c" x="466" y="18" rx="2" ry="2"/><rect class="c" x="466" y="34" rx="2" ry="2"/><rect class="c" x="466" y="50" rx="2" ry="2"/><rect class="c" x="466" y="66" rx="2" ry="2"/><rect class="c" x="466" y="82" rx="2" ry="2"/><rect class="c" x="466" y="98" rx="2" ry="2"/><rect class="c" x="482" y="2" rx="2" ry="2"/><rect class="c" x="482" y="18" rx="2" ry="2"/><rect class="c" x="482" y="34" rx="2" ry="2"/><rect class="c c6" x="482" y="50" rx="2" ry="2"/><rect class="c c7" x="482" y="66" rx="2" ry="2"/><rect class="c" x="482" y="82" rx="2" ry="2"/><rect class="c" x="482" y="98" rx="2" ry="2"/><rect class="c" x="498" y="2" rx="2" ry="2"/><rect class="c" x="498" y="18" rx="2" ry="2"/><rect class="c" x="498" y="34" rx="2" ry="2"/><rect class="c" x="498" y="50" rx="2" ry="2"/><rect class="c" x="498" y="66" rx="2" ry="2"/><rect class="c" x="498" y="82" rx="2" ry="2"/><rect class="c" x="498" y="98" rx="2" ry="2"/><rect class="c" x="514" y="2" rx="2" ry="2"/><rect class="c" x="514" y="18" rx="2" ry="2"/><rect class="c" x="514" y="34" rx="2" ry="2"/><rect class="c" x="514" y="50" rx="2" ry="2"/><rect class="c" x="514" y="66" rx="2" ry="2"/><rect class="c" x="514" y="82" rx="2" ry="2"/><rect class="c" x="514" y="98" rx="2" ry="2"/><rect class="c" x="530" y="2" rx="2" ry="2"/><rect class="c" x="530" y="18" rx="2" ry="2"/><rect class="c c8" x="530" y="34" rx="2" ry="2"/><rect class="c" x="530" y="50" rx="2" ry="2"/><rect class="c" x="530" y="66" rx="2" ry="2"/><rect class="c" x="530" y="82" rx="2" ry="2"/><rect class="c" x="530" y="98" rx="2" ry="2"/><rect class="c" x="546" y="2" rx="2" ry="2"/><rect class="c" x="546" y="18" rx="2" ry="2"/><rect class="c c9" x="546" y="34" rx="2" ry="2"/><rect class="c ca" x="546" y="50" rx="2" ry="2"/><rect class="c" x="546" y="66" rx="2" ry="2"/><rect class="c" x="546" y="82" rx="2" ry="2"/><rect class="c" x="546" y="98" rx="2" ry="2"/><rect class="c cb" x="562" y="2" rx="2" ry="2"/><rect class="c" x="562" y="18" rx="2" ry="2"/><rect class="c" x="562" y="34" rx="2" ry="2"/><rect class="c" x="562" y="50" rx="2" ry="2"/><rect class="c" x="562" y="66" rx="2" ry="2"/><rect class="c" x="562" y="82" rx="2" ry="2"/><rect class="c" x="562" y="98" rx="2" ry="2"/><rect class="c" x="578" y="2" rx="2" ry="2"/><rect class="c" x="578" y="18" rx="2" ry="2"/><rect class="c" x="578" y="34" rx="2" ry="2"/><rect class="c" x="578" y="50" rx="2" ry="2"/><rect class="c" x="578" y="66" rx="2" ry="2"/><rect class="c" x="578" y="82" rx="2" ry="2"/><rect class="c" x="578" y="98" rx="2" ry="2"/><rect class="c" x="594" y="2" rx="2" ry="2"/><rect class="c" x="594" y="18" rx="2" ry="2"/><rect class="c" x="594" y="34" rx="2" ry="2"/><rect class="c" x="594" y="50" rx="2" ry="2"/><rect class="c" x="594" y="66" rx="2" ry="2"/><rect class="c cc" x="594" y="82" rx="2" ry="2"/><rect class="c cd" x="594" y="98" rx="2" ry="2"/><rect class="c" x="610" y="2" rx="2" ry="2"/><rect class="c ce" x="610" y="18" rx="2" ry="2"/><rect class="c" x="610" y="34" rx="2" ry="2"/><rect class="c" x="610" y="50" rx="2" ry="2"/><rect class="c" x="610" y="66" rx="2" ry="2"/><rect class="c" x="610" y="82" rx="2" ry="2"/><rect class="c" x="610" y="98" rx="2" ry="2"/><rect class="c" x="626" y="2" rx="2" ry="2"/><rect class="c" x="626" y="18" rx="2" ry="2"/><rect class="c" x="626" y="34" rx="2" ry="2"/><rect class="c" x="626" y="50" rx="2" ry="2"/><rect class="c" x="626" y="66" rx="2" ry="2"/><rect class="c" x="626" y="82" rx="2" ry="2"/><rect class="c" x="626" y="98" rx="2" ry="2"/><rect class="c" x="642" y="2" rx="2" ry="2"/><rect class="c" x="642" y="18" rx="2" ry="2"/><rect class="c cf" x="642" y="34" rx="2" ry="2"/><rect class="c" x="642" y="50" rx="2" ry="2"/><rect class="c" x="642" y="66" rx="2" ry="2"/><rect class="c cg" x="642" y="82" rx="2" ry="2"/><rect class="c ch" x="642" y="98" rx="2" ry="2"/><rect class="c" x="658" y="2" rx="2" ry="2"/><rect class="c" x="658" y="18" rx="2" ry="2"/><rect class="c" x="658" y="34" rx="2" ry="2"/><rect class="c" x="658" y="50" rx="2" ry="2"/><rect class="c" x="658" y="66" rx="2" ry="2"/><rect class="c ci" x="658" y="82" rx="2" ry="2"/><rect class="c cj" x="658" y="98" rx="2" ry="2"/><rect class="c" x="674" y="2" rx="2" ry="2"/><rect class="c" x="674" y="18" rx="2" ry="2"/><rect class="c ck" x="674" y="34" rx="2" ry="2"/><rect class="c cl" x="674" y="50" rx="2" ry="2"/><rect class="c" x="674" y="66" rx="2" ry="2"/><rect class="c" x="674" y="82" rx="2" ry="2"/><rect class="c" x="674" y="98" rx="2" ry="2"/><rect class="c" x="690" y="2" rx="2" ry="2"/><rect class="c cm" x="690" y="18" rx="2" ry="2"/><rect class="c cn" x="690" y="34" rx="2" ry="2"/><rect class="c co" x="690" y="50" rx="2" ry="2"/><rect class="c cp" x="690" y="66" rx="2" ry="2"/><rect class="c cq" x="690" y="82" rx="2" ry="2"/><rect class="c cr" x="690" y="98" rx="2" ry="2"/><rect class="c cs" x="706" y="2" rx="2" ry="2"/><rect class="c ct" x="706" y="18" rx="2" ry="2"/><rect class="c cu" x="706" y="34" rx="2" ry="2"/><rect class="c cv" x="706" y="50" rx="2" ry="2"/><rect class="c cw" x="706" y="66" rx="2" ry="2"/><rect class="c cx" x="706" y="82" rx="2" ry="2"/><rect class="c cy" x="706" y="98" rx="2" ry="2"/><rect class="c cz" x="722" y="2" rx="2" ry="2"/><rect class="c c10" x="722" y="18" rx="2" ry="2"/><rect class="c c11" x="722" y="34" rx="2" ry="2"/><rect class="c c12" x="722" y="50" rx="2" ry="2"/><rect class="c c13" x="722" y="66" rx="2" ry="2"/><rect class="c c14" x="722" y="82" rx="2" ry="2"/><rect class="c c15" x="722" y="98" rx="2" ry="2"/><rect class="c c16" x="738" y="2" rx="2" ry="2"/><rect class="c c17" x="738" y="18" rx="2" ry="2"/><rect class="c c18" x="738" y="34" rx="2" ry="2"/><rect class="c c19" x="738" y="50" rx="2" ry="2"/><rect class="c c1a" x="738" y="66" rx="2" ry="2"/><rect class="c c1b" x="738" y="82" rx="2" ry="2"/><rect class="c c1c" x="738" y="98" rx="2" ry="2"/><rect class="c c1d" x="754" y="2" rx="2" ry="2"/><rect class="c c1e" x="754" y="18" rx="2" ry="2"/><rect class="c c1f" x="754" y="34" rx="2" ry="2"/><rect class="c c1g" x="754" y="50" rx="2" ry="2"/><rect class="c c1h" x="754" y="66" rx="2" ry="2"/><rect class="c c1i" x="754" y="82" rx="2" ry="2"/><rect class="c c1j" x="754" y="98" rx="2" ry="2"/><rect class="c c1k" x="770" y="2" rx="2" ry="2"/><rect class="c c1l" x="770" y="18" rx="2" ry="2"/><rect class="c c1m" x="770" y="34" rx="2" ry="2"/><rect class="c c1n" x="770" y="50" rx="2" ry="2"/><rect class="c c1o" x="770" y="66" rx="2" ry="2"/><rect class="c c1p" x="770" y="82" rx="2" ry="2"/><rect class="c c1q" x="770" y="98" rx="2" ry="2"/><rect class="c c1r" x="786" y="2" rx="2" ry="2"/><rect class="c c1s" x="786" y="18" rx="2" ry="2"/><rect class="c c1t" x="786" y="34" rx="2" ry="2"/><rect class="c c1u" x="786" y="50" rx="2" ry="2"/><rect class="c c1v" x="786" y="66" rx="2" ry="2"/><rect class="c c1w" x="786" y="82" rx="2" ry="2"/><rect class="c c1x" x="786" y="98" rx="2" ry="2"/><rect class="c c1y" x="802" y="2" rx="2" ry="2"/><rect class="c c1z" x="802" y="18" rx="2" ry="2"/><rect class="c c20" x="802" y="34" rx="2" ry="2"/><rect class="c c21" x="802" y="50" rx="2" ry="2"/><rect class="c c22" x="802" y="66" rx="2" ry="2"/><rect class="c c23" x="802" y="82" rx="2" ry="2"/><rect class="c c24" x="802" y="98" rx="2" ry="2"/><rect class="c c25" x="818" y="2" rx="2" ry="2"/><rect class="c c26" x="818" y="18" rx="2" ry="2"/><rect class="c c27" x="818" y="34" rx="2" ry="2"/><rect class="c c28" x="818" y="50" rx="2" ry="2"/><rect class="c c29" x="818" y="66" rx="2" ry="2"/><rect class="c c2a" x="818" y="82" rx="2" ry="2"/><rect class="c c2b" x="818" y="98" rx="2" ry="2"/><rect class="c c2c" x="834" y="2" rx="2" ry="2"/><rect class="c c2d" x="834" y="18" rx="2" ry="2"/><rect class="c c2e" x="834" y="34" rx="2" ry="2"/><rect class="c c2f" x="834" y="50" rx="2" ry="2"/><rect class="c c2g" x="834" y="66" rx="2" ry="2"/><rect class="c c2h" x="834" y="82" rx="2" ry="2"/><rect class="c c2i" x="834" y="98" rx="2" ry="2"/><rect class="u u0" height="12" width="466.5" x="0.0" y="144"/><rect class="u u1" height="12" width="9.9" x="465.9" y="144"/><rect class="u u2" height="12" width="9.9" x="475.3" y="144"/><rect class="u u3" height="12" width="19.2" x="484.6" y="144"/><rect class="u u4" height="12" width="9.9" x="503.2" y="144"/><rect class="u u5" height="12" width="233.6" x="512.5" y="144"/><rect class="u u6" height="12" width="65.8" x="745.5" y="144"/><rect class="u u7" height="12" width="37.9" x="810.7" y="144"/><rect class="s s0" x="0.8" y="0.8" width="14.4" height="14.4" rx="4.5" ry="4.5"/><rect class="s s1" x="1.8" y="1.8" width="12.3" height="12.3" rx="4.1" ry="4.1"/><rect class="s s2" x="2.6" y="2.6" width="10.8" height="10.8" rx="3.6" ry="3.6"/><rect class="s s3" x="3.0" y="3.0" width="9.9" height="9.9" rx="3.3" ry="3.3"/></svg>