<svg viewBox="-16 -32 880 192" width="880" height="192" xmlns="http://www.w3.org/2000/svg"><desc>Generated with https://github.com/Platane/snk</desc><style>:root{--cb:#1b1f230a;--cs:764ba2;--ce:#ebedf0;--c0:#ebedf0;--c1:#9be9a8;--c2:#40c463;--c3:#30a14e;--c4:#216e39}.c{shape-rendering:geometricPrecision;fill:var(--ce);stroke-width:1px;stroke:var(--cb);animation:none 29700ms linear infinite;width:12px;height:12px}@keyframes c0{16.15%{fill:var(--c1)}16.17%,100%{fill:var(--ce)}}.c.c0{fill:var(--c1);animation-name:c0}@keyframes c1{15.81%{fill:var(--c1)}15.83%,100%{fill:var(--ce)}}.c.c1{fill:var(--c1);animation-name:c1}@keyframes c2{10.09%{fill:var(--c1)}10.11%,100%{fill:var(--ce)}}.c.c2{fill:var(--c1);animation-name:c2}@keyframes c3{11.1%{fill:var(--c1)}11.12%,100%{fill:var(--ce)}}.c.c3{fill:var(--c1);animation-name:c3}@keyframes c4{10.43%{fill:var(--c1)}10.45%,100%{fill:var(--ce)}}.c.c4{fill:var(--c1);animation-name:c4}@keyframes c5{10.76%{fill:var(--c1)}10.78%,100%{fill:var(--ce)}}.c.c5{fill:var(--c1);animation-name:c5}@keyframes c6{12.78%{fill:var(--c1)}12.8%,100%{fill:var(--ce)}}.c.c6{fill:var(--c1);animation-name:c6}@keyframes c7{13.12%{fill:var(--c1)}13.14%,100%{fill:var(--ce)}}.c.c7{fill:var(--c1);animation-name:c7}@keyframes c8{71.37%{fill:var(--c2)}71.39%,100%{fill:var(--ce)}}.c.c8{fill:var(--c2);animation-name:c8}@keyframes c9{71.03%{fill:var(--c2)}71.05%,100%{fill:var(--ce)}}.c.c9{fill:var(--c2);animation-name:c9}@keyframes ca{86.19%{fill:var(--c4)}86.21%,100%{fill:var(--ce)}}.c.ca{fill:var(--c4);animation-name:ca}@keyframes cb{22.21%{fill:var(--c1)}22.23%,100%{fill:var(--ce)}}.c.cb{fill:var(--c1);animation-name:cb}@keyframes cc{73.73%{fill:var(--c3)}73.75%,100%{fill:var(--ce)}}.c.cc{fill:var(--c3);animation-name:cc}@keyframes cd{68.68%{fill:var(--c2)}68.7%,100%{fill:var(--ce)}}.c.cd{fill:var(--c2);animation-name:cd}@keyframes ce{23.56%{fill:var(--c1)}23.58%,100%{fill:var(--ce)}}.c.ce{fill:var(--c1);animation-name:ce}@keyframes cf{62.28%{fill:var(--c2)}62.3%,100%{fill:var(--ce)}}.c.cf{fill:var(--c2);animation-name:cf}@keyframes cg{27.6%{fill:var(--c1)}27.62%,100%{fill:var(--ce)}}.c.cg{fill:var(--c1);animation-name:cg}@keyframes ch{63.63%{fill:var(--c2)}63.65%,100%{fill:var(--ce)}}.c.ch{fill:var(--c2);animation-name:ch}@keyframes ci{27.26%{fill:var(--c1)}27.28%,100%{fill:var(--ce)}}.c.ci{fill:var(--c1);animation-name:ci}@keyframes cj{63.96%{fill:var(--c2)}63.98%,100%{fill:var(--ce)}}.c.cj{fill:var(--c2);animation-name:cj}@keyframes ck{25.92%{fill:var(--c1)}25.94%,100%{fill:var(--ce)}}.c.ck{fill:var(--c1);animation-name:ck}@keyframes cl{61.27%{fill:var(--c2)}61.29%,100%{fill:var(--ce)}}.c.cl{fill:var(--c2);animation-name:cl}@keyframes cm{25.24%{fill:var(--c1)}25.26%,100%{fill:var(--ce)}}.c.cm{fill:var(--c1);animation-name:cm}@keyframes cn{25.58%{fill:var(--c1)}25.6%,100%{fill:var(--ce)}}.c.cn{fill:var(--c1);animation-name:cn}@keyframes co{48.14%{fill:var(--c2)}48.16%,100%{fill:var(--ce)}}.c.co{fill:var(--c2);animation-name:co}@keyframes cp{47.8%{fill:var(--c1)}47.82%,100%{fill:var(--ce)}}.c.cp{fill:var(--c1);animation-name:cp}@keyframes cq{82.48%{fill:var(--c4)}82.5%,100%{fill:var(--ce)}}.c.cq{fill:var(--c4);animation-name:cq}@keyframes cr{64.64%{fill:var(--c2)}64.66%,100%{fill:var(--ce)}}.c.cr{fill:var(--c2);animation-name:cr}@keyframes cs{57.57%{fill:var(--c2)}57.59%,100%{fill:var(--ce)}}.c.cs{fill:var(--c2);animation-name:cs}@keyframes ct{57.23%{fill:var(--c2)}57.25%,100%{fill:var(--ce)}}.c.ct{fill:var(--c2);animation-name:ct}@keyframes cu{58.91%{fill:var(--c2)}58.93%,100%{fill:var(--ce)}}.c.cu{fill:var(--c2);animation-name:cu}@keyframes cv{76.76%{fill:var(--c3)}76.78%,100%{fill:var(--ce)}}.c.cv{fill:var(--c3);animation-name:cv}@keyframes cw{50.83%{fill:var(--c2)}50.85%,100%{fill:var(--ce)}}.c.cw{fill:var(--c2);animation-name:cw}@keyframes cx{65.98%{fill:var(--c2)}66%,100%{fill:var(--ce)}}.c.cx{fill:var(--c2);animation-name:cx}@keyframes cy{64.97%{fill:var(--c2)}64.99%,100%{fill:var(--ce)}}.c.cy{fill:var(--c2);animation-name:cy}@keyframes cz{78.78%{fill:var(--c3)}78.8%,100%{fill:var(--ce)}}.c.cz{fill:var(--c3);animation-name:cz}@keyframes c10{56.89%{fill:var(--c2)}56.91%,100%{fill:var(--ce)}}.c.c10{fill:var(--c2);animation-name:c10}@keyframes c11{59.25%{fill:var(--c2)}59.27%,100%{fill:var(--ce)}}.c.c11{fill:var(--c2);animation-name:c11}@keyframes c12{77.09%{fill:var(--c3)}77.11%,100%{fill:var(--ce)}}.c.c12{fill:var(--c3);animation-name:c12}@keyframes c13{51.17%{fill:var(--c1)}51.19%,100%{fill:var(--ce)}}.c.c13{fill:var(--c1);animation-name:c13}@keyframes c14{51.51%{fill:var(--c2)}51.53%,100%{fill:var(--ce)}}.c.c14{fill:var(--c2);animation-name:c14}@keyframes c15{65.31%{fill:var(--c2)}65.33%,100%{fill:var(--ce)}}.c.c15{fill:var(--c2);animation-name:c15}@keyframes c16{55.55%{fill:var(--c2)}55.57%,100%{fill:var(--ce)}}.c.c16{fill:var(--c2);animation-name:c16}@keyframes c17{55.21%{fill:var(--c2)}55.23%,100%{fill:var(--ce)}}.c.c17{fill:var(--c2);animation-name:c17}@keyframes c18{54.87%{fill:var(--c2)}54.89%,100%{fill:var(--ce)}}.c.c18{fill:var(--c2);animation-name:c18}@keyframes c19{77.43%{fill:var(--c3)}77.45%,100%{fill:var(--ce)}}.c.c19{fill:var(--c3);animation-name:c19}@keyframes c1a{81.13%{fill:var(--c4)}81.15%,100%{fill:var(--ce)}}.c.c1a{fill:var(--c4);animation-name:c1a}@keyframes c1b{51.84%{fill:var(--c2)}51.86%,100%{fill:var(--ce)}}.c.c1b{fill:var(--c2);animation-name:c1b}@keyframes c1c{31.3%{fill:var(--c1)}31.32%,100%{fill:var(--ce)}}.c.c1c{fill:var(--c1);animation-name:c1c}@keyframes c1d{55.88%{fill:var(--c2)}55.9%,100%{fill:var(--ce)}}.c.c1d{fill:var(--c2);animation-name:c1d}@keyframes c1e{42.08%{fill:var(--c1)}42.1%,100%{fill:var(--ce)}}.c.c1e{fill:var(--c1);animation-name:c1e}@keyframes c1f{41.74%{fill:var(--c1)}41.76%,100%{fill:var(--ce)}}.c.c1f{fill:var(--c1);animation-name:c1f}@keyframes c1g{80.46%{fill:var(--c4)}80.48%,100%{fill:var(--ce)}}.c.c1g{fill:var(--c4);animation-name:c1g}@keyframes c1h{52.52%{fill:var(--c2)}52.54%,100%{fill:var(--ce)}}.c.c1h{fill:var(--c2);animation-name:c1h}@keyframes c1i{39.38%{fill:var(--c1)}39.4%,100%{fill:var(--ce)}}.c.c1i{fill:var(--c1);animation-name:c1i}@keyframes c1j{31.64%{fill:var(--c1)}31.66%,100%{fill:var(--ce)}}.c.c1j{fill:var(--c1);animation-name:c1j}@keyframes c1k{35.34%{fill:var(--c1)}35.36%,100%{fill:var(--ce)}}.c.c1k{fill:var(--c1);animation-name:c1k}@keyframes c1l{42.41%{fill:var(--c2)}42.43%,100%{fill:var(--ce)}}.c.c1l{fill:var(--c2);animation-name:c1l}@keyframes c1m{41.4%{fill:var(--c1)}41.42%,100%{fill:var(--ce)}}.c.c1m{fill:var(--c1);animation-name:c1m}@keyframes c1n{38.37%{fill:var(--c1)}38.39%,100%{fill:var(--ce)}}.c.c1n{fill:var(--c1);animation-name:c1n}@keyframes c1o{38.71%{fill:var(--c1)}38.73%,100%{fill:var(--ce)}}.c.c1o{fill:var(--c1);animation-name:c1o}@keyframes c1p{39.05%{fill:var(--c1)}39.07%,100%{fill:var(--ce)}}.c.c1p{fill:var(--c1);animation-name:c1p}@keyframes c1q{31.98%{fill:var(--c1)}32%,100%{fill:var(--ce)}}.c.c1q{fill:var(--c1);animation-name:c1q}@keyframes c1r{35.01%{fill:var(--c1)}35.03%,100%{fill:var(--ce)}}.c.c1r{fill:var(--c1);animation-name:c1r}@keyframes c1s{36.69%{fill:var(--c1)}36.71%,100%{fill:var(--ce)}}.c.c1s{fill:var(--c1);animation-name:c1s}@keyframes c1t{53.86%{fill:var(--c2)}53.88%,100%{fill:var(--ce)}}.c.c1t{fill:var(--c2);animation-name:c1t}@keyframes c1u{33.32%{fill:var(--c1)}33.34%,100%{fill:var(--ce)}}.c.c1u{fill:var(--c1);animation-name:c1u}@keyframes c1v{32.99%{fill:var(--c1)}33.01%,100%{fill:var(--ce)}}.c.c1v{fill:var(--c1);animation-name:c1v}@keyframes c1w{32.65%{fill:var(--c1)}32.67%,100%{fill:var(--ce)}}.c.c1w{fill:var(--c1);animation-name:c1w}@keyframes c1x{32.31%{fill:var(--c1)}32.33%,100%{fill:var(--ce)}}.c.c1x{fill:var(--c1);animation-name:c1x}@keyframes c1y{34.67%{fill:var(--c1)}34.69%,100%{fill:var(--ce)}}.c.c1y{fill:var(--c1);animation-name:c1y}@keyframes c1z{34.33%{fill:var(--c1)}34.35%,100%{fill:var(--ce)}}.c.c1z{fill:var(--c1);animation-name:c1z}@keyframes c20{34%{fill:var(--c1)}34.02%,100%{fill:var(--ce)}}.c.c20{fill:var(--c1);animation-name:c20}@keyframes c21{33.66%{fill:var(--c1)}33.68%,100%{fill:var(--ce)}}.c.c21{fill:var(--c1);animation-name:c21}.u{transform-origin:0 0;transform:scale(0,1);animation:none linear 29700ms infinite}@keyframes u0{10.09%{transform:scale(0.000,1)}10.11%,10.43%{transform:scale(0.028,1)}10.45%,10.76%{transform:scale(0.056,1)}10.78%,11.1%{transform:scale(0.083,1)}11.12%,12.78%{transform:scale(0.111,1)}12.8%,13.12%{transform:scale(0.139,1)}13.14%,15.81%{transform:scale(0.167,1)}15.83%,16.15%{transform:scale(0.194,1)}16.17%,22.21%{transform:scale(0.222,1)}22.23%,23.56%{transform:scale(0.250,1)}23.58%,25.24%{transform:scale(0.278,1)}25.26%,25.58%{transform:scale(0.306,1)}25.6%,25.92%{transform:scale(0.333,1)}25.94%,27.26%{transform:scale(0.361,1)}27.28%,27.6%{transform:scale(0.389,1)}27.62%,31.3%{transform:scale(0.417,1)}31.32%,31.64%{transform:scale(0.444,1)}31.66%,31.98%{transform:scale(0.472,1)}32%,32.31%{transform:scale(0.500,1)}32.33%,32.65%{transform:scale(0.528,1)}32.67%,32.99%{transform:scale(0.556,1)}33.01%,33.32%{transform:scale(0.583,1)}33.34%,33.66%{transform:scale(0.611,1)}33.68%,34%{transform:scale(0.639,1)}34.02%,34.33%{transform:scale(0.667,1)}34.35%,34.67%{transform:scale(0.694,1)}34.69%,35.01%{transform:scale(0.722,1)}35.03%,35.34%{transform:scale(0.750,1)}35.36%,36.69%{transform:scale(0.778,1)}36.71%,38.37%{transform:scale(0.806,1)}38.39%,38.71%{transform:scale(0.833,1)}38.73%,39.05%{transform:scale(0.861,1)}39.07%,39.38%{transform:scale(0.889,1)}39.4%,41.4%{transform:scale(0.917,1)}41.42%,41.74%{transform:scale(0.944,1)}41.76%,42.08%{transform:scale(0.972,1)}42.1%,100%{transform:scale(1.000,1)}}.u.u0{fill:var(--c1);animation-name:u0;transform-origin:0.0px 0}@keyframes u1{42.41%{transform:scale(0.000,1)}42.43%,100%{transform:scale(1.000,1)}}.u.u1{fill:var(--c2);animation-name:u1;transform-origin:412.5px 0}@keyframes u2{47.8%{transform:scale(0.000,1)}47.82%,100%{transform:scale(1.000,1)}}.u.u2{fill:var(--c1);animation-name:u2;transform-origin:424.0px 0}@keyframes u3{48.14%{transform:scale(0.000,1)}48.16%,50.83%{transform:scale(0.500,1)}50.85%,100%{transform:scale(1.000,1)}}.u.u3{fill:var(--c2);animation-name:u3;transform-origin:435.5px 0}@keyframes u4{51.17%{transform:scale(0.000,1)}51.19%,100%{transform:scale(1.000,1)}}.u.u4{fill:var(--c1);animation-name:u4;transform-origin:458.4px 0}@keyframes u5{51.51%{transform:scale(0.000,1)}51.53%,51.84%{transform:scale(0.042,1)}51.86%,52.52%{transform:scale(0.083,1)}52.54%,53.86%{transform:scale(0.125,1)}53.88%,54.87%{transform:scale(0.167,1)}54.89%,55.21%{transform:scale(0.208,1)}55.23%,55.55%{transform:scale(0.250,1)}55.57%,55.88%{transform:scale(0.292,1)}55.9%,56.89%{transform:scale(0.333,1)}56.91%,57.23%{transform:scale(0.375,1)}57.25%,57.57%{transform:scale(0.417,1)}57.59%,58.91%{transform:scale(0.458,1)}58.93%,59.25%{transform:scale(0.500,1)}59.27%,61.27%{transform:scale(0.542,1)}61.29%,62.28%{transform:scale(0.583,1)}62.3%,63.63%{transform:scale(0.625,1)}63.65%,63.96%{transform:scale(0.667,1)}63.98%,64.64%{transform:scale(0.708,1)}64.66%,64.97%{transform:scale(0.750,1)}64.99%,65.31%{transform:scale(0.792,1)}65.33%,65.98%{transform:scale(0.833,1)}66%,68.68%{transform:scale(0.875,1)}68.7%,71.03%{transform:scale(0.917,1)}71.05%,71.37%{transform:scale(0.958,1)}71.39%,100%{transform:scale(1.000,1)}}.u.u5{fill:var(--c2);animation-name:u5;transform-origin:469.8px 0}@keyframes u6{73.73%{transform:scale(0.000,1)}73.75%,76.76%{transform:scale(0.200,1)}76.78%,77.09%{transform:scale(0.400,1)}77.11%,77.43%{transform:scale(0.600,1)}77.45%,78.78%{transform:scale(0.800,1)}78.8%,100%{transform:scale(1.000,1)}}.u.u6{fill:var(--c3);animation-name:u6;transform-origin:744.9px 0}@keyframes u7{80.46%{transform:scale(0.000,1)}80.48%,81.13%{transform:scale(0.250,1)}81.15%,82.48%{transform:scale(0.500,1)}82.5%,86.19%{transform:scale(0.750,1)}86.21%,100%{transform:scale(1.000,1)}}.u.u7{fill:var(--c4);animation-name:u7;transform-origin:802.2px 0}.s{shape-rendering:geometricPrecision;fill:var(--cs);animation:none linear 29700ms infinite}@keyframes s0{0%,99.66%{transform:translate(0px,-16px)}0.34%{transform:translate(0px,0px)}9.76%{transform:translate(448px,0px)}10.1%{transform:translate(448px,16px)}10.44%{transform:translate(464px,16px)}10.77%{transform:translate(464px,32px)}11.11%{transform:translate(448px,32px)}11.45%{transform:translate(448px,48px)}12.79%{transform:translate(512px,48px)}13.13%{transform:translate(512px,64px)}15.49%{transform:translate(400px,64px)}15.82%{transform:translate(400px,80px)}16.16%{transform:translate(384px,80px)}16.5%{transform:translate(384px,64px)}20.88%{transform:translate(592px,64px)}22.22%{transform:translate(592px,0px)}23.23%{transform:translate(640px,0px)}23.57%{transform:translate(640px,16px)}25.25%,48.82%,58.25%{transform:translate(720px,16px)}25.59%,49.83%{transform:translate(720px,32px)}26.26%,46.46%,61.95%{transform:translate(688px,32px)}27.27%{transform:translate(688px,80px)}27.61%{transform:translate(672px,80px)}27.95%{transform:translate(672px,64px)}28.62%,75.76%{transform:translate(704px,64px)}29.63%{transform:translate(704px,112px)}30.98%{transform:translate(768px,112px)}31.31%{transform:translate(768px,96px)}32.32%{transform:translate(816px,96px)}33.33%{transform:translate(816px,48px)}33.67%,37.71%{transform:translate(832px,48px)}34.68%{transform:translate(832px,0px)}35.35%{transform:translate(800px,0px)}35.69%,43.1%{transform:translate(800px,-16px)}36.03%{transform:translate(816px,-16px)}36.7%{transform:translate(816px,16px)}37.04%{transform:translate(832px,16px)}38.38%{transform:translate(800px,48px)}39.06%{transform:translate(800px,80px)}39.39%,52.19%{transform:translate(784px,80px)}39.73%{transform:translate(784px,96px)}40.07%{transform:translate(800px,96px)}41.41%{transform:translate(800px,32px)}41.75%{transform:translate(784px,32px)}42.09%,56.23%,79.8%{transform:translate(784px,16px)}42.42%{transform:translate(800px,16px)}45.12%{transform:translate(704px,-16px)}46.13%,49.49%{transform:translate(704px,32px)}47.14%{transform:translate(688px,64px)}47.81%,50.51%,82.15%{transform:translate(720px,64px)}49.16%,60.61%{transform:translate(704px,16px)}51.18%{transform:translate(752px,64px)}51.52%,65.66%{transform:translate(752px,80px)}52.53%{transform:translate(784px,64px)}53.2%{transform:translate(816px,64px)}53.87%{transform:translate(816px,32px)}54.88%{transform:translate(768px,32px)}55.56%,78.45%{transform:translate(768px,0px)}55.89%{transform:translate(784px,0px)}57.24%,58.59%{transform:translate(736px,16px)}57.58%{transform:translate(736px,0px)}57.91%{transform:translate(720px,0px)}58.92%{transform:translate(736px,32px)}59.26%{transform:translate(752px,32px)}59.6%,79.12%{transform:translate(752px,16px)}61.28%,83.5%{transform:translate(704px,48px)}61.62%{transform:translate(688px,48px)}62.29%{transform:translate(672px,32px)}63.64%{transform:translate(672px,96px)}65.32%{transform:translate(752px,96px)}65.99%{transform:translate(736px,80px)}66.33%{transform:translate(736px,96px)}69.02%{transform:translate(608px,96px)}70.37%{transform:translate(608px,32px)}71.38%{transform:translate(560px,32px)}72.05%{transform:translate(560px,64px)}73.4%{transform:translate(624px,64px)}73.74%{transform:translate(624px,80px)}75.42%,82.83%{transform:translate(704px,80px)}76.43%{transform:translate(736px,64px)}76.77%{transform:translate(736px,48px)}77.44%,80.81%{transform:translate(768px,48px)}78.79%{transform:translate(752px,0px)}80.47%{transform:translate(784px,48px)}81.14%{transform:translate(768px,64px)}82.49%{transform:translate(720px,80px)}95.96%{transform:translate(112px,48px)}96.63%{transform:translate(112px,16px)}97.64%{transform:translate(64px,16px)}98.32%{transform:translate(64px,-16px)}}.s.s0{transform:translate(0px,-16px);animation-name:s0}@keyframes s1{0%,99.66%{transform:translate(16px,-16px)}0.34%{transform:translate(0px,-16px)}0.67%{transform:translate(0px,0px)}10.1%{transform:translate(448px,0px)}10.44%{transform:translate(448px,16px)}10.77%{transform:translate(464px,16px)}11.11%{transform:translate(464px,32px)}11.45%{transform:translate(448px,32px)}11.78%{transform:translate(448px,48px)}13.13%{transform:translate(512px,48px)}13.47%{transform:translate(512px,64px)}15.82%{transform:translate(400px,64px)}16.16%{transform:translate(400px,80px)}16.5%{transform:translate(384px,80px)}16.84%{transform:translate(384px,64px)}21.21%{transform:translate(592px,64px)}22.56%{transform:translate(592px,0px)}23.57%{transform:translate(640px,0px)}23.91%{transform:translate(640px,16px)}25.59%,49.16%,58.59%{transform:translate(720px,16px)}25.93%,50.17%{transform:translate(720px,32px)}26.6%,46.8%,62.29%{transform:translate(688px,32px)}27.61%{transform:translate(688px,80px)}27.95%{transform:translate(672px,80px)}28.28%{transform:translate(672px,64px)}28.96%,76.09%{transform:translate(704px,64px)}29.97%{transform:translate(704px,112px)}31.31%{transform:translate(768px,112px)}31.65%{transform:translate(768px,96px)}32.66%{transform:translate(816px,96px)}33.67%{transform:translate(816px,48px)}34.01%,38.05%{transform:translate(832px,48px)}35.02%{transform:translate(832px,0px)}35.69%{transform:translate(800px,0px)}36.03%,43.43%{transform:translate(800px,-16px)}36.36%{transform:translate(816px,-16px)}37.04%{transform:translate(816px,16px)}37.37%{transform:translate(832px,16px)}38.72%{transform:translate(800px,48px)}39.39%{transform:translate(800px,80px)}39.73%,52.53%{transform:translate(784px,80px)}40.07%{transform:translate(784px,96px)}40.4%{transform:translate(800px,96px)}41.75%{transform:translate(800px,32px)}42.09%{transform:translate(784px,32px)}42.42%,56.57%,80.13%{transform:translate(784px,16px)}42.76%{transform:translate(800px,16px)}45.45%{transform:translate(704px,-16px)}46.46%,49.83%{transform:translate(704px,32px)}47.47%{transform:translate(688px,64px)}48.15%,50.84%,82.49%{transform:translate(720px,64px)}49.49%,60.94%{transform:translate(704px,16px)}51.52%{transform:translate(752px,64px)}51.85%,65.99%{transform:translate(752px,80px)}52.86%{transform:translate(784px,64px)}53.54%{transform:translate(816px,64px)}54.21%{transform:translate(816px,32px)}55.22%{transform:translate(768px,32px)}55.89%,78.79%{transform:translate(768px,0px)}56.23%{transform:translate(784px,0px)}57.58%,58.92%{transform:translate(736px,16px)}57.91%{transform:translate(736px,0px)}58.25%{transform:translate(720px,0px)}59.26%{transform:translate(736px,32px)}59.6%{transform:translate(752px,32px)}59.93%,79.46%{transform:translate(752px,16px)}61.62%,83.84%{transform:translate(704px,48px)}61.95%{transform:translate(688px,48px)}62.63%{transform:translate(672px,32px)}63.97%{transform:translate(672px,96px)}65.66%{transform:translate(752px,96px)}66.33%{transform:translate(736px,80px)}66.67%{transform:translate(736px,96px)}69.36%{transform:translate(608px,96px)}70.71%{transform:translate(608px,32px)}71.72%{transform:translate(560px,32px)}72.39%{transform:translate(560px,64px)}73.74%{transform:translate(624px,64px)}74.07%{transform:translate(624px,80px)}75.76%,83.16%{transform:translate(704px,80px)}76.77%{transform:translate(736px,64px)}77.1%{transform:translate(736px,48px)}77.78%,81.14%{transform:translate(768px,48px)}79.12%{transform:translate(752px,0px)}80.81%{transform:translate(784px,48px)}81.48%{transform:translate(768px,64px)}82.83%{transform:translate(720px,80px)}96.3%{transform:translate(112px,48px)}96.97%{transform:translate(112px,16px)}97.98%{transform:translate(64px,16px)}98.65%{transform:translate(64px,-16px)}}.s.s1{transform:translate(16px,-16px);animation-name:s1}@keyframes s2{0%,99.66%{transform:translate(32px,-16px)}0.67%{transform:translate(0px,-16px)}1.01%{transform:translate(0px,0px)}10.44%{transform:translate(448px,0px)}10.77%{transform:translate(448px,16px)}11.11%{transform:translate(464px,16px)}11.45%{transform:translate(464px,32px)}11.78%{transform:translate(448px,32px)}12.12%{transform:translate(448px,48px)}13.47%{transform:translate(512px,48px)}13.8%{transform:translate(512px,64px)}16.16%{transform:translate(400px,64px)}16.5%{transform:translate(400px,80px)}16.84%{transform:translate(384px,80px)}17.17%{transform:translate(384px,64px)}21.55%{transform:translate(592px,64px)}22.9%{transform:translate(592px,0px)}23.91%{transform:translate(640px,0px)}24.24%{transform:translate(640px,16px)}25.93%,49.49%,58.92%{transform:translate(720px,16px)}26.26%,50.51%{transform:translate(720px,32px)}26.94%,47.14%,62.63%{transform:translate(688px,32px)}27.95%{transform:translate(688px,80px)}28.28%{transform:translate(672px,80px)}28.62%{transform:translate(672px,64px)}29.29%,76.43%{transform:translate(704px,64px)}30.3%{transform:translate(704px,112px)}31.65%{transform:translate(768px,112px)}31.99%{transform:translate(768px,96px)}33%{transform:translate(816px,96px)}34.01%{transform:translate(816px,48px)}34.34%,38.38%{transform:translate(832px,48px)}35.35%{transform:translate(832px,0px)}36.03%{transform:translate(800px,0px)}36.36%,43.77%{transform:translate(800px,-16px)}36.7%{transform:translate(816px,-16px)}37.37%{transform:translate(816px,16px)}37.71%{transform:translate(832px,16px)}39.06%{transform:translate(800px,48px)}39.73%{transform:translate(800px,80px)}40.07%,52.86%{transform:translate(784px,80px)}40.4%{transform:translate(784px,96px)}40.74%{transform:translate(800px,96px)}42.09%{transform:translate(800px,32px)}42.42%{transform:translate(784px,32px)}42.76%,56.9%,80.47%{transform:translate(784px,16px)}43.1%{transform:translate(800px,16px)}45.79%{transform:translate(704px,-16px)}46.8%,50.17%{transform:translate(704px,32px)}47.81%{transform:translate(688px,64px)}48.48%,51.18%,82.83%{transform:translate(720px,64px)}49.83%,61.28%{transform:translate(704px,16px)}51.85%{transform:translate(752px,64px)}52.19%,66.33%{transform:translate(752px,80px)}53.2%{transform:translate(784px,64px)}53.87%{transform:translate(816px,64px)}54.55%{transform:translate(816px,32px)}55.56%{transform:translate(768px,32px)}56.23%,79.12%{transform:translate(768px,0px)}56.57%{transform:translate(784px,0px)}57.91%,59.26%{transform:translate(736px,16px)}58.25%{transform:translate(736px,0px)}58.59%{transform:translate(720px,0px)}59.6%{transform:translate(736px,32px)}59.93%{transform:translate(752px,32px)}60.27%,79.8%{transform:translate(752px,16px)}61.95%,84.18%{transform:translate(704px,48px)}62.29%{transform:translate(688px,48px)}62.96%{transform:translate(672px,32px)}64.31%{transform:translate(672px,96px)}65.99%{transform:translate(752px,96px)}66.67%{transform:translate(736px,80px)}67%{transform:translate(736px,96px)}69.7%{transform:translate(608px,96px)}71.04%{transform:translate(608px,32px)}72.05%{transform:translate(560px,32px)}72.73%{transform:translate(560px,64px)}74.07%{transform:translate(624px,64px)}74.41%{transform:translate(624px,80px)}76.09%,83.5%{transform:translate(704px,80px)}77.1%{transform:translate(736px,64px)}77.44%{transform:translate(736px,48px)}78.11%,81.48%{transform:translate(768px,48px)}79.46%{transform:translate(752px,0px)}81.14%{transform:translate(784px,48px)}81.82%{transform:translate(768px,64px)}83.16%{transform:translate(720px,80px)}96.63%{transform:translate(112px,48px)}97.31%{transform:translate(112px,16px)}98.32%{transform:translate(64px,16px)}98.99%{transform:translate(64px,-16px)}}.s.s2{transform:translate(32px,-16px);animation-name:s2}@keyframes s3{0%,99.66%{transform:translate(48px,-16px)}1.01%{transform:translate(0px,-16px)}1.35%{transform:translate(0px,0px)}10.77%{transform:translate(448px,0px)}11.11%{transform:translate(448px,16px)}11.45%{transform:translate(464px,16px)}11.78%{transform:translate(464px,32px)}12.12%{transform:translate(448px,32px)}12.46%{transform:translate(448px,48px)}13.8%{transform:translate(512px,48px)}14.14%{transform:translate(512px,64px)}16.5%{transform:translate(400px,64px)}16.84%{transform:translate(400px,80px)}17.17%{transform:translate(384px,80px)}17.51%{transform:translate(384px,64px)}21.89%{transform:translate(592px,64px)}23.23%{transform:translate(592px,0px)}24.24%{transform:translate(640px,0px)}24.58%{transform:translate(640px,16px)}26.26%,49.83%,59.26%{transform:translate(720px,16px)}26.6%,50.84%{transform:translate(720px,32px)}27.27%,47.47%,62.96%{transform:translate(688px,32px)}28.28%{transform:translate(688px,80px)}28.62%{transform:translate(672px,80px)}28.96%{transform:translate(672px,64px)}29.63%,76.77%{transform:translate(704px,64px)}30.64%{transform:translate(704px,112px)}31.99%{transform:translate(768px,112px)}32.32%{transform:translate(768px,96px)}33.33%{transform:translate(816px,96px)}34.34%{transform:translate(816px,48px)}34.68%,38.72%{transform:translate(832px,48px)}35.69%{transform:translate(832px,0px)}36.36%{transform:translate(800px,0px)}36.7%,44.11%{transform:translate(800px,-16px)}37.04%{transform:translate(816px,-16px)}37.71%{transform:translate(816px,16px)}38.05%{transform:translate(832px,16px)}39.39%{transform:translate(800px,48px)}40.07%{transform:translate(800px,80px)}40.4%,53.2%{transform:translate(784px,80px)}40.74%{transform:translate(784px,96px)}41.08%{transform:translate(800px,96px)}42.42%{transform:translate(800px,32px)}42.76%{transform:translate(784px,32px)}43.1%,57.24%,80.81%{transform:translate(784px,16px)}43.43%{transform:translate(800px,16px)}46.13%{transform:translate(704px,-16px)}47.14%,50.51%{transform:translate(704px,32px)}48.15%{transform:translate(688px,64px)}48.82%,51.52%,83.16%{transform:translate(720px,64px)}50.17%,61.62%{transform:translate(704px,16px)}52.19%{transform:translate(752px,64px)}52.53%,66.67%{transform:translate(752px,80px)}53.54%{transform:translate(784px,64px)}54.21%{transform:translate(816px,64px)}54.88%{transform:translate(816px,32px)}55.89%{transform:translate(768px,32px)}56.57%,79.46%{transform:translate(768px,0px)}56.9%{transform:translate(784px,0px)}58.25%,59.6%{transform:translate(736px,16px)}58.59%{transform:translate(736px,0px)}58.92%{transform:translate(720px,0px)}59.93%{transform:translate(736px,32px)}60.27%{transform:translate(752px,32px)}60.61%,80.13%{transform:translate(752px,16px)}62.29%,84.51%{transform:translate(704px,48px)}62.63%{transform:translate(688px,48px)}63.3%{transform:translate(672px,32px)}64.65%{transform:translate(672px,96px)}66.33%{transform:translate(752px,96px)}67%{transform:translate(736px,80px)}67.34%{transform:translate(736px,96px)}70.03%{transform:translate(608px,96px)}71.38%{transform:translate(608px,32px)}72.39%{transform:translate(560px,32px)}73.06%{transform:translate(560px,64px)}74.41%{transform:translate(624px,64px)}74.75%{transform:translate(624px,80px)}76.43%,83.84%{transform:translate(704px,80px)}77.44%{transform:translate(736px,64px)}77.78%{transform:translate(736px,48px)}78.45%,81.82%{transform:translate(768px,48px)}79.8%{transform:translate(752px,0px)}81.48%{transform:translate(784px,48px)}82.15%{transform:translate(768px,64px)}83.5%{transform:translate(720px,80px)}96.97%{transform:translate(112px,48px)}97.64%{transform:translate(112px,16px)}98.65%{transform:translate(64px,16px)}99.33%{transform:translate(64px,-16px)}}.s.s3{transform:translate(48px,-16px);animation-name:s3}</style><rect class="c" x="2" y="2" rx="2" ry="2"/><rect class="c" x="2" y="18" rx="2" ry="2"/><rect class="c" x="2" y="34" rx="2" ry="2"/><rect class="c" x="2" y="50" rx="2" ry="2"/><rect class="c" x="2" y="66" rx="2" ry="2"/><rect class="c" x="2" y="82" rx="2" ry="2"/><rect class="c" x="2" y="98" rx="2" ry="2"/><rect class="c" x="18" y="2" rx="2" ry="2"/><rect class="c" x="18" y="18" rx="2" ry="2"/><rect class="c" x="18" y="34" rx="2" ry="2"/><rect class="c" x="18" y="50" rx="2" ry="2"/><rect class="c" x="18" y="66" rx="2" ry="2"/><rect class="c" x="18" y="82" rx="2" ry="2"/><rect class="c" x="18" y="98" rx="2" ry="2"/><rect class="c" x="34" y="2" rx="2" ry="2"/><rect class="c" x="34" y="18" rx="2" ry="2"/><rect class="c" x="34" y="34" rx="2" ry="2"/><rect class="c" x="34" y="50" rx="2" ry="2"/><rect class="c" x="34" y="66" rx="2" ry="2"/><rect class="c" x="34" y="82" rx="2" ry="2"/><rect class="c" x="34" y="98" rx="2" ry="2"/><rect class="c" x="50" y="2" rx="2" ry="2"/><rect class="c" x="50" y="18" rx="2" ry="2"/><rect class="c" x="50" y="34" rx="2" ry="2"/><rect class="c" x="50" y="50" rx="2" ry="2"/><rect class="c" x="50" y="66" rx="2" ry="2"/><rect class="c" x="50" y="82" rx="2" ry="2"/><rect class="c" x="50" y="98" rx="2" ry="2"/><rect class="c" x="66" y="2" rx="2" ry="2"/><rect class="c" x="66" y="18" rx="2" ry="2"/><rect class="c" x="66" y="34" rx="2" ry="2"/><rect class="c" x="66" y="50" rx="2" ry="2"/><rect class="c" x="66" y="66" rx="2" ry="2"/><rect class="c" x="66" y="82" rx="2" ry="2"/><rect class="c" x="66" y="98" rx="2" ry="2"/><rect class="c" x="82" y="2" rx="2" ry="2"/><rect class="c" x="82" y="18" rx="2" ry="2"/><rect class="c" x="82" y="34" rx="2" ry="2"/><rect class="c" x="82" y="50" rx="2" ry="2"/><rect class="c" x="82" y="66" rx="2" ry="2"/><rect class="c" x="82" y="82" rx="2" ry="2"/><rect class="c" x="82" y="98" rx="2" ry="2"/><rect class="c" x="98" y="2" rx="2" ry="2"/><rect class="c" x="98" y="18" rx="2" ry="2"/><rect class="c" x="98" y="34" rx="2" ry="2"/><rect class="c" x="98" y="50" rx="2" ry="2"/><rect class="c" x="98" y="66" rx="2" ry="2"/><rect class="c" x="98" y="82" rx="2" ry="2"/><rect class="c" x="98" y="98" rx="2" ry="2"/><rect class="c" x="114" y="2" rx="2" ry="2"/><rect class="c" x="114" y="18" rx="2" ry="2"/><rect class="c" x="114" y="34" rx="2" ry="2"/><rect class="c" x="114" y="50" rx="2" ry="2"/><rect class="c" x="114" y="66" rx="2" ry="2"/><rect class="c" x="114" y="82" rx="2" ry="2"/><rect class="c" x="114" y="98" rx="2" ry="2"/><rect class="c" x="130" y="2" rx="2" ry="2"/><rect class="c" x="130" y="18" rx="2" ry="2"/><rect class="c" x="130" y="34" rx="2" ry="2"/><rect class="c" x="130" y="50" rx="2" ry="2"/><rect class="c" x="130" y="66" rx="2" ry="2"/><rect class="c" x="130" y="82" rx="2" ry="2"/><rect class="c" x="130" y="98" rx="2" ry="2"/><rect class="c" x="146" y="2" rx="2" ry="2"/><rect class="c" x="146" y="18" rx="2" ry="2"/><rect class="c" x="146" y="34" rx="2" ry="2"/><rect class="c" x="146" y="50" rx="2" ry="2"/><rect class="c" x="146" y="66" rx="2" ry="2"/><rect class="c" x="146" y="82" rx="2" ry="2"/><rect class="c" x="146" y="98" rx="2" ry="2"/><rect class="c" x="162" y="2" rx="2" ry="2"/><rect class="c" x="162" y="18" rx="2" ry="2"/><rect class="c" x="162" y="34" rx="2" ry="2"/><rect class="c" x="162" y="50" rx="2" ry="2"/><rect class="c" x="162" y="66" rx="2" ry="2"/><rect class="c" x="162" y="82" rx="2" ry="2"/><rect class="c" x="162" y="98" rx="2" ry="2"/><rect class="c" x="178" y="2" rx="2" ry="2"/><rect class="c" x="178" y="18" rx="2" ry="2"/><rect class="c" x="178" y="34" rx="2" ry="2"/><rect class="c" x="178" y="50" rx="2" ry="2"/><rect class="c" x="178" y="66" rx="2" ry="2"/><rect class="c" x="178" y="82" rx="2" ry="2"/><rect class="c" x="178" y="98" rx="2" ry="2"/><rect class="c" x="194" y="2" rx="2" ry="2"/><rect class="c" x="194" y="18" rx="2" ry="2"/><rect class="c" x="194" y="34" rx="2" ry="2"/><rect class="c" x="194" y="50" rx="2" ry="2"/><rect class="c" x="194" y="66" rx="2" ry="2"/><rect class="c" x="194" y="82" rx="2" ry="2"/><rect class="c" x="194" y="98" rx="2" ry="2"/><rect class="c" x="210" y="2" rx="2" ry="2"/><rect class="c" x="210" y="18" rx="2" ry="2"/><rect class="c" x="210" y="34" rx="2" ry="2"/><rect class="c" x="210" y="50" rx="2" ry="2"/><rect class="c" x="210" y="66" rx="2" ry="2"/><rect class="c" x="210" y="82" rx="2" ry="2"/><rect class="c" x="210" y="98" rx="2" ry="2"/><rect class="c" x="226" y="2" rx="2" ry="2"/><rect class="c" x="226" y="18" rx="2" ry="2"/><rect class="c" x="226" y="34" rx="2" ry="2"/><rect class="c" x="226" y="50" rx="2" ry="2"/><rect class="c" x="226" y="66" rx="2" ry="2"/><rect class="c" x="226" y="82" rx="2" ry="2"/><rect class="c" x="226" y="98" rx="2" ry="2"/><rect class="c" x="242" y="2" rx="2" ry="2"/><rect class="c" x="242" y="18" rx="2" ry="2"/><rect class="c" x="242" y="34" rx="2" ry="2"/><rect class="c" x="242" y="50" rx="2" ry="2"/><rect class="c" x="242" y="66" rx="2" ry="2"/><rect class="c" x="242" y="82" rx="2" ry="2"/><rect class="c" x="242" y="98" rx="2" ry="2"/><rect class="c" x="258" y="2" rx="2" ry="2"/><rect class="c" x="258" y="18" rx="2" ry="2"/><rect class="c" x="258" y="34" rx="2" ry="2"/><rect class="c" x="258" y="50" rx="2" ry="2"/><rect class="c" x="258" y="66" rx="2" ry="2"/><rect class="c" x="258" y="82" rx="2" ry="2"/><rect class="c" x="258" y="98" rx="2" ry="2"/><rect class="c" x="274" y="2" rx="2" ry="2"/><rect class="c" x="274" y="18" rx="2" ry="2"/><rect class="c" x="274" y="34" rx="2" ry="2"/><rect class="c" x="274" y="50" rx="2" ry="2"/><rect class="c" x="274" y="66" rx="2" ry="2"/><rect class="c" x="274" y="82" rx="2" ry="2"/><rect class="c" x="274" y="98" rx="2" ry="2"/><rect class="c" x="290" y="2" rx="2" ry="2"/><rect class="c" x="290" y="18" rx="2" ry="2"/><rect class="c" x="290" y="34" rx="2" ry="2"/><rect class="c" x="290" y="50" rx="2" ry="2"/><rect class="c" x="290" y="66" rx="2" ry="2"/><rect class="c" x="290" y="82" rx="2" ry="2"/><rect class="c" x="290" y="98" rx="2" ry="2"/><rect class="c" x="306" y="2" rx="2" ry="2"/><rect class="c" x="306" y="18" rx="2" ry="2"/><rect class="c" x="306" y="34" rx="2" ry="2"/><rect class="c" x="306" y="50" rx="2" ry="2"/><rect class="c" x="306" y="66" rx="2" ry="2"/><rect class="c" x="306" y="82" rx="2" ry="2"/><rect class="c" x="306" y="98" rx="2" ry="2"/><rect class="c" x="322" y="2" rx="2" ry="2"/><rect class="c" x="322" y="18" rx="2" ry="2"/><rect class="c" x="322" y="34" rx="2" ry="2"/><rect class="c" x="322" y="50" rx="2" ry="2"/><rect class="c" x="322" y="66" rx="2" ry="2"/><rect class="c" x="322" y="82" rx="2" ry="2"/><rect class="c" x="322" y="98" rx="2" ry="2"/><rect class="c" x="338" y="2" rx="2" ry="2"/><rect class="c" x="338" y="18" rx="2" ry="2"/><rect class="c" x="338" y="34" rx="2" ry="2"/><rect class="c" x="338" y="50" rx="2" ry="2"/><rect class="c" x="338" y="66" rx="2" ry="2"/><rect class="c" x="338" y="82" rx="2" ry="2"/><rect class="c" x="338" y="98" rx="2" ry="2"/><rect class="c" x="354" y="2" rx="2" ry="2"/><rect class="c" x="354" y="18" rx="2" ry="2"/><rect class="c" x="354" y="34" rx="2" ry="2"/><rect class="c" x="354" y="50" rx="2" ry="2"/><rect class="c" x="354" y="66" rx="2" ry="2"/><rect class="c" x="354" y="82" rx="2" ry="2"/><rect class="c" x="354" y="98" rx="2" ry="2"/><rect class="c" x="370" y="2" rx="2" ry="2"/><rect class="c" x="370" y="18" rx="2" ry="2"/><rect class="c" x="370" y="34" rx="2" ry="2"/><rect class="c" x="370" y="50" rx="2" ry="2"/><rect class="c" x="370" y="66" rx="2" ry="2"/><rect class="c" x="370" y="82" rx="2" ry="2"/><rect class="c" x="370" y="98" rx="2" ry="2"/><rect class="c" x="386" y="2" rx="2" ry="2"/><rect class="c" x="386" y="18" rx="2" ry="2"/><rect class="c" x="386" y="34" rx="2" ry="2"/><rect class="c" x="386" y="50" rx="2" ry="2"/><rect class="c" x="386" y="66" rx="2" ry="2"/><rect class="c c0" x="386" y="82" rx="2" ry="2"/><rect class="c" x="386" y="98" rx="2" ry="2"/><rect class="c" x="402" y="2" rx="2" ry="2"/><rect class="c" x="402" y="18" rx="2" ry="2"/><rect class="c" x="402" y="34" rx="2" ry="2"/><rect class="c" x="402" y="50" rx="2" ry="2"/><rect class="c" x="402" y="66" rx="2" ry="2"/><rect class="c c1" x="402" y="82" rx="2" ry="2"/><rect class="c" x="402" y="98" rx="2" ry="2"/><rect class="c" x="418" y="2" rx="2" ry="2"/><rect class="c" x="418" y="18" rx="2" ry="2"/><rect class="c" x="418" y="34" rx="2" ry="2"/><rect class="c" x="418" y="50" rx="2" ry="2"/><rect class="c" x="418" y="66" rx="2" ry="2"/><rect class="c" x="418" y="82" rx="2" ry="2"/><rect class="c" x="418" y="98" rx="2" ry="2"/><rect class="c" x="434" y="2" rx="2" ry="2"/><rect class="c" x="434" y="18" rx="2" ry="2"/><rect class="c" x="434" y="34" rx="2" ry="2"/><rect class="c" x="434" y="50" rx="2" ry="2"/><rect class="c" x="434" y="66" rx="2" ry="2"/><rect class="c" x="434" y="82" rx="2" ry="2"/><rect class="c" x="434" y="98" rx="2" ry="2"/><rect class="c" x="450" y="2" rx="2" ry="2"/><rect class="c c2" x="450" y="18" rx="2" ry="2"/><rect class="c c3" x="450" y="34" rx="2" ry="2"/><rect class="c" x="450" y="50" rx="2" ry="2"/><rect class="c" x="450" y="66" rx="2" ry="2"/><rect class="c" x="450" y="82" rx="2" ry="2"/><rect class="c" x="450" y="98" rx="2" ry="2"/><rect class="c" x="466" y="2" rx="2" ry="2"/><rect class="c c4" x="466" y="18" rx="2" ry="2"/><rect class="c c5" x="466" y="34" rx="2" ry="2"/><rect class="c" x="466" y="50" rx="2" ry="2"/><rect class="c" x="466" y="66" rx="2" ry="2"/><rect class="c" x="466" y="82" rx="2" ry="2"/><rect class="c" x="466" y="98" rx="2" ry="2"/><rect class="c" x="482" y="2" rx="2" ry="2"/><rect class="c" x="482" y="18" rx="2" ry="2"/><rect class="c" x="482" y="34" rx="2" ry="2"/><rect class="c" x="482" y="50" rx="2" ry="2"/><rect class="c" x="482" y="66" rx="2" ry="2"/><rect class="c" x="482" y="82" rx="2" ry="2"/><rect class="c" x="482" y="98" rx="2" ry="2"/><rect class="c" x="498" y="2" rx="2" ry="2"/><rect class="c" x="498" y="18" rx="2" ry="2"/><rect class="c" x="498" y="34" rx="2" ry="2"/><rect class="c" x="498" y="50" rx="2" ry="2"/><rect class="c" x="498" y="66" rx="2" ry="2"/><rect class="c" x="498" y="82" rx="2" ry="2"/><rect class="c" x="498" y="98" rx="2" ry="2"/><rect class="c" x="514" y="2" rx="2" ry="2"/><rect class="c" x="514" y="18" rx="2" ry="2"/><rect class="c" x="514" y="34" rx="2" ry="2"/><rect class="c c6" x="514" y="50" rx="2" ry="2"/><rect class="c c7" x="514" y="66" rx="2" ry="2"/><rect class="c" x="514" y="82" rx="2" ry="2"/><rect class="c" x="514" y="98" rx="2" ry="2"/><rect class="c" x="530" y="2" rx="2" ry="2"/><rect class="c" x="530" y="18" rx="2" ry="2"/><rect class="c" x="530" y="34" rx="2" ry="2"/><rect class="c" x="530" y="50" rx="2" ry="2"/><rect class="c" x="530" y="66" rx="2" ry="2"/><rect class="c" x="530" y="82" rx="2" ry="2"/><rect class="c" x="530" y="98" rx="2" ry="2"/><rect class="c" x="546" y="2" rx="2" ry="2"/><rect class="c" x="546" y="18" rx="2" ry="2"/><rect class="c" x="546" y="34" rx="2" ry="2"/><rect class="c" x="546" y="50" rx="2" ry="2"/><rect class="c" x="546" y="66" rx="2" ry="2"/><rect class="c" x="546" y="82" rx="2" ry="2"/><rect class="c" x="546" y="98" rx="2" ry="2"/><rect class="c" x="562" y="2" rx="2" ry="2"/><rect class="c" x="562" y="18" rx="2" ry="2"/><rect class="c c8" x="562" y="34" rx="2" ry="2"/><rect class="c" x="562" y="50" rx="2" ry="2"/><rect class="c" x="562" y="66" rx="2" ry="2"/><rect class="c" x="562" y="82" rx="2" ry="2"/><rect class="c" x="562" y="98" rx="2" ry="2"/><rect class="c" x="578" y="2" rx="2" ry="2"/><rect class="c" x="578" y="18" rx="2" ry="2"/><rect class="c c9" x="578" y="34" rx="2" ry="2"/><rect class="c ca" x="578" y="50" rx="2" ry="2"/><rect class="c" x="578" y="66" rx="2" ry="2"/><rect class="c" x="578" y="82" rx="2" ry="2"/><rect class="c" x="578" y="98" rx="2" ry="2"/><rect class="c cb" x="594" y="2" rx="2" ry="2"/><rect class="c" x="594" y="18" rx="2" ry="2"/><rect class="c" x="594" y="34" rx="2" ry="2"/><rect class="c" x="594" y="50" rx="2" ry="2"/><rect class="c" x="594" y="66" rx="2" ry="2"/><rect class="c" x="594" y="82" rx="2" ry="2"/><rect class="c" x="594" y="98" rx="2" ry="2"/><rect class="c" x="610" y="2" rx="2" ry="2"/><rect class="c" x="610" y="18" rx="2" ry="2"/><rect class="c" x="610" y="34" rx="2" ry="2"/><rect class="c" x="610" y="50" rx="2" ry="2"/><rect class="c" x="610" y="66" rx="2" ry="2"/><rect class="c" x="610" y="82" rx="2" ry="2"/><rect class="c" x="610" y="98" rx="2" ry="2"/><rect class="c" x="626" y="2" rx="2" ry="2"/><rect class="c" x="626" y="18" rx="2" ry="2"/><rect class="c" x="626" y="34" rx="2" ry="2"/><rect class="c" x="626" y="50" rx="2" ry="2"/><rect class="c" x="626" y="66" rx="2" ry="2"/><rect class="c cc" x="626" y="82" rx="2" ry="2"/><rect class="c cd" x="626" y="98" rx="2" ry="2"/><rect class="c" x="642" y="2" rx="2" ry="2"/><rect class="c ce" x="642" y="18" rx="2" ry="2"/><rect class="c" x="642" y="34" rx="2" ry="2"/><rect class="c" x="642" y="50" rx="2" ry="2"/><rect class="c" x="642" y="66" rx="2" ry="2"/><rect class="c" x="642" y="82" rx="2" ry="2"/><rect class="c" x="642" y="98" rx="2" ry="2"/><rect class="c" x="658" y="2" rx="2" ry="2"/><rect class="c" x="658" y="18" rx="2" ry="2"/><rect class="c" x="658" y="34" rx="2" ry="2"/><rect class="c" x="658" y="50" rx="2" ry="2"/><rect class="c" x="658" y="66" rx="2" ry="2"/><rect class="c" x="658" y="82" rx="2" ry="2"/><rect class="c" x="658" y="98" rx="2" ry="2"/><rect class="c" x="674" y="2" rx="2" ry="2"/><rect class="c" x="674" y="18" rx="2" ry="2"/><rect class="c cf" x="674" y="34" rx="2" ry="2"/><rect class="c" x="674" y="50" rx="2" ry="2"/><rect class="c" x="674" y="66" rx="2" ry="2"/><rect class="c cg" x="674" y="82" rx="2" ry="2"/><rect class="c ch" x="674" y="98" rx="2" ry="2"/><rect class="c" x="690" y="2" rx="2" ry="2"/><rect class="c" x="690" y="18" rx="2" ry="2"/><rect class="c" x="690" y="34" rx="2" ry="2"/><rect class="c" x="690" y="50" rx="2" ry="2"/><rect class="c" x="690" y="66" rx="2" ry="2"/><rect class="c ci" x="690" y="82" rx="2" ry="2"/><rect class="c cj" x="690" y="98" rx="2" ry="2"/><rect class="c" x="706" y="2" rx="2" ry="2"/><rect class="c" x="706" y="18" rx="2" ry="2"/><rect class="c ck" x="706" y="34" rx="2" ry="2"/><rect class="c cl" x="706" y="50" rx="2" ry="2"/><rect class="c" x="706" y="66" rx="2" ry="2"/><rect class="c" x="706" y="82" rx="2" ry="2"/><rect class="c" x="706" y="98" rx="2" ry="2"/><rect class="c" x="722" y="2" rx="2" ry="2"/><rect class="c cm" x="722" y="18" rx="2" ry="2"/><rect class="c cn" x="722" y="34" rx="2" ry="2"/><rect class="c co" x="722" y="50" rx="2" ry="2"/><rect class="c cp" x="722" y="66" rx="2" ry="2"/><rect class="c cq" x="722" y="82" rx="2" ry="2"/><rect class="c cr" x="722" y="98" rx="2" ry="2"/><rect class="c cs" x="738" y="2" rx="2" ry="2"/><rect class="c ct" x="738" y="18" rx="2" ry="2"/><rect class="c cu" x="738" y="34" rx="2" ry="2"/><rect class="c cv" x="738" y="50" rx="2" ry="2"/><rect class="c cw" x="738" y="66" rx="2" ry="2"/><rect class="c cx" x="738" y="82" rx="2" ry="2"/><rect class="c cy" x="738" y="98" rx="2" ry="2"/><rect class="c cz" x="754" y="2" rx="2" ry="2"/><rect class="c c10" x="754" y="18" rx="2" ry="2"/><rect class="c c11" x="754" y="34" rx="2" ry="2"/><rect class="c c12" x="754" y="50" rx="2" ry="2"/><rect class="c c13" x="754" y="66" rx="2" ry="2"/><rect class="c c14" x="754" y="82" rx="2" ry="2"/><rect class="c c15" x="754" y="98" rx="2" ry="2"/><rect class="c c16" x="770" y="2" rx="2" ry="2"/><rect class="c c17" x="770" y="18" rx="2" ry="2"/><rect class="c c18" x="770" y="34" rx="2" ry="2"/><rect class="c c19" x="770" y="50" rx="2" ry="2"/><rect class="c c1a" x="770" y="66" rx="2" ry="2"/><rect class="c c1b" x="770" y="82" rx="2" ry="2"/><rect class="c c1c" x="770" y="98" rx="2" ry="2"/><rect class="c c1d" x="786" y="2" rx="2" ry="2"/><rect class="c c1e" x="786" y="18" rx="2" ry="2"/><rect class="c c1f" x="786" y="34" rx="2" ry="2"/><rect class="c c1g" x="786" y="50" rx="2" ry="2"/><rect class="c c1h" x="786" y="66" rx="2" ry="2"/><rect class="c c1i" x="786" y="82" rx="2" ry="2"/><rect class="c c1j" x="786" y="98" rx="2" ry="2"/><rect class="c c1k" x="802" y="2" rx="2" ry="2"/><rect class="c c1l" x="802" y="18" rx="2" ry="2"/><rect class="c c1m" x="802" y="34" rx="2" ry="2"/><rect class="c c1n" x="802" y="50" rx="2" ry="2"/><rect class="c c1o" x="802" y="66" rx="2" ry="2"/><rect class="c c1p" x="802" y="82" rx="2" ry="2"/><rect class="c c1q" x="802" y="98" rx="2" ry="2"/><rect class="c c1r" x="818" y="2" rx="2" ry="2"/><rect class="c c1s" x="818" y="18" rx="2" ry="2"/><rect class="c c1t" x="818" y="34" rx="2" ry="2"/><rect class="c c1u" x="818" y="50" rx="2" ry="2"/><rect class="c c1v" x="818" y="66" rx="2" ry="2"/><rect class="c c1w" x="818" y="82" rx="2" ry="2"/><rect class="c c1x" x="818" y="98" rx="2" ry="2"/><rect class="c c1y" x="834" y="2" rx="2" ry="2"/><rect class="c c1z" x="834" y="18" rx="2" ry="2"/><rect class="c c20" x="834" y="34" rx="2" ry="2"/><rect class="c c21" x="834" y="50" rx="2" ry="2"/><rect class="u u0" height="12" width="413.1" x="0.0" y="144"/><rect class="u u1" height="12" width="12.1" x="412.5" y="144"/><rect class="u u2" height="12" width="12.1" x="424.0" y="144"/><rect class="u u3" height="12" width="23.5" x="435.5" y="144"/><rect class="u u4" height="12" width="12.1" x="458.4" y="144"/><rect class="u u5" height="12" width="275.6" x="469.8" y="144"/><rect class="u u6" height="12" width="57.9" x="744.9" y="144"/><rect class="u u7" height="12" width="46.4" x="802.2" y="144"/><rect class="s s0" x="0.8" y="0.8" width="14.4" height="14.4" rx="4.5" ry="4.5"/><rect class="s s1" x="1.8" y="1.8" width="12.3" height="12.3" rx="4.1" ry="4.1"/><rect class="s s2" x="2.6" y="2.6" width="10.8" height="10.8" rx="3.6" ry="3.6"/><rect class="s s3" x="3.0" y="3.0" width="9.9" height="9.9" rx="3.3" ry="3.3"/></svg>