<svg viewBox="-16 -32 880 192" width="880" height="192" xmlns="http://www.w3.org/2000/svg"><desc>Generated with https://github.com/Platane/snk</desc><style>:root{--cb:#1b1f230a;--cs:764ba2;--ce:#ebedf0;--c0:#ebedf0;--c1:#9be9a8;--c2:#40c463;--c3:#30a14e;--c4:#216e39}.c{shape-rendering:geometricPrecision;fill:var(--ce);stroke-width:1px;stroke:var(--cb);animation:none 27500ms linear infinite;width:12px;height:12px}@keyframes c0{18.17%{fill:var(--c1)}18.19%,100%{fill:var(--ce)}}.c.c0{fill:var(--c1);animation-name:c0}@keyframes c1{17.81%{fill:var(--c1)}17.83%,100%{fill:var(--ce)}}.c.c1{fill:var(--c1);animation-name:c1}@keyframes c2{11.63%{fill:var(--c1)}11.65%,100%{fill:var(--ce)}}.c.c2{fill:var(--c1);animation-name:c2}@keyframes c3{12.72%{fill:var(--c1)}12.74%,100%{fill:var(--ce)}}.c.c3{fill:var(--c1);animation-name:c3}@keyframes c4{11.99%{fill:var(--c1)}12.01%,100%{fill:var(--ce)}}.c.c4{fill:var(--c1);animation-name:c4}@keyframes c5{12.35%{fill:var(--c1)}12.37%,100%{fill:var(--ce)}}.c.c5{fill:var(--c1);animation-name:c5}@keyframes c6{14.54%{fill:var(--c1)}14.56%,100%{fill:var(--ce)}}.c.c6{fill:var(--c1);animation-name:c6}@keyframes c7{14.9%{fill:var(--c1)}14.92%,100%{fill:var(--ce)}}.c.c7{fill:var(--c1);animation-name:c7}@keyframes c8{68.35%{fill:var(--c2)}68.37%,100%{fill:var(--ce)}}.c.c8{fill:var(--c2);animation-name:c8}@keyframes c9{67.99%{fill:var(--c2)}68.01%,100%{fill:var(--ce)}}.c.c9{fill:var(--c2);animation-name:c9}@keyframes ca{84.35%{fill:var(--c4)}84.37%,100%{fill:var(--ce)}}.c.ca{fill:var(--c4);animation-name:ca}@keyframes cb{24.72%{fill:var(--c1)}24.74%,100%{fill:var(--ce)}}.c.cb{fill:var(--c1);animation-name:cb}@keyframes cc{70.9%{fill:var(--c3)}70.92%,100%{fill:var(--ce)}}.c.cc{fill:var(--c3);animation-name:cc}@keyframes cd{65.44%{fill:var(--c2)}65.46%,100%{fill:var(--ce)}}.c.cd{fill:var(--c2);animation-name:cd}@keyframes ce{26.17%{fill:var(--c1)}26.19%,100%{fill:var(--ce)}}.c.ce{fill:var(--c1);animation-name:ce}@keyframes cf{58.54%{fill:var(--c2)}58.56%,100%{fill:var(--ce)}}.c.cf{fill:var(--c2);animation-name:cf}@keyframes cg{30.54%{fill:var(--c1)}30.56%,100%{fill:var(--ce)}}.c.cg{fill:var(--c1);animation-name:cg}@keyframes ch{59.99%{fill:var(--c2)}60.01%,100%{fill:var(--ce)}}.c.ch{fill:var(--c2);animation-name:ch}@keyframes ci{30.17%{fill:var(--c1)}30.19%,100%{fill:var(--ce)}}.c.ci{fill:var(--c1);animation-name:ci}@keyframes cj{60.35%{fill:var(--c2)}60.37%,100%{fill:var(--ce)}}.c.cj{fill:var(--c2);animation-name:cj}@keyframes ck{28.72%{fill:var(--c1)}28.74%,100%{fill:var(--ce)}}.c.ck{fill:var(--c1);animation-name:ck}@keyframes cl{57.44%{fill:var(--c2)}57.46%,100%{fill:var(--ce)}}.c.cl{fill:var(--c2);animation-name:cl}@keyframes cm{27.99%{fill:var(--c1)}28.01%,100%{fill:var(--ce)}}.c.cm{fill:var(--c1);animation-name:cm}@keyframes cn{28.35%{fill:var(--c1)}28.37%,100%{fill:var(--ce)}}.c.cn{fill:var(--c1);animation-name:cn}@keyframes co{43.99%{fill:var(--c2)}44.01%,100%{fill:var(--ce)}}.c.co{fill:var(--c2);animation-name:co}@keyframes cp{43.63%{fill:var(--c1)}43.65%,100%{fill:var(--ce)}}.c.cp{fill:var(--c1);animation-name:cp}@keyframes cq{80.35%{fill:var(--c4)}80.37%,100%{fill:var(--ce)}}.c.cq{fill:var(--c4);animation-name:cq}@keyframes cr{61.08%{fill:var(--c2)}61.1%,100%{fill:var(--ce)}}.c.cr{fill:var(--c2);animation-name:cr}@keyframes cs{53.44%{fill:var(--c2)}53.46%,100%{fill:var(--ce)}}.c.cs{fill:var(--c2);animation-name:cs}@keyframes ct{53.08%{fill:var(--c2)}53.1%,100%{fill:var(--ce)}}.c.ct{fill:var(--c2);animation-name:ct}@keyframes cu{54.9%{fill:var(--c2)}54.92%,100%{fill:var(--ce)}}.c.cu{fill:var(--c2);animation-name:cu}@keyframes cv{74.17%{fill:var(--c3)}74.19%,100%{fill:var(--ce)}}.c.cv{fill:var(--c3);animation-name:cv}@keyframes cw{46.9%{fill:var(--c2)}46.92%,100%{fill:var(--ce)}}.c.cw{fill:var(--c2);animation-name:cw}@keyframes cx{62.54%{fill:var(--c2)}62.56%,100%{fill:var(--ce)}}.c.cx{fill:var(--c2);animation-name:cx}@keyframes cy{61.44%{fill:var(--c2)}61.46%,100%{fill:var(--ce)}}.c.cy{fill:var(--c2);animation-name:cy}@keyframes cz{76.35%{fill:var(--c3)}76.37%,100%{fill:var(--ce)}}.c.cz{fill:var(--c3);animation-name:cz}@keyframes c10{52.72%{fill:var(--c2)}52.74%,100%{fill:var(--ce)}}.c.c10{fill:var(--c2);animation-name:c10}@keyframes c11{55.26%{fill:var(--c2)}55.28%,100%{fill:var(--ce)}}.c.c11{fill:var(--c2);animation-name:c11}@keyframes c12{74.54%{fill:var(--c3)}74.56%,100%{fill:var(--ce)}}.c.c12{fill:var(--c3);animation-name:c12}@keyframes c13{47.26%{fill:var(--c1)}47.28%,100%{fill:var(--ce)}}.c.c13{fill:var(--c1);animation-name:c13}@keyframes c14{47.63%{fill:var(--c2)}47.65%,100%{fill:var(--ce)}}.c.c14{fill:var(--c2);animation-name:c14}@keyframes c15{61.81%{fill:var(--c2)}61.83%,100%{fill:var(--ce)}}.c.c15{fill:var(--c2);animation-name:c15}@keyframes c16{51.26%{fill:var(--c2)}51.28%,100%{fill:var(--ce)}}.c.c16{fill:var(--c2);animation-name:c16}@keyframes c17{50.9%{fill:var(--c2)}50.92%,100%{fill:var(--ce)}}.c.c17{fill:var(--c2);animation-name:c17}@keyframes c18{50.54%{fill:var(--c2)}50.56%,100%{fill:var(--ce)}}.c.c18{fill:var(--c2);animation-name:c18}@keyframes c19{74.9%{fill:var(--c3)}74.92%,100%{fill:var(--ce)}}.c.c19{fill:var(--c3);animation-name:c19}@keyframes c1a{78.9%{fill:var(--c4)}78.92%,100%{fill:var(--ce)}}.c.c1a{fill:var(--c4);animation-name:c1a}@keyframes c1b{47.99%{fill:var(--c2)}48.01%,100%{fill:var(--ce)}}.c.c1b{fill:var(--c2);animation-name:c1b}@keyframes c1c{34.54%{fill:var(--c1)}34.56%,100%{fill:var(--ce)}}.c.c1c{fill:var(--c1);animation-name:c1c}@keyframes c1d{51.63%{fill:var(--c2)}51.65%,100%{fill:var(--ce)}}.c.c1d{fill:var(--c2);animation-name:c1d}@keyframes c1e{37.44%{fill:var(--c1)}37.46%,100%{fill:var(--ce)}}.c.c1e{fill:var(--c1);animation-name:c1e}@keyframes c1f{37.08%{fill:var(--c1)}37.1%,100%{fill:var(--ce)}}.c.c1f{fill:var(--c1);animation-name:c1f}@keyframes c1g{78.17%{fill:var(--c4)}78.19%,100%{fill:var(--ce)}}.c.c1g{fill:var(--c4);animation-name:c1g}@keyframes c1h{48.72%{fill:var(--c2)}48.74%,100%{fill:var(--ce)}}.c.c1h{fill:var(--c2);animation-name:c1h}@keyframes c1i{35.26%{fill:var(--c1)}35.28%,100%{fill:var(--ce)}}.c.c1i{fill:var(--c1);animation-name:c1i}@keyframes c1j{34.9%{fill:var(--c1)}34.92%,100%{fill:var(--ce)}}.c.c1j{fill:var(--c1);animation-name:c1j}@keyframes c1k{38.17%{fill:var(--c1)}38.19%,100%{fill:var(--ce)}}.c.c1k{fill:var(--c1);animation-name:c1k}.u{transform-origin:0 0;transform:scale(0,1);animation:none linear 27500ms infinite}@keyframes u0{11.63%{transform:scale(0.000,1)}11.65%,11.99%{transform:scale(0.045,1)}12.01%,12.35%{transform:scale(0.091,1)}12.37%,12.72%{transform:scale(0.136,1)}12.74%,14.54%{transform:scale(0.182,1)}14.56%,14.9%{transform:scale(0.227,1)}14.92%,17.81%{transform:scale(0.273,1)}17.83%,18.17%{transform:scale(0.318,1)}18.19%,24.72%{transform:scale(0.364,1)}24.74%,26.17%{transform:scale(0.409,1)}26.19%,27.99%{transform:scale(0.455,1)}28.01%,28.35%{transform:scale(0.500,1)}28.37%,28.72%{transform:scale(0.545,1)}28.74%,30.17%{transform:scale(0.591,1)}30.19%,30.54%{transform:scale(0.636,1)}30.56%,34.54%{transform:scale(0.682,1)}34.56%,34.9%{transform:scale(0.727,1)}34.92%,35.26%{transform:scale(0.773,1)}35.28%,37.08%{transform:scale(0.818,1)}37.1%,37.44%{transform:scale(0.864,1)}37.46%,38.17%{transform:scale(0.909,1)}38.19%,43.63%{transform:scale(0.955,1)}43.65%,100%{transform:scale(1.000,1)}}.u.u0{fill:var(--c1);animation-name:u0;transform-origin:0.0px 0}@keyframes u1{43.99%{transform:scale(0.000,1)}44.01%,46.9%{transform:scale(0.500,1)}46.92%,100%{transform:scale(1.000,1)}}.u.u1{fill:var(--c2);animation-name:u1;transform-origin:327.3px 0}@keyframes u2{47.26%{transform:scale(0.000,1)}47.28%,100%{transform:scale(1.000,1)}}.u.u2{fill:var(--c1);animation-name:u2;transform-origin:357.1px 0}@keyframes u3{47.63%{transform:scale(0.000,1)}47.65%,47.99%{transform:scale(0.043,1)}48.01%,48.72%{transform:scale(0.087,1)}48.74%,50.54%{transform:scale(0.130,1)}50.56%,50.9%{transform:scale(0.174,1)}50.92%,51.26%{transform:scale(0.217,1)}51.28%,51.63%{transform:scale(0.261,1)}51.65%,52.72%{transform:scale(0.304,1)}52.74%,53.08%{transform:scale(0.348,1)}53.1%,53.44%{transform:scale(0.391,1)}53.46%,54.9%{transform:scale(0.435,1)}54.92%,55.26%{transform:scale(0.478,1)}55.28%,57.44%{transform:scale(0.522,1)}57.46%,58.54%{transform:scale(0.565,1)}58.56%,59.99%{transform:scale(0.609,1)}60.01%,60.35%{transform:scale(0.652,1)}60.37%,61.08%{transform:scale(0.696,1)}61.1%,61.44%{transform:scale(0.739,1)}61.46%,61.81%{transform:scale(0.783,1)}61.83%,62.54%{transform:scale(0.826,1)}62.56%,65.44%{transform:scale(0.870,1)}65.46%,67.99%{transform:scale(0.913,1)}68.01%,68.35%{transform:scale(0.957,1)}68.37%,100%{transform:scale(1.000,1)}}.u.u3{fill:var(--c2);animation-name:u3;transform-origin:371.9px 0}@keyframes u4{70.9%{transform:scale(0.000,1)}70.92%,74.17%{transform:scale(0.200,1)}74.19%,74.54%{transform:scale(0.400,1)}74.56%,74.9%{transform:scale(0.600,1)}74.92%,76.35%{transform:scale(0.800,1)}76.37%,100%{transform:scale(1.000,1)}}.u.u4{fill:var(--c3);animation-name:u4;transform-origin:714.1px 0}@keyframes u5{78.17%{transform:scale(0.000,1)}78.19%,78.9%{transform:scale(0.250,1)}78.92%,80.35%{transform:scale(0.500,1)}80.37%,84.35%{transform:scale(0.750,1)}84.37%,100%{transform:scale(1.000,1)}}.u.u5{fill:var(--c4);animation-name:u5;transform-origin:788.5px 0}.s{shape-rendering:geometricPrecision;fill:var(--cs);animation:none linear 27500ms infinite}@keyframes s0{0%,99.64%{transform:translate(0px,-16px)}0.36%{transform:translate(0px,0px)}11.27%{transform:translate(480px,0px)}11.64%{transform:translate(480px,16px)}12%{transform:translate(496px,16px)}12.36%{transform:translate(496px,32px)}12.73%{transform:translate(480px,32px)}13.09%{transform:translate(480px,48px)}14.55%{transform:translate(544px,48px)}14.91%{transform:translate(544px,64px)}17.45%{transform:translate(432px,64px)}17.82%{transform:translate(432px,80px)}18.18%{transform:translate(416px,80px)}18.55%{transform:translate(416px,64px)}23.27%{transform:translate(624px,64px)}24.73%{transform:translate(624px,0px)}25.82%{transform:translate(672px,0px)}26.18%{transform:translate(672px,16px)}28%,44.73%,54.18%{transform:translate(752px,16px)}28.36%,45.82%{transform:translate(752px,32px)}29.09%,42.18%,58.18%{transform:translate(720px,32px)}30.18%{transform:translate(720px,80px)}30.55%{transform:translate(704px,80px)}30.91%{transform:translate(704px,64px)}31.64%,73.09%{transform:translate(736px,64px)}32.73%{transform:translate(736px,112px)}34.18%{transform:translate(800px,112px)}34.55%{transform:translate(800px,96px)}34.91%{transform:translate(816px,96px)}35.27%,48.36%{transform:translate(816px,80px)}35.64%{transform:translate(832px,80px)}36.73%,49.82%{transform:translate(832px,32px)}37.09%{transform:translate(816px,32px)}37.45%,52%,77.45%{transform:translate(816px,16px)}37.82%{transform:translate(832px,16px)}38.55%{transform:translate(832px,-16px)}40.73%{transform:translate(736px,-16px)}41.82%,45.45%{transform:translate(736px,32px)}42.91%{transform:translate(720px,64px)}43.64%,46.55%,80%{transform:translate(752px,64px)}45.09%,56.73%{transform:translate(736px,16px)}47.27%{transform:translate(784px,64px)}47.64%,62.18%{transform:translate(784px,80px)}48.73%{transform:translate(816px,64px)}49.09%{transform:translate(832px,64px)}50.55%{transform:translate(800px,32px)}51.27%,76%{transform:translate(800px,0px)}51.64%{transform:translate(816px,0px)}53.09%,54.55%{transform:translate(768px,16px)}53.45%{transform:translate(768px,0px)}53.82%{transform:translate(752px,0px)}54.91%{transform:translate(768px,32px)}55.27%{transform:translate(784px,32px)}55.64%,76.73%{transform:translate(784px,16px)}57.45%,81.45%{transform:translate(736px,48px)}57.82%{transform:translate(720px,48px)}58.55%{transform:translate(704px,32px)}60%{transform:translate(704px,96px)}61.82%{transform:translate(784px,96px)}62.55%{transform:translate(768px,80px)}62.91%{transform:translate(768px,96px)}65.82%{transform:translate(640px,96px)}67.27%{transform:translate(640px,32px)}68.36%{transform:translate(592px,32px)}69.09%{transform:translate(592px,64px)}70.55%{transform:translate(656px,64px)}70.91%{transform:translate(656px,80px)}72.73%,80.73%{transform:translate(736px,80px)}73.82%{transform:translate(768px,64px)}74.18%{transform:translate(768px,48px)}74.91%,78.55%{transform:translate(800px,48px)}76.36%{transform:translate(784px,0px)}78.18%{transform:translate(816px,48px)}78.91%{transform:translate(800px,64px)}80.36%{transform:translate(752px,80px)}96.36%{transform:translate(80px,48px)}97.45%{transform:translate(80px,0px)}97.82%{transform:translate(64px,0px)}98.18%{transform:translate(64px,-16px)}}.s.s0{transform:translate(0px,-16px);animation-name:s0}@keyframes s1{0%,99.64%{transform:translate(16px,-16px)}0.36%{transform:translate(0px,-16px)}0.73%{transform:translate(0px,0px)}11.64%{transform:translate(480px,0px)}12%{transform:translate(480px,16px)}12.36%{transform:translate(496px,16px)}12.73%{transform:translate(496px,32px)}13.09%{transform:translate(480px,32px)}13.45%{transform:translate(480px,48px)}14.91%{transform:translate(544px,48px)}15.27%{transform:translate(544px,64px)}17.82%{transform:translate(432px,64px)}18.18%{transform:translate(432px,80px)}18.55%{transform:translate(416px,80px)}18.91%{transform:translate(416px,64px)}23.64%{transform:translate(624px,64px)}25.09%{transform:translate(624px,0px)}26.18%{transform:translate(672px,0px)}26.55%{transform:translate(672px,16px)}28.36%,45.09%,54.55%{transform:translate(752px,16px)}28.73%,46.18%{transform:translate(752px,32px)}29.45%,42.55%,58.55%{transform:translate(720px,32px)}30.55%{transform:translate(720px,80px)}30.91%{transform:translate(704px,80px)}31.27%{transform:translate(704px,64px)}32%,73.45%{transform:translate(736px,64px)}33.09%{transform:translate(736px,112px)}34.55%{transform:translate(800px,112px)}34.91%{transform:translate(800px,96px)}35.27%{transform:translate(816px,96px)}35.64%,48.73%{transform:translate(816px,80px)}36%{transform:translate(832px,80px)}37.09%,50.18%{transform:translate(832px,32px)}37.45%{transform:translate(816px,32px)}37.82%,52.36%,77.82%{transform:translate(816px,16px)}38.18%{transform:translate(832px,16px)}38.91%{transform:translate(832px,-16px)}41.09%{transform:translate(736px,-16px)}42.18%,45.82%{transform:translate(736px,32px)}43.27%{transform:translate(720px,64px)}44%,46.91%,80.36%{transform:translate(752px,64px)}45.45%,57.09%{transform:translate(736px,16px)}47.64%{transform:translate(784px,64px)}48%,62.55%{transform:translate(784px,80px)}49.09%{transform:translate(816px,64px)}49.45%{transform:translate(832px,64px)}50.91%{transform:translate(800px,32px)}51.64%,76.36%{transform:translate(800px,0px)}52%{transform:translate(816px,0px)}53.45%,54.91%{transform:translate(768px,16px)}53.82%{transform:translate(768px,0px)}54.18%{transform:translate(752px,0px)}55.27%{transform:translate(768px,32px)}55.64%{transform:translate(784px,32px)}56%,77.09%{transform:translate(784px,16px)}57.82%,81.82%{transform:translate(736px,48px)}58.18%{transform:translate(720px,48px)}58.91%{transform:translate(704px,32px)}60.36%{transform:translate(704px,96px)}62.18%{transform:translate(784px,96px)}62.91%{transform:translate(768px,80px)}63.27%{transform:translate(768px,96px)}66.18%{transform:translate(640px,96px)}67.64%{transform:translate(640px,32px)}68.73%{transform:translate(592px,32px)}69.45%{transform:translate(592px,64px)}70.91%{transform:translate(656px,64px)}71.27%{transform:translate(656px,80px)}73.09%,81.09%{transform:translate(736px,80px)}74.18%{transform:translate(768px,64px)}74.55%{transform:translate(768px,48px)}75.27%,78.91%{transform:translate(800px,48px)}76.73%{transform:translate(784px,0px)}78.55%{transform:translate(816px,48px)}79.27%{transform:translate(800px,64px)}80.73%{transform:translate(752px,80px)}96.73%{transform:translate(80px,48px)}97.82%{transform:translate(80px,0px)}98.18%{transform:translate(64px,0px)}98.55%{transform:translate(64px,-16px)}}.s.s1{transform:translate(16px,-16px);animation-name:s1}@keyframes s2{0%,99.64%{transform:translate(32px,-16px)}0.73%{transform:translate(0px,-16px)}1.09%{transform:translate(0px,0px)}12%{transform:translate(480px,0px)}12.36%{transform:translate(480px,16px)}12.73%{transform:translate(496px,16px)}13.09%{transform:translate(496px,32px)}13.45%{transform:translate(480px,32px)}13.82%{transform:translate(480px,48px)}15.27%{transform:translate(544px,48px)}15.64%{transform:translate(544px,64px)}18.18%{transform:translate(432px,64px)}18.55%{transform:translate(432px,80px)}18.91%{transform:translate(416px,80px)}19.27%{transform:translate(416px,64px)}24%{transform:translate(624px,64px)}25.45%{transform:translate(624px,0px)}26.55%{transform:translate(672px,0px)}26.91%{transform:translate(672px,16px)}28.73%,45.45%,54.91%{transform:translate(752px,16px)}29.09%,46.55%{transform:translate(752px,32px)}29.82%,42.91%,58.91%{transform:translate(720px,32px)}30.91%{transform:translate(720px,80px)}31.27%{transform:translate(704px,80px)}31.64%{transform:translate(704px,64px)}32.36%,73.82%{transform:translate(736px,64px)}33.45%{transform:translate(736px,112px)}34.91%{transform:translate(800px,112px)}35.27%{transform:translate(800px,96px)}35.64%{transform:translate(816px,96px)}36%,49.09%{transform:translate(816px,80px)}36.36%{transform:translate(832px,80px)}37.45%,50.55%{transform:translate(832px,32px)}37.82%{transform:translate(816px,32px)}38.18%,52.73%,78.18%{transform:translate(816px,16px)}38.55%{transform:translate(832px,16px)}39.27%{transform:translate(832px,-16px)}41.45%{transform:translate(736px,-16px)}42.55%,46.18%{transform:translate(736px,32px)}43.64%{transform:translate(720px,64px)}44.36%,47.27%,80.73%{transform:translate(752px,64px)}45.82%,57.45%{transform:translate(736px,16px)}48%{transform:translate(784px,64px)}48.36%,62.91%{transform:translate(784px,80px)}49.45%{transform:translate(816px,64px)}49.82%{transform:translate(832px,64px)}51.27%{transform:translate(800px,32px)}52%,76.73%{transform:translate(800px,0px)}52.36%{transform:translate(816px,0px)}53.82%,55.27%{transform:translate(768px,16px)}54.18%{transform:translate(768px,0px)}54.55%{transform:translate(752px,0px)}55.64%{transform:translate(768px,32px)}56%{transform:translate(784px,32px)}56.36%,77.45%{transform:translate(784px,16px)}58.18%,82.18%{transform:translate(736px,48px)}58.55%{transform:translate(720px,48px)}59.27%{transform:translate(704px,32px)}60.73%{transform:translate(704px,96px)}62.55%{transform:translate(784px,96px)}63.27%{transform:translate(768px,80px)}63.64%{transform:translate(768px,96px)}66.55%{transform:translate(640px,96px)}68%{transform:translate(640px,32px)}69.09%{transform:translate(592px,32px)}69.82%{transform:translate(592px,64px)}71.27%{transform:translate(656px,64px)}71.64%{transform:translate(656px,80px)}73.45%,81.45%{transform:translate(736px,80px)}74.55%{transform:translate(768px,64px)}74.91%{transform:translate(768px,48px)}75.64%,79.27%{transform:translate(800px,48px)}77.09%{transform:translate(784px,0px)}78.91%{transform:translate(816px,48px)}79.64%{transform:translate(800px,64px)}81.09%{transform:translate(752px,80px)}97.09%{transform:translate(80px,48px)}98.18%{transform:translate(80px,0px)}98.55%{transform:translate(64px,0px)}98.91%{transform:translate(64px,-16px)}}.s.s2{transform:translate(32px,-16px);animation-name:s2}@keyframes s3{0%,99.64%{transform:translate(48px,-16px)}1.09%{transform:translate(0px,-16px)}1.45%{transform:translate(0px,0px)}12.36%{transform:translate(480px,0px)}12.73%{transform:translate(480px,16px)}13.09%{transform:translate(496px,16px)}13.45%{transform:translate(496px,32px)}13.82%{transform:translate(480px,32px)}14.18%{transform:translate(480px,48px)}15.64%{transform:translate(544px,48px)}16%{transform:translate(544px,64px)}18.55%{transform:translate(432px,64px)}18.91%{transform:translate(432px,80px)}19.27%{transform:translate(416px,80px)}19.64%{transform:translate(416px,64px)}24.36%{transform:translate(624px,64px)}25.82%{transform:translate(624px,0px)}26.91%{transform:translate(672px,0px)}27.27%{transform:translate(672px,16px)}29.09%,45.82%,55.27%{transform:translate(752px,16px)}29.45%,46.91%{transform:translate(752px,32px)}30.18%,43.27%,59.27%{transform:translate(720px,32px)}31.27%{transform:translate(720px,80px)}31.64%{transform:translate(704px,80px)}32%{transform:translate(704px,64px)}32.73%,74.18%{transform:translate(736px,64px)}33.82%{transform:translate(736px,112px)}35.27%{transform:translate(800px,112px)}35.64%{transform:translate(800px,96px)}36%{transform:translate(816px,96px)}36.36%,49.45%{transform:translate(816px,80px)}36.73%{transform:translate(832px,80px)}37.82%,50.91%{transform:translate(832px,32px)}38.18%{transform:translate(816px,32px)}38.55%,53.09%,78.55%{transform:translate(816px,16px)}38.91%{transform:translate(832px,16px)}39.64%{transform:translate(832px,-16px)}41.82%{transform:translate(736px,-16px)}42.91%,46.55%{transform:translate(736px,32px)}44%{transform:translate(720px,64px)}44.73%,47.64%,81.09%{transform:translate(752px,64px)}46.18%,57.82%{transform:translate(736px,16px)}48.36%{transform:translate(784px,64px)}48.73%,63.27%{transform:translate(784px,80px)}49.82%{transform:translate(816px,64px)}50.18%{transform:translate(832px,64px)}51.64%{transform:translate(800px,32px)}52.36%,77.09%{transform:translate(800px,0px)}52.73%{transform:translate(816px,0px)}54.18%,55.64%{transform:translate(768px,16px)}54.55%{transform:translate(768px,0px)}54.91%{transform:translate(752px,0px)}56%{transform:translate(768px,32px)}56.36%{transform:translate(784px,32px)}56.73%,77.82%{transform:translate(784px,16px)}58.55%,82.55%{transform:translate(736px,48px)}58.91%{transform:translate(720px,48px)}59.64%{transform:translate(704px,32px)}61.09%{transform:translate(704px,96px)}62.91%{transform:translate(784px,96px)}63.64%{transform:translate(768px,80px)}64%{transform:translate(768px,96px)}66.91%{transform:translate(640px,96px)}68.36%{transform:translate(640px,32px)}69.45%{transform:translate(592px,32px)}70.18%{transform:translate(592px,64px)}71.64%{transform:translate(656px,64px)}72%{transform:translate(656px,80px)}73.82%,81.82%{transform:translate(736px,80px)}74.91%{transform:translate(768px,64px)}75.27%{transform:translate(768px,48px)}76%,79.64%{transform:translate(800px,48px)}77.45%{transform:translate(784px,0px)}79.27%{transform:translate(816px,48px)}80%{transform:translate(800px,64px)}81.45%{transform:translate(752px,80px)}97.45%{transform:translate(80px,48px)}98.55%{transform:translate(80px,0px)}98.91%{transform:translate(64px,0px)}99.27%{transform:translate(64px,-16px)}}.s.s3{transform:translate(48px,-16px);animation-name:s3}</style><rect class="c" x="2" y="2" rx="2" ry="2"/><rect class="c" x="2" y="18" rx="2" ry="2"/><rect class="c" x="2" y="34" rx="2" ry="2"/><rect class="c" x="2" y="50" rx="2" ry="2"/><rect class="c" x="2" y="66" rx="2" ry="2"/><rect class="c" x="2" y="82" rx="2" ry="2"/><rect class="c" x="2" y="98" rx="2" ry="2"/><rect class="c" x="18" y="2" rx="2" ry="2"/><rect class="c" x="18" y="18" rx="2" ry="2"/><rect class="c" x="18" y="34" rx="2" ry="2"/><rect class="c" x="18" y="50" rx="2" ry="2"/><rect class="c" x="18" y="66" rx="2" ry="2"/><rect class="c" x="18" y="82" rx="2" ry="2"/><rect class="c" x="18" y="98" rx="2" ry="2"/><rect class="c" x="34" y="2" rx="2" ry="2"/><rect class="c" x="34" y="18" rx="2" ry="2"/><rect class="c" x="34" y="34" rx="2" ry="2"/><rect class="c" x="34" y="50" rx="2" ry="2"/><rect class="c" x="34" y="66" rx="2" ry="2"/><rect class="c" x="34" y="82" rx="2" ry="2"/><rect class="c" x="34" y="98" rx="2" ry="2"/><rect class="c" x="50" y="2" rx="2" ry="2"/><rect class="c" x="50" y="18" rx="2" ry="2"/><rect class="c" x="50" y="34" rx="2" ry="2"/><rect class="c" x="50" y="50" rx="2" ry="2"/><rect class="c" x="50" y="66" rx="2" ry="2"/><rect class="c" x="50" y="82" rx="2" ry="2"/><rect class="c" x="50" y="98" rx="2" ry="2"/><rect class="c" x="66" y="2" rx="2" ry="2"/><rect class="c" x="66" y="18" rx="2" ry="2"/><rect class="c" x="66" y="34" rx="2" ry="2"/><rect class="c" x="66" y="50" rx="2" ry="2"/><rect class="c" x="66" y="66" rx="2" ry="2"/><rect class="c" x="66" y="82" rx="2" ry="2"/><rect class="c" x="66" y="98" rx="2" ry="2"/><rect class="c" x="82" y="2" rx="2" ry="2"/><rect class="c" x="82" y="18" rx="2" ry="2"/><rect class="c" x="82" y="34" rx="2" ry="2"/><rect class="c" x="82" y="50" rx="2" ry="2"/><rect class="c" x="82" y="66" rx="2" ry="2"/><rect class="c" x="82" y="82" rx="2" ry="2"/><rect class="c" x="82" y="98" rx="2" ry="2"/><rect class="c" x="98" y="2" rx="2" ry="2"/><rect class="c" x="98" y="18" rx="2" ry="2"/><rect class="c" x="98" y="34" rx="2" ry="2"/><rect class="c" x="98" y="50" rx="2" ry="2"/><rect class="c" x="98" y="66" rx="2" ry="2"/><rect class="c" x="98" y="82" rx="2" ry="2"/><rect class="c" x="98" y="98" rx="2" ry="2"/><rect class="c" x="114" y="2" rx="2" ry="2"/><rect class="c" x="114" y="18" rx="2" ry="2"/><rect class="c" x="114" y="34" rx="2" ry="2"/><rect class="c" x="114" y="50" rx="2" ry="2"/><rect class="c" x="114" y="66" rx="2" ry="2"/><rect class="c" x="114" y="82" rx="2" ry="2"/><rect class="c" x="114" y="98" rx="2" ry="2"/><rect class="c" x="130" y="2" rx="2" ry="2"/><rect class="c" x="130" y="18" rx="2" ry="2"/><rect class="c" x="130" y="34" rx="2" ry="2"/><rect class="c" x="130" y="50" rx="2" ry="2"/><rect class="c" x="130" y="66" rx="2" ry="2"/><rect class="c" x="130" y="82" rx="2" ry="2"/><rect class="c" x="130" y="98" rx="2" ry="2"/><rect class="c" x="146" y="2" rx="2" ry="2"/><rect class="c" x="146" y="18" rx="2" ry="2"/><rect class="c" x="146" y="34" rx="2" ry="2"/><rect class="c" x="146" y="50" rx="2" ry="2"/><rect class="c" x="146" y="66" rx="2" ry="2"/><rect class="c" x="146" y="82" rx="2" ry="2"/><rect class="c" x="146" y="98" rx="2" ry="2"/><rect class="c" x="162" y="2" rx="2" ry="2"/><rect class="c" x="162" y="18" rx="2" ry="2"/><rect class="c" x="162" y="34" rx="2" ry="2"/><rect class="c" x="162" y="50" rx="2" ry="2"/><rect class="c" x="162" y="66" rx="2" ry="2"/><rect class="c" x="162" y="82" rx="2" ry="2"/><rect class="c" x="162" y="98" rx="2" ry="2"/><rect class="c" x="178" y="2" rx="2" ry="2"/><rect class="c" x="178" y="18" rx="2" ry="2"/><rect class="c" x="178" y="34" rx="2" ry="2"/><rect class="c" x="178" y="50" rx="2" ry="2"/><rect class="c" x="178" y="66" rx="2" ry="2"/><rect class="c" x="178" y="82" rx="2" ry="2"/><rect class="c" x="178" y="98" rx="2" ry="2"/><rect class="c" x="194" y="2" rx="2" ry="2"/><rect class="c" x="194" y="18" rx="2" ry="2"/><rect class="c" x="194" y="34" rx="2" ry="2"/><rect class="c" x="194" y="50" rx="2" ry="2"/><rect class="c" x="194" y="66" rx="2" ry="2"/><rect class="c" x="194" y="82" rx="2" ry="2"/><rect class="c" x="194" y="98" rx="2" ry="2"/><rect class="c" x="210" y="2" rx="2" ry="2"/><rect class="c" x="210" y="18" rx="2" ry="2"/><rect class="c" x="210" y="34" rx="2" ry="2"/><rect class="c" x="210" y="50" rx="2" ry="2"/><rect class="c" x="210" y="66" rx="2" ry="2"/><rect class="c" x="210" y="82" rx="2" ry="2"/><rect class="c" x="210" y="98" rx="2" ry="2"/><rect class="c" x="226" y="2" rx="2" ry="2"/><rect class="c" x="226" y="18" rx="2" ry="2"/><rect class="c" x="226" y="34" rx="2" ry="2"/><rect class="c" x="226" y="50" rx="2" ry="2"/><rect class="c" x="226" y="66" rx="2" ry="2"/><rect class="c" x="226" y="82" rx="2" ry="2"/><rect class="c" x="226" y="98" rx="2" ry="2"/><rect class="c" x="242" y="2" rx="2" ry="2"/><rect class="c" x="242" y="18" rx="2" ry="2"/><rect class="c" x="242" y="34" rx="2" ry="2"/><rect class="c" x="242" y="50" rx="2" ry="2"/><rect class="c" x="242" y="66" rx="2" ry="2"/><rect class="c" x="242" y="82" rx="2" ry="2"/><rect class="c" x="242" y="98" rx="2" ry="2"/><rect class="c" x="258" y="2" rx="2" ry="2"/><rect class="c" x="258" y="18" rx="2" ry="2"/><rect class="c" x="258" y="34" rx="2" ry="2"/><rect class="c" x="258" y="50" rx="2" ry="2"/><rect class="c" x="258" y="66" rx="2" ry="2"/><rect class="c" x="258" y="82" rx="2" ry="2"/><rect class="c" x="258" y="98" rx="2" ry="2"/><rect class="c" x="274" y="2" rx="2" ry="2"/><rect class="c" x="274" y="18" rx="2" ry="2"/><rect class="c" x="274" y="34" rx="2" ry="2"/><rect class="c" x="274" y="50" rx="2" ry="2"/><rect class="c" x="274" y="66" rx="2" ry="2"/><rect class="c" x="274" y="82" rx="2" ry="2"/><rect class="c" x="274" y="98" rx="2" ry="2"/><rect class="c" x="290" y="2" rx="2" ry="2"/><rect class="c" x="290" y="18" rx="2" ry="2"/><rect class="c" x="290" y="34" rx="2" ry="2"/><rect class="c" x="290" y="50" rx="2" ry="2"/><rect class="c" x="290" y="66" rx="2" ry="2"/><rect class="c" x="290" y="82" rx="2" ry="2"/><rect class="c" x="290" y="98" rx="2" ry="2"/><rect class="c" x="306" y="2" rx="2" ry="2"/><rect class="c" x="306" y="18" rx="2" ry="2"/><rect class="c" x="306" y="34" rx="2" ry="2"/><rect class="c" x="306" y="50" rx="2" ry="2"/><rect class="c" x="306" y="66" rx="2" ry="2"/><rect class="c" x="306" y="82" rx="2" ry="2"/><rect class="c" x="306" y="98" rx="2" ry="2"/><rect class="c" x="322" y="2" rx="2" ry="2"/><rect class="c" x="322" y="18" rx="2" ry="2"/><rect class="c" x="322" y="34" rx="2" ry="2"/><rect class="c" x="322" y="50" rx="2" ry="2"/><rect class="c" x="322" y="66" rx="2" ry="2"/><rect class="c" x="322" y="82" rx="2" ry="2"/><rect class="c" x="322" y="98" rx="2" ry="2"/><rect class="c" x="338" y="2" rx="2" ry="2"/><rect class="c" x="338" y="18" rx="2" ry="2"/><rect class="c" x="338" y="34" rx="2" ry="2"/><rect class="c" x="338" y="50" rx="2" ry="2"/><rect class="c" x="338" y="66" rx="2" ry="2"/><rect class="c" x="338" y="82" rx="2" ry="2"/><rect class="c" x="338" y="98" rx="2" ry="2"/><rect class="c" x="354" y="2" rx="2" ry="2"/><rect class="c" x="354" y="18" rx="2" ry="2"/><rect class="c" x="354" y="34" rx="2" ry="2"/><rect class="c" x="354" y="50" rx="2" ry="2"/><rect class="c" x="354" y="66" rx="2" ry="2"/><rect class="c" x="354" y="82" rx="2" ry="2"/><rect class="c" x="354" y="98" rx="2" ry="2"/><rect class="c" x="370" y="2" rx="2" ry="2"/><rect class="c" x="370" y="18" rx="2" ry="2"/><rect class="c" x="370" y="34" rx="2" ry="2"/><rect class="c" x="370" y="50" rx="2" ry="2"/><rect class="c" x="370" y="66" rx="2" ry="2"/><rect class="c" x="370" y="82" rx="2" ry="2"/><rect class="c" x="370" y="98" rx="2" ry="2"/><rect class="c" x="386" y="2" rx="2" ry="2"/><rect class="c" x="386" y="18" rx="2" ry="2"/><rect class="c" x="386" y="34" rx="2" ry="2"/><rect class="c" x="386" y="50" rx="2" ry="2"/><rect class="c" x="386" y="66" rx="2" ry="2"/><rect class="c" x="386" y="82" rx="2" ry="2"/><rect class="c" x="386" y="98" rx="2" ry="2"/><rect class="c" x="402" y="2" rx="2" ry="2"/><rect class="c" x="402" y="18" rx="2" ry="2"/><rect class="c" x="402" y="34" rx="2" ry="2"/><rect class="c" x="402" y="50" rx="2" ry="2"/><rect class="c" x="402" y="66" rx="2" ry="2"/><rect class="c" x="402" y="82" rx="2" ry="2"/><rect class="c" x="402" y="98" rx="2" ry="2"/><rect class="c" x="418" y="2" rx="2" ry="2"/><rect class="c" x="418" y="18" rx="2" ry="2"/><rect class="c" x="418" y="34" rx="2" ry="2"/><rect class="c" x="418" y="50" rx="2" ry="2"/><rect class="c" x="418" y="66" rx="2" ry="2"/><rect class="c c0" x="418" y="82" rx="2" ry="2"/><rect class="c" x="418" y="98" rx="2" ry="2"/><rect class="c" x="434" y="2" rx="2" ry="2"/><rect class="c" x="434" y="18" rx="2" ry="2"/><rect class="c" x="434" y="34" rx="2" ry="2"/><rect class="c" x="434" y="50" rx="2" ry="2"/><rect class="c" x="434" y="66" rx="2" ry="2"/><rect class="c c1" x="434" y="82" rx="2" ry="2"/><rect class="c" x="434" y="98" rx="2" ry="2"/><rect class="c" x="450" y="2" rx="2" ry="2"/><rect class="c" x="450" y="18" rx="2" ry="2"/><rect class="c" x="450" y="34" rx="2" ry="2"/><rect class="c" x="450" y="50" rx="2" ry="2"/><rect class="c" x="450" y="66" rx="2" ry="2"/><rect class="c" x="450" y="82" rx="2" ry="2"/><rect class="c" x="450" y="98" rx="2" ry="2"/><rect class="c" x="466" y="2" rx="2" ry="2"/><rect class="c" x="466" y="18" rx="2" ry="2"/><rect class="c" x="466" y="34" rx="2" ry="2"/><rect class="c" x="466" y="50" rx="2" ry="2"/><rect class="c" x="466" y="66" rx="2" ry="2"/><rect class="c" x="466" y="82" rx="2" ry="2"/><rect class="c" x="466" y="98" rx="2" ry="2"/><rect class="c" x="482" y="2" rx="2" ry="2"/><rect class="c c2" x="482" y="18" rx="2" ry="2"/><rect class="c c3" x="482" y="34" rx="2" ry="2"/><rect class="c" x="482" y="50" rx="2" ry="2"/><rect class="c" x="482" y="66" rx="2" ry="2"/><rect class="c" x="482" y="82" rx="2" ry="2"/><rect class="c" x="482" y="98" rx="2" ry="2"/><rect class="c" x="498" y="2" rx="2" ry="2"/><rect class="c c4" x="498" y="18" rx="2" ry="2"/><rect class="c c5" x="498" y="34" rx="2" ry="2"/><rect class="c" x="498" y="50" rx="2" ry="2"/><rect class="c" x="498" y="66" rx="2" ry="2"/><rect class="c" x="498" y="82" rx="2" ry="2"/><rect class="c" x="498" y="98" rx="2" ry="2"/><rect class="c" x="514" y="2" rx="2" ry="2"/><rect class="c" x="514" y="18" rx="2" ry="2"/><rect class="c" x="514" y="34" rx="2" ry="2"/><rect class="c" x="514" y="50" rx="2" ry="2"/><rect class="c" x="514" y="66" rx="2" ry="2"/><rect class="c" x="514" y="82" rx="2" ry="2"/><rect class="c" x="514" y="98" rx="2" ry="2"/><rect class="c" x="530" y="2" rx="2" ry="2"/><rect class="c" x="530" y="18" rx="2" ry="2"/><rect class="c" x="530" y="34" rx="2" ry="2"/><rect class="c" x="530" y="50" rx="2" ry="2"/><rect class="c" x="530" y="66" rx="2" ry="2"/><rect class="c" x="530" y="82" rx="2" ry="2"/><rect class="c" x="530" y="98" rx="2" ry="2"/><rect class="c" x="546" y="2" rx="2" ry="2"/><rect class="c" x="546" y="18" rx="2" ry="2"/><rect class="c" x="546" y="34" rx="2" ry="2"/><rect class="c c6" x="546" y="50" rx="2" ry="2"/><rect class="c c7" x="546" y="66" rx="2" ry="2"/><rect class="c" x="546" y="82" rx="2" ry="2"/><rect class="c" x="546" y="98" rx="2" ry="2"/><rect class="c" x="562" y="2" rx="2" ry="2"/><rect class="c" x="562" y="18" rx="2" ry="2"/><rect class="c" x="562" y="34" rx="2" ry="2"/><rect class="c" x="562" y="50" rx="2" ry="2"/><rect class="c" x="562" y="66" rx="2" ry="2"/><rect class="c" x="562" y="82" rx="2" ry="2"/><rect class="c" x="562" y="98" rx="2" ry="2"/><rect class="c" x="578" y="2" rx="2" ry="2"/><rect class="c" x="578" y="18" rx="2" ry="2"/><rect class="c" x="578" y="34" rx="2" ry="2"/><rect class="c" x="578" y="50" rx="2" ry="2"/><rect class="c" x="578" y="66" rx="2" ry="2"/><rect class="c" x="578" y="82" rx="2" ry="2"/><rect class="c" x="578" y="98" rx="2" ry="2"/><rect class="c" x="594" y="2" rx="2" ry="2"/><rect class="c" x="594" y="18" rx="2" ry="2"/><rect class="c c8" x="594" y="34" rx="2" ry="2"/><rect class="c" x="594" y="50" rx="2" ry="2"/><rect class="c" x="594" y="66" rx="2" ry="2"/><rect class="c" x="594" y="82" rx="2" ry="2"/><rect class="c" x="594" y="98" rx="2" ry="2"/><rect class="c" x="610" y="2" rx="2" ry="2"/><rect class="c" x="610" y="18" rx="2" ry="2"/><rect class="c c9" x="610" y="34" rx="2" ry="2"/><rect class="c ca" x="610" y="50" rx="2" ry="2"/><rect class="c" x="610" y="66" rx="2" ry="2"/><rect class="c" x="610" y="82" rx="2" ry="2"/><rect class="c" x="610" y="98" rx="2" ry="2"/><rect class="c cb" x="626" y="2" rx="2" ry="2"/><rect class="c" x="626" y="18" rx="2" ry="2"/><rect class="c" x="626" y="34" rx="2" ry="2"/><rect class="c" x="626" y="50" rx="2" ry="2"/><rect class="c" x="626" y="66" rx="2" ry="2"/><rect class="c" x="626" y="82" rx="2" ry="2"/><rect class="c" x="626" y="98" rx="2" ry="2"/><rect class="c" x="642" y="2" rx="2" ry="2"/><rect class="c" x="642" y="18" rx="2" ry="2"/><rect class="c" x="642" y="34" rx="2" ry="2"/><rect class="c" x="642" y="50" rx="2" ry="2"/><rect class="c" x="642" y="66" rx="2" ry="2"/><rect class="c" x="642" y="82" rx="2" ry="2"/><rect class="c" x="642" y="98" rx="2" ry="2"/><rect class="c" x="658" y="2" rx="2" ry="2"/><rect class="c" x="658" y="18" rx="2" ry="2"/><rect class="c" x="658" y="34" rx="2" ry="2"/><rect class="c" x="658" y="50" rx="2" ry="2"/><rect class="c" x="658" y="66" rx="2" ry="2"/><rect class="c cc" x="658" y="82" rx="2" ry="2"/><rect class="c cd" x="658" y="98" rx="2" ry="2"/><rect class="c" x="674" y="2" rx="2" ry="2"/><rect class="c ce" x="674" y="18" rx="2" ry="2"/><rect class="c" x="674" y="34" rx="2" ry="2"/><rect class="c" x="674" y="50" rx="2" ry="2"/><rect class="c" x="674" y="66" rx="2" ry="2"/><rect class="c" x="674" y="82" rx="2" ry="2"/><rect class="c" x="674" y="98" rx="2" ry="2"/><rect class="c" x="690" y="2" rx="2" ry="2"/><rect class="c" x="690" y="18" rx="2" ry="2"/><rect class="c" x="690" y="34" rx="2" ry="2"/><rect class="c" x="690" y="50" rx="2" ry="2"/><rect class="c" x="690" y="66" rx="2" ry="2"/><rect class="c" x="690" y="82" rx="2" ry="2"/><rect class="c" x="690" y="98" rx="2" ry="2"/><rect class="c" x="706" y="2" rx="2" ry="2"/><rect class="c" x="706" y="18" rx="2" ry="2"/><rect class="c cf" x="706" y="34" rx="2" ry="2"/><rect class="c" x="706" y="50" rx="2" ry="2"/><rect class="c" x="706" y="66" rx="2" ry="2"/><rect class="c cg" x="706" y="82" rx="2" ry="2"/><rect class="c ch" x="706" y="98" rx="2" ry="2"/><rect class="c" x="722" y="2" rx="2" ry="2"/><rect class="c" x="722" y="18" rx="2" ry="2"/><rect class="c" x="722" y="34" rx="2" ry="2"/><rect class="c" x="722" y="50" rx="2" ry="2"/><rect class="c" x="722" y="66" rx="2" ry="2"/><rect class="c ci" x="722" y="82" rx="2" ry="2"/><rect class="c cj" x="722" y="98" rx="2" ry="2"/><rect class="c" x="738" y="2" rx="2" ry="2"/><rect class="c" x="738" y="18" rx="2" ry="2"/><rect class="c ck" x="738" y="34" rx="2" ry="2"/><rect class="c cl" x="738" y="50" rx="2" ry="2"/><rect class="c" x="738" y="66" rx="2" ry="2"/><rect class="c" x="738" y="82" rx="2" ry="2"/><rect class="c" x="738" y="98" rx="2" ry="2"/><rect class="c" x="754" y="2" rx="2" ry="2"/><rect class="c cm" x="754" y="18" rx="2" ry="2"/><rect class="c cn" x="754" y="34" rx="2" ry="2"/><rect class="c co" x="754" y="50" rx="2" ry="2"/><rect class="c cp" x="754" y="66" rx="2" ry="2"/><rect class="c cq" x="754" y="82" rx="2" ry="2"/><rect class="c cr" x="754" y="98" rx="2" ry="2"/><rect class="c cs" x="770" y="2" rx="2" ry="2"/><rect class="c ct" x="770" y="18" rx="2" ry="2"/><rect class="c cu" x="770" y="34" rx="2" ry="2"/><rect class="c cv" x="770" y="50" rx="2" ry="2"/><rect class="c cw" x="770" y="66" rx="2" ry="2"/><rect class="c cx" x="770" y="82" rx="2" ry="2"/><rect class="c cy" x="770" y="98" rx="2" ry="2"/><rect class="c cz" x="786" y="2" rx="2" ry="2"/><rect class="c c10" x="786" y="18" rx="2" ry="2"/><rect class="c c11" x="786" y="34" rx="2" ry="2"/><rect class="c c12" x="786" y="50" rx="2" ry="2"/><rect class="c c13" x="786" y="66" rx="2" ry="2"/><rect class="c c14" x="786" y="82" rx="2" ry="2"/><rect class="c c15" x="786" y="98" rx="2" ry="2"/><rect class="c c16" x="802" y="2" rx="2" ry="2"/><rect class="c c17" x="802" y="18" rx="2" ry="2"/><rect class="c c18" x="802" y="34" rx="2" ry="2"/><rect class="c c19" x="802" y="50" rx="2" ry="2"/><rect class="c c1a" x="802" y="66" rx="2" ry="2"/><rect class="c c1b" x="802" y="82" rx="2" ry="2"/><rect class="c c1c" x="802" y="98" rx="2" ry="2"/><rect class="c c1d" x="818" y="2" rx="2" ry="2"/><rect class="c c1e" x="818" y="18" rx="2" ry="2"/><rect class="c c1f" x="818" y="34" rx="2" ry="2"/><rect class="c c1g" x="818" y="50" rx="2" ry="2"/><rect class="c c1h" x="818" y="66" rx="2" ry="2"/><rect class="c c1i" x="818" y="82" rx="2" ry="2"/><rect class="c c1j" x="818" y="98" rx="2" ry="2"/><rect class="c c1k" x="834" y="2" rx="2" ry="2"/><rect class="u u0" height="12" width="327.9" x="0.0" y="144"/><rect class="u u1" height="12" width="30.4" x="327.3" y="144"/><rect class="u u2" height="12" width="15.5" x="357.1" y="144"/><rect class="u u3" height="12" width="342.8" x="371.9" y="144"/><rect class="u u4" height="12" width="75.0" x="714.1" y="144"/><rect class="u u5" height="12" width="60.1" x="788.5" y="144"/><rect class="s s0" x="0.8" y="0.8" width="14.4" height="14.4" rx="4.5" ry="4.5"/><rect class="s s1" x="1.8" y="1.8" width="12.3" height="12.3" rx="4.1" ry="4.1"/><rect class="s s2" x="2.6" y="2.6" width="10.8" height="10.8" rx="3.6" ry="3.6"/><rect class="s s3" x="3.0" y="3.0" width="9.9" height="9.9" rx="3.3" ry="3.3"/></svg>