<svg viewBox="-16 -32 880 192" width="880" height="192" xmlns="http://www.w3.org/2000/svg"><desc>Generated with https://github.com/Platane/snk</desc><style>:root{--cb:#1b1f230a;--cs:764ba2;--ce:#ebedf0;--c0:#ebedf0;--c1:#9be9a8;--c2:#40c463;--c3:#30a14e;--c4:#216e39}.c{shape-rendering:geometricPrecision;fill:var(--ce);stroke-width:1px;stroke:var(--cb);animation:none 30100ms linear infinite;width:12px;height:12px}@keyframes c0{54.14%{fill:var(--c2)}54.16%,100%{fill:var(--ce)}}.c.c0{fill:var(--c2);animation-name:c0}@keyframes c1{33.21%{fill:var(--c1)}33.23%,100%{fill:var(--ce)}}.c.c1{fill:var(--c1);animation-name:c1}@keyframes c2{11.62%{fill:var(--c1)}11.64%,100%{fill:var(--ce)}}.c.c2{fill:var(--c1);animation-name:c2}@keyframes c3{51.82%{fill:var(--c2)}51.84%,100%{fill:var(--ce)}}.c.c3{fill:var(--c2);animation-name:c3}@keyframes c4{11.95%{fill:var(--c1)}11.97%,100%{fill:var(--ce)}}.c.c4{fill:var(--c1);animation-name:c4}@keyframes c5{51.49%{fill:var(--c2)}51.51%,100%{fill:var(--ce)}}.c.c5{fill:var(--c2);animation-name:c5}@keyframes c6{13.61%{fill:var(--c1)}13.63%,100%{fill:var(--ce)}}.c.c6{fill:var(--c1);animation-name:c6}@keyframes c7{49.82%{fill:var(--c2)}49.84%,100%{fill:var(--ce)}}.c.c7{fill:var(--c2);animation-name:c7}@keyframes c8{73.41%{fill:var(--c3)}73.43%,100%{fill:var(--ce)}}.c.c8{fill:var(--c3);animation-name:c8}@keyframes c9{73.74%{fill:var(--c4)}73.76%,100%{fill:var(--ce)}}.c.c9{fill:var(--c4);animation-name:c9}@keyframes ca{74.08%{fill:var(--c4)}74.1%,100%{fill:var(--ce)}}.c.ca{fill:var(--c4);animation-name:ca}@keyframes cb{16.27%{fill:var(--c1)}16.29%,100%{fill:var(--ce)}}.c.cb{fill:var(--c1);animation-name:cb}@keyframes cc{75.74%{fill:var(--c4)}75.76%,100%{fill:var(--ce)}}.c.cc{fill:var(--c4);animation-name:cc}@keyframes cd{76.07%{fill:var(--c4)}76.09%,100%{fill:var(--ce)}}.c.cd{fill:var(--c4);animation-name:cd}@keyframes ce{43.51%{fill:var(--c2)}43.53%,100%{fill:var(--ce)}}.c.ce{fill:var(--c2);animation-name:ce}@keyframes cf{83.05%{fill:var(--c4)}83.07%,100%{fill:var(--ce)}}.c.cf{fill:var(--c4);animation-name:cf}@keyframes cg{45.5%{fill:var(--c2)}45.52%,100%{fill:var(--ce)}}.c.cg{fill:var(--c2);animation-name:cg}@keyframes ch{69.76%{fill:var(--c3)}69.78%,100%{fill:var(--ce)}}.c.ch{fill:var(--c3);animation-name:ch}@keyframes ci{45.84%{fill:var(--c2)}45.86%,100%{fill:var(--ce)}}.c.ci{fill:var(--c2);animation-name:ci}@keyframes cj{77.4%{fill:var(--c4)}77.42%,100%{fill:var(--ce)}}.c.cj{fill:var(--c4);animation-name:cj}@keyframes ck{19.26%{fill:var(--c1)}19.28%,100%{fill:var(--ce)}}.c.ck{fill:var(--c1);animation-name:ck}@keyframes cl{64.11%{fill:var(--c3)}64.13%,100%{fill:var(--ce)}}.c.cl{fill:var(--c3);animation-name:cl}@keyframes cm{41.85%{fill:var(--c2)}41.87%,100%{fill:var(--ce)}}.c.cm{fill:var(--c2);animation-name:cm}@keyframes cn{41.52%{fill:var(--c1)}41.54%,100%{fill:var(--ce)}}.c.cn{fill:var(--c1);animation-name:cn}@keyframes co{64.44%{fill:var(--c3)}64.46%,100%{fill:var(--ce)}}.c.co{fill:var(--c3);animation-name:co}@keyframes cp{61.45%{fill:var(--c2)}61.47%,100%{fill:var(--ce)}}.c.cp{fill:var(--c2);animation-name:cp}@keyframes cq{78.4%{fill:var(--c4)}78.42%,100%{fill:var(--ce)}}.c.cq{fill:var(--c4);animation-name:cq}@keyframes cr{62.78%{fill:var(--c3)}62.8%,100%{fill:var(--ce)}}.c.cr{fill:var(--c3);animation-name:cr}@keyframes cs{66.44%{fill:var(--c3)}66.46%,100%{fill:var(--ce)}}.c.cs{fill:var(--c3);animation-name:cs}@keyframes ct{66.1%{fill:var(--c3)}66.12%,100%{fill:var(--ce)}}.c.ct{fill:var(--c3);animation-name:ct}@keyframes cu{65.11%{fill:var(--c3)}65.13%,100%{fill:var(--ce)}}.c.cu{fill:var(--c3);animation-name:cu}@keyframes cv{79.39%{fill:var(--c4)}79.41%,100%{fill:var(--ce)}}.c.cv{fill:var(--c4);animation-name:cv}@keyframes cw{61.78%{fill:var(--c3)}61.8%,100%{fill:var(--ce)}}.c.cw{fill:var(--c3);animation-name:cw}@keyframes cx{62.12%{fill:var(--c3)}62.14%,100%{fill:var(--ce)}}.c.cx{fill:var(--c3);animation-name:cx}@keyframes cy{62.45%{fill:var(--c3)}62.47%,100%{fill:var(--ce)}}.c.cy{fill:var(--c3);animation-name:cy}@keyframes cz{80.72%{fill:var(--c4)}80.74%,100%{fill:var(--ce)}}.c.cz{fill:var(--c4);animation-name:cz}@keyframes c10{65.77%{fill:var(--c3)}65.79%,100%{fill:var(--ce)}}.c.c10{fill:var(--c3);animation-name:c10}@keyframes c11{65.44%{fill:var(--c3)}65.46%,100%{fill:var(--ce)}}.c.c11{fill:var(--c3);animation-name:c11}@keyframes c12{23.91%{fill:var(--c1)}23.93%,100%{fill:var(--ce)}}.c.c12{fill:var(--c1);animation-name:c12}.u{transform-origin:0 0;transform:scale(0,1);animation:none linear 30100ms infinite}@keyframes u0{11.62%{transform:scale(0.000,1)}11.64%,11.95%{transform:scale(0.125,1)}11.97%,13.61%{transform:scale(0.250,1)}13.63%,16.27%{transform:scale(0.375,1)}16.29%,19.26%{transform:scale(0.500,1)}19.28%,23.91%{transform:scale(0.625,1)}23.93%,33.21%{transform:scale(0.750,1)}33.23%,41.52%{transform:scale(0.875,1)}41.54%,100%{transform:scale(1.000,1)}}.u.u0{fill:var(--c1);animation-name:u0;transform-origin:0.0px 0}@keyframes u1{41.85%{transform:scale(0.000,1)}41.87%,43.51%{transform:scale(0.111,1)}43.53%,45.5%{transform:scale(0.222,1)}45.52%,45.84%{transform:scale(0.333,1)}45.86%,49.82%{transform:scale(0.444,1)}49.84%,51.49%{transform:scale(0.556,1)}51.51%,51.82%{transform:scale(0.667,1)}51.84%,54.14%{transform:scale(0.778,1)}54.16%,61.45%{transform:scale(0.889,1)}61.47%,100%{transform:scale(1.000,1)}}.u.u1{fill:var(--c2);animation-name:u1;transform-origin:173.9px 0}@keyframes u2{61.78%{transform:scale(0.000,1)}61.8%,62.12%{transform:scale(0.077,1)}62.14%,62.45%{transform:scale(0.154,1)}62.47%,62.78%{transform:scale(0.231,1)}62.8%,64.11%{transform:scale(0.308,1)}64.13%,64.44%{transform:scale(0.385,1)}64.46%,65.11%{transform:scale(0.462,1)}65.13%,65.44%{transform:scale(0.538,1)}65.46%,65.77%{transform:scale(0.615,1)}65.79%,66.1%{transform:scale(0.692,1)}66.12%,66.44%{transform:scale(0.769,1)}66.46%,69.76%{transform:scale(0.846,1)}69.78%,73.41%{transform:scale(0.923,1)}73.43%,100%{transform:scale(1.000,1)}}.u.u2{fill:var(--c3);animation-name:u2;transform-origin:369.6px 0}@keyframes u3{73.74%{transform:scale(0.000,1)}73.76%,74.08%{transform:scale(0.111,1)}74.1%,75.74%{transform:scale(0.222,1)}75.76%,76.07%{transform:scale(0.333,1)}76.09%,77.4%{transform:scale(0.444,1)}77.42%,78.4%{transform:scale(0.556,1)}78.42%,79.39%{transform:scale(0.667,1)}79.41%,80.72%{transform:scale(0.778,1)}80.74%,83.05%{transform:scale(0.889,1)}83.07%,100%{transform:scale(1.000,1)}}.u.u3{fill:var(--c4);animation-name:u3;transform-origin:652.3px 0}.s{shape-rendering:geometricPrecision;fill:var(--cs);animation:none linear 30100ms infinite}@keyframes s0{0%,99.67%{transform:translate(0px,-16px)}0.33%{transform:translate(0px,0px)}11.3%{transform:translate(528px,0px)}11.63%{transform:translate(528px,16px)}12.96%{transform:translate(592px,16px)}13.62%{transform:translate(592px,48px)}14.29%,36.88%{transform:translate(624px,48px)}14.95%{transform:translate(624px,16px)}15.95%{transform:translate(672px,16px)}16.28%{transform:translate(672px,0px)}18.6%,20.6%{transform:translate(784px,0px)}19.27%{transform:translate(784px,32px)}19.6%,40.86%{transform:translate(768px,32px)}19.93%{transform:translate(768px,16px)}20.27%{transform:translate(784px,16px)}20.93%{transform:translate(800px,0px)}21.26%{transform:translate(800px,-16px)}22.26%{transform:translate(848px,-16px)}23.59%{transform:translate(848px,48px)}23.92%,79.73%{transform:translate(832px,48px)}25.25%{transform:translate(832px,112px)}28.24%{transform:translate(688px,112px)}28.9%{transform:translate(688px,80px)}33.22%,54.49%{transform:translate(480px,80px)}33.89%{transform:translate(480px,48px)}37.21%{transform:translate(624px,64px)}38.21%{transform:translate(672px,64px)}38.54%{transform:translate(672px,48px)}40.53%,68.44%{transform:translate(768px,48px)}41.53%,64.78%{transform:translate(800px,32px)}41.86%{transform:translate(800px,16px)}43.52%{transform:translate(720px,16px)}43.85%{transform:translate(720px,32px)}44.19%{transform:translate(736px,32px)}44.52%{transform:translate(736px,48px)}44.85%,68.77%{transform:translate(752px,48px)}45.51%{transform:translate(752px,80px)}45.85%{transform:translate(768px,80px)}46.18%{transform:translate(768px,64px)}49.83%{transform:translate(592px,64px)}50.5%{transform:translate(592px,32px)}53.16%{transform:translate(464px,32px)}54.15%{transform:translate(464px,80px)}54.82%{transform:translate(480px,64px)}61.79%{transform:translate(816px,64px)}62.46%{transform:translate(816px,96px)}63.12%{transform:translate(784px,96px)}64.12%{transform:translate(784px,48px)}64.45%{transform:translate(800px,48px)}65.45%{transform:translate(832px,32px)}65.78%{transform:translate(832px,16px)}66.11%{transform:translate(816px,16px)}66.45%{transform:translate(816px,0px)}67.44%{transform:translate(768px,0px)}69.77%{transform:translate(752px,96px)}70.1%{transform:translate(736px,96px)}70.76%{transform:translate(736px,64px)}72.76%{transform:translate(640px,64px)}73.42%{transform:translate(640px,32px)}73.75%{transform:translate(656px,32px)}74.09%{transform:translate(656px,48px)}75.08%{transform:translate(704px,48px)}76.08%{transform:translate(704px,96px)}78.07%{transform:translate(800px,96px)}78.41%{transform:translate(800px,80px)}78.74%{transform:translate(816px,80px)}79.4%{transform:translate(816px,48px)}80.73%{transform:translate(832px,0px)}82.39%{transform:translate(752px,0px)}83.06%{transform:translate(752px,32px)}97.34%{transform:translate(64px,32px)}98.34%{transform:translate(64px,-16px)}}.s.s0{transform:translate(0px,-16px);animation-name:s0}@keyframes s1{0%,99.67%{transform:translate(16px,-16px)}0.33%{transform:translate(0px,-16px)}0.66%{transform:translate(0px,0px)}11.63%{transform:translate(528px,0px)}11.96%{transform:translate(528px,16px)}13.29%{transform:translate(592px,16px)}13.95%{transform:translate(592px,48px)}14.62%,37.21%{transform:translate(624px,48px)}15.28%{transform:translate(624px,16px)}16.28%{transform:translate(672px,16px)}16.61%{transform:translate(672px,0px)}18.94%,20.93%{transform:translate(784px,0px)}19.6%{transform:translate(784px,32px)}19.93%,41.2%{transform:translate(768px,32px)}20.27%{transform:translate(768px,16px)}20.6%{transform:translate(784px,16px)}21.26%{transform:translate(800px,0px)}21.59%{transform:translate(800px,-16px)}22.59%{transform:translate(848px,-16px)}23.92%{transform:translate(848px,48px)}24.25%,80.07%{transform:translate(832px,48px)}25.58%{transform:translate(832px,112px)}28.57%{transform:translate(688px,112px)}29.24%{transform:translate(688px,80px)}33.55%,54.82%{transform:translate(480px,80px)}34.22%{transform:translate(480px,48px)}37.54%{transform:translate(624px,64px)}38.54%{transform:translate(672px,64px)}38.87%{transform:translate(672px,48px)}40.86%,68.77%{transform:translate(768px,48px)}41.86%,65.12%{transform:translate(800px,32px)}42.19%{transform:translate(800px,16px)}43.85%{transform:translate(720px,16px)}44.19%{transform:translate(720px,32px)}44.52%{transform:translate(736px,32px)}44.85%{transform:translate(736px,48px)}45.18%,69.1%{transform:translate(752px,48px)}45.85%{transform:translate(752px,80px)}46.18%{transform:translate(768px,80px)}46.51%{transform:translate(768px,64px)}50.17%{transform:translate(592px,64px)}50.83%{transform:translate(592px,32px)}53.49%{transform:translate(464px,32px)}54.49%{transform:translate(464px,80px)}55.15%{transform:translate(480px,64px)}62.13%{transform:translate(816px,64px)}62.79%{transform:translate(816px,96px)}63.46%{transform:translate(784px,96px)}64.45%{transform:translate(784px,48px)}64.78%{transform:translate(800px,48px)}65.78%{transform:translate(832px,32px)}66.11%{transform:translate(832px,16px)}66.45%{transform:translate(816px,16px)}66.78%{transform:translate(816px,0px)}67.77%{transform:translate(768px,0px)}70.1%{transform:translate(752px,96px)}70.43%{transform:translate(736px,96px)}71.1%{transform:translate(736px,64px)}73.09%{transform:translate(640px,64px)}73.75%{transform:translate(640px,32px)}74.09%{transform:translate(656px,32px)}74.42%{transform:translate(656px,48px)}75.42%{transform:translate(704px,48px)}76.41%{transform:translate(704px,96px)}78.41%{transform:translate(800px,96px)}78.74%{transform:translate(800px,80px)}79.07%{transform:translate(816px,80px)}79.73%{transform:translate(816px,48px)}81.06%{transform:translate(832px,0px)}82.72%{transform:translate(752px,0px)}83.39%{transform:translate(752px,32px)}97.67%{transform:translate(64px,32px)}98.67%{transform:translate(64px,-16px)}}.s.s1{transform:translate(16px,-16px);animation-name:s1}@keyframes s2{0%,99.67%{transform:translate(32px,-16px)}0.66%{transform:translate(0px,-16px)}1%{transform:translate(0px,0px)}11.96%{transform:translate(528px,0px)}12.29%{transform:translate(528px,16px)}13.62%{transform:translate(592px,16px)}14.29%{transform:translate(592px,48px)}14.95%,37.54%{transform:translate(624px,48px)}15.61%{transform:translate(624px,16px)}16.61%{transform:translate(672px,16px)}16.94%{transform:translate(672px,0px)}19.27%,21.26%{transform:translate(784px,0px)}19.93%{transform:translate(784px,32px)}20.27%,41.53%{transform:translate(768px,32px)}20.6%{transform:translate(768px,16px)}20.93%{transform:translate(784px,16px)}21.59%{transform:translate(800px,0px)}21.93%{transform:translate(800px,-16px)}22.92%{transform:translate(848px,-16px)}24.25%{transform:translate(848px,48px)}24.58%,80.4%{transform:translate(832px,48px)}25.91%{transform:translate(832px,112px)}28.9%{transform:translate(688px,112px)}29.57%{transform:translate(688px,80px)}33.89%,55.15%{transform:translate(480px,80px)}34.55%{transform:translate(480px,48px)}37.87%{transform:translate(624px,64px)}38.87%{transform:translate(672px,64px)}39.2%{transform:translate(672px,48px)}41.2%,69.1%{transform:translate(768px,48px)}42.19%,65.45%{transform:translate(800px,32px)}42.52%{transform:translate(800px,16px)}44.19%{transform:translate(720px,16px)}44.52%{transform:translate(720px,32px)}44.85%{transform:translate(736px,32px)}45.18%{transform:translate(736px,48px)}45.51%,69.44%{transform:translate(752px,48px)}46.18%{transform:translate(752px,80px)}46.51%{transform:translate(768px,80px)}46.84%{transform:translate(768px,64px)}50.5%{transform:translate(592px,64px)}51.16%{transform:translate(592px,32px)}53.82%{transform:translate(464px,32px)}54.82%{transform:translate(464px,80px)}55.48%{transform:translate(480px,64px)}62.46%{transform:translate(816px,64px)}63.12%{transform:translate(816px,96px)}63.79%{transform:translate(784px,96px)}64.78%{transform:translate(784px,48px)}65.12%{transform:translate(800px,48px)}66.11%{transform:translate(832px,32px)}66.45%{transform:translate(832px,16px)}66.78%{transform:translate(816px,16px)}67.11%{transform:translate(816px,0px)}68.11%{transform:translate(768px,0px)}70.43%{transform:translate(752px,96px)}70.76%{transform:translate(736px,96px)}71.43%{transform:translate(736px,64px)}73.42%{transform:translate(640px,64px)}74.09%{transform:translate(640px,32px)}74.42%{transform:translate(656px,32px)}74.75%{transform:translate(656px,48px)}75.75%{transform:translate(704px,48px)}76.74%{transform:translate(704px,96px)}78.74%{transform:translate(800px,96px)}79.07%{transform:translate(800px,80px)}79.4%{transform:translate(816px,80px)}80.07%{transform:translate(816px,48px)}81.4%{transform:translate(832px,0px)}83.06%{transform:translate(752px,0px)}83.72%{transform:translate(752px,32px)}98.01%{transform:translate(64px,32px)}99%{transform:translate(64px,-16px)}}.s.s2{transform:translate(32px,-16px);animation-name:s2}@keyframes s3{0%,99.67%{transform:translate(48px,-16px)}1%{transform:translate(0px,-16px)}1.33%{transform:translate(0px,0px)}12.29%{transform:translate(528px,0px)}12.62%{transform:translate(528px,16px)}13.95%{transform:translate(592px,16px)}14.62%{transform:translate(592px,48px)}15.28%,37.87%{transform:translate(624px,48px)}15.95%{transform:translate(624px,16px)}16.94%{transform:translate(672px,16px)}17.28%{transform:translate(672px,0px)}19.6%,21.59%{transform:translate(784px,0px)}20.27%{transform:translate(784px,32px)}20.6%,41.86%{transform:translate(768px,32px)}20.93%{transform:translate(768px,16px)}21.26%{transform:translate(784px,16px)}21.93%{transform:translate(800px,0px)}22.26%{transform:translate(800px,-16px)}23.26%{transform:translate(848px,-16px)}24.58%{transform:translate(848px,48px)}24.92%,80.73%{transform:translate(832px,48px)}26.25%{transform:translate(832px,112px)}29.24%{transform:translate(688px,112px)}29.9%{transform:translate(688px,80px)}34.22%,55.48%{transform:translate(480px,80px)}34.88%{transform:translate(480px,48px)}38.21%{transform:translate(624px,64px)}39.2%{transform:translate(672px,64px)}39.53%{transform:translate(672px,48px)}41.53%,69.44%{transform:translate(768px,48px)}42.52%,65.78%{transform:translate(800px,32px)}42.86%{transform:translate(800px,16px)}44.52%{transform:translate(720px,16px)}44.85%{transform:translate(720px,32px)}45.18%{transform:translate(736px,32px)}45.51%{transform:translate(736px,48px)}45.85%,69.77%{transform:translate(752px,48px)}46.51%{transform:translate(752px,80px)}46.84%{transform:translate(768px,80px)}47.18%{transform:translate(768px,64px)}50.83%{transform:translate(592px,64px)}51.5%{transform:translate(592px,32px)}54.15%{transform:translate(464px,32px)}55.15%{transform:translate(464px,80px)}55.81%{transform:translate(480px,64px)}62.79%{transform:translate(816px,64px)}63.46%{transform:translate(816px,96px)}64.12%{transform:translate(784px,96px)}65.12%{transform:translate(784px,48px)}65.45%{transform:translate(800px,48px)}66.45%{transform:translate(832px,32px)}66.78%{transform:translate(832px,16px)}67.11%{transform:translate(816px,16px)}67.44%{transform:translate(816px,0px)}68.44%{transform:translate(768px,0px)}70.76%{transform:translate(752px,96px)}71.1%{transform:translate(736px,96px)}71.76%{transform:translate(736px,64px)}73.75%{transform:translate(640px,64px)}74.42%{transform:translate(640px,32px)}74.75%{transform:translate(656px,32px)}75.08%{transform:translate(656px,48px)}76.08%{transform:translate(704px,48px)}77.08%{transform:translate(704px,96px)}79.07%{transform:translate(800px,96px)}79.4%{transform:translate(800px,80px)}79.73%{transform:translate(816px,80px)}80.4%{transform:translate(816px,48px)}81.73%{transform:translate(832px,0px)}83.39%{transform:translate(752px,0px)}84.05%{transform:translate(752px,32px)}98.34%{transform:translate(64px,32px)}99.34%{transform:translate(64px,-16px)}}.s.s3{transform:translate(48px,-16px);animation-name:s3}</style><rect class="c" x="2" y="2" rx="2" ry="2"/><rect class="c" x="2" y="18" rx="2" ry="2"/><rect class="c" x="2" y="34" rx="2" ry="2"/><rect class="c" x="2" y="50" rx="2" ry="2"/><rect class="c" x="2" y="66" rx="2" ry="2"/><rect class="c" x="2" y="82" rx="2" ry="2"/><rect class="c" x="2" y="98" rx="2" ry="2"/><rect class="c" x="18" y="2" rx="2" ry="2"/><rect class="c" x="18" y="18" rx="2" ry="2"/><rect class="c" x="18" y="34" rx="2" ry="2"/><rect class="c" x="18" y="50" rx="2" ry="2"/><rect class="c" x="18" y="66" rx="2" ry="2"/><rect class="c" x="18" y="82" rx="2" ry="2"/><rect class="c" x="18" y="98" rx="2" ry="2"/><rect class="c" x="34" y="2" rx="2" ry="2"/><rect class="c" x="34" y="18" rx="2" ry="2"/><rect class="c" x="34" y="34" rx="2" ry="2"/><rect class="c" x="34" y="50" rx="2" ry="2"/><rect class="c" x="34" y="66" rx="2" ry="2"/><rect class="c" x="34" y="82" rx="2" ry="2"/><rect class="c" x="34" y="98" rx="2" ry="2"/><rect class="c" x="50" y="2" rx="2" ry="2"/><rect class="c" x="50" y="18" rx="2" ry="2"/><rect class="c" x="50" y="34" rx="2" ry="2"/><rect class="c" x="50" y="50" rx="2" ry="2"/><rect class="c" x="50" y="66" rx="2" ry="2"/><rect class="c" x="50" y="82" rx="2" ry="2"/><rect class="c" x="50" y="98" rx="2" ry="2"/><rect class="c" x="66" y="2" rx="2" ry="2"/><rect class="c" x="66" y="18" rx="2" ry="2"/><rect class="c" x="66" y="34" rx="2" ry="2"/><rect class="c" x="66" y="50" rx="2" ry="2"/><rect class="c" x="66" y="66" rx="2" ry="2"/><rect class="c" x="66" y="82" rx="2" ry="2"/><rect class="c" x="66" y="98" rx="2" ry="2"/><rect class="c" x="82" y="2" rx="2" ry="2"/><rect class="c" x="82" y="18" rx="2" ry="2"/><rect class="c" x="82" y="34" rx="2" ry="2"/><rect class="c" x="82" y="50" rx="2" ry="2"/><rect class="c" x="82" y="66" rx="2" ry="2"/><rect class="c" x="82" y="82" rx="2" ry="2"/><rect class="c" x="82" y="98" rx="2" ry="2"/><rect class="c" x="98" y="2" rx="2" ry="2"/><rect class="c" x="98" y="18" rx="2" ry="2"/><rect class="c" x="98" y="34" rx="2" ry="2"/><rect class="c" x="98" y="50" rx="2" ry="2"/><rect class="c" x="98" y="66" rx="2" ry="2"/><rect class="c" x="98" y="82" rx="2" ry="2"/><rect class="c" x="98" y="98" rx="2" ry="2"/><rect class="c" x="114" y="2" rx="2" ry="2"/><rect class="c" x="114" y="18" rx="2" ry="2"/><rect class="c" x="114" y="34" rx="2" ry="2"/><rect class="c" x="114" y="50" rx="2" ry="2"/><rect class="c" x="114" y="66" rx="2" ry="2"/><rect class="c" x="114" y="82" rx="2" ry="2"/><rect class="c" x="114" y="98" rx="2" ry="2"/><rect class="c" x="130" y="2" rx="2" ry="2"/><rect class="c" x="130" y="18" rx="2" ry="2"/><rect class="c" x="130" y="34" rx="2" ry="2"/><rect class="c" x="130" y="50" rx="2" ry="2"/><rect class="c" x="130" y="66" rx="2" ry="2"/><rect class="c" x="130" y="82" rx="2" ry="2"/><rect class="c" x="130" y="98" rx="2" ry="2"/><rect class="c" x="146" y="2" rx="2" ry="2"/><rect class="c" x="146" y="18" rx="2" ry="2"/><rect class="c" x="146" y="34" rx="2" ry="2"/><rect class="c" x="146" y="50" rx="2" ry="2"/><rect class="c" x="146" y="66" rx="2" ry="2"/><rect class="c" x="146" y="82" rx="2" ry="2"/><rect class="c" x="146" y="98" rx="2" ry="2"/><rect class="c" x="162" y="2" rx="2" ry="2"/><rect class="c" x="162" y="18" rx="2" ry="2"/><rect class="c" x="162" y="34" rx="2" ry="2"/><rect class="c" x="162" y="50" rx="2" ry="2"/><rect class="c" x="162" y="66" rx="2" ry="2"/><rect class="c" x="162" y="82" rx="2" ry="2"/><rect class="c" x="162" y="98" rx="2" ry="2"/><rect class="c" x="178" y="2" rx="2" ry="2"/><rect class="c" x="178" y="18" rx="2" ry="2"/><rect class="c" x="178" y="34" rx="2" ry="2"/><rect class="c" x="178" y="50" rx="2" ry="2"/><rect class="c" x="178" y="66" rx="2" ry="2"/><rect class="c" x="178" y="82" rx="2" ry="2"/><rect class="c" x="178" y="98" rx="2" ry="2"/><rect class="c" x="194" y="2" rx="2" ry="2"/><rect class="c" x="194" y="18" rx="2" ry="2"/><rect class="c" x="194" y="34" rx="2" ry="2"/><rect class="c" x="194" y="50" rx="2" ry="2"/><rect class="c" x="194" y="66" rx="2" ry="2"/><rect class="c" x="194" y="82" rx="2" ry="2"/><rect class="c" x="194" y="98" rx="2" ry="2"/><rect class="c" x="210" y="2" rx="2" ry="2"/><rect class="c" x="210" y="18" rx="2" ry="2"/><rect class="c" x="210" y="34" rx="2" ry="2"/><rect class="c" x="210" y="50" rx="2" ry="2"/><rect class="c" x="210" y="66" rx="2" ry="2"/><rect class="c" x="210" y="82" rx="2" ry="2"/><rect class="c" x="210" y="98" rx="2" ry="2"/><rect class="c" x="226" y="2" rx="2" ry="2"/><rect class="c" x="226" y="18" rx="2" ry="2"/><rect class="c" x="226" y="34" rx="2" ry="2"/><rect class="c" x="226" y="50" rx="2" ry="2"/><rect class="c" x="226" y="66" rx="2" ry="2"/><rect class="c" x="226" y="82" rx="2" ry="2"/><rect class="c" x="226" y="98" rx="2" ry="2"/><rect class="c" x="242" y="2" rx="2" ry="2"/><rect class="c" x="242" y="18" rx="2" ry="2"/><rect class="c" x="242" y="34" rx="2" ry="2"/><rect class="c" x="242" y="50" rx="2" ry="2"/><rect class="c" x="242" y="66" rx="2" ry="2"/><rect class="c" x="242" y="82" rx="2" ry="2"/><rect class="c" x="242" y="98" rx="2" ry="2"/><rect class="c" x="258" y="2" rx="2" ry="2"/><rect class="c" x="258" y="18" rx="2" ry="2"/><rect class="c" x="258" y="34" rx="2" ry="2"/><rect class="c" x="258" y="50" rx="2" ry="2"/><rect class="c" x="258" y="66" rx="2" ry="2"/><rect class="c" x="258" y="82" rx="2" ry="2"/><rect class="c" x="258" y="98" rx="2" ry="2"/><rect class="c" x="274" y="2" rx="2" ry="2"/><rect class="c" x="274" y="18" rx="2" ry="2"/><rect class="c" x="274" y="34" rx="2" ry="2"/><rect class="c" x="274" y="50" rx="2" ry="2"/><rect class="c" x="274" y="66" rx="2" ry="2"/><rect class="c" x="274" y="82" rx="2" ry="2"/><rect class="c" x="274" y="98" rx="2" ry="2"/><rect class="c" x="290" y="2" rx="2" ry="2"/><rect class="c" x="290" y="18" rx="2" ry="2"/><rect class="c" x="290" y="34" rx="2" ry="2"/><rect class="c" x="290" y="50" rx="2" ry="2"/><rect class="c" x="290" y="66" rx="2" ry="2"/><rect class="c" x="290" y="82" rx="2" ry="2"/><rect class="c" x="290" y="98" rx="2" ry="2"/><rect class="c" x="306" y="2" rx="2" ry="2"/><rect class="c" x="306" y="18" rx="2" ry="2"/><rect class="c" x="306" y="34" rx="2" ry="2"/><rect class="c" x="306" y="50" rx="2" ry="2"/><rect class="c" x="306" y="66" rx="2" ry="2"/><rect class="c" x="306" y="82" rx="2" ry="2"/><rect class="c" x="306" y="98" rx="2" ry="2"/><rect class="c" x="322" y="2" rx="2" ry="2"/><rect class="c" x="322" y="18" rx="2" ry="2"/><rect class="c" x="322" y="34" rx="2" ry="2"/><rect class="c" x="322" y="50" rx="2" ry="2"/><rect class="c" x="322" y="66" rx="2" ry="2"/><rect class="c" x="322" y="82" rx="2" ry="2"/><rect class="c" x="322" y="98" rx="2" ry="2"/><rect class="c" x="338" y="2" rx="2" ry="2"/><rect class="c" x="338" y="18" rx="2" ry="2"/><rect class="c" x="338" y="34" rx="2" ry="2"/><rect class="c" x="338" y="50" rx="2" ry="2"/><rect class="c" x="338" y="66" rx="2" ry="2"/><rect class="c" x="338" y="82" rx="2" ry="2"/><rect class="c" x="338" y="98" rx="2" ry="2"/><rect class="c" x="354" y="2" rx="2" ry="2"/><rect class="c" x="354" y="18" rx="2" ry="2"/><rect class="c" x="354" y="34" rx="2" ry="2"/><rect class="c" x="354" y="50" rx="2" ry="2"/><rect class="c" x="354" y="66" rx="2" ry="2"/><rect class="c" x="354" y="82" rx="2" ry="2"/><rect class="c" x="354" y="98" rx="2" ry="2"/><rect class="c" x="370" y="2" rx="2" ry="2"/><rect class="c" x="370" y="18" rx="2" ry="2"/><rect class="c" x="370" y="34" rx="2" ry="2"/><rect class="c" x="370" y="50" rx="2" ry="2"/><rect class="c" x="370" y="66" rx="2" ry="2"/><rect class="c" x="370" y="82" rx="2" ry="2"/><rect class="c" x="370" y="98" rx="2" ry="2"/><rect class="c" x="386" y="2" rx="2" ry="2"/><rect class="c" x="386" y="18" rx="2" ry="2"/><rect class="c" x="386" y="34" rx="2" ry="2"/><rect class="c" x="386" y="50" rx="2" ry="2"/><rect class="c" x="386" y="66" rx="2" ry="2"/><rect class="c" x="386" y="82" rx="2" ry="2"/><rect class="c" x="386" y="98" rx="2" ry="2"/><rect class="c" x="402" y="2" rx="2" ry="2"/><rect class="c" x="402" y="18" rx="2" ry="2"/><rect class="c" x="402" y="34" rx="2" ry="2"/><rect class="c" x="402" y="50" rx="2" ry="2"/><rect class="c" x="402" y="66" rx="2" ry="2"/><rect class="c" x="402" y="82" rx="2" ry="2"/><rect class="c" x="402" y="98" rx="2" ry="2"/><rect class="c" x="418" y="2" rx="2" ry="2"/><rect class="c" x="418" y="18" rx="2" ry="2"/><rect class="c" x="418" y="34" rx="2" ry="2"/><rect class="c" x="418" y="50" rx="2" ry="2"/><rect class="c" x="418" y="66" rx="2" ry="2"/><rect class="c" x="418" y="82" rx="2" ry="2"/><rect class="c" x="418" y="98" rx="2" ry="2"/><rect class="c" x="434" y="2" rx="2" ry="2"/><rect class="c" x="434" y="18" rx="2" ry="2"/><rect class="c" x="434" y="34" rx="2" ry="2"/><rect class="c" x="434" y="50" rx="2" ry="2"/><rect class="c" x="434" y="66" rx="2" ry="2"/><rect class="c" x="434" y="82" rx="2" ry="2"/><rect class="c" x="434" y="98" rx="2" ry="2"/><rect class="c" x="450" y="2" rx="2" ry="2"/><rect class="c" x="450" y="18" rx="2" ry="2"/><rect class="c" x="450" y="34" rx="2" ry="2"/><rect class="c" x="450" y="50" rx="2" ry="2"/><rect class="c" x="450" y="66" rx="2" ry="2"/><rect class="c" x="450" y="82" rx="2" ry="2"/><rect class="c" x="450" y="98" rx="2" ry="2"/><rect class="c" x="466" y="2" rx="2" ry="2"/><rect class="c" x="466" y="18" rx="2" ry="2"/><rect class="c" x="466" y="34" rx="2" ry="2"/><rect class="c" x="466" y="50" rx="2" ry="2"/><rect class="c" x="466" y="66" rx="2" ry="2"/><rect class="c c0" x="466" y="82" rx="2" ry="2"/><rect class="c" x="466" y="98" rx="2" ry="2"/><rect class="c" x="482" y="2" rx="2" ry="2"/><rect class="c" x="482" y="18" rx="2" ry="2"/><rect class="c" x="482" y="34" rx="2" ry="2"/><rect class="c" x="482" y="50" rx="2" ry="2"/><rect class="c" x="482" y="66" rx="2" ry="2"/><rect class="c c1" x="482" y="82" rx="2" ry="2"/><rect class="c" x="482" y="98" rx="2" ry="2"/><rect class="c" x="498" y="2" rx="2" ry="2"/><rect class="c" x="498" y="18" rx="2" ry="2"/><rect class="c" x="498" y="34" rx="2" ry="2"/><rect class="c" x="498" y="50" rx="2" ry="2"/><rect class="c" x="498" y="66" rx="2" ry="2"/><rect class="c" x="498" y="82" rx="2" ry="2"/><rect class="c" x="498" y="98" rx="2" ry="2"/><rect class="c" x="514" y="2" rx="2" ry="2"/><rect class="c" x="514" y="18" rx="2" ry="2"/><rect class="c" x="514" y="34" rx="2" ry="2"/><rect class="c" x="514" y="50" rx="2" ry="2"/><rect class="c" x="514" y="66" rx="2" ry="2"/><rect class="c" x="514" y="82" rx="2" ry="2"/><rect class="c" x="514" y="98" rx="2" ry="2"/><rect class="c" x="530" y="2" rx="2" ry="2"/><rect class="c c2" x="530" y="18" rx="2" ry="2"/><rect class="c c3" x="530" y="34" rx="2" ry="2"/><rect class="c" x="530" y="50" rx="2" ry="2"/><rect class="c" x="530" y="66" rx="2" ry="2"/><rect class="c" x="530" y="82" rx="2" ry="2"/><rect class="c" x="530" y="98" rx="2" ry="2"/><rect class="c" x="546" y="2" rx="2" ry="2"/><rect class="c c4" x="546" y="18" rx="2" ry="2"/><rect class="c c5" x="546" y="34" rx="2" ry="2"/><rect class="c" x="546" y="50" rx="2" ry="2"/><rect class="c" x="546" y="66" rx="2" ry="2"/><rect class="c" x="546" y="82" rx="2" ry="2"/><rect class="c" x="546" y="98" rx="2" ry="2"/><rect class="c" x="562" y="2" rx="2" ry="2"/><rect class="c" x="562" y="18" rx="2" ry="2"/><rect class="c" x="562" y="34" rx="2" ry="2"/><rect class="c" x="562" y="50" rx="2" ry="2"/><rect class="c" x="562" y="66" rx="2" ry="2"/><rect class="c" x="562" y="82" rx="2" ry="2"/><rect class="c" x="562" y="98" rx="2" ry="2"/><rect class="c" x="578" y="2" rx="2" ry="2"/><rect class="c" x="578" y="18" rx="2" ry="2"/><rect class="c" x="578" y="34" rx="2" ry="2"/><rect class="c" x="578" y="50" rx="2" ry="2"/><rect class="c" x="578" y="66" rx="2" ry="2"/><rect class="c" x="578" y="82" rx="2" ry="2"/><rect class="c" x="578" y="98" rx="2" ry="2"/><rect class="c" x="594" y="2" rx="2" ry="2"/><rect class="c" x="594" y="18" rx="2" ry="2"/><rect class="c" x="594" y="34" rx="2" ry="2"/><rect class="c c6" x="594" y="50" rx="2" ry="2"/><rect class="c c7" x="594" y="66" rx="2" ry="2"/><rect class="c" x="594" y="82" rx="2" ry="2"/><rect class="c" x="594" y="98" rx="2" ry="2"/><rect class="c" x="610" y="2" rx="2" ry="2"/><rect class="c" x="610" y="18" rx="2" ry="2"/><rect class="c" x="610" y="34" rx="2" ry="2"/><rect class="c" x="610" y="50" rx="2" ry="2"/><rect class="c" x="610" y="66" rx="2" ry="2"/><rect class="c" x="610" y="82" rx="2" ry="2"/><rect class="c" x="610" y="98" rx="2" ry="2"/><rect class="c" x="626" y="2" rx="2" ry="2"/><rect class="c" x="626" y="18" rx="2" ry="2"/><rect class="c" x="626" y="34" rx="2" ry="2"/><rect class="c" x="626" y="50" rx="2" ry="2"/><rect class="c" x="626" y="66" rx="2" ry="2"/><rect class="c" x="626" y="82" rx="2" ry="2"/><rect class="c" x="626" y="98" rx="2" ry="2"/><rect class="c" x="642" y="2" rx="2" ry="2"/><rect class="c" x="642" y="18" rx="2" ry="2"/><rect class="c c8" x="642" y="34" rx="2" ry="2"/><rect class="c" x="642" y="50" rx="2" ry="2"/><rect class="c" x="642" y="66" rx="2" ry="2"/><rect class="c" x="642" y="82" rx="2" ry="2"/><rect class="c" x="642" y="98" rx="2" ry="2"/><rect class="c" x="658" y="2" rx="2" ry="2"/><rect class="c" x="658" y="18" rx="2" ry="2"/><rect class="c c9" x="658" y="34" rx="2" ry="2"/><rect class="c ca" x="658" y="50" rx="2" ry="2"/><rect class="c" x="658" y="66" rx="2" ry="2"/><rect class="c" x="658" y="82" rx="2" ry="2"/><rect class="c" x="658" y="98" rx="2" ry="2"/><rect class="c cb" x="674" y="2" rx="2" ry="2"/><rect class="c" x="674" y="18" rx="2" ry="2"/><rect class="c" x="674" y="34" rx="2" ry="2"/><rect class="c" x="674" y="50" rx="2" ry="2"/><rect class="c" x="674" y="66" rx="2" ry="2"/><rect class="c" x="674" y="82" rx="2" ry="2"/><rect class="c" x="674" y="98" rx="2" ry="2"/><rect class="c" x="690" y="2" rx="2" ry="2"/><rect class="c" x="690" y="18" rx="2" ry="2"/><rect class="c" x="690" y="34" rx="2" ry="2"/><rect class="c" x="690" y="50" rx="2" ry="2"/><rect class="c" x="690" y="66" rx="2" ry="2"/><rect class="c" x="690" y="82" rx="2" ry="2"/><rect class="c" x="690" y="98" rx="2" ry="2"/><rect class="c" x="706" y="2" rx="2" ry="2"/><rect class="c" x="706" y="18" rx="2" ry="2"/><rect class="c" x="706" y="34" rx="2" ry="2"/><rect class="c" x="706" y="50" rx="2" ry="2"/><rect class="c" x="706" y="66" rx="2" ry="2"/><rect class="c cc" x="706" y="82" rx="2" ry="2"/><rect class="c cd" x="706" y="98" rx="2" ry="2"/><rect class="c" x="722" y="2" rx="2" ry="2"/><rect class="c ce" x="722" y="18" rx="2" ry="2"/><rect class="c" x="722" y="34" rx="2" ry="2"/><rect class="c" x="722" y="50" rx="2" ry="2"/><rect class="c" x="722" y="66" rx="2" ry="2"/><rect class="c" x="722" y="82" rx="2" ry="2"/><rect class="c" x="722" y="98" rx="2" ry="2"/><rect class="c" x="738" y="2" rx="2" ry="2"/><rect class="c" x="738" y="18" rx="2" ry="2"/><rect class="c" x="738" y="34" rx="2" ry="2"/><rect class="c" x="738" y="50" rx="2" ry="2"/><rect class="c" x="738" y="66" rx="2" ry="2"/><rect class="c" x="738" y="82" rx="2" ry="2"/><rect class="c" x="738" y="98" rx="2" ry="2"/><rect class="c" x="754" y="2" rx="2" ry="2"/><rect class="c" x="754" y="18" rx="2" ry="2"/><rect class="c cf" x="754" y="34" rx="2" ry="2"/><rect class="c" x="754" y="50" rx="2" ry="2"/><rect class="c" x="754" y="66" rx="2" ry="2"/><rect class="c cg" x="754" y="82" rx="2" ry="2"/><rect class="c ch" x="754" y="98" rx="2" ry="2"/><rect class="c" x="770" y="2" rx="2" ry="2"/><rect class="c" x="770" y="18" rx="2" ry="2"/><rect class="c" x="770" y="34" rx="2" ry="2"/><rect class="c" x="770" y="50" rx="2" ry="2"/><rect class="c" x="770" y="66" rx="2" ry="2"/><rect class="c ci" x="770" y="82" rx="2" ry="2"/><rect class="c cj" x="770" y="98" rx="2" ry="2"/><rect class="c" x="786" y="2" rx="2" ry="2"/><rect class="c" x="786" y="18" rx="2" ry="2"/><rect class="c ck" x="786" y="34" rx="2" ry="2"/><rect class="c cl" x="786" y="50" rx="2" ry="2"/><rect class="c" x="786" y="66" rx="2" ry="2"/><rect class="c" x="786" y="82" rx="2" ry="2"/><rect class="c" x="786" y="98" rx="2" ry="2"/><rect class="c" x="802" y="2" rx="2" ry="2"/><rect class="c cm" x="802" y="18" rx="2" ry="2"/><rect class="c cn" x="802" y="34" rx="2" ry="2"/><rect class="c co" x="802" y="50" rx="2" ry="2"/><rect class="c cp" x="802" y="66" rx="2" ry="2"/><rect class="c cq" x="802" y="82" rx="2" ry="2"/><rect class="c cr" x="802" y="98" rx="2" ry="2"/><rect class="c cs" x="818" y="2" rx="2" ry="2"/><rect class="c ct" x="818" y="18" rx="2" ry="2"/><rect class="c cu" x="818" y="34" rx="2" ry="2"/><rect class="c cv" x="818" y="50" rx="2" ry="2"/><rect class="c cw" x="818" y="66" rx="2" ry="2"/><rect class="c cx" x="818" y="82" rx="2" ry="2"/><rect class="c cy" x="818" y="98" rx="2" ry="2"/><rect class="c cz" x="834" y="2" rx="2" ry="2"/><rect class="c c10" x="834" y="18" rx="2" ry="2"/><rect class="c c11" x="834" y="34" rx="2" ry="2"/><rect class="c c12" x="834" y="50" rx="2" ry="2"/><rect class="u u0" height="12" width="174.5" x="0.0" y="144"/><rect class="u u1" height="12" width="196.3" x="173.9" y="144"/><rect class="u u2" height="12" width="283.3" x="369.6" y="144"/><rect class="u u3" height="12" width="196.3" x="652.3" y="144"/><rect class="s s0" x="0.8" y="0.8" width="14.4" height="14.4" rx="4.5" ry="4.5"/><rect class="s s1" x="1.8" y="1.8" width="12.3" height="12.3" rx="4.1" ry="4.1"/><rect class="s s2" x="2.6" y="2.6" width="10.8" height="10.8" rx="3.6" ry="3.6"/><rect class="s s3" x="3.0" y="3.0" width="9.9" height="9.9" rx="3.3" ry="3.3"/></svg>