<svg viewBox="-16 -32 880 192" width="880" height="192" xmlns="http://www.w3.org/2000/svg"><desc>Generated with https://github.com/Platane/snk</desc><style>:root{--cb:#1b1f230a;--cs:764ba2;--ce:#ebedf0;--c0:#ebedf0;--c1:#9be9a8;--c2:#40c463;--c3:#30a14e;--c4:#216e39}.c{shape-rendering:geometricPrecision;fill:var(--ce);stroke-width:1px;stroke:var(--cb);animation:none 29900ms linear infinite;width:12px;height:12px}@keyframes c0{15.71%{fill:var(--c1)}15.73%,100%{fill:var(--ce)}}.c.c0{fill:var(--c1);animation-name:c0}@keyframes c1{15.37%{fill:var(--c1)}15.39%,100%{fill:var(--ce)}}.c.c1{fill:var(--c1);animation-name:c1}@keyframes c2{9.69%{fill:var(--c1)}9.71%,100%{fill:var(--ce)}}.c.c2{fill:var(--c1);animation-name:c2}@keyframes c3{10.69%{fill:var(--c1)}10.71%,100%{fill:var(--ce)}}.c.c3{fill:var(--c1);animation-name:c3}@keyframes c4{10.02%{fill:var(--c1)}10.04%,100%{fill:var(--ce)}}.c.c4{fill:var(--c1);animation-name:c4}@keyframes c5{10.36%{fill:var(--c1)}10.38%,100%{fill:var(--ce)}}.c.c5{fill:var(--c1);animation-name:c5}@keyframes c6{12.36%{fill:var(--c1)}12.38%,100%{fill:var(--ce)}}.c.c6{fill:var(--c1);animation-name:c6}@keyframes c7{12.7%{fill:var(--c1)}12.72%,100%{fill:var(--ce)}}.c.c7{fill:var(--c1);animation-name:c7}@keyframes c8{71.9%{fill:var(--c2)}71.92%,100%{fill:var(--ce)}}.c.c8{fill:var(--c2);animation-name:c8}@keyframes c9{71.56%{fill:var(--c2)}71.58%,100%{fill:var(--ce)}}.c.c9{fill:var(--c2);animation-name:c9}@keyframes ca{86.61%{fill:var(--c4)}86.63%,100%{fill:var(--ce)}}.c.ca{fill:var(--c4);animation-name:ca}@keyframes cb{21.73%{fill:var(--c1)}21.75%,100%{fill:var(--ce)}}.c.cb{fill:var(--c1);animation-name:cb}@keyframes cc{74.24%{fill:var(--c3)}74.26%,100%{fill:var(--ce)}}.c.cc{fill:var(--c3);animation-name:cc}@keyframes cd{69.22%{fill:var(--c2)}69.24%,100%{fill:var(--ce)}}.c.cd{fill:var(--c2);animation-name:cd}@keyframes ce{23.07%{fill:var(--c1)}23.09%,100%{fill:var(--ce)}}.c.ce{fill:var(--c1);animation-name:ce}@keyframes cf{62.87%{fill:var(--c2)}62.89%,100%{fill:var(--ce)}}.c.cf{fill:var(--c2);animation-name:cf}@keyframes cg{27.08%{fill:var(--c1)}27.1%,100%{fill:var(--ce)}}.c.cg{fill:var(--c1);animation-name:cg}@keyframes ch{64.2%{fill:var(--c2)}64.22%,100%{fill:var(--ce)}}.c.ch{fill:var(--c2);animation-name:ch}@keyframes ci{26.75%{fill:var(--c1)}26.77%,100%{fill:var(--ce)}}.c.ci{fill:var(--c1);animation-name:ci}@keyframes cj{64.54%{fill:var(--c2)}64.56%,100%{fill:var(--ce)}}.c.cj{fill:var(--c2);animation-name:cj}@keyframes ck{25.41%{fill:var(--c1)}25.43%,100%{fill:var(--ce)}}.c.ck{fill:var(--c1);animation-name:ck}@keyframes cl{61.86%{fill:var(--c2)}61.88%,100%{fill:var(--ce)}}.c.cl{fill:var(--c2);animation-name:cl}@keyframes cm{24.74%{fill:var(--c1)}24.76%,100%{fill:var(--ce)}}.c.cm{fill:var(--c1);animation-name:cm}@keyframes cn{25.07%{fill:var(--c1)}25.09%,100%{fill:var(--ce)}}.c.cn{fill:var(--c1);animation-name:cn}@keyframes co{48.82%{fill:var(--c2)}48.84%,100%{fill:var(--ce)}}.c.co{fill:var(--c2);animation-name:co}@keyframes cp{48.48%{fill:var(--c1)}48.5%,100%{fill:var(--ce)}}.c.cp{fill:var(--c1);animation-name:cp}@keyframes cq{82.93%{fill:var(--c4)}82.95%,100%{fill:var(--ce)}}.c.cq{fill:var(--c4);animation-name:cq}@keyframes cr{65.21%{fill:var(--c2)}65.23%,100%{fill:var(--ce)}}.c.cr{fill:var(--c2);animation-name:cr}@keyframes cs{58.18%{fill:var(--c2)}58.2%,100%{fill:var(--ce)}}.c.cs{fill:var(--c2);animation-name:cs}@keyframes ct{57.85%{fill:var(--c2)}57.87%,100%{fill:var(--ce)}}.c.ct{fill:var(--c2);animation-name:ct}@keyframes cu{59.52%{fill:var(--c2)}59.54%,100%{fill:var(--ce)}}.c.cu{fill:var(--c2);animation-name:cu}@keyframes cv{77.25%{fill:var(--c3)}77.27%,100%{fill:var(--ce)}}.c.cv{fill:var(--c3);animation-name:cv}@keyframes cw{51.5%{fill:var(--c2)}51.52%,100%{fill:var(--ce)}}.c.cw{fill:var(--c2);animation-name:cw}@keyframes cx{66.55%{fill:var(--c2)}66.57%,100%{fill:var(--ce)}}.c.cx{fill:var(--c2);animation-name:cx}@keyframes cy{65.54%{fill:var(--c2)}65.56%,100%{fill:var(--ce)}}.c.cy{fill:var(--c2);animation-name:cy}@keyframes cz{79.25%{fill:var(--c3)}79.27%,100%{fill:var(--ce)}}.c.cz{fill:var(--c3);animation-name:cz}@keyframes c10{57.52%{fill:var(--c2)}57.54%,100%{fill:var(--ce)}}.c.c10{fill:var(--c2);animation-name:c10}@keyframes c11{59.86%{fill:var(--c2)}59.88%,100%{fill:var(--ce)}}.c.c11{fill:var(--c2);animation-name:c11}@keyframes c12{77.58%{fill:var(--c3)}77.6%,100%{fill:var(--ce)}}.c.c12{fill:var(--c3);animation-name:c12}@keyframes c13{51.83%{fill:var(--c1)}51.85%,100%{fill:var(--ce)}}.c.c13{fill:var(--c1);animation-name:c13}@keyframes c14{52.16%{fill:var(--c2)}52.18%,100%{fill:var(--ce)}}.c.c14{fill:var(--c2);animation-name:c14}@keyframes c15{65.88%{fill:var(--c2)}65.9%,100%{fill:var(--ce)}}.c.c15{fill:var(--c2);animation-name:c15}@keyframes c16{56.18%{fill:var(--c2)}56.2%,100%{fill:var(--ce)}}.c.c16{fill:var(--c2);animation-name:c16}@keyframes c17{55.84%{fill:var(--c2)}55.86%,100%{fill:var(--ce)}}.c.c17{fill:var(--c2);animation-name:c17}@keyframes c18{55.51%{fill:var(--c2)}55.53%,100%{fill:var(--ce)}}.c.c18{fill:var(--c2);animation-name:c18}@keyframes c19{77.92%{fill:var(--c3)}77.94%,100%{fill:var(--ce)}}.c.c19{fill:var(--c3);animation-name:c19}@keyframes c1a{81.6%{fill:var(--c4)}81.62%,100%{fill:var(--ce)}}.c.c1a{fill:var(--c4);animation-name:c1a}@keyframes c1b{52.5%{fill:var(--c2)}52.52%,100%{fill:var(--ce)}}.c.c1b{fill:var(--c2);animation-name:c1b}@keyframes c1c{30.76%{fill:var(--c1)}30.78%,100%{fill:var(--ce)}}.c.c1c{fill:var(--c1);animation-name:c1c}@keyframes c1d{56.51%{fill:var(--c2)}56.53%,100%{fill:var(--ce)}}.c.c1d{fill:var(--c2);animation-name:c1d}@keyframes c1e{42.8%{fill:var(--c1)}42.82%,100%{fill:var(--ce)}}.c.c1e{fill:var(--c1);animation-name:c1e}@keyframes c1f{42.46%{fill:var(--c1)}42.48%,100%{fill:var(--ce)}}.c.c1f{fill:var(--c1);animation-name:c1f}@keyframes c1g{80.93%{fill:var(--c4)}80.95%,100%{fill:var(--ce)}}.c.c1g{fill:var(--c4);animation-name:c1g}@keyframes c1h{53.17%{fill:var(--c2)}53.19%,100%{fill:var(--ce)}}.c.c1h{fill:var(--c2);animation-name:c1h}@keyframes c1i{40.12%{fill:var(--c1)}40.14%,100%{fill:var(--ce)}}.c.c1i{fill:var(--c1);animation-name:c1i}@keyframes c1j{31.09%{fill:var(--c1)}31.11%,100%{fill:var(--ce)}}.c.c1j{fill:var(--c1);animation-name:c1j}@keyframes c1k{35.44%{fill:var(--c1)}35.46%,100%{fill:var(--ce)}}.c.c1k{fill:var(--c1);animation-name:c1k}@keyframes c1l{43.13%{fill:var(--c2)}43.15%,100%{fill:var(--ce)}}.c.c1l{fill:var(--c2);animation-name:c1l}@keyframes c1m{42.13%{fill:var(--c1)}42.15%,100%{fill:var(--ce)}}.c.c1m{fill:var(--c1);animation-name:c1m}@keyframes c1n{38.45%{fill:var(--c1)}38.47%,100%{fill:var(--ce)}}.c.c1n{fill:var(--c1);animation-name:c1n}@keyframes c1o{38.79%{fill:var(--c1)}38.81%,100%{fill:var(--ce)}}.c.c1o{fill:var(--c1);animation-name:c1o}@keyframes c1p{39.79%{fill:var(--c1)}39.81%,100%{fill:var(--ce)}}.c.c1p{fill:var(--c1);animation-name:c1p}@keyframes c1q{31.43%{fill:var(--c1)}31.45%,100%{fill:var(--ce)}}.c.c1q{fill:var(--c1);animation-name:c1q}@keyframes c1r{35.11%{fill:var(--c1)}35.13%,100%{fill:var(--ce)}}.c.c1r{fill:var(--c1);animation-name:c1r}@keyframes c1s{36.78%{fill:var(--c1)}36.8%,100%{fill:var(--ce)}}.c.c1s{fill:var(--c1);animation-name:c1s}@keyframes c1t{54.51%{fill:var(--c2)}54.53%,100%{fill:var(--ce)}}.c.c1t{fill:var(--c2);animation-name:c1t}@keyframes c1u{38.12%{fill:var(--c1)}38.14%,100%{fill:var(--ce)}}.c.c1u{fill:var(--c1);animation-name:c1u}@keyframes c1v{39.12%{fill:var(--c1)}39.14%,100%{fill:var(--ce)}}.c.c1v{fill:var(--c1);animation-name:c1v}@keyframes c1w{39.45%{fill:var(--c1)}39.47%,100%{fill:var(--ce)}}.c.c1w{fill:var(--c1);animation-name:c1w}@keyframes c1x{31.76%{fill:var(--c1)}31.78%,100%{fill:var(--ce)}}.c.c1x{fill:var(--c1);animation-name:c1x}@keyframes c1y{34.77%{fill:var(--c1)}34.79%,100%{fill:var(--ce)}}.c.c1y{fill:var(--c1);animation-name:c1y}@keyframes c1z{33.77%{fill:var(--c1)}33.79%,100%{fill:var(--ce)}}.c.c1z{fill:var(--c1);animation-name:c1z}@keyframes c20{33.43%{fill:var(--c1)}33.45%,100%{fill:var(--ce)}}.c.c20{fill:var(--c1);animation-name:c20}@keyframes c21{33.1%{fill:var(--c1)}33.12%,100%{fill:var(--ce)}}.c.c21{fill:var(--c1);animation-name:c21}@keyframes c22{32.77%{fill:var(--c1)}32.79%,100%{fill:var(--ce)}}.c.c22{fill:var(--c1);animation-name:c22}@keyframes c23{32.43%{fill:var(--c1)}32.45%,100%{fill:var(--ce)}}.c.c23{fill:var(--c1);animation-name:c23}@keyframes c24{32.1%{fill:var(--c1)}32.12%,100%{fill:var(--ce)}}.c.c24{fill:var(--c1);animation-name:c24}@keyframes c25{34.44%{fill:var(--c1)}34.46%,100%{fill:var(--ce)}}.c.c25{fill:var(--c1);animation-name:c25}@keyframes c26{34.1%{fill:var(--c1)}34.12%,100%{fill:var(--ce)}}.c.c26{fill:var(--c1);animation-name:c26}.u{transform-origin:0 0;transform:scale(0,1);animation:none linear 29900ms infinite}@keyframes u0{9.69%{transform:scale(0.000,1)}9.71%,10.02%{transform:scale(0.024,1)}10.04%,10.36%{transform:scale(0.049,1)}10.38%,10.69%{transform:scale(0.073,1)}10.71%,12.36%{transform:scale(0.098,1)}12.38%,12.7%{transform:scale(0.122,1)}12.72%,15.37%{transform:scale(0.146,1)}15.39%,15.71%{transform:scale(0.171,1)}15.73%,21.73%{transform:scale(0.195,1)}21.75%,23.07%{transform:scale(0.220,1)}23.09%,24.74%{transform:scale(0.244,1)}24.76%,25.07%{transform:scale(0.268,1)}25.09%,25.41%{transform:scale(0.293,1)}25.43%,26.75%{transform:scale(0.317,1)}26.77%,27.08%{transform:scale(0.341,1)}27.1%,30.76%{transform:scale(0.366,1)}30.78%,31.09%{transform:scale(0.390,1)}31.11%,31.43%{transform:scale(0.415,1)}31.45%,31.76%{transform:scale(0.439,1)}31.78%,32.1%{transform:scale(0.463,1)}32.12%,32.43%{transform:scale(0.488,1)}32.45%,32.77%{transform:scale(0.512,1)}32.79%,33.1%{transform:scale(0.537,1)}33.12%,33.43%{transform:scale(0.561,1)}33.45%,33.77%{transform:scale(0.585,1)}33.79%,34.1%{transform:scale(0.610,1)}34.12%,34.44%{transform:scale(0.634,1)}34.46%,34.77%{transform:scale(0.659,1)}34.79%,35.11%{transform:scale(0.683,1)}35.13%,35.44%{transform:scale(0.707,1)}35.46%,36.78%{transform:scale(0.732,1)}36.8%,38.12%{transform:scale(0.756,1)}38.14%,38.45%{transform:scale(0.780,1)}38.47%,38.79%{transform:scale(0.805,1)}38.81%,39.12%{transform:scale(0.829,1)}39.14%,39.45%{transform:scale(0.854,1)}39.47%,39.79%{transform:scale(0.878,1)}39.81%,40.12%{transform:scale(0.902,1)}40.14%,42.13%{transform:scale(0.927,1)}42.15%,42.46%{transform:scale(0.951,1)}42.48%,42.8%{transform:scale(0.976,1)}42.82%,100%{transform:scale(1.000,1)}}.u.u0{fill:var(--c1);animation-name:u0;transform-origin:0.0px 0}@keyframes u1{43.13%{transform:scale(0.000,1)}43.15%,100%{transform:scale(1.000,1)}}.u.u1{fill:var(--c2);animation-name:u1;transform-origin:440.1px 0}@keyframes u2{48.48%{transform:scale(0.000,1)}48.5%,100%{transform:scale(1.000,1)}}.u.u2{fill:var(--c1);animation-name:u2;transform-origin:450.8px 0}@keyframes u3{48.82%{transform:scale(0.000,1)}48.84%,51.5%{transform:scale(0.500,1)}51.52%,100%{transform:scale(1.000,1)}}.u.u3{fill:var(--c2);animation-name:u3;transform-origin:461.6px 0}@keyframes u4{51.83%{transform:scale(0.000,1)}51.85%,100%{transform:scale(1.000,1)}}.u.u4{fill:var(--c1);animation-name:u4;transform-origin:483.0px 0}@keyframes u5{52.16%{transform:scale(0.000,1)}52.18%,52.5%{transform:scale(0.042,1)}52.52%,53.17%{transform:scale(0.083,1)}53.19%,54.51%{transform:scale(0.125,1)}54.53%,55.51%{transform:scale(0.167,1)}55.53%,55.84%{transform:scale(0.208,1)}55.86%,56.18%{transform:scale(0.250,1)}56.2%,56.51%{transform:scale(0.292,1)}56.53%,57.52%{transform:scale(0.333,1)}57.54%,57.85%{transform:scale(0.375,1)}57.87%,58.18%{transform:scale(0.417,1)}58.2%,59.52%{transform:scale(0.458,1)}59.54%,59.86%{transform:scale(0.500,1)}59.88%,61.86%{transform:scale(0.542,1)}61.88%,62.87%{transform:scale(0.583,1)}62.89%,64.2%{transform:scale(0.625,1)}64.22%,64.54%{transform:scale(0.667,1)}64.56%,65.21%{transform:scale(0.708,1)}65.23%,65.54%{transform:scale(0.750,1)}65.56%,65.88%{transform:scale(0.792,1)}65.9%,66.55%{transform:scale(0.833,1)}66.57%,69.22%{transform:scale(0.875,1)}69.24%,71.56%{transform:scale(0.917,1)}71.58%,71.9%{transform:scale(0.958,1)}71.92%,100%{transform:scale(1.000,1)}}.u.u5{fill:var(--c2);animation-name:u5;transform-origin:493.8px 0}@keyframes u6{74.24%{transform:scale(0.000,1)}74.26%,77.25%{transform:scale(0.200,1)}77.27%,77.58%{transform:scale(0.400,1)}77.6%,77.92%{transform:scale(0.600,1)}77.94%,79.25%{transform:scale(0.800,1)}79.27%,100%{transform:scale(1.000,1)}}.u.u6{fill:var(--c3);animation-name:u6;transform-origin:751.4px 0}@keyframes u7{80.93%{transform:scale(0.000,1)}80.95%,81.6%{transform:scale(0.250,1)}81.62%,82.93%{transform:scale(0.500,1)}82.95%,86.61%{transform:scale(0.750,1)}86.63%,100%{transform:scale(1.000,1)}}.u.u7{fill:var(--c4);animation-name:u7;transform-origin:805.1px 0}.s{shape-rendering:geometricPrecision;fill:var(--cs);animation:none linear 29900ms infinite}@keyframes s0{0%,99.67%{transform:translate(0px,-16px)}0.33%{transform:translate(0px,0px)}9.36%{transform:translate(432px,0px)}9.7%{transform:translate(432px,16px)}10.03%{transform:translate(448px,16px)}10.37%{transform:translate(448px,32px)}10.7%{transform:translate(432px,32px)}11.04%{transform:translate(432px,48px)}12.37%{transform:translate(496px,48px)}12.71%{transform:translate(496px,64px)}15.05%{transform:translate(384px,64px)}15.38%{transform:translate(384px,80px)}15.72%{transform:translate(368px,80px)}16.05%{transform:translate(368px,64px)}20.4%{transform:translate(576px,64px)}21.74%{transform:translate(576px,0px)}22.74%{transform:translate(624px,0px)}23.08%{transform:translate(624px,16px)}24.75%,49.5%,58.86%{transform:translate(704px,16px)}25.08%,50.5%{transform:translate(704px,32px)}25.75%,47.16%,62.54%{transform:translate(672px,32px)}26.76%{transform:translate(672px,80px)}27.09%{transform:translate(656px,80px)}27.42%{transform:translate(656px,64px)}28.09%,76.25%{transform:translate(688px,64px)}29.1%{transform:translate(688px,112px)}30.43%{transform:translate(752px,112px)}30.77%{transform:translate(752px,96px)}32.11%{transform:translate(816px,96px)}33.78%,37.12%{transform:translate(816px,16px)}34.11%{transform:translate(832px,16px)}34.45%{transform:translate(832px,0px)}35.45%{transform:translate(784px,0px)}35.79%,43.81%{transform:translate(784px,-16px)}36.12%{transform:translate(800px,-16px)}36.79%{transform:translate(800px,16px)}37.79%{transform:translate(816px,48px)}38.46%{transform:translate(784px,48px)}38.8%{transform:translate(784px,64px)}39.13%,53.85%{transform:translate(800px,64px)}39.46%{transform:translate(800px,80px)}40.13%,52.84%{transform:translate(768px,80px)}40.47%{transform:translate(768px,96px)}40.8%{transform:translate(784px,96px)}42.14%{transform:translate(784px,32px)}42.47%{transform:translate(768px,32px)}42.81%,56.86%,80.27%{transform:translate(768px,16px)}43.14%{transform:translate(784px,16px)}45.82%{transform:translate(688px,-16px)}46.82%,50.17%{transform:translate(688px,32px)}47.83%{transform:translate(672px,64px)}48.49%,51.17%,82.61%{transform:translate(704px,64px)}49.83%,61.2%{transform:translate(688px,16px)}51.84%{transform:translate(736px,64px)}52.17%,66.22%{transform:translate(736px,80px)}53.18%{transform:translate(768px,64px)}54.52%{transform:translate(800px,32px)}55.52%{transform:translate(752px,32px)}56.19%,78.93%{transform:translate(752px,0px)}56.52%{transform:translate(768px,0px)}57.86%,59.2%{transform:translate(720px,16px)}58.19%{transform:translate(720px,0px)}58.53%{transform:translate(704px,0px)}59.53%{transform:translate(720px,32px)}59.87%{transform:translate(736px,32px)}60.2%,79.6%{transform:translate(736px,16px)}61.87%,83.95%{transform:translate(688px,48px)}62.21%{transform:translate(672px,48px)}62.88%{transform:translate(656px,32px)}64.21%{transform:translate(656px,96px)}65.89%{transform:translate(736px,96px)}66.56%{transform:translate(720px,80px)}66.89%{transform:translate(720px,96px)}69.57%{transform:translate(592px,96px)}70.9%{transform:translate(592px,32px)}71.91%{transform:translate(544px,32px)}72.58%{transform:translate(544px,64px)}73.91%{transform:translate(608px,64px)}74.25%{transform:translate(608px,80px)}75.92%,83.28%{transform:translate(688px,80px)}76.92%{transform:translate(720px,64px)}77.26%{transform:translate(720px,48px)}77.93%,81.27%{transform:translate(752px,48px)}79.26%{transform:translate(736px,0px)}80.94%{transform:translate(768px,48px)}81.61%{transform:translate(752px,64px)}82.94%{transform:translate(704px,80px)}96.32%{transform:translate(96px,48px)}96.99%{transform:translate(96px,16px)}97.99%{transform:translate(48px,16px)}98.66%{transform:translate(48px,-16px)}}.s.s0{transform:translate(0px,-16px);animation-name:s0}@keyframes s1{0%,99.67%{transform:translate(16px,-16px)}0.33%{transform:translate(0px,-16px)}0.67%{transform:translate(0px,0px)}9.7%{transform:translate(432px,0px)}10.03%{transform:translate(432px,16px)}10.37%{transform:translate(448px,16px)}10.7%{transform:translate(448px,32px)}11.04%{transform:translate(432px,32px)}11.37%{transform:translate(432px,48px)}12.71%{transform:translate(496px,48px)}13.04%{transform:translate(496px,64px)}15.38%{transform:translate(384px,64px)}15.72%{transform:translate(384px,80px)}16.05%{transform:translate(368px,80px)}16.39%{transform:translate(368px,64px)}20.74%{transform:translate(576px,64px)}22.07%{transform:translate(576px,0px)}23.08%{transform:translate(624px,0px)}23.41%{transform:translate(624px,16px)}25.08%,49.83%,59.2%{transform:translate(704px,16px)}25.42%,50.84%{transform:translate(704px,32px)}26.09%,47.49%,62.88%{transform:translate(672px,32px)}27.09%{transform:translate(672px,80px)}27.42%{transform:translate(656px,80px)}27.76%{transform:translate(656px,64px)}28.43%,76.59%{transform:translate(688px,64px)}29.43%{transform:translate(688px,112px)}30.77%{transform:translate(752px,112px)}31.1%{transform:translate(752px,96px)}32.44%{transform:translate(816px,96px)}34.11%,37.46%{transform:translate(816px,16px)}34.45%{transform:translate(832px,16px)}34.78%{transform:translate(832px,0px)}35.79%{transform:translate(784px,0px)}36.12%,44.15%{transform:translate(784px,-16px)}36.45%{transform:translate(800px,-16px)}37.12%{transform:translate(800px,16px)}38.13%{transform:translate(816px,48px)}38.8%{transform:translate(784px,48px)}39.13%{transform:translate(784px,64px)}39.46%,54.18%{transform:translate(800px,64px)}39.8%{transform:translate(800px,80px)}40.47%,53.18%{transform:translate(768px,80px)}40.8%{transform:translate(768px,96px)}41.14%{transform:translate(784px,96px)}42.47%{transform:translate(784px,32px)}42.81%{transform:translate(768px,32px)}43.14%,57.19%,80.6%{transform:translate(768px,16px)}43.48%{transform:translate(784px,16px)}46.15%{transform:translate(688px,-16px)}47.16%,50.5%{transform:translate(688px,32px)}48.16%{transform:translate(672px,64px)}48.83%,51.51%,82.94%{transform:translate(704px,64px)}50.17%,61.54%{transform:translate(688px,16px)}52.17%{transform:translate(736px,64px)}52.51%,66.56%{transform:translate(736px,80px)}53.51%{transform:translate(768px,64px)}54.85%{transform:translate(800px,32px)}55.85%{transform:translate(752px,32px)}56.52%,79.26%{transform:translate(752px,0px)}56.86%{transform:translate(768px,0px)}58.19%,59.53%{transform:translate(720px,16px)}58.53%{transform:translate(720px,0px)}58.86%{transform:translate(704px,0px)}59.87%{transform:translate(720px,32px)}60.2%{transform:translate(736px,32px)}60.54%,79.93%{transform:translate(736px,16px)}62.21%,84.28%{transform:translate(688px,48px)}62.54%{transform:translate(672px,48px)}63.21%{transform:translate(656px,32px)}64.55%{transform:translate(656px,96px)}66.22%{transform:translate(736px,96px)}66.89%{transform:translate(720px,80px)}67.22%{transform:translate(720px,96px)}69.9%{transform:translate(592px,96px)}71.24%{transform:translate(592px,32px)}72.24%{transform:translate(544px,32px)}72.91%{transform:translate(544px,64px)}74.25%{transform:translate(608px,64px)}74.58%{transform:translate(608px,80px)}76.25%,83.61%{transform:translate(688px,80px)}77.26%{transform:translate(720px,64px)}77.59%{transform:translate(720px,48px)}78.26%,81.61%{transform:translate(752px,48px)}79.6%{transform:translate(736px,0px)}81.27%{transform:translate(768px,48px)}81.94%{transform:translate(752px,64px)}83.28%{transform:translate(704px,80px)}96.66%{transform:translate(96px,48px)}97.32%{transform:translate(96px,16px)}98.33%{transform:translate(48px,16px)}99%{transform:translate(48px,-16px)}}.s.s1{transform:translate(16px,-16px);animation-name:s1}@keyframes s2{0%,99.67%{transform:translate(32px,-16px)}0.67%{transform:translate(0px,-16px)}1%{transform:translate(0px,0px)}10.03%{transform:translate(432px,0px)}10.37%{transform:translate(432px,16px)}10.7%{transform:translate(448px,16px)}11.04%{transform:translate(448px,32px)}11.37%{transform:translate(432px,32px)}11.71%{transform:translate(432px,48px)}13.04%{transform:translate(496px,48px)}13.38%{transform:translate(496px,64px)}15.72%{transform:translate(384px,64px)}16.05%{transform:translate(384px,80px)}16.39%{transform:translate(368px,80px)}16.72%{transform:translate(368px,64px)}21.07%{transform:translate(576px,64px)}22.41%{transform:translate(576px,0px)}23.41%{transform:translate(624px,0px)}23.75%{transform:translate(624px,16px)}25.42%,50.17%,59.53%{transform:translate(704px,16px)}25.75%,51.17%{transform:translate(704px,32px)}26.42%,47.83%,63.21%{transform:translate(672px,32px)}27.42%{transform:translate(672px,80px)}27.76%{transform:translate(656px,80px)}28.09%{transform:translate(656px,64px)}28.76%,76.92%{transform:translate(688px,64px)}29.77%{transform:translate(688px,112px)}31.1%{transform:translate(752px,112px)}31.44%{transform:translate(752px,96px)}32.78%{transform:translate(816px,96px)}34.45%,37.79%{transform:translate(816px,16px)}34.78%{transform:translate(832px,16px)}35.12%{transform:translate(832px,0px)}36.12%{transform:translate(784px,0px)}36.45%,44.48%{transform:translate(784px,-16px)}36.79%{transform:translate(800px,-16px)}37.46%{transform:translate(800px,16px)}38.46%{transform:translate(816px,48px)}39.13%{transform:translate(784px,48px)}39.46%{transform:translate(784px,64px)}39.8%,54.52%{transform:translate(800px,64px)}40.13%{transform:translate(800px,80px)}40.8%,53.51%{transform:translate(768px,80px)}41.14%{transform:translate(768px,96px)}41.47%{transform:translate(784px,96px)}42.81%{transform:translate(784px,32px)}43.14%{transform:translate(768px,32px)}43.48%,57.53%,80.94%{transform:translate(768px,16px)}43.81%{transform:translate(784px,16px)}46.49%{transform:translate(688px,-16px)}47.49%,50.84%{transform:translate(688px,32px)}48.49%{transform:translate(672px,64px)}49.16%,51.84%,83.28%{transform:translate(704px,64px)}50.5%,61.87%{transform:translate(688px,16px)}52.51%{transform:translate(736px,64px)}52.84%,66.89%{transform:translate(736px,80px)}53.85%{transform:translate(768px,64px)}55.18%{transform:translate(800px,32px)}56.19%{transform:translate(752px,32px)}56.86%,79.6%{transform:translate(752px,0px)}57.19%{transform:translate(768px,0px)}58.53%,59.87%{transform:translate(720px,16px)}58.86%{transform:translate(720px,0px)}59.2%{transform:translate(704px,0px)}60.2%{transform:translate(720px,32px)}60.54%{transform:translate(736px,32px)}60.87%,80.27%{transform:translate(736px,16px)}62.54%,84.62%{transform:translate(688px,48px)}62.88%{transform:translate(672px,48px)}63.55%{transform:translate(656px,32px)}64.88%{transform:translate(656px,96px)}66.56%{transform:translate(736px,96px)}67.22%{transform:translate(720px,80px)}67.56%{transform:translate(720px,96px)}70.23%{transform:translate(592px,96px)}71.57%{transform:translate(592px,32px)}72.58%{transform:translate(544px,32px)}73.24%{transform:translate(544px,64px)}74.58%{transform:translate(608px,64px)}74.92%{transform:translate(608px,80px)}76.59%,83.95%{transform:translate(688px,80px)}77.59%{transform:translate(720px,64px)}77.93%{transform:translate(720px,48px)}78.6%,81.94%{transform:translate(752px,48px)}79.93%{transform:translate(736px,0px)}81.61%{transform:translate(768px,48px)}82.27%{transform:translate(752px,64px)}83.61%{transform:translate(704px,80px)}96.99%{transform:translate(96px,48px)}97.66%{transform:translate(96px,16px)}98.66%{transform:translate(48px,16px)}99.33%{transform:translate(48px,-16px)}}.s.s2{transform:translate(32px,-16px);animation-name:s2}@keyframes s3{0%,99.67%{transform:translate(48px,-16px)}1%{transform:translate(0px,-16px)}1.34%{transform:translate(0px,0px)}10.37%{transform:translate(432px,0px)}10.7%{transform:translate(432px,16px)}11.04%{transform:translate(448px,16px)}11.37%{transform:translate(448px,32px)}11.71%{transform:translate(432px,32px)}12.04%{transform:translate(432px,48px)}13.38%{transform:translate(496px,48px)}13.71%{transform:translate(496px,64px)}16.05%{transform:translate(384px,64px)}16.39%{transform:translate(384px,80px)}16.72%{transform:translate(368px,80px)}17.06%{transform:translate(368px,64px)}21.4%{transform:translate(576px,64px)}22.74%{transform:translate(576px,0px)}23.75%{transform:translate(624px,0px)}24.08%{transform:translate(624px,16px)}25.75%,50.5%,59.87%{transform:translate(704px,16px)}26.09%,51.51%{transform:translate(704px,32px)}26.76%,48.16%,63.55%{transform:translate(672px,32px)}27.76%{transform:translate(672px,80px)}28.09%{transform:translate(656px,80px)}28.43%{transform:translate(656px,64px)}29.1%,77.26%{transform:translate(688px,64px)}30.1%{transform:translate(688px,112px)}31.44%{transform:translate(752px,112px)}31.77%{transform:translate(752px,96px)}33.11%{transform:translate(816px,96px)}34.78%,38.13%{transform:translate(816px,16px)}35.12%{transform:translate(832px,16px)}35.45%{transform:translate(832px,0px)}36.45%{transform:translate(784px,0px)}36.79%,44.82%{transform:translate(784px,-16px)}37.12%{transform:translate(800px,-16px)}37.79%{transform:translate(800px,16px)}38.8%{transform:translate(816px,48px)}39.46%{transform:translate(784px,48px)}39.8%{transform:translate(784px,64px)}40.13%,54.85%{transform:translate(800px,64px)}40.47%{transform:translate(800px,80px)}41.14%,53.85%{transform:translate(768px,80px)}41.47%{transform:translate(768px,96px)}41.81%{transform:translate(784px,96px)}43.14%{transform:translate(784px,32px)}43.48%{transform:translate(768px,32px)}43.81%,57.86%,81.27%{transform:translate(768px,16px)}44.15%{transform:translate(784px,16px)}46.82%{transform:translate(688px,-16px)}47.83%,51.17%{transform:translate(688px,32px)}48.83%{transform:translate(672px,64px)}49.5%,52.17%,83.61%{transform:translate(704px,64px)}50.84%,62.21%{transform:translate(688px,16px)}52.84%{transform:translate(736px,64px)}53.18%,67.22%{transform:translate(736px,80px)}54.18%{transform:translate(768px,64px)}55.52%{transform:translate(800px,32px)}56.52%{transform:translate(752px,32px)}57.19%,79.93%{transform:translate(752px,0px)}57.53%{transform:translate(768px,0px)}58.86%,60.2%{transform:translate(720px,16px)}59.2%{transform:translate(720px,0px)}59.53%{transform:translate(704px,0px)}60.54%{transform:translate(720px,32px)}60.87%{transform:translate(736px,32px)}61.2%,80.6%{transform:translate(736px,16px)}62.88%,84.95%{transform:translate(688px,48px)}63.21%{transform:translate(672px,48px)}63.88%{transform:translate(656px,32px)}65.22%{transform:translate(656px,96px)}66.89%{transform:translate(736px,96px)}67.56%{transform:translate(720px,80px)}67.89%{transform:translate(720px,96px)}70.57%{transform:translate(592px,96px)}71.91%{transform:translate(592px,32px)}72.91%{transform:translate(544px,32px)}73.58%{transform:translate(544px,64px)}74.92%{transform:translate(608px,64px)}75.25%{transform:translate(608px,80px)}76.92%,84.28%{transform:translate(688px,80px)}77.93%{transform:translate(720px,64px)}78.26%{transform:translate(720px,48px)}78.93%,82.27%{transform:translate(752px,48px)}80.27%{transform:translate(736px,0px)}81.94%{transform:translate(768px,48px)}82.61%{transform:translate(752px,64px)}83.95%{transform:translate(704px,80px)}97.32%{transform:translate(96px,48px)}97.99%{transform:translate(96px,16px)}99%{transform:translate(48px,16px)}}.s.s3{transform:translate(48px,-16px);animation-name:s3}</style><rect class="c" x="2" y="2" rx="2" ry="2"/><rect class="c" x="2" y="18" rx="2" ry="2"/><rect class="c" x="2" y="34" rx="2" ry="2"/><rect class="c" x="2" y="50" rx="2" ry="2"/><rect class="c" x="2" y="66" rx="2" ry="2"/><rect class="c" x="2" y="82" rx="2" ry="2"/><rect class="c" x="2" y="98" rx="2" ry="2"/><rect class="c" x="18" y="2" rx="2" ry="2"/><rect class="c" x="18" y="18" rx="2" ry="2"/><rect class="c" x="18" y="34" rx="2" ry="2"/><rect class="c" x="18" y="50" rx="2" ry="2"/><rect class="c" x="18" y="66" rx="2" ry="2"/><rect class="c" x="18" y="82" rx="2" ry="2"/><rect class="c" x="18" y="98" rx="2" ry="2"/><rect class="c" x="34" y="2" rx="2" ry="2"/><rect class="c" x="34" y="18" rx="2" ry="2"/><rect class="c" x="34" y="34" rx="2" ry="2"/><rect class="c" x="34" y="50" rx="2" ry="2"/><rect class="c" x="34" y="66" rx="2" ry="2"/><rect class="c" x="34" y="82" rx="2" ry="2"/><rect class="c" x="34" y="98" rx="2" ry="2"/><rect class="c" x="50" y="2" rx="2" ry="2"/><rect class="c" x="50" y="18" rx="2" ry="2"/><rect class="c" x="50" y="34" rx="2" ry="2"/><rect class="c" x="50" y="50" rx="2" ry="2"/><rect class="c" x="50" y="66" rx="2" ry="2"/><rect class="c" x="50" y="82" rx="2" ry="2"/><rect class="c" x="50" y="98" rx="2" ry="2"/><rect class="c" x="66" y="2" rx="2" ry="2"/><rect class="c" x="66" y="18" rx="2" ry="2"/><rect class="c" x="66" y="34" rx="2" ry="2"/><rect class="c" x="66" y="50" rx="2" ry="2"/><rect class="c" x="66" y="66" rx="2" ry="2"/><rect class="c" x="66" y="82" rx="2" ry="2"/><rect class="c" x="66" y="98" rx="2" ry="2"/><rect class="c" x="82" y="2" rx="2" ry="2"/><rect class="c" x="82" y="18" rx="2" ry="2"/><rect class="c" x="82" y="34" rx="2" ry="2"/><rect class="c" x="82" y="50" rx="2" ry="2"/><rect class="c" x="82" y="66" rx="2" ry="2"/><rect class="c" x="82" y="82" rx="2" ry="2"/><rect class="c" x="82" y="98" rx="2" ry="2"/><rect class="c" x="98" y="2" rx="2" ry="2"/><rect class="c" x="98" y="18" rx="2" ry="2"/><rect class="c" x="98" y="34" rx="2" ry="2"/><rect class="c" x="98" y="50" rx="2" ry="2"/><rect class="c" x="98" y="66" rx="2" ry="2"/><rect class="c" x="98" y="82" rx="2" ry="2"/><rect class="c" x="98" y="98" rx="2" ry="2"/><rect class="c" x="114" y="2" rx="2" ry="2"/><rect class="c" x="114" y="18" rx="2" ry="2"/><rect class="c" x="114" y="34" rx="2" ry="2"/><rect class="c" x="114" y="50" rx="2" ry="2"/><rect class="c" x="114" y="66" rx="2" ry="2"/><rect class="c" x="114" y="82" rx="2" ry="2"/><rect class="c" x="114" y="98" rx="2" ry="2"/><rect class="c" x="130" y="2" rx="2" ry="2"/><rect class="c" x="130" y="18" rx="2" ry="2"/><rect class="c" x="130" y="34" rx="2" ry="2"/><rect class="c" x="130" y="50" rx="2" ry="2"/><rect class="c" x="130" y="66" rx="2" ry="2"/><rect class="c" x="130" y="82" rx="2" ry="2"/><rect class="c" x="130" y="98" rx="2" ry="2"/><rect class="c" x="146" y="2" rx="2" ry="2"/><rect class="c" x="146" y="18" rx="2" ry="2"/><rect class="c" x="146" y="34" rx="2" ry="2"/><rect class="c" x="146" y="50" rx="2" ry="2"/><rect class="c" x="146" y="66" rx="2" ry="2"/><rect class="c" x="146" y="82" rx="2" ry="2"/><rect class="c" x="146" y="98" rx="2" ry="2"/><rect class="c" x="162" y="2" rx="2" ry="2"/><rect class="c" x="162" y="18" rx="2" ry="2"/><rect class="c" x="162" y="34" rx="2" ry="2"/><rect class="c" x="162" y="50" rx="2" ry="2"/><rect class="c" x="162" y="66" rx="2" ry="2"/><rect class="c" x="162" y="82" rx="2" ry="2"/><rect class="c" x="162" y="98" rx="2" ry="2"/><rect class="c" x="178" y="2" rx="2" ry="2"/><rect class="c" x="178" y="18" rx="2" ry="2"/><rect class="c" x="178" y="34" rx="2" ry="2"/><rect class="c" x="178" y="50" rx="2" ry="2"/><rect class="c" x="178" y="66" rx="2" ry="2"/><rect class="c" x="178" y="82" rx="2" ry="2"/><rect class="c" x="178" y="98" rx="2" ry="2"/><rect class="c" x="194" y="2" rx="2" ry="2"/><rect class="c" x="194" y="18" rx="2" ry="2"/><rect class="c" x="194" y="34" rx="2" ry="2"/><rect class="c" x="194" y="50" rx="2" ry="2"/><rect class="c" x="194" y="66" rx="2" ry="2"/><rect class="c" x="194" y="82" rx="2" ry="2"/><rect class="c" x="194" y="98" rx="2" ry="2"/><rect class="c" x="210" y="2" rx="2" ry="2"/><rect class="c" x="210" y="18" rx="2" ry="2"/><rect class="c" x="210" y="34" rx="2" ry="2"/><rect class="c" x="210" y="50" rx="2" ry="2"/><rect class="c" x="210" y="66" rx="2" ry="2"/><rect class="c" x="210" y="82" rx="2" ry="2"/><rect class="c" x="210" y="98" rx="2" ry="2"/><rect class="c" x="226" y="2" rx="2" ry="2"/><rect class="c" x="226" y="18" rx="2" ry="2"/><rect class="c" x="226" y="34" rx="2" ry="2"/><rect class="c" x="226" y="50" rx="2" ry="2"/><rect class="c" x="226" y="66" rx="2" ry="2"/><rect class="c" x="226" y="82" rx="2" ry="2"/><rect class="c" x="226" y="98" rx="2" ry="2"/><rect class="c" x="242" y="2" rx="2" ry="2"/><rect class="c" x="242" y="18" rx="2" ry="2"/><rect class="c" x="242" y="34" rx="2" ry="2"/><rect class="c" x="242" y="50" rx="2" ry="2"/><rect class="c" x="242" y="66" rx="2" ry="2"/><rect class="c" x="242" y="82" rx="2" ry="2"/><rect class="c" x="242" y="98" rx="2" ry="2"/><rect class="c" x="258" y="2" rx="2" ry="2"/><rect class="c" x="258" y="18" rx="2" ry="2"/><rect class="c" x="258" y="34" rx="2" ry="2"/><rect class="c" x="258" y="50" rx="2" ry="2"/><rect class="c" x="258" y="66" rx="2" ry="2"/><rect class="c" x="258" y="82" rx="2" ry="2"/><rect class="c" x="258" y="98" rx="2" ry="2"/><rect class="c" x="274" y="2" rx="2" ry="2"/><rect class="c" x="274" y="18" rx="2" ry="2"/><rect class="c" x="274" y="34" rx="2" ry="2"/><rect class="c" x="274" y="50" rx="2" ry="2"/><rect class="c" x="274" y="66" rx="2" ry="2"/><rect class="c" x="274" y="82" rx="2" ry="2"/><rect class="c" x="274" y="98" rx="2" ry="2"/><rect class="c" x="290" y="2" rx="2" ry="2"/><rect class="c" x="290" y="18" rx="2" ry="2"/><rect class="c" x="290" y="34" rx="2" ry="2"/><rect class="c" x="290" y="50" rx="2" ry="2"/><rect class="c" x="290" y="66" rx="2" ry="2"/><rect class="c" x="290" y="82" rx="2" ry="2"/><rect class="c" x="290" y="98" rx="2" ry="2"/><rect class="c" x="306" y="2" rx="2" ry="2"/><rect class="c" x="306" y="18" rx="2" ry="2"/><rect class="c" x="306" y="34" rx="2" ry="2"/><rect class="c" x="306" y="50" rx="2" ry="2"/><rect class="c" x="306" y="66" rx="2" ry="2"/><rect class="c" x="306" y="82" rx="2" ry="2"/><rect class="c" x="306" y="98" rx="2" ry="2"/><rect class="c" x="322" y="2" rx="2" ry="2"/><rect class="c" x="322" y="18" rx="2" ry="2"/><rect class="c" x="322" y="34" rx="2" ry="2"/><rect class="c" x="322" y="50" rx="2" ry="2"/><rect class="c" x="322" y="66" rx="2" ry="2"/><rect class="c" x="322" y="82" rx="2" ry="2"/><rect class="c" x="322" y="98" rx="2" ry="2"/><rect class="c" x="338" y="2" rx="2" ry="2"/><rect class="c" x="338" y="18" rx="2" ry="2"/><rect class="c" x="338" y="34" rx="2" ry="2"/><rect class="c" x="338" y="50" rx="2" ry="2"/><rect class="c" x="338" y="66" rx="2" ry="2"/><rect class="c" x="338" y="82" rx="2" ry="2"/><rect class="c" x="338" y="98" rx="2" ry="2"/><rect class="c" x="354" y="2" rx="2" ry="2"/><rect class="c" x="354" y="18" rx="2" ry="2"/><rect class="c" x="354" y="34" rx="2" ry="2"/><rect class="c" x="354" y="50" rx="2" ry="2"/><rect class="c" x="354" y="66" rx="2" ry="2"/><rect class="c" x="354" y="82" rx="2" ry="2"/><rect class="c" x="354" y="98" rx="2" ry="2"/><rect class="c" x="370" y="2" rx="2" ry="2"/><rect class="c" x="370" y="18" rx="2" ry="2"/><rect class="c" x="370" y="34" rx="2" ry="2"/><rect class="c" x="370" y="50" rx="2" ry="2"/><rect class="c" x="370" y="66" rx="2" ry="2"/><rect class="c c0" x="370" y="82" rx="2" ry="2"/><rect class="c" x="370" y="98" rx="2" ry="2"/><rect class="c" x="386" y="2" rx="2" ry="2"/><rect class="c" x="386" y="18" rx="2" ry="2"/><rect class="c" x="386" y="34" rx="2" ry="2"/><rect class="c" x="386" y="50" rx="2" ry="2"/><rect class="c" x="386" y="66" rx="2" ry="2"/><rect class="c c1" x="386" y="82" rx="2" ry="2"/><rect class="c" x="386" y="98" rx="2" ry="2"/><rect class="c" x="402" y="2" rx="2" ry="2"/><rect class="c" x="402" y="18" rx="2" ry="2"/><rect class="c" x="402" y="34" rx="2" ry="2"/><rect class="c" x="402" y="50" rx="2" ry="2"/><rect class="c" x="402" y="66" rx="2" ry="2"/><rect class="c" x="402" y="82" rx="2" ry="2"/><rect class="c" x="402" y="98" rx="2" ry="2"/><rect class="c" x="418" y="2" rx="2" ry="2"/><rect class="c" x="418" y="18" rx="2" ry="2"/><rect class="c" x="418" y="34" rx="2" ry="2"/><rect class="c" x="418" y="50" rx="2" ry="2"/><rect class="c" x="418" y="66" rx="2" ry="2"/><rect class="c" x="418" y="82" rx="2" ry="2"/><rect class="c" x="418" y="98" rx="2" ry="2"/><rect class="c" x="434" y="2" rx="2" ry="2"/><rect class="c c2" x="434" y="18" rx="2" ry="2"/><rect class="c c3" x="434" y="34" rx="2" ry="2"/><rect class="c" x="434" y="50" rx="2" ry="2"/><rect class="c" x="434" y="66" rx="2" ry="2"/><rect class="c" x="434" y="82" rx="2" ry="2"/><rect class="c" x="434" y="98" rx="2" ry="2"/><rect class="c" x="450" y="2" rx="2" ry="2"/><rect class="c c4" x="450" y="18" rx="2" ry="2"/><rect class="c c5" x="450" y="34" rx="2" ry="2"/><rect class="c" x="450" y="50" rx="2" ry="2"/><rect class="c" x="450" y="66" rx="2" ry="2"/><rect class="c" x="450" y="82" rx="2" ry="2"/><rect class="c" x="450" y="98" rx="2" ry="2"/><rect class="c" x="466" y="2" rx="2" ry="2"/><rect class="c" x="466" y="18" rx="2" ry="2"/><rect class="c" x="466" y="34" rx="2" ry="2"/><rect class="c" x="466" y="50" rx="2" ry="2"/><rect class="c" x="466" y="66" rx="2" ry="2"/><rect class="c" x="466" y="82" rx="2" ry="2"/><rect class="c" x="466" y="98" rx="2" ry="2"/><rect class="c" x="482" y="2" rx="2" ry="2"/><rect class="c" x="482" y="18" rx="2" ry="2"/><rect class="c" x="482" y="34" rx="2" ry="2"/><rect class="c" x="482" y="50" rx="2" ry="2"/><rect class="c" x="482" y="66" rx="2" ry="2"/><rect class="c" x="482" y="82" rx="2" ry="2"/><rect class="c" x="482" y="98" rx="2" ry="2"/><rect class="c" x="498" y="2" rx="2" ry="2"/><rect class="c" x="498" y="18" rx="2" ry="2"/><rect class="c" x="498" y="34" rx="2" ry="2"/><rect class="c c6" x="498" y="50" rx="2" ry="2"/><rect class="c c7" x="498" y="66" rx="2" ry="2"/><rect class="c" x="498" y="82" rx="2" ry="2"/><rect class="c" x="498" y="98" rx="2" ry="2"/><rect class="c" x="514" y="2" rx="2" ry="2"/><rect class="c" x="514" y="18" rx="2" ry="2"/><rect class="c" x="514" y="34" rx="2" ry="2"/><rect class="c" x="514" y="50" rx="2" ry="2"/><rect class="c" x="514" y="66" rx="2" ry="2"/><rect class="c" x="514" y="82" rx="2" ry="2"/><rect class="c" x="514" y="98" rx="2" ry="2"/><rect class="c" x="530" y="2" rx="2" ry="2"/><rect class="c" x="530" y="18" rx="2" ry="2"/><rect class="c" x="530" y="34" rx="2" ry="2"/><rect class="c" x="530" y="50" rx="2" ry="2"/><rect class="c" x="530" y="66" rx="2" ry="2"/><rect class="c" x="530" y="82" rx="2" ry="2"/><rect class="c" x="530" y="98" rx="2" ry="2"/><rect class="c" x="546" y="2" rx="2" ry="2"/><rect class="c" x="546" y="18" rx="2" ry="2"/><rect class="c c8" x="546" y="34" rx="2" ry="2"/><rect class="c" x="546" y="50" rx="2" ry="2"/><rect class="c" x="546" y="66" rx="2" ry="2"/><rect class="c" x="546" y="82" rx="2" ry="2"/><rect class="c" x="546" y="98" rx="2" ry="2"/><rect class="c" x="562" y="2" rx="2" ry="2"/><rect class="c" x="562" y="18" rx="2" ry="2"/><rect class="c c9" x="562" y="34" rx="2" ry="2"/><rect class="c ca" x="562" y="50" rx="2" ry="2"/><rect class="c" x="562" y="66" rx="2" ry="2"/><rect class="c" x="562" y="82" rx="2" ry="2"/><rect class="c" x="562" y="98" rx="2" ry="2"/><rect class="c cb" x="578" y="2" rx="2" ry="2"/><rect class="c" x="578" y="18" rx="2" ry="2"/><rect class="c" x="578" y="34" rx="2" ry="2"/><rect class="c" x="578" y="50" rx="2" ry="2"/><rect class="c" x="578" y="66" rx="2" ry="2"/><rect class="c" x="578" y="82" rx="2" ry="2"/><rect class="c" x="578" y="98" rx="2" ry="2"/><rect class="c" x="594" y="2" rx="2" ry="2"/><rect class="c" x="594" y="18" rx="2" ry="2"/><rect class="c" x="594" y="34" rx="2" ry="2"/><rect class="c" x="594" y="50" rx="2" ry="2"/><rect class="c" x="594" y="66" rx="2" ry="2"/><rect class="c" x="594" y="82" rx="2" ry="2"/><rect class="c" x="594" y="98" rx="2" ry="2"/><rect class="c" x="610" y="2" rx="2" ry="2"/><rect class="c" x="610" y="18" rx="2" ry="2"/><rect class="c" x="610" y="34" rx="2" ry="2"/><rect class="c" x="610" y="50" rx="2" ry="2"/><rect class="c" x="610" y="66" rx="2" ry="2"/><rect class="c cc" x="610" y="82" rx="2" ry="2"/><rect class="c cd" x="610" y="98" rx="2" ry="2"/><rect class="c" x="626" y="2" rx="2" ry="2"/><rect class="c ce" x="626" y="18" rx="2" ry="2"/><rect class="c" x="626" y="34" rx="2" ry="2"/><rect class="c" x="626" y="50" rx="2" ry="2"/><rect class="c" x="626" y="66" rx="2" ry="2"/><rect class="c" x="626" y="82" rx="2" ry="2"/><rect class="c" x="626" y="98" rx="2" ry="2"/><rect class="c" x="642" y="2" rx="2" ry="2"/><rect class="c" x="642" y="18" rx="2" ry="2"/><rect class="c" x="642" y="34" rx="2" ry="2"/><rect class="c" x="642" y="50" rx="2" ry="2"/><rect class="c" x="642" y="66" rx="2" ry="2"/><rect class="c" x="642" y="82" rx="2" ry="2"/><rect class="c" x="642" y="98" rx="2" ry="2"/><rect class="c" x="658" y="2" rx="2" ry="2"/><rect class="c" x="658" y="18" rx="2" ry="2"/><rect class="c cf" x="658" y="34" rx="2" ry="2"/><rect class="c" x="658" y="50" rx="2" ry="2"/><rect class="c" x="658" y="66" rx="2" ry="2"/><rect class="c cg" x="658" y="82" rx="2" ry="2"/><rect class="c ch" x="658" y="98" rx="2" ry="2"/><rect class="c" x="674" y="2" rx="2" ry="2"/><rect class="c" x="674" y="18" rx="2" ry="2"/><rect class="c" x="674" y="34" rx="2" ry="2"/><rect class="c" x="674" y="50" rx="2" ry="2"/><rect class="c" x="674" y="66" rx="2" ry="2"/><rect class="c ci" x="674" y="82" rx="2" ry="2"/><rect class="c cj" x="674" y="98" rx="2" ry="2"/><rect class="c" x="690" y="2" rx="2" ry="2"/><rect class="c" x="690" y="18" rx="2" ry="2"/><rect class="c ck" x="690" y="34" rx="2" ry="2"/><rect class="c cl" x="690" y="50" rx="2" ry="2"/><rect class="c" x="690" y="66" rx="2" ry="2"/><rect class="c" x="690" y="82" rx="2" ry="2"/><rect class="c" x="690" y="98" rx="2" ry="2"/><rect class="c" x="706" y="2" rx="2" ry="2"/><rect class="c cm" x="706" y="18" rx="2" ry="2"/><rect class="c cn" x="706" y="34" rx="2" ry="2"/><rect class="c co" x="706" y="50" rx="2" ry="2"/><rect class="c cp" x="706" y="66" rx="2" ry="2"/><rect class="c cq" x="706" y="82" rx="2" ry="2"/><rect class="c cr" x="706" y="98" rx="2" ry="2"/><rect class="c cs" x="722" y="2" rx="2" ry="2"/><rect class="c ct" x="722" y="18" rx="2" ry="2"/><rect class="c cu" x="722" y="34" rx="2" ry="2"/><rect class="c cv" x="722" y="50" rx="2" ry="2"/><rect class="c cw" x="722" y="66" rx="2" ry="2"/><rect class="c cx" x="722" y="82" rx="2" ry="2"/><rect class="c cy" x="722" y="98" rx="2" ry="2"/><rect class="c cz" x="738" y="2" rx="2" ry="2"/><rect class="c c10" x="738" y="18" rx="2" ry="2"/><rect class="c c11" x="738" y="34" rx="2" ry="2"/><rect class="c c12" x="738" y="50" rx="2" ry="2"/><rect class="c c13" x="738" y="66" rx="2" ry="2"/><rect class="c c14" x="738" y="82" rx="2" ry="2"/><rect class="c c15" x="738" y="98" rx="2" ry="2"/><rect class="c c16" x="754" y="2" rx="2" ry="2"/><rect class="c c17" x="754" y="18" rx="2" ry="2"/><rect class="c c18" x="754" y="34" rx="2" ry="2"/><rect class="c c19" x="754" y="50" rx="2" ry="2"/><rect class="c c1a" x="754" y="66" rx="2" ry="2"/><rect class="c c1b" x="754" y="82" rx="2" ry="2"/><rect class="c c1c" x="754" y="98" rx="2" ry="2"/><rect class="c c1d" x="770" y="2" rx="2" ry="2"/><rect class="c c1e" x="770" y="18" rx="2" ry="2"/><rect class="c c1f" x="770" y="34" rx="2" ry="2"/><rect class="c c1g" x="770" y="50" rx="2" ry="2"/><rect class="c c1h" x="770" y="66" rx="2" ry="2"/><rect class="c c1i" x="770" y="82" rx="2" ry="2"/><rect class="c c1j" x="770" y="98" rx="2" ry="2"/><rect class="c c1k" x="786" y="2" rx="2" ry="2"/><rect class="c c1l" x="786" y="18" rx="2" ry="2"/><rect class="c c1m" x="786" y="34" rx="2" ry="2"/><rect class="c c1n" x="786" y="50" rx="2" ry="2"/><rect class="c c1o" x="786" y="66" rx="2" ry="2"/><rect class="c c1p" x="786" y="82" rx="2" ry="2"/><rect class="c c1q" x="786" y="98" rx="2" ry="2"/><rect class="c c1r" x="802" y="2" rx="2" ry="2"/><rect class="c c1s" x="802" y="18" rx="2" ry="2"/><rect class="c c1t" x="802" y="34" rx="2" ry="2"/><rect class="c c1u" x="802" y="50" rx="2" ry="2"/><rect class="c c1v" x="802" y="66" rx="2" ry="2"/><rect class="c c1w" x="802" y="82" rx="2" ry="2"/><rect class="c c1x" x="802" y="98" rx="2" ry="2"/><rect class="c c1y" x="818" y="2" rx="2" ry="2"/><rect class="c c1z" x="818" y="18" rx="2" ry="2"/><rect class="c c20" x="818" y="34" rx="2" ry="2"/><rect class="c c21" x="818" y="50" rx="2" ry="2"/><rect class="c c22" x="818" y="66" rx="2" ry="2"/><rect class="c c23" x="818" y="82" rx="2" ry="2"/><rect class="c c24" x="818" y="98" rx="2" ry="2"/><rect class="c c25" x="834" y="2" rx="2" ry="2"/><rect class="c c26" x="834" y="18" rx="2" ry="2"/><rect class="u u0" height="12" width="440.7" x="0.0" y="144"/><rect class="u u1" height="12" width="11.3" x="440.1" y="144"/><rect class="u u2" height="12" width="11.3" x="450.8" y="144"/><rect class="u u3" height="12" width="22.1" x="461.6" y="144"/><rect class="u u4" height="12" width="11.3" x="483.0" y="144"/><rect class="u u5" height="12" width="258.2" x="493.8" y="144"/><rect class="u u6" height="12" width="54.3" x="751.4" y="144"/><rect class="u u7" height="12" width="43.5" x="805.1" y="144"/><rect class="s s0" x="0.8" y="0.8" width="14.4" height="14.4" rx="4.5" ry="4.5"/><rect class="s s1" x="1.8" y="1.8" width="12.3" height="12.3" rx="4.1" ry="4.1"/><rect class="s s2" x="2.6" y="2.6" width="10.8" height="10.8" rx="3.6" ry="3.6"/><rect class="s s3" x="3.0" y="3.0" width="9.9" height="9.9" rx="3.3" ry="3.3"/></svg>