<svg viewBox="-16 -32 880 192" width="880" height="192" xmlns="http://www.w3.org/2000/svg"><desc>Generated with https://github.com/Platane/snk</desc><style>:root{--cb:#1b1f230a;--cs:764ba2;--ce:#ebedf0;--c0:#ebedf0;--c1:#9be9a8;--c2:#40c463;--c3:#30a14e;--c4:#216e39}.c{shape-rendering:geometricPrecision;fill:var(--ce);stroke-width:1px;stroke:var(--cb);animation:none 27900ms linear infinite;width:12px;height:12px}@keyframes c0{17.91%{fill:var(--c1)}17.93%,100%{fill:var(--ce)}}.c.c0{fill:var(--c1);animation-name:c0}@keyframes c1{17.55%{fill:var(--c1)}17.57%,100%{fill:var(--ce)}}.c.c1{fill:var(--c1);animation-name:c1}@keyframes c2{11.46%{fill:var(--c1)}11.48%,100%{fill:var(--ce)}}.c.c2{fill:var(--c1);animation-name:c2}@keyframes c3{12.53%{fill:var(--c1)}12.55%,100%{fill:var(--ce)}}.c.c3{fill:var(--c1);animation-name:c3}@keyframes c4{11.82%{fill:var(--c1)}11.84%,100%{fill:var(--ce)}}.c.c4{fill:var(--c1);animation-name:c4}@keyframes c5{12.18%{fill:var(--c1)}12.2%,100%{fill:var(--ce)}}.c.c5{fill:var(--c1);animation-name:c5}@keyframes c6{14.33%{fill:var(--c1)}14.35%,100%{fill:var(--ce)}}.c.c6{fill:var(--c1);animation-name:c6}@keyframes c7{14.69%{fill:var(--c1)}14.71%,100%{fill:var(--ce)}}.c.c7{fill:var(--c1);animation-name:c7}@keyframes c8{68.81%{fill:var(--c2)}68.83%,100%{fill:var(--ce)}}.c.c8{fill:var(--c2);animation-name:c8}@keyframes c9{68.45%{fill:var(--c2)}68.47%,100%{fill:var(--ce)}}.c.c9{fill:var(--c2);animation-name:c9}@keyframes ca{84.58%{fill:var(--c4)}84.6%,100%{fill:var(--ce)}}.c.ca{fill:var(--c4);animation-name:ca}@keyframes cb{24.36%{fill:var(--c1)}24.38%,100%{fill:var(--ce)}}.c.cb{fill:var(--c1);animation-name:cb}@keyframes cc{71.32%{fill:var(--c3)}71.34%,100%{fill:var(--ce)}}.c.cc{fill:var(--c3);animation-name:cc}@keyframes cd{65.94%{fill:var(--c2)}65.96%,100%{fill:var(--ce)}}.c.cd{fill:var(--c2);animation-name:cd}@keyframes ce{25.8%{fill:var(--c1)}25.82%,100%{fill:var(--ce)}}.c.ce{fill:var(--c1);animation-name:ce}@keyframes cf{59.13%{fill:var(--c2)}59.15%,100%{fill:var(--ce)}}.c.cf{fill:var(--c2);animation-name:cf}@keyframes cg{30.1%{fill:var(--c1)}30.12%,100%{fill:var(--ce)}}.c.cg{fill:var(--c1);animation-name:cg}@keyframes ch{60.56%{fill:var(--c2)}60.58%,100%{fill:var(--ce)}}.c.ch{fill:var(--c2);animation-name:ch}@keyframes ci{29.74%{fill:var(--c1)}29.76%,100%{fill:var(--ce)}}.c.ci{fill:var(--c1);animation-name:ci}@keyframes cj{60.92%{fill:var(--c2)}60.94%,100%{fill:var(--ce)}}.c.cj{fill:var(--c2);animation-name:cj}@keyframes ck{28.31%{fill:var(--c1)}28.33%,100%{fill:var(--ce)}}.c.ck{fill:var(--c1);animation-name:ck}@keyframes cl{58.05%{fill:var(--c2)}58.07%,100%{fill:var(--ce)}}.c.cl{fill:var(--c2);animation-name:cl}@keyframes cm{27.59%{fill:var(--c1)}27.61%,100%{fill:var(--ce)}}.c.cm{fill:var(--c1);animation-name:cm}@keyframes cn{27.95%{fill:var(--c1)}27.97%,100%{fill:var(--ce)}}.c.cn{fill:var(--c1);animation-name:cn}@keyframes co{44.79%{fill:var(--c2)}44.81%,100%{fill:var(--ce)}}.c.co{fill:var(--c2);animation-name:co}@keyframes cp{44.43%{fill:var(--c1)}44.45%,100%{fill:var(--ce)}}.c.cp{fill:var(--c1);animation-name:cp}@keyframes cq{80.64%{fill:var(--c4)}80.66%,100%{fill:var(--ce)}}.c.cq{fill:var(--c4);animation-name:cq}@keyframes cr{61.64%{fill:var(--c2)}61.66%,100%{fill:var(--ce)}}.c.cr{fill:var(--c2);animation-name:cr}@keyframes cs{54.11%{fill:var(--c2)}54.13%,100%{fill:var(--ce)}}.c.cs{fill:var(--c2);animation-name:cs}@keyframes ct{53.75%{fill:var(--c2)}53.77%,100%{fill:var(--ce)}}.c.ct{fill:var(--c2);animation-name:ct}@keyframes cu{55.55%{fill:var(--c2)}55.57%,100%{fill:var(--ce)}}.c.cu{fill:var(--c2);animation-name:cu}@keyframes cv{74.54%{fill:var(--c3)}74.56%,100%{fill:var(--ce)}}.c.cv{fill:var(--c3);animation-name:cv}@keyframes cw{47.66%{fill:var(--c2)}47.68%,100%{fill:var(--ce)}}.c.cw{fill:var(--c2);animation-name:cw}@keyframes cx{63.07%{fill:var(--c2)}63.09%,100%{fill:var(--ce)}}.c.cx{fill:var(--c2);animation-name:cx}@keyframes cy{62%{fill:var(--c2)}62.02%,100%{fill:var(--ce)}}.c.cy{fill:var(--c2);animation-name:cy}@keyframes cz{76.69%{fill:var(--c3)}76.71%,100%{fill:var(--ce)}}.c.cz{fill:var(--c3);animation-name:cz}@keyframes c10{53.4%{fill:var(--c2)}53.42%,100%{fill:var(--ce)}}.c.c10{fill:var(--c2);animation-name:c10}@keyframes c11{55.9%{fill:var(--c2)}55.92%,100%{fill:var(--ce)}}.c.c11{fill:var(--c2);animation-name:c11}@keyframes c12{74.9%{fill:var(--c3)}74.92%,100%{fill:var(--ce)}}.c.c12{fill:var(--c3);animation-name:c12}@keyframes c13{48.02%{fill:var(--c1)}48.04%,100%{fill:var(--ce)}}.c.c13{fill:var(--c1);animation-name:c13}@keyframes c14{48.38%{fill:var(--c2)}48.4%,100%{fill:var(--ce)}}.c.c14{fill:var(--c2);animation-name:c14}@keyframes c15{62.36%{fill:var(--c2)}62.38%,100%{fill:var(--ce)}}.c.c15{fill:var(--c2);animation-name:c15}@keyframes c16{51.96%{fill:var(--c2)}51.98%,100%{fill:var(--ce)}}.c.c16{fill:var(--c2);animation-name:c16}@keyframes c17{51.6%{fill:var(--c2)}51.62%,100%{fill:var(--ce)}}.c.c17{fill:var(--c2);animation-name:c17}@keyframes c18{51.24%{fill:var(--c2)}51.26%,100%{fill:var(--ce)}}.c.c18{fill:var(--c2);animation-name:c18}@keyframes c19{75.26%{fill:var(--c3)}75.28%,100%{fill:var(--ce)}}.c.c19{fill:var(--c3);animation-name:c19}@keyframes c1a{79.2%{fill:var(--c4)}79.22%,100%{fill:var(--ce)}}.c.c1a{fill:var(--c4);animation-name:c1a}@keyframes c1b{48.74%{fill:var(--c2)}48.76%,100%{fill:var(--ce)}}.c.c1b{fill:var(--c2);animation-name:c1b}@keyframes c1c{34.04%{fill:var(--c1)}34.06%,100%{fill:var(--ce)}}.c.c1c{fill:var(--c1);animation-name:c1c}@keyframes c1d{52.32%{fill:var(--c2)}52.34%,100%{fill:var(--ce)}}.c.c1d{fill:var(--c2);animation-name:c1d}@keyframes c1e{38.34%{fill:var(--c1)}38.36%,100%{fill:var(--ce)}}.c.c1e{fill:var(--c1);animation-name:c1e}@keyframes c1f{38.7%{fill:var(--c1)}38.72%,100%{fill:var(--ce)}}.c.c1f{fill:var(--c1);animation-name:c1f}@keyframes c1g{78.48%{fill:var(--c4)}78.5%,100%{fill:var(--ce)}}.c.c1g{fill:var(--c4);animation-name:c1g}@keyframes c1h{49.45%{fill:var(--c2)}49.47%,100%{fill:var(--ce)}}.c.c1h{fill:var(--c2);animation-name:c1h}@keyframes c1i{34.76%{fill:var(--c1)}34.78%,100%{fill:var(--ce)}}.c.c1i{fill:var(--c1);animation-name:c1i}@keyframes c1j{34.4%{fill:var(--c1)}34.42%,100%{fill:var(--ce)}}.c.c1j{fill:var(--c1);animation-name:c1j}@keyframes c1k{36.91%{fill:var(--c1)}36.93%,100%{fill:var(--ce)}}.c.c1k{fill:var(--c1);animation-name:c1k}@keyframes c1l{36.55%{fill:var(--c1)}36.57%,100%{fill:var(--ce)}}.c.c1l{fill:var(--c1);animation-name:c1l}.u{transform-origin:0 0;transform:scale(0,1);animation:none linear 27900ms infinite}@keyframes u0{11.46%{transform:scale(0.000,1)}11.48%,11.82%{transform:scale(0.043,1)}11.84%,12.18%{transform:scale(0.087,1)}12.2%,12.53%{transform:scale(0.130,1)}12.55%,14.33%{transform:scale(0.174,1)}14.35%,14.69%{transform:scale(0.217,1)}14.71%,17.55%{transform:scale(0.261,1)}17.57%,17.91%{transform:scale(0.304,1)}17.93%,24.36%{transform:scale(0.348,1)}24.38%,25.8%{transform:scale(0.391,1)}25.82%,27.59%{transform:scale(0.435,1)}27.61%,27.95%{transform:scale(0.478,1)}27.97%,28.31%{transform:scale(0.522,1)}28.33%,29.74%{transform:scale(0.565,1)}29.76%,30.1%{transform:scale(0.609,1)}30.12%,34.04%{transform:scale(0.652,1)}34.06%,34.4%{transform:scale(0.696,1)}34.42%,34.76%{transform:scale(0.739,1)}34.78%,36.55%{transform:scale(0.783,1)}36.57%,36.91%{transform:scale(0.826,1)}36.93%,38.34%{transform:scale(0.870,1)}38.36%,38.7%{transform:scale(0.913,1)}38.72%,44.43%{transform:scale(0.957,1)}44.45%,100%{transform:scale(1.000,1)}}.u.u0{fill:var(--c1);animation-name:u0;transform-origin:0.0px 0}@keyframes u1{44.79%{transform:scale(0.000,1)}44.81%,47.66%{transform:scale(0.500,1)}47.68%,100%{transform:scale(1.000,1)}}.u.u1{fill:var(--c2);animation-name:u1;transform-origin:336.3px 0}@keyframes u2{48.02%{transform:scale(0.000,1)}48.04%,100%{transform:scale(1.000,1)}}.u.u2{fill:var(--c1);animation-name:u2;transform-origin:365.5px 0}@keyframes u3{48.38%{transform:scale(0.000,1)}48.4%,48.74%{transform:scale(0.043,1)}48.76%,49.45%{transform:scale(0.087,1)}49.47%,51.24%{transform:scale(0.130,1)}51.26%,51.6%{transform:scale(0.174,1)}51.62%,51.96%{transform:scale(0.217,1)}51.98%,52.32%{transform:scale(0.261,1)}52.34%,53.4%{transform:scale(0.304,1)}53.42%,53.75%{transform:scale(0.348,1)}53.77%,54.11%{transform:scale(0.391,1)}54.13%,55.55%{transform:scale(0.435,1)}55.57%,55.9%{transform:scale(0.478,1)}55.92%,58.05%{transform:scale(0.522,1)}58.07%,59.13%{transform:scale(0.565,1)}59.15%,60.56%{transform:scale(0.609,1)}60.58%,60.92%{transform:scale(0.652,1)}60.94%,61.64%{transform:scale(0.696,1)}61.66%,62%{transform:scale(0.739,1)}62.02%,62.36%{transform:scale(0.783,1)}62.38%,63.07%{transform:scale(0.826,1)}63.09%,65.94%{transform:scale(0.870,1)}65.96%,68.45%{transform:scale(0.913,1)}68.47%,68.81%{transform:scale(0.957,1)}68.83%,100%{transform:scale(1.000,1)}}.u.u3{fill:var(--c2);animation-name:u3;transform-origin:380.1px 0}@keyframes u4{71.32%{transform:scale(0.000,1)}71.34%,74.54%{transform:scale(0.200,1)}74.56%,74.9%{transform:scale(0.400,1)}74.92%,75.26%{transform:scale(0.600,1)}75.28%,76.69%{transform:scale(0.800,1)}76.71%,100%{transform:scale(1.000,1)}}.u.u4{fill:var(--c3);animation-name:u4;transform-origin:716.4px 0}@keyframes u5{78.48%{transform:scale(0.000,1)}78.5%,79.2%{transform:scale(0.250,1)}79.22%,80.64%{transform:scale(0.500,1)}80.66%,84.58%{transform:scale(0.750,1)}84.6%,100%{transform:scale(1.000,1)}}.u.u5{fill:var(--c4);animation-name:u5;transform-origin:789.5px 0}.s{shape-rendering:geometricPrecision;fill:var(--cs);animation:none linear 27900ms infinite}@keyframes s0{0%,99.64%{transform:translate(0px,-16px)}0.36%{transform:translate(0px,0px)}11.11%{transform:translate(480px,0px)}11.47%{transform:translate(480px,16px)}11.83%{transform:translate(496px,16px)}12.19%{transform:translate(496px,32px)}12.54%{transform:translate(480px,32px)}12.9%{transform:translate(480px,48px)}14.34%{transform:translate(544px,48px)}14.7%{transform:translate(544px,64px)}17.2%{transform:translate(432px,64px)}17.56%{transform:translate(432px,80px)}17.92%{transform:translate(416px,80px)}18.28%{transform:translate(416px,64px)}22.94%{transform:translate(624px,64px)}24.37%{transform:translate(624px,0px)}25.45%{transform:translate(672px,0px)}25.81%{transform:translate(672px,16px)}27.6%,45.52%,54.84%{transform:translate(752px,16px)}27.96%,46.59%{transform:translate(752px,32px)}28.67%,58.78%{transform:translate(720px,32px)}29.75%{transform:translate(720px,80px)}30.11%{transform:translate(704px,80px)}30.47%{transform:translate(704px,64px)}31.18%,44.09%,73.48%{transform:translate(736px,64px)}32.26%,43.01%{transform:translate(736px,112px)}33.69%{transform:translate(800px,112px)}34.05%{transform:translate(800px,96px)}34.41%,40.86%{transform:translate(816px,96px)}34.77%,49.1%{transform:translate(816px,80px)}35.13%{transform:translate(832px,80px)}36.92%{transform:translate(832px,0px)}37.28%{transform:translate(848px,0px)}37.63%{transform:translate(848px,16px)}38.35%,52.69%,77.78%{transform:translate(816px,16px)}38.71%{transform:translate(816px,32px)}39.07%,50.54%{transform:translate(832px,32px)}40.5%{transform:translate(832px,96px)}41.22%{transform:translate(816px,112px)}44.44%,47.31%,80.29%{transform:translate(752px,64px)}45.88%,57.35%{transform:translate(736px,16px)}46.24%{transform:translate(736px,32px)}48.03%{transform:translate(784px,64px)}48.39%,62.72%{transform:translate(784px,80px)}49.46%{transform:translate(816px,64px)}49.82%{transform:translate(832px,64px)}51.25%{transform:translate(800px,32px)}51.97%,76.34%{transform:translate(800px,0px)}52.33%{transform:translate(816px,0px)}53.76%,55.2%{transform:translate(768px,16px)}54.12%{transform:translate(768px,0px)}54.48%{transform:translate(752px,0px)}55.56%{transform:translate(768px,32px)}55.91%{transform:translate(784px,32px)}56.27%,77.06%{transform:translate(784px,16px)}58.06%,81.72%{transform:translate(736px,48px)}58.42%{transform:translate(720px,48px)}59.14%{transform:translate(704px,32px)}60.57%{transform:translate(704px,96px)}62.37%{transform:translate(784px,96px)}63.08%{transform:translate(768px,80px)}63.44%{transform:translate(768px,96px)}66.31%{transform:translate(640px,96px)}67.74%{transform:translate(640px,32px)}68.82%{transform:translate(592px,32px)}69.53%{transform:translate(592px,64px)}70.97%{transform:translate(656px,64px)}71.33%{transform:translate(656px,80px)}73.12%,81%{transform:translate(736px,80px)}74.19%{transform:translate(768px,64px)}74.55%{transform:translate(768px,48px)}75.27%,78.85%{transform:translate(800px,48px)}76.7%{transform:translate(784px,0px)}78.49%{transform:translate(816px,48px)}79.21%{transform:translate(800px,64px)}80.65%{transform:translate(752px,80px)}96.42%{transform:translate(80px,48px)}97.49%{transform:translate(80px,0px)}97.85%{transform:translate(64px,0px)}98.21%{transform:translate(64px,-16px)}}.s.s0{transform:translate(0px,-16px);animation-name:s0}@keyframes s1{0%,99.64%{transform:translate(16px,-16px)}0.36%{transform:translate(0px,-16px)}0.72%{transform:translate(0px,0px)}11.47%{transform:translate(480px,0px)}11.83%{transform:translate(480px,16px)}12.19%{transform:translate(496px,16px)}12.54%{transform:translate(496px,32px)}12.9%{transform:translate(480px,32px)}13.26%{transform:translate(480px,48px)}14.7%{transform:translate(544px,48px)}15.05%{transform:translate(544px,64px)}17.56%{transform:translate(432px,64px)}17.92%{transform:translate(432px,80px)}18.28%{transform:translate(416px,80px)}18.64%{transform:translate(416px,64px)}23.3%{transform:translate(624px,64px)}24.73%{transform:translate(624px,0px)}25.81%{transform:translate(672px,0px)}26.16%{transform:translate(672px,16px)}27.96%,45.88%,55.2%{transform:translate(752px,16px)}28.32%,46.95%{transform:translate(752px,32px)}29.03%,59.14%{transform:translate(720px,32px)}30.11%{transform:translate(720px,80px)}30.47%{transform:translate(704px,80px)}30.82%{transform:translate(704px,64px)}31.54%,44.44%,73.84%{transform:translate(736px,64px)}32.62%,43.37%{transform:translate(736px,112px)}34.05%{transform:translate(800px,112px)}34.41%{transform:translate(800px,96px)}34.77%,41.22%{transform:translate(816px,96px)}35.13%,49.46%{transform:translate(816px,80px)}35.48%{transform:translate(832px,80px)}37.28%{transform:translate(832px,0px)}37.63%{transform:translate(848px,0px)}37.99%{transform:translate(848px,16px)}38.71%,53.05%,78.14%{transform:translate(816px,16px)}39.07%{transform:translate(816px,32px)}39.43%,50.9%{transform:translate(832px,32px)}40.86%{transform:translate(832px,96px)}41.58%{transform:translate(816px,112px)}44.8%,47.67%,80.65%{transform:translate(752px,64px)}46.24%,57.71%{transform:translate(736px,16px)}46.59%{transform:translate(736px,32px)}48.39%{transform:translate(784px,64px)}48.75%,63.08%{transform:translate(784px,80px)}49.82%{transform:translate(816px,64px)}50.18%{transform:translate(832px,64px)}51.61%{transform:translate(800px,32px)}52.33%,76.7%{transform:translate(800px,0px)}52.69%{transform:translate(816px,0px)}54.12%,55.56%{transform:translate(768px,16px)}54.48%{transform:translate(768px,0px)}54.84%{transform:translate(752px,0px)}55.91%{transform:translate(768px,32px)}56.27%{transform:translate(784px,32px)}56.63%,77.42%{transform:translate(784px,16px)}58.42%,82.08%{transform:translate(736px,48px)}58.78%{transform:translate(720px,48px)}59.5%{transform:translate(704px,32px)}60.93%{transform:translate(704px,96px)}62.72%{transform:translate(784px,96px)}63.44%{transform:translate(768px,80px)}63.8%{transform:translate(768px,96px)}66.67%{transform:translate(640px,96px)}68.1%{transform:translate(640px,32px)}69.18%{transform:translate(592px,32px)}69.89%{transform:translate(592px,64px)}71.33%{transform:translate(656px,64px)}71.68%{transform:translate(656px,80px)}73.48%,81.36%{transform:translate(736px,80px)}74.55%{transform:translate(768px,64px)}74.91%{transform:translate(768px,48px)}75.63%,79.21%{transform:translate(800px,48px)}77.06%{transform:translate(784px,0px)}78.85%{transform:translate(816px,48px)}79.57%{transform:translate(800px,64px)}81%{transform:translate(752px,80px)}96.77%{transform:translate(80px,48px)}97.85%{transform:translate(80px,0px)}98.21%{transform:translate(64px,0px)}98.57%{transform:translate(64px,-16px)}}.s.s1{transform:translate(16px,-16px);animation-name:s1}@keyframes s2{0%,99.64%{transform:translate(32px,-16px)}0.72%{transform:translate(0px,-16px)}1.08%{transform:translate(0px,0px)}11.83%{transform:translate(480px,0px)}12.19%{transform:translate(480px,16px)}12.54%{transform:translate(496px,16px)}12.9%{transform:translate(496px,32px)}13.26%{transform:translate(480px,32px)}13.62%{transform:translate(480px,48px)}15.05%{transform:translate(544px,48px)}15.41%{transform:translate(544px,64px)}17.92%{transform:translate(432px,64px)}18.28%{transform:translate(432px,80px)}18.64%{transform:translate(416px,80px)}19%{transform:translate(416px,64px)}23.66%{transform:translate(624px,64px)}25.09%{transform:translate(624px,0px)}26.16%{transform:translate(672px,0px)}26.52%{transform:translate(672px,16px)}28.32%,46.24%,55.56%{transform:translate(752px,16px)}28.67%,47.31%{transform:translate(752px,32px)}29.39%,59.5%{transform:translate(720px,32px)}30.47%{transform:translate(720px,80px)}30.82%{transform:translate(704px,80px)}31.18%{transform:translate(704px,64px)}31.9%,44.8%,74.19%{transform:translate(736px,64px)}32.97%,43.73%{transform:translate(736px,112px)}34.41%{transform:translate(800px,112px)}34.77%{transform:translate(800px,96px)}35.13%,41.58%{transform:translate(816px,96px)}35.48%,49.82%{transform:translate(816px,80px)}35.84%{transform:translate(832px,80px)}37.63%{transform:translate(832px,0px)}37.99%{transform:translate(848px,0px)}38.35%{transform:translate(848px,16px)}39.07%,53.41%,78.49%{transform:translate(816px,16px)}39.43%{transform:translate(816px,32px)}39.78%,51.25%{transform:translate(832px,32px)}41.22%{transform:translate(832px,96px)}41.94%{transform:translate(816px,112px)}45.16%,48.03%,81%{transform:translate(752px,64px)}46.59%,58.06%{transform:translate(736px,16px)}46.95%{transform:translate(736px,32px)}48.75%{transform:translate(784px,64px)}49.1%,63.44%{transform:translate(784px,80px)}50.18%{transform:translate(816px,64px)}50.54%{transform:translate(832px,64px)}51.97%{transform:translate(800px,32px)}52.69%,77.06%{transform:translate(800px,0px)}53.05%{transform:translate(816px,0px)}54.48%,55.91%{transform:translate(768px,16px)}54.84%{transform:translate(768px,0px)}55.2%{transform:translate(752px,0px)}56.27%{transform:translate(768px,32px)}56.63%{transform:translate(784px,32px)}56.99%,77.78%{transform:translate(784px,16px)}58.78%,82.44%{transform:translate(736px,48px)}59.14%{transform:translate(720px,48px)}59.86%{transform:translate(704px,32px)}61.29%{transform:translate(704px,96px)}63.08%{transform:translate(784px,96px)}63.8%{transform:translate(768px,80px)}64.16%{transform:translate(768px,96px)}67.03%{transform:translate(640px,96px)}68.46%{transform:translate(640px,32px)}69.53%{transform:translate(592px,32px)}70.25%{transform:translate(592px,64px)}71.68%{transform:translate(656px,64px)}72.04%{transform:translate(656px,80px)}73.84%,81.72%{transform:translate(736px,80px)}74.91%{transform:translate(768px,64px)}75.27%{transform:translate(768px,48px)}75.99%,79.57%{transform:translate(800px,48px)}77.42%{transform:translate(784px,0px)}79.21%{transform:translate(816px,48px)}79.93%{transform:translate(800px,64px)}81.36%{transform:translate(752px,80px)}97.13%{transform:translate(80px,48px)}98.21%{transform:translate(80px,0px)}98.57%{transform:translate(64px,0px)}98.92%{transform:translate(64px,-16px)}}.s.s2{transform:translate(32px,-16px);animation-name:s2}@keyframes s3{0%,99.64%{transform:translate(48px,-16px)}1.08%{transform:translate(0px,-16px)}1.43%{transform:translate(0px,0px)}12.19%{transform:translate(480px,0px)}12.54%{transform:translate(480px,16px)}12.9%{transform:translate(496px,16px)}13.26%{transform:translate(496px,32px)}13.62%{transform:translate(480px,32px)}13.98%{transform:translate(480px,48px)}15.41%{transform:translate(544px,48px)}15.77%{transform:translate(544px,64px)}18.28%{transform:translate(432px,64px)}18.64%{transform:translate(432px,80px)}19%{transform:translate(416px,80px)}19.35%{transform:translate(416px,64px)}24.01%{transform:translate(624px,64px)}25.45%{transform:translate(624px,0px)}26.52%{transform:translate(672px,0px)}26.88%{transform:translate(672px,16px)}28.67%,46.59%,55.91%{transform:translate(752px,16px)}29.03%,47.67%{transform:translate(752px,32px)}29.75%,59.86%{transform:translate(720px,32px)}30.82%{transform:translate(720px,80px)}31.18%{transform:translate(704px,80px)}31.54%{transform:translate(704px,64px)}32.26%,45.16%,74.55%{transform:translate(736px,64px)}33.33%,44.09%{transform:translate(736px,112px)}34.77%{transform:translate(800px,112px)}35.13%{transform:translate(800px,96px)}35.48%,41.94%{transform:translate(816px,96px)}35.84%,50.18%{transform:translate(816px,80px)}36.2%{transform:translate(832px,80px)}37.99%{transform:translate(832px,0px)}38.35%{transform:translate(848px,0px)}38.71%{transform:translate(848px,16px)}39.43%,53.76%,78.85%{transform:translate(816px,16px)}39.78%{transform:translate(816px,32px)}40.14%,51.61%{transform:translate(832px,32px)}41.58%{transform:translate(832px,96px)}42.29%{transform:translate(816px,112px)}45.52%,48.39%,81.36%{transform:translate(752px,64px)}46.95%,58.42%{transform:translate(736px,16px)}47.31%{transform:translate(736px,32px)}49.1%{transform:translate(784px,64px)}49.46%,63.8%{transform:translate(784px,80px)}50.54%{transform:translate(816px,64px)}50.9%{transform:translate(832px,64px)}52.33%{transform:translate(800px,32px)}53.05%,77.42%{transform:translate(800px,0px)}53.41%{transform:translate(816px,0px)}54.84%,56.27%{transform:translate(768px,16px)}55.2%{transform:translate(768px,0px)}55.56%{transform:translate(752px,0px)}56.63%{transform:translate(768px,32px)}56.99%{transform:translate(784px,32px)}57.35%,78.14%{transform:translate(784px,16px)}59.14%,82.8%{transform:translate(736px,48px)}59.5%{transform:translate(720px,48px)}60.22%{transform:translate(704px,32px)}61.65%{transform:translate(704px,96px)}63.44%{transform:translate(784px,96px)}64.16%{transform:translate(768px,80px)}64.52%{transform:translate(768px,96px)}67.38%{transform:translate(640px,96px)}68.82%{transform:translate(640px,32px)}69.89%{transform:translate(592px,32px)}70.61%{transform:translate(592px,64px)}72.04%{transform:translate(656px,64px)}72.4%{transform:translate(656px,80px)}74.19%,82.08%{transform:translate(736px,80px)}75.27%{transform:translate(768px,64px)}75.63%{transform:translate(768px,48px)}76.34%,79.93%{transform:translate(800px,48px)}77.78%{transform:translate(784px,0px)}79.57%{transform:translate(816px,48px)}80.29%{transform:translate(800px,64px)}81.72%{transform:translate(752px,80px)}97.49%{transform:translate(80px,48px)}98.57%{transform:translate(80px,0px)}98.92%{transform:translate(64px,0px)}99.28%{transform:translate(64px,-16px)}}.s.s3{transform:translate(48px,-16px);animation-name:s3}</style><rect class="c" x="2" y="2" rx="2" ry="2"/><rect class="c" x="2" y="18" rx="2" ry="2"/><rect class="c" x="2" y="34" rx="2" ry="2"/><rect class="c" x="2" y="50" rx="2" ry="2"/><rect class="c" x="2" y="66" rx="2" ry="2"/><rect class="c" x="2" y="82" rx="2" ry="2"/><rect class="c" x="2" y="98" rx="2" ry="2"/><rect class="c" x="18" y="2" rx="2" ry="2"/><rect class="c" x="18" y="18" rx="2" ry="2"/><rect class="c" x="18" y="34" rx="2" ry="2"/><rect class="c" x="18" y="50" rx="2" ry="2"/><rect class="c" x="18" y="66" rx="2" ry="2"/><rect class="c" x="18" y="82" rx="2" ry="2"/><rect class="c" x="18" y="98" rx="2" ry="2"/><rect class="c" x="34" y="2" rx="2" ry="2"/><rect class="c" x="34" y="18" rx="2" ry="2"/><rect class="c" x="34" y="34" rx="2" ry="2"/><rect class="c" x="34" y="50" rx="2" ry="2"/><rect class="c" x="34" y="66" rx="2" ry="2"/><rect class="c" x="34" y="82" rx="2" ry="2"/><rect class="c" x="34" y="98" rx="2" ry="2"/><rect class="c" x="50" y="2" rx="2" ry="2"/><rect class="c" x="50" y="18" rx="2" ry="2"/><rect class="c" x="50" y="34" rx="2" ry="2"/><rect class="c" x="50" y="50" rx="2" ry="2"/><rect class="c" x="50" y="66" rx="2" ry="2"/><rect class="c" x="50" y="82" rx="2" ry="2"/><rect class="c" x="50" y="98" rx="2" ry="2"/><rect class="c" x="66" y="2" rx="2" ry="2"/><rect class="c" x="66" y="18" rx="2" ry="2"/><rect class="c" x="66" y="34" rx="2" ry="2"/><rect class="c" x="66" y="50" rx="2" ry="2"/><rect class="c" x="66" y="66" rx="2" ry="2"/><rect class="c" x="66" y="82" rx="2" ry="2"/><rect class="c" x="66" y="98" rx="2" ry="2"/><rect class="c" x="82" y="2" rx="2" ry="2"/><rect class="c" x="82" y="18" rx="2" ry="2"/><rect class="c" x="82" y="34" rx="2" ry="2"/><rect class="c" x="82" y="50" rx="2" ry="2"/><rect class="c" x="82" y="66" rx="2" ry="2"/><rect class="c" x="82" y="82" rx="2" ry="2"/><rect class="c" x="82" y="98" rx="2" ry="2"/><rect class="c" x="98" y="2" rx="2" ry="2"/><rect class="c" x="98" y="18" rx="2" ry="2"/><rect class="c" x="98" y="34" rx="2" ry="2"/><rect class="c" x="98" y="50" rx="2" ry="2"/><rect class="c" x="98" y="66" rx="2" ry="2"/><rect class="c" x="98" y="82" rx="2" ry="2"/><rect class="c" x="98" y="98" rx="2" ry="2"/><rect class="c" x="114" y="2" rx="2" ry="2"/><rect class="c" x="114" y="18" rx="2" ry="2"/><rect class="c" x="114" y="34" rx="2" ry="2"/><rect class="c" x="114" y="50" rx="2" ry="2"/><rect class="c" x="114" y="66" rx="2" ry="2"/><rect class="c" x="114" y="82" rx="2" ry="2"/><rect class="c" x="114" y="98" rx="2" ry="2"/><rect class="c" x="130" y="2" rx="2" ry="2"/><rect class="c" x="130" y="18" rx="2" ry="2"/><rect class="c" x="130" y="34" rx="2" ry="2"/><rect class="c" x="130" y="50" rx="2" ry="2"/><rect class="c" x="130" y="66" rx="2" ry="2"/><rect class="c" x="130" y="82" rx="2" ry="2"/><rect class="c" x="130" y="98" rx="2" ry="2"/><rect class="c" x="146" y="2" rx="2" ry="2"/><rect class="c" x="146" y="18" rx="2" ry="2"/><rect class="c" x="146" y="34" rx="2" ry="2"/><rect class="c" x="146" y="50" rx="2" ry="2"/><rect class="c" x="146" y="66" rx="2" ry="2"/><rect class="c" x="146" y="82" rx="2" ry="2"/><rect class="c" x="146" y="98" rx="2" ry="2"/><rect class="c" x="162" y="2" rx="2" ry="2"/><rect class="c" x="162" y="18" rx="2" ry="2"/><rect class="c" x="162" y="34" rx="2" ry="2"/><rect class="c" x="162" y="50" rx="2" ry="2"/><rect class="c" x="162" y="66" rx="2" ry="2"/><rect class="c" x="162" y="82" rx="2" ry="2"/><rect class="c" x="162" y="98" rx="2" ry="2"/><rect class="c" x="178" y="2" rx="2" ry="2"/><rect class="c" x="178" y="18" rx="2" ry="2"/><rect class="c" x="178" y="34" rx="2" ry="2"/><rect class="c" x="178" y="50" rx="2" ry="2"/><rect class="c" x="178" y="66" rx="2" ry="2"/><rect class="c" x="178" y="82" rx="2" ry="2"/><rect class="c" x="178" y="98" rx="2" ry="2"/><rect class="c" x="194" y="2" rx="2" ry="2"/><rect class="c" x="194" y="18" rx="2" ry="2"/><rect class="c" x="194" y="34" rx="2" ry="2"/><rect class="c" x="194" y="50" rx="2" ry="2"/><rect class="c" x="194" y="66" rx="2" ry="2"/><rect class="c" x="194" y="82" rx="2" ry="2"/><rect class="c" x="194" y="98" rx="2" ry="2"/><rect class="c" x="210" y="2" rx="2" ry="2"/><rect class="c" x="210" y="18" rx="2" ry="2"/><rect class="c" x="210" y="34" rx="2" ry="2"/><rect class="c" x="210" y="50" rx="2" ry="2"/><rect class="c" x="210" y="66" rx="2" ry="2"/><rect class="c" x="210" y="82" rx="2" ry="2"/><rect class="c" x="210" y="98" rx="2" ry="2"/><rect class="c" x="226" y="2" rx="2" ry="2"/><rect class="c" x="226" y="18" rx="2" ry="2"/><rect class="c" x="226" y="34" rx="2" ry="2"/><rect class="c" x="226" y="50" rx="2" ry="2"/><rect class="c" x="226" y="66" rx="2" ry="2"/><rect class="c" x="226" y="82" rx="2" ry="2"/><rect class="c" x="226" y="98" rx="2" ry="2"/><rect class="c" x="242" y="2" rx="2" ry="2"/><rect class="c" x="242" y="18" rx="2" ry="2"/><rect class="c" x="242" y="34" rx="2" ry="2"/><rect class="c" x="242" y="50" rx="2" ry="2"/><rect class="c" x="242" y="66" rx="2" ry="2"/><rect class="c" x="242" y="82" rx="2" ry="2"/><rect class="c" x="242" y="98" rx="2" ry="2"/><rect class="c" x="258" y="2" rx="2" ry="2"/><rect class="c" x="258" y="18" rx="2" ry="2"/><rect class="c" x="258" y="34" rx="2" ry="2"/><rect class="c" x="258" y="50" rx="2" ry="2"/><rect class="c" x="258" y="66" rx="2" ry="2"/><rect class="c" x="258" y="82" rx="2" ry="2"/><rect class="c" x="258" y="98" rx="2" ry="2"/><rect class="c" x="274" y="2" rx="2" ry="2"/><rect class="c" x="274" y="18" rx="2" ry="2"/><rect class="c" x="274" y="34" rx="2" ry="2"/><rect class="c" x="274" y="50" rx="2" ry="2"/><rect class="c" x="274" y="66" rx="2" ry="2"/><rect class="c" x="274" y="82" rx="2" ry="2"/><rect class="c" x="274" y="98" rx="2" ry="2"/><rect class="c" x="290" y="2" rx="2" ry="2"/><rect class="c" x="290" y="18" rx="2" ry="2"/><rect class="c" x="290" y="34" rx="2" ry="2"/><rect class="c" x="290" y="50" rx="2" ry="2"/><rect class="c" x="290" y="66" rx="2" ry="2"/><rect class="c" x="290" y="82" rx="2" ry="2"/><rect class="c" x="290" y="98" rx="2" ry="2"/><rect class="c" x="306" y="2" rx="2" ry="2"/><rect class="c" x="306" y="18" rx="2" ry="2"/><rect class="c" x="306" y="34" rx="2" ry="2"/><rect class="c" x="306" y="50" rx="2" ry="2"/><rect class="c" x="306" y="66" rx="2" ry="2"/><rect class="c" x="306" y="82" rx="2" ry="2"/><rect class="c" x="306" y="98" rx="2" ry="2"/><rect class="c" x="322" y="2" rx="2" ry="2"/><rect class="c" x="322" y="18" rx="2" ry="2"/><rect class="c" x="322" y="34" rx="2" ry="2"/><rect class="c" x="322" y="50" rx="2" ry="2"/><rect class="c" x="322" y="66" rx="2" ry="2"/><rect class="c" x="322" y="82" rx="2" ry="2"/><rect class="c" x="322" y="98" rx="2" ry="2"/><rect class="c" x="338" y="2" rx="2" ry="2"/><rect class="c" x="338" y="18" rx="2" ry="2"/><rect class="c" x="338" y="34" rx="2" ry="2"/><rect class="c" x="338" y="50" rx="2" ry="2"/><rect class="c" x="338" y="66" rx="2" ry="2"/><rect class="c" x="338" y="82" rx="2" ry="2"/><rect class="c" x="338" y="98" rx="2" ry="2"/><rect class="c" x="354" y="2" rx="2" ry="2"/><rect class="c" x="354" y="18" rx="2" ry="2"/><rect class="c" x="354" y="34" rx="2" ry="2"/><rect class="c" x="354" y="50" rx="2" ry="2"/><rect class="c" x="354" y="66" rx="2" ry="2"/><rect class="c" x="354" y="82" rx="2" ry="2"/><rect class="c" x="354" y="98" rx="2" ry="2"/><rect class="c" x="370" y="2" rx="2" ry="2"/><rect class="c" x="370" y="18" rx="2" ry="2"/><rect class="c" x="370" y="34" rx="2" ry="2"/><rect class="c" x="370" y="50" rx="2" ry="2"/><rect class="c" x="370" y="66" rx="2" ry="2"/><rect class="c" x="370" y="82" rx="2" ry="2"/><rect class="c" x="370" y="98" rx="2" ry="2"/><rect class="c" x="386" y="2" rx="2" ry="2"/><rect class="c" x="386" y="18" rx="2" ry="2"/><rect class="c" x="386" y="34" rx="2" ry="2"/><rect class="c" x="386" y="50" rx="2" ry="2"/><rect class="c" x="386" y="66" rx="2" ry="2"/><rect class="c" x="386" y="82" rx="2" ry="2"/><rect class="c" x="386" y="98" rx="2" ry="2"/><rect class="c" x="402" y="2" rx="2" ry="2"/><rect class="c" x="402" y="18" rx="2" ry="2"/><rect class="c" x="402" y="34" rx="2" ry="2"/><rect class="c" x="402" y="50" rx="2" ry="2"/><rect class="c" x="402" y="66" rx="2" ry="2"/><rect class="c" x="402" y="82" rx="2" ry="2"/><rect class="c" x="402" y="98" rx="2" ry="2"/><rect class="c" x="418" y="2" rx="2" ry="2"/><rect class="c" x="418" y="18" rx="2" ry="2"/><rect class="c" x="418" y="34" rx="2" ry="2"/><rect class="c" x="418" y="50" rx="2" ry="2"/><rect class="c" x="418" y="66" rx="2" ry="2"/><rect class="c c0" x="418" y="82" rx="2" ry="2"/><rect class="c" x="418" y="98" rx="2" ry="2"/><rect class="c" x="434" y="2" rx="2" ry="2"/><rect class="c" x="434" y="18" rx="2" ry="2"/><rect class="c" x="434" y="34" rx="2" ry="2"/><rect class="c" x="434" y="50" rx="2" ry="2"/><rect class="c" x="434" y="66" rx="2" ry="2"/><rect class="c c1" x="434" y="82" rx="2" ry="2"/><rect class="c" x="434" y="98" rx="2" ry="2"/><rect class="c" x="450" y="2" rx="2" ry="2"/><rect class="c" x="450" y="18" rx="2" ry="2"/><rect class="c" x="450" y="34" rx="2" ry="2"/><rect class="c" x="450" y="50" rx="2" ry="2"/><rect class="c" x="450" y="66" rx="2" ry="2"/><rect class="c" x="450" y="82" rx="2" ry="2"/><rect class="c" x="450" y="98" rx="2" ry="2"/><rect class="c" x="466" y="2" rx="2" ry="2"/><rect class="c" x="466" y="18" rx="2" ry="2"/><rect class="c" x="466" y="34" rx="2" ry="2"/><rect class="c" x="466" y="50" rx="2" ry="2"/><rect class="c" x="466" y="66" rx="2" ry="2"/><rect class="c" x="466" y="82" rx="2" ry="2"/><rect class="c" x="466" y="98" rx="2" ry="2"/><rect class="c" x="482" y="2" rx="2" ry="2"/><rect class="c c2" x="482" y="18" rx="2" ry="2"/><rect class="c c3" x="482" y="34" rx="2" ry="2"/><rect class="c" x="482" y="50" rx="2" ry="2"/><rect class="c" x="482" y="66" rx="2" ry="2"/><rect class="c" x="482" y="82" rx="2" ry="2"/><rect class="c" x="482" y="98" rx="2" ry="2"/><rect class="c" x="498" y="2" rx="2" ry="2"/><rect class="c c4" x="498" y="18" rx="2" ry="2"/><rect class="c c5" x="498" y="34" rx="2" ry="2"/><rect class="c" x="498" y="50" rx="2" ry="2"/><rect class="c" x="498" y="66" rx="2" ry="2"/><rect class="c" x="498" y="82" rx="2" ry="2"/><rect class="c" x="498" y="98" rx="2" ry="2"/><rect class="c" x="514" y="2" rx="2" ry="2"/><rect class="c" x="514" y="18" rx="2" ry="2"/><rect class="c" x="514" y="34" rx="2" ry="2"/><rect class="c" x="514" y="50" rx="2" ry="2"/><rect class="c" x="514" y="66" rx="2" ry="2"/><rect class="c" x="514" y="82" rx="2" ry="2"/><rect class="c" x="514" y="98" rx="2" ry="2"/><rect class="c" x="530" y="2" rx="2" ry="2"/><rect class="c" x="530" y="18" rx="2" ry="2"/><rect class="c" x="530" y="34" rx="2" ry="2"/><rect class="c" x="530" y="50" rx="2" ry="2"/><rect class="c" x="530" y="66" rx="2" ry="2"/><rect class="c" x="530" y="82" rx="2" ry="2"/><rect class="c" x="530" y="98" rx="2" ry="2"/><rect class="c" x="546" y="2" rx="2" ry="2"/><rect class="c" x="546" y="18" rx="2" ry="2"/><rect class="c" x="546" y="34" rx="2" ry="2"/><rect class="c c6" x="546" y="50" rx="2" ry="2"/><rect class="c c7" x="546" y="66" rx="2" ry="2"/><rect class="c" x="546" y="82" rx="2" ry="2"/><rect class="c" x="546" y="98" rx="2" ry="2"/><rect class="c" x="562" y="2" rx="2" ry="2"/><rect class="c" x="562" y="18" rx="2" ry="2"/><rect class="c" x="562" y="34" rx="2" ry="2"/><rect class="c" x="562" y="50" rx="2" ry="2"/><rect class="c" x="562" y="66" rx="2" ry="2"/><rect class="c" x="562" y="82" rx="2" ry="2"/><rect class="c" x="562" y="98" rx="2" ry="2"/><rect class="c" x="578" y="2" rx="2" ry="2"/><rect class="c" x="578" y="18" rx="2" ry="2"/><rect class="c" x="578" y="34" rx="2" ry="2"/><rect class="c" x="578" y="50" rx="2" ry="2"/><rect class="c" x="578" y="66" rx="2" ry="2"/><rect class="c" x="578" y="82" rx="2" ry="2"/><rect class="c" x="578" y="98" rx="2" ry="2"/><rect class="c" x="594" y="2" rx="2" ry="2"/><rect class="c" x="594" y="18" rx="2" ry="2"/><rect class="c c8" x="594" y="34" rx="2" ry="2"/><rect class="c" x="594" y="50" rx="2" ry="2"/><rect class="c" x="594" y="66" rx="2" ry="2"/><rect class="c" x="594" y="82" rx="2" ry="2"/><rect class="c" x="594" y="98" rx="2" ry="2"/><rect class="c" x="610" y="2" rx="2" ry="2"/><rect class="c" x="610" y="18" rx="2" ry="2"/><rect class="c c9" x="610" y="34" rx="2" ry="2"/><rect class="c ca" x="610" y="50" rx="2" ry="2"/><rect class="c" x="610" y="66" rx="2" ry="2"/><rect class="c" x="610" y="82" rx="2" ry="2"/><rect class="c" x="610" y="98" rx="2" ry="2"/><rect class="c cb" x="626" y="2" rx="2" ry="2"/><rect class="c" x="626" y="18" rx="2" ry="2"/><rect class="c" x="626" y="34" rx="2" ry="2"/><rect class="c" x="626" y="50" rx="2" ry="2"/><rect class="c" x="626" y="66" rx="2" ry="2"/><rect class="c" x="626" y="82" rx="2" ry="2"/><rect class="c" x="626" y="98" rx="2" ry="2"/><rect class="c" x="642" y="2" rx="2" ry="2"/><rect class="c" x="642" y="18" rx="2" ry="2"/><rect class="c" x="642" y="34" rx="2" ry="2"/><rect class="c" x="642" y="50" rx="2" ry="2"/><rect class="c" x="642" y="66" rx="2" ry="2"/><rect class="c" x="642" y="82" rx="2" ry="2"/><rect class="c" x="642" y="98" rx="2" ry="2"/><rect class="c" x="658" y="2" rx="2" ry="2"/><rect class="c" x="658" y="18" rx="2" ry="2"/><rect class="c" x="658" y="34" rx="2" ry="2"/><rect class="c" x="658" y="50" rx="2" ry="2"/><rect class="c" x="658" y="66" rx="2" ry="2"/><rect class="c cc" x="658" y="82" rx="2" ry="2"/><rect class="c cd" x="658" y="98" rx="2" ry="2"/><rect class="c" x="674" y="2" rx="2" ry="2"/><rect class="c ce" x="674" y="18" rx="2" ry="2"/><rect class="c" x="674" y="34" rx="2" ry="2"/><rect class="c" x="674" y="50" rx="2" ry="2"/><rect class="c" x="674" y="66" rx="2" ry="2"/><rect class="c" x="674" y="82" rx="2" ry="2"/><rect class="c" x="674" y="98" rx="2" ry="2"/><rect class="c" x="690" y="2" rx="2" ry="2"/><rect class="c" x="690" y="18" rx="2" ry="2"/><rect class="c" x="690" y="34" rx="2" ry="2"/><rect class="c" x="690" y="50" rx="2" ry="2"/><rect class="c" x="690" y="66" rx="2" ry="2"/><rect class="c" x="690" y="82" rx="2" ry="2"/><rect class="c" x="690" y="98" rx="2" ry="2"/><rect class="c" x="706" y="2" rx="2" ry="2"/><rect class="c" x="706" y="18" rx="2" ry="2"/><rect class="c cf" x="706" y="34" rx="2" ry="2"/><rect class="c" x="706" y="50" rx="2" ry="2"/><rect class="c" x="706" y="66" rx="2" ry="2"/><rect class="c cg" x="706" y="82" rx="2" ry="2"/><rect class="c ch" x="706" y="98" rx="2" ry="2"/><rect class="c" x="722" y="2" rx="2" ry="2"/><rect class="c" x="722" y="18" rx="2" ry="2"/><rect class="c" x="722" y="34" rx="2" ry="2"/><rect class="c" x="722" y="50" rx="2" ry="2"/><rect class="c" x="722" y="66" rx="2" ry="2"/><rect class="c ci" x="722" y="82" rx="2" ry="2"/><rect class="c cj" x="722" y="98" rx="2" ry="2"/><rect class="c" x="738" y="2" rx="2" ry="2"/><rect class="c" x="738" y="18" rx="2" ry="2"/><rect class="c ck" x="738" y="34" rx="2" ry="2"/><rect class="c cl" x="738" y="50" rx="2" ry="2"/><rect class="c" x="738" y="66" rx="2" ry="2"/><rect class="c" x="738" y="82" rx="2" ry="2"/><rect class="c" x="738" y="98" rx="2" ry="2"/><rect class="c" x="754" y="2" rx="2" ry="2"/><rect class="c cm" x="754" y="18" rx="2" ry="2"/><rect class="c cn" x="754" y="34" rx="2" ry="2"/><rect class="c co" x="754" y="50" rx="2" ry="2"/><rect class="c cp" x="754" y="66" rx="2" ry="2"/><rect class="c cq" x="754" y="82" rx="2" ry="2"/><rect class="c cr" x="754" y="98" rx="2" ry="2"/><rect class="c cs" x="770" y="2" rx="2" ry="2"/><rect class="c ct" x="770" y="18" rx="2" ry="2"/><rect class="c cu" x="770" y="34" rx="2" ry="2"/><rect class="c cv" x="770" y="50" rx="2" ry="2"/><rect class="c cw" x="770" y="66" rx="2" ry="2"/><rect class="c cx" x="770" y="82" rx="2" ry="2"/><rect class="c cy" x="770" y="98" rx="2" ry="2"/><rect class="c cz" x="786" y="2" rx="2" ry="2"/><rect class="c c10" x="786" y="18" rx="2" ry="2"/><rect class="c c11" x="786" y="34" rx="2" ry="2"/><rect class="c c12" x="786" y="50" rx="2" ry="2"/><rect class="c c13" x="786" y="66" rx="2" ry="2"/><rect class="c c14" x="786" y="82" rx="2" ry="2"/><rect class="c c15" x="786" y="98" rx="2" ry="2"/><rect class="c c16" x="802" y="2" rx="2" ry="2"/><rect class="c c17" x="802" y="18" rx="2" ry="2"/><rect class="c c18" x="802" y="34" rx="2" ry="2"/><rect class="c c19" x="802" y="50" rx="2" ry="2"/><rect class="c c1a" x="802" y="66" rx="2" ry="2"/><rect class="c c1b" x="802" y="82" rx="2" ry="2"/><rect class="c c1c" x="802" y="98" rx="2" ry="2"/><rect class="c c1d" x="818" y="2" rx="2" ry="2"/><rect class="c c1e" x="818" y="18" rx="2" ry="2"/><rect class="c c1f" x="818" y="34" rx="2" ry="2"/><rect class="c c1g" x="818" y="50" rx="2" ry="2"/><rect class="c c1h" x="818" y="66" rx="2" ry="2"/><rect class="c c1i" x="818" y="82" rx="2" ry="2"/><rect class="c c1j" x="818" y="98" rx="2" ry="2"/><rect class="c c1k" x="834" y="2" rx="2" ry="2"/><rect class="c c1l" x="834" y="18" rx="2" ry="2"/><rect class="u u0" height="12" width="336.9" x="0.0" y="144"/><rect class="u u1" height="12" width="29.8" x="336.3" y="144"/><rect class="u u2" height="12" width="15.2" x="365.5" y="144"/><rect class="u u3" height="12" width="336.9" x="380.1" y="144"/><rect class="u u4" height="12" width="73.7" x="716.4" y="144"/><rect class="u u5" height="12" width="59.1" x="789.5" y="144"/><rect class="s s0" x="0.8" y="0.8" width="14.4" height="14.4" rx="4.5" ry="4.5"/><rect class="s s1" x="1.8" y="1.8" width="12.3" height="12.3" rx="4.1" ry="4.1"/><rect class="s s2" x="2.6" y="2.6" width="10.8" height="10.8" rx="3.6" ry="3.6"/><rect class="s s3" x="3.0" y="3.0" width="9.9" height="9.9" rx="3.3" ry="3.3"/></svg>