<svg viewBox="-16 -32 880 192" width="880" height="192" xmlns="http://www.w3.org/2000/svg"><desc>Generated with https://github.com/Platane/snk</desc><style>:root{--cb:#1b1f230a;--cs:764ba2;--ce:#ebedf0;--c0:#ebedf0;--c1:#9be9a8;--c2:#40c463;--c3:#30a14e;--c4:#216e39}.c{shape-rendering:geometricPrecision;fill:var(--ce);stroke-width:1px;stroke:var(--cb);animation:none 23700ms linear infinite;width:12px;height:12px}@keyframes c0{21.93%{fill:var(--c1)}21.95%,100%{fill:var(--ce)}}.c.c0{fill:var(--c1);animation-name:c0}@keyframes c1{21.51%{fill:var(--c1)}21.53%,100%{fill:var(--ce)}}.c.c1{fill:var(--c1);animation-name:c1}@keyframes c2{14.34%{fill:var(--c1)}14.36%,100%{fill:var(--ce)}}.c.c2{fill:var(--c1);animation-name:c2}@keyframes c3{15.6%{fill:var(--c1)}15.62%,100%{fill:var(--ce)}}.c.c3{fill:var(--c1);animation-name:c3}@keyframes c4{14.76%{fill:var(--c1)}14.78%,100%{fill:var(--ce)}}.c.c4{fill:var(--c1);animation-name:c4}@keyframes c5{15.18%{fill:var(--c1)}15.2%,100%{fill:var(--ce)}}.c.c5{fill:var(--c1);animation-name:c5}@keyframes c6{17.71%{fill:var(--c1)}17.73%,100%{fill:var(--ce)}}.c.c6{fill:var(--c1);animation-name:c6}@keyframes c7{18.13%{fill:var(--c1)}18.15%,100%{fill:var(--ce)}}.c.c7{fill:var(--c1);animation-name:c7}@keyframes c8{63.28%{fill:var(--c2)}63.3%,100%{fill:var(--ce)}}.c.c8{fill:var(--c2);animation-name:c8}@keyframes c9{62.86%{fill:var(--c2)}62.88%,100%{fill:var(--ce)}}.c.c9{fill:var(--c2);animation-name:c9}@keyframes ca{81%{fill:var(--c4)}81.02%,100%{fill:var(--ce)}}.c.ca{fill:var(--c4);animation-name:ca}@keyframes cb{29.53%{fill:var(--c1)}29.55%,100%{fill:var(--ce)}}.c.cb{fill:var(--c1);animation-name:cb}@keyframes cc{66.23%{fill:var(--c3)}66.25%,100%{fill:var(--ce)}}.c.cc{fill:var(--c3);animation-name:cc}@keyframes cd{59.91%{fill:var(--c2)}59.93%,100%{fill:var(--ce)}}.c.cd{fill:var(--c2);animation-name:cd}@keyframes ce{31.21%{fill:var(--c1)}31.23%,100%{fill:var(--ce)}}.c.ce{fill:var(--c1);animation-name:ce}@keyframes cf{51.89%{fill:var(--c2)}51.91%,100%{fill:var(--ce)}}.c.cf{fill:var(--c2);animation-name:cf}@keyframes cg{36.28%{fill:var(--c1)}36.3%,100%{fill:var(--ce)}}.c.cg{fill:var(--c1);animation-name:cg}@keyframes ch{53.58%{fill:var(--c2)}53.6%,100%{fill:var(--ce)}}.c.ch{fill:var(--c2);animation-name:ch}@keyframes ci{35.85%{fill:var(--c1)}35.87%,100%{fill:var(--ce)}}.c.ci{fill:var(--c1);animation-name:ci}@keyframes cj{54%{fill:var(--c2)}54.02%,100%{fill:var(--ce)}}.c.cj{fill:var(--c2);animation-name:cj}@keyframes ck{34.17%{fill:var(--c1)}34.19%,100%{fill:var(--ce)}}.c.ck{fill:var(--c1);animation-name:ck}@keyframes cl{43.87%{fill:var(--c2)}43.89%,100%{fill:var(--ce)}}.c.cl{fill:var(--c2);animation-name:cl}@keyframes cm{33.32%{fill:var(--c1)}33.34%,100%{fill:var(--ce)}}.c.cm{fill:var(--c1);animation-name:cm}@keyframes cn{33.75%{fill:var(--c1)}33.77%,100%{fill:var(--ce)}}.c.cn{fill:var(--c1);animation-name:cn}@keyframes co{43.45%{fill:var(--c2)}43.47%,100%{fill:var(--ce)}}.c.co{fill:var(--c2);animation-name:co}@keyframes cp{43.03%{fill:var(--c1)}43.05%,100%{fill:var(--ce)}}.c.cp{fill:var(--c1);animation-name:cp}@keyframes cq{76.36%{fill:var(--c4)}76.38%,100%{fill:var(--ce)}}.c.cq{fill:var(--c4);animation-name:cq}@keyframes cr{54.84%{fill:var(--c2)}54.86%,100%{fill:var(--ce)}}.c.cr{fill:var(--c2);animation-name:cr}@keyframes cs{49.36%{fill:var(--c2)}49.38%,100%{fill:var(--ce)}}.c.cs{fill:var(--c2);animation-name:cs}@keyframes ct{48.94%{fill:var(--c2)}48.96%,100%{fill:var(--ce)}}.c.ct{fill:var(--c2);animation-name:ct}@keyframes cu{45.14%{fill:var(--c2)}45.16%,100%{fill:var(--ce)}}.c.cu{fill:var(--c2);animation-name:cu}@keyframes cv{70.03%{fill:var(--c3)}70.05%,100%{fill:var(--ce)}}.c.cv{fill:var(--c3);animation-name:cv}@keyframes cw{42.61%{fill:var(--c2)}42.63%,100%{fill:var(--ce)}}.c.cw{fill:var(--c2);animation-name:cw}@keyframes cx{56.53%{fill:var(--c2)}56.55%,100%{fill:var(--ce)}}.c.cx{fill:var(--c2);animation-name:cx}@keyframes cy{55.26%{fill:var(--c2)}55.28%,100%{fill:var(--ce)}}.c.cy{fill:var(--c2);animation-name:cy}@keyframes cz{72.56%{fill:var(--c3)}72.58%,100%{fill:var(--ce)}}.c.cz{fill:var(--c3);animation-name:cz}@keyframes c10{48.51%{fill:var(--c2)}48.53%,100%{fill:var(--ce)}}.c.c10{fill:var(--c2);animation-name:c10}@keyframes c11{45.56%{fill:var(--c2)}45.58%,100%{fill:var(--ce)}}.c.c11{fill:var(--c2);animation-name:c11}@keyframes c12{70.45%{fill:var(--c3)}70.47%,100%{fill:var(--ce)}}.c.c12{fill:var(--c3);animation-name:c12}@keyframes c13{42.18%{fill:var(--c1)}42.2%,100%{fill:var(--ce)}}.c.c13{fill:var(--c1);animation-name:c13}@keyframes c14{41.76%{fill:var(--c2)}41.78%,100%{fill:var(--ce)}}.c.c14{fill:var(--c2);animation-name:c14}@keyframes c15{55.69%{fill:var(--c2)}55.71%,100%{fill:var(--ce)}}.c.c15{fill:var(--c2);animation-name:c15}@keyframes c16{46.83%{fill:var(--c2)}46.85%,100%{fill:var(--ce)}}.c.c16{fill:var(--c2);animation-name:c16}@keyframes c17{46.4%{fill:var(--c2)}46.42%,100%{fill:var(--ce)}}.c.c17{fill:var(--c2);animation-name:c17}@keyframes c18{45.98%{fill:var(--c2)}46%,100%{fill:var(--ce)}}.c.c18{fill:var(--c2);animation-name:c18}@keyframes c19{70.88%{fill:var(--c3)}70.9%,100%{fill:var(--ce)}}.c.c19{fill:var(--c3);animation-name:c19}@keyframes c1a{74.67%{fill:var(--c4)}74.69%,100%{fill:var(--ce)}}.c.c1a{fill:var(--c4);animation-name:c1a}@keyframes c1b{41.34%{fill:var(--c1)}41.36%,100%{fill:var(--ce)}}.c.c1b{fill:var(--c1);animation-name:c1b}.u{transform-origin:0 0;transform:scale(0,1);animation:none linear 23700ms infinite}@keyframes u0{14.34%{transform:scale(0.000,1)}14.36%,14.76%{transform:scale(0.063,1)}14.78%,15.18%{transform:scale(0.125,1)}15.2%,15.6%{transform:scale(0.188,1)}15.62%,17.71%{transform:scale(0.250,1)}17.73%,18.13%{transform:scale(0.313,1)}18.15%,21.51%{transform:scale(0.375,1)}21.53%,21.93%{transform:scale(0.438,1)}21.95%,29.53%{transform:scale(0.500,1)}29.55%,31.21%{transform:scale(0.563,1)}31.23%,33.32%{transform:scale(0.625,1)}33.34%,33.75%{transform:scale(0.688,1)}33.77%,34.17%{transform:scale(0.750,1)}34.19%,35.85%{transform:scale(0.813,1)}35.87%,36.28%{transform:scale(0.875,1)}36.3%,41.34%{transform:scale(0.938,1)}41.36%,100%{transform:scale(1.000,1)}}.u.u0{fill:var(--c1);animation-name:u0;transform-origin:0.0px 0}@keyframes u1{41.76%{transform:scale(0.000,1)}41.78%,100%{transform:scale(1.000,1)}}.u.u1{fill:var(--c2);animation-name:u1;transform-origin:282.7px 0}@keyframes u2{42.18%{transform:scale(0.000,1)}42.2%,100%{transform:scale(1.000,1)}}.u.u2{fill:var(--c1);animation-name:u2;transform-origin:300.3px 0}@keyframes u3{42.61%{transform:scale(0.000,1)}42.63%,100%{transform:scale(1.000,1)}}.u.u3{fill:var(--c2);animation-name:u3;transform-origin:318.0px 0}@keyframes u4{43.03%{transform:scale(0.000,1)}43.05%,100%{transform:scale(1.000,1)}}.u.u4{fill:var(--c1);animation-name:u4;transform-origin:335.7px 0}@keyframes u5{43.45%{transform:scale(0.000,1)}43.47%,43.87%{transform:scale(0.050,1)}43.89%,45.14%{transform:scale(0.100,1)}45.16%,45.56%{transform:scale(0.150,1)}45.58%,45.98%{transform:scale(0.200,1)}46%,46.4%{transform:scale(0.250,1)}46.42%,46.83%{transform:scale(0.300,1)}46.85%,48.51%{transform:scale(0.350,1)}48.53%,48.94%{transform:scale(0.400,1)}48.96%,49.36%{transform:scale(0.450,1)}49.38%,51.89%{transform:scale(0.500,1)}51.91%,53.58%{transform:scale(0.550,1)}53.6%,54%{transform:scale(0.600,1)}54.02%,54.84%{transform:scale(0.650,1)}54.86%,55.26%{transform:scale(0.700,1)}55.28%,55.69%{transform:scale(0.750,1)}55.71%,56.53%{transform:scale(0.800,1)}56.55%,59.91%{transform:scale(0.850,1)}59.93%,62.86%{transform:scale(0.900,1)}62.88%,63.28%{transform:scale(0.950,1)}63.3%,100%{transform:scale(1.000,1)}}.u.u5{fill:var(--c2);animation-name:u5;transform-origin:353.3px 0}@keyframes u6{66.23%{transform:scale(0.000,1)}66.25%,70.03%{transform:scale(0.200,1)}70.05%,70.45%{transform:scale(0.400,1)}70.47%,70.88%{transform:scale(0.600,1)}70.9%,72.56%{transform:scale(0.800,1)}72.58%,100%{transform:scale(1.000,1)}}.u.u6{fill:var(--c3);animation-name:u6;transform-origin:706.7px 0}@keyframes u7{74.67%{transform:scale(0.000,1)}74.69%,76.36%{transform:scale(0.333,1)}76.38%,81%{transform:scale(0.667,1)}81.02%,100%{transform:scale(1.000,1)}}.u.u7{fill:var(--c4);animation-name:u7;transform-origin:795.0px 0}.s{shape-rendering:geometricPrecision;fill:var(--cs);animation:none linear 23700ms infinite}@keyframes s0{0%,99.58%{transform:translate(0px,-16px)}0.42%{transform:translate(0px,0px)}13.92%{transform:translate(512px,0px)}14.35%{transform:translate(512px,16px)}14.77%{transform:translate(528px,16px)}15.19%{transform:translate(528px,32px)}15.61%{transform:translate(512px,32px)}16.03%{transform:translate(512px,48px)}17.72%{transform:translate(576px,48px)}18.14%{transform:translate(576px,64px)}21.1%{transform:translate(464px,64px)}21.52%{transform:translate(464px,80px)}21.94%{transform:translate(448px,80px)}22.36%{transform:translate(448px,64px)}27.85%{transform:translate(656px,64px)}29.54%{transform:translate(656px,0px)}30.8%{transform:translate(704px,0px)}31.22%{transform:translate(704px,16px)}33.33%{transform:translate(784px,16px)}33.76%{transform:translate(784px,32px)}34.6%{transform:translate(752px,32px)}35.86%{transform:translate(752px,80px)}36.29%{transform:translate(736px,80px)}36.71%{transform:translate(736px,64px)}37.55%,68.78%{transform:translate(768px,64px)}38.82%{transform:translate(768px,112px)}40.51%{transform:translate(832px,112px)}41.35%{transform:translate(832px,80px)}41.77%,56.12%{transform:translate(816px,80px)}42.19%{transform:translate(816px,64px)}43.04%,75.95%{transform:translate(784px,64px)}43.46%{transform:translate(784px,48px)}43.88%,77.64%{transform:translate(768px,48px)}44.3%{transform:translate(768px,32px)}45.99%{transform:translate(832px,32px)}46.84%,72.15%{transform:translate(832px,0px)}47.26%{transform:translate(848px,0px)}47.68%{transform:translate(848px,16px)}48.95%{transform:translate(800px,16px)}49.37%{transform:translate(800px,0px)}51.05%{transform:translate(736px,0px)}53.59%{transform:translate(736px,96px)}55.7%{transform:translate(816px,96px)}56.54%{transform:translate(800px,80px)}56.96%{transform:translate(800px,96px)}60.34%{transform:translate(672px,96px)}62.03%{transform:translate(672px,32px)}63.29%{transform:translate(624px,32px)}64.14%{transform:translate(624px,64px)}65.82%{transform:translate(688px,64px)}66.24%{transform:translate(688px,80px)}68.35%,76.79%{transform:translate(768px,80px)}69.62%{transform:translate(800px,64px)}70.04%{transform:translate(800px,48px)}70.89%{transform:translate(832px,48px)}72.57%{transform:translate(816px,0px)}73%{transform:translate(816px,16px)}73.42%{transform:translate(832px,16px)}74.68%{transform:translate(832px,64px)}76.37%{transform:translate(784px,80px)}94.94%{transform:translate(112px,48px)}95.78%{transform:translate(112px,16px)}96.62%{transform:translate(80px,16px)}97.05%{transform:translate(80px,0px)}97.89%{transform:translate(48px,0px)}98.31%{transform:translate(48px,-16px)}}.s.s0{transform:translate(0px,-16px);animation-name:s0}@keyframes s1{0%,99.58%{transform:translate(16px,-16px)}0.42%{transform:translate(0px,-16px)}0.84%{transform:translate(0px,0px)}14.35%{transform:translate(512px,0px)}14.77%{transform:translate(512px,16px)}15.19%{transform:translate(528px,16px)}15.61%{transform:translate(528px,32px)}16.03%{transform:translate(512px,32px)}16.46%{transform:translate(512px,48px)}18.14%{transform:translate(576px,48px)}18.57%{transform:translate(576px,64px)}21.52%{transform:translate(464px,64px)}21.94%{transform:translate(464px,80px)}22.36%{transform:translate(448px,80px)}22.78%{transform:translate(448px,64px)}28.27%{transform:translate(656px,64px)}29.96%{transform:translate(656px,0px)}31.22%{transform:translate(704px,0px)}31.65%{transform:translate(704px,16px)}33.76%{transform:translate(784px,16px)}34.18%{transform:translate(784px,32px)}35.02%{transform:translate(752px,32px)}36.29%{transform:translate(752px,80px)}36.71%{transform:translate(736px,80px)}37.13%{transform:translate(736px,64px)}37.97%,69.2%{transform:translate(768px,64px)}39.24%{transform:translate(768px,112px)}40.93%{transform:translate(832px,112px)}41.77%{transform:translate(832px,80px)}42.19%,56.54%{transform:translate(816px,80px)}42.62%{transform:translate(816px,64px)}43.46%,76.37%{transform:translate(784px,64px)}43.88%{transform:translate(784px,48px)}44.3%,78.06%{transform:translate(768px,48px)}44.73%{transform:translate(768px,32px)}46.41%{transform:translate(832px,32px)}47.26%,72.57%{transform:translate(832px,0px)}47.68%{transform:translate(848px,0px)}48.1%{transform:translate(848px,16px)}49.37%{transform:translate(800px,16px)}49.79%{transform:translate(800px,0px)}51.48%{transform:translate(736px,0px)}54.01%{transform:translate(736px,96px)}56.12%{transform:translate(816px,96px)}56.96%{transform:translate(800px,80px)}57.38%{transform:translate(800px,96px)}60.76%{transform:translate(672px,96px)}62.45%{transform:translate(672px,32px)}63.71%{transform:translate(624px,32px)}64.56%{transform:translate(624px,64px)}66.24%{transform:translate(688px,64px)}66.67%{transform:translate(688px,80px)}68.78%,77.22%{transform:translate(768px,80px)}70.04%{transform:translate(800px,64px)}70.46%{transform:translate(800px,48px)}71.31%{transform:translate(832px,48px)}73%{transform:translate(816px,0px)}73.42%{transform:translate(816px,16px)}73.84%{transform:translate(832px,16px)}75.11%{transform:translate(832px,64px)}76.79%{transform:translate(784px,80px)}95.36%{transform:translate(112px,48px)}96.2%{transform:translate(112px,16px)}97.05%{transform:translate(80px,16px)}97.47%{transform:translate(80px,0px)}98.31%{transform:translate(48px,0px)}98.73%{transform:translate(48px,-16px)}}.s.s1{transform:translate(16px,-16px);animation-name:s1}@keyframes s2{0%,99.58%{transform:translate(32px,-16px)}0.84%{transform:translate(0px,-16px)}1.27%{transform:translate(0px,0px)}14.77%{transform:translate(512px,0px)}15.19%{transform:translate(512px,16px)}15.61%{transform:translate(528px,16px)}16.03%{transform:translate(528px,32px)}16.46%{transform:translate(512px,32px)}16.88%{transform:translate(512px,48px)}18.57%{transform:translate(576px,48px)}18.99%{transform:translate(576px,64px)}21.94%{transform:translate(464px,64px)}22.36%{transform:translate(464px,80px)}22.78%{transform:translate(448px,80px)}23.21%{transform:translate(448px,64px)}28.69%{transform:translate(656px,64px)}30.38%{transform:translate(656px,0px)}31.65%{transform:translate(704px,0px)}32.07%{transform:translate(704px,16px)}34.18%{transform:translate(784px,16px)}34.6%{transform:translate(784px,32px)}35.44%{transform:translate(752px,32px)}36.71%{transform:translate(752px,80px)}37.13%{transform:translate(736px,80px)}37.55%{transform:translate(736px,64px)}38.4%,69.62%{transform:translate(768px,64px)}39.66%{transform:translate(768px,112px)}41.35%{transform:translate(832px,112px)}42.19%{transform:translate(832px,80px)}42.62%,56.96%{transform:translate(816px,80px)}43.04%{transform:translate(816px,64px)}43.88%,76.79%{transform:translate(784px,64px)}44.3%{transform:translate(784px,48px)}44.73%,78.48%{transform:translate(768px,48px)}45.15%{transform:translate(768px,32px)}46.84%{transform:translate(832px,32px)}47.68%,73%{transform:translate(832px,0px)}48.1%{transform:translate(848px,0px)}48.52%{transform:translate(848px,16px)}49.79%{transform:translate(800px,16px)}50.21%{transform:translate(800px,0px)}51.9%{transform:translate(736px,0px)}54.43%{transform:translate(736px,96px)}56.54%{transform:translate(816px,96px)}57.38%{transform:translate(800px,80px)}57.81%{transform:translate(800px,96px)}61.18%{transform:translate(672px,96px)}62.87%{transform:translate(672px,32px)}64.14%{transform:translate(624px,32px)}64.98%{transform:translate(624px,64px)}66.67%{transform:translate(688px,64px)}67.09%{transform:translate(688px,80px)}69.2%,77.64%{transform:translate(768px,80px)}70.46%{transform:translate(800px,64px)}70.89%{transform:translate(800px,48px)}71.73%{transform:translate(832px,48px)}73.42%{transform:translate(816px,0px)}73.84%{transform:translate(816px,16px)}74.26%{transform:translate(832px,16px)}75.53%{transform:translate(832px,64px)}77.22%{transform:translate(784px,80px)}95.78%{transform:translate(112px,48px)}96.62%{transform:translate(112px,16px)}97.47%{transform:translate(80px,16px)}97.89%{transform:translate(80px,0px)}98.73%{transform:translate(48px,0px)}99.16%{transform:translate(48px,-16px)}}.s.s2{transform:translate(32px,-16px);animation-name:s2}@keyframes s3{0%,99.58%{transform:translate(48px,-16px)}1.27%{transform:translate(0px,-16px)}1.69%{transform:translate(0px,0px)}15.19%{transform:translate(512px,0px)}15.61%{transform:translate(512px,16px)}16.03%{transform:translate(528px,16px)}16.46%{transform:translate(528px,32px)}16.88%{transform:translate(512px,32px)}17.3%{transform:translate(512px,48px)}18.99%{transform:translate(576px,48px)}19.41%{transform:translate(576px,64px)}22.36%{transform:translate(464px,64px)}22.78%{transform:translate(464px,80px)}23.21%{transform:translate(448px,80px)}23.63%{transform:translate(448px,64px)}29.11%{transform:translate(656px,64px)}30.8%{transform:translate(656px,0px)}32.07%{transform:translate(704px,0px)}32.49%{transform:translate(704px,16px)}34.6%{transform:translate(784px,16px)}35.02%{transform:translate(784px,32px)}35.86%{transform:translate(752px,32px)}37.13%{transform:translate(752px,80px)}37.55%{transform:translate(736px,80px)}37.97%{transform:translate(736px,64px)}38.82%,70.04%{transform:translate(768px,64px)}40.08%{transform:translate(768px,112px)}41.77%{transform:translate(832px,112px)}42.62%{transform:translate(832px,80px)}43.04%,57.38%{transform:translate(816px,80px)}43.46%{transform:translate(816px,64px)}44.3%,77.22%{transform:translate(784px,64px)}44.73%{transform:translate(784px,48px)}45.15%,78.9%{transform:translate(768px,48px)}45.57%{transform:translate(768px,32px)}47.26%{transform:translate(832px,32px)}48.1%,73.42%{transform:translate(832px,0px)}48.52%{transform:translate(848px,0px)}48.95%{transform:translate(848px,16px)}50.21%{transform:translate(800px,16px)}50.63%{transform:translate(800px,0px)}52.32%{transform:translate(736px,0px)}54.85%{transform:translate(736px,96px)}56.96%{transform:translate(816px,96px)}57.81%{transform:translate(800px,80px)}58.23%{transform:translate(800px,96px)}61.6%{transform:translate(672px,96px)}63.29%{transform:translate(672px,32px)}64.56%{transform:translate(624px,32px)}65.4%{transform:translate(624px,64px)}67.09%{transform:translate(688px,64px)}67.51%{transform:translate(688px,80px)}69.62%,78.06%{transform:translate(768px,80px)}70.89%{transform:translate(800px,64px)}71.31%{transform:translate(800px,48px)}72.15%{transform:translate(832px,48px)}73.84%{transform:translate(816px,0px)}74.26%{transform:translate(816px,16px)}74.68%{transform:translate(832px,16px)}75.95%{transform:translate(832px,64px)}77.64%{transform:translate(784px,80px)}96.2%{transform:translate(112px,48px)}97.05%{transform:translate(112px,16px)}97.89%{transform:translate(80px,16px)}98.31%{transform:translate(80px,0px)}99.16%{transform:translate(48px,0px)}}.s.s3{transform:translate(48px,-16px);animation-name:s3}</style><rect class="c" x="2" y="2" rx="2" ry="2"/><rect class="c" x="2" y="18" rx="2" ry="2"/><rect class="c" x="2" y="34" rx="2" ry="2"/><rect class="c" x="2" y="50" rx="2" ry="2"/><rect class="c" x="2" y="66" rx="2" ry="2"/><rect class="c" x="2" y="82" rx="2" ry="2"/><rect class="c" x="2" y="98" rx="2" ry="2"/><rect class="c" x="18" y="2" rx="2" ry="2"/><rect class="c" x="18" y="18" rx="2" ry="2"/><rect class="c" x="18" y="34" rx="2" ry="2"/><rect class="c" x="18" y="50" rx="2" ry="2"/><rect class="c" x="18" y="66" rx="2" ry="2"/><rect class="c" x="18" y="82" rx="2" ry="2"/><rect class="c" x="18" y="98" rx="2" ry="2"/><rect class="c" x="34" y="2" rx="2" ry="2"/><rect class="c" x="34" y="18" rx="2" ry="2"/><rect class="c" x="34" y="34" rx="2" ry="2"/><rect class="c" x="34" y="50" rx="2" ry="2"/><rect class="c" x="34" y="66" rx="2" ry="2"/><rect class="c" x="34" y="82" rx="2" ry="2"/><rect class="c" x="34" y="98" rx="2" ry="2"/><rect class="c" x="50" y="2" rx="2" ry="2"/><rect class="c" x="50" y="18" rx="2" ry="2"/><rect class="c" x="50" y="34" rx="2" ry="2"/><rect class="c" x="50" y="50" rx="2" ry="2"/><rect class="c" x="50" y="66" rx="2" ry="2"/><rect class="c" x="50" y="82" rx="2" ry="2"/><rect class="c" x="50" y="98" rx="2" ry="2"/><rect class="c" x="66" y="2" rx="2" ry="2"/><rect class="c" x="66" y="18" rx="2" ry="2"/><rect class="c" x="66" y="34" rx="2" ry="2"/><rect class="c" x="66" y="50" rx="2" ry="2"/><rect class="c" x="66" y="66" rx="2" ry="2"/><rect class="c" x="66" y="82" rx="2" ry="2"/><rect class="c" x="66" y="98" rx="2" ry="2"/><rect class="c" x="82" y="2" rx="2" ry="2"/><rect class="c" x="82" y="18" rx="2" ry="2"/><rect class="c" x="82" y="34" rx="2" ry="2"/><rect class="c" x="82" y="50" rx="2" ry="2"/><rect class="c" x="82" y="66" rx="2" ry="2"/><rect class="c" x="82" y="82" rx="2" ry="2"/><rect class="c" x="82" y="98" rx="2" ry="2"/><rect class="c" x="98" y="2" rx="2" ry="2"/><rect class="c" x="98" y="18" rx="2" ry="2"/><rect class="c" x="98" y="34" rx="2" ry="2"/><rect class="c" x="98" y="50" rx="2" ry="2"/><rect class="c" x="98" y="66" rx="2" ry="2"/><rect class="c" x="98" y="82" rx="2" ry="2"/><rect class="c" x="98" y="98" rx="2" ry="2"/><rect class="c" x="114" y="2" rx="2" ry="2"/><rect class="c" x="114" y="18" rx="2" ry="2"/><rect class="c" x="114" y="34" rx="2" ry="2"/><rect class="c" x="114" y="50" rx="2" ry="2"/><rect class="c" x="114" y="66" rx="2" ry="2"/><rect class="c" x="114" y="82" rx="2" ry="2"/><rect class="c" x="114" y="98" rx="2" ry="2"/><rect class="c" x="130" y="2" rx="2" ry="2"/><rect class="c" x="130" y="18" rx="2" ry="2"/><rect class="c" x="130" y="34" rx="2" ry="2"/><rect class="c" x="130" y="50" rx="2" ry="2"/><rect class="c" x="130" y="66" rx="2" ry="2"/><rect class="c" x="130" y="82" rx="2" ry="2"/><rect class="c" x="130" y="98" rx="2" ry="2"/><rect class="c" x="146" y="2" rx="2" ry="2"/><rect class="c" x="146" y="18" rx="2" ry="2"/><rect class="c" x="146" y="34" rx="2" ry="2"/><rect class="c" x="146" y="50" rx="2" ry="2"/><rect class="c" x="146" y="66" rx="2" ry="2"/><rect class="c" x="146" y="82" rx="2" ry="2"/><rect class="c" x="146" y="98" rx="2" ry="2"/><rect class="c" x="162" y="2" rx="2" ry="2"/><rect class="c" x="162" y="18" rx="2" ry="2"/><rect class="c" x="162" y="34" rx="2" ry="2"/><rect class="c" x="162" y="50" rx="2" ry="2"/><rect class="c" x="162" y="66" rx="2" ry="2"/><rect class="c" x="162" y="82" rx="2" ry="2"/><rect class="c" x="162" y="98" rx="2" ry="2"/><rect class="c" x="178" y="2" rx="2" ry="2"/><rect class="c" x="178" y="18" rx="2" ry="2"/><rect class="c" x="178" y="34" rx="2" ry="2"/><rect class="c" x="178" y="50" rx="2" ry="2"/><rect class="c" x="178" y="66" rx="2" ry="2"/><rect class="c" x="178" y="82" rx="2" ry="2"/><rect class="c" x="178" y="98" rx="2" ry="2"/><rect class="c" x="194" y="2" rx="2" ry="2"/><rect class="c" x="194" y="18" rx="2" ry="2"/><rect class="c" x="194" y="34" rx="2" ry="2"/><rect class="c" x="194" y="50" rx="2" ry="2"/><rect class="c" x="194" y="66" rx="2" ry="2"/><rect class="c" x="194" y="82" rx="2" ry="2"/><rect class="c" x="194" y="98" rx="2" ry="2"/><rect class="c" x="210" y="2" rx="2" ry="2"/><rect class="c" x="210" y="18" rx="2" ry="2"/><rect class="c" x="210" y="34" rx="2" ry="2"/><rect class="c" x="210" y="50" rx="2" ry="2"/><rect class="c" x="210" y="66" rx="2" ry="2"/><rect class="c" x="210" y="82" rx="2" ry="2"/><rect class="c" x="210" y="98" rx="2" ry="2"/><rect class="c" x="226" y="2" rx="2" ry="2"/><rect class="c" x="226" y="18" rx="2" ry="2"/><rect class="c" x="226" y="34" rx="2" ry="2"/><rect class="c" x="226" y="50" rx="2" ry="2"/><rect class="c" x="226" y="66" rx="2" ry="2"/><rect class="c" x="226" y="82" rx="2" ry="2"/><rect class="c" x="226" y="98" rx="2" ry="2"/><rect class="c" x="242" y="2" rx="2" ry="2"/><rect class="c" x="242" y="18" rx="2" ry="2"/><rect class="c" x="242" y="34" rx="2" ry="2"/><rect class="c" x="242" y="50" rx="2" ry="2"/><rect class="c" x="242" y="66" rx="2" ry="2"/><rect class="c" x="242" y="82" rx="2" ry="2"/><rect class="c" x="242" y="98" rx="2" ry="2"/><rect class="c" x="258" y="2" rx="2" ry="2"/><rect class="c" x="258" y="18" rx="2" ry="2"/><rect class="c" x="258" y="34" rx="2" ry="2"/><rect class="c" x="258" y="50" rx="2" ry="2"/><rect class="c" x="258" y="66" rx="2" ry="2"/><rect class="c" x="258" y="82" rx="2" ry="2"/><rect class="c" x="258" y="98" rx="2" ry="2"/><rect class="c" x="274" y="2" rx="2" ry="2"/><rect class="c" x="274" y="18" rx="2" ry="2"/><rect class="c" x="274" y="34" rx="2" ry="2"/><rect class="c" x="274" y="50" rx="2" ry="2"/><rect class="c" x="274" y="66" rx="2" ry="2"/><rect class="c" x="274" y="82" rx="2" ry="2"/><rect class="c" x="274" y="98" rx="2" ry="2"/><rect class="c" x="290" y="2" rx="2" ry="2"/><rect class="c" x="290" y="18" rx="2" ry="2"/><rect class="c" x="290" y="34" rx="2" ry="2"/><rect class="c" x="290" y="50" rx="2" ry="2"/><rect class="c" x="290" y="66" rx="2" ry="2"/><rect class="c" x="290" y="82" rx="2" ry="2"/><rect class="c" x="290" y="98" rx="2" ry="2"/><rect class="c" x="306" y="2" rx="2" ry="2"/><rect class="c" x="306" y="18" rx="2" ry="2"/><rect class="c" x="306" y="34" rx="2" ry="2"/><rect class="c" x="306" y="50" rx="2" ry="2"/><rect class="c" x="306" y="66" rx="2" ry="2"/><rect class="c" x="306" y="82" rx="2" ry="2"/><rect class="c" x="306" y="98" rx="2" ry="2"/><rect class="c" x="322" y="2" rx="2" ry="2"/><rect class="c" x="322" y="18" rx="2" ry="2"/><rect class="c" x="322" y="34" rx="2" ry="2"/><rect class="c" x="322" y="50" rx="2" ry="2"/><rect class="c" x="322" y="66" rx="2" ry="2"/><rect class="c" x="322" y="82" rx="2" ry="2"/><rect class="c" x="322" y="98" rx="2" ry="2"/><rect class="c" x="338" y="2" rx="2" ry="2"/><rect class="c" x="338" y="18" rx="2" ry="2"/><rect class="c" x="338" y="34" rx="2" ry="2"/><rect class="c" x="338" y="50" rx="2" ry="2"/><rect class="c" x="338" y="66" rx="2" ry="2"/><rect class="c" x="338" y="82" rx="2" ry="2"/><rect class="c" x="338" y="98" rx="2" ry="2"/><rect class="c" x="354" y="2" rx="2" ry="2"/><rect class="c" x="354" y="18" rx="2" ry="2"/><rect class="c" x="354" y="34" rx="2" ry="2"/><rect class="c" x="354" y="50" rx="2" ry="2"/><rect class="c" x="354" y="66" rx="2" ry="2"/><rect class="c" x="354" y="82" rx="2" ry="2"/><rect class="c" x="354" y="98" rx="2" ry="2"/><rect class="c" x="370" y="2" rx="2" ry="2"/><rect class="c" x="370" y="18" rx="2" ry="2"/><rect class="c" x="370" y="34" rx="2" ry="2"/><rect class="c" x="370" y="50" rx="2" ry="2"/><rect class="c" x="370" y="66" rx="2" ry="2"/><rect class="c" x="370" y="82" rx="2" ry="2"/><rect class="c" x="370" y="98" rx="2" ry="2"/><rect class="c" x="386" y="2" rx="2" ry="2"/><rect class="c" x="386" y="18" rx="2" ry="2"/><rect class="c" x="386" y="34" rx="2" ry="2"/><rect class="c" x="386" y="50" rx="2" ry="2"/><rect class="c" x="386" y="66" rx="2" ry="2"/><rect class="c" x="386" y="82" rx="2" ry="2"/><rect class="c" x="386" y="98" rx="2" ry="2"/><rect class="c" x="402" y="2" rx="2" ry="2"/><rect class="c" x="402" y="18" rx="2" ry="2"/><rect class="c" x="402" y="34" rx="2" ry="2"/><rect class="c" x="402" y="50" rx="2" ry="2"/><rect class="c" x="402" y="66" rx="2" ry="2"/><rect class="c" x="402" y="82" rx="2" ry="2"/><rect class="c" x="402" y="98" rx="2" ry="2"/><rect class="c" x="418" y="2" rx="2" ry="2"/><rect class="c" x="418" y="18" rx="2" ry="2"/><rect class="c" x="418" y="34" rx="2" ry="2"/><rect class="c" x="418" y="50" rx="2" ry="2"/><rect class="c" x="418" y="66" rx="2" ry="2"/><rect class="c" x="418" y="82" rx="2" ry="2"/><rect class="c" x="418" y="98" rx="2" ry="2"/><rect class="c" x="434" y="2" rx="2" ry="2"/><rect class="c" x="434" y="18" rx="2" ry="2"/><rect class="c" x="434" y="34" rx="2" ry="2"/><rect class="c" x="434" y="50" rx="2" ry="2"/><rect class="c" x="434" y="66" rx="2" ry="2"/><rect class="c" x="434" y="82" rx="2" ry="2"/><rect class="c" x="434" y="98" rx="2" ry="2"/><rect class="c" x="450" y="2" rx="2" ry="2"/><rect class="c" x="450" y="18" rx="2" ry="2"/><rect class="c" x="450" y="34" rx="2" ry="2"/><rect class="c" x="450" y="50" rx="2" ry="2"/><rect class="c" x="450" y="66" rx="2" ry="2"/><rect class="c c0" x="450" y="82" rx="2" ry="2"/><rect class="c" x="450" y="98" rx="2" ry="2"/><rect class="c" x="466" y="2" rx="2" ry="2"/><rect class="c" x="466" y="18" rx="2" ry="2"/><rect class="c" x="466" y="34" rx="2" ry="2"/><rect class="c" x="466" y="50" rx="2" ry="2"/><rect class="c" x="466" y="66" rx="2" ry="2"/><rect class="c c1" x="466" y="82" rx="2" ry="2"/><rect class="c" x="466" y="98" rx="2" ry="2"/><rect class="c" x="482" y="2" rx="2" ry="2"/><rect class="c" x="482" y="18" rx="2" ry="2"/><rect class="c" x="482" y="34" rx="2" ry="2"/><rect class="c" x="482" y="50" rx="2" ry="2"/><rect class="c" x="482" y="66" rx="2" ry="2"/><rect class="c" x="482" y="82" rx="2" ry="2"/><rect class="c" x="482" y="98" rx="2" ry="2"/><rect class="c" x="498" y="2" rx="2" ry="2"/><rect class="c" x="498" y="18" rx="2" ry="2"/><rect class="c" x="498" y="34" rx="2" ry="2"/><rect class="c" x="498" y="50" rx="2" ry="2"/><rect class="c" x="498" y="66" rx="2" ry="2"/><rect class="c" x="498" y="82" rx="2" ry="2"/><rect class="c" x="498" y="98" rx="2" ry="2"/><rect class="c" x="514" y="2" rx="2" ry="2"/><rect class="c c2" x="514" y="18" rx="2" ry="2"/><rect class="c c3" x="514" y="34" rx="2" ry="2"/><rect class="c" x="514" y="50" rx="2" ry="2"/><rect class="c" x="514" y="66" rx="2" ry="2"/><rect class="c" x="514" y="82" rx="2" ry="2"/><rect class="c" x="514" y="98" rx="2" ry="2"/><rect class="c" x="530" y="2" rx="2" ry="2"/><rect class="c c4" x="530" y="18" rx="2" ry="2"/><rect class="c c5" x="530" y="34" rx="2" ry="2"/><rect class="c" x="530" y="50" rx="2" ry="2"/><rect class="c" x="530" y="66" rx="2" ry="2"/><rect class="c" x="530" y="82" rx="2" ry="2"/><rect class="c" x="530" y="98" rx="2" ry="2"/><rect class="c" x="546" y="2" rx="2" ry="2"/><rect class="c" x="546" y="18" rx="2" ry="2"/><rect class="c" x="546" y="34" rx="2" ry="2"/><rect class="c" x="546" y="50" rx="2" ry="2"/><rect class="c" x="546" y="66" rx="2" ry="2"/><rect class="c" x="546" y="82" rx="2" ry="2"/><rect class="c" x="546" y="98" rx="2" ry="2"/><rect class="c" x="562" y="2" rx="2" ry="2"/><rect class="c" x="562" y="18" rx="2" ry="2"/><rect class="c" x="562" y="34" rx="2" ry="2"/><rect class="c" x="562" y="50" rx="2" ry="2"/><rect class="c" x="562" y="66" rx="2" ry="2"/><rect class="c" x="562" y="82" rx="2" ry="2"/><rect class="c" x="562" y="98" rx="2" ry="2"/><rect class="c" x="578" y="2" rx="2" ry="2"/><rect class="c" x="578" y="18" rx="2" ry="2"/><rect class="c" x="578" y="34" rx="2" ry="2"/><rect class="c c6" x="578" y="50" rx="2" ry="2"/><rect class="c c7" x="578" y="66" rx="2" ry="2"/><rect class="c" x="578" y="82" rx="2" ry="2"/><rect class="c" x="578" y="98" rx="2" ry="2"/><rect class="c" x="594" y="2" rx="2" ry="2"/><rect class="c" x="594" y="18" rx="2" ry="2"/><rect class="c" x="594" y="34" rx="2" ry="2"/><rect class="c" x="594" y="50" rx="2" ry="2"/><rect class="c" x="594" y="66" rx="2" ry="2"/><rect class="c" x="594" y="82" rx="2" ry="2"/><rect class="c" x="594" y="98" rx="2" ry="2"/><rect class="c" x="610" y="2" rx="2" ry="2"/><rect class="c" x="610" y="18" rx="2" ry="2"/><rect class="c" x="610" y="34" rx="2" ry="2"/><rect class="c" x="610" y="50" rx="2" ry="2"/><rect class="c" x="610" y="66" rx="2" ry="2"/><rect class="c" x="610" y="82" rx="2" ry="2"/><rect class="c" x="610" y="98" rx="2" ry="2"/><rect class="c" x="626" y="2" rx="2" ry="2"/><rect class="c" x="626" y="18" rx="2" ry="2"/><rect class="c c8" x="626" y="34" rx="2" ry="2"/><rect class="c" x="626" y="50" rx="2" ry="2"/><rect class="c" x="626" y="66" rx="2" ry="2"/><rect class="c" x="626" y="82" rx="2" ry="2"/><rect class="c" x="626" y="98" rx="2" ry="2"/><rect class="c" x="642" y="2" rx="2" ry="2"/><rect class="c" x="642" y="18" rx="2" ry="2"/><rect class="c c9" x="642" y="34" rx="2" ry="2"/><rect class="c ca" x="642" y="50" rx="2" ry="2"/><rect class="c" x="642" y="66" rx="2" ry="2"/><rect class="c" x="642" y="82" rx="2" ry="2"/><rect class="c" x="642" y="98" rx="2" ry="2"/><rect class="c cb" x="658" y="2" rx="2" ry="2"/><rect class="c" x="658" y="18" rx="2" ry="2"/><rect class="c" x="658" y="34" rx="2" ry="2"/><rect class="c" x="658" y="50" rx="2" ry="2"/><rect class="c" x="658" y="66" rx="2" ry="2"/><rect class="c" x="658" y="82" rx="2" ry="2"/><rect class="c" x="658" y="98" rx="2" ry="2"/><rect class="c" x="674" y="2" rx="2" ry="2"/><rect class="c" x="674" y="18" rx="2" ry="2"/><rect class="c" x="674" y="34" rx="2" ry="2"/><rect class="c" x="674" y="50" rx="2" ry="2"/><rect class="c" x="674" y="66" rx="2" ry="2"/><rect class="c" x="674" y="82" rx="2" ry="2"/><rect class="c" x="674" y="98" rx="2" ry="2"/><rect class="c" x="690" y="2" rx="2" ry="2"/><rect class="c" x="690" y="18" rx="2" ry="2"/><rect class="c" x="690" y="34" rx="2" ry="2"/><rect class="c" x="690" y="50" rx="2" ry="2"/><rect class="c" x="690" y="66" rx="2" ry="2"/><rect class="c cc" x="690" y="82" rx="2" ry="2"/><rect class="c cd" x="690" y="98" rx="2" ry="2"/><rect class="c" x="706" y="2" rx="2" ry="2"/><rect class="c ce" x="706" y="18" rx="2" ry="2"/><rect class="c" x="706" y="34" rx="2" ry="2"/><rect class="c" x="706" y="50" rx="2" ry="2"/><rect class="c" x="706" y="66" rx="2" ry="2"/><rect class="c" x="706" y="82" rx="2" ry="2"/><rect class="c" x="706" y="98" rx="2" ry="2"/><rect class="c" x="722" y="2" rx="2" ry="2"/><rect class="c" x="722" y="18" rx="2" ry="2"/><rect class="c" x="722" y="34" rx="2" ry="2"/><rect class="c" x="722" y="50" rx="2" ry="2"/><rect class="c" x="722" y="66" rx="2" ry="2"/><rect class="c" x="722" y="82" rx="2" ry="2"/><rect class="c" x="722" y="98" rx="2" ry="2"/><rect class="c" x="738" y="2" rx="2" ry="2"/><rect class="c" x="738" y="18" rx="2" ry="2"/><rect class="c cf" x="738" y="34" rx="2" ry="2"/><rect class="c" x="738" y="50" rx="2" ry="2"/><rect class="c" x="738" y="66" rx="2" ry="2"/><rect class="c cg" x="738" y="82" rx="2" ry="2"/><rect class="c ch" x="738" y="98" rx="2" ry="2"/><rect class="c" x="754" y="2" rx="2" ry="2"/><rect class="c" x="754" y="18" rx="2" ry="2"/><rect class="c" x="754" y="34" rx="2" ry="2"/><rect class="c" x="754" y="50" rx="2" ry="2"/><rect class="c" x="754" y="66" rx="2" ry="2"/><rect class="c ci" x="754" y="82" rx="2" ry="2"/><rect class="c cj" x="754" y="98" rx="2" ry="2"/><rect class="c" x="770" y="2" rx="2" ry="2"/><rect class="c" x="770" y="18" rx="2" ry="2"/><rect class="c ck" x="770" y="34" rx="2" ry="2"/><rect class="c cl" x="770" y="50" rx="2" ry="2"/><rect class="c" x="770" y="66" rx="2" ry="2"/><rect class="c" x="770" y="82" rx="2" ry="2"/><rect class="c" x="770" y="98" rx="2" ry="2"/><rect class="c" x="786" y="2" rx="2" ry="2"/><rect class="c cm" x="786" y="18" rx="2" ry="2"/><rect class="c cn" x="786" y="34" rx="2" ry="2"/><rect class="c co" x="786" y="50" rx="2" ry="2"/><rect class="c cp" x="786" y="66" rx="2" ry="2"/><rect class="c cq" x="786" y="82" rx="2" ry="2"/><rect class="c cr" x="786" y="98" rx="2" ry="2"/><rect class="c cs" x="802" y="2" rx="2" ry="2"/><rect class="c ct" x="802" y="18" rx="2" ry="2"/><rect class="c cu" x="802" y="34" rx="2" ry="2"/><rect class="c cv" x="802" y="50" rx="2" ry="2"/><rect class="c cw" x="802" y="66" rx="2" ry="2"/><rect class="c cx" x="802" y="82" rx="2" ry="2"/><rect class="c cy" x="802" y="98" rx="2" ry="2"/><rect class="c cz" x="818" y="2" rx="2" ry="2"/><rect class="c c10" x="818" y="18" rx="2" ry="2"/><rect class="c c11" x="818" y="34" rx="2" ry="2"/><rect class="c c12" x="818" y="50" rx="2" ry="2"/><rect class="c c13" x="818" y="66" rx="2" ry="2"/><rect class="c c14" x="818" y="82" rx="2" ry="2"/><rect class="c c15" x="818" y="98" rx="2" ry="2"/><rect class="c c16" x="834" y="2" rx="2" ry="2"/><rect class="c c17" x="834" y="18" rx="2" ry="2"/><rect class="c c18" x="834" y="34" rx="2" ry="2"/><rect class="c c19" x="834" y="50" rx="2" ry="2"/><rect class="c c1a" x="834" y="66" rx="2" ry="2"/><rect class="c c1b" x="834" y="82" rx="2" ry="2"/><rect class="u u0" height="12" width="283.3" x="0.0" y="144"/><rect class="u u1" height="12" width="18.3" x="282.7" y="144"/><rect class="u u2" height="12" width="18.3" x="300.3" y="144"/><rect class="u u3" height="12" width="18.3" x="318.0" y="144"/><rect class="u u4" height="12" width="18.3" x="335.7" y="144"/><rect class="u u5" height="12" width="353.9" x="353.3" y="144"/><rect class="u u6" height="12" width="88.9" x="706.7" y="144"/><rect class="u u7" height="12" width="53.6" x="795.0" y="144"/><rect class="s s0" x="0.8" y="0.8" width="14.4" height="14.4" rx="4.5" ry="4.5"/><rect class="s s1" x="1.8" y="1.8" width="12.3" height="12.3" rx="4.1" ry="4.1"/><rect class="s s2" x="2.6" y="2.6" width="10.8" height="10.8" rx="3.6" ry="3.6"/><rect class="s s3" x="3.0" y="3.0" width="9.9" height="9.9" rx="3.3" ry="3.3"/></svg>