<svg viewBox="-16 -32 880 192" width="880" height="192" xmlns="http://www.w3.org/2000/svg"><desc>Generated with https://github.com/Platane/snk</desc><style>:root{--cb:#1b1f230a;--cs:764ba2;--ce:#ebedf0;--c0:#ebedf0;--c1:#9be9a8;--c2:#40c463;--c3:#30a14e;--c4:#216e39}.c{shape-rendering:geometricPrecision;fill:var(--ce);stroke-width:1px;stroke:var(--cb);animation:none 26300ms linear infinite;width:12px;height:12px}@keyframes c0{19.76%{fill:var(--c1)}19.78%,100%{fill:var(--ce)}}.c.c0{fill:var(--c1);animation-name:c0}@keyframes c1{19.38%{fill:var(--c1)}19.4%,100%{fill:var(--ce)}}.c.c1{fill:var(--c1);animation-name:c1}@keyframes c2{12.92%{fill:var(--c1)}12.94%,100%{fill:var(--ce)}}.c.c2{fill:var(--c1);animation-name:c2}@keyframes c3{14.06%{fill:var(--c1)}14.08%,100%{fill:var(--ce)}}.c.c3{fill:var(--c1);animation-name:c3}@keyframes c4{13.3%{fill:var(--c1)}13.32%,100%{fill:var(--ce)}}.c.c4{fill:var(--c1);animation-name:c4}@keyframes c5{13.68%{fill:var(--c1)}13.7%,100%{fill:var(--ce)}}.c.c5{fill:var(--c1);animation-name:c5}@keyframes c6{15.96%{fill:var(--c1)}15.98%,100%{fill:var(--ce)}}.c.c6{fill:var(--c1);animation-name:c6}@keyframes c7{16.34%{fill:var(--c1)}16.36%,100%{fill:var(--ce)}}.c.c7{fill:var(--c1);animation-name:c7}@keyframes c8{53.98%{fill:var(--c2)}54%,100%{fill:var(--ce)}}.c.c8{fill:var(--c2);animation-name:c8}@keyframes c9{53.6%{fill:var(--c2)}53.62%,100%{fill:var(--ce)}}.c.c9{fill:var(--c2);animation-name:c9}@keyframes ca{72.23%{fill:var(--c4)}72.25%,100%{fill:var(--ce)}}.c.ca{fill:var(--c4);animation-name:ca}@keyframes cb{26.61%{fill:var(--c1)}26.63%,100%{fill:var(--ce)}}.c.cb{fill:var(--c1);animation-name:cb}@keyframes cc{70.33%{fill:var(--c3)}70.35%,100%{fill:var(--ce)}}.c.cc{fill:var(--c3);animation-name:cc}@keyframes cd{50.94%{fill:var(--c2)}50.96%,100%{fill:var(--ce)}}.c.cd{fill:var(--c2);animation-name:cd}@keyframes ce{28.13%{fill:var(--c1)}28.15%,100%{fill:var(--ce)}}.c.ce{fill:var(--c1);animation-name:ce}@keyframes cf{57.4%{fill:var(--c2)}57.42%,100%{fill:var(--ce)}}.c.cf{fill:var(--c2);animation-name:cf}@keyframes cg{32.69%{fill:var(--c1)}32.71%,100%{fill:var(--ce)}}.c.cg{fill:var(--c1);animation-name:cg}@keyframes ch{49.8%{fill:var(--c2)}49.82%,100%{fill:var(--ce)}}.c.ch{fill:var(--c2);animation-name:ch}@keyframes ci{32.31%{fill:var(--c1)}32.33%,100%{fill:var(--ce)}}.c.ci{fill:var(--c1);animation-name:ci}@keyframes cj{49.42%{fill:var(--c2)}49.44%,100%{fill:var(--ce)}}.c.cj{fill:var(--c2);animation-name:cj}@keyframes ck{30.79%{fill:var(--c1)}30.81%,100%{fill:var(--ce)}}.c.ck{fill:var(--c1);animation-name:ck}@keyframes cl{58.55%{fill:var(--c2)}58.57%,100%{fill:var(--ce)}}.c.cl{fill:var(--c2);animation-name:cl}@keyframes cm{30.03%{fill:var(--c1)}30.05%,100%{fill:var(--ce)}}.c.cm{fill:var(--c1);animation-name:cm}@keyframes cn{30.41%{fill:var(--c1)}30.43%,100%{fill:var(--ce)}}.c.cn{fill:var(--c1);animation-name:cn}@keyframes co{41.43%{fill:var(--c2)}41.45%,100%{fill:var(--ce)}}.c.co{fill:var(--c2);animation-name:co}@keyframes cp{41.05%{fill:var(--c1)}41.07%,100%{fill:var(--ce)}}.c.cp{fill:var(--c1);animation-name:cp}@keyframes cq{76.42%{fill:var(--c4)}76.44%,100%{fill:var(--ce)}}.c.cq{fill:var(--c4);animation-name:cq}@keyframes cr{48.66%{fill:var(--c2)}48.68%,100%{fill:var(--ce)}}.c.cr{fill:var(--c2);animation-name:cr}@keyframes cs{63.49%{fill:var(--c2)}63.51%,100%{fill:var(--ce)}}.c.cs{fill:var(--c2);animation-name:cs}@keyframes ct{63.11%{fill:var(--c2)}63.13%,100%{fill:var(--ce)}}.c.ct{fill:var(--c2);animation-name:ct}@keyframes cu{59.69%{fill:var(--c2)}59.71%,100%{fill:var(--ce)}}.c.cu{fill:var(--c2);animation-name:cu}@keyframes cv{66.91%{fill:var(--c3)}66.93%,100%{fill:var(--ce)}}.c.cv{fill:var(--c3);animation-name:cv}@keyframes cw{44.48%{fill:var(--c2)}44.5%,100%{fill:var(--ce)}}.c.cw{fill:var(--c2);animation-name:cw}@keyframes cx{47.14%{fill:var(--c2)}47.16%,100%{fill:var(--ce)}}.c.cx{fill:var(--c2);animation-name:cx}@keyframes cy{46.76%{fill:var(--c2)}46.78%,100%{fill:var(--ce)}}.c.cy{fill:var(--c2);animation-name:cy}@keyframes cz{63.87%{fill:var(--c3)}63.89%,100%{fill:var(--ce)}}.c.cz{fill:var(--c3);animation-name:cz}@keyframes c10{62.73%{fill:var(--c2)}62.75%,100%{fill:var(--ce)}}.c.c10{fill:var(--c2);animation-name:c10}@keyframes c11{60.07%{fill:var(--c2)}60.09%,100%{fill:var(--ce)}}.c.c11{fill:var(--c2);animation-name:c11}@keyframes c12{65.01%{fill:var(--c3)}65.03%,100%{fill:var(--ce)}}.c.c12{fill:var(--c3);animation-name:c12}@keyframes c13{44.86%{fill:var(--c1)}44.88%,100%{fill:var(--ce)}}.c.c13{fill:var(--c1);animation-name:c13}@keyframes c14{45.24%{fill:var(--c2)}45.26%,100%{fill:var(--ce)}}.c.c14{fill:var(--c2);animation-name:c14}@keyframes c15{46.38%{fill:var(--c2)}46.4%,100%{fill:var(--ce)}}.c.c15{fill:var(--c2);animation-name:c15}@keyframes c16{61.21%{fill:var(--c2)}61.23%,100%{fill:var(--ce)}}.c.c16{fill:var(--c2);animation-name:c16}@keyframes c17{60.83%{fill:var(--c2)}60.85%,100%{fill:var(--ce)}}.c.c17{fill:var(--c2);animation-name:c17}@keyframes c18{60.45%{fill:var(--c2)}60.47%,100%{fill:var(--ce)}}.c.c18{fill:var(--c2);animation-name:c18}@keyframes c19{65.39%{fill:var(--c3)}65.41%,100%{fill:var(--ce)}}.c.c19{fill:var(--c3);animation-name:c19}@keyframes c1a{77.94%{fill:var(--c4)}77.96%,100%{fill:var(--ce)}}.c.c1a{fill:var(--c4);animation-name:c1a}@keyframes c1b{45.62%{fill:var(--c2)}45.64%,100%{fill:var(--ce)}}.c.c1b{fill:var(--c2);animation-name:c1b}@keyframes c1c{36.87%{fill:var(--c1)}36.89%,100%{fill:var(--ce)}}.c.c1c{fill:var(--c1);animation-name:c1c}.u{transform-origin:0 0;transform:scale(0,1);animation:none linear 26300ms infinite}@keyframes u0{12.92%{transform:scale(0.000,1)}12.94%,13.3%{transform:scale(0.059,1)}13.32%,13.68%{transform:scale(0.118,1)}13.7%,14.06%{transform:scale(0.176,1)}14.08%,15.96%{transform:scale(0.235,1)}15.98%,16.34%{transform:scale(0.294,1)}16.36%,19.38%{transform:scale(0.353,1)}19.4%,19.76%{transform:scale(0.412,1)}19.78%,26.61%{transform:scale(0.471,1)}26.63%,28.13%{transform:scale(0.529,1)}28.15%,30.03%{transform:scale(0.588,1)}30.05%,30.41%{transform:scale(0.647,1)}30.43%,30.79%{transform:scale(0.706,1)}30.81%,32.31%{transform:scale(0.765,1)}32.33%,32.69%{transform:scale(0.824,1)}32.71%,36.87%{transform:scale(0.882,1)}36.89%,41.05%{transform:scale(0.941,1)}41.07%,100%{transform:scale(1.000,1)}}.u.u0{fill:var(--c1);animation-name:u0;transform-origin:0.0px 0}@keyframes u1{41.43%{transform:scale(0.000,1)}41.45%,44.48%{transform:scale(0.500,1)}44.5%,100%{transform:scale(1.000,1)}}.u.u1{fill:var(--c2);animation-name:u1;transform-origin:294.2px 0}@keyframes u2{44.86%{transform:scale(0.000,1)}44.88%,100%{transform:scale(1.000,1)}}.u.u2{fill:var(--c1);animation-name:u2;transform-origin:328.8px 0}@keyframes u3{45.24%{transform:scale(0.000,1)}45.26%,45.62%{transform:scale(0.048,1)}45.64%,46.38%{transform:scale(0.095,1)}46.4%,46.76%{transform:scale(0.143,1)}46.78%,47.14%{transform:scale(0.190,1)}47.16%,48.66%{transform:scale(0.238,1)}48.68%,49.42%{transform:scale(0.286,1)}49.44%,49.8%{transform:scale(0.333,1)}49.82%,50.94%{transform:scale(0.381,1)}50.96%,53.6%{transform:scale(0.429,1)}53.62%,53.98%{transform:scale(0.476,1)}54%,57.4%{transform:scale(0.524,1)}57.42%,58.55%{transform:scale(0.571,1)}58.57%,59.69%{transform:scale(0.619,1)}59.71%,60.07%{transform:scale(0.667,1)}60.09%,60.45%{transform:scale(0.714,1)}60.47%,60.83%{transform:scale(0.762,1)}60.85%,61.21%{transform:scale(0.810,1)}61.23%,62.73%{transform:scale(0.857,1)}62.75%,63.11%{transform:scale(0.905,1)}63.13%,63.49%{transform:scale(0.952,1)}63.51%,100%{transform:scale(1.000,1)}}.u.u3{fill:var(--c2);animation-name:u3;transform-origin:346.1px 0}@keyframes u4{63.87%{transform:scale(0.000,1)}63.89%,65.01%{transform:scale(0.200,1)}65.03%,65.39%{transform:scale(0.400,1)}65.41%,66.91%{transform:scale(0.600,1)}66.93%,70.33%{transform:scale(0.800,1)}70.35%,100%{transform:scale(1.000,1)}}.u.u4{fill:var(--c3);animation-name:u4;transform-origin:709.6px 0}@keyframes u5{72.23%{transform:scale(0.000,1)}72.25%,76.42%{transform:scale(0.333,1)}76.44%,77.94%{transform:scale(0.667,1)}77.96%,100%{transform:scale(1.000,1)}}.u.u5{fill:var(--c4);animation-name:u5;transform-origin:796.1px 0}.s{shape-rendering:geometricPrecision;fill:var(--cs);animation:none linear 26300ms infinite}@keyframes s0{0%,99.62%{transform:translate(0px,-16px)}0.38%{transform:translate(0px,0px)}12.55%{transform:translate(512px,0px)}12.93%{transform:translate(512px,16px)}13.31%{transform:translate(528px,16px)}13.69%{transform:translate(528px,32px)}14.07%{transform:translate(512px,32px)}14.45%{transform:translate(512px,48px)}15.97%{transform:translate(576px,48px)}16.35%{transform:translate(576px,64px)}19.01%{transform:translate(464px,64px)}19.39%{transform:translate(464px,80px)}19.77%{transform:translate(448px,80px)}20.15%{transform:translate(448px,64px)}25.1%{transform:translate(656px,64px)}26.62%{transform:translate(656px,0px)}27.76%{transform:translate(704px,0px)}28.14%{transform:translate(704px,16px)}30.04%,42.21%{transform:translate(784px,16px)}30.42%,43.35%,59.32%{transform:translate(784px,32px)}31.18%{transform:translate(752px,32px)}32.32%{transform:translate(752px,80px)}32.7%{transform:translate(736px,80px)}33.08%{transform:translate(736px,64px)}33.84%,40.68%{transform:translate(768px,64px)}34.98%,39.54%{transform:translate(768px,112px)}36.5%{transform:translate(832px,112px)}36.88%,46.01%{transform:translate(832px,96px)}37.26%{transform:translate(848px,96px)}37.64%{transform:translate(848px,112px)}41.06%,44.11%,76.05%{transform:translate(784px,64px)}42.59%{transform:translate(768px,16px)}42.97%,58.17%{transform:translate(768px,32px)}44.87%{transform:translate(816px,64px)}45.25%,47.53%{transform:translate(816px,80px)}45.63%,77.57%{transform:translate(832px,80px)}46.77%{transform:translate(800px,96px)}47.15%{transform:translate(800px,80px)}47.91%{transform:translate(816px,96px)}51.33%{transform:translate(672px,96px)}52.85%{transform:translate(672px,32px)}53.99%{transform:translate(624px,32px)}54.37%{transform:translate(624px,16px)}57.03%{transform:translate(736px,16px)}57.41%{transform:translate(736px,32px)}58.56%{transform:translate(768px,48px)}58.94%{transform:translate(784px,48px)}60.46%,65.78%{transform:translate(832px,32px)}61.22%{transform:translate(832px,0px)}61.6%{transform:translate(848px,0px)}61.98%{transform:translate(848px,16px)}63.12%{transform:translate(800px,16px)}63.5%{transform:translate(800px,0px)}63.88%{transform:translate(816px,0px)}65.02%{transform:translate(816px,48px)}65.4%{transform:translate(832px,48px)}66.54%{transform:translate(800px,32px)}66.92%{transform:translate(800px,48px)}69.58%{transform:translate(688px,48px)}70.34%{transform:translate(688px,80px)}70.72%{transform:translate(672px,80px)}71.48%{transform:translate(672px,48px)}72.24%{transform:translate(640px,48px)}72.62%{transform:translate(640px,64px)}76.43%{transform:translate(784px,80px)}77.95%{transform:translate(832px,64px)}95.06%{transform:translate(112px,64px)}95.82%{transform:translate(112px,32px)}96.96%{transform:translate(64px,32px)}97.72%{transform:translate(64px,0px)}98.1%{transform:translate(48px,0px)}98.48%{transform:translate(48px,-16px)}}.s.s0{transform:translate(0px,-16px);animation-name:s0}@keyframes s1{0%,99.62%{transform:translate(16px,-16px)}0.38%{transform:translate(0px,-16px)}0.76%{transform:translate(0px,0px)}12.93%{transform:translate(512px,0px)}13.31%{transform:translate(512px,16px)}13.69%{transform:translate(528px,16px)}14.07%{transform:translate(528px,32px)}14.45%{transform:translate(512px,32px)}14.83%{transform:translate(512px,48px)}16.35%{transform:translate(576px,48px)}16.73%{transform:translate(576px,64px)}19.39%{transform:translate(464px,64px)}19.77%{transform:translate(464px,80px)}20.15%{transform:translate(448px,80px)}20.53%{transform:translate(448px,64px)}25.48%{transform:translate(656px,64px)}27%{transform:translate(656px,0px)}28.14%{transform:translate(704px,0px)}28.52%{transform:translate(704px,16px)}30.42%,42.59%{transform:translate(784px,16px)}30.8%,43.73%,59.7%{transform:translate(784px,32px)}31.56%{transform:translate(752px,32px)}32.7%{transform:translate(752px,80px)}33.08%{transform:translate(736px,80px)}33.46%{transform:translate(736px,64px)}34.22%,41.06%{transform:translate(768px,64px)}35.36%,39.92%{transform:translate(768px,112px)}36.88%{transform:translate(832px,112px)}37.26%,46.39%{transform:translate(832px,96px)}37.64%{transform:translate(848px,96px)}38.02%{transform:translate(848px,112px)}41.44%,44.49%,76.43%{transform:translate(784px,64px)}42.97%{transform:translate(768px,16px)}43.35%,58.56%{transform:translate(768px,32px)}45.25%{transform:translate(816px,64px)}45.63%,47.91%{transform:translate(816px,80px)}46.01%,77.95%{transform:translate(832px,80px)}47.15%{transform:translate(800px,96px)}47.53%{transform:translate(800px,80px)}48.29%{transform:translate(816px,96px)}51.71%{transform:translate(672px,96px)}53.23%{transform:translate(672px,32px)}54.37%{transform:translate(624px,32px)}54.75%{transform:translate(624px,16px)}57.41%{transform:translate(736px,16px)}57.79%{transform:translate(736px,32px)}58.94%{transform:translate(768px,48px)}59.32%{transform:translate(784px,48px)}60.84%,66.16%{transform:translate(832px,32px)}61.6%{transform:translate(832px,0px)}61.98%{transform:translate(848px,0px)}62.36%{transform:translate(848px,16px)}63.5%{transform:translate(800px,16px)}63.88%{transform:translate(800px,0px)}64.26%{transform:translate(816px,0px)}65.4%{transform:translate(816px,48px)}65.78%{transform:translate(832px,48px)}66.92%{transform:translate(800px,32px)}67.3%{transform:translate(800px,48px)}69.96%{transform:translate(688px,48px)}70.72%{transform:translate(688px,80px)}71.1%{transform:translate(672px,80px)}71.86%{transform:translate(672px,48px)}72.62%{transform:translate(640px,48px)}73%{transform:translate(640px,64px)}76.81%{transform:translate(784px,80px)}78.33%{transform:translate(832px,64px)}95.44%{transform:translate(112px,64px)}96.2%{transform:translate(112px,32px)}97.34%{transform:translate(64px,32px)}98.1%{transform:translate(64px,0px)}98.48%{transform:translate(48px,0px)}98.86%{transform:translate(48px,-16px)}}.s.s1{transform:translate(16px,-16px);animation-name:s1}@keyframes s2{0%,99.62%{transform:translate(32px,-16px)}0.76%{transform:translate(0px,-16px)}1.14%{transform:translate(0px,0px)}13.31%{transform:translate(512px,0px)}13.69%{transform:translate(512px,16px)}14.07%{transform:translate(528px,16px)}14.45%{transform:translate(528px,32px)}14.83%{transform:translate(512px,32px)}15.21%{transform:translate(512px,48px)}16.73%{transform:translate(576px,48px)}17.11%{transform:translate(576px,64px)}19.77%{transform:translate(464px,64px)}20.15%{transform:translate(464px,80px)}20.53%{transform:translate(448px,80px)}20.91%{transform:translate(448px,64px)}25.86%{transform:translate(656px,64px)}27.38%{transform:translate(656px,0px)}28.52%{transform:translate(704px,0px)}28.9%{transform:translate(704px,16px)}30.8%,42.97%{transform:translate(784px,16px)}31.18%,44.11%,60.08%{transform:translate(784px,32px)}31.94%{transform:translate(752px,32px)}33.08%{transform:translate(752px,80px)}33.46%{transform:translate(736px,80px)}33.84%{transform:translate(736px,64px)}34.6%,41.44%{transform:translate(768px,64px)}35.74%,40.3%{transform:translate(768px,112px)}37.26%{transform:translate(832px,112px)}37.64%,46.77%{transform:translate(832px,96px)}38.02%{transform:translate(848px,96px)}38.4%{transform:translate(848px,112px)}41.83%,44.87%,76.81%{transform:translate(784px,64px)}43.35%{transform:translate(768px,16px)}43.73%,58.94%{transform:translate(768px,32px)}45.63%{transform:translate(816px,64px)}46.01%,48.29%{transform:translate(816px,80px)}46.39%,78.33%{transform:translate(832px,80px)}47.53%{transform:translate(800px,96px)}47.91%{transform:translate(800px,80px)}48.67%{transform:translate(816px,96px)}52.09%{transform:translate(672px,96px)}53.61%{transform:translate(672px,32px)}54.75%{transform:translate(624px,32px)}55.13%{transform:translate(624px,16px)}57.79%{transform:translate(736px,16px)}58.17%{transform:translate(736px,32px)}59.32%{transform:translate(768px,48px)}59.7%{transform:translate(784px,48px)}61.22%,66.54%{transform:translate(832px,32px)}61.98%{transform:translate(832px,0px)}62.36%{transform:translate(848px,0px)}62.74%{transform:translate(848px,16px)}63.88%{transform:translate(800px,16px)}64.26%{transform:translate(800px,0px)}64.64%{transform:translate(816px,0px)}65.78%{transform:translate(816px,48px)}66.16%{transform:translate(832px,48px)}67.3%{transform:translate(800px,32px)}67.68%{transform:translate(800px,48px)}70.34%{transform:translate(688px,48px)}71.1%{transform:translate(688px,80px)}71.48%{transform:translate(672px,80px)}72.24%{transform:translate(672px,48px)}73%{transform:translate(640px,48px)}73.38%{transform:translate(640px,64px)}77.19%{transform:translate(784px,80px)}78.71%{transform:translate(832px,64px)}95.82%{transform:translate(112px,64px)}96.58%{transform:translate(112px,32px)}97.72%{transform:translate(64px,32px)}98.48%{transform:translate(64px,0px)}98.86%{transform:translate(48px,0px)}99.24%{transform:translate(48px,-16px)}}.s.s2{transform:translate(32px,-16px);animation-name:s2}@keyframes s3{0%,99.62%{transform:translate(48px,-16px)}1.14%{transform:translate(0px,-16px)}1.52%{transform:translate(0px,0px)}13.69%{transform:translate(512px,0px)}14.07%{transform:translate(512px,16px)}14.45%{transform:translate(528px,16px)}14.83%{transform:translate(528px,32px)}15.21%{transform:translate(512px,32px)}15.59%{transform:translate(512px,48px)}17.11%{transform:translate(576px,48px)}17.49%{transform:translate(576px,64px)}20.15%{transform:translate(464px,64px)}20.53%{transform:translate(464px,80px)}20.91%{transform:translate(448px,80px)}21.29%{transform:translate(448px,64px)}26.24%{transform:translate(656px,64px)}27.76%{transform:translate(656px,0px)}28.9%{transform:translate(704px,0px)}29.28%{transform:translate(704px,16px)}31.18%,43.35%{transform:translate(784px,16px)}31.56%,44.49%,60.46%{transform:translate(784px,32px)}32.32%{transform:translate(752px,32px)}33.46%{transform:translate(752px,80px)}33.84%{transform:translate(736px,80px)}34.22%{transform:translate(736px,64px)}34.98%,41.83%{transform:translate(768px,64px)}36.12%,40.68%{transform:translate(768px,112px)}37.64%{transform:translate(832px,112px)}38.02%,47.15%{transform:translate(832px,96px)}38.4%{transform:translate(848px,96px)}38.78%{transform:translate(848px,112px)}42.21%,45.25%,77.19%{transform:translate(784px,64px)}43.73%{transform:translate(768px,16px)}44.11%,59.32%{transform:translate(768px,32px)}46.01%{transform:translate(816px,64px)}46.39%,48.67%{transform:translate(816px,80px)}46.77%,78.71%{transform:translate(832px,80px)}47.91%{transform:translate(800px,96px)}48.29%{transform:translate(800px,80px)}49.05%{transform:translate(816px,96px)}52.47%{transform:translate(672px,96px)}53.99%{transform:translate(672px,32px)}55.13%{transform:translate(624px,32px)}55.51%{transform:translate(624px,16px)}58.17%{transform:translate(736px,16px)}58.56%{transform:translate(736px,32px)}59.7%{transform:translate(768px,48px)}60.08%{transform:translate(784px,48px)}61.6%,66.92%{transform:translate(832px,32px)}62.36%{transform:translate(832px,0px)}62.74%{transform:translate(848px,0px)}63.12%{transform:translate(848px,16px)}64.26%{transform:translate(800px,16px)}64.64%{transform:translate(800px,0px)}65.02%{transform:translate(816px,0px)}66.16%{transform:translate(816px,48px)}66.54%{transform:translate(832px,48px)}67.68%{transform:translate(800px,32px)}68.06%{transform:translate(800px,48px)}70.72%{transform:translate(688px,48px)}71.48%{transform:translate(688px,80px)}71.86%{transform:translate(672px,80px)}72.62%{transform:translate(672px,48px)}73.38%{transform:translate(640px,48px)}73.76%{transform:translate(640px,64px)}77.57%{transform:translate(784px,80px)}79.09%{transform:translate(832px,64px)}96.2%{transform:translate(112px,64px)}96.96%{transform:translate(112px,32px)}98.1%{transform:translate(64px,32px)}98.86%{transform:translate(64px,0px)}99.24%{transform:translate(48px,0px)}}.s.s3{transform:translate(48px,-16px);animation-name:s3}</style><rect class="c" x="2" y="2" rx="2" ry="2"/><rect class="c" x="2" y="18" rx="2" ry="2"/><rect class="c" x="2" y="34" rx="2" ry="2"/><rect class="c" x="2" y="50" rx="2" ry="2"/><rect class="c" x="2" y="66" rx="2" ry="2"/><rect class="c" x="2" y="82" rx="2" ry="2"/><rect class="c" x="2" y="98" rx="2" ry="2"/><rect class="c" x="18" y="2" rx="2" ry="2"/><rect class="c" x="18" y="18" rx="2" ry="2"/><rect class="c" x="18" y="34" rx="2" ry="2"/><rect class="c" x="18" y="50" rx="2" ry="2"/><rect class="c" x="18" y="66" rx="2" ry="2"/><rect class="c" x="18" y="82" rx="2" ry="2"/><rect class="c" x="18" y="98" rx="2" ry="2"/><rect class="c" x="34" y="2" rx="2" ry="2"/><rect class="c" x="34" y="18" rx="2" ry="2"/><rect class="c" x="34" y="34" rx="2" ry="2"/><rect class="c" x="34" y="50" rx="2" ry="2"/><rect class="c" x="34" y="66" rx="2" ry="2"/><rect class="c" x="34" y="82" rx="2" ry="2"/><rect class="c" x="34" y="98" rx="2" ry="2"/><rect class="c" x="50" y="2" rx="2" ry="2"/><rect class="c" x="50" y="18" rx="2" ry="2"/><rect class="c" x="50" y="34" rx="2" ry="2"/><rect class="c" x="50" y="50" rx="2" ry="2"/><rect class="c" x="50" y="66" rx="2" ry="2"/><rect class="c" x="50" y="82" rx="2" ry="2"/><rect class="c" x="50" y="98" rx="2" ry="2"/><rect class="c" x="66" y="2" rx="2" ry="2"/><rect class="c" x="66" y="18" rx="2" ry="2"/><rect class="c" x="66" y="34" rx="2" ry="2"/><rect class="c" x="66" y="50" rx="2" ry="2"/><rect class="c" x="66" y="66" rx="2" ry="2"/><rect class="c" x="66" y="82" rx="2" ry="2"/><rect class="c" x="66" y="98" rx="2" ry="2"/><rect class="c" x="82" y="2" rx="2" ry="2"/><rect class="c" x="82" y="18" rx="2" ry="2"/><rect class="c" x="82" y="34" rx="2" ry="2"/><rect class="c" x="82" y="50" rx="2" ry="2"/><rect class="c" x="82" y="66" rx="2" ry="2"/><rect class="c" x="82" y="82" rx="2" ry="2"/><rect class="c" x="82" y="98" rx="2" ry="2"/><rect class="c" x="98" y="2" rx="2" ry="2"/><rect class="c" x="98" y="18" rx="2" ry="2"/><rect class="c" x="98" y="34" rx="2" ry="2"/><rect class="c" x="98" y="50" rx="2" ry="2"/><rect class="c" x="98" y="66" rx="2" ry="2"/><rect class="c" x="98" y="82" rx="2" ry="2"/><rect class="c" x="98" y="98" rx="2" ry="2"/><rect class="c" x="114" y="2" rx="2" ry="2"/><rect class="c" x="114" y="18" rx="2" ry="2"/><rect class="c" x="114" y="34" rx="2" ry="2"/><rect class="c" x="114" y="50" rx="2" ry="2"/><rect class="c" x="114" y="66" rx="2" ry="2"/><rect class="c" x="114" y="82" rx="2" ry="2"/><rect class="c" x="114" y="98" rx="2" ry="2"/><rect class="c" x="130" y="2" rx="2" ry="2"/><rect class="c" x="130" y="18" rx="2" ry="2"/><rect class="c" x="130" y="34" rx="2" ry="2"/><rect class="c" x="130" y="50" rx="2" ry="2"/><rect class="c" x="130" y="66" rx="2" ry="2"/><rect class="c" x="130" y="82" rx="2" ry="2"/><rect class="c" x="130" y="98" rx="2" ry="2"/><rect class="c" x="146" y="2" rx="2" ry="2"/><rect class="c" x="146" y="18" rx="2" ry="2"/><rect class="c" x="146" y="34" rx="2" ry="2"/><rect class="c" x="146" y="50" rx="2" ry="2"/><rect class="c" x="146" y="66" rx="2" ry="2"/><rect class="c" x="146" y="82" rx="2" ry="2"/><rect class="c" x="146" y="98" rx="2" ry="2"/><rect class="c" x="162" y="2" rx="2" ry="2"/><rect class="c" x="162" y="18" rx="2" ry="2"/><rect class="c" x="162" y="34" rx="2" ry="2"/><rect class="c" x="162" y="50" rx="2" ry="2"/><rect class="c" x="162" y="66" rx="2" ry="2"/><rect class="c" x="162" y="82" rx="2" ry="2"/><rect class="c" x="162" y="98" rx="2" ry="2"/><rect class="c" x="178" y="2" rx="2" ry="2"/><rect class="c" x="178" y="18" rx="2" ry="2"/><rect class="c" x="178" y="34" rx="2" ry="2"/><rect class="c" x="178" y="50" rx="2" ry="2"/><rect class="c" x="178" y="66" rx="2" ry="2"/><rect class="c" x="178" y="82" rx="2" ry="2"/><rect class="c" x="178" y="98" rx="2" ry="2"/><rect class="c" x="194" y="2" rx="2" ry="2"/><rect class="c" x="194" y="18" rx="2" ry="2"/><rect class="c" x="194" y="34" rx="2" ry="2"/><rect class="c" x="194" y="50" rx="2" ry="2"/><rect class="c" x="194" y="66" rx="2" ry="2"/><rect class="c" x="194" y="82" rx="2" ry="2"/><rect class="c" x="194" y="98" rx="2" ry="2"/><rect class="c" x="210" y="2" rx="2" ry="2"/><rect class="c" x="210" y="18" rx="2" ry="2"/><rect class="c" x="210" y="34" rx="2" ry="2"/><rect class="c" x="210" y="50" rx="2" ry="2"/><rect class="c" x="210" y="66" rx="2" ry="2"/><rect class="c" x="210" y="82" rx="2" ry="2"/><rect class="c" x="210" y="98" rx="2" ry="2"/><rect class="c" x="226" y="2" rx="2" ry="2"/><rect class="c" x="226" y="18" rx="2" ry="2"/><rect class="c" x="226" y="34" rx="2" ry="2"/><rect class="c" x="226" y="50" rx="2" ry="2"/><rect class="c" x="226" y="66" rx="2" ry="2"/><rect class="c" x="226" y="82" rx="2" ry="2"/><rect class="c" x="226" y="98" rx="2" ry="2"/><rect class="c" x="242" y="2" rx="2" ry="2"/><rect class="c" x="242" y="18" rx="2" ry="2"/><rect class="c" x="242" y="34" rx="2" ry="2"/><rect class="c" x="242" y="50" rx="2" ry="2"/><rect class="c" x="242" y="66" rx="2" ry="2"/><rect class="c" x="242" y="82" rx="2" ry="2"/><rect class="c" x="242" y="98" rx="2" ry="2"/><rect class="c" x="258" y="2" rx="2" ry="2"/><rect class="c" x="258" y="18" rx="2" ry="2"/><rect class="c" x="258" y="34" rx="2" ry="2"/><rect class="c" x="258" y="50" rx="2" ry="2"/><rect class="c" x="258" y="66" rx="2" ry="2"/><rect class="c" x="258" y="82" rx="2" ry="2"/><rect class="c" x="258" y="98" rx="2" ry="2"/><rect class="c" x="274" y="2" rx="2" ry="2"/><rect class="c" x="274" y="18" rx="2" ry="2"/><rect class="c" x="274" y="34" rx="2" ry="2"/><rect class="c" x="274" y="50" rx="2" ry="2"/><rect class="c" x="274" y="66" rx="2" ry="2"/><rect class="c" x="274" y="82" rx="2" ry="2"/><rect class="c" x="274" y="98" rx="2" ry="2"/><rect class="c" x="290" y="2" rx="2" ry="2"/><rect class="c" x="290" y="18" rx="2" ry="2"/><rect class="c" x="290" y="34" rx="2" ry="2"/><rect class="c" x="290" y="50" rx="2" ry="2"/><rect class="c" x="290" y="66" rx="2" ry="2"/><rect class="c" x="290" y="82" rx="2" ry="2"/><rect class="c" x="290" y="98" rx="2" ry="2"/><rect class="c" x="306" y="2" rx="2" ry="2"/><rect class="c" x="306" y="18" rx="2" ry="2"/><rect class="c" x="306" y="34" rx="2" ry="2"/><rect class="c" x="306" y="50" rx="2" ry="2"/><rect class="c" x="306" y="66" rx="2" ry="2"/><rect class="c" x="306" y="82" rx="2" ry="2"/><rect class="c" x="306" y="98" rx="2" ry="2"/><rect class="c" x="322" y="2" rx="2" ry="2"/><rect class="c" x="322" y="18" rx="2" ry="2"/><rect class="c" x="322" y="34" rx="2" ry="2"/><rect class="c" x="322" y="50" rx="2" ry="2"/><rect class="c" x="322" y="66" rx="2" ry="2"/><rect class="c" x="322" y="82" rx="2" ry="2"/><rect class="c" x="322" y="98" rx="2" ry="2"/><rect class="c" x="338" y="2" rx="2" ry="2"/><rect class="c" x="338" y="18" rx="2" ry="2"/><rect class="c" x="338" y="34" rx="2" ry="2"/><rect class="c" x="338" y="50" rx="2" ry="2"/><rect class="c" x="338" y="66" rx="2" ry="2"/><rect class="c" x="338" y="82" rx="2" ry="2"/><rect class="c" x="338" y="98" rx="2" ry="2"/><rect class="c" x="354" y="2" rx="2" ry="2"/><rect class="c" x="354" y="18" rx="2" ry="2"/><rect class="c" x="354" y="34" rx="2" ry="2"/><rect class="c" x="354" y="50" rx="2" ry="2"/><rect class="c" x="354" y="66" rx="2" ry="2"/><rect class="c" x="354" y="82" rx="2" ry="2"/><rect class="c" x="354" y="98" rx="2" ry="2"/><rect class="c" x="370" y="2" rx="2" ry="2"/><rect class="c" x="370" y="18" rx="2" ry="2"/><rect class="c" x="370" y="34" rx="2" ry="2"/><rect class="c" x="370" y="50" rx="2" ry="2"/><rect class="c" x="370" y="66" rx="2" ry="2"/><rect class="c" x="370" y="82" rx="2" ry="2"/><rect class="c" x="370" y="98" rx="2" ry="2"/><rect class="c" x="386" y="2" rx="2" ry="2"/><rect class="c" x="386" y="18" rx="2" ry="2"/><rect class="c" x="386" y="34" rx="2" ry="2"/><rect class="c" x="386" y="50" rx="2" ry="2"/><rect class="c" x="386" y="66" rx="2" ry="2"/><rect class="c" x="386" y="82" rx="2" ry="2"/><rect class="c" x="386" y="98" rx="2" ry="2"/><rect class="c" x="402" y="2" rx="2" ry="2"/><rect class="c" x="402" y="18" rx="2" ry="2"/><rect class="c" x="402" y="34" rx="2" ry="2"/><rect class="c" x="402" y="50" rx="2" ry="2"/><rect class="c" x="402" y="66" rx="2" ry="2"/><rect class="c" x="402" y="82" rx="2" ry="2"/><rect class="c" x="402" y="98" rx="2" ry="2"/><rect class="c" x="418" y="2" rx="2" ry="2"/><rect class="c" x="418" y="18" rx="2" ry="2"/><rect class="c" x="418" y="34" rx="2" ry="2"/><rect class="c" x="418" y="50" rx="2" ry="2"/><rect class="c" x="418" y="66" rx="2" ry="2"/><rect class="c" x="418" y="82" rx="2" ry="2"/><rect class="c" x="418" y="98" rx="2" ry="2"/><rect class="c" x="434" y="2" rx="2" ry="2"/><rect class="c" x="434" y="18" rx="2" ry="2"/><rect class="c" x="434" y="34" rx="2" ry="2"/><rect class="c" x="434" y="50" rx="2" ry="2"/><rect class="c" x="434" y="66" rx="2" ry="2"/><rect class="c" x="434" y="82" rx="2" ry="2"/><rect class="c" x="434" y="98" rx="2" ry="2"/><rect class="c" x="450" y="2" rx="2" ry="2"/><rect class="c" x="450" y="18" rx="2" ry="2"/><rect class="c" x="450" y="34" rx="2" ry="2"/><rect class="c" x="450" y="50" rx="2" ry="2"/><rect class="c" x="450" y="66" rx="2" ry="2"/><rect class="c c0" x="450" y="82" rx="2" ry="2"/><rect class="c" x="450" y="98" rx="2" ry="2"/><rect class="c" x="466" y="2" rx="2" ry="2"/><rect class="c" x="466" y="18" rx="2" ry="2"/><rect class="c" x="466" y="34" rx="2" ry="2"/><rect class="c" x="466" y="50" rx="2" ry="2"/><rect class="c" x="466" y="66" rx="2" ry="2"/><rect class="c c1" x="466" y="82" rx="2" ry="2"/><rect class="c" x="466" y="98" rx="2" ry="2"/><rect class="c" x="482" y="2" rx="2" ry="2"/><rect class="c" x="482" y="18" rx="2" ry="2"/><rect class="c" x="482" y="34" rx="2" ry="2"/><rect class="c" x="482" y="50" rx="2" ry="2"/><rect class="c" x="482" y="66" rx="2" ry="2"/><rect class="c" x="482" y="82" rx="2" ry="2"/><rect class="c" x="482" y="98" rx="2" ry="2"/><rect class="c" x="498" y="2" rx="2" ry="2"/><rect class="c" x="498" y="18" rx="2" ry="2"/><rect class="c" x="498" y="34" rx="2" ry="2"/><rect class="c" x="498" y="50" rx="2" ry="2"/><rect class="c" x="498" y="66" rx="2" ry="2"/><rect class="c" x="498" y="82" rx="2" ry="2"/><rect class="c" x="498" y="98" rx="2" ry="2"/><rect class="c" x="514" y="2" rx="2" ry="2"/><rect class="c c2" x="514" y="18" rx="2" ry="2"/><rect class="c c3" x="514" y="34" rx="2" ry="2"/><rect class="c" x="514" y="50" rx="2" ry="2"/><rect class="c" x="514" y="66" rx="2" ry="2"/><rect class="c" x="514" y="82" rx="2" ry="2"/><rect class="c" x="514" y="98" rx="2" ry="2"/><rect class="c" x="530" y="2" rx="2" ry="2"/><rect class="c c4" x="530" y="18" rx="2" ry="2"/><rect class="c c5" x="530" y="34" rx="2" ry="2"/><rect class="c" x="530" y="50" rx="2" ry="2"/><rect class="c" x="530" y="66" rx="2" ry="2"/><rect class="c" x="530" y="82" rx="2" ry="2"/><rect class="c" x="530" y="98" rx="2" ry="2"/><rect class="c" x="546" y="2" rx="2" ry="2"/><rect class="c" x="546" y="18" rx="2" ry="2"/><rect class="c" x="546" y="34" rx="2" ry="2"/><rect class="c" x="546" y="50" rx="2" ry="2"/><rect class="c" x="546" y="66" rx="2" ry="2"/><rect class="c" x="546" y="82" rx="2" ry="2"/><rect class="c" x="546" y="98" rx="2" ry="2"/><rect class="c" x="562" y="2" rx="2" ry="2"/><rect class="c" x="562" y="18" rx="2" ry="2"/><rect class="c" x="562" y="34" rx="2" ry="2"/><rect class="c" x="562" y="50" rx="2" ry="2"/><rect class="c" x="562" y="66" rx="2" ry="2"/><rect class="c" x="562" y="82" rx="2" ry="2"/><rect class="c" x="562" y="98" rx="2" ry="2"/><rect class="c" x="578" y="2" rx="2" ry="2"/><rect class="c" x="578" y="18" rx="2" ry="2"/><rect class="c" x="578" y="34" rx="2" ry="2"/><rect class="c c6" x="578" y="50" rx="2" ry="2"/><rect class="c c7" x="578" y="66" rx="2" ry="2"/><rect class="c" x="578" y="82" rx="2" ry="2"/><rect class="c" x="578" y="98" rx="2" ry="2"/><rect class="c" x="594" y="2" rx="2" ry="2"/><rect class="c" x="594" y="18" rx="2" ry="2"/><rect class="c" x="594" y="34" rx="2" ry="2"/><rect class="c" x="594" y="50" rx="2" ry="2"/><rect class="c" x="594" y="66" rx="2" ry="2"/><rect class="c" x="594" y="82" rx="2" ry="2"/><rect class="c" x="594" y="98" rx="2" ry="2"/><rect class="c" x="610" y="2" rx="2" ry="2"/><rect class="c" x="610" y="18" rx="2" ry="2"/><rect class="c" x="610" y="34" rx="2" ry="2"/><rect class="c" x="610" y="50" rx="2" ry="2"/><rect class="c" x="610" y="66" rx="2" ry="2"/><rect class="c" x="610" y="82" rx="2" ry="2"/><rect class="c" x="610" y="98" rx="2" ry="2"/><rect class="c" x="626" y="2" rx="2" ry="2"/><rect class="c" x="626" y="18" rx="2" ry="2"/><rect class="c c8" x="626" y="34" rx="2" ry="2"/><rect class="c" x="626" y="50" rx="2" ry="2"/><rect class="c" x="626" y="66" rx="2" ry="2"/><rect class="c" x="626" y="82" rx="2" ry="2"/><rect class="c" x="626" y="98" rx="2" ry="2"/><rect class="c" x="642" y="2" rx="2" ry="2"/><rect class="c" x="642" y="18" rx="2" ry="2"/><rect class="c c9" x="642" y="34" rx="2" ry="2"/><rect class="c ca" x="642" y="50" rx="2" ry="2"/><rect class="c" x="642" y="66" rx="2" ry="2"/><rect class="c" x="642" y="82" rx="2" ry="2"/><rect class="c" x="642" y="98" rx="2" ry="2"/><rect class="c cb" x="658" y="2" rx="2" ry="2"/><rect class="c" x="658" y="18" rx="2" ry="2"/><rect class="c" x="658" y="34" rx="2" ry="2"/><rect class="c" x="658" y="50" rx="2" ry="2"/><rect class="c" x="658" y="66" rx="2" ry="2"/><rect class="c" x="658" y="82" rx="2" ry="2"/><rect class="c" x="658" y="98" rx="2" ry="2"/><rect class="c" x="674" y="2" rx="2" ry="2"/><rect class="c" x="674" y="18" rx="2" ry="2"/><rect class="c" x="674" y="34" rx="2" ry="2"/><rect class="c" x="674" y="50" rx="2" ry="2"/><rect class="c" x="674" y="66" rx="2" ry="2"/><rect class="c" x="674" y="82" rx="2" ry="2"/><rect class="c" x="674" y="98" rx="2" ry="2"/><rect class="c" x="690" y="2" rx="2" ry="2"/><rect class="c" x="690" y="18" rx="2" ry="2"/><rect class="c" x="690" y="34" rx="2" ry="2"/><rect class="c" x="690" y="50" rx="2" ry="2"/><rect class="c" x="690" y="66" rx="2" ry="2"/><rect class="c cc" x="690" y="82" rx="2" ry="2"/><rect class="c cd" x="690" y="98" rx="2" ry="2"/><rect class="c" x="706" y="2" rx="2" ry="2"/><rect class="c ce" x="706" y="18" rx="2" ry="2"/><rect class="c" x="706" y="34" rx="2" ry="2"/><rect class="c" x="706" y="50" rx="2" ry="2"/><rect class="c" x="706" y="66" rx="2" ry="2"/><rect class="c" x="706" y="82" rx="2" ry="2"/><rect class="c" x="706" y="98" rx="2" ry="2"/><rect class="c" x="722" y="2" rx="2" ry="2"/><rect class="c" x="722" y="18" rx="2" ry="2"/><rect class="c" x="722" y="34" rx="2" ry="2"/><rect class="c" x="722" y="50" rx="2" ry="2"/><rect class="c" x="722" y="66" rx="2" ry="2"/><rect class="c" x="722" y="82" rx="2" ry="2"/><rect class="c" x="722" y="98" rx="2" ry="2"/><rect class="c" x="738" y="2" rx="2" ry="2"/><rect class="c" x="738" y="18" rx="2" ry="2"/><rect class="c cf" x="738" y="34" rx="2" ry="2"/><rect class="c" x="738" y="50" rx="2" ry="2"/><rect class="c" x="738" y="66" rx="2" ry="2"/><rect class="c cg" x="738" y="82" rx="2" ry="2"/><rect class="c ch" x="738" y="98" rx="2" ry="2"/><rect class="c" x="754" y="2" rx="2" ry="2"/><rect class="c" x="754" y="18" rx="2" ry="2"/><rect class="c" x="754" y="34" rx="2" ry="2"/><rect class="c" x="754" y="50" rx="2" ry="2"/><rect class="c" x="754" y="66" rx="2" ry="2"/><rect class="c ci" x="754" y="82" rx="2" ry="2"/><rect class="c cj" x="754" y="98" rx="2" ry="2"/><rect class="c" x="770" y="2" rx="2" ry="2"/><rect class="c" x="770" y="18" rx="2" ry="2"/><rect class="c ck" x="770" y="34" rx="2" ry="2"/><rect class="c cl" x="770" y="50" rx="2" ry="2"/><rect class="c" x="770" y="66" rx="2" ry="2"/><rect class="c" x="770" y="82" rx="2" ry="2"/><rect class="c" x="770" y="98" rx="2" ry="2"/><rect class="c" x="786" y="2" rx="2" ry="2"/><rect class="c cm" x="786" y="18" rx="2" ry="2"/><rect class="c cn" x="786" y="34" rx="2" ry="2"/><rect class="c co" x="786" y="50" rx="2" ry="2"/><rect class="c cp" x="786" y="66" rx="2" ry="2"/><rect class="c cq" x="786" y="82" rx="2" ry="2"/><rect class="c cr" x="786" y="98" rx="2" ry="2"/><rect class="c cs" x="802" y="2" rx="2" ry="2"/><rect class="c ct" x="802" y="18" rx="2" ry="2"/><rect class="c cu" x="802" y="34" rx="2" ry="2"/><rect class="c cv" x="802" y="50" rx="2" ry="2"/><rect class="c cw" x="802" y="66" rx="2" ry="2"/><rect class="c cx" x="802" y="82" rx="2" ry="2"/><rect class="c cy" x="802" y="98" rx="2" ry="2"/><rect class="c cz" x="818" y="2" rx="2" ry="2"/><rect class="c c10" x="818" y="18" rx="2" ry="2"/><rect class="c c11" x="818" y="34" rx="2" ry="2"/><rect class="c c12" x="818" y="50" rx="2" ry="2"/><rect class="c c13" x="818" y="66" rx="2" ry="2"/><rect class="c c14" x="818" y="82" rx="2" ry="2"/><rect class="c c15" x="818" y="98" rx="2" ry="2"/><rect class="c c16" x="834" y="2" rx="2" ry="2"/><rect class="c c17" x="834" y="18" rx="2" ry="2"/><rect class="c c18" x="834" y="34" rx="2" ry="2"/><rect class="c c19" x="834" y="50" rx="2" ry="2"/><rect class="c c1a" x="834" y="66" rx="2" ry="2"/><rect class="c c1b" x="834" y="82" rx="2" ry="2"/><rect class="c c1c" x="834" y="98" rx="2" ry="2"/><rect class="u u0" height="12" width="294.8" x="0.0" y="144"/><rect class="u u1" height="12" width="35.2" x="294.2" y="144"/><rect class="u u2" height="12" width="17.9" x="328.8" y="144"/><rect class="u u3" height="12" width="364.0" x="346.1" y="144"/><rect class="u u4" height="12" width="87.1" x="709.6" y="144"/><rect class="u u5" height="12" width="52.5" x="796.1" y="144"/><rect class="s s0" x="0.8" y="0.8" width="14.4" height="14.4" rx="4.5" ry="4.5"/><rect class="s s1" x="1.8" y="1.8" width="12.3" height="12.3" rx="4.1" ry="4.1"/><rect class="s s2" x="2.6" y="2.6" width="10.8" height="10.8" rx="3.6" ry="3.6"/><rect class="s s3" x="3.0" y="3.0" width="9.9" height="9.9" rx="3.3" ry="3.3"/></svg>