<svg viewBox="-16 -32 880 192" width="880" height="192" xmlns="http://www.w3.org/2000/svg"><desc>Generated with https://github.com/Platane/snk</desc><style>:root{--cb:#1b1f230a;--cs:764ba2;--ce:#ebedf0;--c0:#ebedf0;--c1:#9be9a8;--c2:#40c463;--c3:#30a14e;--c4:#216e39}.c{shape-rendering:geometricPrecision;fill:var(--ce);stroke-width:1px;stroke:var(--cb);animation:none 34700ms linear infinite;width:12px;height:12px}@keyframes c0{13.25%{fill:var(--c1)}13.27%,100%{fill:var(--ce)}}.c.c0{fill:var(--c1);animation-name:c0}@keyframes c1{12.96%{fill:var(--c1)}12.98%,100%{fill:var(--ce)}}.c.c1{fill:var(--c1);animation-name:c1}@keyframes c2{8.06%{fill:var(--c1)}8.08%,100%{fill:var(--ce)}}.c.c2{fill:var(--c1);animation-name:c2}@keyframes c3{8.92%{fill:var(--c1)}8.94%,100%{fill:var(--ce)}}.c.c3{fill:var(--c1);animation-name:c3}@keyframes c4{8.35%{fill:var(--c1)}8.37%,100%{fill:var(--ce)}}.c.c4{fill:var(--c1);animation-name:c4}@keyframes c5{8.64%{fill:var(--c1)}8.66%,100%{fill:var(--ce)}}.c.c5{fill:var(--c1);animation-name:c5}@keyframes c6{10.36%{fill:var(--c1)}10.38%,100%{fill:var(--ce)}}.c.c6{fill:var(--c1);animation-name:c6}@keyframes c7{10.65%{fill:var(--c1)}10.67%,100%{fill:var(--ce)}}.c.c7{fill:var(--c1);animation-name:c7}@keyframes c8{64.54%{fill:var(--c2)}64.56%,100%{fill:var(--ce)}}.c.c8{fill:var(--c2);animation-name:c8}@keyframes c9{64.26%{fill:var(--c2)}64.28%,100%{fill:var(--ce)}}.c.c9{fill:var(--c2);animation-name:c9}@keyframes ca{80.11%{fill:var(--c4)}80.13%,100%{fill:var(--ce)}}.c.ca{fill:var(--c4);animation-name:ca}@keyframes cb{18.43%{fill:var(--c1)}18.45%,100%{fill:var(--ce)}}.c.cb{fill:var(--c1);animation-name:cb}@keyframes cc{78.66%{fill:var(--c3)}78.68%,100%{fill:var(--ce)}}.c.cc{fill:var(--c3);animation-name:cc}@keyframes cd{62.24%{fill:var(--c2)}62.26%,100%{fill:var(--ce)}}.c.cd{fill:var(--c2);animation-name:cd}@keyframes ce{19.59%{fill:var(--c1)}19.61%,100%{fill:var(--ce)}}.c.ce{fill:var(--c1);animation-name:ce}@keyframes cf{56.76%{fill:var(--c2)}56.78%,100%{fill:var(--ce)}}.c.cf{fill:var(--c2);animation-name:cf}@keyframes cg{23.04%{fill:var(--c1)}23.06%,100%{fill:var(--ce)}}.c.cg{fill:var(--c1);animation-name:cg}@keyframes ch{57.92%{fill:var(--c2)}57.94%,100%{fill:var(--ce)}}.c.ch{fill:var(--c2);animation-name:ch}@keyframes ci{22.76%{fill:var(--c1)}22.78%,100%{fill:var(--ce)}}.c.ci{fill:var(--c1);animation-name:ci}@keyframes cj{58.2%{fill:var(--c2)}58.22%,100%{fill:var(--ce)}}.c.cj{fill:var(--c2);animation-name:cj}@keyframes ck{21.6%{fill:var(--c1)}21.62%,100%{fill:var(--ce)}}.c.ck{fill:var(--c1);animation-name:ck}@keyframes cl{55.9%{fill:var(--c2)}55.92%,100%{fill:var(--ce)}}.c.cl{fill:var(--c2);animation-name:cl}@keyframes cm{21.03%{fill:var(--c1)}21.05%,100%{fill:var(--ce)}}.c.cm{fill:var(--c1);animation-name:cm}@keyframes cn{21.32%{fill:var(--c1)}21.34%,100%{fill:var(--ce)}}.c.cn{fill:var(--c1);animation-name:cn}@keyframes co{44.66%{fill:var(--c2)}44.68%,100%{fill:var(--ce)}}.c.co{fill:var(--c2);animation-name:co}@keyframes cp{44.37%{fill:var(--c1)}44.39%,100%{fill:var(--ce)}}.c.cp{fill:var(--c1);animation-name:cp}@keyframes cq{83.28%{fill:var(--c4)}83.3%,100%{fill:var(--ce)}}.c.cq{fill:var(--c4);animation-name:cq}@keyframes cr{58.78%{fill:var(--c2)}58.8%,100%{fill:var(--ce)}}.c.cr{fill:var(--c2);animation-name:cr}@keyframes cs{52.73%{fill:var(--c2)}52.75%,100%{fill:var(--ce)}}.c.cs{fill:var(--c2);animation-name:cs}@keyframes ct{52.44%{fill:var(--c2)}52.46%,100%{fill:var(--ce)}}.c.ct{fill:var(--c2);animation-name:ct}@keyframes cu{53.88%{fill:var(--c2)}53.9%,100%{fill:var(--ce)}}.c.cu{fill:var(--c2);animation-name:cu}@keyframes cv{73.77%{fill:var(--c3)}73.79%,100%{fill:var(--ce)}}.c.cv{fill:var(--c3);animation-name:cv}@keyframes cw{46.96%{fill:var(--c2)}46.98%,100%{fill:var(--ce)}}.c.cw{fill:var(--c2);animation-name:cw}@keyframes cx{59.93%{fill:var(--c2)}59.95%,100%{fill:var(--ce)}}.c.cx{fill:var(--c2);animation-name:cx}@keyframes cy{59.07%{fill:var(--c2)}59.09%,100%{fill:var(--ce)}}.c.cy{fill:var(--c2);animation-name:cy}@keyframes cz{74.92%{fill:var(--c3)}74.94%,100%{fill:var(--ce)}}.c.cz{fill:var(--c3);animation-name:cz}@keyframes c10{52.15%{fill:var(--c2)}52.17%,100%{fill:var(--ce)}}.c.c10{fill:var(--c2);animation-name:c10}@keyframes c11{54.17%{fill:var(--c2)}54.19%,100%{fill:var(--ce)}}.c.c11{fill:var(--c2);animation-name:c11}@keyframes c12{73.48%{fill:var(--c3)}73.5%,100%{fill:var(--ce)}}.c.c12{fill:var(--c3);animation-name:c12}@keyframes c13{47.25%{fill:var(--c1)}47.27%,100%{fill:var(--ce)}}.c.c13{fill:var(--c1);animation-name:c13}@keyframes c14{47.54%{fill:var(--c2)}47.56%,100%{fill:var(--ce)}}.c.c14{fill:var(--c2);animation-name:c14}@keyframes c15{59.36%{fill:var(--c2)}59.38%,100%{fill:var(--ce)}}.c.c15{fill:var(--c2);animation-name:c15}@keyframes c16{51%{fill:var(--c2)}51.02%,100%{fill:var(--ce)}}.c.c16{fill:var(--c2);animation-name:c16}@keyframes c17{50.71%{fill:var(--c2)}50.73%,100%{fill:var(--ce)}}.c.c17{fill:var(--c2);animation-name:c17}@keyframes c18{50.42%{fill:var(--c2)}50.44%,100%{fill:var(--ce)}}.c.c18{fill:var(--c2);animation-name:c18}@keyframes c19{73.19%{fill:var(--c3)}73.21%,100%{fill:var(--ce)}}.c.c19{fill:var(--c3);animation-name:c19}@keyframes c1a{84.43%{fill:var(--c4)}84.45%,100%{fill:var(--ce)}}.c.c1a{fill:var(--c4);animation-name:c1a}@keyframes c1b{47.83%{fill:var(--c2)}47.85%,100%{fill:var(--ce)}}.c.c1b{fill:var(--c2);animation-name:c1b}@keyframes c1c{26.21%{fill:var(--c1)}26.23%,100%{fill:var(--ce)}}.c.c1c{fill:var(--c1);animation-name:c1c}@keyframes c1d{51.29%{fill:var(--c2)}51.31%,100%{fill:var(--ce)}}.c.c1d{fill:var(--c2);animation-name:c1d}@keyframes c1e{39.47%{fill:var(--c1)}39.49%,100%{fill:var(--ce)}}.c.c1e{fill:var(--c1);animation-name:c1e}@keyframes c1f{39.18%{fill:var(--c1)}39.2%,100%{fill:var(--ce)}}.c.c1f{fill:var(--c1);animation-name:c1f}@keyframes c1g{85%{fill:var(--c4)}85.02%,100%{fill:var(--ce)}}.c.c1g{fill:var(--c4);animation-name:c1g}@keyframes c1h{48.4%{fill:var(--c2)}48.42%,100%{fill:var(--ce)}}.c.c1h{fill:var(--c2);animation-name:c1h}@keyframes c1i{37.17%{fill:var(--c1)}37.19%,100%{fill:var(--ce)}}.c.c1i{fill:var(--c1);animation-name:c1i}@keyframes c1j{26.5%{fill:var(--c1)}26.52%,100%{fill:var(--ce)}}.c.c1j{fill:var(--c1);animation-name:c1j}@keyframes c1k{32.55%{fill:var(--c1)}32.57%,100%{fill:var(--ce)}}.c.c1k{fill:var(--c1);animation-name:c1k}@keyframes c1l{39.76%{fill:var(--c2)}39.78%,100%{fill:var(--ce)}}.c.c1l{fill:var(--c2);animation-name:c1l}@keyframes c1m{38.89%{fill:var(--c1)}38.91%,100%{fill:var(--ce)}}.c.c1m{fill:var(--c1);animation-name:c1m}@keyframes c1n{35.72%{fill:var(--c1)}35.74%,100%{fill:var(--ce)}}.c.c1n{fill:var(--c1);animation-name:c1n}@keyframes c1o{36.01%{fill:var(--c1)}36.03%,100%{fill:var(--ce)}}.c.c1o{fill:var(--c1);animation-name:c1o}@keyframes c1p{36.88%{fill:var(--c1)}36.9%,100%{fill:var(--ce)}}.c.c1p{fill:var(--c1);animation-name:c1p}@keyframes c1q{26.79%{fill:var(--c1)}26.81%,100%{fill:var(--ce)}}.c.c1q{fill:var(--c1);animation-name:c1q}@keyframes c1r{32.27%{fill:var(--c1)}32.29%,100%{fill:var(--ce)}}.c.c1r{fill:var(--c1);animation-name:c1r}@keyframes c1s{33.71%{fill:var(--c1)}33.73%,100%{fill:var(--ce)}}.c.c1s{fill:var(--c1);animation-name:c1s}@keyframes c1t{49.56%{fill:var(--c2)}49.58%,100%{fill:var(--ce)}}.c.c1t{fill:var(--c2);animation-name:c1t}@keyframes c1u{35.44%{fill:var(--c1)}35.46%,100%{fill:var(--ce)}}.c.c1u{fill:var(--c1);animation-name:c1u}@keyframes c1v{36.3%{fill:var(--c1)}36.32%,100%{fill:var(--ce)}}.c.c1v{fill:var(--c1);animation-name:c1v}@keyframes c1w{36.59%{fill:var(--c1)}36.61%,100%{fill:var(--ce)}}.c.c1w{fill:var(--c1);animation-name:c1w}@keyframes c1x{27.08%{fill:var(--c1)}27.1%,100%{fill:var(--ce)}}.c.c1x{fill:var(--c1);animation-name:c1x}@keyframes c1y{31.98%{fill:var(--c1)}32%,100%{fill:var(--ce)}}.c.c1y{fill:var(--c1);animation-name:c1y}@keyframes c1z{34%{fill:var(--c1)}34.02%,100%{fill:var(--ce)}}.c.c1z{fill:var(--c1);animation-name:c1z}@keyframes c20{34.86%{fill:var(--c1)}34.88%,100%{fill:var(--ce)}}.c.c20{fill:var(--c1);animation-name:c20}@keyframes c21{29.96%{fill:var(--c1)}29.98%,100%{fill:var(--ce)}}.c.c21{fill:var(--c1);animation-name:c21}@keyframes c22{29.67%{fill:var(--c1)}29.69%,100%{fill:var(--ce)}}.c.c22{fill:var(--c1);animation-name:c22}@keyframes c23{29.38%{fill:var(--c1)}29.4%,100%{fill:var(--ce)}}.c.c23{fill:var(--c1);animation-name:c23}@keyframes c24{27.37%{fill:var(--c1)}27.39%,100%{fill:var(--ce)}}.c.c24{fill:var(--c1);animation-name:c24}@keyframes c25{31.69%{fill:var(--c1)}31.71%,100%{fill:var(--ce)}}.c.c25{fill:var(--c1);animation-name:c25}@keyframes c26{34.28%{fill:var(--c1)}34.3%,100%{fill:var(--ce)}}.c.c26{fill:var(--c1);animation-name:c26}@keyframes c27{30.54%{fill:var(--c1)}30.56%,100%{fill:var(--ce)}}.c.c27{fill:var(--c1);animation-name:c27}@keyframes c28{30.25%{fill:var(--c1)}30.27%,100%{fill:var(--ce)}}.c.c28{fill:var(--c1);animation-name:c28}@keyframes c29{28.23%{fill:var(--c1)}28.25%,100%{fill:var(--ce)}}.c.c29{fill:var(--c1);animation-name:c29}@keyframes c2a{27.94%{fill:var(--c1)}27.96%,100%{fill:var(--ce)}}.c.c2a{fill:var(--c1);animation-name:c2a}@keyframes c2b{27.66%{fill:var(--c1)}27.68%,100%{fill:var(--ce)}}.c.c2b{fill:var(--c1);animation-name:c2b}@keyframes c2c{31.4%{fill:var(--c1)}31.42%,100%{fill:var(--ce)}}.c.c2c{fill:var(--c1);animation-name:c2c}@keyframes c2d{31.11%{fill:var(--c1)}31.13%,100%{fill:var(--ce)}}.c.c2d{fill:var(--c1);animation-name:c2d}@keyframes c2e{30.83%{fill:var(--c1)}30.85%,100%{fill:var(--ce)}}.c.c2e{fill:var(--c1);animation-name:c2e}@keyframes c2f{70.88%{fill:var(--c2)}70.9%,100%{fill:var(--ce)}}.c.c2f{fill:var(--c2);animation-name:c2f}@keyframes c2g{28.52%{fill:var(--c1)}28.54%,100%{fill:var(--ce)}}.c.c2g{fill:var(--c1);animation-name:c2g}.u{transform-origin:0 0;transform:scale(0,1);animation:none linear 34700ms infinite}@keyframes u0{8.06%{transform:scale(0.000,1)}8.08%,8.35%{transform:scale(0.020,1)}8.37%,8.64%{transform:scale(0.040,1)}8.66%,8.92%{transform:scale(0.060,1)}8.94%,10.36%{transform:scale(0.080,1)}10.38%,10.65%{transform:scale(0.100,1)}10.67%,12.96%{transform:scale(0.120,1)}12.98%,13.25%{transform:scale(0.140,1)}13.27%,18.43%{transform:scale(0.160,1)}18.45%,19.59%{transform:scale(0.180,1)}19.61%,21.03%{transform:scale(0.200,1)}21.05%,21.32%{transform:scale(0.220,1)}21.34%,21.6%{transform:scale(0.240,1)}21.62%,22.76%{transform:scale(0.260,1)}22.78%,23.04%{transform:scale(0.280,1)}23.06%,26.21%{transform:scale(0.300,1)}26.23%,26.5%{transform:scale(0.320,1)}26.52%,26.79%{transform:scale(0.340,1)}26.81%,27.08%{transform:scale(0.360,1)}27.1%,27.37%{transform:scale(0.380,1)}27.39%,27.66%{transform:scale(0.400,1)}27.68%,27.94%{transform:scale(0.420,1)}27.96%,28.23%{transform:scale(0.440,1)}28.25%,28.52%{transform:scale(0.460,1)}28.54%,29.38%{transform:scale(0.480,1)}29.4%,29.67%{transform:scale(0.500,1)}29.69%,29.96%{transform:scale(0.520,1)}29.98%,30.25%{transform:scale(0.540,1)}30.27%,30.54%{transform:scale(0.560,1)}30.56%,30.83%{transform:scale(0.580,1)}30.85%,31.11%{transform:scale(0.600,1)}31.13%,31.4%{transform:scale(0.620,1)}31.42%,31.69%{transform:scale(0.640,1)}31.71%,31.98%{transform:scale(0.660,1)}32%,32.27%{transform:scale(0.680,1)}32.29%,32.55%{transform:scale(0.700,1)}32.57%,33.71%{transform:scale(0.720,1)}33.73%,34%{transform:scale(0.740,1)}34.02%,34.28%{transform:scale(0.760,1)}34.3%,34.86%{transform:scale(0.780,1)}34.88%,35.44%{transform:scale(0.800,1)}35.46%,35.72%{transform:scale(0.820,1)}35.74%,36.01%{transform:scale(0.840,1)}36.03%,36.3%{transform:scale(0.860,1)}36.32%,36.59%{transform:scale(0.880,1)}36.61%,36.88%{transform:scale(0.900,1)}36.9%,37.17%{transform:scale(0.920,1)}37.19%,38.89%{transform:scale(0.940,1)}38.91%,39.18%{transform:scale(0.960,1)}39.2%,39.47%{transform:scale(0.980,1)}39.49%,100%{transform:scale(1.000,1)}}.u.u0{fill:var(--c1);animation-name:u0;transform-origin:0.0px 0}@keyframes u1{39.76%{transform:scale(0.000,1)}39.78%,100%{transform:scale(1.000,1)}}.u.u1{fill:var(--c2);animation-name:u1;transform-origin:476.4px 0}@keyframes u2{44.37%{transform:scale(0.000,1)}44.39%,100%{transform:scale(1.000,1)}}.u.u2{fill:var(--c1);animation-name:u2;transform-origin:485.9px 0}@keyframes u3{44.66%{transform:scale(0.000,1)}44.68%,46.96%{transform:scale(0.500,1)}46.98%,100%{transform:scale(1.000,1)}}.u.u3{fill:var(--c2);animation-name:u3;transform-origin:495.5px 0}@keyframes u4{47.25%{transform:scale(0.000,1)}47.27%,100%{transform:scale(1.000,1)}}.u.u4{fill:var(--c1);animation-name:u4;transform-origin:514.5px 0}@keyframes u5{47.54%{transform:scale(0.000,1)}47.56%,47.83%{transform:scale(0.040,1)}47.85%,48.4%{transform:scale(0.080,1)}48.42%,49.56%{transform:scale(0.120,1)}49.58%,50.42%{transform:scale(0.160,1)}50.44%,50.71%{transform:scale(0.200,1)}50.73%,51%{transform:scale(0.240,1)}51.02%,51.29%{transform:scale(0.280,1)}51.31%,52.15%{transform:scale(0.320,1)}52.17%,52.44%{transform:scale(0.360,1)}52.46%,52.73%{transform:scale(0.400,1)}52.75%,53.88%{transform:scale(0.440,1)}53.9%,54.17%{transform:scale(0.480,1)}54.19%,55.9%{transform:scale(0.520,1)}55.92%,56.76%{transform:scale(0.560,1)}56.78%,57.92%{transform:scale(0.600,1)}57.94%,58.2%{transform:scale(0.640,1)}58.22%,58.78%{transform:scale(0.680,1)}58.8%,59.07%{transform:scale(0.720,1)}59.09%,59.36%{transform:scale(0.760,1)}59.38%,59.93%{transform:scale(0.800,1)}59.95%,62.24%{transform:scale(0.840,1)}62.26%,64.26%{transform:scale(0.880,1)}64.28%,64.54%{transform:scale(0.920,1)}64.56%,70.88%{transform:scale(0.960,1)}70.9%,100%{transform:scale(1.000,1)}}.u.u5{fill:var(--c2);animation-name:u5;transform-origin:524.0px 0}@keyframes u6{73.19%{transform:scale(0.000,1)}73.21%,73.48%{transform:scale(0.200,1)}73.5%,73.77%{transform:scale(0.400,1)}73.79%,74.92%{transform:scale(0.600,1)}74.94%,78.66%{transform:scale(0.800,1)}78.68%,100%{transform:scale(1.000,1)}}.u.u6{fill:var(--c3);animation-name:u6;transform-origin:762.2px 0}@keyframes u7{80.11%{transform:scale(0.000,1)}80.13%,83.28%{transform:scale(0.250,1)}83.3%,84.43%{transform:scale(0.500,1)}84.45%,85%{transform:scale(0.750,1)}85.02%,100%{transform:scale(1.000,1)}}.u.u7{fill:var(--c4);animation-name:u7;transform-origin:809.9px 0}.s{shape-rendering:geometricPrecision;fill:var(--cs);animation:none linear 34700ms infinite}@keyframes s0{0%,99.71%{transform:translate(0px,-16px)}0.29%{transform:translate(0px,0px)}7.78%{transform:translate(416px,0px)}8.07%{transform:translate(416px,16px)}8.36%{transform:translate(432px,16px)}8.65%{transform:translate(432px,32px)}8.93%{transform:translate(416px,32px)}9.22%{transform:translate(416px,48px)}10.37%{transform:translate(480px,48px)}10.66%{transform:translate(480px,64px)}12.68%{transform:translate(368px,64px)}12.97%{transform:translate(368px,80px)}13.26%{transform:translate(352px,80px)}13.54%{transform:translate(352px,64px)}17.29%{transform:translate(560px,64px)}18.44%{transform:translate(560px,0px)}19.31%{transform:translate(608px,0px)}19.6%{transform:translate(608px,16px)}21.04%,45.24%,53.31%{transform:translate(688px,16px)}21.33%,46.11%{transform:translate(688px,32px)}21.9%,43.23%,56.48%{transform:translate(656px,32px)}22.77%{transform:translate(656px,80px)}23.05%{transform:translate(640px,80px)}23.34%{transform:translate(640px,64px)}23.92%{transform:translate(672px,64px)}24.78%{transform:translate(672px,112px)}25.94%{transform:translate(736px,112px)}26.22%{transform:translate(736px,96px)}27.67%{transform:translate(816px,96px)}28.24%{transform:translate(816px,64px)}28.53%{transform:translate(832px,64px)}28.82%{transform:translate(832px,80px)}29.39%{transform:translate(800px,80px)}29.97%,35.16%{transform:translate(800px,48px)}30.26%,71.18%{transform:translate(816px,48px)}30.55%,34.58%,71.47%{transform:translate(816px,32px)}30.84%{transform:translate(832px,32px)}31.41%{transform:translate(832px,0px)}32.56%{transform:translate(768px,0px)}32.85%,40.35%{transform:translate(768px,-16px)}33.14%{transform:translate(784px,-16px)}33.72%{transform:translate(784px,16px)}34.29%{transform:translate(816px,16px)}34.87%{transform:translate(800px,32px)}35.73%{transform:translate(768px,48px)}36.02%{transform:translate(768px,64px)}36.31%,48.99%{transform:translate(784px,64px)}36.6%{transform:translate(784px,80px)}37.18%,48.13%{transform:translate(752px,80px)}37.46%{transform:translate(752px,96px)}37.75%{transform:translate(768px,96px)}38.9%{transform:translate(768px,32px)}39.19%{transform:translate(752px,32px)}39.48%,51.59%{transform:translate(752px,16px)}39.77%{transform:translate(768px,16px)}42.07%{transform:translate(672px,-16px)}42.94%,45.82%{transform:translate(672px,32px)}43.8%{transform:translate(656px,64px)}44.38%,46.69%,83%{transform:translate(688px,64px)}45.53%,55.33%{transform:translate(672px,16px)}47.26%{transform:translate(720px,64px)}47.55%,59.65%{transform:translate(720px,80px)}48.41%,84.73%{transform:translate(752px,64px)}49.57%{transform:translate(784px,32px)}50.43%,72.91%{transform:translate(736px,32px)}51.01%{transform:translate(736px,0px)}51.3%{transform:translate(752px,0px)}52.45%,53.6%{transform:translate(704px,16px)}52.74%{transform:translate(704px,0px)}53.03%{transform:translate(688px,0px)}53.89%,74.06%{transform:translate(704px,32px)}54.18%,74.35%{transform:translate(720px,32px)}54.47%{transform:translate(720px,16px)}55.91%{transform:translate(672px,48px)}56.2%{transform:translate(656px,48px)}56.77%{transform:translate(640px,32px)}57.93%{transform:translate(640px,96px)}59.37%{transform:translate(720px,96px)}59.94%{transform:translate(704px,80px)}60.23%{transform:translate(704px,96px)}62.54%{transform:translate(576px,96px)}63.69%{transform:translate(576px,32px)}64.55%{transform:translate(528px,32px)}64.84%{transform:translate(528px,16px)}70.32%{transform:translate(832px,16px)}70.89%{transform:translate(832px,48px)}73.2%{transform:translate(736px,48px)}73.78%{transform:translate(704px,48px)}74.93%{transform:translate(720px,0px)}77.23%{transform:translate(592px,0px)}78.67%{transform:translate(592px,80px)}78.96%{transform:translate(576px,80px)}79.54%{transform:translate(576px,48px)}80.12%{transform:translate(544px,48px)}80.4%{transform:translate(544px,64px)}83.29%{transform:translate(688px,80px)}84.15%{transform:translate(736px,80px)}84.44%{transform:translate(736px,64px)}85.01%{transform:translate(752px,48px)}96.83%{transform:translate(96px,48px)}97.41%{transform:translate(96px,16px)}97.69%{transform:translate(80px,16px)}98.27%{transform:translate(80px,-16px)}}.s.s0{transform:translate(0px,-16px);animation-name:s0}@keyframes s1{0%,99.71%{transform:translate(16px,-16px)}0.29%{transform:translate(0px,-16px)}0.58%{transform:translate(0px,0px)}8.07%{transform:translate(416px,0px)}8.36%{transform:translate(416px,16px)}8.65%{transform:translate(432px,16px)}8.93%{transform:translate(432px,32px)}9.22%{transform:translate(416px,32px)}9.51%{transform:translate(416px,48px)}10.66%{transform:translate(480px,48px)}10.95%{transform:translate(480px,64px)}12.97%{transform:translate(368px,64px)}13.26%{transform:translate(368px,80px)}13.54%{transform:translate(352px,80px)}13.83%{transform:translate(352px,64px)}17.58%{transform:translate(560px,64px)}18.73%{transform:translate(560px,0px)}19.6%{transform:translate(608px,0px)}19.88%{transform:translate(608px,16px)}21.33%,45.53%,53.6%{transform:translate(688px,16px)}21.61%,46.4%{transform:translate(688px,32px)}22.19%,43.52%,56.77%{transform:translate(656px,32px)}23.05%{transform:translate(656px,80px)}23.34%{transform:translate(640px,80px)}23.63%{transform:translate(640px,64px)}24.21%{transform:translate(672px,64px)}25.07%{transform:translate(672px,112px)}26.22%{transform:translate(736px,112px)}26.51%{transform:translate(736px,96px)}27.95%{transform:translate(816px,96px)}28.53%{transform:translate(816px,64px)}28.82%{transform:translate(832px,64px)}29.11%{transform:translate(832px,80px)}29.68%{transform:translate(800px,80px)}30.26%,35.45%{transform:translate(800px,48px)}30.55%,71.47%{transform:translate(816px,48px)}30.84%,34.87%,71.76%{transform:translate(816px,32px)}31.12%{transform:translate(832px,32px)}31.7%{transform:translate(832px,0px)}32.85%{transform:translate(768px,0px)}33.14%,40.63%{transform:translate(768px,-16px)}33.43%{transform:translate(784px,-16px)}34.01%{transform:translate(784px,16px)}34.58%{transform:translate(816px,16px)}35.16%{transform:translate(800px,32px)}36.02%{transform:translate(768px,48px)}36.31%{transform:translate(768px,64px)}36.6%,49.28%{transform:translate(784px,64px)}36.89%{transform:translate(784px,80px)}37.46%,48.41%{transform:translate(752px,80px)}37.75%{transform:translate(752px,96px)}38.04%{transform:translate(768px,96px)}39.19%{transform:translate(768px,32px)}39.48%{transform:translate(752px,32px)}39.77%,51.87%{transform:translate(752px,16px)}40.06%{transform:translate(768px,16px)}42.36%{transform:translate(672px,-16px)}43.23%,46.11%{transform:translate(672px,32px)}44.09%{transform:translate(656px,64px)}44.67%,46.97%,83.29%{transform:translate(688px,64px)}45.82%,55.62%{transform:translate(672px,16px)}47.55%{transform:translate(720px,64px)}47.84%,59.94%{transform:translate(720px,80px)}48.7%,85.01%{transform:translate(752px,64px)}49.86%{transform:translate(784px,32px)}50.72%,73.2%{transform:translate(736px,32px)}51.3%{transform:translate(736px,0px)}51.59%{transform:translate(752px,0px)}52.74%,53.89%{transform:translate(704px,16px)}53.03%{transform:translate(704px,0px)}53.31%{transform:translate(688px,0px)}54.18%,74.35%{transform:translate(704px,32px)}54.47%,74.64%{transform:translate(720px,32px)}54.76%{transform:translate(720px,16px)}56.2%{transform:translate(672px,48px)}56.48%{transform:translate(656px,48px)}57.06%{transform:translate(640px,32px)}58.21%{transform:translate(640px,96px)}59.65%{transform:translate(720px,96px)}60.23%{transform:translate(704px,80px)}60.52%{transform:translate(704px,96px)}62.82%{transform:translate(576px,96px)}63.98%{transform:translate(576px,32px)}64.84%{transform:translate(528px,32px)}65.13%{transform:translate(528px,16px)}70.61%{transform:translate(832px,16px)}71.18%{transform:translate(832px,48px)}73.49%{transform:translate(736px,48px)}74.06%{transform:translate(704px,48px)}75.22%{transform:translate(720px,0px)}77.52%{transform:translate(592px,0px)}78.96%{transform:translate(592px,80px)}79.25%{transform:translate(576px,80px)}79.83%{transform:translate(576px,48px)}80.4%{transform:translate(544px,48px)}80.69%{transform:translate(544px,64px)}83.57%{transform:translate(688px,80px)}84.44%{transform:translate(736px,80px)}84.73%{transform:translate(736px,64px)}85.3%{transform:translate(752px,48px)}97.12%{transform:translate(96px,48px)}97.69%{transform:translate(96px,16px)}97.98%{transform:translate(80px,16px)}98.56%{transform:translate(80px,-16px)}}.s.s1{transform:translate(16px,-16px);animation-name:s1}@keyframes s2{0%,99.71%{transform:translate(32px,-16px)}0.58%{transform:translate(0px,-16px)}0.86%{transform:translate(0px,0px)}8.36%{transform:translate(416px,0px)}8.65%{transform:translate(416px,16px)}8.93%{transform:translate(432px,16px)}9.22%{transform:translate(432px,32px)}9.51%{transform:translate(416px,32px)}9.8%{transform:translate(416px,48px)}10.95%{transform:translate(480px,48px)}11.24%{transform:translate(480px,64px)}13.26%{transform:translate(368px,64px)}13.54%{transform:translate(368px,80px)}13.83%{transform:translate(352px,80px)}14.12%{transform:translate(352px,64px)}17.87%{transform:translate(560px,64px)}19.02%{transform:translate(560px,0px)}19.88%{transform:translate(608px,0px)}20.17%{transform:translate(608px,16px)}21.61%,45.82%,53.89%{transform:translate(688px,16px)}21.9%,46.69%{transform:translate(688px,32px)}22.48%,43.8%,57.06%{transform:translate(656px,32px)}23.34%{transform:translate(656px,80px)}23.63%{transform:translate(640px,80px)}23.92%{transform:translate(640px,64px)}24.5%{transform:translate(672px,64px)}25.36%{transform:translate(672px,112px)}26.51%{transform:translate(736px,112px)}26.8%{transform:translate(736px,96px)}28.24%{transform:translate(816px,96px)}28.82%{transform:translate(816px,64px)}29.11%{transform:translate(832px,64px)}29.39%{transform:translate(832px,80px)}29.97%{transform:translate(800px,80px)}30.55%,35.73%{transform:translate(800px,48px)}30.84%,71.76%{transform:translate(816px,48px)}31.12%,35.16%,72.05%{transform:translate(816px,32px)}31.41%{transform:translate(832px,32px)}31.99%{transform:translate(832px,0px)}33.14%{transform:translate(768px,0px)}33.43%,40.92%{transform:translate(768px,-16px)}33.72%{transform:translate(784px,-16px)}34.29%{transform:translate(784px,16px)}34.87%{transform:translate(816px,16px)}35.45%{transform:translate(800px,32px)}36.31%{transform:translate(768px,48px)}36.6%{transform:translate(768px,64px)}36.89%,49.57%{transform:translate(784px,64px)}37.18%{transform:translate(784px,80px)}37.75%,48.7%{transform:translate(752px,80px)}38.04%{transform:translate(752px,96px)}38.33%{transform:translate(768px,96px)}39.48%{transform:translate(768px,32px)}39.77%{transform:translate(752px,32px)}40.06%,52.16%{transform:translate(752px,16px)}40.35%{transform:translate(768px,16px)}42.65%{transform:translate(672px,-16px)}43.52%,46.4%{transform:translate(672px,32px)}44.38%{transform:translate(656px,64px)}44.96%,47.26%,83.57%{transform:translate(688px,64px)}46.11%,55.91%{transform:translate(672px,16px)}47.84%{transform:translate(720px,64px)}48.13%,60.23%{transform:translate(720px,80px)}48.99%,85.3%{transform:translate(752px,64px)}50.14%{transform:translate(784px,32px)}51.01%,73.49%{transform:translate(736px,32px)}51.59%{transform:translate(736px,0px)}51.87%{transform:translate(752px,0px)}53.03%,54.18%{transform:translate(704px,16px)}53.31%{transform:translate(704px,0px)}53.6%{transform:translate(688px,0px)}54.47%,74.64%{transform:translate(704px,32px)}54.76%,74.93%{transform:translate(720px,32px)}55.04%{transform:translate(720px,16px)}56.48%{transform:translate(672px,48px)}56.77%{transform:translate(656px,48px)}57.35%{transform:translate(640px,32px)}58.5%{transform:translate(640px,96px)}59.94%{transform:translate(720px,96px)}60.52%{transform:translate(704px,80px)}60.81%{transform:translate(704px,96px)}63.11%{transform:translate(576px,96px)}64.27%{transform:translate(576px,32px)}65.13%{transform:translate(528px,32px)}65.42%{transform:translate(528px,16px)}70.89%{transform:translate(832px,16px)}71.47%{transform:translate(832px,48px)}73.78%{transform:translate(736px,48px)}74.35%{transform:translate(704px,48px)}75.5%{transform:translate(720px,0px)}77.81%{transform:translate(592px,0px)}79.25%{transform:translate(592px,80px)}79.54%{transform:translate(576px,80px)}80.12%{transform:translate(576px,48px)}80.69%{transform:translate(544px,48px)}80.98%{transform:translate(544px,64px)}83.86%{transform:translate(688px,80px)}84.73%{transform:translate(736px,80px)}85.01%{transform:translate(736px,64px)}85.59%{transform:translate(752px,48px)}97.41%{transform:translate(96px,48px)}97.98%{transform:translate(96px,16px)}98.27%{transform:translate(80px,16px)}98.85%{transform:translate(80px,-16px)}}.s.s2{transform:translate(32px,-16px);animation-name:s2}@keyframes s3{0%,99.71%{transform:translate(48px,-16px)}0.86%{transform:translate(0px,-16px)}1.15%{transform:translate(0px,0px)}8.65%{transform:translate(416px,0px)}8.93%{transform:translate(416px,16px)}9.22%{transform:translate(432px,16px)}9.51%{transform:translate(432px,32px)}9.8%{transform:translate(416px,32px)}10.09%{transform:translate(416px,48px)}11.24%{transform:translate(480px,48px)}11.53%{transform:translate(480px,64px)}13.54%{transform:translate(368px,64px)}13.83%{transform:translate(368px,80px)}14.12%{transform:translate(352px,80px)}14.41%{transform:translate(352px,64px)}18.16%{transform:translate(560px,64px)}19.31%{transform:translate(560px,0px)}20.17%{transform:translate(608px,0px)}20.46%{transform:translate(608px,16px)}21.9%,46.11%,54.18%{transform:translate(688px,16px)}22.19%,46.97%{transform:translate(688px,32px)}22.77%,44.09%,57.35%{transform:translate(656px,32px)}23.63%{transform:translate(656px,80px)}23.92%{transform:translate(640px,80px)}24.21%{transform:translate(640px,64px)}24.78%{transform:translate(672px,64px)}25.65%{transform:translate(672px,112px)}26.8%{transform:translate(736px,112px)}27.09%{transform:translate(736px,96px)}28.53%{transform:translate(816px,96px)}29.11%{transform:translate(816px,64px)}29.39%{transform:translate(832px,64px)}29.68%{transform:translate(832px,80px)}30.26%{transform:translate(800px,80px)}30.84%,36.02%{transform:translate(800px,48px)}31.12%,72.05%{transform:translate(816px,48px)}31.41%,35.45%,72.33%{transform:translate(816px,32px)}31.7%{transform:translate(832px,32px)}32.28%{transform:translate(832px,0px)}33.43%{transform:translate(768px,0px)}33.72%,41.21%{transform:translate(768px,-16px)}34.01%{transform:translate(784px,-16px)}34.58%{transform:translate(784px,16px)}35.16%{transform:translate(816px,16px)}35.73%{transform:translate(800px,32px)}36.6%{transform:translate(768px,48px)}36.89%{transform:translate(768px,64px)}37.18%,49.86%{transform:translate(784px,64px)}37.46%{transform:translate(784px,80px)}38.04%,48.99%{transform:translate(752px,80px)}38.33%{transform:translate(752px,96px)}38.62%{transform:translate(768px,96px)}39.77%{transform:translate(768px,32px)}40.06%{transform:translate(752px,32px)}40.35%,52.45%{transform:translate(752px,16px)}40.63%{transform:translate(768px,16px)}42.94%{transform:translate(672px,-16px)}43.8%,46.69%{transform:translate(672px,32px)}44.67%{transform:translate(656px,64px)}45.24%,47.55%,83.86%{transform:translate(688px,64px)}46.4%,56.2%{transform:translate(672px,16px)}48.13%{transform:translate(720px,64px)}48.41%,60.52%{transform:translate(720px,80px)}49.28%,85.59%{transform:translate(752px,64px)}50.43%{transform:translate(784px,32px)}51.3%,73.78%{transform:translate(736px,32px)}51.87%{transform:translate(736px,0px)}52.16%{transform:translate(752px,0px)}53.31%,54.47%{transform:translate(704px,16px)}53.6%{transform:translate(704px,0px)}53.89%{transform:translate(688px,0px)}54.76%,74.93%{transform:translate(704px,32px)}55.04%,75.22%{transform:translate(720px,32px)}55.33%{transform:translate(720px,16px)}56.77%{transform:translate(672px,48px)}57.06%{transform:translate(656px,48px)}57.64%{transform:translate(640px,32px)}58.79%{transform:translate(640px,96px)}60.23%{transform:translate(720px,96px)}60.81%{transform:translate(704px,80px)}61.1%{transform:translate(704px,96px)}63.4%{transform:translate(576px,96px)}64.55%{transform:translate(576px,32px)}65.42%{transform:translate(528px,32px)}65.71%{transform:translate(528px,16px)}71.18%{transform:translate(832px,16px)}71.76%{transform:translate(832px,48px)}74.06%{transform:translate(736px,48px)}74.64%{transform:translate(704px,48px)}75.79%{transform:translate(720px,0px)}78.1%{transform:translate(592px,0px)}79.54%{transform:translate(592px,80px)}79.83%{transform:translate(576px,80px)}80.4%{transform:translate(576px,48px)}80.98%{transform:translate(544px,48px)}81.27%{transform:translate(544px,64px)}84.15%{transform:translate(688px,80px)}85.01%{transform:translate(736px,80px)}85.3%{transform:translate(736px,64px)}85.88%{transform:translate(752px,48px)}97.69%{transform:translate(96px,48px)}98.27%{transform:translate(96px,16px)}98.56%{transform:translate(80px,16px)}99.14%{transform:translate(80px,-16px)}}.s.s3{transform:translate(48px,-16px);animation-name:s3}</style><rect class="c" x="2" y="2" rx="2" ry="2"/><rect class="c" x="2" y="18" rx="2" ry="2"/><rect class="c" x="2" y="34" rx="2" ry="2"/><rect class="c" x="2" y="50" rx="2" ry="2"/><rect class="c" x="2" y="66" rx="2" ry="2"/><rect class="c" x="2" y="82" rx="2" ry="2"/><rect class="c" x="2" y="98" rx="2" ry="2"/><rect class="c" x="18" y="2" rx="2" ry="2"/><rect class="c" x="18" y="18" rx="2" ry="2"/><rect class="c" x="18" y="34" rx="2" ry="2"/><rect class="c" x="18" y="50" rx="2" ry="2"/><rect class="c" x="18" y="66" rx="2" ry="2"/><rect class="c" x="18" y="82" rx="2" ry="2"/><rect class="c" x="18" y="98" rx="2" ry="2"/><rect class="c" x="34" y="2" rx="2" ry="2"/><rect class="c" x="34" y="18" rx="2" ry="2"/><rect class="c" x="34" y="34" rx="2" ry="2"/><rect class="c" x="34" y="50" rx="2" ry="2"/><rect class="c" x="34" y="66" rx="2" ry="2"/><rect class="c" x="34" y="82" rx="2" ry="2"/><rect class="c" x="34" y="98" rx="2" ry="2"/><rect class="c" x="50" y="2" rx="2" ry="2"/><rect class="c" x="50" y="18" rx="2" ry="2"/><rect class="c" x="50" y="34" rx="2" ry="2"/><rect class="c" x="50" y="50" rx="2" ry="2"/><rect class="c" x="50" y="66" rx="2" ry="2"/><rect class="c" x="50" y="82" rx="2" ry="2"/><rect class="c" x="50" y="98" rx="2" ry="2"/><rect class="c" x="66" y="2" rx="2" ry="2"/><rect class="c" x="66" y="18" rx="2" ry="2"/><rect class="c" x="66" y="34" rx="2" ry="2"/><rect class="c" x="66" y="50" rx="2" ry="2"/><rect class="c" x="66" y="66" rx="2" ry="2"/><rect class="c" x="66" y="82" rx="2" ry="2"/><rect class="c" x="66" y="98" rx="2" ry="2"/><rect class="c" x="82" y="2" rx="2" ry="2"/><rect class="c" x="82" y="18" rx="2" ry="2"/><rect class="c" x="82" y="34" rx="2" ry="2"/><rect class="c" x="82" y="50" rx="2" ry="2"/><rect class="c" x="82" y="66" rx="2" ry="2"/><rect class="c" x="82" y="82" rx="2" ry="2"/><rect class="c" x="82" y="98" rx="2" ry="2"/><rect class="c" x="98" y="2" rx="2" ry="2"/><rect class="c" x="98" y="18" rx="2" ry="2"/><rect class="c" x="98" y="34" rx="2" ry="2"/><rect class="c" x="98" y="50" rx="2" ry="2"/><rect class="c" x="98" y="66" rx="2" ry="2"/><rect class="c" x="98" y="82" rx="2" ry="2"/><rect class="c" x="98" y="98" rx="2" ry="2"/><rect class="c" x="114" y="2" rx="2" ry="2"/><rect class="c" x="114" y="18" rx="2" ry="2"/><rect class="c" x="114" y="34" rx="2" ry="2"/><rect class="c" x="114" y="50" rx="2" ry="2"/><rect class="c" x="114" y="66" rx="2" ry="2"/><rect class="c" x="114" y="82" rx="2" ry="2"/><rect class="c" x="114" y="98" rx="2" ry="2"/><rect class="c" x="130" y="2" rx="2" ry="2"/><rect class="c" x="130" y="18" rx="2" ry="2"/><rect class="c" x="130" y="34" rx="2" ry="2"/><rect class="c" x="130" y="50" rx="2" ry="2"/><rect class="c" x="130" y="66" rx="2" ry="2"/><rect class="c" x="130" y="82" rx="2" ry="2"/><rect class="c" x="130" y="98" rx="2" ry="2"/><rect class="c" x="146" y="2" rx="2" ry="2"/><rect class="c" x="146" y="18" rx="2" ry="2"/><rect class="c" x="146" y="34" rx="2" ry="2"/><rect class="c" x="146" y="50" rx="2" ry="2"/><rect class="c" x="146" y="66" rx="2" ry="2"/><rect class="c" x="146" y="82" rx="2" ry="2"/><rect class="c" x="146" y="98" rx="2" ry="2"/><rect class="c" x="162" y="2" rx="2" ry="2"/><rect class="c" x="162" y="18" rx="2" ry="2"/><rect class="c" x="162" y="34" rx="2" ry="2"/><rect class="c" x="162" y="50" rx="2" ry="2"/><rect class="c" x="162" y="66" rx="2" ry="2"/><rect class="c" x="162" y="82" rx="2" ry="2"/><rect class="c" x="162" y="98" rx="2" ry="2"/><rect class="c" x="178" y="2" rx="2" ry="2"/><rect class="c" x="178" y="18" rx="2" ry="2"/><rect class="c" x="178" y="34" rx="2" ry="2"/><rect class="c" x="178" y="50" rx="2" ry="2"/><rect class="c" x="178" y="66" rx="2" ry="2"/><rect class="c" x="178" y="82" rx="2" ry="2"/><rect class="c" x="178" y="98" rx="2" ry="2"/><rect class="c" x="194" y="2" rx="2" ry="2"/><rect class="c" x="194" y="18" rx="2" ry="2"/><rect class="c" x="194" y="34" rx="2" ry="2"/><rect class="c" x="194" y="50" rx="2" ry="2"/><rect class="c" x="194" y="66" rx="2" ry="2"/><rect class="c" x="194" y="82" rx="2" ry="2"/><rect class="c" x="194" y="98" rx="2" ry="2"/><rect class="c" x="210" y="2" rx="2" ry="2"/><rect class="c" x="210" y="18" rx="2" ry="2"/><rect class="c" x="210" y="34" rx="2" ry="2"/><rect class="c" x="210" y="50" rx="2" ry="2"/><rect class="c" x="210" y="66" rx="2" ry="2"/><rect class="c" x="210" y="82" rx="2" ry="2"/><rect class="c" x="210" y="98" rx="2" ry="2"/><rect class="c" x="226" y="2" rx="2" ry="2"/><rect class="c" x="226" y="18" rx="2" ry="2"/><rect class="c" x="226" y="34" rx="2" ry="2"/><rect class="c" x="226" y="50" rx="2" ry="2"/><rect class="c" x="226" y="66" rx="2" ry="2"/><rect class="c" x="226" y="82" rx="2" ry="2"/><rect class="c" x="226" y="98" rx="2" ry="2"/><rect class="c" x="242" y="2" rx="2" ry="2"/><rect class="c" x="242" y="18" rx="2" ry="2"/><rect class="c" x="242" y="34" rx="2" ry="2"/><rect class="c" x="242" y="50" rx="2" ry="2"/><rect class="c" x="242" y="66" rx="2" ry="2"/><rect class="c" x="242" y="82" rx="2" ry="2"/><rect class="c" x="242" y="98" rx="2" ry="2"/><rect class="c" x="258" y="2" rx="2" ry="2"/><rect class="c" x="258" y="18" rx="2" ry="2"/><rect class="c" x="258" y="34" rx="2" ry="2"/><rect class="c" x="258" y="50" rx="2" ry="2"/><rect class="c" x="258" y="66" rx="2" ry="2"/><rect class="c" x="258" y="82" rx="2" ry="2"/><rect class="c" x="258" y="98" rx="2" ry="2"/><rect class="c" x="274" y="2" rx="2" ry="2"/><rect class="c" x="274" y="18" rx="2" ry="2"/><rect class="c" x="274" y="34" rx="2" ry="2"/><rect class="c" x="274" y="50" rx="2" ry="2"/><rect class="c" x="274" y="66" rx="2" ry="2"/><rect class="c" x="274" y="82" rx="2" ry="2"/><rect class="c" x="274" y="98" rx="2" ry="2"/><rect class="c" x="290" y="2" rx="2" ry="2"/><rect class="c" x="290" y="18" rx="2" ry="2"/><rect class="c" x="290" y="34" rx="2" ry="2"/><rect class="c" x="290" y="50" rx="2" ry="2"/><rect class="c" x="290" y="66" rx="2" ry="2"/><rect class="c" x="290" y="82" rx="2" ry="2"/><rect class="c" x="290" y="98" rx="2" ry="2"/><rect class="c" x="306" y="2" rx="2" ry="2"/><rect class="c" x="306" y="18" rx="2" ry="2"/><rect class="c" x="306" y="34" rx="2" ry="2"/><rect class="c" x="306" y="50" rx="2" ry="2"/><rect class="c" x="306" y="66" rx="2" ry="2"/><rect class="c" x="306" y="82" rx="2" ry="2"/><rect class="c" x="306" y="98" rx="2" ry="2"/><rect class="c" x="322" y="2" rx="2" ry="2"/><rect class="c" x="322" y="18" rx="2" ry="2"/><rect class="c" x="322" y="34" rx="2" ry="2"/><rect class="c" x="322" y="50" rx="2" ry="2"/><rect class="c" x="322" y="66" rx="2" ry="2"/><rect class="c" x="322" y="82" rx="2" ry="2"/><rect class="c" x="322" y="98" rx="2" ry="2"/><rect class="c" x="338" y="2" rx="2" ry="2"/><rect class="c" x="338" y="18" rx="2" ry="2"/><rect class="c" x="338" y="34" rx="2" ry="2"/><rect class="c" x="338" y="50" rx="2" ry="2"/><rect class="c" x="338" y="66" rx="2" ry="2"/><rect class="c" x="338" y="82" rx="2" ry="2"/><rect class="c" x="338" y="98" rx="2" ry="2"/><rect class="c" x="354" y="2" rx="2" ry="2"/><rect class="c" x="354" y="18" rx="2" ry="2"/><rect class="c" x="354" y="34" rx="2" ry="2"/><rect class="c" x="354" y="50" rx="2" ry="2"/><rect class="c" x="354" y="66" rx="2" ry="2"/><rect class="c c0" x="354" y="82" rx="2" ry="2"/><rect class="c" x="354" y="98" rx="2" ry="2"/><rect class="c" x="370" y="2" rx="2" ry="2"/><rect class="c" x="370" y="18" rx="2" ry="2"/><rect class="c" x="370" y="34" rx="2" ry="2"/><rect class="c" x="370" y="50" rx="2" ry="2"/><rect class="c" x="370" y="66" rx="2" ry="2"/><rect class="c c1" x="370" y="82" rx="2" ry="2"/><rect class="c" x="370" y="98" rx="2" ry="2"/><rect class="c" x="386" y="2" rx="2" ry="2"/><rect class="c" x="386" y="18" rx="2" ry="2"/><rect class="c" x="386" y="34" rx="2" ry="2"/><rect class="c" x="386" y="50" rx="2" ry="2"/><rect class="c" x="386" y="66" rx="2" ry="2"/><rect class="c" x="386" y="82" rx="2" ry="2"/><rect class="c" x="386" y="98" rx="2" ry="2"/><rect class="c" x="402" y="2" rx="2" ry="2"/><rect class="c" x="402" y="18" rx="2" ry="2"/><rect class="c" x="402" y="34" rx="2" ry="2"/><rect class="c" x="402" y="50" rx="2" ry="2"/><rect class="c" x="402" y="66" rx="2" ry="2"/><rect class="c" x="402" y="82" rx="2" ry="2"/><rect class="c" x="402" y="98" rx="2" ry="2"/><rect class="c" x="418" y="2" rx="2" ry="2"/><rect class="c c2" x="418" y="18" rx="2" ry="2"/><rect class="c c3" x="418" y="34" rx="2" ry="2"/><rect class="c" x="418" y="50" rx="2" ry="2"/><rect class="c" x="418" y="66" rx="2" ry="2"/><rect class="c" x="418" y="82" rx="2" ry="2"/><rect class="c" x="418" y="98" rx="2" ry="2"/><rect class="c" x="434" y="2" rx="2" ry="2"/><rect class="c c4" x="434" y="18" rx="2" ry="2"/><rect class="c c5" x="434" y="34" rx="2" ry="2"/><rect class="c" x="434" y="50" rx="2" ry="2"/><rect class="c" x="434" y="66" rx="2" ry="2"/><rect class="c" x="434" y="82" rx="2" ry="2"/><rect class="c" x="434" y="98" rx="2" ry="2"/><rect class="c" x="450" y="2" rx="2" ry="2"/><rect class="c" x="450" y="18" rx="2" ry="2"/><rect class="c" x="450" y="34" rx="2" ry="2"/><rect class="c" x="450" y="50" rx="2" ry="2"/><rect class="c" x="450" y="66" rx="2" ry="2"/><rect class="c" x="450" y="82" rx="2" ry="2"/><rect class="c" x="450" y="98" rx="2" ry="2"/><rect class="c" x="466" y="2" rx="2" ry="2"/><rect class="c" x="466" y="18" rx="2" ry="2"/><rect class="c" x="466" y="34" rx="2" ry="2"/><rect class="c" x="466" y="50" rx="2" ry="2"/><rect class="c" x="466" y="66" rx="2" ry="2"/><rect class="c" x="466" y="82" rx="2" ry="2"/><rect class="c" x="466" y="98" rx="2" ry="2"/><rect class="c" x="482" y="2" rx="2" ry="2"/><rect class="c" x="482" y="18" rx="2" ry="2"/><rect class="c" x="482" y="34" rx="2" ry="2"/><rect class="c c6" x="482" y="50" rx="2" ry="2"/><rect class="c c7" x="482" y="66" rx="2" ry="2"/><rect class="c" x="482" y="82" rx="2" ry="2"/><rect class="c" x="482" y="98" rx="2" ry="2"/><rect class="c" x="498" y="2" rx="2" ry="2"/><rect class="c" x="498" y="18" rx="2" ry="2"/><rect class="c" x="498" y="34" rx="2" ry="2"/><rect class="c" x="498" y="50" rx="2" ry="2"/><rect class="c" x="498" y="66" rx="2" ry="2"/><rect class="c" x="498" y="82" rx="2" ry="2"/><rect class="c" x="498" y="98" rx="2" ry="2"/><rect class="c" x="514" y="2" rx="2" ry="2"/><rect class="c" x="514" y="18" rx="2" ry="2"/><rect class="c" x="514" y="34" rx="2" ry="2"/><rect class="c" x="514" y="50" rx="2" ry="2"/><rect class="c" x="514" y="66" rx="2" ry="2"/><rect class="c" x="514" y="82" rx="2" ry="2"/><rect class="c" x="514" y="98" rx="2" ry="2"/><rect class="c" x="530" y="2" rx="2" ry="2"/><rect class="c" x="530" y="18" rx="2" ry="2"/><rect class="c c8" x="530" y="34" rx="2" ry="2"/><rect class="c" x="530" y="50" rx="2" ry="2"/><rect class="c" x="530" y="66" rx="2" ry="2"/><rect class="c" x="530" y="82" rx="2" ry="2"/><rect class="c" x="530" y="98" rx="2" ry="2"/><rect class="c" x="546" y="2" rx="2" ry="2"/><rect class="c" x="546" y="18" rx="2" ry="2"/><rect class="c c9" x="546" y="34" rx="2" ry="2"/><rect class="c ca" x="546" y="50" rx="2" ry="2"/><rect class="c" x="546" y="66" rx="2" ry="2"/><rect class="c" x="546" y="82" rx="2" ry="2"/><rect class="c" x="546" y="98" rx="2" ry="2"/><rect class="c cb" x="562" y="2" rx="2" ry="2"/><rect class="c" x="562" y="18" rx="2" ry="2"/><rect class="c" x="562" y="34" rx="2" ry="2"/><rect class="c" x="562" y="50" rx="2" ry="2"/><rect class="c" x="562" y="66" rx="2" ry="2"/><rect class="c" x="562" y="82" rx="2" ry="2"/><rect class="c" x="562" y="98" rx="2" ry="2"/><rect class="c" x="578" y="2" rx="2" ry="2"/><rect class="c" x="578" y="18" rx="2" ry="2"/><rect class="c" x="578" y="34" rx="2" ry="2"/><rect class="c" x="578" y="50" rx="2" ry="2"/><rect class="c" x="578" y="66" rx="2" ry="2"/><rect class="c" x="578" y="82" rx="2" ry="2"/><rect class="c" x="578" y="98" rx="2" ry="2"/><rect class="c" x="594" y="2" rx="2" ry="2"/><rect class="c" x="594" y="18" rx="2" ry="2"/><rect class="c" x="594" y="34" rx="2" ry="2"/><rect class="c" x="594" y="50" rx="2" ry="2"/><rect class="c" x="594" y="66" rx="2" ry="2"/><rect class="c cc" x="594" y="82" rx="2" ry="2"/><rect class="c cd" x="594" y="98" rx="2" ry="2"/><rect class="c" x="610" y="2" rx="2" ry="2"/><rect class="c ce" x="610" y="18" rx="2" ry="2"/><rect class="c" x="610" y="34" rx="2" ry="2"/><rect class="c" x="610" y="50" rx="2" ry="2"/><rect class="c" x="610" y="66" rx="2" ry="2"/><rect class="c" x="610" y="82" rx="2" ry="2"/><rect class="c" x="610" y="98" rx="2" ry="2"/><rect class="c" x="626" y="2" rx="2" ry="2"/><rect class="c" x="626" y="18" rx="2" ry="2"/><rect class="c" x="626" y="34" rx="2" ry="2"/><rect class="c" x="626" y="50" rx="2" ry="2"/><rect class="c" x="626" y="66" rx="2" ry="2"/><rect class="c" x="626" y="82" rx="2" ry="2"/><rect class="c" x="626" y="98" rx="2" ry="2"/><rect class="c" x="642" y="2" rx="2" ry="2"/><rect class="c" x="642" y="18" rx="2" ry="2"/><rect class="c cf" x="642" y="34" rx="2" ry="2"/><rect class="c" x="642" y="50" rx="2" ry="2"/><rect class="c" x="642" y="66" rx="2" ry="2"/><rect class="c cg" x="642" y="82" rx="2" ry="2"/><rect class="c ch" x="642" y="98" rx="2" ry="2"/><rect class="c" x="658" y="2" rx="2" ry="2"/><rect class="c" x="658" y="18" rx="2" ry="2"/><rect class="c" x="658" y="34" rx="2" ry="2"/><rect class="c" x="658" y="50" rx="2" ry="2"/><rect class="c" x="658" y="66" rx="2" ry="2"/><rect class="c ci" x="658" y="82" rx="2" ry="2"/><rect class="c cj" x="658" y="98" rx="2" ry="2"/><rect class="c" x="674" y="2" rx="2" ry="2"/><rect class="c" x="674" y="18" rx="2" ry="2"/><rect class="c ck" x="674" y="34" rx="2" ry="2"/><rect class="c cl" x="674" y="50" rx="2" ry="2"/><rect class="c" x="674" y="66" rx="2" ry="2"/><rect class="c" x="674" y="82" rx="2" ry="2"/><rect class="c" x="674" y="98" rx="2" ry="2"/><rect class="c" x="690" y="2" rx="2" ry="2"/><rect class="c cm" x="690" y="18" rx="2" ry="2"/><rect class="c cn" x="690" y="34" rx="2" ry="2"/><rect class="c co" x="690" y="50" rx="2" ry="2"/><rect class="c cp" x="690" y="66" rx="2" ry="2"/><rect class="c cq" x="690" y="82" rx="2" ry="2"/><rect class="c cr" x="690" y="98" rx="2" ry="2"/><rect class="c cs" x="706" y="2" rx="2" ry="2"/><rect class="c ct" x="706" y="18" rx="2" ry="2"/><rect class="c cu" x="706" y="34" rx="2" ry="2"/><rect class="c cv" x="706" y="50" rx="2" ry="2"/><rect class="c cw" x="706" y="66" rx="2" ry="2"/><rect class="c cx" x="706" y="82" rx="2" ry="2"/><rect class="c cy" x="706" y="98" rx="2" ry="2"/><rect class="c cz" x="722" y="2" rx="2" ry="2"/><rect class="c c10" x="722" y="18" rx="2" ry="2"/><rect class="c c11" x="722" y="34" rx="2" ry="2"/><rect class="c c12" x="722" y="50" rx="2" ry="2"/><rect class="c c13" x="722" y="66" rx="2" ry="2"/><rect class="c c14" x="722" y="82" rx="2" ry="2"/><rect class="c c15" x="722" y="98" rx="2" ry="2"/><rect class="c c16" x="738" y="2" rx="2" ry="2"/><rect class="c c17" x="738" y="18" rx="2" ry="2"/><rect class="c c18" x="738" y="34" rx="2" ry="2"/><rect class="c c19" x="738" y="50" rx="2" ry="2"/><rect class="c c1a" x="738" y="66" rx="2" ry="2"/><rect class="c c1b" x="738" y="82" rx="2" ry="2"/><rect class="c c1c" x="738" y="98" rx="2" ry="2"/><rect class="c c1d" x="754" y="2" rx="2" ry="2"/><rect class="c c1e" x="754" y="18" rx="2" ry="2"/><rect class="c c1f" x="754" y="34" rx="2" ry="2"/><rect class="c c1g" x="754" y="50" rx="2" ry="2"/><rect class="c c1h" x="754" y="66" rx="2" ry="2"/><rect class="c c1i" x="754" y="82" rx="2" ry="2"/><rect class="c c1j" x="754" y="98" rx="2" ry="2"/><rect class="c c1k" x="770" y="2" rx="2" ry="2"/><rect class="c c1l" x="770" y="18" rx="2" ry="2"/><rect class="c c1m" x="770" y="34" rx="2" ry="2"/><rect class="c c1n" x="770" y="50" rx="2" ry="2"/><rect class="c c1o" x="770" y="66" rx="2" ry="2"/><rect class="c c1p" x="770" y="82" rx="2" ry="2"/><rect class="c c1q" x="770" y="98" rx="2" ry="2"/><rect class="c c1r" x="786" y="2" rx="2" ry="2"/><rect class="c c1s" x="786" y="18" rx="2" ry="2"/><rect class="c c1t" x="786" y="34" rx="2" ry="2"/><rect class="c c1u" x="786" y="50" rx="2" ry="2"/><rect class="c c1v" x="786" y="66" rx="2" ry="2"/><rect class="c c1w" x="786" y="82" rx="2" ry="2"/><rect class="c c1x" x="786" y="98" rx="2" ry="2"/><rect class="c c1y" x="802" y="2" rx="2" ry="2"/><rect class="c c1z" x="802" y="18" rx="2" ry="2"/><rect class="c c20" x="802" y="34" rx="2" ry="2"/><rect class="c c21" x="802" y="50" rx="2" ry="2"/><rect class="c c22" x="802" y="66" rx="2" ry="2"/><rect class="c c23" x="802" y="82" rx="2" ry="2"/><rect class="c c24" x="802" y="98" rx="2" ry="2"/><rect class="c c25" x="818" y="2" rx="2" ry="2"/><rect class="c c26" x="818" y="18" rx="2" ry="2"/><rect class="c c27" x="818" y="34" rx="2" ry="2"/><rect class="c c28" x="818" y="50" rx="2" ry="2"/><rect class="c c29" x="818" y="66" rx="2" ry="2"/><rect class="c c2a" x="818" y="82" rx="2" ry="2"/><rect class="c c2b" x="818" y="98" rx="2" ry="2"/><rect class="c c2c" x="834" y="2" rx="2" ry="2"/><rect class="c c2d" x="834" y="18" rx="2" ry="2"/><rect class="c c2e" x="834" y="34" rx="2" ry="2"/><rect class="c c2f" x="834" y="50" rx="2" ry="2"/><rect class="c c2g" x="834" y="66" rx="2" ry="2"/><rect class="u u0" height="12" width="477.0" x="0.0" y="144"/><rect class="u u1" height="12" width="10.1" x="476.4" y="144"/><rect class="u u2" height="12" width="10.1" x="485.9" y="144"/><rect class="u u3" height="12" width="19.7" x="495.5" y="144"/><rect class="u u4" height="12" width="10.1" x="514.5" y="144"/><rect class="u u5" height="12" width="238.8" x="524.0" y="144"/><rect class="u u6" height="12" width="48.2" x="762.2" y="144"/><rect class="u u7" height="12" width="38.7" x="809.9" y="144"/><rect class="s s0" x="0.8" y="0.8" width="14.4" height="14.4" rx="4.5" ry="4.5"/><rect class="s s1" x="1.8" y="1.8" width="12.3" height="12.3" rx="4.1" ry="4.1"/><rect class="s s2" x="2.6" y="2.6" width="10.8" height="10.8" rx="3.6" ry="3.6"/><rect class="s s3" x="3.0" y="3.0" width="9.9" height="9.9" rx="3.3" ry="3.3"/></svg>