<svg viewBox="-16 -32 880 192" width="880" height="192" xmlns="http://www.w3.org/2000/svg"><desc>Generated with https://github.com/Platane/snk</desc><style>:root{--cb:#1b1f230a;--cs:764ba2;--ce:#ebedf0;--c0:#ebedf0;--c1:#9be9a8;--c2:#40c463;--c3:#30a14e;--c4:#216e39}.c{shape-rendering:geometricPrecision;fill:var(--ce);stroke-width:1px;stroke:var(--cb);animation:none 29900ms linear infinite;width:12px;height:12px}@keyframes c0{16.38%{fill:var(--c1)}16.4%,100%{fill:var(--ce)}}.c.c0{fill:var(--c1);animation-name:c0}@keyframes c1{16.04%{fill:var(--c1)}16.06%,100%{fill:var(--ce)}}.c.c1{fill:var(--c1);animation-name:c1}@keyframes c2{10.36%{fill:var(--c1)}10.38%,100%{fill:var(--ce)}}.c.c2{fill:var(--c1);animation-name:c2}@keyframes c3{11.36%{fill:var(--c1)}11.38%,100%{fill:var(--ce)}}.c.c3{fill:var(--c1);animation-name:c3}@keyframes c4{10.69%{fill:var(--c1)}10.71%,100%{fill:var(--ce)}}.c.c4{fill:var(--c1);animation-name:c4}@keyframes c5{11.03%{fill:var(--c1)}11.05%,100%{fill:var(--ce)}}.c.c5{fill:var(--c1);animation-name:c5}@keyframes c6{13.03%{fill:var(--c1)}13.05%,100%{fill:var(--ce)}}.c.c6{fill:var(--c1);animation-name:c6}@keyframes c7{13.37%{fill:var(--c1)}13.39%,100%{fill:var(--ce)}}.c.c7{fill:var(--c1);animation-name:c7}@keyframes c8{71.23%{fill:var(--c2)}71.25%,100%{fill:var(--ce)}}.c.c8{fill:var(--c2);animation-name:c8}@keyframes c9{70.89%{fill:var(--c2)}70.91%,100%{fill:var(--ce)}}.c.c9{fill:var(--c2);animation-name:c9}@keyframes ca{85.94%{fill:var(--c4)}85.96%,100%{fill:var(--ce)}}.c.ca{fill:var(--c4);animation-name:ca}@keyframes cb{22.4%{fill:var(--c1)}22.42%,100%{fill:var(--ce)}}.c.cb{fill:var(--c1);animation-name:cb}@keyframes cc{73.57%{fill:var(--c3)}73.59%,100%{fill:var(--ce)}}.c.cc{fill:var(--c3);animation-name:cc}@keyframes cd{68.55%{fill:var(--c2)}68.57%,100%{fill:var(--ce)}}.c.cd{fill:var(--c2);animation-name:cd}@keyframes ce{23.74%{fill:var(--c1)}23.76%,100%{fill:var(--ce)}}.c.ce{fill:var(--c1);animation-name:ce}@keyframes cf{62.2%{fill:var(--c2)}62.22%,100%{fill:var(--ce)}}.c.cf{fill:var(--c2);animation-name:cf}@keyframes cg{27.75%{fill:var(--c1)}27.77%,100%{fill:var(--ce)}}.c.cg{fill:var(--c1);animation-name:cg}@keyframes ch{63.54%{fill:var(--c2)}63.56%,100%{fill:var(--ce)}}.c.ch{fill:var(--c2);animation-name:ch}@keyframes ci{27.41%{fill:var(--c1)}27.43%,100%{fill:var(--ce)}}.c.ci{fill:var(--c1);animation-name:ci}@keyframes cj{63.87%{fill:var(--c2)}63.89%,100%{fill:var(--ce)}}.c.cj{fill:var(--c2);animation-name:cj}@keyframes ck{26.08%{fill:var(--c1)}26.1%,100%{fill:var(--ce)}}.c.ck{fill:var(--c1);animation-name:ck}@keyframes cl{61.19%{fill:var(--c2)}61.21%,100%{fill:var(--ce)}}.c.cl{fill:var(--c2);animation-name:cl}@keyframes cm{25.41%{fill:var(--c1)}25.43%,100%{fill:var(--ce)}}.c.cm{fill:var(--c1);animation-name:cm}@keyframes cn{25.74%{fill:var(--c1)}25.76%,100%{fill:var(--ce)}}.c.cn{fill:var(--c1);animation-name:cn}@keyframes co{48.15%{fill:var(--c2)}48.17%,100%{fill:var(--ce)}}.c.co{fill:var(--c2);animation-name:co}@keyframes cp{47.82%{fill:var(--c1)}47.84%,100%{fill:var(--ce)}}.c.cp{fill:var(--c1);animation-name:cp}@keyframes cq{82.26%{fill:var(--c4)}82.28%,100%{fill:var(--ce)}}.c.cq{fill:var(--c4);animation-name:cq}@keyframes cr{64.54%{fill:var(--c2)}64.56%,100%{fill:var(--ce)}}.c.cr{fill:var(--c2);animation-name:cr}@keyframes cs{57.52%{fill:var(--c2)}57.54%,100%{fill:var(--ce)}}.c.cs{fill:var(--c2);animation-name:cs}@keyframes ct{57.18%{fill:var(--c2)}57.2%,100%{fill:var(--ce)}}.c.ct{fill:var(--c2);animation-name:ct}@keyframes cu{58.85%{fill:var(--c2)}58.87%,100%{fill:var(--ce)}}.c.cu{fill:var(--c2);animation-name:cu}@keyframes cv{76.58%{fill:var(--c3)}76.6%,100%{fill:var(--ce)}}.c.cv{fill:var(--c3);animation-name:cv}@keyframes cw{50.83%{fill:var(--c2)}50.85%,100%{fill:var(--ce)}}.c.cw{fill:var(--c2);animation-name:cw}@keyframes cx{65.88%{fill:var(--c2)}65.9%,100%{fill:var(--ce)}}.c.cx{fill:var(--c2);animation-name:cx}@keyframes cy{64.87%{fill:var(--c2)}64.89%,100%{fill:var(--ce)}}.c.cy{fill:var(--c2);animation-name:cy}@keyframes cz{78.59%{fill:var(--c3)}78.61%,100%{fill:var(--ce)}}.c.cz{fill:var(--c3);animation-name:cz}@keyframes c10{56.85%{fill:var(--c2)}56.87%,100%{fill:var(--ce)}}.c.c10{fill:var(--c2);animation-name:c10}@keyframes c11{59.19%{fill:var(--c2)}59.21%,100%{fill:var(--ce)}}.c.c11{fill:var(--c2);animation-name:c11}@keyframes c12{76.91%{fill:var(--c3)}76.93%,100%{fill:var(--ce)}}.c.c12{fill:var(--c3);animation-name:c12}@keyframes c13{51.16%{fill:var(--c1)}51.18%,100%{fill:var(--ce)}}.c.c13{fill:var(--c1);animation-name:c13}@keyframes c14{51.5%{fill:var(--c2)}51.52%,100%{fill:var(--ce)}}.c.c14{fill:var(--c2);animation-name:c14}@keyframes c15{65.21%{fill:var(--c2)}65.23%,100%{fill:var(--ce)}}.c.c15{fill:var(--c2);animation-name:c15}@keyframes c16{55.51%{fill:var(--c2)}55.53%,100%{fill:var(--ce)}}.c.c16{fill:var(--c2);animation-name:c16}@keyframes c17{55.17%{fill:var(--c2)}55.19%,100%{fill:var(--ce)}}.c.c17{fill:var(--c2);animation-name:c17}@keyframes c18{54.84%{fill:var(--c2)}54.86%,100%{fill:var(--ce)}}.c.c18{fill:var(--c2);animation-name:c18}@keyframes c19{77.25%{fill:var(--c3)}77.27%,100%{fill:var(--ce)}}.c.c19{fill:var(--c3);animation-name:c19}@keyframes c1a{80.93%{fill:var(--c4)}80.95%,100%{fill:var(--ce)}}.c.c1a{fill:var(--c4);animation-name:c1a}@keyframes c1b{51.83%{fill:var(--c2)}51.85%,100%{fill:var(--ce)}}.c.c1b{fill:var(--c2);animation-name:c1b}@keyframes c1c{31.43%{fill:var(--c1)}31.45%,100%{fill:var(--ce)}}.c.c1c{fill:var(--c1);animation-name:c1c}@keyframes c1d{55.84%{fill:var(--c2)}55.86%,100%{fill:var(--ce)}}.c.c1d{fill:var(--c2);animation-name:c1d}@keyframes c1e{42.13%{fill:var(--c1)}42.15%,100%{fill:var(--ce)}}.c.c1e{fill:var(--c1);animation-name:c1e}@keyframes c1f{41.8%{fill:var(--c1)}41.82%,100%{fill:var(--ce)}}.c.c1f{fill:var(--c1);animation-name:c1f}@keyframes c1g{80.26%{fill:var(--c4)}80.28%,100%{fill:var(--ce)}}.c.c1g{fill:var(--c4);animation-name:c1g}@keyframes c1h{52.5%{fill:var(--c2)}52.52%,100%{fill:var(--ce)}}.c.c1h{fill:var(--c2);animation-name:c1h}@keyframes c1i{39.45%{fill:var(--c1)}39.47%,100%{fill:var(--ce)}}.c.c1i{fill:var(--c1);animation-name:c1i}@keyframes c1j{31.76%{fill:var(--c1)}31.78%,100%{fill:var(--ce)}}.c.c1j{fill:var(--c1);animation-name:c1j}@keyframes c1k{35.44%{fill:var(--c1)}35.46%,100%{fill:var(--ce)}}.c.c1k{fill:var(--c1);animation-name:c1k}@keyframes c1l{42.46%{fill:var(--c2)}42.48%,100%{fill:var(--ce)}}.c.c1l{fill:var(--c2);animation-name:c1l}@keyframes c1m{41.46%{fill:var(--c1)}41.48%,100%{fill:var(--ce)}}.c.c1m{fill:var(--c1);animation-name:c1m}@keyframes c1n{33.1%{fill:var(--c1)}33.12%,100%{fill:var(--ce)}}.c.c1n{fill:var(--c1);animation-name:c1n}@keyframes c1o{32.77%{fill:var(--c1)}32.79%,100%{fill:var(--ce)}}.c.c1o{fill:var(--c1);animation-name:c1o}@keyframes c1p{32.43%{fill:var(--c1)}32.45%,100%{fill:var(--ce)}}.c.c1p{fill:var(--c1);animation-name:c1p}@keyframes c1q{32.1%{fill:var(--c1)}32.12%,100%{fill:var(--ce)}}.c.c1q{fill:var(--c1);animation-name:c1q}@keyframes c1r{35.11%{fill:var(--c1)}35.13%,100%{fill:var(--ce)}}.c.c1r{fill:var(--c1);animation-name:c1r}@keyframes c1s{34.77%{fill:var(--c1)}34.79%,100%{fill:var(--ce)}}.c.c1s{fill:var(--c1);animation-name:c1s}@keyframes c1t{53.84%{fill:var(--c2)}53.86%,100%{fill:var(--ce)}}.c.c1t{fill:var(--c2);animation-name:c1t}@keyframes c1u{33.43%{fill:var(--c1)}33.45%,100%{fill:var(--ce)}}.c.c1u{fill:var(--c1);animation-name:c1u}.u{transform-origin:0 0;transform:scale(0,1);animation:none linear 29900ms infinite}@keyframes u0{10.36%{transform:scale(0.000,1)}10.38%,10.69%{transform:scale(0.034,1)}10.71%,11.03%{transform:scale(0.069,1)}11.05%,11.36%{transform:scale(0.103,1)}11.38%,13.03%{transform:scale(0.138,1)}13.05%,13.37%{transform:scale(0.172,1)}13.39%,16.04%{transform:scale(0.207,1)}16.06%,16.38%{transform:scale(0.241,1)}16.4%,22.4%{transform:scale(0.276,1)}22.42%,23.74%{transform:scale(0.310,1)}23.76%,25.41%{transform:scale(0.345,1)}25.43%,25.74%{transform:scale(0.379,1)}25.76%,26.08%{transform:scale(0.414,1)}26.1%,27.41%{transform:scale(0.448,1)}27.43%,27.75%{transform:scale(0.483,1)}27.77%,31.43%{transform:scale(0.517,1)}31.45%,31.76%{transform:scale(0.552,1)}31.78%,32.1%{transform:scale(0.586,1)}32.12%,32.43%{transform:scale(0.621,1)}32.45%,32.77%{transform:scale(0.655,1)}32.79%,33.1%{transform:scale(0.690,1)}33.12%,33.43%{transform:scale(0.724,1)}33.45%,34.77%{transform:scale(0.759,1)}34.79%,35.11%{transform:scale(0.793,1)}35.13%,35.44%{transform:scale(0.828,1)}35.46%,39.45%{transform:scale(0.862,1)}39.47%,41.46%{transform:scale(0.897,1)}41.48%,41.8%{transform:scale(0.931,1)}41.82%,42.13%{transform:scale(0.966,1)}42.15%,100%{transform:scale(1.000,1)}}.u.u0{fill:var(--c1);animation-name:u0;transform-origin:0.0px 0}@keyframes u1{42.46%{transform:scale(0.000,1)}42.48%,100%{transform:scale(1.000,1)}}.u.u1{fill:var(--c2);animation-name:u1;transform-origin:367.0px 0}@keyframes u2{47.82%{transform:scale(0.000,1)}47.84%,100%{transform:scale(1.000,1)}}.u.u2{fill:var(--c1);animation-name:u2;transform-origin:379.7px 0}@keyframes u3{48.15%{transform:scale(0.000,1)}48.17%,50.83%{transform:scale(0.500,1)}50.85%,100%{transform:scale(1.000,1)}}.u.u3{fill:var(--c2);animation-name:u3;transform-origin:392.4px 0}@keyframes u4{51.16%{transform:scale(0.000,1)}51.18%,100%{transform:scale(1.000,1)}}.u.u4{fill:var(--c1);animation-name:u4;transform-origin:417.7px 0}@keyframes u5{51.5%{transform:scale(0.000,1)}51.52%,51.83%{transform:scale(0.042,1)}51.85%,52.5%{transform:scale(0.083,1)}52.52%,53.84%{transform:scale(0.125,1)}53.86%,54.84%{transform:scale(0.167,1)}54.86%,55.17%{transform:scale(0.208,1)}55.19%,55.51%{transform:scale(0.250,1)}55.53%,55.84%{transform:scale(0.292,1)}55.86%,56.85%{transform:scale(0.333,1)}56.87%,57.18%{transform:scale(0.375,1)}57.2%,57.52%{transform:scale(0.417,1)}57.54%,58.85%{transform:scale(0.458,1)}58.87%,59.19%{transform:scale(0.500,1)}59.21%,61.19%{transform:scale(0.542,1)}61.21%,62.2%{transform:scale(0.583,1)}62.22%,63.54%{transform:scale(0.625,1)}63.56%,63.87%{transform:scale(0.667,1)}63.89%,64.54%{transform:scale(0.708,1)}64.56%,64.87%{transform:scale(0.750,1)}64.89%,65.21%{transform:scale(0.792,1)}65.23%,65.88%{transform:scale(0.833,1)}65.9%,68.55%{transform:scale(0.875,1)}68.57%,70.89%{transform:scale(0.917,1)}70.91%,71.23%{transform:scale(0.958,1)}71.25%,100%{transform:scale(1.000,1)}}.u.u5{fill:var(--c2);animation-name:u5;transform-origin:430.3px 0}@keyframes u6{73.57%{transform:scale(0.000,1)}73.59%,76.58%{transform:scale(0.200,1)}76.6%,76.91%{transform:scale(0.400,1)}76.93%,77.25%{transform:scale(0.600,1)}77.27%,78.59%{transform:scale(0.800,1)}78.61%,100%{transform:scale(1.000,1)}}.u.u6{fill:var(--c3);animation-name:u6;transform-origin:734.1px 0}@keyframes u7{80.26%{transform:scale(0.000,1)}80.28%,80.93%{transform:scale(0.250,1)}80.95%,82.26%{transform:scale(0.500,1)}82.28%,85.94%{transform:scale(0.750,1)}85.96%,100%{transform:scale(1.000,1)}}.u.u7{fill:var(--c4);animation-name:u7;transform-origin:797.4px 0}.s{shape-rendering:geometricPrecision;fill:var(--cs);animation:none linear 29900ms infinite}@keyframes s0{0%,99.67%{transform:translate(0px,-16px)}0.33%{transform:translate(0px,0px)}10.03%{transform:translate(464px,0px)}10.37%{transform:translate(464px,16px)}10.7%{transform:translate(480px,16px)}11.04%{transform:translate(480px,32px)}11.37%{transform:translate(464px,32px)}11.71%{transform:translate(464px,48px)}13.04%{transform:translate(528px,48px)}13.38%{transform:translate(528px,64px)}15.72%{transform:translate(416px,64px)}16.05%{transform:translate(416px,80px)}16.39%{transform:translate(400px,80px)}16.72%{transform:translate(400px,64px)}21.07%{transform:translate(608px,64px)}22.41%{transform:translate(608px,0px)}23.41%{transform:translate(656px,0px)}23.75%{transform:translate(656px,16px)}25.42%,48.83%,58.19%{transform:translate(736px,16px)}25.75%,49.83%{transform:translate(736px,32px)}26.42%,46.49%,61.87%{transform:translate(704px,32px)}27.42%{transform:translate(704px,80px)}27.76%{transform:translate(688px,80px)}28.09%{transform:translate(688px,64px)}28.76%,75.59%{transform:translate(720px,64px)}29.77%{transform:translate(720px,112px)}31.1%{transform:translate(784px,112px)}31.44%{transform:translate(784px,96px)}32.11%,40.13%{transform:translate(816px,96px)}33.11%,38.46%{transform:translate(816px,48px)}33.78%,37.79%{transform:translate(848px,48px)}34.45%{transform:translate(848px,16px)}34.78%{transform:translate(832px,16px)}35.12%{transform:translate(832px,0px)}35.45%{transform:translate(816px,0px)}35.79%,43.14%{transform:translate(816px,-16px)}36.45%{transform:translate(848px,-16px)}39.13%{transform:translate(816px,80px)}39.46%,52.17%{transform:translate(800px,80px)}39.8%{transform:translate(800px,96px)}41.47%{transform:translate(816px,32px)}41.81%{transform:translate(800px,32px)}42.14%,56.19%,79.6%{transform:translate(800px,16px)}42.47%{transform:translate(816px,16px)}45.15%{transform:translate(720px,-16px)}46.15%,49.5%{transform:translate(720px,32px)}47.16%{transform:translate(704px,64px)}47.83%,50.5%,81.94%{transform:translate(736px,64px)}49.16%,60.54%{transform:translate(720px,16px)}51.17%{transform:translate(768px,64px)}51.51%,65.55%{transform:translate(768px,80px)}52.51%{transform:translate(800px,64px)}53.18%{transform:translate(832px,64px)}53.85%{transform:translate(832px,32px)}54.85%{transform:translate(784px,32px)}55.52%,78.26%{transform:translate(784px,0px)}55.85%{transform:translate(800px,0px)}57.19%,58.53%{transform:translate(752px,16px)}57.53%{transform:translate(752px,0px)}57.86%{transform:translate(736px,0px)}58.86%{transform:translate(752px,32px)}59.2%{transform:translate(768px,32px)}59.53%,78.93%{transform:translate(768px,16px)}61.2%,83.28%{transform:translate(720px,48px)}61.54%{transform:translate(704px,48px)}62.21%{transform:translate(688px,32px)}63.55%{transform:translate(688px,96px)}65.22%{transform:translate(768px,96px)}65.89%{transform:translate(752px,80px)}66.22%{transform:translate(752px,96px)}68.9%{transform:translate(624px,96px)}70.23%{transform:translate(624px,32px)}71.24%{transform:translate(576px,32px)}71.91%{transform:translate(576px,64px)}73.24%{transform:translate(640px,64px)}73.58%{transform:translate(640px,80px)}75.25%,82.61%{transform:translate(720px,80px)}76.25%{transform:translate(752px,64px)}76.59%{transform:translate(752px,48px)}77.26%,80.6%{transform:translate(784px,48px)}78.6%{transform:translate(768px,0px)}80.27%{transform:translate(800px,48px)}80.94%{transform:translate(784px,64px)}82.27%{transform:translate(736px,80px)}95.65%{transform:translate(128px,48px)}95.99%{transform:translate(128px,32px)}96.32%{transform:translate(112px,32px)}96.66%{transform:translate(112px,16px)}96.99%{transform:translate(96px,16px)}97.66%{transform:translate(96px,-16px)}}.s.s0{transform:translate(0px,-16px);animation-name:s0}@keyframes s1{0%,99.67%{transform:translate(16px,-16px)}0.33%{transform:translate(0px,-16px)}0.67%{transform:translate(0px,0px)}10.37%{transform:translate(464px,0px)}10.7%{transform:translate(464px,16px)}11.04%{transform:translate(480px,16px)}11.37%{transform:translate(480px,32px)}11.71%{transform:translate(464px,32px)}12.04%{transform:translate(464px,48px)}13.38%{transform:translate(528px,48px)}13.71%{transform:translate(528px,64px)}16.05%{transform:translate(416px,64px)}16.39%{transform:translate(416px,80px)}16.72%{transform:translate(400px,80px)}17.06%{transform:translate(400px,64px)}21.4%{transform:translate(608px,64px)}22.74%{transform:translate(608px,0px)}23.75%{transform:translate(656px,0px)}24.08%{transform:translate(656px,16px)}25.75%,49.16%,58.53%{transform:translate(736px,16px)}26.09%,50.17%{transform:translate(736px,32px)}26.76%,46.82%,62.21%{transform:translate(704px,32px)}27.76%{transform:translate(704px,80px)}28.09%{transform:translate(688px,80px)}28.43%{transform:translate(688px,64px)}29.1%,75.92%{transform:translate(720px,64px)}30.1%{transform:translate(720px,112px)}31.44%{transform:translate(784px,112px)}31.77%{transform:translate(784px,96px)}32.44%,40.47%{transform:translate(816px,96px)}33.44%,38.8%{transform:translate(816px,48px)}34.11%,38.13%{transform:translate(848px,48px)}34.78%{transform:translate(848px,16px)}35.12%{transform:translate(832px,16px)}35.45%{transform:translate(832px,0px)}35.79%{transform:translate(816px,0px)}36.12%,43.48%{transform:translate(816px,-16px)}36.79%{transform:translate(848px,-16px)}39.46%{transform:translate(816px,80px)}39.8%,52.51%{transform:translate(800px,80px)}40.13%{transform:translate(800px,96px)}41.81%{transform:translate(816px,32px)}42.14%{transform:translate(800px,32px)}42.47%,56.52%,79.93%{transform:translate(800px,16px)}42.81%{transform:translate(816px,16px)}45.48%{transform:translate(720px,-16px)}46.49%,49.83%{transform:translate(720px,32px)}47.49%{transform:translate(704px,64px)}48.16%,50.84%,82.27%{transform:translate(736px,64px)}49.5%,60.87%{transform:translate(720px,16px)}51.51%{transform:translate(768px,64px)}51.84%,65.89%{transform:translate(768px,80px)}52.84%{transform:translate(800px,64px)}53.51%{transform:translate(832px,64px)}54.18%{transform:translate(832px,32px)}55.18%{transform:translate(784px,32px)}55.85%,78.6%{transform:translate(784px,0px)}56.19%{transform:translate(800px,0px)}57.53%,58.86%{transform:translate(752px,16px)}57.86%{transform:translate(752px,0px)}58.19%{transform:translate(736px,0px)}59.2%{transform:translate(752px,32px)}59.53%{transform:translate(768px,32px)}59.87%,79.26%{transform:translate(768px,16px)}61.54%,83.61%{transform:translate(720px,48px)}61.87%{transform:translate(704px,48px)}62.54%{transform:translate(688px,32px)}63.88%{transform:translate(688px,96px)}65.55%{transform:translate(768px,96px)}66.22%{transform:translate(752px,80px)}66.56%{transform:translate(752px,96px)}69.23%{transform:translate(624px,96px)}70.57%{transform:translate(624px,32px)}71.57%{transform:translate(576px,32px)}72.24%{transform:translate(576px,64px)}73.58%{transform:translate(640px,64px)}73.91%{transform:translate(640px,80px)}75.59%,82.94%{transform:translate(720px,80px)}76.59%{transform:translate(752px,64px)}76.92%{transform:translate(752px,48px)}77.59%,80.94%{transform:translate(784px,48px)}78.93%{transform:translate(768px,0px)}80.6%{transform:translate(800px,48px)}81.27%{transform:translate(784px,64px)}82.61%{transform:translate(736px,80px)}95.99%{transform:translate(128px,48px)}96.32%{transform:translate(128px,32px)}96.66%{transform:translate(112px,32px)}96.99%{transform:translate(112px,16px)}97.32%{transform:translate(96px,16px)}97.99%{transform:translate(96px,-16px)}}.s.s1{transform:translate(16px,-16px);animation-name:s1}@keyframes s2{0%,99.67%{transform:translate(32px,-16px)}0.67%{transform:translate(0px,-16px)}1%{transform:translate(0px,0px)}10.7%{transform:translate(464px,0px)}11.04%{transform:translate(464px,16px)}11.37%{transform:translate(480px,16px)}11.71%{transform:translate(480px,32px)}12.04%{transform:translate(464px,32px)}12.37%{transform:translate(464px,48px)}13.71%{transform:translate(528px,48px)}14.05%{transform:translate(528px,64px)}16.39%{transform:translate(416px,64px)}16.72%{transform:translate(416px,80px)}17.06%{transform:translate(400px,80px)}17.39%{transform:translate(400px,64px)}21.74%{transform:translate(608px,64px)}23.08%{transform:translate(608px,0px)}24.08%{transform:translate(656px,0px)}24.41%{transform:translate(656px,16px)}26.09%,49.5%,58.86%{transform:translate(736px,16px)}26.42%,50.5%{transform:translate(736px,32px)}27.09%,47.16%,62.54%{transform:translate(704px,32px)}28.09%{transform:translate(704px,80px)}28.43%{transform:translate(688px,80px)}28.76%{transform:translate(688px,64px)}29.43%,76.25%{transform:translate(720px,64px)}30.43%{transform:translate(720px,112px)}31.77%{transform:translate(784px,112px)}32.11%{transform:translate(784px,96px)}32.78%,40.8%{transform:translate(816px,96px)}33.78%,39.13%{transform:translate(816px,48px)}34.45%,38.46%{transform:translate(848px,48px)}35.12%{transform:translate(848px,16px)}35.45%{transform:translate(832px,16px)}35.79%{transform:translate(832px,0px)}36.12%{transform:translate(816px,0px)}36.45%,43.81%{transform:translate(816px,-16px)}37.12%{transform:translate(848px,-16px)}39.8%{transform:translate(816px,80px)}40.13%,52.84%{transform:translate(800px,80px)}40.47%{transform:translate(800px,96px)}42.14%{transform:translate(816px,32px)}42.47%{transform:translate(800px,32px)}42.81%,56.86%,80.27%{transform:translate(800px,16px)}43.14%{transform:translate(816px,16px)}45.82%{transform:translate(720px,-16px)}46.82%,50.17%{transform:translate(720px,32px)}47.83%{transform:translate(704px,64px)}48.49%,51.17%,82.61%{transform:translate(736px,64px)}49.83%,61.2%{transform:translate(720px,16px)}51.84%{transform:translate(768px,64px)}52.17%,66.22%{transform:translate(768px,80px)}53.18%{transform:translate(800px,64px)}53.85%{transform:translate(832px,64px)}54.52%{transform:translate(832px,32px)}55.52%{transform:translate(784px,32px)}56.19%,78.93%{transform:translate(784px,0px)}56.52%{transform:translate(800px,0px)}57.86%,59.2%{transform:translate(752px,16px)}58.19%{transform:translate(752px,0px)}58.53%{transform:translate(736px,0px)}59.53%{transform:translate(752px,32px)}59.87%{transform:translate(768px,32px)}60.2%,79.6%{transform:translate(768px,16px)}61.87%,83.95%{transform:translate(720px,48px)}62.21%{transform:translate(704px,48px)}62.88%{transform:translate(688px,32px)}64.21%{transform:translate(688px,96px)}65.89%{transform:translate(768px,96px)}66.56%{transform:translate(752px,80px)}66.89%{transform:translate(752px,96px)}69.57%{transform:translate(624px,96px)}70.9%{transform:translate(624px,32px)}71.91%{transform:translate(576px,32px)}72.58%{transform:translate(576px,64px)}73.91%{transform:translate(640px,64px)}74.25%{transform:translate(640px,80px)}75.92%,83.28%{transform:translate(720px,80px)}76.92%{transform:translate(752px,64px)}77.26%{transform:translate(752px,48px)}77.93%,81.27%{transform:translate(784px,48px)}79.26%{transform:translate(768px,0px)}80.94%{transform:translate(800px,48px)}81.61%{transform:translate(784px,64px)}82.94%{transform:translate(736px,80px)}96.32%{transform:translate(128px,48px)}96.66%{transform:translate(128px,32px)}96.99%{transform:translate(112px,32px)}97.32%{transform:translate(112px,16px)}97.66%{transform:translate(96px,16px)}98.33%{transform:translate(96px,-16px)}}.s.s2{transform:translate(32px,-16px);animation-name:s2}@keyframes s3{0%,99.67%{transform:translate(48px,-16px)}1%{transform:translate(0px,-16px)}1.34%{transform:translate(0px,0px)}11.04%{transform:translate(464px,0px)}11.37%{transform:translate(464px,16px)}11.71%{transform:translate(480px,16px)}12.04%{transform:translate(480px,32px)}12.37%{transform:translate(464px,32px)}12.71%{transform:translate(464px,48px)}14.05%{transform:translate(528px,48px)}14.38%{transform:translate(528px,64px)}16.72%{transform:translate(416px,64px)}17.06%{transform:translate(416px,80px)}17.39%{transform:translate(400px,80px)}17.73%{transform:translate(400px,64px)}22.07%{transform:translate(608px,64px)}23.41%{transform:translate(608px,0px)}24.41%{transform:translate(656px,0px)}24.75%{transform:translate(656px,16px)}26.42%,49.83%,59.2%{transform:translate(736px,16px)}26.76%,50.84%{transform:translate(736px,32px)}27.42%,47.49%,62.88%{transform:translate(704px,32px)}28.43%{transform:translate(704px,80px)}28.76%{transform:translate(688px,80px)}29.1%{transform:translate(688px,64px)}29.77%,76.59%{transform:translate(720px,64px)}30.77%{transform:translate(720px,112px)}32.11%{transform:translate(784px,112px)}32.44%{transform:translate(784px,96px)}33.11%,41.14%{transform:translate(816px,96px)}34.11%,39.46%{transform:translate(816px,48px)}34.78%,38.8%{transform:translate(848px,48px)}35.45%{transform:translate(848px,16px)}35.79%{transform:translate(832px,16px)}36.12%{transform:translate(832px,0px)}36.45%{transform:translate(816px,0px)}36.79%,44.15%{transform:translate(816px,-16px)}37.46%{transform:translate(848px,-16px)}40.13%{transform:translate(816px,80px)}40.47%,53.18%{transform:translate(800px,80px)}40.8%{transform:translate(800px,96px)}42.47%{transform:translate(816px,32px)}42.81%{transform:translate(800px,32px)}43.14%,57.19%,80.6%{transform:translate(800px,16px)}43.48%{transform:translate(816px,16px)}46.15%{transform:translate(720px,-16px)}47.16%,50.5%{transform:translate(720px,32px)}48.16%{transform:translate(704px,64px)}48.83%,51.51%,82.94%{transform:translate(736px,64px)}50.17%,61.54%{transform:translate(720px,16px)}52.17%{transform:translate(768px,64px)}52.51%,66.56%{transform:translate(768px,80px)}53.51%{transform:translate(800px,64px)}54.18%{transform:translate(832px,64px)}54.85%{transform:translate(832px,32px)}55.85%{transform:translate(784px,32px)}56.52%,79.26%{transform:translate(784px,0px)}56.86%{transform:translate(800px,0px)}58.19%,59.53%{transform:translate(752px,16px)}58.53%{transform:translate(752px,0px)}58.86%{transform:translate(736px,0px)}59.87%{transform:translate(752px,32px)}60.2%{transform:translate(768px,32px)}60.54%,79.93%{transform:translate(768px,16px)}62.21%,84.28%{transform:translate(720px,48px)}62.54%{transform:translate(704px,48px)}63.21%{transform:translate(688px,32px)}64.55%{transform:translate(688px,96px)}66.22%{transform:translate(768px,96px)}66.89%{transform:translate(752px,80px)}67.22%{transform:translate(752px,96px)}69.9%{transform:translate(624px,96px)}71.24%{transform:translate(624px,32px)}72.24%{transform:translate(576px,32px)}72.91%{transform:translate(576px,64px)}74.25%{transform:translate(640px,64px)}74.58%{transform:translate(640px,80px)}76.25%,83.61%{transform:translate(720px,80px)}77.26%{transform:translate(752px,64px)}77.59%{transform:translate(752px,48px)}78.26%,81.61%{transform:translate(784px,48px)}79.6%{transform:translate(768px,0px)}81.27%{transform:translate(800px,48px)}81.94%{transform:translate(784px,64px)}83.28%{transform:translate(736px,80px)}96.66%{transform:translate(128px,48px)}96.99%{transform:translate(128px,32px)}97.32%{transform:translate(112px,32px)}97.66%{transform:translate(112px,16px)}97.99%{transform:translate(96px,16px)}98.66%{transform:translate(96px,-16px)}}.s.s3{transform:translate(48px,-16px);animation-name:s3}</style><rect class="c" x="2" y="2" rx="2" ry="2"/><rect class="c" x="2" y="18" rx="2" ry="2"/><rect class="c" x="2" y="34" rx="2" ry="2"/><rect class="c" x="2" y="50" rx="2" ry="2"/><rect class="c" x="2" y="66" rx="2" ry="2"/><rect class="c" x="2" y="82" rx="2" ry="2"/><rect class="c" x="2" y="98" rx="2" ry="2"/><rect class="c" x="18" y="2" rx="2" ry="2"/><rect class="c" x="18" y="18" rx="2" ry="2"/><rect class="c" x="18" y="34" rx="2" ry="2"/><rect class="c" x="18" y="50" rx="2" ry="2"/><rect class="c" x="18" y="66" rx="2" ry="2"/><rect class="c" x="18" y="82" rx="2" ry="2"/><rect class="c" x="18" y="98" rx="2" ry="2"/><rect class="c" x="34" y="2" rx="2" ry="2"/><rect class="c" x="34" y="18" rx="2" ry="2"/><rect class="c" x="34" y="34" rx="2" ry="2"/><rect class="c" x="34" y="50" rx="2" ry="2"/><rect class="c" x="34" y="66" rx="2" ry="2"/><rect class="c" x="34" y="82" rx="2" ry="2"/><rect class="c" x="34" y="98" rx="2" ry="2"/><rect class="c" x="50" y="2" rx="2" ry="2"/><rect class="c" x="50" y="18" rx="2" ry="2"/><rect class="c" x="50" y="34" rx="2" ry="2"/><rect class="c" x="50" y="50" rx="2" ry="2"/><rect class="c" x="50" y="66" rx="2" ry="2"/><rect class="c" x="50" y="82" rx="2" ry="2"/><rect class="c" x="50" y="98" rx="2" ry="2"/><rect class="c" x="66" y="2" rx="2" ry="2"/><rect class="c" x="66" y="18" rx="2" ry="2"/><rect class="c" x="66" y="34" rx="2" ry="2"/><rect class="c" x="66" y="50" rx="2" ry="2"/><rect class="c" x="66" y="66" rx="2" ry="2"/><rect class="c" x="66" y="82" rx="2" ry="2"/><rect class="c" x="66" y="98" rx="2" ry="2"/><rect class="c" x="82" y="2" rx="2" ry="2"/><rect class="c" x="82" y="18" rx="2" ry="2"/><rect class="c" x="82" y="34" rx="2" ry="2"/><rect class="c" x="82" y="50" rx="2" ry="2"/><rect class="c" x="82" y="66" rx="2" ry="2"/><rect class="c" x="82" y="82" rx="2" ry="2"/><rect class="c" x="82" y="98" rx="2" ry="2"/><rect class="c" x="98" y="2" rx="2" ry="2"/><rect class="c" x="98" y="18" rx="2" ry="2"/><rect class="c" x="98" y="34" rx="2" ry="2"/><rect class="c" x="98" y="50" rx="2" ry="2"/><rect class="c" x="98" y="66" rx="2" ry="2"/><rect class="c" x="98" y="82" rx="2" ry="2"/><rect class="c" x="98" y="98" rx="2" ry="2"/><rect class="c" x="114" y="2" rx="2" ry="2"/><rect class="c" x="114" y="18" rx="2" ry="2"/><rect class="c" x="114" y="34" rx="2" ry="2"/><rect class="c" x="114" y="50" rx="2" ry="2"/><rect class="c" x="114" y="66" rx="2" ry="2"/><rect class="c" x="114" y="82" rx="2" ry="2"/><rect class="c" x="114" y="98" rx="2" ry="2"/><rect class="c" x="130" y="2" rx="2" ry="2"/><rect class="c" x="130" y="18" rx="2" ry="2"/><rect class="c" x="130" y="34" rx="2" ry="2"/><rect class="c" x="130" y="50" rx="2" ry="2"/><rect class="c" x="130" y="66" rx="2" ry="2"/><rect class="c" x="130" y="82" rx="2" ry="2"/><rect class="c" x="130" y="98" rx="2" ry="2"/><rect class="c" x="146" y="2" rx="2" ry="2"/><rect class="c" x="146" y="18" rx="2" ry="2"/><rect class="c" x="146" y="34" rx="2" ry="2"/><rect class="c" x="146" y="50" rx="2" ry="2"/><rect class="c" x="146" y="66" rx="2" ry="2"/><rect class="c" x="146" y="82" rx="2" ry="2"/><rect class="c" x="146" y="98" rx="2" ry="2"/><rect class="c" x="162" y="2" rx="2" ry="2"/><rect class="c" x="162" y="18" rx="2" ry="2"/><rect class="c" x="162" y="34" rx="2" ry="2"/><rect class="c" x="162" y="50" rx="2" ry="2"/><rect class="c" x="162" y="66" rx="2" ry="2"/><rect class="c" x="162" y="82" rx="2" ry="2"/><rect class="c" x="162" y="98" rx="2" ry="2"/><rect class="c" x="178" y="2" rx="2" ry="2"/><rect class="c" x="178" y="18" rx="2" ry="2"/><rect class="c" x="178" y="34" rx="2" ry="2"/><rect class="c" x="178" y="50" rx="2" ry="2"/><rect class="c" x="178" y="66" rx="2" ry="2"/><rect class="c" x="178" y="82" rx="2" ry="2"/><rect class="c" x="178" y="98" rx="2" ry="2"/><rect class="c" x="194" y="2" rx="2" ry="2"/><rect class="c" x="194" y="18" rx="2" ry="2"/><rect class="c" x="194" y="34" rx="2" ry="2"/><rect class="c" x="194" y="50" rx="2" ry="2"/><rect class="c" x="194" y="66" rx="2" ry="2"/><rect class="c" x="194" y="82" rx="2" ry="2"/><rect class="c" x="194" y="98" rx="2" ry="2"/><rect class="c" x="210" y="2" rx="2" ry="2"/><rect class="c" x="210" y="18" rx="2" ry="2"/><rect class="c" x="210" y="34" rx="2" ry="2"/><rect class="c" x="210" y="50" rx="2" ry="2"/><rect class="c" x="210" y="66" rx="2" ry="2"/><rect class="c" x="210" y="82" rx="2" ry="2"/><rect class="c" x="210" y="98" rx="2" ry="2"/><rect class="c" x="226" y="2" rx="2" ry="2"/><rect class="c" x="226" y="18" rx="2" ry="2"/><rect class="c" x="226" y="34" rx="2" ry="2"/><rect class="c" x="226" y="50" rx="2" ry="2"/><rect class="c" x="226" y="66" rx="2" ry="2"/><rect class="c" x="226" y="82" rx="2" ry="2"/><rect class="c" x="226" y="98" rx="2" ry="2"/><rect class="c" x="242" y="2" rx="2" ry="2"/><rect class="c" x="242" y="18" rx="2" ry="2"/><rect class="c" x="242" y="34" rx="2" ry="2"/><rect class="c" x="242" y="50" rx="2" ry="2"/><rect class="c" x="242" y="66" rx="2" ry="2"/><rect class="c" x="242" y="82" rx="2" ry="2"/><rect class="c" x="242" y="98" rx="2" ry="2"/><rect class="c" x="258" y="2" rx="2" ry="2"/><rect class="c" x="258" y="18" rx="2" ry="2"/><rect class="c" x="258" y="34" rx="2" ry="2"/><rect class="c" x="258" y="50" rx="2" ry="2"/><rect class="c" x="258" y="66" rx="2" ry="2"/><rect class="c" x="258" y="82" rx="2" ry="2"/><rect class="c" x="258" y="98" rx="2" ry="2"/><rect class="c" x="274" y="2" rx="2" ry="2"/><rect class="c" x="274" y="18" rx="2" ry="2"/><rect class="c" x="274" y="34" rx="2" ry="2"/><rect class="c" x="274" y="50" rx="2" ry="2"/><rect class="c" x="274" y="66" rx="2" ry="2"/><rect class="c" x="274" y="82" rx="2" ry="2"/><rect class="c" x="274" y="98" rx="2" ry="2"/><rect class="c" x="290" y="2" rx="2" ry="2"/><rect class="c" x="290" y="18" rx="2" ry="2"/><rect class="c" x="290" y="34" rx="2" ry="2"/><rect class="c" x="290" y="50" rx="2" ry="2"/><rect class="c" x="290" y="66" rx="2" ry="2"/><rect class="c" x="290" y="82" rx="2" ry="2"/><rect class="c" x="290" y="98" rx="2" ry="2"/><rect class="c" x="306" y="2" rx="2" ry="2"/><rect class="c" x="306" y="18" rx="2" ry="2"/><rect class="c" x="306" y="34" rx="2" ry="2"/><rect class="c" x="306" y="50" rx="2" ry="2"/><rect class="c" x="306" y="66" rx="2" ry="2"/><rect class="c" x="306" y="82" rx="2" ry="2"/><rect class="c" x="306" y="98" rx="2" ry="2"/><rect class="c" x="322" y="2" rx="2" ry="2"/><rect class="c" x="322" y="18" rx="2" ry="2"/><rect class="c" x="322" y="34" rx="2" ry="2"/><rect class="c" x="322" y="50" rx="2" ry="2"/><rect class="c" x="322" y="66" rx="2" ry="2"/><rect class="c" x="322" y="82" rx="2" ry="2"/><rect class="c" x="322" y="98" rx="2" ry="2"/><rect class="c" x="338" y="2" rx="2" ry="2"/><rect class="c" x="338" y="18" rx="2" ry="2"/><rect class="c" x="338" y="34" rx="2" ry="2"/><rect class="c" x="338" y="50" rx="2" ry="2"/><rect class="c" x="338" y="66" rx="2" ry="2"/><rect class="c" x="338" y="82" rx="2" ry="2"/><rect class="c" x="338" y="98" rx="2" ry="2"/><rect class="c" x="354" y="2" rx="2" ry="2"/><rect class="c" x="354" y="18" rx="2" ry="2"/><rect class="c" x="354" y="34" rx="2" ry="2"/><rect class="c" x="354" y="50" rx="2" ry="2"/><rect class="c" x="354" y="66" rx="2" ry="2"/><rect class="c" x="354" y="82" rx="2" ry="2"/><rect class="c" x="354" y="98" rx="2" ry="2"/><rect class="c" x="370" y="2" rx="2" ry="2"/><rect class="c" x="370" y="18" rx="2" ry="2"/><rect class="c" x="370" y="34" rx="2" ry="2"/><rect class="c" x="370" y="50" rx="2" ry="2"/><rect class="c" x="370" y="66" rx="2" ry="2"/><rect class="c" x="370" y="82" rx="2" ry="2"/><rect class="c" x="370" y="98" rx="2" ry="2"/><rect class="c" x="386" y="2" rx="2" ry="2"/><rect class="c" x="386" y="18" rx="2" ry="2"/><rect class="c" x="386" y="34" rx="2" ry="2"/><rect class="c" x="386" y="50" rx="2" ry="2"/><rect class="c" x="386" y="66" rx="2" ry="2"/><rect class="c" x="386" y="82" rx="2" ry="2"/><rect class="c" x="386" y="98" rx="2" ry="2"/><rect class="c" x="402" y="2" rx="2" ry="2"/><rect class="c" x="402" y="18" rx="2" ry="2"/><rect class="c" x="402" y="34" rx="2" ry="2"/><rect class="c" x="402" y="50" rx="2" ry="2"/><rect class="c" x="402" y="66" rx="2" ry="2"/><rect class="c c0" x="402" y="82" rx="2" ry="2"/><rect class="c" x="402" y="98" rx="2" ry="2"/><rect class="c" x="418" y="2" rx="2" ry="2"/><rect class="c" x="418" y="18" rx="2" ry="2"/><rect class="c" x="418" y="34" rx="2" ry="2"/><rect class="c" x="418" y="50" rx="2" ry="2"/><rect class="c" x="418" y="66" rx="2" ry="2"/><rect class="c c1" x="418" y="82" rx="2" ry="2"/><rect class="c" x="418" y="98" rx="2" ry="2"/><rect class="c" x="434" y="2" rx="2" ry="2"/><rect class="c" x="434" y="18" rx="2" ry="2"/><rect class="c" x="434" y="34" rx="2" ry="2"/><rect class="c" x="434" y="50" rx="2" ry="2"/><rect class="c" x="434" y="66" rx="2" ry="2"/><rect class="c" x="434" y="82" rx="2" ry="2"/><rect class="c" x="434" y="98" rx="2" ry="2"/><rect class="c" x="450" y="2" rx="2" ry="2"/><rect class="c" x="450" y="18" rx="2" ry="2"/><rect class="c" x="450" y="34" rx="2" ry="2"/><rect class="c" x="450" y="50" rx="2" ry="2"/><rect class="c" x="450" y="66" rx="2" ry="2"/><rect class="c" x="450" y="82" rx="2" ry="2"/><rect class="c" x="450" y="98" rx="2" ry="2"/><rect class="c" x="466" y="2" rx="2" ry="2"/><rect class="c c2" x="466" y="18" rx="2" ry="2"/><rect class="c c3" x="466" y="34" rx="2" ry="2"/><rect class="c" x="466" y="50" rx="2" ry="2"/><rect class="c" x="466" y="66" rx="2" ry="2"/><rect class="c" x="466" y="82" rx="2" ry="2"/><rect class="c" x="466" y="98" rx="2" ry="2"/><rect class="c" x="482" y="2" rx="2" ry="2"/><rect class="c c4" x="482" y="18" rx="2" ry="2"/><rect class="c c5" x="482" y="34" rx="2" ry="2"/><rect class="c" x="482" y="50" rx="2" ry="2"/><rect class="c" x="482" y="66" rx="2" ry="2"/><rect class="c" x="482" y="82" rx="2" ry="2"/><rect class="c" x="482" y="98" rx="2" ry="2"/><rect class="c" x="498" y="2" rx="2" ry="2"/><rect class="c" x="498" y="18" rx="2" ry="2"/><rect class="c" x="498" y="34" rx="2" ry="2"/><rect class="c" x="498" y="50" rx="2" ry="2"/><rect class="c" x="498" y="66" rx="2" ry="2"/><rect class="c" x="498" y="82" rx="2" ry="2"/><rect class="c" x="498" y="98" rx="2" ry="2"/><rect class="c" x="514" y="2" rx="2" ry="2"/><rect class="c" x="514" y="18" rx="2" ry="2"/><rect class="c" x="514" y="34" rx="2" ry="2"/><rect class="c" x="514" y="50" rx="2" ry="2"/><rect class="c" x="514" y="66" rx="2" ry="2"/><rect class="c" x="514" y="82" rx="2" ry="2"/><rect class="c" x="514" y="98" rx="2" ry="2"/><rect class="c" x="530" y="2" rx="2" ry="2"/><rect class="c" x="530" y="18" rx="2" ry="2"/><rect class="c" x="530" y="34" rx="2" ry="2"/><rect class="c c6" x="530" y="50" rx="2" ry="2"/><rect class="c c7" x="530" y="66" rx="2" ry="2"/><rect class="c" x="530" y="82" rx="2" ry="2"/><rect class="c" x="530" y="98" rx="2" ry="2"/><rect class="c" x="546" y="2" rx="2" ry="2"/><rect class="c" x="546" y="18" rx="2" ry="2"/><rect class="c" x="546" y="34" rx="2" ry="2"/><rect class="c" x="546" y="50" rx="2" ry="2"/><rect class="c" x="546" y="66" rx="2" ry="2"/><rect class="c" x="546" y="82" rx="2" ry="2"/><rect class="c" x="546" y="98" rx="2" ry="2"/><rect class="c" x="562" y="2" rx="2" ry="2"/><rect class="c" x="562" y="18" rx="2" ry="2"/><rect class="c" x="562" y="34" rx="2" ry="2"/><rect class="c" x="562" y="50" rx="2" ry="2"/><rect class="c" x="562" y="66" rx="2" ry="2"/><rect class="c" x="562" y="82" rx="2" ry="2"/><rect class="c" x="562" y="98" rx="2" ry="2"/><rect class="c" x="578" y="2" rx="2" ry="2"/><rect class="c" x="578" y="18" rx="2" ry="2"/><rect class="c c8" x="578" y="34" rx="2" ry="2"/><rect class="c" x="578" y="50" rx="2" ry="2"/><rect class="c" x="578" y="66" rx="2" ry="2"/><rect class="c" x="578" y="82" rx="2" ry="2"/><rect class="c" x="578" y="98" rx="2" ry="2"/><rect class="c" x="594" y="2" rx="2" ry="2"/><rect class="c" x="594" y="18" rx="2" ry="2"/><rect class="c c9" x="594" y="34" rx="2" ry="2"/><rect class="c ca" x="594" y="50" rx="2" ry="2"/><rect class="c" x="594" y="66" rx="2" ry="2"/><rect class="c" x="594" y="82" rx="2" ry="2"/><rect class="c" x="594" y="98" rx="2" ry="2"/><rect class="c cb" x="610" y="2" rx="2" ry="2"/><rect class="c" x="610" y="18" rx="2" ry="2"/><rect class="c" x="610" y="34" rx="2" ry="2"/><rect class="c" x="610" y="50" rx="2" ry="2"/><rect class="c" x="610" y="66" rx="2" ry="2"/><rect class="c" x="610" y="82" rx="2" ry="2"/><rect class="c" x="610" y="98" rx="2" ry="2"/><rect class="c" x="626" y="2" rx="2" ry="2"/><rect class="c" x="626" y="18" rx="2" ry="2"/><rect class="c" x="626" y="34" rx="2" ry="2"/><rect class="c" x="626" y="50" rx="2" ry="2"/><rect class="c" x="626" y="66" rx="2" ry="2"/><rect class="c" x="626" y="82" rx="2" ry="2"/><rect class="c" x="626" y="98" rx="2" ry="2"/><rect class="c" x="642" y="2" rx="2" ry="2"/><rect class="c" x="642" y="18" rx="2" ry="2"/><rect class="c" x="642" y="34" rx="2" ry="2"/><rect class="c" x="642" y="50" rx="2" ry="2"/><rect class="c" x="642" y="66" rx="2" ry="2"/><rect class="c cc" x="642" y="82" rx="2" ry="2"/><rect class="c cd" x="642" y="98" rx="2" ry="2"/><rect class="c" x="658" y="2" rx="2" ry="2"/><rect class="c ce" x="658" y="18" rx="2" ry="2"/><rect class="c" x="658" y="34" rx="2" ry="2"/><rect class="c" x="658" y="50" rx="2" ry="2"/><rect class="c" x="658" y="66" rx="2" ry="2"/><rect class="c" x="658" y="82" rx="2" ry="2"/><rect class="c" x="658" y="98" rx="2" ry="2"/><rect class="c" x="674" y="2" rx="2" ry="2"/><rect class="c" x="674" y="18" rx="2" ry="2"/><rect class="c" x="674" y="34" rx="2" ry="2"/><rect class="c" x="674" y="50" rx="2" ry="2"/><rect class="c" x="674" y="66" rx="2" ry="2"/><rect class="c" x="674" y="82" rx="2" ry="2"/><rect class="c" x="674" y="98" rx="2" ry="2"/><rect class="c" x="690" y="2" rx="2" ry="2"/><rect class="c" x="690" y="18" rx="2" ry="2"/><rect class="c cf" x="690" y="34" rx="2" ry="2"/><rect class="c" x="690" y="50" rx="2" ry="2"/><rect class="c" x="690" y="66" rx="2" ry="2"/><rect class="c cg" x="690" y="82" rx="2" ry="2"/><rect class="c ch" x="690" y="98" rx="2" ry="2"/><rect class="c" x="706" y="2" rx="2" ry="2"/><rect class="c" x="706" y="18" rx="2" ry="2"/><rect class="c" x="706" y="34" rx="2" ry="2"/><rect class="c" x="706" y="50" rx="2" ry="2"/><rect class="c" x="706" y="66" rx="2" ry="2"/><rect class="c ci" x="706" y="82" rx="2" ry="2"/><rect class="c cj" x="706" y="98" rx="2" ry="2"/><rect class="c" x="722" y="2" rx="2" ry="2"/><rect class="c" x="722" y="18" rx="2" ry="2"/><rect class="c ck" x="722" y="34" rx="2" ry="2"/><rect class="c cl" x="722" y="50" rx="2" ry="2"/><rect class="c" x="722" y="66" rx="2" ry="2"/><rect class="c" x="722" y="82" rx="2" ry="2"/><rect class="c" x="722" y="98" rx="2" ry="2"/><rect class="c" x="738" y="2" rx="2" ry="2"/><rect class="c cm" x="738" y="18" rx="2" ry="2"/><rect class="c cn" x="738" y="34" rx="2" ry="2"/><rect class="c co" x="738" y="50" rx="2" ry="2"/><rect class="c cp" x="738" y="66" rx="2" ry="2"/><rect class="c cq" x="738" y="82" rx="2" ry="2"/><rect class="c cr" x="738" y="98" rx="2" ry="2"/><rect class="c cs" x="754" y="2" rx="2" ry="2"/><rect class="c ct" x="754" y="18" rx="2" ry="2"/><rect class="c cu" x="754" y="34" rx="2" ry="2"/><rect class="c cv" x="754" y="50" rx="2" ry="2"/><rect class="c cw" x="754" y="66" rx="2" ry="2"/><rect class="c cx" x="754" y="82" rx="2" ry="2"/><rect class="c cy" x="754" y="98" rx="2" ry="2"/><rect class="c cz" x="770" y="2" rx="2" ry="2"/><rect class="c c10" x="770" y="18" rx="2" ry="2"/><rect class="c c11" x="770" y="34" rx="2" ry="2"/><rect class="c c12" x="770" y="50" rx="2" ry="2"/><rect class="c c13" x="770" y="66" rx="2" ry="2"/><rect class="c c14" x="770" y="82" rx="2" ry="2"/><rect class="c c15" x="770" y="98" rx="2" ry="2"/><rect class="c c16" x="786" y="2" rx="2" ry="2"/><rect class="c c17" x="786" y="18" rx="2" ry="2"/><rect class="c c18" x="786" y="34" rx="2" ry="2"/><rect class="c c19" x="786" y="50" rx="2" ry="2"/><rect class="c c1a" x="786" y="66" rx="2" ry="2"/><rect class="c c1b" x="786" y="82" rx="2" ry="2"/><rect class="c c1c" x="786" y="98" rx="2" ry="2"/><rect class="c c1d" x="802" y="2" rx="2" ry="2"/><rect class="c c1e" x="802" y="18" rx="2" ry="2"/><rect class="c c1f" x="802" y="34" rx="2" ry="2"/><rect class="c c1g" x="802" y="50" rx="2" ry="2"/><rect class="c c1h" x="802" y="66" rx="2" ry="2"/><rect class="c c1i" x="802" y="82" rx="2" ry="2"/><rect class="c c1j" x="802" y="98" rx="2" ry="2"/><rect class="c c1k" x="818" y="2" rx="2" ry="2"/><rect class="c c1l" x="818" y="18" rx="2" ry="2"/><rect class="c c1m" x="818" y="34" rx="2" ry="2"/><rect class="c c1n" x="818" y="50" rx="2" ry="2"/><rect class="c c1o" x="818" y="66" rx="2" ry="2"/><rect class="c c1p" x="818" y="82" rx="2" ry="2"/><rect class="c c1q" x="818" y="98" rx="2" ry="2"/><rect class="c c1r" x="834" y="2" rx="2" ry="2"/><rect class="c c1s" x="834" y="18" rx="2" ry="2"/><rect class="c c1t" x="834" y="34" rx="2" ry="2"/><rect class="c c1u" x="834" y="50" rx="2" ry="2"/><rect class="u u0" height="12" width="367.6" x="0.0" y="144"/><rect class="u u1" height="12" width="13.3" x="367.0" y="144"/><rect class="u u2" height="12" width="13.3" x="379.7" y="144"/><rect class="u u3" height="12" width="25.9" x="392.4" y="144"/><rect class="u u4" height="12" width="13.3" x="417.7" y="144"/><rect class="u u5" height="12" width="304.4" x="430.3" y="144"/><rect class="u u6" height="12" width="63.9" x="734.1" y="144"/><rect class="u u7" height="12" width="51.2" x="797.4" y="144"/><rect class="s s0" x="0.8" y="0.8" width="14.4" height="14.4" rx="4.5" ry="4.5"/><rect class="s s1" x="1.8" y="1.8" width="12.3" height="12.3" rx="4.1" ry="4.1"/><rect class="s s2" x="2.6" y="2.6" width="10.8" height="10.8" rx="3.6" ry="3.6"/><rect class="s s3" x="3.0" y="3.0" width="9.9" height="9.9" rx="3.3" ry="3.3"/></svg>