<svg viewBox="-16 -32 880 192" width="880" height="192" xmlns="http://www.w3.org/2000/svg"><desc>Generated with https://github.com/Platane/snk</desc><style>:root{--cb:#1b1f230a;--cs:764ba2;--ce:#ebedf0;--c0:#ebedf0;--c1:#9be9a8;--c2:#40c463;--c3:#30a14e;--c4:#216e39}.c{shape-rendering:geometricPrecision;fill:var(--ce);stroke-width:1px;stroke:var(--cb);animation:none 30100ms linear infinite;width:12px;height:12px}@keyframes c0{57.8%{fill:var(--c2)}57.82%,100%{fill:var(--ce)}}.c.c0{fill:var(--c2);animation-name:c0}@keyframes c1{16.27%{fill:var(--c1)}16.29%,100%{fill:var(--ce)}}.c.c1{fill:var(--c1);animation-name:c1}@keyframes c2{11.29%{fill:var(--c1)}11.31%,100%{fill:var(--ce)}}.c.c2{fill:var(--c1);animation-name:c2}@keyframes c3{55.47%{fill:var(--c2)}55.49%,100%{fill:var(--ce)}}.c.c3{fill:var(--c2);animation-name:c3}@keyframes c4{11.62%{fill:var(--c1)}11.64%,100%{fill:var(--ce)}}.c.c4{fill:var(--c1);animation-name:c4}@keyframes c5{11.95%{fill:var(--c1)}11.97%,100%{fill:var(--ce)}}.c.c5{fill:var(--c1);animation-name:c5}@keyframes c6{13.28%{fill:var(--c1)}13.3%,100%{fill:var(--ce)}}.c.c6{fill:var(--c1);animation-name:c6}@keyframes c7{13.61%{fill:var(--c1)}13.63%,100%{fill:var(--ce)}}.c.c7{fill:var(--c1);animation-name:c7}@keyframes c8{62.45%{fill:var(--c3)}62.47%,100%{fill:var(--ce)}}.c.c8{fill:var(--c3);animation-name:c8}@keyframes c9{62.78%{fill:var(--c3)}62.8%,100%{fill:var(--ce)}}.c.c9{fill:var(--c3);animation-name:c9}@keyframes ca{76.4%{fill:var(--c4)}76.42%,100%{fill:var(--ce)}}.c.ca{fill:var(--c4);animation-name:ca}@keyframes cb{21.92%{fill:var(--c1)}21.94%,100%{fill:var(--ce)}}.c.cb{fill:var(--c1);animation-name:cb}@keyframes cc{74.74%{fill:var(--c4)}74.76%,100%{fill:var(--ce)}}.c.cc{fill:var(--c4);animation-name:cc}@keyframes cd{74.41%{fill:var(--c3)}74.43%,100%{fill:var(--ce)}}.c.cd{fill:var(--c3);animation-name:cd}@keyframes ce{51.15%{fill:var(--c2)}51.17%,100%{fill:var(--ce)}}.c.ce{fill:var(--c2);animation-name:ce}@keyframes cf{64.77%{fill:var(--c3)}64.79%,100%{fill:var(--ce)}}.c.cf{fill:var(--c3);animation-name:cf}@keyframes cg{43.18%{fill:var(--c2)}43.2%,100%{fill:var(--ce)}}.c.cg{fill:var(--c2);animation-name:cg}@keyframes ch{66.1%{fill:var(--c3)}66.12%,100%{fill:var(--ce)}}.c.ch{fill:var(--c3);animation-name:ch}@keyframes ci{42.85%{fill:var(--c2)}42.87%,100%{fill:var(--ce)}}.c.ci{fill:var(--c2);animation-name:ci}@keyframes cj{66.44%{fill:var(--c3)}66.46%,100%{fill:var(--ce)}}.c.cj{fill:var(--c3);animation-name:cj}@keyframes ck{24.91%{fill:var(--c1)}24.93%,100%{fill:var(--ce)}}.c.ck{fill:var(--c1);animation-name:ck}@keyframes cl{41.85%{fill:var(--c2)}41.87%,100%{fill:var(--ce)}}.c.cl{fill:var(--c2);animation-name:cl}@keyframes cm{34.87%{fill:var(--c2)}34.89%,100%{fill:var(--ce)}}.c.cm{fill:var(--c2);animation-name:cm}@keyframes cn{34.54%{fill:var(--c1)}34.56%,100%{fill:var(--ce)}}.c.cn{fill:var(--c1);animation-name:cn}@keyframes co{41.52%{fill:var(--c2)}41.54%,100%{fill:var(--ce)}}.c.co{fill:var(--c2);animation-name:co}@keyframes cp{41.19%{fill:var(--c2)}41.21%,100%{fill:var(--ce)}}.c.cp{fill:var(--c2);animation-name:cp}@keyframes cq{80.06%{fill:var(--c4)}80.08%,100%{fill:var(--ce)}}.c.cq{fill:var(--c4);animation-name:cq}@keyframes cr{47.83%{fill:var(--c2)}47.85%,100%{fill:var(--ce)}}.c.cr{fill:var(--c2);animation-name:cr}@keyframes cs{36.87%{fill:var(--c2)}36.89%,100%{fill:var(--ce)}}.c.cs{fill:var(--c2);animation-name:cs}@keyframes ct{35.21%{fill:var(--c2)}35.23%,100%{fill:var(--ce)}}.c.ct{fill:var(--c2);animation-name:ct}@keyframes cu{36.2%{fill:var(--c2)}36.22%,100%{fill:var(--ce)}}.c.cu{fill:var(--c2);animation-name:cu}@keyframes cv{81.05%{fill:var(--c4)}81.07%,100%{fill:var(--ce)}}.c.cv{fill:var(--c4);animation-name:cv}@keyframes cw{40.85%{fill:var(--c2)}40.87%,100%{fill:var(--ce)}}.c.cw{fill:var(--c2);animation-name:cw}@keyframes cx{45.17%{fill:var(--c2)}45.19%,100%{fill:var(--ce)}}.c.cx{fill:var(--c2);animation-name:cx}@keyframes cy{67.43%{fill:var(--c3)}67.45%,100%{fill:var(--ce)}}.c.cy{fill:var(--c3);animation-name:cy}@keyframes cz{82.38%{fill:var(--c4)}82.4%,100%{fill:var(--ce)}}.c.cz{fill:var(--c4);animation-name:cz}@keyframes c10{35.54%{fill:var(--c2)}35.56%,100%{fill:var(--ce)}}.c.c10{fill:var(--c2);animation-name:c10}@keyframes c11{35.87%{fill:var(--c2)}35.89%,100%{fill:var(--ce)}}.c.c11{fill:var(--c2);animation-name:c11}@keyframes c12{81.39%{fill:var(--c4)}81.41%,100%{fill:var(--ce)}}.c.c12{fill:var(--c4);animation-name:c12}@keyframes c13{40.52%{fill:var(--c2)}40.54%,100%{fill:var(--ce)}}.c.c13{fill:var(--c2);animation-name:c13}@keyframes c14{45.5%{fill:var(--c2)}45.52%,100%{fill:var(--ce)}}.c.c14{fill:var(--c2);animation-name:c14}@keyframes c15{67.76%{fill:var(--c3)}67.78%,100%{fill:var(--ce)}}.c.c15{fill:var(--c3);animation-name:c15}@keyframes c16{38.2%{fill:var(--c2)}38.22%,100%{fill:var(--ce)}}.c.c16{fill:var(--c2);animation-name:c16}@keyframes c17{69.76%{fill:var(--c3)}69.78%,100%{fill:var(--ce)}}.c.c17{fill:var(--c3);animation-name:c17}@keyframes c18{29.56%{fill:var(--c1)}29.58%,100%{fill:var(--ce)}}.c.c18{fill:var(--c1);animation-name:c18}.u{transform-origin:0 0;transform:scale(0,1);animation:none linear 30100ms infinite}@keyframes u0{11.29%{transform:scale(0.000,1)}11.31%,11.62%{transform:scale(0.100,1)}11.64%,11.95%{transform:scale(0.200,1)}11.97%,13.28%{transform:scale(0.300,1)}13.3%,13.61%{transform:scale(0.400,1)}13.63%,16.27%{transform:scale(0.500,1)}16.29%,21.92%{transform:scale(0.600,1)}21.94%,24.91%{transform:scale(0.700,1)}24.93%,29.56%{transform:scale(0.800,1)}29.58%,34.54%{transform:scale(0.900,1)}34.56%,100%{transform:scale(1.000,1)}}.u.u0{fill:var(--c1);animation-name:u0;transform-origin:0.0px 0}@keyframes u1{34.87%{transform:scale(0.000,1)}34.89%,35.21%{transform:scale(0.050,1)}35.23%,35.54%{transform:scale(0.100,1)}35.56%,35.87%{transform:scale(0.150,1)}35.89%,36.2%{transform:scale(0.200,1)}36.22%,36.87%{transform:scale(0.250,1)}36.89%,38.2%{transform:scale(0.300,1)}38.22%,40.52%{transform:scale(0.350,1)}40.54%,40.85%{transform:scale(0.400,1)}40.87%,41.19%{transform:scale(0.450,1)}41.21%,41.52%{transform:scale(0.500,1)}41.54%,41.85%{transform:scale(0.550,1)}41.87%,42.85%{transform:scale(0.600,1)}42.87%,43.18%{transform:scale(0.650,1)}43.2%,45.17%{transform:scale(0.700,1)}45.19%,45.5%{transform:scale(0.750,1)}45.52%,47.83%{transform:scale(0.800,1)}47.85%,51.15%{transform:scale(0.850,1)}51.17%,55.47%{transform:scale(0.900,1)}55.49%,57.8%{transform:scale(0.950,1)}57.82%,100%{transform:scale(1.000,1)}}.u.u1{fill:var(--c2);animation-name:u1;transform-origin:188.4px 0}@keyframes u2{62.45%{transform:scale(0.000,1)}62.47%,62.78%{transform:scale(0.111,1)}62.8%,64.77%{transform:scale(0.222,1)}64.79%,66.1%{transform:scale(0.333,1)}66.12%,66.44%{transform:scale(0.444,1)}66.46%,67.43%{transform:scale(0.556,1)}67.45%,67.76%{transform:scale(0.667,1)}67.78%,69.76%{transform:scale(0.778,1)}69.78%,74.41%{transform:scale(0.889,1)}74.43%,100%{transform:scale(1.000,1)}}.u.u2{fill:var(--c3);animation-name:u2;transform-origin:565.3px 0}@keyframes u3{74.74%{transform:scale(0.000,1)}74.76%,76.4%{transform:scale(0.167,1)}76.42%,80.06%{transform:scale(0.333,1)}80.08%,81.05%{transform:scale(0.500,1)}81.07%,81.39%{transform:scale(0.667,1)}81.41%,82.38%{transform:scale(0.833,1)}82.4%,100%{transform:scale(1.000,1)}}.u.u3{fill:var(--c4);animation-name:u3;transform-origin:734.9px 0}.s{shape-rendering:geometricPrecision;fill:var(--cs);animation:none linear 30100ms infinite}@keyframes s0{0%,99.67%{transform:translate(0px,-16px)}0.33%{transform:translate(0px,0px)}10.96%{transform:translate(512px,0px)}11.3%,55.15%{transform:translate(512px,16px)}11.63%{transform:translate(528px,16px)}11.96%{transform:translate(528px,32px)}12.96%{transform:translate(576px,32px)}13.62%{transform:translate(576px,64px)}15.95%{transform:translate(464px,64px)}16.28%{transform:translate(464px,80px)}20.27%{transform:translate(656px,80px)}21.93%{transform:translate(656px,0px)}24.25%,26.25%{transform:translate(768px,0px)}24.92%,34.22%{transform:translate(768px,32px)}25.25%{transform:translate(752px,32px)}25.58%{transform:translate(752px,16px)}25.91%,49.83%{transform:translate(768px,16px)}26.58%{transform:translate(784px,0px)}26.91%{transform:translate(784px,-16px)}28.24%,31.56%{transform:translate(848px,-16px)}29.24%,39.2%{transform:translate(848px,32px)}29.57%,39.53%{transform:translate(832px,32px)}29.9%{transform:translate(832px,48px)}30.23%{transform:translate(848px,48px)}33.22%{transform:translate(768px,-16px)}34.55%{transform:translate(784px,32px)}34.88%{transform:translate(784px,16px)}35.55%{transform:translate(816px,16px)}35.88%{transform:translate(816px,32px)}36.21%{transform:translate(800px,32px)}37.21%{transform:translate(800px,-16px)}37.87%{transform:translate(832px,-16px)}38.21%{transform:translate(832px,0px)}38.54%{transform:translate(848px,0px)}40.2%{transform:translate(832px,64px)}41.2%,79.73%{transform:translate(784px,64px)}41.53%{transform:translate(784px,48px)}42.19%{transform:translate(752px,48px)}42.86%{transform:translate(752px,80px)}43.19%{transform:translate(736px,80px)}43.52%{transform:translate(736px,64px)}44.85%{transform:translate(800px,64px)}45.18%,80.4%{transform:translate(800px,80px)}45.85%{transform:translate(832px,80px)}46.51%{transform:translate(832px,112px)}47.51%{transform:translate(784px,112px)}47.84%{transform:translate(784px,96px)}48.17%{transform:translate(768px,96px)}55.48%{transform:translate(512px,32px)}56.81%{transform:translate(448px,32px)}57.81%{transform:translate(448px,80px)}61.46%{transform:translate(624px,80px)}62.46%{transform:translate(624px,32px)}64.78%{transform:translate(736px,32px)}66.11%{transform:translate(736px,96px)}68.11%{transform:translate(832px,96px)}69.77%{transform:translate(832px,16px)}72.43%{transform:translate(704px,16px)}74.09%{transform:translate(704px,96px)}74.42%{transform:translate(688px,96px)}75.42%{transform:translate(688px,48px)}76.41%{transform:translate(640px,48px)}76.74%{transform:translate(640px,64px)}80.07%{transform:translate(784px,80px)}81.06%{transform:translate(800px,48px)}81.4%{transform:translate(816px,48px)}82.39%{transform:translate(816px,0px)}97.67%{transform:translate(80px,0px)}98.01%{transform:translate(80px,-16px)}}.s.s0{transform:translate(0px,-16px);animation-name:s0}@keyframes s1{0%,99.67%{transform:translate(16px,-16px)}0.33%{transform:translate(0px,-16px)}0.66%{transform:translate(0px,0px)}11.3%{transform:translate(512px,0px)}11.63%,55.48%{transform:translate(512px,16px)}11.96%{transform:translate(528px,16px)}12.29%{transform:translate(528px,32px)}13.29%{transform:translate(576px,32px)}13.95%{transform:translate(576px,64px)}16.28%{transform:translate(464px,64px)}16.61%{transform:translate(464px,80px)}20.6%{transform:translate(656px,80px)}22.26%{transform:translate(656px,0px)}24.58%,26.58%{transform:translate(768px,0px)}25.25%,34.55%{transform:translate(768px,32px)}25.58%{transform:translate(752px,32px)}25.91%{transform:translate(752px,16px)}26.25%,50.17%{transform:translate(768px,16px)}26.91%{transform:translate(784px,0px)}27.24%{transform:translate(784px,-16px)}28.57%,31.89%{transform:translate(848px,-16px)}29.57%,39.53%{transform:translate(848px,32px)}29.9%,39.87%{transform:translate(832px,32px)}30.23%{transform:translate(832px,48px)}30.56%{transform:translate(848px,48px)}33.55%{transform:translate(768px,-16px)}34.88%{transform:translate(784px,32px)}35.22%{transform:translate(784px,16px)}35.88%{transform:translate(816px,16px)}36.21%{transform:translate(816px,32px)}36.54%{transform:translate(800px,32px)}37.54%{transform:translate(800px,-16px)}38.21%{transform:translate(832px,-16px)}38.54%{transform:translate(832px,0px)}38.87%{transform:translate(848px,0px)}40.53%{transform:translate(832px,64px)}41.53%,80.07%{transform:translate(784px,64px)}41.86%{transform:translate(784px,48px)}42.52%{transform:translate(752px,48px)}43.19%{transform:translate(752px,80px)}43.52%{transform:translate(736px,80px)}43.85%{transform:translate(736px,64px)}45.18%{transform:translate(800px,64px)}45.51%,80.73%{transform:translate(800px,80px)}46.18%{transform:translate(832px,80px)}46.84%{transform:translate(832px,112px)}47.84%{transform:translate(784px,112px)}48.17%{transform:translate(784px,96px)}48.5%{transform:translate(768px,96px)}55.81%{transform:translate(512px,32px)}57.14%{transform:translate(448px,32px)}58.14%{transform:translate(448px,80px)}61.79%{transform:translate(624px,80px)}62.79%{transform:translate(624px,32px)}65.12%{transform:translate(736px,32px)}66.45%{transform:translate(736px,96px)}68.44%{transform:translate(832px,96px)}70.1%{transform:translate(832px,16px)}72.76%{transform:translate(704px,16px)}74.42%{transform:translate(704px,96px)}74.75%{transform:translate(688px,96px)}75.75%{transform:translate(688px,48px)}76.74%{transform:translate(640px,48px)}77.08%{transform:translate(640px,64px)}80.4%{transform:translate(784px,80px)}81.4%{transform:translate(800px,48px)}81.73%{transform:translate(816px,48px)}82.72%{transform:translate(816px,0px)}98.01%{transform:translate(80px,0px)}98.34%{transform:translate(80px,-16px)}}.s.s1{transform:translate(16px,-16px);animation-name:s1}@keyframes s2{0%,99.67%{transform:translate(32px,-16px)}0.66%{transform:translate(0px,-16px)}1%{transform:translate(0px,0px)}11.63%{transform:translate(512px,0px)}11.96%,55.81%{transform:translate(512px,16px)}12.29%{transform:translate(528px,16px)}12.62%{transform:translate(528px,32px)}13.62%{transform:translate(576px,32px)}14.29%{transform:translate(576px,64px)}16.61%{transform:translate(464px,64px)}16.94%{transform:translate(464px,80px)}20.93%{transform:translate(656px,80px)}22.59%{transform:translate(656px,0px)}24.92%,26.91%{transform:translate(768px,0px)}25.58%,34.88%{transform:translate(768px,32px)}25.91%{transform:translate(752px,32px)}26.25%{transform:translate(752px,16px)}26.58%,50.5%{transform:translate(768px,16px)}27.24%{transform:translate(784px,0px)}27.57%{transform:translate(784px,-16px)}28.9%,32.23%{transform:translate(848px,-16px)}29.9%,39.87%{transform:translate(848px,32px)}30.23%,40.2%{transform:translate(832px,32px)}30.56%{transform:translate(832px,48px)}30.9%{transform:translate(848px,48px)}33.89%{transform:translate(768px,-16px)}35.22%{transform:translate(784px,32px)}35.55%{transform:translate(784px,16px)}36.21%{transform:translate(816px,16px)}36.54%{transform:translate(816px,32px)}36.88%{transform:translate(800px,32px)}37.87%{transform:translate(800px,-16px)}38.54%{transform:translate(832px,-16px)}38.87%{transform:translate(832px,0px)}39.2%{transform:translate(848px,0px)}40.86%{transform:translate(832px,64px)}41.86%,80.4%{transform:translate(784px,64px)}42.19%{transform:translate(784px,48px)}42.86%{transform:translate(752px,48px)}43.52%{transform:translate(752px,80px)}43.85%{transform:translate(736px,80px)}44.19%{transform:translate(736px,64px)}45.51%{transform:translate(800px,64px)}45.85%,81.06%{transform:translate(800px,80px)}46.51%{transform:translate(832px,80px)}47.18%{transform:translate(832px,112px)}48.17%{transform:translate(784px,112px)}48.5%{transform:translate(784px,96px)}48.84%{transform:translate(768px,96px)}56.15%{transform:translate(512px,32px)}57.48%{transform:translate(448px,32px)}58.47%{transform:translate(448px,80px)}62.13%{transform:translate(624px,80px)}63.12%{transform:translate(624px,32px)}65.45%{transform:translate(736px,32px)}66.78%{transform:translate(736px,96px)}68.77%{transform:translate(832px,96px)}70.43%{transform:translate(832px,16px)}73.09%{transform:translate(704px,16px)}74.75%{transform:translate(704px,96px)}75.08%{transform:translate(688px,96px)}76.08%{transform:translate(688px,48px)}77.08%{transform:translate(640px,48px)}77.41%{transform:translate(640px,64px)}80.73%{transform:translate(784px,80px)}81.73%{transform:translate(800px,48px)}82.06%{transform:translate(816px,48px)}83.06%{transform:translate(816px,0px)}98.34%{transform:translate(80px,0px)}98.67%{transform:translate(80px,-16px)}}.s.s2{transform:translate(32px,-16px);animation-name:s2}@keyframes s3{0%,99.67%{transform:translate(48px,-16px)}1%{transform:translate(0px,-16px)}1.33%{transform:translate(0px,0px)}11.96%{transform:translate(512px,0px)}12.29%,56.15%{transform:translate(512px,16px)}12.62%{transform:translate(528px,16px)}12.96%{transform:translate(528px,32px)}13.95%{transform:translate(576px,32px)}14.62%{transform:translate(576px,64px)}16.94%{transform:translate(464px,64px)}17.28%{transform:translate(464px,80px)}21.26%{transform:translate(656px,80px)}22.92%{transform:translate(656px,0px)}25.25%,27.24%{transform:translate(768px,0px)}25.91%,35.22%{transform:translate(768px,32px)}26.25%{transform:translate(752px,32px)}26.58%{transform:translate(752px,16px)}26.91%,50.83%{transform:translate(768px,16px)}27.57%{transform:translate(784px,0px)}27.91%{transform:translate(784px,-16px)}29.24%,32.56%{transform:translate(848px,-16px)}30.23%,40.2%{transform:translate(848px,32px)}30.56%,40.53%{transform:translate(832px,32px)}30.9%{transform:translate(832px,48px)}31.23%{transform:translate(848px,48px)}34.22%{transform:translate(768px,-16px)}35.55%{transform:translate(784px,32px)}35.88%{transform:translate(784px,16px)}36.54%{transform:translate(816px,16px)}36.88%{transform:translate(816px,32px)}37.21%{transform:translate(800px,32px)}38.21%{transform:translate(800px,-16px)}38.87%{transform:translate(832px,-16px)}39.2%{transform:translate(832px,0px)}39.53%{transform:translate(848px,0px)}41.2%{transform:translate(832px,64px)}42.19%,80.73%{transform:translate(784px,64px)}42.52%{transform:translate(784px,48px)}43.19%{transform:translate(752px,48px)}43.85%{transform:translate(752px,80px)}44.19%{transform:translate(736px,80px)}44.52%{transform:translate(736px,64px)}45.85%{transform:translate(800px,64px)}46.18%,81.4%{transform:translate(800px,80px)}46.84%{transform:translate(832px,80px)}47.51%{transform:translate(832px,112px)}48.5%{transform:translate(784px,112px)}48.84%{transform:translate(784px,96px)}49.17%{transform:translate(768px,96px)}56.48%{transform:translate(512px,32px)}57.81%{transform:translate(448px,32px)}58.8%{transform:translate(448px,80px)}62.46%{transform:translate(624px,80px)}63.46%{transform:translate(624px,32px)}65.78%{transform:translate(736px,32px)}67.11%{transform:translate(736px,96px)}69.1%{transform:translate(832px,96px)}70.76%{transform:translate(832px,16px)}73.42%{transform:translate(704px,16px)}75.08%{transform:translate(704px,96px)}75.42%{transform:translate(688px,96px)}76.41%{transform:translate(688px,48px)}77.41%{transform:translate(640px,48px)}77.74%{transform:translate(640px,64px)}81.06%{transform:translate(784px,80px)}82.06%{transform:translate(800px,48px)}82.39%{transform:translate(816px,48px)}83.39%{transform:translate(816px,0px)}98.67%{transform:translate(80px,0px)}99%{transform:translate(80px,-16px)}}.s.s3{transform:translate(48px,-16px);animation-name:s3}</style><rect class="c" x="2" y="2" rx="2" ry="2"/><rect class="c" x="2" y="18" rx="2" ry="2"/><rect class="c" x="2" y="34" rx="2" ry="2"/><rect class="c" x="2" y="50" rx="2" ry="2"/><rect class="c" x="2" y="66" rx="2" ry="2"/><rect class="c" x="2" y="82" rx="2" ry="2"/><rect class="c" x="2" y="98" rx="2" ry="2"/><rect class="c" x="18" y="2" rx="2" ry="2"/><rect class="c" x="18" y="18" rx="2" ry="2"/><rect class="c" x="18" y="34" rx="2" ry="2"/><rect class="c" x="18" y="50" rx="2" ry="2"/><rect class="c" x="18" y="66" rx="2" ry="2"/><rect class="c" x="18" y="82" rx="2" ry="2"/><rect class="c" x="18" y="98" rx="2" ry="2"/><rect class="c" x="34" y="2" rx="2" ry="2"/><rect class="c" x="34" y="18" rx="2" ry="2"/><rect class="c" x="34" y="34" rx="2" ry="2"/><rect class="c" x="34" y="50" rx="2" ry="2"/><rect class="c" x="34" y="66" rx="2" ry="2"/><rect class="c" x="34" y="82" rx="2" ry="2"/><rect class="c" x="34" y="98" rx="2" ry="2"/><rect class="c" x="50" y="2" rx="2" ry="2"/><rect class="c" x="50" y="18" rx="2" ry="2"/><rect class="c" x="50" y="34" rx="2" ry="2"/><rect class="c" x="50" y="50" rx="2" ry="2"/><rect class="c" x="50" y="66" rx="2" ry="2"/><rect class="c" x="50" y="82" rx="2" ry="2"/><rect class="c" x="50" y="98" rx="2" ry="2"/><rect class="c" x="66" y="2" rx="2" ry="2"/><rect class="c" x="66" y="18" rx="2" ry="2"/><rect class="c" x="66" y="34" rx="2" ry="2"/><rect class="c" x="66" y="50" rx="2" ry="2"/><rect class="c" x="66" y="66" rx="2" ry="2"/><rect class="c" x="66" y="82" rx="2" ry="2"/><rect class="c" x="66" y="98" rx="2" ry="2"/><rect class="c" x="82" y="2" rx="2" ry="2"/><rect class="c" x="82" y="18" rx="2" ry="2"/><rect class="c" x="82" y="34" rx="2" ry="2"/><rect class="c" x="82" y="50" rx="2" ry="2"/><rect class="c" x="82" y="66" rx="2" ry="2"/><rect class="c" x="82" y="82" rx="2" ry="2"/><rect class="c" x="82" y="98" rx="2" ry="2"/><rect class="c" x="98" y="2" rx="2" ry="2"/><rect class="c" x="98" y="18" rx="2" ry="2"/><rect class="c" x="98" y="34" rx="2" ry="2"/><rect class="c" x="98" y="50" rx="2" ry="2"/><rect class="c" x="98" y="66" rx="2" ry="2"/><rect class="c" x="98" y="82" rx="2" ry="2"/><rect class="c" x="98" y="98" rx="2" ry="2"/><rect class="c" x="114" y="2" rx="2" ry="2"/><rect class="c" x="114" y="18" rx="2" ry="2"/><rect class="c" x="114" y="34" rx="2" ry="2"/><rect class="c" x="114" y="50" rx="2" ry="2"/><rect class="c" x="114" y="66" rx="2" ry="2"/><rect class="c" x="114" y="82" rx="2" ry="2"/><rect class="c" x="114" y="98" rx="2" ry="2"/><rect class="c" x="130" y="2" rx="2" ry="2"/><rect class="c" x="130" y="18" rx="2" ry="2"/><rect class="c" x="130" y="34" rx="2" ry="2"/><rect class="c" x="130" y="50" rx="2" ry="2"/><rect class="c" x="130" y="66" rx="2" ry="2"/><rect class="c" x="130" y="82" rx="2" ry="2"/><rect class="c" x="130" y="98" rx="2" ry="2"/><rect class="c" x="146" y="2" rx="2" ry="2"/><rect class="c" x="146" y="18" rx="2" ry="2"/><rect class="c" x="146" y="34" rx="2" ry="2"/><rect class="c" x="146" y="50" rx="2" ry="2"/><rect class="c" x="146" y="66" rx="2" ry="2"/><rect class="c" x="146" y="82" rx="2" ry="2"/><rect class="c" x="146" y="98" rx="2" ry="2"/><rect class="c" x="162" y="2" rx="2" ry="2"/><rect class="c" x="162" y="18" rx="2" ry="2"/><rect class="c" x="162" y="34" rx="2" ry="2"/><rect class="c" x="162" y="50" rx="2" ry="2"/><rect class="c" x="162" y="66" rx="2" ry="2"/><rect class="c" x="162" y="82" rx="2" ry="2"/><rect class="c" x="162" y="98" rx="2" ry="2"/><rect class="c" x="178" y="2" rx="2" ry="2"/><rect class="c" x="178" y="18" rx="2" ry="2"/><rect class="c" x="178" y="34" rx="2" ry="2"/><rect class="c" x="178" y="50" rx="2" ry="2"/><rect class="c" x="178" y="66" rx="2" ry="2"/><rect class="c" x="178" y="82" rx="2" ry="2"/><rect class="c" x="178" y="98" rx="2" ry="2"/><rect class="c" x="194" y="2" rx="2" ry="2"/><rect class="c" x="194" y="18" rx="2" ry="2"/><rect class="c" x="194" y="34" rx="2" ry="2"/><rect class="c" x="194" y="50" rx="2" ry="2"/><rect class="c" x="194" y="66" rx="2" ry="2"/><rect class="c" x="194" y="82" rx="2" ry="2"/><rect class="c" x="194" y="98" rx="2" ry="2"/><rect class="c" x="210" y="2" rx="2" ry="2"/><rect class="c" x="210" y="18" rx="2" ry="2"/><rect class="c" x="210" y="34" rx="2" ry="2"/><rect class="c" x="210" y="50" rx="2" ry="2"/><rect class="c" x="210" y="66" rx="2" ry="2"/><rect class="c" x="210" y="82" rx="2" ry="2"/><rect class="c" x="210" y="98" rx="2" ry="2"/><rect class="c" x="226" y="2" rx="2" ry="2"/><rect class="c" x="226" y="18" rx="2" ry="2"/><rect class="c" x="226" y="34" rx="2" ry="2"/><rect class="c" x="226" y="50" rx="2" ry="2"/><rect class="c" x="226" y="66" rx="2" ry="2"/><rect class="c" x="226" y="82" rx="2" ry="2"/><rect class="c" x="226" y="98" rx="2" ry="2"/><rect class="c" x="242" y="2" rx="2" ry="2"/><rect class="c" x="242" y="18" rx="2" ry="2"/><rect class="c" x="242" y="34" rx="2" ry="2"/><rect class="c" x="242" y="50" rx="2" ry="2"/><rect class="c" x="242" y="66" rx="2" ry="2"/><rect class="c" x="242" y="82" rx="2" ry="2"/><rect class="c" x="242" y="98" rx="2" ry="2"/><rect class="c" x="258" y="2" rx="2" ry="2"/><rect class="c" x="258" y="18" rx="2" ry="2"/><rect class="c" x="258" y="34" rx="2" ry="2"/><rect class="c" x="258" y="50" rx="2" ry="2"/><rect class="c" x="258" y="66" rx="2" ry="2"/><rect class="c" x="258" y="82" rx="2" ry="2"/><rect class="c" x="258" y="98" rx="2" ry="2"/><rect class="c" x="274" y="2" rx="2" ry="2"/><rect class="c" x="274" y="18" rx="2" ry="2"/><rect class="c" x="274" y="34" rx="2" ry="2"/><rect class="c" x="274" y="50" rx="2" ry="2"/><rect class="c" x="274" y="66" rx="2" ry="2"/><rect class="c" x="274" y="82" rx="2" ry="2"/><rect class="c" x="274" y="98" rx="2" ry="2"/><rect class="c" x="290" y="2" rx="2" ry="2"/><rect class="c" x="290" y="18" rx="2" ry="2"/><rect class="c" x="290" y="34" rx="2" ry="2"/><rect class="c" x="290" y="50" rx="2" ry="2"/><rect class="c" x="290" y="66" rx="2" ry="2"/><rect class="c" x="290" y="82" rx="2" ry="2"/><rect class="c" x="290" y="98" rx="2" ry="2"/><rect class="c" x="306" y="2" rx="2" ry="2"/><rect class="c" x="306" y="18" rx="2" ry="2"/><rect class="c" x="306" y="34" rx="2" ry="2"/><rect class="c" x="306" y="50" rx="2" ry="2"/><rect class="c" x="306" y="66" rx="2" ry="2"/><rect class="c" x="306" y="82" rx="2" ry="2"/><rect class="c" x="306" y="98" rx="2" ry="2"/><rect class="c" x="322" y="2" rx="2" ry="2"/><rect class="c" x="322" y="18" rx="2" ry="2"/><rect class="c" x="322" y="34" rx="2" ry="2"/><rect class="c" x="322" y="50" rx="2" ry="2"/><rect class="c" x="322" y="66" rx="2" ry="2"/><rect class="c" x="322" y="82" rx="2" ry="2"/><rect class="c" x="322" y="98" rx="2" ry="2"/><rect class="c" x="338" y="2" rx="2" ry="2"/><rect class="c" x="338" y="18" rx="2" ry="2"/><rect class="c" x="338" y="34" rx="2" ry="2"/><rect class="c" x="338" y="50" rx="2" ry="2"/><rect class="c" x="338" y="66" rx="2" ry="2"/><rect class="c" x="338" y="82" rx="2" ry="2"/><rect class="c" x="338" y="98" rx="2" ry="2"/><rect class="c" x="354" y="2" rx="2" ry="2"/><rect class="c" x="354" y="18" rx="2" ry="2"/><rect class="c" x="354" y="34" rx="2" ry="2"/><rect class="c" x="354" y="50" rx="2" ry="2"/><rect class="c" x="354" y="66" rx="2" ry="2"/><rect class="c" x="354" y="82" rx="2" ry="2"/><rect class="c" x="354" y="98" rx="2" ry="2"/><rect class="c" x="370" y="2" rx="2" ry="2"/><rect class="c" x="370" y="18" rx="2" ry="2"/><rect class="c" x="370" y="34" rx="2" ry="2"/><rect class="c" x="370" y="50" rx="2" ry="2"/><rect class="c" x="370" y="66" rx="2" ry="2"/><rect class="c" x="370" y="82" rx="2" ry="2"/><rect class="c" x="370" y="98" rx="2" ry="2"/><rect class="c" x="386" y="2" rx="2" ry="2"/><rect class="c" x="386" y="18" rx="2" ry="2"/><rect class="c" x="386" y="34" rx="2" ry="2"/><rect class="c" x="386" y="50" rx="2" ry="2"/><rect class="c" x="386" y="66" rx="2" ry="2"/><rect class="c" x="386" y="82" rx="2" ry="2"/><rect class="c" x="386" y="98" rx="2" ry="2"/><rect class="c" x="402" y="2" rx="2" ry="2"/><rect class="c" x="402" y="18" rx="2" ry="2"/><rect class="c" x="402" y="34" rx="2" ry="2"/><rect class="c" x="402" y="50" rx="2" ry="2"/><rect class="c" x="402" y="66" rx="2" ry="2"/><rect class="c" x="402" y="82" rx="2" ry="2"/><rect class="c" x="402" y="98" rx="2" ry="2"/><rect class="c" x="418" y="2" rx="2" ry="2"/><rect class="c" x="418" y="18" rx="2" ry="2"/><rect class="c" x="418" y="34" rx="2" ry="2"/><rect class="c" x="418" y="50" rx="2" ry="2"/><rect class="c" x="418" y="66" rx="2" ry="2"/><rect class="c" x="418" y="82" rx="2" ry="2"/><rect class="c" x="418" y="98" rx="2" ry="2"/><rect class="c" x="434" y="2" rx="2" ry="2"/><rect class="c" x="434" y="18" rx="2" ry="2"/><rect class="c" x="434" y="34" rx="2" ry="2"/><rect class="c" x="434" y="50" rx="2" ry="2"/><rect class="c" x="434" y="66" rx="2" ry="2"/><rect class="c" x="434" y="82" rx="2" ry="2"/><rect class="c" x="434" y="98" rx="2" ry="2"/><rect class="c" x="450" y="2" rx="2" ry="2"/><rect class="c" x="450" y="18" rx="2" ry="2"/><rect class="c" x="450" y="34" rx="2" ry="2"/><rect class="c" x="450" y="50" rx="2" ry="2"/><rect class="c" x="450" y="66" rx="2" ry="2"/><rect class="c c0" x="450" y="82" rx="2" ry="2"/><rect class="c" x="450" y="98" rx="2" ry="2"/><rect class="c" x="466" y="2" rx="2" ry="2"/><rect class="c" x="466" y="18" rx="2" ry="2"/><rect class="c" x="466" y="34" rx="2" ry="2"/><rect class="c" x="466" y="50" rx="2" ry="2"/><rect class="c" x="466" y="66" rx="2" ry="2"/><rect class="c c1" x="466" y="82" rx="2" ry="2"/><rect class="c" x="466" y="98" rx="2" ry="2"/><rect class="c" x="482" y="2" rx="2" ry="2"/><rect class="c" x="482" y="18" rx="2" ry="2"/><rect class="c" x="482" y="34" rx="2" ry="2"/><rect class="c" x="482" y="50" rx="2" ry="2"/><rect class="c" x="482" y="66" rx="2" ry="2"/><rect class="c" x="482" y="82" rx="2" ry="2"/><rect class="c" x="482" y="98" rx="2" ry="2"/><rect class="c" x="498" y="2" rx="2" ry="2"/><rect class="c" x="498" y="18" rx="2" ry="2"/><rect class="c" x="498" y="34" rx="2" ry="2"/><rect class="c" x="498" y="50" rx="2" ry="2"/><rect class="c" x="498" y="66" rx="2" ry="2"/><rect class="c" x="498" y="82" rx="2" ry="2"/><rect class="c" x="498" y="98" rx="2" ry="2"/><rect class="c" x="514" y="2" rx="2" ry="2"/><rect class="c c2" x="514" y="18" rx="2" ry="2"/><rect class="c c3" x="514" y="34" rx="2" ry="2"/><rect class="c" x="514" y="50" rx="2" ry="2"/><rect class="c" x="514" y="66" rx="2" ry="2"/><rect class="c" x="514" y="82" rx="2" ry="2"/><rect class="c" x="514" y="98" rx="2" ry="2"/><rect class="c" x="530" y="2" rx="2" ry="2"/><rect class="c c4" x="530" y="18" rx="2" ry="2"/><rect class="c c5" x="530" y="34" rx="2" ry="2"/><rect class="c" x="530" y="50" rx="2" ry="2"/><rect class="c" x="530" y="66" rx="2" ry="2"/><rect class="c" x="530" y="82" rx="2" ry="2"/><rect class="c" x="530" y="98" rx="2" ry="2"/><rect class="c" x="546" y="2" rx="2" ry="2"/><rect class="c" x="546" y="18" rx="2" ry="2"/><rect class="c" x="546" y="34" rx="2" ry="2"/><rect class="c" x="546" y="50" rx="2" ry="2"/><rect class="c" x="546" y="66" rx="2" ry="2"/><rect class="c" x="546" y="82" rx="2" ry="2"/><rect class="c" x="546" y="98" rx="2" ry="2"/><rect class="c" x="562" y="2" rx="2" ry="2"/><rect class="c" x="562" y="18" rx="2" ry="2"/><rect class="c" x="562" y="34" rx="2" ry="2"/><rect class="c" x="562" y="50" rx="2" ry="2"/><rect class="c" x="562" y="66" rx="2" ry="2"/><rect class="c" x="562" y="82" rx="2" ry="2"/><rect class="c" x="562" y="98" rx="2" ry="2"/><rect class="c" x="578" y="2" rx="2" ry="2"/><rect class="c" x="578" y="18" rx="2" ry="2"/><rect class="c" x="578" y="34" rx="2" ry="2"/><rect class="c c6" x="578" y="50" rx="2" ry="2"/><rect class="c c7" x="578" y="66" rx="2" ry="2"/><rect class="c" x="578" y="82" rx="2" ry="2"/><rect class="c" x="578" y="98" rx="2" ry="2"/><rect class="c" x="594" y="2" rx="2" ry="2"/><rect class="c" x="594" y="18" rx="2" ry="2"/><rect class="c" x="594" y="34" rx="2" ry="2"/><rect class="c" x="594" y="50" rx="2" ry="2"/><rect class="c" x="594" y="66" rx="2" ry="2"/><rect class="c" x="594" y="82" rx="2" ry="2"/><rect class="c" x="594" y="98" rx="2" ry="2"/><rect class="c" x="610" y="2" rx="2" ry="2"/><rect class="c" x="610" y="18" rx="2" ry="2"/><rect class="c" x="610" y="34" rx="2" ry="2"/><rect class="c" x="610" y="50" rx="2" ry="2"/><rect class="c" x="610" y="66" rx="2" ry="2"/><rect class="c" x="610" y="82" rx="2" ry="2"/><rect class="c" x="610" y="98" rx="2" ry="2"/><rect class="c" x="626" y="2" rx="2" ry="2"/><rect class="c" x="626" y="18" rx="2" ry="2"/><rect class="c c8" x="626" y="34" rx="2" ry="2"/><rect class="c" x="626" y="50" rx="2" ry="2"/><rect class="c" x="626" y="66" rx="2" ry="2"/><rect class="c" x="626" y="82" rx="2" ry="2"/><rect class="c" x="626" y="98" rx="2" ry="2"/><rect class="c" x="642" y="2" rx="2" ry="2"/><rect class="c" x="642" y="18" rx="2" ry="2"/><rect class="c c9" x="642" y="34" rx="2" ry="2"/><rect class="c ca" x="642" y="50" rx="2" ry="2"/><rect class="c" x="642" y="66" rx="2" ry="2"/><rect class="c" x="642" y="82" rx="2" ry="2"/><rect class="c" x="642" y="98" rx="2" ry="2"/><rect class="c cb" x="658" y="2" rx="2" ry="2"/><rect class="c" x="658" y="18" rx="2" ry="2"/><rect class="c" x="658" y="34" rx="2" ry="2"/><rect class="c" x="658" y="50" rx="2" ry="2"/><rect class="c" x="658" y="66" rx="2" ry="2"/><rect class="c" x="658" y="82" rx="2" ry="2"/><rect class="c" x="658" y="98" rx="2" ry="2"/><rect class="c" x="674" y="2" rx="2" ry="2"/><rect class="c" x="674" y="18" rx="2" ry="2"/><rect class="c" x="674" y="34" rx="2" ry="2"/><rect class="c" x="674" y="50" rx="2" ry="2"/><rect class="c" x="674" y="66" rx="2" ry="2"/><rect class="c" x="674" y="82" rx="2" ry="2"/><rect class="c" x="674" y="98" rx="2" ry="2"/><rect class="c" x="690" y="2" rx="2" ry="2"/><rect class="c" x="690" y="18" rx="2" ry="2"/><rect class="c" x="690" y="34" rx="2" ry="2"/><rect class="c" x="690" y="50" rx="2" ry="2"/><rect class="c" x="690" y="66" rx="2" ry="2"/><rect class="c cc" x="690" y="82" rx="2" ry="2"/><rect class="c cd" x="690" y="98" rx="2" ry="2"/><rect class="c" x="706" y="2" rx="2" ry="2"/><rect class="c ce" x="706" y="18" rx="2" ry="2"/><rect class="c" x="706" y="34" rx="2" ry="2"/><rect class="c" x="706" y="50" rx="2" ry="2"/><rect class="c" x="706" y="66" rx="2" ry="2"/><rect class="c" x="706" y="82" rx="2" ry="2"/><rect class="c" x="706" y="98" rx="2" ry="2"/><rect class="c" x="722" y="2" rx="2" ry="2"/><rect class="c" x="722" y="18" rx="2" ry="2"/><rect class="c" x="722" y="34" rx="2" ry="2"/><rect class="c" x="722" y="50" rx="2" ry="2"/><rect class="c" x="722" y="66" rx="2" ry="2"/><rect class="c" x="722" y="82" rx="2" ry="2"/><rect class="c" x="722" y="98" rx="2" ry="2"/><rect class="c" x="738" y="2" rx="2" ry="2"/><rect class="c" x="738" y="18" rx="2" ry="2"/><rect class="c cf" x="738" y="34" rx="2" ry="2"/><rect class="c" x="738" y="50" rx="2" ry="2"/><rect class="c" x="738" y="66" rx="2" ry="2"/><rect class="c cg" x="738" y="82" rx="2" ry="2"/><rect class="c ch" x="738" y="98" rx="2" ry="2"/><rect class="c" x="754" y="2" rx="2" ry="2"/><rect class="c" x="754" y="18" rx="2" ry="2"/><rect class="c" x="754" y="34" rx="2" ry="2"/><rect class="c" x="754" y="50" rx="2" ry="2"/><rect class="c" x="754" y="66" rx="2" ry="2"/><rect class="c ci" x="754" y="82" rx="2" ry="2"/><rect class="c cj" x="754" y="98" rx="2" ry="2"/><rect class="c" x="770" y="2" rx="2" ry="2"/><rect class="c" x="770" y="18" rx="2" ry="2"/><rect class="c ck" x="770" y="34" rx="2" ry="2"/><rect class="c cl" x="770" y="50" rx="2" ry="2"/><rect class="c" x="770" y="66" rx="2" ry="2"/><rect class="c" x="770" y="82" rx="2" ry="2"/><rect class="c" x="770" y="98" rx="2" ry="2"/><rect class="c" x="786" y="2" rx="2" ry="2"/><rect class="c cm" x="786" y="18" rx="2" ry="2"/><rect class="c cn" x="786" y="34" rx="2" ry="2"/><rect class="c co" x="786" y="50" rx="2" ry="2"/><rect class="c cp" x="786" y="66" rx="2" ry="2"/><rect class="c cq" x="786" y="82" rx="2" ry="2"/><rect class="c cr" x="786" y="98" rx="2" ry="2"/><rect class="c cs" x="802" y="2" rx="2" ry="2"/><rect class="c ct" x="802" y="18" rx="2" ry="2"/><rect class="c cu" x="802" y="34" rx="2" ry="2"/><rect class="c cv" x="802" y="50" rx="2" ry="2"/><rect class="c cw" x="802" y="66" rx="2" ry="2"/><rect class="c cx" x="802" y="82" rx="2" ry="2"/><rect class="c cy" x="802" y="98" rx="2" ry="2"/><rect class="c cz" x="818" y="2" rx="2" ry="2"/><rect class="c c10" x="818" y="18" rx="2" ry="2"/><rect class="c c11" x="818" y="34" rx="2" ry="2"/><rect class="c c12" x="818" y="50" rx="2" ry="2"/><rect class="c c13" x="818" y="66" rx="2" ry="2"/><rect class="c c14" x="818" y="82" rx="2" ry="2"/><rect class="c c15" x="818" y="98" rx="2" ry="2"/><rect class="c c16" x="834" y="2" rx="2" ry="2"/><rect class="c c17" x="834" y="18" rx="2" ry="2"/><rect class="c c18" x="834" y="34" rx="2" ry="2"/><rect class="u u0" height="12" width="189.0" x="0.0" y="144"/><rect class="u u1" height="12" width="377.5" x="188.4" y="144"/><rect class="u u2" height="12" width="170.2" x="565.3" y="144"/><rect class="u u3" height="12" width="113.7" x="734.9" y="144"/><rect class="s s0" x="0.8" y="0.8" width="14.4" height="14.4" rx="4.5" ry="4.5"/><rect class="s s1" x="1.8" y="1.8" width="12.3" height="12.3" rx="4.1" ry="4.1"/><rect class="s s2" x="2.6" y="2.6" width="10.8" height="10.8" rx="3.6" ry="3.6"/><rect class="s s3" x="3.0" y="3.0" width="9.9" height="9.9" rx="3.3" ry="3.3"/></svg>