<svg viewBox="-16 -32 880 192" width="880" height="192" xmlns="http://www.w3.org/2000/svg"><desc>Generated with https://github.com/Platane/snk</desc><style>:root{--cb:#1b1f230a;--cs:764ba2;--ce:#ebedf0;--c0:#ebedf0;--c1:#9be9a8;--c2:#40c463;--c3:#30a14e;--c4:#216e39}.c{shape-rendering:geometricPrecision;fill:var(--ce);stroke-width:1px;stroke:var(--cb);animation:none 27700ms linear infinite;width:12px;height:12px}@keyframes c0{54.14%{fill:var(--c2)}54.16%,100%{fill:var(--ce)}}.c.c0{fill:var(--c2);animation-name:c0}@keyframes c1{17.68%{fill:var(--c1)}17.7%,100%{fill:var(--ce)}}.c.c1{fill:var(--c1);animation-name:c1}@keyframes c2{12.26%{fill:var(--c1)}12.28%,100%{fill:var(--ce)}}.c.c2{fill:var(--c1);animation-name:c2}@keyframes c3{51.61%{fill:var(--c2)}51.63%,100%{fill:var(--ce)}}.c.c3{fill:var(--c2);animation-name:c3}@keyframes c4{12.63%{fill:var(--c1)}12.65%,100%{fill:var(--ce)}}.c.c4{fill:var(--c1);animation-name:c4}@keyframes c5{12.99%{fill:var(--c1)}13.01%,100%{fill:var(--ce)}}.c.c5{fill:var(--c1);animation-name:c5}@keyframes c6{14.43%{fill:var(--c1)}14.45%,100%{fill:var(--ce)}}.c.c6{fill:var(--c1);animation-name:c6}@keyframes c7{14.79%{fill:var(--c1)}14.81%,100%{fill:var(--ce)}}.c.c7{fill:var(--c1);animation-name:c7}@keyframes c8{59.2%{fill:var(--c3)}59.22%,100%{fill:var(--ce)}}.c.c8{fill:var(--c3);animation-name:c8}@keyframes c9{59.56%{fill:var(--c3)}59.58%,100%{fill:var(--ce)}}.c.c9{fill:var(--c3);animation-name:c9}@keyframes ca{74.36%{fill:var(--c4)}74.38%,100%{fill:var(--ce)}}.c.ca{fill:var(--c4);animation-name:ca}@keyframes cb{23.82%{fill:var(--c1)}23.84%,100%{fill:var(--ce)}}.c.cb{fill:var(--c1);animation-name:cb}@keyframes cc{72.55%{fill:var(--c4)}72.57%,100%{fill:var(--ce)}}.c.cc{fill:var(--c4);animation-name:cc}@keyframes cd{72.19%{fill:var(--c3)}72.21%,100%{fill:var(--ce)}}.c.cd{fill:var(--c3);animation-name:cd}@keyframes ce{46.92%{fill:var(--c2)}46.94%,100%{fill:var(--ce)}}.c.ce{fill:var(--c2);animation-name:ce}@keyframes cf{61.72%{fill:var(--c3)}61.74%,100%{fill:var(--ce)}}.c.cf{fill:var(--c3);animation-name:cf}@keyframes cg{40.42%{fill:var(--c2)}40.44%,100%{fill:var(--ce)}}.c.cg{fill:var(--c2);animation-name:cg}@keyframes ch{63.17%{fill:var(--c3)}63.19%,100%{fill:var(--ce)}}.c.ch{fill:var(--c3);animation-name:ch}@keyframes ci{40.06%{fill:var(--c2)}40.08%,100%{fill:var(--ce)}}.c.ci{fill:var(--c2);animation-name:ci}@keyframes cj{63.53%{fill:var(--c3)}63.55%,100%{fill:var(--ce)}}.c.cj{fill:var(--c3);animation-name:cj}@keyframes ck{27.07%{fill:var(--c1)}27.09%,100%{fill:var(--ce)}}.c.ck{fill:var(--c1);animation-name:ck}@keyframes cl{31.76%{fill:var(--c2)}31.78%,100%{fill:var(--ce)}}.c.cl{fill:var(--c2);animation-name:cl}@keyframes cm{27.79%{fill:var(--c2)}27.81%,100%{fill:var(--ce)}}.c.cm{fill:var(--c2);animation-name:cm}@keyframes cn{27.43%{fill:var(--c1)}27.45%,100%{fill:var(--ce)}}.c.cn{fill:var(--c1);animation-name:cn}@keyframes co{31.4%{fill:var(--c2)}31.42%,100%{fill:var(--ce)}}.c.co{fill:var(--c2);animation-name:co}@keyframes cp{31.04%{fill:var(--c2)}31.06%,100%{fill:var(--ce)}}.c.cp{fill:var(--c2);animation-name:cp}@keyframes cq{78.33%{fill:var(--c4)}78.35%,100%{fill:var(--ce)}}.c.cq{fill:var(--c4);animation-name:cq}@keyframes cr{42.59%{fill:var(--c2)}42.61%,100%{fill:var(--ce)}}.c.cr{fill:var(--c2);animation-name:cr}@keyframes cs{33.56%{fill:var(--c2)}33.58%,100%{fill:var(--ce)}}.c.cs{fill:var(--c2);animation-name:cs}@keyframes ct{28.15%{fill:var(--c2)}28.17%,100%{fill:var(--ce)}}.c.ct{fill:var(--c2);animation-name:ct}@keyframes cu{32.84%{fill:var(--c2)}32.86%,100%{fill:var(--ce)}}.c.cu{fill:var(--c2);animation-name:cu}@keyframes cv{79.41%{fill:var(--c4)}79.43%,100%{fill:var(--ce)}}.c.cv{fill:var(--c4);animation-name:cv}@keyframes cw{30.68%{fill:var(--c2)}30.7%,100%{fill:var(--ce)}}.c.cw{fill:var(--c2);animation-name:cw}@keyframes cx{38.26%{fill:var(--c2)}38.28%,100%{fill:var(--ce)}}.c.cx{fill:var(--c2);animation-name:cx}@keyframes cy{64.61%{fill:var(--c3)}64.63%,100%{fill:var(--ce)}}.c.cy{fill:var(--c3);animation-name:cy}@keyframes cz{80.86%{fill:var(--c4)}80.88%,100%{fill:var(--ce)}}.c.cz{fill:var(--c4);animation-name:cz}@keyframes c10{28.51%{fill:var(--c2)}28.53%,100%{fill:var(--ce)}}.c.c10{fill:var(--c2);animation-name:c10}@keyframes c11{28.87%{fill:var(--c2)}28.89%,100%{fill:var(--ce)}}.c.c11{fill:var(--c2);animation-name:c11}@keyframes c12{79.77%{fill:var(--c4)}79.79%,100%{fill:var(--ce)}}.c.c12{fill:var(--c4);animation-name:c12}@keyframes c13{30.31%{fill:var(--c2)}30.33%,100%{fill:var(--ce)}}.c.c13{fill:var(--c2);animation-name:c13}@keyframes c14{37.9%{fill:var(--c2)}37.92%,100%{fill:var(--ce)}}.c.c14{fill:var(--c2);animation-name:c14}@keyframes c15{64.97%{fill:var(--c3)}64.99%,100%{fill:var(--ce)}}.c.c15{fill:var(--c3);animation-name:c15}@keyframes c16{35.01%{fill:var(--c2)}35.03%,100%{fill:var(--ce)}}.c.c16{fill:var(--c2);animation-name:c16}@keyframes c17{67.14%{fill:var(--c3)}67.16%,100%{fill:var(--ce)}}.c.c17{fill:var(--c3);animation-name:c17}@keyframes c18{29.23%{fill:var(--c2)}29.25%,100%{fill:var(--ce)}}.c.c18{fill:var(--c2);animation-name:c18}.u{transform-origin:0 0;transform:scale(0,1);animation:none linear 27700ms infinite}@keyframes u0{12.26%{transform:scale(0.000,1)}12.28%,12.63%{transform:scale(0.111,1)}12.65%,12.99%{transform:scale(0.222,1)}13.01%,14.43%{transform:scale(0.333,1)}14.45%,14.79%{transform:scale(0.444,1)}14.81%,17.68%{transform:scale(0.556,1)}17.7%,23.82%{transform:scale(0.667,1)}23.84%,27.07%{transform:scale(0.778,1)}27.09%,27.43%{transform:scale(0.889,1)}27.45%,100%{transform:scale(1.000,1)}}.u.u0{fill:var(--c1);animation-name:u0;transform-origin:0.0px 0}@keyframes u1{27.79%{transform:scale(0.000,1)}27.81%,28.15%{transform:scale(0.048,1)}28.17%,28.51%{transform:scale(0.095,1)}28.53%,28.87%{transform:scale(0.143,1)}28.89%,29.23%{transform:scale(0.190,1)}29.25%,30.31%{transform:scale(0.238,1)}30.33%,30.68%{transform:scale(0.286,1)}30.7%,31.04%{transform:scale(0.333,1)}31.06%,31.4%{transform:scale(0.381,1)}31.42%,31.76%{transform:scale(0.429,1)}31.78%,32.84%{transform:scale(0.476,1)}32.86%,33.56%{transform:scale(0.524,1)}33.58%,35.01%{transform:scale(0.571,1)}35.03%,37.9%{transform:scale(0.619,1)}37.92%,38.26%{transform:scale(0.667,1)}38.28%,40.06%{transform:scale(0.714,1)}40.08%,40.42%{transform:scale(0.762,1)}40.44%,42.59%{transform:scale(0.810,1)}42.61%,46.92%{transform:scale(0.857,1)}46.94%,51.61%{transform:scale(0.905,1)}51.63%,54.14%{transform:scale(0.952,1)}54.16%,100%{transform:scale(1.000,1)}}.u.u1{fill:var(--c2);animation-name:u1;transform-origin:169.6px 0}@keyframes u2{59.2%{transform:scale(0.000,1)}59.22%,59.56%{transform:scale(0.111,1)}59.58%,61.72%{transform:scale(0.222,1)}61.74%,63.17%{transform:scale(0.333,1)}63.19%,63.53%{transform:scale(0.444,1)}63.55%,64.61%{transform:scale(0.556,1)}64.63%,64.97%{transform:scale(0.667,1)}64.99%,67.14%{transform:scale(0.778,1)}67.16%,72.19%{transform:scale(0.889,1)}72.21%,100%{transform:scale(1.000,1)}}.u.u2{fill:var(--c3);animation-name:u2;transform-origin:565.3px 0}@keyframes u3{72.55%{transform:scale(0.000,1)}72.57%,74.36%{transform:scale(0.167,1)}74.38%,78.33%{transform:scale(0.333,1)}78.35%,79.41%{transform:scale(0.500,1)}79.43%,79.77%{transform:scale(0.667,1)}79.79%,80.86%{transform:scale(0.833,1)}80.88%,100%{transform:scale(1.000,1)}}.u.u3{fill:var(--c4);animation-name:u3;transform-origin:734.9px 0}.s{shape-rendering:geometricPrecision;fill:var(--cs);animation:none linear 27700ms infinite}@keyframes s0{0%,99.64%{transform:translate(0px,-16px)}0.36%{transform:translate(0px,0px)}11.91%{transform:translate(512px,0px)}12.27%,51.26%{transform:translate(512px,16px)}12.64%{transform:translate(528px,16px)}13%{transform:translate(528px,32px)}14.08%{transform:translate(576px,32px)}14.8%{transform:translate(576px,64px)}17.33%{transform:translate(464px,64px)}17.69%{transform:translate(464px,80px)}22.02%{transform:translate(656px,80px)}23.83%{transform:translate(656px,0px)}26.35%{transform:translate(768px,0px)}27.08%,32.13%{transform:translate(768px,32px)}27.44%{transform:translate(784px,32px)}27.8%{transform:translate(784px,16px)}28.52%{transform:translate(816px,16px)}28.88%{transform:translate(816px,32px)}29.24%,36.46%{transform:translate(832px,32px)}29.96%,37.18%{transform:translate(832px,64px)}31.05%,77.98%{transform:translate(784px,64px)}31.41%{transform:translate(784px,48px)}31.77%{transform:translate(768px,48px)}32.85%{transform:translate(800px,32px)}33.94%{transform:translate(800px,-16px)}34.66%{transform:translate(832px,-16px)}35.02%{transform:translate(832px,0px)}35.38%{transform:translate(848px,0px)}36.1%{transform:translate(848px,32px)}37.55%{transform:translate(816px,64px)}37.91%{transform:translate(816px,80px)}38.27%,78.7%{transform:translate(800px,80px)}38.63%{transform:translate(800px,64px)}39.71%{transform:translate(752px,64px)}40.07%{transform:translate(752px,80px)}40.43%{transform:translate(736px,80px)}40.79%{transform:translate(736px,64px)}41.52%{transform:translate(768px,64px)}42.24%{transform:translate(768px,96px)}42.6%{transform:translate(784px,96px)}42.96%{transform:translate(784px,112px)}43.32%{transform:translate(768px,112px)}45.49%{transform:translate(768px,16px)}51.62%{transform:translate(512px,32px)}53.07%{transform:translate(448px,32px)}54.15%{transform:translate(448px,80px)}58.12%{transform:translate(624px,80px)}59.21%{transform:translate(624px,32px)}61.73%{transform:translate(736px,32px)}63.18%{transform:translate(736px,96px)}65.34%{transform:translate(832px,96px)}67.15%{transform:translate(832px,16px)}70.04%{transform:translate(704px,16px)}71.84%{transform:translate(704px,96px)}72.2%{transform:translate(688px,96px)}73.29%{transform:translate(688px,48px)}74.37%{transform:translate(640px,48px)}74.73%{transform:translate(640px,64px)}78.34%{transform:translate(784px,80px)}79.42%{transform:translate(800px,48px)}79.78%{transform:translate(816px,48px)}80.87%{transform:translate(816px,0px)}97.47%{transform:translate(80px,0px)}97.83%{transform:translate(80px,-16px)}}.s.s0{transform:translate(0px,-16px);animation-name:s0}@keyframes s1{0%,99.64%{transform:translate(16px,-16px)}0.36%{transform:translate(0px,-16px)}0.72%{transform:translate(0px,0px)}12.27%{transform:translate(512px,0px)}12.64%,51.62%{transform:translate(512px,16px)}13%{transform:translate(528px,16px)}13.36%{transform:translate(528px,32px)}14.44%{transform:translate(576px,32px)}15.16%{transform:translate(576px,64px)}17.69%{transform:translate(464px,64px)}18.05%{transform:translate(464px,80px)}22.38%{transform:translate(656px,80px)}24.19%{transform:translate(656px,0px)}26.71%{transform:translate(768px,0px)}27.44%,32.49%{transform:translate(768px,32px)}27.8%{transform:translate(784px,32px)}28.16%{transform:translate(784px,16px)}28.88%{transform:translate(816px,16px)}29.24%{transform:translate(816px,32px)}29.6%,36.82%{transform:translate(832px,32px)}30.32%,37.55%{transform:translate(832px,64px)}31.41%,78.34%{transform:translate(784px,64px)}31.77%{transform:translate(784px,48px)}32.13%{transform:translate(768px,48px)}33.21%{transform:translate(800px,32px)}34.3%{transform:translate(800px,-16px)}35.02%{transform:translate(832px,-16px)}35.38%{transform:translate(832px,0px)}35.74%{transform:translate(848px,0px)}36.46%{transform:translate(848px,32px)}37.91%{transform:translate(816px,64px)}38.27%{transform:translate(816px,80px)}38.63%,79.06%{transform:translate(800px,80px)}38.99%{transform:translate(800px,64px)}40.07%{transform:translate(752px,64px)}40.43%{transform:translate(752px,80px)}40.79%{transform:translate(736px,80px)}41.16%{transform:translate(736px,64px)}41.88%{transform:translate(768px,64px)}42.6%{transform:translate(768px,96px)}42.96%{transform:translate(784px,96px)}43.32%{transform:translate(784px,112px)}43.68%{transform:translate(768px,112px)}45.85%{transform:translate(768px,16px)}51.99%{transform:translate(512px,32px)}53.43%{transform:translate(448px,32px)}54.51%{transform:translate(448px,80px)}58.48%{transform:translate(624px,80px)}59.57%{transform:translate(624px,32px)}62.09%{transform:translate(736px,32px)}63.54%{transform:translate(736px,96px)}65.7%{transform:translate(832px,96px)}67.51%{transform:translate(832px,16px)}70.4%{transform:translate(704px,16px)}72.2%{transform:translate(704px,96px)}72.56%{transform:translate(688px,96px)}73.65%{transform:translate(688px,48px)}74.73%{transform:translate(640px,48px)}75.09%{transform:translate(640px,64px)}78.7%{transform:translate(784px,80px)}79.78%{transform:translate(800px,48px)}80.14%{transform:translate(816px,48px)}81.23%{transform:translate(816px,0px)}97.83%{transform:translate(80px,0px)}98.19%{transform:translate(80px,-16px)}}.s.s1{transform:translate(16px,-16px);animation-name:s1}@keyframes s2{0%,99.64%{transform:translate(32px,-16px)}0.72%{transform:translate(0px,-16px)}1.08%{transform:translate(0px,0px)}12.64%{transform:translate(512px,0px)}13%,51.99%{transform:translate(512px,16px)}13.36%{transform:translate(528px,16px)}13.72%{transform:translate(528px,32px)}14.8%{transform:translate(576px,32px)}15.52%{transform:translate(576px,64px)}18.05%{transform:translate(464px,64px)}18.41%{transform:translate(464px,80px)}22.74%{transform:translate(656px,80px)}24.55%{transform:translate(656px,0px)}27.08%{transform:translate(768px,0px)}27.8%,32.85%{transform:translate(768px,32px)}28.16%{transform:translate(784px,32px)}28.52%{transform:translate(784px,16px)}29.24%{transform:translate(816px,16px)}29.6%{transform:translate(816px,32px)}29.96%,37.18%{transform:translate(832px,32px)}30.69%,37.91%{transform:translate(832px,64px)}31.77%,78.7%{transform:translate(784px,64px)}32.13%{transform:translate(784px,48px)}32.49%{transform:translate(768px,48px)}33.57%{transform:translate(800px,32px)}34.66%{transform:translate(800px,-16px)}35.38%{transform:translate(832px,-16px)}35.74%{transform:translate(832px,0px)}36.1%{transform:translate(848px,0px)}36.82%{transform:translate(848px,32px)}38.27%{transform:translate(816px,64px)}38.63%{transform:translate(816px,80px)}38.99%,79.42%{transform:translate(800px,80px)}39.35%{transform:translate(800px,64px)}40.43%{transform:translate(752px,64px)}40.79%{transform:translate(752px,80px)}41.16%{transform:translate(736px,80px)}41.52%{transform:translate(736px,64px)}42.24%{transform:translate(768px,64px)}42.96%{transform:translate(768px,96px)}43.32%{transform:translate(784px,96px)}43.68%{transform:translate(784px,112px)}44.04%{transform:translate(768px,112px)}46.21%{transform:translate(768px,16px)}52.35%{transform:translate(512px,32px)}53.79%{transform:translate(448px,32px)}54.87%{transform:translate(448px,80px)}58.84%{transform:translate(624px,80px)}59.93%{transform:translate(624px,32px)}62.45%{transform:translate(736px,32px)}63.9%{transform:translate(736px,96px)}66.06%{transform:translate(832px,96px)}67.87%{transform:translate(832px,16px)}70.76%{transform:translate(704px,16px)}72.56%{transform:translate(704px,96px)}72.92%{transform:translate(688px,96px)}74.01%{transform:translate(688px,48px)}75.09%{transform:translate(640px,48px)}75.45%{transform:translate(640px,64px)}79.06%{transform:translate(784px,80px)}80.14%{transform:translate(800px,48px)}80.51%{transform:translate(816px,48px)}81.59%{transform:translate(816px,0px)}98.19%{transform:translate(80px,0px)}98.56%{transform:translate(80px,-16px)}}.s.s2{transform:translate(32px,-16px);animation-name:s2}@keyframes s3{0%,99.64%{transform:translate(48px,-16px)}1.08%{transform:translate(0px,-16px)}1.44%{transform:translate(0px,0px)}13%{transform:translate(512px,0px)}13.36%,52.35%{transform:translate(512px,16px)}13.72%{transform:translate(528px,16px)}14.08%{transform:translate(528px,32px)}15.16%{transform:translate(576px,32px)}15.88%{transform:translate(576px,64px)}18.41%{transform:translate(464px,64px)}18.77%{transform:translate(464px,80px)}23.1%{transform:translate(656px,80px)}24.91%{transform:translate(656px,0px)}27.44%{transform:translate(768px,0px)}28.16%,33.21%{transform:translate(768px,32px)}28.52%{transform:translate(784px,32px)}28.88%{transform:translate(784px,16px)}29.6%{transform:translate(816px,16px)}29.96%{transform:translate(816px,32px)}30.32%,37.55%{transform:translate(832px,32px)}31.05%,38.27%{transform:translate(832px,64px)}32.13%,79.06%{transform:translate(784px,64px)}32.49%{transform:translate(784px,48px)}32.85%{transform:translate(768px,48px)}33.94%{transform:translate(800px,32px)}35.02%{transform:translate(800px,-16px)}35.74%{transform:translate(832px,-16px)}36.1%{transform:translate(832px,0px)}36.46%{transform:translate(848px,0px)}37.18%{transform:translate(848px,32px)}38.63%{transform:translate(816px,64px)}38.99%{transform:translate(816px,80px)}39.35%,79.78%{transform:translate(800px,80px)}39.71%{transform:translate(800px,64px)}40.79%{transform:translate(752px,64px)}41.16%{transform:translate(752px,80px)}41.52%{transform:translate(736px,80px)}41.88%{transform:translate(736px,64px)}42.6%{transform:translate(768px,64px)}43.32%{transform:translate(768px,96px)}43.68%{transform:translate(784px,96px)}44.04%{transform:translate(784px,112px)}44.4%{transform:translate(768px,112px)}46.57%{transform:translate(768px,16px)}52.71%{transform:translate(512px,32px)}54.15%{transform:translate(448px,32px)}55.23%{transform:translate(448px,80px)}59.21%{transform:translate(624px,80px)}60.29%{transform:translate(624px,32px)}62.82%{transform:translate(736px,32px)}64.26%{transform:translate(736px,96px)}66.43%{transform:translate(832px,96px)}68.23%{transform:translate(832px,16px)}71.12%{transform:translate(704px,16px)}72.92%{transform:translate(704px,96px)}73.29%{transform:translate(688px,96px)}74.37%{transform:translate(688px,48px)}75.45%{transform:translate(640px,48px)}75.81%{transform:translate(640px,64px)}79.42%{transform:translate(784px,80px)}80.51%{transform:translate(800px,48px)}80.87%{transform:translate(816px,48px)}81.95%{transform:translate(816px,0px)}98.56%{transform:translate(80px,0px)}98.92%{transform:translate(80px,-16px)}}.s.s3{transform:translate(48px,-16px);animation-name:s3}</style><rect class="c" x="2" y="2" rx="2" ry="2"/><rect class="c" x="2" y="18" rx="2" ry="2"/><rect class="c" x="2" y="34" rx="2" ry="2"/><rect class="c" x="2" y="50" rx="2" ry="2"/><rect class="c" x="2" y="66" rx="2" ry="2"/><rect class="c" x="2" y="82" rx="2" ry="2"/><rect class="c" x="2" y="98" rx="2" ry="2"/><rect class="c" x="18" y="2" rx="2" ry="2"/><rect class="c" x="18" y="18" rx="2" ry="2"/><rect class="c" x="18" y="34" rx="2" ry="2"/><rect class="c" x="18" y="50" rx="2" ry="2"/><rect class="c" x="18" y="66" rx="2" ry="2"/><rect class="c" x="18" y="82" rx="2" ry="2"/><rect class="c" x="18" y="98" rx="2" ry="2"/><rect class="c" x="34" y="2" rx="2" ry="2"/><rect class="c" x="34" y="18" rx="2" ry="2"/><rect class="c" x="34" y="34" rx="2" ry="2"/><rect class="c" x="34" y="50" rx="2" ry="2"/><rect class="c" x="34" y="66" rx="2" ry="2"/><rect class="c" x="34" y="82" rx="2" ry="2"/><rect class="c" x="34" y="98" rx="2" ry="2"/><rect class="c" x="50" y="2" rx="2" ry="2"/><rect class="c" x="50" y="18" rx="2" ry="2"/><rect class="c" x="50" y="34" rx="2" ry="2"/><rect class="c" x="50" y="50" rx="2" ry="2"/><rect class="c" x="50" y="66" rx="2" ry="2"/><rect class="c" x="50" y="82" rx="2" ry="2"/><rect class="c" x="50" y="98" rx="2" ry="2"/><rect class="c" x="66" y="2" rx="2" ry="2"/><rect class="c" x="66" y="18" rx="2" ry="2"/><rect class="c" x="66" y="34" rx="2" ry="2"/><rect class="c" x="66" y="50" rx="2" ry="2"/><rect class="c" x="66" y="66" rx="2" ry="2"/><rect class="c" x="66" y="82" rx="2" ry="2"/><rect class="c" x="66" y="98" rx="2" ry="2"/><rect class="c" x="82" y="2" rx="2" ry="2"/><rect class="c" x="82" y="18" rx="2" ry="2"/><rect class="c" x="82" y="34" rx="2" ry="2"/><rect class="c" x="82" y="50" rx="2" ry="2"/><rect class="c" x="82" y="66" rx="2" ry="2"/><rect class="c" x="82" y="82" rx="2" ry="2"/><rect class="c" x="82" y="98" rx="2" ry="2"/><rect class="c" x="98" y="2" rx="2" ry="2"/><rect class="c" x="98" y="18" rx="2" ry="2"/><rect class="c" x="98" y="34" rx="2" ry="2"/><rect class="c" x="98" y="50" rx="2" ry="2"/><rect class="c" x="98" y="66" rx="2" ry="2"/><rect class="c" x="98" y="82" rx="2" ry="2"/><rect class="c" x="98" y="98" rx="2" ry="2"/><rect class="c" x="114" y="2" rx="2" ry="2"/><rect class="c" x="114" y="18" rx="2" ry="2"/><rect class="c" x="114" y="34" rx="2" ry="2"/><rect class="c" x="114" y="50" rx="2" ry="2"/><rect class="c" x="114" y="66" rx="2" ry="2"/><rect class="c" x="114" y="82" rx="2" ry="2"/><rect class="c" x="114" y="98" rx="2" ry="2"/><rect class="c" x="130" y="2" rx="2" ry="2"/><rect class="c" x="130" y="18" rx="2" ry="2"/><rect class="c" x="130" y="34" rx="2" ry="2"/><rect class="c" x="130" y="50" rx="2" ry="2"/><rect class="c" x="130" y="66" rx="2" ry="2"/><rect class="c" x="130" y="82" rx="2" ry="2"/><rect class="c" x="130" y="98" rx="2" ry="2"/><rect class="c" x="146" y="2" rx="2" ry="2"/><rect class="c" x="146" y="18" rx="2" ry="2"/><rect class="c" x="146" y="34" rx="2" ry="2"/><rect class="c" x="146" y="50" rx="2" ry="2"/><rect class="c" x="146" y="66" rx="2" ry="2"/><rect class="c" x="146" y="82" rx="2" ry="2"/><rect class="c" x="146" y="98" rx="2" ry="2"/><rect class="c" x="162" y="2" rx="2" ry="2"/><rect class="c" x="162" y="18" rx="2" ry="2"/><rect class="c" x="162" y="34" rx="2" ry="2"/><rect class="c" x="162" y="50" rx="2" ry="2"/><rect class="c" x="162" y="66" rx="2" ry="2"/><rect class="c" x="162" y="82" rx="2" ry="2"/><rect class="c" x="162" y="98" rx="2" ry="2"/><rect class="c" x="178" y="2" rx="2" ry="2"/><rect class="c" x="178" y="18" rx="2" ry="2"/><rect class="c" x="178" y="34" rx="2" ry="2"/><rect class="c" x="178" y="50" rx="2" ry="2"/><rect class="c" x="178" y="66" rx="2" ry="2"/><rect class="c" x="178" y="82" rx="2" ry="2"/><rect class="c" x="178" y="98" rx="2" ry="2"/><rect class="c" x="194" y="2" rx="2" ry="2"/><rect class="c" x="194" y="18" rx="2" ry="2"/><rect class="c" x="194" y="34" rx="2" ry="2"/><rect class="c" x="194" y="50" rx="2" ry="2"/><rect class="c" x="194" y="66" rx="2" ry="2"/><rect class="c" x="194" y="82" rx="2" ry="2"/><rect class="c" x="194" y="98" rx="2" ry="2"/><rect class="c" x="210" y="2" rx="2" ry="2"/><rect class="c" x="210" y="18" rx="2" ry="2"/><rect class="c" x="210" y="34" rx="2" ry="2"/><rect class="c" x="210" y="50" rx="2" ry="2"/><rect class="c" x="210" y="66" rx="2" ry="2"/><rect class="c" x="210" y="82" rx="2" ry="2"/><rect class="c" x="210" y="98" rx="2" ry="2"/><rect class="c" x="226" y="2" rx="2" ry="2"/><rect class="c" x="226" y="18" rx="2" ry="2"/><rect class="c" x="226" y="34" rx="2" ry="2"/><rect class="c" x="226" y="50" rx="2" ry="2"/><rect class="c" x="226" y="66" rx="2" ry="2"/><rect class="c" x="226" y="82" rx="2" ry="2"/><rect class="c" x="226" y="98" rx="2" ry="2"/><rect class="c" x="242" y="2" rx="2" ry="2"/><rect class="c" x="242" y="18" rx="2" ry="2"/><rect class="c" x="242" y="34" rx="2" ry="2"/><rect class="c" x="242" y="50" rx="2" ry="2"/><rect class="c" x="242" y="66" rx="2" ry="2"/><rect class="c" x="242" y="82" rx="2" ry="2"/><rect class="c" x="242" y="98" rx="2" ry="2"/><rect class="c" x="258" y="2" rx="2" ry="2"/><rect class="c" x="258" y="18" rx="2" ry="2"/><rect class="c" x="258" y="34" rx="2" ry="2"/><rect class="c" x="258" y="50" rx="2" ry="2"/><rect class="c" x="258" y="66" rx="2" ry="2"/><rect class="c" x="258" y="82" rx="2" ry="2"/><rect class="c" x="258" y="98" rx="2" ry="2"/><rect class="c" x="274" y="2" rx="2" ry="2"/><rect class="c" x="274" y="18" rx="2" ry="2"/><rect class="c" x="274" y="34" rx="2" ry="2"/><rect class="c" x="274" y="50" rx="2" ry="2"/><rect class="c" x="274" y="66" rx="2" ry="2"/><rect class="c" x="274" y="82" rx="2" ry="2"/><rect class="c" x="274" y="98" rx="2" ry="2"/><rect class="c" x="290" y="2" rx="2" ry="2"/><rect class="c" x="290" y="18" rx="2" ry="2"/><rect class="c" x="290" y="34" rx="2" ry="2"/><rect class="c" x="290" y="50" rx="2" ry="2"/><rect class="c" x="290" y="66" rx="2" ry="2"/><rect class="c" x="290" y="82" rx="2" ry="2"/><rect class="c" x="290" y="98" rx="2" ry="2"/><rect class="c" x="306" y="2" rx="2" ry="2"/><rect class="c" x="306" y="18" rx="2" ry="2"/><rect class="c" x="306" y="34" rx="2" ry="2"/><rect class="c" x="306" y="50" rx="2" ry="2"/><rect class="c" x="306" y="66" rx="2" ry="2"/><rect class="c" x="306" y="82" rx="2" ry="2"/><rect class="c" x="306" y="98" rx="2" ry="2"/><rect class="c" x="322" y="2" rx="2" ry="2"/><rect class="c" x="322" y="18" rx="2" ry="2"/><rect class="c" x="322" y="34" rx="2" ry="2"/><rect class="c" x="322" y="50" rx="2" ry="2"/><rect class="c" x="322" y="66" rx="2" ry="2"/><rect class="c" x="322" y="82" rx="2" ry="2"/><rect class="c" x="322" y="98" rx="2" ry="2"/><rect class="c" x="338" y="2" rx="2" ry="2"/><rect class="c" x="338" y="18" rx="2" ry="2"/><rect class="c" x="338" y="34" rx="2" ry="2"/><rect class="c" x="338" y="50" rx="2" ry="2"/><rect class="c" x="338" y="66" rx="2" ry="2"/><rect class="c" x="338" y="82" rx="2" ry="2"/><rect class="c" x="338" y="98" rx="2" ry="2"/><rect class="c" x="354" y="2" rx="2" ry="2"/><rect class="c" x="354" y="18" rx="2" ry="2"/><rect class="c" x="354" y="34" rx="2" ry="2"/><rect class="c" x="354" y="50" rx="2" ry="2"/><rect class="c" x="354" y="66" rx="2" ry="2"/><rect class="c" x="354" y="82" rx="2" ry="2"/><rect class="c" x="354" y="98" rx="2" ry="2"/><rect class="c" x="370" y="2" rx="2" ry="2"/><rect class="c" x="370" y="18" rx="2" ry="2"/><rect class="c" x="370" y="34" rx="2" ry="2"/><rect class="c" x="370" y="50" rx="2" ry="2"/><rect class="c" x="370" y="66" rx="2" ry="2"/><rect class="c" x="370" y="82" rx="2" ry="2"/><rect class="c" x="370" y="98" rx="2" ry="2"/><rect class="c" x="386" y="2" rx="2" ry="2"/><rect class="c" x="386" y="18" rx="2" ry="2"/><rect class="c" x="386" y="34" rx="2" ry="2"/><rect class="c" x="386" y="50" rx="2" ry="2"/><rect class="c" x="386" y="66" rx="2" ry="2"/><rect class="c" x="386" y="82" rx="2" ry="2"/><rect class="c" x="386" y="98" rx="2" ry="2"/><rect class="c" x="402" y="2" rx="2" ry="2"/><rect class="c" x="402" y="18" rx="2" ry="2"/><rect class="c" x="402" y="34" rx="2" ry="2"/><rect class="c" x="402" y="50" rx="2" ry="2"/><rect class="c" x="402" y="66" rx="2" ry="2"/><rect class="c" x="402" y="82" rx="2" ry="2"/><rect class="c" x="402" y="98" rx="2" ry="2"/><rect class="c" x="418" y="2" rx="2" ry="2"/><rect class="c" x="418" y="18" rx="2" ry="2"/><rect class="c" x="418" y="34" rx="2" ry="2"/><rect class="c" x="418" y="50" rx="2" ry="2"/><rect class="c" x="418" y="66" rx="2" ry="2"/><rect class="c" x="418" y="82" rx="2" ry="2"/><rect class="c" x="418" y="98" rx="2" ry="2"/><rect class="c" x="434" y="2" rx="2" ry="2"/><rect class="c" x="434" y="18" rx="2" ry="2"/><rect class="c" x="434" y="34" rx="2" ry="2"/><rect class="c" x="434" y="50" rx="2" ry="2"/><rect class="c" x="434" y="66" rx="2" ry="2"/><rect class="c" x="434" y="82" rx="2" ry="2"/><rect class="c" x="434" y="98" rx="2" ry="2"/><rect class="c" x="450" y="2" rx="2" ry="2"/><rect class="c" x="450" y="18" rx="2" ry="2"/><rect class="c" x="450" y="34" rx="2" ry="2"/><rect class="c" x="450" y="50" rx="2" ry="2"/><rect class="c" x="450" y="66" rx="2" ry="2"/><rect class="c c0" x="450" y="82" rx="2" ry="2"/><rect class="c" x="450" y="98" rx="2" ry="2"/><rect class="c" x="466" y="2" rx="2" ry="2"/><rect class="c" x="466" y="18" rx="2" ry="2"/><rect class="c" x="466" y="34" rx="2" ry="2"/><rect class="c" x="466" y="50" rx="2" ry="2"/><rect class="c" x="466" y="66" rx="2" ry="2"/><rect class="c c1" x="466" y="82" rx="2" ry="2"/><rect class="c" x="466" y="98" rx="2" ry="2"/><rect class="c" x="482" y="2" rx="2" ry="2"/><rect class="c" x="482" y="18" rx="2" ry="2"/><rect class="c" x="482" y="34" rx="2" ry="2"/><rect class="c" x="482" y="50" rx="2" ry="2"/><rect class="c" x="482" y="66" rx="2" ry="2"/><rect class="c" x="482" y="82" rx="2" ry="2"/><rect class="c" x="482" y="98" rx="2" ry="2"/><rect class="c" x="498" y="2" rx="2" ry="2"/><rect class="c" x="498" y="18" rx="2" ry="2"/><rect class="c" x="498" y="34" rx="2" ry="2"/><rect class="c" x="498" y="50" rx="2" ry="2"/><rect class="c" x="498" y="66" rx="2" ry="2"/><rect class="c" x="498" y="82" rx="2" ry="2"/><rect class="c" x="498" y="98" rx="2" ry="2"/><rect class="c" x="514" y="2" rx="2" ry="2"/><rect class="c c2" x="514" y="18" rx="2" ry="2"/><rect class="c c3" x="514" y="34" rx="2" ry="2"/><rect class="c" x="514" y="50" rx="2" ry="2"/><rect class="c" x="514" y="66" rx="2" ry="2"/><rect class="c" x="514" y="82" rx="2" ry="2"/><rect class="c" x="514" y="98" rx="2" ry="2"/><rect class="c" x="530" y="2" rx="2" ry="2"/><rect class="c c4" x="530" y="18" rx="2" ry="2"/><rect class="c c5" x="530" y="34" rx="2" ry="2"/><rect class="c" x="530" y="50" rx="2" ry="2"/><rect class="c" x="530" y="66" rx="2" ry="2"/><rect class="c" x="530" y="82" rx="2" ry="2"/><rect class="c" x="530" y="98" rx="2" ry="2"/><rect class="c" x="546" y="2" rx="2" ry="2"/><rect class="c" x="546" y="18" rx="2" ry="2"/><rect class="c" x="546" y="34" rx="2" ry="2"/><rect class="c" x="546" y="50" rx="2" ry="2"/><rect class="c" x="546" y="66" rx="2" ry="2"/><rect class="c" x="546" y="82" rx="2" ry="2"/><rect class="c" x="546" y="98" rx="2" ry="2"/><rect class="c" x="562" y="2" rx="2" ry="2"/><rect class="c" x="562" y="18" rx="2" ry="2"/><rect class="c" x="562" y="34" rx="2" ry="2"/><rect class="c" x="562" y="50" rx="2" ry="2"/><rect class="c" x="562" y="66" rx="2" ry="2"/><rect class="c" x="562" y="82" rx="2" ry="2"/><rect class="c" x="562" y="98" rx="2" ry="2"/><rect class="c" x="578" y="2" rx="2" ry="2"/><rect class="c" x="578" y="18" rx="2" ry="2"/><rect class="c" x="578" y="34" rx="2" ry="2"/><rect class="c c6" x="578" y="50" rx="2" ry="2"/><rect class="c c7" x="578" y="66" rx="2" ry="2"/><rect class="c" x="578" y="82" rx="2" ry="2"/><rect class="c" x="578" y="98" rx="2" ry="2"/><rect class="c" x="594" y="2" rx="2" ry="2"/><rect class="c" x="594" y="18" rx="2" ry="2"/><rect class="c" x="594" y="34" rx="2" ry="2"/><rect class="c" x="594" y="50" rx="2" ry="2"/><rect class="c" x="594" y="66" rx="2" ry="2"/><rect class="c" x="594" y="82" rx="2" ry="2"/><rect class="c" x="594" y="98" rx="2" ry="2"/><rect class="c" x="610" y="2" rx="2" ry="2"/><rect class="c" x="610" y="18" rx="2" ry="2"/><rect class="c" x="610" y="34" rx="2" ry="2"/><rect class="c" x="610" y="50" rx="2" ry="2"/><rect class="c" x="610" y="66" rx="2" ry="2"/><rect class="c" x="610" y="82" rx="2" ry="2"/><rect class="c" x="610" y="98" rx="2" ry="2"/><rect class="c" x="626" y="2" rx="2" ry="2"/><rect class="c" x="626" y="18" rx="2" ry="2"/><rect class="c c8" x="626" y="34" rx="2" ry="2"/><rect class="c" x="626" y="50" rx="2" ry="2"/><rect class="c" x="626" y="66" rx="2" ry="2"/><rect class="c" x="626" y="82" rx="2" ry="2"/><rect class="c" x="626" y="98" rx="2" ry="2"/><rect class="c" x="642" y="2" rx="2" ry="2"/><rect class="c" x="642" y="18" rx="2" ry="2"/><rect class="c c9" x="642" y="34" rx="2" ry="2"/><rect class="c ca" x="642" y="50" rx="2" ry="2"/><rect class="c" x="642" y="66" rx="2" ry="2"/><rect class="c" x="642" y="82" rx="2" ry="2"/><rect class="c" x="642" y="98" rx="2" ry="2"/><rect class="c cb" x="658" y="2" rx="2" ry="2"/><rect class="c" x="658" y="18" rx="2" ry="2"/><rect class="c" x="658" y="34" rx="2" ry="2"/><rect class="c" x="658" y="50" rx="2" ry="2"/><rect class="c" x="658" y="66" rx="2" ry="2"/><rect class="c" x="658" y="82" rx="2" ry="2"/><rect class="c" x="658" y="98" rx="2" ry="2"/><rect class="c" x="674" y="2" rx="2" ry="2"/><rect class="c" x="674" y="18" rx="2" ry="2"/><rect class="c" x="674" y="34" rx="2" ry="2"/><rect class="c" x="674" y="50" rx="2" ry="2"/><rect class="c" x="674" y="66" rx="2" ry="2"/><rect class="c" x="674" y="82" rx="2" ry="2"/><rect class="c" x="674" y="98" rx="2" ry="2"/><rect class="c" x="690" y="2" rx="2" ry="2"/><rect class="c" x="690" y="18" rx="2" ry="2"/><rect class="c" x="690" y="34" rx="2" ry="2"/><rect class="c" x="690" y="50" rx="2" ry="2"/><rect class="c" x="690" y="66" rx="2" ry="2"/><rect class="c cc" x="690" y="82" rx="2" ry="2"/><rect class="c cd" x="690" y="98" rx="2" ry="2"/><rect class="c" x="706" y="2" rx="2" ry="2"/><rect class="c ce" x="706" y="18" rx="2" ry="2"/><rect class="c" x="706" y="34" rx="2" ry="2"/><rect class="c" x="706" y="50" rx="2" ry="2"/><rect class="c" x="706" y="66" rx="2" ry="2"/><rect class="c" x="706" y="82" rx="2" ry="2"/><rect class="c" x="706" y="98" rx="2" ry="2"/><rect class="c" x="722" y="2" rx="2" ry="2"/><rect class="c" x="722" y="18" rx="2" ry="2"/><rect class="c" x="722" y="34" rx="2" ry="2"/><rect class="c" x="722" y="50" rx="2" ry="2"/><rect class="c" x="722" y="66" rx="2" ry="2"/><rect class="c" x="722" y="82" rx="2" ry="2"/><rect class="c" x="722" y="98" rx="2" ry="2"/><rect class="c" x="738" y="2" rx="2" ry="2"/><rect class="c" x="738" y="18" rx="2" ry="2"/><rect class="c cf" x="738" y="34" rx="2" ry="2"/><rect class="c" x="738" y="50" rx="2" ry="2"/><rect class="c" x="738" y="66" rx="2" ry="2"/><rect class="c cg" x="738" y="82" rx="2" ry="2"/><rect class="c ch" x="738" y="98" rx="2" ry="2"/><rect class="c" x="754" y="2" rx="2" ry="2"/><rect class="c" x="754" y="18" rx="2" ry="2"/><rect class="c" x="754" y="34" rx="2" ry="2"/><rect class="c" x="754" y="50" rx="2" ry="2"/><rect class="c" x="754" y="66" rx="2" ry="2"/><rect class="c ci" x="754" y="82" rx="2" ry="2"/><rect class="c cj" x="754" y="98" rx="2" ry="2"/><rect class="c" x="770" y="2" rx="2" ry="2"/><rect class="c" x="770" y="18" rx="2" ry="2"/><rect class="c ck" x="770" y="34" rx="2" ry="2"/><rect class="c cl" x="770" y="50" rx="2" ry="2"/><rect class="c" x="770" y="66" rx="2" ry="2"/><rect class="c" x="770" y="82" rx="2" ry="2"/><rect class="c" x="770" y="98" rx="2" ry="2"/><rect class="c" x="786" y="2" rx="2" ry="2"/><rect class="c cm" x="786" y="18" rx="2" ry="2"/><rect class="c cn" x="786" y="34" rx="2" ry="2"/><rect class="c co" x="786" y="50" rx="2" ry="2"/><rect class="c cp" x="786" y="66" rx="2" ry="2"/><rect class="c cq" x="786" y="82" rx="2" ry="2"/><rect class="c cr" x="786" y="98" rx="2" ry="2"/><rect class="c cs" x="802" y="2" rx="2" ry="2"/><rect class="c ct" x="802" y="18" rx="2" ry="2"/><rect class="c cu" x="802" y="34" rx="2" ry="2"/><rect class="c cv" x="802" y="50" rx="2" ry="2"/><rect class="c cw" x="802" y="66" rx="2" ry="2"/><rect class="c cx" x="802" y="82" rx="2" ry="2"/><rect class="c cy" x="802" y="98" rx="2" ry="2"/><rect class="c cz" x="818" y="2" rx="2" ry="2"/><rect class="c c10" x="818" y="18" rx="2" ry="2"/><rect class="c c11" x="818" y="34" rx="2" ry="2"/><rect class="c c12" x="818" y="50" rx="2" ry="2"/><rect class="c c13" x="818" y="66" rx="2" ry="2"/><rect class="c c14" x="818" y="82" rx="2" ry="2"/><rect class="c c15" x="818" y="98" rx="2" ry="2"/><rect class="c c16" x="834" y="2" rx="2" ry="2"/><rect class="c c17" x="834" y="18" rx="2" ry="2"/><rect class="c c18" x="834" y="34" rx="2" ry="2"/><rect class="u u0" height="12" width="170.2" x="0.0" y="144"/><rect class="u u1" height="12" width="396.3" x="169.6" y="144"/><rect class="u u2" height="12" width="170.2" x="565.3" y="144"/><rect class="u u3" height="12" width="113.7" x="734.9" y="144"/><rect class="s s0" x="0.8" y="0.8" width="14.4" height="14.4" rx="4.5" ry="4.5"/><rect class="s s1" x="1.8" y="1.8" width="12.3" height="12.3" rx="4.1" ry="4.1"/><rect class="s s2" x="2.6" y="2.6" width="10.8" height="10.8" rx="3.6" ry="3.6"/><rect class="s s3" x="3.0" y="3.0" width="9.9" height="9.9" rx="3.3" ry="3.3"/></svg>