<svg viewBox="-16 -32 880 192" width="880" height="192" xmlns="http://www.w3.org/2000/svg"><desc>Generated with https://github.com/Platane/snk</desc><style>:root{--cb:#1b1f230a;--cs:764ba2;--ce:#ebedf0;--c0:#ebedf0;--c1:#9be9a8;--c2:#40c463;--c3:#30a14e;--c4:#216e39}.c{shape-rendering:geometricPrecision;fill:var(--ce);stroke-width:1px;stroke:var(--cb);animation:none 30700ms linear infinite;width:12px;height:12px}@keyframes c0{54.39%{fill:var(--c2)}54.41%,100%{fill:var(--ce)}}.c.c0{fill:var(--c2);animation-name:c0}@keyframes c1{26.05%{fill:var(--c1)}26.07%,100%{fill:var(--ce)}}.c.c1{fill:var(--c1);animation-name:c1}@keyframes c2{11.39%{fill:var(--c1)}11.41%,100%{fill:var(--ce)}}.c.c2{fill:var(--c1);animation-name:c2}@keyframes c3{52.11%{fill:var(--c2)}52.13%,100%{fill:var(--ce)}}.c.c3{fill:var(--c2);animation-name:c3}@keyframes c4{11.72%{fill:var(--c1)}11.74%,100%{fill:var(--ce)}}.c.c4{fill:var(--c1);animation-name:c4}@keyframes c5{51.78%{fill:var(--c2)}51.8%,100%{fill:var(--ce)}}.c.c5{fill:var(--c2);animation-name:c5}@keyframes c6{13.35%{fill:var(--c1)}13.37%,100%{fill:var(--ce)}}.c.c6{fill:var(--c1);animation-name:c6}@keyframes c7{50.15%{fill:var(--c2)}50.17%,100%{fill:var(--ce)}}.c.c7{fill:var(--c2);animation-name:c7}@keyframes c8{73.93%{fill:var(--c3)}73.95%,100%{fill:var(--ce)}}.c.c8{fill:var(--c3);animation-name:c8}@keyframes c9{74.26%{fill:var(--c4)}74.28%,100%{fill:var(--ce)}}.c.c9{fill:var(--c4);animation-name:c9}@keyframes ca{74.58%{fill:var(--c4)}74.6%,100%{fill:var(--ce)}}.c.ca{fill:var(--c4);animation-name:ca}@keyframes cb{15.95%{fill:var(--c1)}15.97%,100%{fill:var(--ce)}}.c.cb{fill:var(--c1);animation-name:cb}@keyframes cc{76.21%{fill:var(--c4)}76.23%,100%{fill:var(--ce)}}.c.cc{fill:var(--c4);animation-name:cc}@keyframes cd{76.54%{fill:var(--c4)}76.56%,100%{fill:var(--ce)}}.c.cd{fill:var(--c4);animation-name:cd}@keyframes ce{36.15%{fill:var(--c2)}36.17%,100%{fill:var(--ce)}}.c.ce{fill:var(--c2);animation-name:ce}@keyframes cf{83.38%{fill:var(--c4)}83.4%,100%{fill:var(--ce)}}.c.cf{fill:var(--c4);animation-name:cf}@keyframes cg{38.1%{fill:var(--c2)}38.12%,100%{fill:var(--ce)}}.c.cg{fill:var(--c2);animation-name:cg}@keyframes ch{70.35%{fill:var(--c3)}70.37%,100%{fill:var(--ce)}}.c.ch{fill:var(--c3);animation-name:ch}@keyframes ci{38.43%{fill:var(--c2)}38.45%,100%{fill:var(--ce)}}.c.ci{fill:var(--c2);animation-name:ci}@keyframes cj{77.84%{fill:var(--c4)}77.86%,100%{fill:var(--ce)}}.c.cj{fill:var(--c4);animation-name:cj}@keyframes ck{18.88%{fill:var(--c1)}18.9%,100%{fill:var(--ce)}}.c.ck{fill:var(--c1);animation-name:ck}@keyframes cl{64.16%{fill:var(--c3)}64.18%,100%{fill:var(--ce)}}.c.cl{fill:var(--c3);animation-name:cl}@keyframes cm{34.52%{fill:var(--c2)}34.54%,100%{fill:var(--ce)}}.c.cm{fill:var(--c2);animation-name:cm}@keyframes cn{34.19%{fill:var(--c1)}34.21%,100%{fill:var(--ce)}}.c.cn{fill:var(--c1);animation-name:cn}@keyframes co{64.49%{fill:var(--c3)}64.51%,100%{fill:var(--ce)}}.c.co{fill:var(--c3);animation-name:co}@keyframes cp{61.55%{fill:var(--c2)}61.57%,100%{fill:var(--ce)}}.c.cp{fill:var(--c2);animation-name:cp}@keyframes cq{78.82%{fill:var(--c4)}78.84%,100%{fill:var(--ce)}}.c.cq{fill:var(--c4);animation-name:cq}@keyframes cr{62.86%{fill:var(--c3)}62.88%,100%{fill:var(--ce)}}.c.cr{fill:var(--c3);animation-name:cr}@keyframes cs{67.09%{fill:var(--c3)}67.11%,100%{fill:var(--ce)}}.c.cs{fill:var(--c3);animation-name:cs}@keyframes ct{65.46%{fill:var(--c3)}65.48%,100%{fill:var(--ce)}}.c.ct{fill:var(--c3);animation-name:ct}@keyframes cu{65.14%{fill:var(--c3)}65.16%,100%{fill:var(--ce)}}.c.cu{fill:var(--c3);animation-name:cu}@keyframes cv{79.79%{fill:var(--c4)}79.81%,100%{fill:var(--ce)}}.c.cv{fill:var(--c4);animation-name:cv}@keyframes cw{61.88%{fill:var(--c3)}61.9%,100%{fill:var(--ce)}}.c.cw{fill:var(--c3);animation-name:cw}@keyframes cx{62.2%{fill:var(--c3)}62.22%,100%{fill:var(--ce)}}.c.cx{fill:var(--c3);animation-name:cx}@keyframes cy{62.53%{fill:var(--c3)}62.55%,100%{fill:var(--ce)}}.c.cy{fill:var(--c3);animation-name:cy}@keyframes cz{81.1%{fill:var(--c4)}81.12%,100%{fill:var(--ce)}}.c.cz{fill:var(--c4);animation-name:cz}@keyframes c10{65.79%{fill:var(--c3)}65.81%,100%{fill:var(--ce)}}.c.c10{fill:var(--c3);animation-name:c10}@keyframes c11{42.01%{fill:var(--c2)}42.03%,100%{fill:var(--ce)}}.c.c11{fill:var(--c2);animation-name:c11}.u{transform-origin:0 0;transform:scale(0,1);animation:none linear 30700ms infinite}@keyframes u0{11.39%{transform:scale(0.000,1)}11.41%,11.72%{transform:scale(0.143,1)}11.74%,13.35%{transform:scale(0.286,1)}13.37%,15.95%{transform:scale(0.429,1)}15.97%,18.88%{transform:scale(0.571,1)}18.9%,26.05%{transform:scale(0.714,1)}26.07%,34.19%{transform:scale(0.857,1)}34.21%,100%{transform:scale(1.000,1)}}.u.u0{fill:var(--c1);animation-name:u0;transform-origin:0.0px 0}@keyframes u1{34.52%{transform:scale(0.000,1)}34.54%,36.15%{transform:scale(0.100,1)}36.17%,38.1%{transform:scale(0.200,1)}38.12%,38.43%{transform:scale(0.300,1)}38.45%,42.01%{transform:scale(0.400,1)}42.03%,50.15%{transform:scale(0.500,1)}50.17%,51.78%{transform:scale(0.600,1)}51.8%,52.11%{transform:scale(0.700,1)}52.13%,54.39%{transform:scale(0.800,1)}54.41%,61.55%{transform:scale(0.900,1)}61.57%,100%{transform:scale(1.000,1)}}.u.u1{fill:var(--c2);animation-name:u1;transform-origin:156.2px 0}@keyframes u2{61.88%{transform:scale(0.000,1)}61.9%,62.2%{transform:scale(0.083,1)}62.22%,62.53%{transform:scale(0.167,1)}62.55%,62.86%{transform:scale(0.250,1)}62.88%,64.16%{transform:scale(0.333,1)}64.18%,64.49%{transform:scale(0.417,1)}64.51%,65.14%{transform:scale(0.500,1)}65.16%,65.46%{transform:scale(0.583,1)}65.48%,65.79%{transform:scale(0.667,1)}65.81%,67.09%{transform:scale(0.750,1)}67.11%,70.35%{transform:scale(0.833,1)}70.37%,73.93%{transform:scale(0.917,1)}73.95%,100%{transform:scale(1.000,1)}}.u.u2{fill:var(--c3);animation-name:u2;transform-origin:379.4px 0}@keyframes u3{74.26%{transform:scale(0.000,1)}74.28%,74.58%{transform:scale(0.111,1)}74.6%,76.21%{transform:scale(0.222,1)}76.23%,76.54%{transform:scale(0.333,1)}76.56%,77.84%{transform:scale(0.444,1)}77.86%,78.82%{transform:scale(0.556,1)}78.84%,79.79%{transform:scale(0.667,1)}79.81%,81.1%{transform:scale(0.778,1)}81.12%,83.38%{transform:scale(0.889,1)}83.4%,100%{transform:scale(1.000,1)}}.u.u3{fill:var(--c4);animation-name:u3;transform-origin:647.2px 0}.s{shape-rendering:geometricPrecision;fill:var(--cs);animation:none linear 30700ms infinite}@keyframes s0{0%,99.67%{transform:translate(0px,-16px)}0.33%{transform:translate(0px,0px)}11.07%{transform:translate(528px,0px)}11.4%{transform:translate(528px,16px)}12.7%{transform:translate(592px,16px)}13.36%{transform:translate(592px,48px)}14.01%,29.64%{transform:translate(624px,48px)}14.66%{transform:translate(624px,16px)}15.64%{transform:translate(672px,16px)}15.96%{transform:translate(672px,0px)}18.24%{transform:translate(784px,0px)}18.89%{transform:translate(784px,32px)}19.22%,33.55%{transform:translate(768px,32px)}19.54%,33.22%,69.06%{transform:translate(768px,48px)}21.5%,31.27%{transform:translate(672px,48px)}21.82%,30.94%{transform:translate(672px,64px)}23.13%{transform:translate(608px,64px)}23.45%{transform:translate(608px,80px)}26.06%,54.72%{transform:translate(480px,80px)}26.71%{transform:translate(480px,48px)}29.97%{transform:translate(624px,64px)}34.2%,64.82%{transform:translate(800px,32px)}34.53%{transform:translate(800px,16px)}36.16%{transform:translate(720px,16px)}36.48%{transform:translate(720px,32px)}36.81%{transform:translate(736px,32px)}37.13%{transform:translate(736px,48px)}37.46%,69.38%{transform:translate(752px,48px)}38.11%{transform:translate(752px,80px)}38.76%{transform:translate(784px,80px)}39.41%{transform:translate(784px,112px)}40.39%{transform:translate(832px,112px)}42.02%,66.12%{transform:translate(832px,32px)}42.35%{transform:translate(848px,32px)}43.32%{transform:translate(848px,-16px)}48.53%{transform:translate(592px,-16px)}50.16%{transform:translate(592px,64px)}50.49%{transform:translate(576px,64px)}51.14%{transform:translate(576px,32px)}53.42%{transform:translate(464px,32px)}54.4%{transform:translate(464px,80px)}55.05%{transform:translate(480px,64px)}61.89%{transform:translate(816px,64px)}62.54%{transform:translate(816px,96px)}63.19%{transform:translate(784px,96px)}64.17%{transform:translate(784px,48px)}64.5%{transform:translate(800px,48px)}65.15%,66.45%{transform:translate(816px,32px)}65.47%{transform:translate(816px,16px)}65.8%{transform:translate(832px,16px)}67.1%{transform:translate(816px,0px)}68.08%{transform:translate(768px,0px)}70.36%{transform:translate(752px,96px)}70.68%{transform:translate(736px,96px)}71.34%{transform:translate(736px,64px)}73.29%{transform:translate(640px,64px)}73.94%{transform:translate(640px,32px)}74.27%{transform:translate(656px,32px)}74.59%{transform:translate(656px,48px)}75.57%{transform:translate(704px,48px)}76.55%{transform:translate(704px,96px)}78.5%{transform:translate(800px,96px)}78.83%{transform:translate(800px,80px)}79.15%{transform:translate(816px,80px)}79.8%{transform:translate(816px,48px)}80.13%{transform:translate(832px,48px)}81.11%{transform:translate(832px,0px)}82.74%{transform:translate(752px,0px)}83.39%{transform:translate(752px,32px)}97.39%{transform:translate(64px,32px)}98.37%{transform:translate(64px,-16px)}}.s.s0{transform:translate(0px,-16px);animation-name:s0}@keyframes s1{0%,99.67%{transform:translate(16px,-16px)}0.33%{transform:translate(0px,-16px)}0.65%{transform:translate(0px,0px)}11.4%{transform:translate(528px,0px)}11.73%{transform:translate(528px,16px)}13.03%{transform:translate(592px,16px)}13.68%{transform:translate(592px,48px)}14.33%,29.97%{transform:translate(624px,48px)}14.98%{transform:translate(624px,16px)}15.96%{transform:translate(672px,16px)}16.29%{transform:translate(672px,0px)}18.57%{transform:translate(784px,0px)}19.22%{transform:translate(784px,32px)}19.54%,33.88%{transform:translate(768px,32px)}19.87%,33.55%,69.38%{transform:translate(768px,48px)}21.82%,31.6%{transform:translate(672px,48px)}22.15%,31.27%{transform:translate(672px,64px)}23.45%{transform:translate(608px,64px)}23.78%{transform:translate(608px,80px)}26.38%,55.05%{transform:translate(480px,80px)}27.04%{transform:translate(480px,48px)}30.29%{transform:translate(624px,64px)}34.53%,65.15%{transform:translate(800px,32px)}34.85%{transform:translate(800px,16px)}36.48%{transform:translate(720px,16px)}36.81%{transform:translate(720px,32px)}37.13%{transform:translate(736px,32px)}37.46%{transform:translate(736px,48px)}37.79%,69.71%{transform:translate(752px,48px)}38.44%{transform:translate(752px,80px)}39.09%{transform:translate(784px,80px)}39.74%{transform:translate(784px,112px)}40.72%{transform:translate(832px,112px)}42.35%,66.45%{transform:translate(832px,32px)}42.67%{transform:translate(848px,32px)}43.65%{transform:translate(848px,-16px)}48.86%{transform:translate(592px,-16px)}50.49%{transform:translate(592px,64px)}50.81%{transform:translate(576px,64px)}51.47%{transform:translate(576px,32px)}53.75%{transform:translate(464px,32px)}54.72%{transform:translate(464px,80px)}55.37%{transform:translate(480px,64px)}62.21%{transform:translate(816px,64px)}62.87%{transform:translate(816px,96px)}63.52%{transform:translate(784px,96px)}64.5%{transform:translate(784px,48px)}64.82%{transform:translate(800px,48px)}65.47%,66.78%{transform:translate(816px,32px)}65.8%{transform:translate(816px,16px)}66.12%{transform:translate(832px,16px)}67.43%{transform:translate(816px,0px)}68.4%{transform:translate(768px,0px)}70.68%{transform:translate(752px,96px)}71.01%{transform:translate(736px,96px)}71.66%{transform:translate(736px,64px)}73.62%{transform:translate(640px,64px)}74.27%{transform:translate(640px,32px)}74.59%{transform:translate(656px,32px)}74.92%{transform:translate(656px,48px)}75.9%{transform:translate(704px,48px)}76.87%{transform:translate(704px,96px)}78.83%{transform:translate(800px,96px)}79.15%{transform:translate(800px,80px)}79.48%{transform:translate(816px,80px)}80.13%{transform:translate(816px,48px)}80.46%{transform:translate(832px,48px)}81.43%{transform:translate(832px,0px)}83.06%{transform:translate(752px,0px)}83.71%{transform:translate(752px,32px)}97.72%{transform:translate(64px,32px)}98.7%{transform:translate(64px,-16px)}}.s.s1{transform:translate(16px,-16px);animation-name:s1}@keyframes s2{0%,99.67%{transform:translate(32px,-16px)}0.65%{transform:translate(0px,-16px)}0.98%{transform:translate(0px,0px)}11.73%{transform:translate(528px,0px)}12.05%{transform:translate(528px,16px)}13.36%{transform:translate(592px,16px)}14.01%{transform:translate(592px,48px)}14.66%,30.29%{transform:translate(624px,48px)}15.31%{transform:translate(624px,16px)}16.29%{transform:translate(672px,16px)}16.61%{transform:translate(672px,0px)}18.89%{transform:translate(784px,0px)}19.54%{transform:translate(784px,32px)}19.87%,34.2%{transform:translate(768px,32px)}20.2%,33.88%,69.71%{transform:translate(768px,48px)}22.15%,31.92%{transform:translate(672px,48px)}22.48%,31.6%{transform:translate(672px,64px)}23.78%{transform:translate(608px,64px)}24.1%{transform:translate(608px,80px)}26.71%,55.37%{transform:translate(480px,80px)}27.36%{transform:translate(480px,48px)}30.62%{transform:translate(624px,64px)}34.85%,65.47%{transform:translate(800px,32px)}35.18%{transform:translate(800px,16px)}36.81%{transform:translate(720px,16px)}37.13%{transform:translate(720px,32px)}37.46%{transform:translate(736px,32px)}37.79%{transform:translate(736px,48px)}38.11%,70.03%{transform:translate(752px,48px)}38.76%{transform:translate(752px,80px)}39.41%{transform:translate(784px,80px)}40.07%{transform:translate(784px,112px)}41.04%{transform:translate(832px,112px)}42.67%,66.78%{transform:translate(832px,32px)}43%{transform:translate(848px,32px)}43.97%{transform:translate(848px,-16px)}49.19%{transform:translate(592px,-16px)}50.81%{transform:translate(592px,64px)}51.14%{transform:translate(576px,64px)}51.79%{transform:translate(576px,32px)}54.07%{transform:translate(464px,32px)}55.05%{transform:translate(464px,80px)}55.7%{transform:translate(480px,64px)}62.54%{transform:translate(816px,64px)}63.19%{transform:translate(816px,96px)}63.84%{transform:translate(784px,96px)}64.82%{transform:translate(784px,48px)}65.15%{transform:translate(800px,48px)}65.8%,67.1%{transform:translate(816px,32px)}66.12%{transform:translate(816px,16px)}66.45%{transform:translate(832px,16px)}67.75%{transform:translate(816px,0px)}68.73%{transform:translate(768px,0px)}71.01%{transform:translate(752px,96px)}71.34%{transform:translate(736px,96px)}71.99%{transform:translate(736px,64px)}73.94%{transform:translate(640px,64px)}74.59%{transform:translate(640px,32px)}74.92%{transform:translate(656px,32px)}75.24%{transform:translate(656px,48px)}76.22%{transform:translate(704px,48px)}77.2%{transform:translate(704px,96px)}79.15%{transform:translate(800px,96px)}79.48%{transform:translate(800px,80px)}79.8%{transform:translate(816px,80px)}80.46%{transform:translate(816px,48px)}80.78%{transform:translate(832px,48px)}81.76%{transform:translate(832px,0px)}83.39%{transform:translate(752px,0px)}84.04%{transform:translate(752px,32px)}98.05%{transform:translate(64px,32px)}99.02%{transform:translate(64px,-16px)}}.s.s2{transform:translate(32px,-16px);animation-name:s2}@keyframes s3{0%,99.67%{transform:translate(48px,-16px)}0.98%{transform:translate(0px,-16px)}1.3%{transform:translate(0px,0px)}12.05%{transform:translate(528px,0px)}12.38%{transform:translate(528px,16px)}13.68%{transform:translate(592px,16px)}14.33%{transform:translate(592px,48px)}14.98%,30.62%{transform:translate(624px,48px)}15.64%{transform:translate(624px,16px)}16.61%{transform:translate(672px,16px)}16.94%{transform:translate(672px,0px)}19.22%{transform:translate(784px,0px)}19.87%{transform:translate(784px,32px)}20.2%,34.53%{transform:translate(768px,32px)}20.52%,34.2%,70.03%{transform:translate(768px,48px)}22.48%,32.25%{transform:translate(672px,48px)}22.8%,31.92%{transform:translate(672px,64px)}24.1%{transform:translate(608px,64px)}24.43%{transform:translate(608px,80px)}27.04%,55.7%{transform:translate(480px,80px)}27.69%{transform:translate(480px,48px)}30.94%{transform:translate(624px,64px)}35.18%,65.8%{transform:translate(800px,32px)}35.5%{transform:translate(800px,16px)}37.13%{transform:translate(720px,16px)}37.46%{transform:translate(720px,32px)}37.79%{transform:translate(736px,32px)}38.11%{transform:translate(736px,48px)}38.44%,70.36%{transform:translate(752px,48px)}39.09%{transform:translate(752px,80px)}39.74%{transform:translate(784px,80px)}40.39%{transform:translate(784px,112px)}41.37%{transform:translate(832px,112px)}43%,67.1%{transform:translate(832px,32px)}43.32%{transform:translate(848px,32px)}44.3%{transform:translate(848px,-16px)}49.51%{transform:translate(592px,-16px)}51.14%{transform:translate(592px,64px)}51.47%{transform:translate(576px,64px)}52.12%{transform:translate(576px,32px)}54.4%{transform:translate(464px,32px)}55.37%{transform:translate(464px,80px)}56.03%{transform:translate(480px,64px)}62.87%{transform:translate(816px,64px)}63.52%{transform:translate(816px,96px)}64.17%{transform:translate(784px,96px)}65.15%{transform:translate(784px,48px)}65.47%{transform:translate(800px,48px)}66.12%,67.43%{transform:translate(816px,32px)}66.45%{transform:translate(816px,16px)}66.78%{transform:translate(832px,16px)}68.08%{transform:translate(816px,0px)}69.06%{transform:translate(768px,0px)}71.34%{transform:translate(752px,96px)}71.66%{transform:translate(736px,96px)}72.31%{transform:translate(736px,64px)}74.27%{transform:translate(640px,64px)}74.92%{transform:translate(640px,32px)}75.24%{transform:translate(656px,32px)}75.57%{transform:translate(656px,48px)}76.55%{transform:translate(704px,48px)}77.52%{transform:translate(704px,96px)}79.48%{transform:translate(800px,96px)}79.8%{transform:translate(800px,80px)}80.13%{transform:translate(816px,80px)}80.78%{transform:translate(816px,48px)}81.11%{transform:translate(832px,48px)}82.08%{transform:translate(832px,0px)}83.71%{transform:translate(752px,0px)}84.36%{transform:translate(752px,32px)}98.37%{transform:translate(64px,32px)}99.35%{transform:translate(64px,-16px)}}.s.s3{transform:translate(48px,-16px);animation-name:s3}</style><rect class="c" x="2" y="2" rx="2" ry="2"/><rect class="c" x="2" y="18" rx="2" ry="2"/><rect class="c" x="2" y="34" rx="2" ry="2"/><rect class="c" x="2" y="50" rx="2" ry="2"/><rect class="c" x="2" y="66" rx="2" ry="2"/><rect class="c" x="2" y="82" rx="2" ry="2"/><rect class="c" x="2" y="98" rx="2" ry="2"/><rect class="c" x="18" y="2" rx="2" ry="2"/><rect class="c" x="18" y="18" rx="2" ry="2"/><rect class="c" x="18" y="34" rx="2" ry="2"/><rect class="c" x="18" y="50" rx="2" ry="2"/><rect class="c" x="18" y="66" rx="2" ry="2"/><rect class="c" x="18" y="82" rx="2" ry="2"/><rect class="c" x="18" y="98" rx="2" ry="2"/><rect class="c" x="34" y="2" rx="2" ry="2"/><rect class="c" x="34" y="18" rx="2" ry="2"/><rect class="c" x="34" y="34" rx="2" ry="2"/><rect class="c" x="34" y="50" rx="2" ry="2"/><rect class="c" x="34" y="66" rx="2" ry="2"/><rect class="c" x="34" y="82" rx="2" ry="2"/><rect class="c" x="34" y="98" rx="2" ry="2"/><rect class="c" x="50" y="2" rx="2" ry="2"/><rect class="c" x="50" y="18" rx="2" ry="2"/><rect class="c" x="50" y="34" rx="2" ry="2"/><rect class="c" x="50" y="50" rx="2" ry="2"/><rect class="c" x="50" y="66" rx="2" ry="2"/><rect class="c" x="50" y="82" rx="2" ry="2"/><rect class="c" x="50" y="98" rx="2" ry="2"/><rect class="c" x="66" y="2" rx="2" ry="2"/><rect class="c" x="66" y="18" rx="2" ry="2"/><rect class="c" x="66" y="34" rx="2" ry="2"/><rect class="c" x="66" y="50" rx="2" ry="2"/><rect class="c" x="66" y="66" rx="2" ry="2"/><rect class="c" x="66" y="82" rx="2" ry="2"/><rect class="c" x="66" y="98" rx="2" ry="2"/><rect class="c" x="82" y="2" rx="2" ry="2"/><rect class="c" x="82" y="18" rx="2" ry="2"/><rect class="c" x="82" y="34" rx="2" ry="2"/><rect class="c" x="82" y="50" rx="2" ry="2"/><rect class="c" x="82" y="66" rx="2" ry="2"/><rect class="c" x="82" y="82" rx="2" ry="2"/><rect class="c" x="82" y="98" rx="2" ry="2"/><rect class="c" x="98" y="2" rx="2" ry="2"/><rect class="c" x="98" y="18" rx="2" ry="2"/><rect class="c" x="98" y="34" rx="2" ry="2"/><rect class="c" x="98" y="50" rx="2" ry="2"/><rect class="c" x="98" y="66" rx="2" ry="2"/><rect class="c" x="98" y="82" rx="2" ry="2"/><rect class="c" x="98" y="98" rx="2" ry="2"/><rect class="c" x="114" y="2" rx="2" ry="2"/><rect class="c" x="114" y="18" rx="2" ry="2"/><rect class="c" x="114" y="34" rx="2" ry="2"/><rect class="c" x="114" y="50" rx="2" ry="2"/><rect class="c" x="114" y="66" rx="2" ry="2"/><rect class="c" x="114" y="82" rx="2" ry="2"/><rect class="c" x="114" y="98" rx="2" ry="2"/><rect class="c" x="130" y="2" rx="2" ry="2"/><rect class="c" x="130" y="18" rx="2" ry="2"/><rect class="c" x="130" y="34" rx="2" ry="2"/><rect class="c" x="130" y="50" rx="2" ry="2"/><rect class="c" x="130" y="66" rx="2" ry="2"/><rect class="c" x="130" y="82" rx="2" ry="2"/><rect class="c" x="130" y="98" rx="2" ry="2"/><rect class="c" x="146" y="2" rx="2" ry="2"/><rect class="c" x="146" y="18" rx="2" ry="2"/><rect class="c" x="146" y="34" rx="2" ry="2"/><rect class="c" x="146" y="50" rx="2" ry="2"/><rect class="c" x="146" y="66" rx="2" ry="2"/><rect class="c" x="146" y="82" rx="2" ry="2"/><rect class="c" x="146" y="98" rx="2" ry="2"/><rect class="c" x="162" y="2" rx="2" ry="2"/><rect class="c" x="162" y="18" rx="2" ry="2"/><rect class="c" x="162" y="34" rx="2" ry="2"/><rect class="c" x="162" y="50" rx="2" ry="2"/><rect class="c" x="162" y="66" rx="2" ry="2"/><rect class="c" x="162" y="82" rx="2" ry="2"/><rect class="c" x="162" y="98" rx="2" ry="2"/><rect class="c" x="178" y="2" rx="2" ry="2"/><rect class="c" x="178" y="18" rx="2" ry="2"/><rect class="c" x="178" y="34" rx="2" ry="2"/><rect class="c" x="178" y="50" rx="2" ry="2"/><rect class="c" x="178" y="66" rx="2" ry="2"/><rect class="c" x="178" y="82" rx="2" ry="2"/><rect class="c" x="178" y="98" rx="2" ry="2"/><rect class="c" x="194" y="2" rx="2" ry="2"/><rect class="c" x="194" y="18" rx="2" ry="2"/><rect class="c" x="194" y="34" rx="2" ry="2"/><rect class="c" x="194" y="50" rx="2" ry="2"/><rect class="c" x="194" y="66" rx="2" ry="2"/><rect class="c" x="194" y="82" rx="2" ry="2"/><rect class="c" x="194" y="98" rx="2" ry="2"/><rect class="c" x="210" y="2" rx="2" ry="2"/><rect class="c" x="210" y="18" rx="2" ry="2"/><rect class="c" x="210" y="34" rx="2" ry="2"/><rect class="c" x="210" y="50" rx="2" ry="2"/><rect class="c" x="210" y="66" rx="2" ry="2"/><rect class="c" x="210" y="82" rx="2" ry="2"/><rect class="c" x="210" y="98" rx="2" ry="2"/><rect class="c" x="226" y="2" rx="2" ry="2"/><rect class="c" x="226" y="18" rx="2" ry="2"/><rect class="c" x="226" y="34" rx="2" ry="2"/><rect class="c" x="226" y="50" rx="2" ry="2"/><rect class="c" x="226" y="66" rx="2" ry="2"/><rect class="c" x="226" y="82" rx="2" ry="2"/><rect class="c" x="226" y="98" rx="2" ry="2"/><rect class="c" x="242" y="2" rx="2" ry="2"/><rect class="c" x="242" y="18" rx="2" ry="2"/><rect class="c" x="242" y="34" rx="2" ry="2"/><rect class="c" x="242" y="50" rx="2" ry="2"/><rect class="c" x="242" y="66" rx="2" ry="2"/><rect class="c" x="242" y="82" rx="2" ry="2"/><rect class="c" x="242" y="98" rx="2" ry="2"/><rect class="c" x="258" y="2" rx="2" ry="2"/><rect class="c" x="258" y="18" rx="2" ry="2"/><rect class="c" x="258" y="34" rx="2" ry="2"/><rect class="c" x="258" y="50" rx="2" ry="2"/><rect class="c" x="258" y="66" rx="2" ry="2"/><rect class="c" x="258" y="82" rx="2" ry="2"/><rect class="c" x="258" y="98" rx="2" ry="2"/><rect class="c" x="274" y="2" rx="2" ry="2"/><rect class="c" x="274" y="18" rx="2" ry="2"/><rect class="c" x="274" y="34" rx="2" ry="2"/><rect class="c" x="274" y="50" rx="2" ry="2"/><rect class="c" x="274" y="66" rx="2" ry="2"/><rect class="c" x="274" y="82" rx="2" ry="2"/><rect class="c" x="274" y="98" rx="2" ry="2"/><rect class="c" x="290" y="2" rx="2" ry="2"/><rect class="c" x="290" y="18" rx="2" ry="2"/><rect class="c" x="290" y="34" rx="2" ry="2"/><rect class="c" x="290" y="50" rx="2" ry="2"/><rect class="c" x="290" y="66" rx="2" ry="2"/><rect class="c" x="290" y="82" rx="2" ry="2"/><rect class="c" x="290" y="98" rx="2" ry="2"/><rect class="c" x="306" y="2" rx="2" ry="2"/><rect class="c" x="306" y="18" rx="2" ry="2"/><rect class="c" x="306" y="34" rx="2" ry="2"/><rect class="c" x="306" y="50" rx="2" ry="2"/><rect class="c" x="306" y="66" rx="2" ry="2"/><rect class="c" x="306" y="82" rx="2" ry="2"/><rect class="c" x="306" y="98" rx="2" ry="2"/><rect class="c" x="322" y="2" rx="2" ry="2"/><rect class="c" x="322" y="18" rx="2" ry="2"/><rect class="c" x="322" y="34" rx="2" ry="2"/><rect class="c" x="322" y="50" rx="2" ry="2"/><rect class="c" x="322" y="66" rx="2" ry="2"/><rect class="c" x="322" y="82" rx="2" ry="2"/><rect class="c" x="322" y="98" rx="2" ry="2"/><rect class="c" x="338" y="2" rx="2" ry="2"/><rect class="c" x="338" y="18" rx="2" ry="2"/><rect class="c" x="338" y="34" rx="2" ry="2"/><rect class="c" x="338" y="50" rx="2" ry="2"/><rect class="c" x="338" y="66" rx="2" ry="2"/><rect class="c" x="338" y="82" rx="2" ry="2"/><rect class="c" x="338" y="98" rx="2" ry="2"/><rect class="c" x="354" y="2" rx="2" ry="2"/><rect class="c" x="354" y="18" rx="2" ry="2"/><rect class="c" x="354" y="34" rx="2" ry="2"/><rect class="c" x="354" y="50" rx="2" ry="2"/><rect class="c" x="354" y="66" rx="2" ry="2"/><rect class="c" x="354" y="82" rx="2" ry="2"/><rect class="c" x="354" y="98" rx="2" ry="2"/><rect class="c" x="370" y="2" rx="2" ry="2"/><rect class="c" x="370" y="18" rx="2" ry="2"/><rect class="c" x="370" y="34" rx="2" ry="2"/><rect class="c" x="370" y="50" rx="2" ry="2"/><rect class="c" x="370" y="66" rx="2" ry="2"/><rect class="c" x="370" y="82" rx="2" ry="2"/><rect class="c" x="370" y="98" rx="2" ry="2"/><rect class="c" x="386" y="2" rx="2" ry="2"/><rect class="c" x="386" y="18" rx="2" ry="2"/><rect class="c" x="386" y="34" rx="2" ry="2"/><rect class="c" x="386" y="50" rx="2" ry="2"/><rect class="c" x="386" y="66" rx="2" ry="2"/><rect class="c" x="386" y="82" rx="2" ry="2"/><rect class="c" x="386" y="98" rx="2" ry="2"/><rect class="c" x="402" y="2" rx="2" ry="2"/><rect class="c" x="402" y="18" rx="2" ry="2"/><rect class="c" x="402" y="34" rx="2" ry="2"/><rect class="c" x="402" y="50" rx="2" ry="2"/><rect class="c" x="402" y="66" rx="2" ry="2"/><rect class="c" x="402" y="82" rx="2" ry="2"/><rect class="c" x="402" y="98" rx="2" ry="2"/><rect class="c" x="418" y="2" rx="2" ry="2"/><rect class="c" x="418" y="18" rx="2" ry="2"/><rect class="c" x="418" y="34" rx="2" ry="2"/><rect class="c" x="418" y="50" rx="2" ry="2"/><rect class="c" x="418" y="66" rx="2" ry="2"/><rect class="c" x="418" y="82" rx="2" ry="2"/><rect class="c" x="418" y="98" rx="2" ry="2"/><rect class="c" x="434" y="2" rx="2" ry="2"/><rect class="c" x="434" y="18" rx="2" ry="2"/><rect class="c" x="434" y="34" rx="2" ry="2"/><rect class="c" x="434" y="50" rx="2" ry="2"/><rect class="c" x="434" y="66" rx="2" ry="2"/><rect class="c" x="434" y="82" rx="2" ry="2"/><rect class="c" x="434" y="98" rx="2" ry="2"/><rect class="c" x="450" y="2" rx="2" ry="2"/><rect class="c" x="450" y="18" rx="2" ry="2"/><rect class="c" x="450" y="34" rx="2" ry="2"/><rect class="c" x="450" y="50" rx="2" ry="2"/><rect class="c" x="450" y="66" rx="2" ry="2"/><rect class="c" x="450" y="82" rx="2" ry="2"/><rect class="c" x="450" y="98" rx="2" ry="2"/><rect class="c" x="466" y="2" rx="2" ry="2"/><rect class="c" x="466" y="18" rx="2" ry="2"/><rect class="c" x="466" y="34" rx="2" ry="2"/><rect class="c" x="466" y="50" rx="2" ry="2"/><rect class="c" x="466" y="66" rx="2" ry="2"/><rect class="c c0" x="466" y="82" rx="2" ry="2"/><rect class="c" x="466" y="98" rx="2" ry="2"/><rect class="c" x="482" y="2" rx="2" ry="2"/><rect class="c" x="482" y="18" rx="2" ry="2"/><rect class="c" x="482" y="34" rx="2" ry="2"/><rect class="c" x="482" y="50" rx="2" ry="2"/><rect class="c" x="482" y="66" rx="2" ry="2"/><rect class="c c1" x="482" y="82" rx="2" ry="2"/><rect class="c" x="482" y="98" rx="2" ry="2"/><rect class="c" x="498" y="2" rx="2" ry="2"/><rect class="c" x="498" y="18" rx="2" ry="2"/><rect class="c" x="498" y="34" rx="2" ry="2"/><rect class="c" x="498" y="50" rx="2" ry="2"/><rect class="c" x="498" y="66" rx="2" ry="2"/><rect class="c" x="498" y="82" rx="2" ry="2"/><rect class="c" x="498" y="98" rx="2" ry="2"/><rect class="c" x="514" y="2" rx="2" ry="2"/><rect class="c" x="514" y="18" rx="2" ry="2"/><rect class="c" x="514" y="34" rx="2" ry="2"/><rect class="c" x="514" y="50" rx="2" ry="2"/><rect class="c" x="514" y="66" rx="2" ry="2"/><rect class="c" x="514" y="82" rx="2" ry="2"/><rect class="c" x="514" y="98" rx="2" ry="2"/><rect class="c" x="530" y="2" rx="2" ry="2"/><rect class="c c2" x="530" y="18" rx="2" ry="2"/><rect class="c c3" x="530" y="34" rx="2" ry="2"/><rect class="c" x="530" y="50" rx="2" ry="2"/><rect class="c" x="530" y="66" rx="2" ry="2"/><rect class="c" x="530" y="82" rx="2" ry="2"/><rect class="c" x="530" y="98" rx="2" ry="2"/><rect class="c" x="546" y="2" rx="2" ry="2"/><rect class="c c4" x="546" y="18" rx="2" ry="2"/><rect class="c c5" x="546" y="34" rx="2" ry="2"/><rect class="c" x="546" y="50" rx="2" ry="2"/><rect class="c" x="546" y="66" rx="2" ry="2"/><rect class="c" x="546" y="82" rx="2" ry="2"/><rect class="c" x="546" y="98" rx="2" ry="2"/><rect class="c" x="562" y="2" rx="2" ry="2"/><rect class="c" x="562" y="18" rx="2" ry="2"/><rect class="c" x="562" y="34" rx="2" ry="2"/><rect class="c" x="562" y="50" rx="2" ry="2"/><rect class="c" x="562" y="66" rx="2" ry="2"/><rect class="c" x="562" y="82" rx="2" ry="2"/><rect class="c" x="562" y="98" rx="2" ry="2"/><rect class="c" x="578" y="2" rx="2" ry="2"/><rect class="c" x="578" y="18" rx="2" ry="2"/><rect class="c" x="578" y="34" rx="2" ry="2"/><rect class="c" x="578" y="50" rx="2" ry="2"/><rect class="c" x="578" y="66" rx="2" ry="2"/><rect class="c" x="578" y="82" rx="2" ry="2"/><rect class="c" x="578" y="98" rx="2" ry="2"/><rect class="c" x="594" y="2" rx="2" ry="2"/><rect class="c" x="594" y="18" rx="2" ry="2"/><rect class="c" x="594" y="34" rx="2" ry="2"/><rect class="c c6" x="594" y="50" rx="2" ry="2"/><rect class="c c7" x="594" y="66" rx="2" ry="2"/><rect class="c" x="594" y="82" rx="2" ry="2"/><rect class="c" x="594" y="98" rx="2" ry="2"/><rect class="c" x="610" y="2" rx="2" ry="2"/><rect class="c" x="610" y="18" rx="2" ry="2"/><rect class="c" x="610" y="34" rx="2" ry="2"/><rect class="c" x="610" y="50" rx="2" ry="2"/><rect class="c" x="610" y="66" rx="2" ry="2"/><rect class="c" x="610" y="82" rx="2" ry="2"/><rect class="c" x="610" y="98" rx="2" ry="2"/><rect class="c" x="626" y="2" rx="2" ry="2"/><rect class="c" x="626" y="18" rx="2" ry="2"/><rect class="c" x="626" y="34" rx="2" ry="2"/><rect class="c" x="626" y="50" rx="2" ry="2"/><rect class="c" x="626" y="66" rx="2" ry="2"/><rect class="c" x="626" y="82" rx="2" ry="2"/><rect class="c" x="626" y="98" rx="2" ry="2"/><rect class="c" x="642" y="2" rx="2" ry="2"/><rect class="c" x="642" y="18" rx="2" ry="2"/><rect class="c c8" x="642" y="34" rx="2" ry="2"/><rect class="c" x="642" y="50" rx="2" ry="2"/><rect class="c" x="642" y="66" rx="2" ry="2"/><rect class="c" x="642" y="82" rx="2" ry="2"/><rect class="c" x="642" y="98" rx="2" ry="2"/><rect class="c" x="658" y="2" rx="2" ry="2"/><rect class="c" x="658" y="18" rx="2" ry="2"/><rect class="c c9" x="658" y="34" rx="2" ry="2"/><rect class="c ca" x="658" y="50" rx="2" ry="2"/><rect class="c" x="658" y="66" rx="2" ry="2"/><rect class="c" x="658" y="82" rx="2" ry="2"/><rect class="c" x="658" y="98" rx="2" ry="2"/><rect class="c cb" x="674" y="2" rx="2" ry="2"/><rect class="c" x="674" y="18" rx="2" ry="2"/><rect class="c" x="674" y="34" rx="2" ry="2"/><rect class="c" x="674" y="50" rx="2" ry="2"/><rect class="c" x="674" y="66" rx="2" ry="2"/><rect class="c" x="674" y="82" rx="2" ry="2"/><rect class="c" x="674" y="98" rx="2" ry="2"/><rect class="c" x="690" y="2" rx="2" ry="2"/><rect class="c" x="690" y="18" rx="2" ry="2"/><rect class="c" x="690" y="34" rx="2" ry="2"/><rect class="c" x="690" y="50" rx="2" ry="2"/><rect class="c" x="690" y="66" rx="2" ry="2"/><rect class="c" x="690" y="82" rx="2" ry="2"/><rect class="c" x="690" y="98" rx="2" ry="2"/><rect class="c" x="706" y="2" rx="2" ry="2"/><rect class="c" x="706" y="18" rx="2" ry="2"/><rect class="c" x="706" y="34" rx="2" ry="2"/><rect class="c" x="706" y="50" rx="2" ry="2"/><rect class="c" x="706" y="66" rx="2" ry="2"/><rect class="c cc" x="706" y="82" rx="2" ry="2"/><rect class="c cd" x="706" y="98" rx="2" ry="2"/><rect class="c" x="722" y="2" rx="2" ry="2"/><rect class="c ce" x="722" y="18" rx="2" ry="2"/><rect class="c" x="722" y="34" rx="2" ry="2"/><rect class="c" x="722" y="50" rx="2" ry="2"/><rect class="c" x="722" y="66" rx="2" ry="2"/><rect class="c" x="722" y="82" rx="2" ry="2"/><rect class="c" x="722" y="98" rx="2" ry="2"/><rect class="c" x="738" y="2" rx="2" ry="2"/><rect class="c" x="738" y="18" rx="2" ry="2"/><rect class="c" x="738" y="34" rx="2" ry="2"/><rect class="c" x="738" y="50" rx="2" ry="2"/><rect class="c" x="738" y="66" rx="2" ry="2"/><rect class="c" x="738" y="82" rx="2" ry="2"/><rect class="c" x="738" y="98" rx="2" ry="2"/><rect class="c" x="754" y="2" rx="2" ry="2"/><rect class="c" x="754" y="18" rx="2" ry="2"/><rect class="c cf" x="754" y="34" rx="2" ry="2"/><rect class="c" x="754" y="50" rx="2" ry="2"/><rect class="c" x="754" y="66" rx="2" ry="2"/><rect class="c cg" x="754" y="82" rx="2" ry="2"/><rect class="c ch" x="754" y="98" rx="2" ry="2"/><rect class="c" x="770" y="2" rx="2" ry="2"/><rect class="c" x="770" y="18" rx="2" ry="2"/><rect class="c" x="770" y="34" rx="2" ry="2"/><rect class="c" x="770" y="50" rx="2" ry="2"/><rect class="c" x="770" y="66" rx="2" ry="2"/><rect class="c ci" x="770" y="82" rx="2" ry="2"/><rect class="c cj" x="770" y="98" rx="2" ry="2"/><rect class="c" x="786" y="2" rx="2" ry="2"/><rect class="c" x="786" y="18" rx="2" ry="2"/><rect class="c ck" x="786" y="34" rx="2" ry="2"/><rect class="c cl" x="786" y="50" rx="2" ry="2"/><rect class="c" x="786" y="66" rx="2" ry="2"/><rect class="c" x="786" y="82" rx="2" ry="2"/><rect class="c" x="786" y="98" rx="2" ry="2"/><rect class="c" x="802" y="2" rx="2" ry="2"/><rect class="c cm" x="802" y="18" rx="2" ry="2"/><rect class="c cn" x="802" y="34" rx="2" ry="2"/><rect class="c co" x="802" y="50" rx="2" ry="2"/><rect class="c cp" x="802" y="66" rx="2" ry="2"/><rect class="c cq" x="802" y="82" rx="2" ry="2"/><rect class="c cr" x="802" y="98" rx="2" ry="2"/><rect class="c cs" x="818" y="2" rx="2" ry="2"/><rect class="c ct" x="818" y="18" rx="2" ry="2"/><rect class="c cu" x="818" y="34" rx="2" ry="2"/><rect class="c cv" x="818" y="50" rx="2" ry="2"/><rect class="c cw" x="818" y="66" rx="2" ry="2"/><rect class="c cx" x="818" y="82" rx="2" ry="2"/><rect class="c cy" x="818" y="98" rx="2" ry="2"/><rect class="c cz" x="834" y="2" rx="2" ry="2"/><rect class="c c10" x="834" y="18" rx="2" ry="2"/><rect class="c c11" x="834" y="34" rx="2" ry="2"/><rect class="u u0" height="12" width="156.8" x="0.0" y="144"/><rect class="u u1" height="12" width="223.8" x="156.2" y="144"/><rect class="u u2" height="12" width="268.4" x="379.4" y="144"/><rect class="u u3" height="12" width="201.4" x="647.2" y="144"/><rect class="s s0" x="0.8" y="0.8" width="14.4" height="14.4" rx="4.5" ry="4.5"/><rect class="s s1" x="1.8" y="1.8" width="12.3" height="12.3" rx="4.1" ry="4.1"/><rect class="s s2" x="2.6" y="2.6" width="10.8" height="10.8" rx="3.6" ry="3.6"/><rect class="s s3" x="3.0" y="3.0" width="9.9" height="9.9" rx="3.3" ry="3.3"/></svg>