<svg viewBox="-16 -32 880 192" width="880" height="192" xmlns="http://www.w3.org/2000/svg"><desc>Generated with https://github.com/Platane/snk</desc><style>:root{--cb:#1b1f230a;--cs:764ba2;--ce:#ebedf0;--c0:#ebedf0;--c1:#9be9a8;--c2:#40c463;--c3:#30a14e;--c4:#216e39}.c{shape-rendering:geometricPrecision;fill:var(--ce);stroke-width:1px;stroke:var(--cb);animation:none 34700ms linear infinite;width:12px;height:12px}@keyframes c0{12.96%{fill:var(--c1)}12.98%,100%{fill:var(--ce)}}.c.c0{fill:var(--c1);animation-name:c0}@keyframes c1{12.67%{fill:var(--c1)}12.69%,100%{fill:var(--ce)}}.c.c1{fill:var(--c1);animation-name:c1}@keyframes c2{7.77%{fill:var(--c1)}7.79%,100%{fill:var(--ce)}}.c.c2{fill:var(--c1);animation-name:c2}@keyframes c3{8.64%{fill:var(--c1)}8.66%,100%{fill:var(--ce)}}.c.c3{fill:var(--c1);animation-name:c3}@keyframes c4{8.06%{fill:var(--c1)}8.08%,100%{fill:var(--ce)}}.c.c4{fill:var(--c1);animation-name:c4}@keyframes c5{8.35%{fill:var(--c1)}8.37%,100%{fill:var(--ce)}}.c.c5{fill:var(--c1);animation-name:c5}@keyframes c6{10.08%{fill:var(--c1)}10.1%,100%{fill:var(--ce)}}.c.c6{fill:var(--c1);animation-name:c6}@keyframes c7{10.36%{fill:var(--c1)}10.38%,100%{fill:var(--ce)}}.c.c7{fill:var(--c1);animation-name:c7}@keyframes c8{63.68%{fill:var(--c2)}63.7%,100%{fill:var(--ce)}}.c.c8{fill:var(--c2);animation-name:c8}@keyframes c9{63.39%{fill:var(--c2)}63.41%,100%{fill:var(--ce)}}.c.c9{fill:var(--c2);animation-name:c9}@keyframes ca{80.39%{fill:var(--c4)}80.41%,100%{fill:var(--ce)}}.c.ca{fill:var(--c4);animation-name:ca}@keyframes cb{18.15%{fill:var(--c1)}18.17%,100%{fill:var(--ce)}}.c.cb{fill:var(--c1);animation-name:cb}@keyframes cc{78.95%{fill:var(--c3)}78.97%,100%{fill:var(--ce)}}.c.cc{fill:var(--c3);animation-name:cc}@keyframes cd{61.37%{fill:var(--c2)}61.39%,100%{fill:var(--ce)}}.c.cd{fill:var(--c2);animation-name:cd}@keyframes ce{19.3%{fill:var(--c1)}19.32%,100%{fill:var(--ce)}}.c.ce{fill:var(--c1);animation-name:ce}@keyframes cf{55.9%{fill:var(--c2)}55.92%,100%{fill:var(--ce)}}.c.cf{fill:var(--c2);animation-name:cf}@keyframes cg{22.76%{fill:var(--c1)}22.78%,100%{fill:var(--ce)}}.c.cg{fill:var(--c1);animation-name:cg}@keyframes ch{57.05%{fill:var(--c2)}57.07%,100%{fill:var(--ce)}}.c.ch{fill:var(--c2);animation-name:ch}@keyframes ci{22.47%{fill:var(--c1)}22.49%,100%{fill:var(--ce)}}.c.ci{fill:var(--c1);animation-name:ci}@keyframes cj{57.34%{fill:var(--c2)}57.36%,100%{fill:var(--ce)}}.c.cj{fill:var(--c2);animation-name:cj}@keyframes ck{21.32%{fill:var(--c1)}21.34%,100%{fill:var(--ce)}}.c.ck{fill:var(--c1);animation-name:ck}@keyframes cl{55.03%{fill:var(--c2)}55.05%,100%{fill:var(--ce)}}.c.cl{fill:var(--c2);animation-name:cl}@keyframes cm{20.74%{fill:var(--c1)}20.76%,100%{fill:var(--ce)}}.c.cm{fill:var(--c1);animation-name:cm}@keyframes cn{21.03%{fill:var(--c1)}21.05%,100%{fill:var(--ce)}}.c.cn{fill:var(--c1);animation-name:cn}@keyframes co{43.79%{fill:var(--c2)}43.81%,100%{fill:var(--ce)}}.c.co{fill:var(--c2);animation-name:co}@keyframes cp{43.51%{fill:var(--c1)}43.53%,100%{fill:var(--ce)}}.c.cp{fill:var(--c1);animation-name:cp}@keyframes cq{83.56%{fill:var(--c4)}83.58%,100%{fill:var(--ce)}}.c.cq{fill:var(--c4);animation-name:cq}@keyframes cr{57.92%{fill:var(--c2)}57.94%,100%{fill:var(--ce)}}.c.cr{fill:var(--c2);animation-name:cr}@keyframes cs{51.86%{fill:var(--c2)}51.88%,100%{fill:var(--ce)}}.c.cs{fill:var(--c2);animation-name:cs}@keyframes ct{51.58%{fill:var(--c2)}51.6%,100%{fill:var(--ce)}}.c.ct{fill:var(--c2);animation-name:ct}@keyframes cu{53.02%{fill:var(--c2)}53.04%,100%{fill:var(--ce)}}.c.cu{fill:var(--c2);animation-name:cu}@keyframes cv{76.36%{fill:var(--c3)}76.38%,100%{fill:var(--ce)}}.c.cv{fill:var(--c3);animation-name:cv}@keyframes cw{46.1%{fill:var(--c2)}46.12%,100%{fill:var(--ce)}}.c.cw{fill:var(--c2);animation-name:cw}@keyframes cx{59.07%{fill:var(--c2)}59.09%,100%{fill:var(--ce)}}.c.cx{fill:var(--c2);animation-name:cx}@keyframes cy{58.2%{fill:var(--c2)}58.22%,100%{fill:var(--ce)}}.c.cy{fill:var(--c2);animation-name:cy}@keyframes cz{75.21%{fill:var(--c3)}75.23%,100%{fill:var(--ce)}}.c.cz{fill:var(--c3);animation-name:cz}@keyframes c10{51.29%{fill:var(--c2)}51.31%,100%{fill:var(--ce)}}.c.c10{fill:var(--c2);animation-name:c10}@keyframes c11{53.3%{fill:var(--c2)}53.32%,100%{fill:var(--ce)}}.c.c11{fill:var(--c2);animation-name:c11}@keyframes c12{73.77%{fill:var(--c3)}73.79%,100%{fill:var(--ce)}}.c.c12{fill:var(--c3);animation-name:c12}@keyframes c13{46.39%{fill:var(--c1)}46.41%,100%{fill:var(--ce)}}.c.c13{fill:var(--c1);animation-name:c13}@keyframes c14{46.68%{fill:var(--c2)}46.7%,100%{fill:var(--ce)}}.c.c14{fill:var(--c2);animation-name:c14}@keyframes c15{58.49%{fill:var(--c2)}58.51%,100%{fill:var(--ce)}}.c.c15{fill:var(--c2);animation-name:c15}@keyframes c16{50.13%{fill:var(--c2)}50.15%,100%{fill:var(--ce)}}.c.c16{fill:var(--c2);animation-name:c16}@keyframes c17{49.85%{fill:var(--c2)}49.87%,100%{fill:var(--ce)}}.c.c17{fill:var(--c2);animation-name:c17}@keyframes c18{49.56%{fill:var(--c2)}49.58%,100%{fill:var(--ce)}}.c.c18{fill:var(--c2);animation-name:c18}@keyframes c19{74.05%{fill:var(--c3)}74.07%,100%{fill:var(--ce)}}.c.c19{fill:var(--c3);animation-name:c19}@keyframes c1a{84.72%{fill:var(--c4)}84.74%,100%{fill:var(--ce)}}.c.c1a{fill:var(--c4);animation-name:c1a}@keyframes c1b{46.96%{fill:var(--c2)}46.98%,100%{fill:var(--ce)}}.c.c1b{fill:var(--c2);animation-name:c1b}@keyframes c1c{25.93%{fill:var(--c1)}25.95%,100%{fill:var(--ce)}}.c.c1c{fill:var(--c1);animation-name:c1c}@keyframes c1d{50.42%{fill:var(--c2)}50.44%,100%{fill:var(--ce)}}.c.c1d{fill:var(--c2);animation-name:c1d}@keyframes c1e{38.61%{fill:var(--c1)}38.63%,100%{fill:var(--ce)}}.c.c1e{fill:var(--c1);animation-name:c1e}@keyframes c1f{38.32%{fill:var(--c1)}38.34%,100%{fill:var(--ce)}}.c.c1f{fill:var(--c1);animation-name:c1f}@keyframes c1g{85.29%{fill:var(--c4)}85.31%,100%{fill:var(--ce)}}.c.c1g{fill:var(--c4);animation-name:c1g}@keyframes c1h{47.54%{fill:var(--c2)}47.56%,100%{fill:var(--ce)}}.c.c1h{fill:var(--c2);animation-name:c1h}@keyframes c1i{36.3%{fill:var(--c1)}36.32%,100%{fill:var(--ce)}}.c.c1i{fill:var(--c1);animation-name:c1i}@keyframes c1j{26.21%{fill:var(--c1)}26.23%,100%{fill:var(--ce)}}.c.c1j{fill:var(--c1);animation-name:c1j}@keyframes c1k{31.11%{fill:var(--c1)}31.13%,100%{fill:var(--ce)}}.c.c1k{fill:var(--c1);animation-name:c1k}@keyframes c1l{38.89%{fill:var(--c2)}38.91%,100%{fill:var(--ce)}}.c.c1l{fill:var(--c2);animation-name:c1l}@keyframes c1m{38.03%{fill:var(--c1)}38.05%,100%{fill:var(--ce)}}.c.c1m{fill:var(--c1);animation-name:c1m}@keyframes c1n{34.28%{fill:var(--c1)}34.3%,100%{fill:var(--ce)}}.c.c1n{fill:var(--c1);animation-name:c1n}@keyframes c1o{34.57%{fill:var(--c1)}34.59%,100%{fill:var(--ce)}}.c.c1o{fill:var(--c1);animation-name:c1o}@keyframes c1p{36.01%{fill:var(--c1)}36.03%,100%{fill:var(--ce)}}.c.c1p{fill:var(--c1);animation-name:c1p}@keyframes c1q{26.5%{fill:var(--c1)}26.52%,100%{fill:var(--ce)}}.c.c1q{fill:var(--c1);animation-name:c1q}@keyframes c1r{30.83%{fill:var(--c1)}30.85%,100%{fill:var(--ce)}}.c.c1r{fill:var(--c1);animation-name:c1r}@keyframes c1s{32.27%{fill:var(--c1)}32.29%,100%{fill:var(--ce)}}.c.c1s{fill:var(--c1);animation-name:c1s}@keyframes c1t{48.69%{fill:var(--c2)}48.71%,100%{fill:var(--ce)}}.c.c1t{fill:var(--c2);animation-name:c1t}@keyframes c1u{34%{fill:var(--c1)}34.02%,100%{fill:var(--ce)}}.c.c1u{fill:var(--c1);animation-name:c1u}@keyframes c1v{34.86%{fill:var(--c1)}34.88%,100%{fill:var(--ce)}}.c.c1v{fill:var(--c1);animation-name:c1v}@keyframes c1w{35.72%{fill:var(--c1)}35.74%,100%{fill:var(--ce)}}.c.c1w{fill:var(--c1);animation-name:c1w}@keyframes c1x{26.79%{fill:var(--c1)}26.81%,100%{fill:var(--ce)}}.c.c1x{fill:var(--c1);animation-name:c1x}@keyframes c1y{30.54%{fill:var(--c1)}30.56%,100%{fill:var(--ce)}}.c.c1y{fill:var(--c1);animation-name:c1y}@keyframes c1z{32.55%{fill:var(--c1)}32.57%,100%{fill:var(--ce)}}.c.c1z{fill:var(--c1);animation-name:c1z}@keyframes c20{33.42%{fill:var(--c1)}33.44%,100%{fill:var(--ce)}}.c.c20{fill:var(--c1);animation-name:c20}@keyframes c21{33.71%{fill:var(--c1)}33.73%,100%{fill:var(--ce)}}.c.c21{fill:var(--c1);animation-name:c21}@keyframes c22{35.15%{fill:var(--c1)}35.17%,100%{fill:var(--ce)}}.c.c22{fill:var(--c1);animation-name:c22}@keyframes c23{35.44%{fill:var(--c1)}35.46%,100%{fill:var(--ce)}}.c.c23{fill:var(--c1);animation-name:c23}@keyframes c24{27.08%{fill:var(--c1)}27.1%,100%{fill:var(--ce)}}.c.c24{fill:var(--c1);animation-name:c24}@keyframes c25{30.25%{fill:var(--c1)}30.27%,100%{fill:var(--ce)}}.c.c25{fill:var(--c1);animation-name:c25}@keyframes c26{32.84%{fill:var(--c1)}32.86%,100%{fill:var(--ce)}}.c.c26{fill:var(--c1);animation-name:c26}@keyframes c27{28.52%{fill:var(--c1)}28.54%,100%{fill:var(--ce)}}.c.c27{fill:var(--c1);animation-name:c27}@keyframes c28{28.23%{fill:var(--c1)}28.25%,100%{fill:var(--ce)}}.c.c28{fill:var(--c1);animation-name:c28}@keyframes c29{27.94%{fill:var(--c1)}27.96%,100%{fill:var(--ce)}}.c.c29{fill:var(--c1);animation-name:c29}@keyframes c2a{27.66%{fill:var(--c1)}27.68%,100%{fill:var(--ce)}}.c.c2a{fill:var(--c1);animation-name:c2a}@keyframes c2b{27.37%{fill:var(--c1)}27.39%,100%{fill:var(--ce)}}.c.c2b{fill:var(--c1);animation-name:c2b}@keyframes c2c{29.96%{fill:var(--c1)}29.98%,100%{fill:var(--ce)}}.c.c2c{fill:var(--c1);animation-name:c2c}@keyframes c2d{29.1%{fill:var(--c1)}29.12%,100%{fill:var(--ce)}}.c.c2d{fill:var(--c1);animation-name:c2d}@keyframes c2e{28.81%{fill:var(--c1)}28.83%,100%{fill:var(--ce)}}.c.c2e{fill:var(--c1);animation-name:c2e}@keyframes c2f{70.02%{fill:var(--c2)}70.04%,100%{fill:var(--ce)}}.c.c2f{fill:var(--c2);animation-name:c2f}@keyframes c2g{70.31%{fill:var(--c3)}70.33%,100%{fill:var(--ce)}}.c.c2g{fill:var(--c3);animation-name:c2g}@keyframes c2h{70.6%{fill:var(--c3)}70.62%,100%{fill:var(--ce)}}.c.c2h{fill:var(--c3);animation-name:c2h}@keyframes c2i{70.88%{fill:var(--c3)}70.9%,100%{fill:var(--ce)}}.c.c2i{fill:var(--c3);animation-name:c2i}@keyframes c2j{29.67%{fill:var(--c1)}29.69%,100%{fill:var(--ce)}}.c.c2j{fill:var(--c1);animation-name:c2j}@keyframes c2k{29.38%{fill:var(--c1)}29.4%,100%{fill:var(--ce)}}.c.c2k{fill:var(--c1);animation-name:c2k}.u{transform-origin:0 0;transform:scale(0,1);animation:none linear 34700ms infinite}@keyframes u0{7.77%{transform:scale(0.000,1)}7.79%,8.06%{transform:scale(0.020,1)}8.08%,8.35%{transform:scale(0.039,1)}8.37%,8.64%{transform:scale(0.059,1)}8.66%,10.08%{transform:scale(0.078,1)}10.1%,10.36%{transform:scale(0.098,1)}10.38%,12.67%{transform:scale(0.118,1)}12.69%,12.96%{transform:scale(0.137,1)}12.98%,18.15%{transform:scale(0.157,1)}18.17%,19.3%{transform:scale(0.176,1)}19.32%,20.74%{transform:scale(0.196,1)}20.76%,21.03%{transform:scale(0.216,1)}21.05%,21.32%{transform:scale(0.235,1)}21.34%,22.47%{transform:scale(0.255,1)}22.49%,22.76%{transform:scale(0.275,1)}22.78%,25.93%{transform:scale(0.294,1)}25.95%,26.21%{transform:scale(0.314,1)}26.23%,26.5%{transform:scale(0.333,1)}26.52%,26.79%{transform:scale(0.353,1)}26.81%,27.08%{transform:scale(0.373,1)}27.1%,27.37%{transform:scale(0.392,1)}27.39%,27.66%{transform:scale(0.412,1)}27.68%,27.94%{transform:scale(0.431,1)}27.96%,28.23%{transform:scale(0.451,1)}28.25%,28.52%{transform:scale(0.471,1)}28.54%,28.81%{transform:scale(0.490,1)}28.83%,29.1%{transform:scale(0.510,1)}29.12%,29.38%{transform:scale(0.529,1)}29.4%,29.67%{transform:scale(0.549,1)}29.69%,29.96%{transform:scale(0.569,1)}29.98%,30.25%{transform:scale(0.588,1)}30.27%,30.54%{transform:scale(0.608,1)}30.56%,30.83%{transform:scale(0.627,1)}30.85%,31.11%{transform:scale(0.647,1)}31.13%,32.27%{transform:scale(0.667,1)}32.29%,32.55%{transform:scale(0.686,1)}32.57%,32.84%{transform:scale(0.706,1)}32.86%,33.42%{transform:scale(0.725,1)}33.44%,33.71%{transform:scale(0.745,1)}33.73%,34%{transform:scale(0.765,1)}34.02%,34.28%{transform:scale(0.784,1)}34.3%,34.57%{transform:scale(0.804,1)}34.59%,34.86%{transform:scale(0.824,1)}34.88%,35.15%{transform:scale(0.843,1)}35.17%,35.44%{transform:scale(0.863,1)}35.46%,35.72%{transform:scale(0.882,1)}35.74%,36.01%{transform:scale(0.902,1)}36.03%,36.3%{transform:scale(0.922,1)}36.32%,38.03%{transform:scale(0.941,1)}38.05%,38.32%{transform:scale(0.961,1)}38.34%,38.61%{transform:scale(0.980,1)}38.63%,100%{transform:scale(1.000,1)}}.u.u0{fill:var(--c1);animation-name:u0;transform-origin:0.0px 0}@keyframes u1{38.89%{transform:scale(0.000,1)}38.91%,100%{transform:scale(1.000,1)}}.u.u1{fill:var(--c2);animation-name:u1;transform-origin:465.0px 0}@keyframes u2{43.51%{transform:scale(0.000,1)}43.53%,100%{transform:scale(1.000,1)}}.u.u2{fill:var(--c1);animation-name:u2;transform-origin:474.2px 0}@keyframes u3{43.79%{transform:scale(0.000,1)}43.81%,46.1%{transform:scale(0.500,1)}46.12%,100%{transform:scale(1.000,1)}}.u.u3{fill:var(--c2);animation-name:u3;transform-origin:483.3px 0}@keyframes u4{46.39%{transform:scale(0.000,1)}46.41%,100%{transform:scale(1.000,1)}}.u.u4{fill:var(--c1);animation-name:u4;transform-origin:501.5px 0}@keyframes u5{46.68%{transform:scale(0.000,1)}46.7%,46.96%{transform:scale(0.040,1)}46.98%,47.54%{transform:scale(0.080,1)}47.56%,48.69%{transform:scale(0.120,1)}48.71%,49.56%{transform:scale(0.160,1)}49.58%,49.85%{transform:scale(0.200,1)}49.87%,50.13%{transform:scale(0.240,1)}50.15%,50.42%{transform:scale(0.280,1)}50.44%,51.29%{transform:scale(0.320,1)}51.31%,51.58%{transform:scale(0.360,1)}51.6%,51.86%{transform:scale(0.400,1)}51.88%,53.02%{transform:scale(0.440,1)}53.04%,53.3%{transform:scale(0.480,1)}53.32%,55.03%{transform:scale(0.520,1)}55.05%,55.9%{transform:scale(0.560,1)}55.92%,57.05%{transform:scale(0.600,1)}57.07%,57.34%{transform:scale(0.640,1)}57.36%,57.92%{transform:scale(0.680,1)}57.94%,58.2%{transform:scale(0.720,1)}58.22%,58.49%{transform:scale(0.760,1)}58.51%,59.07%{transform:scale(0.800,1)}59.09%,61.37%{transform:scale(0.840,1)}61.39%,63.39%{transform:scale(0.880,1)}63.41%,63.68%{transform:scale(0.920,1)}63.7%,70.02%{transform:scale(0.960,1)}70.04%,100%{transform:scale(1.000,1)}}.u.u5{fill:var(--c2);animation-name:u5;transform-origin:510.6px 0}@keyframes u6{70.31%{transform:scale(0.000,1)}70.33%,70.6%{transform:scale(0.125,1)}70.62%,70.88%{transform:scale(0.250,1)}70.9%,73.77%{transform:scale(0.375,1)}73.79%,74.05%{transform:scale(0.500,1)}74.07%,75.21%{transform:scale(0.625,1)}75.23%,76.36%{transform:scale(0.750,1)}76.38%,78.95%{transform:scale(0.875,1)}78.97%,100%{transform:scale(1.000,1)}}.u.u6{fill:var(--c3);animation-name:u6;transform-origin:738.6px 0}@keyframes u7{80.39%{transform:scale(0.000,1)}80.41%,83.56%{transform:scale(0.250,1)}83.58%,84.72%{transform:scale(0.500,1)}84.74%,85.29%{transform:scale(0.750,1)}85.31%,100%{transform:scale(1.000,1)}}.u.u7{fill:var(--c4);animation-name:u7;transform-origin:811.5px 0}.s{shape-rendering:geometricPrecision;fill:var(--cs);animation:none linear 34700ms infinite}@keyframes s0{0%,99.71%{transform:translate(0px,-16px)}0.29%{transform:translate(0px,0px)}7.49%{transform:translate(400px,0px)}7.78%{transform:translate(400px,16px)}8.07%{transform:translate(416px,16px)}8.36%{transform:translate(416px,32px)}8.65%{transform:translate(400px,32px)}8.93%{transform:translate(400px,48px)}10.09%{transform:translate(464px,48px)}10.37%{transform:translate(464px,64px)}12.39%{transform:translate(352px,64px)}12.68%{transform:translate(352px,80px)}12.97%{transform:translate(336px,80px)}13.26%{transform:translate(336px,64px)}17%{transform:translate(544px,64px)}18.16%{transform:translate(544px,0px)}19.02%{transform:translate(592px,0px)}19.31%{transform:translate(592px,16px)}20.75%,44.38%,52.45%{transform:translate(672px,16px)}21.04%,45.24%{transform:translate(672px,32px)}21.61%,42.36%,55.62%{transform:translate(640px,32px)}22.48%{transform:translate(640px,80px)}22.77%{transform:translate(624px,80px)}23.05%{transform:translate(624px,64px)}23.63%{transform:translate(656px,64px)}24.5%{transform:translate(656px,112px)}25.65%{transform:translate(720px,112px)}25.94%{transform:translate(720px,96px)}27.38%,71.18%{transform:translate(800px,96px)}28.53%,33.14%{transform:translate(800px,32px)}28.82%{transform:translate(816px,32px)}29.11%,69.45%{transform:translate(816px,16px)}29.39%{transform:translate(832px,16px)}29.68%{transform:translate(832px,0px)}31.12%{transform:translate(752px,0px)}31.41%,39.48%{transform:translate(752px,-16px)}31.7%{transform:translate(768px,-16px)}32.28%{transform:translate(768px,16px)}32.85%{transform:translate(800px,16px)}33.43%{transform:translate(784px,32px)}33.72%{transform:translate(784px,48px)}34.29%{transform:translate(752px,48px)}34.58%{transform:translate(752px,64px)}35.16%{transform:translate(784px,64px)}35.45%{transform:translate(784px,80px)}36.31%,47.26%{transform:translate(736px,80px)}36.6%{transform:translate(736px,96px)}36.89%{transform:translate(752px,96px)}38.04%{transform:translate(752px,32px)}38.33%{transform:translate(736px,32px)}38.62%,50.72%{transform:translate(736px,16px)}38.9%{transform:translate(752px,16px)}41.21%{transform:translate(656px,-16px)}42.07%,44.96%{transform:translate(656px,32px)}42.94%{transform:translate(640px,64px)}43.52%,45.82%,83.29%{transform:translate(672px,64px)}44.67%,54.47%{transform:translate(656px,16px)}46.4%{transform:translate(704px,64px)}46.69%,58.79%,73.2%{transform:translate(704px,80px)}47.55%,85.01%{transform:translate(736px,64px)}48.13%{transform:translate(768px,64px)}48.7%{transform:translate(768px,32px)}49.57%{transform:translate(720px,32px)}50.14%,74.93%{transform:translate(720px,0px)}50.43%{transform:translate(736px,0px)}51.59%,52.74%{transform:translate(688px,16px)}51.87%,75.5%{transform:translate(688px,0px)}52.16%{transform:translate(672px,0px)}53.03%{transform:translate(688px,32px)}53.31%{transform:translate(704px,32px)}53.6%{transform:translate(704px,16px)}55.04%{transform:translate(656px,48px)}55.33%{transform:translate(640px,48px)}55.91%{transform:translate(624px,32px)}57.06%{transform:translate(624px,96px)}58.5%{transform:translate(704px,96px)}59.08%{transform:translate(688px,80px)}59.37%{transform:translate(688px,96px)}61.67%{transform:translate(560px,96px)}62.82%{transform:translate(560px,32px)}63.69%{transform:translate(512px,32px)}63.98%{transform:translate(512px,16px)}70.89%{transform:translate(816px,96px)}71.47%{transform:translate(800px,80px)}73.78%{transform:translate(704px,48px)}74.06%{transform:translate(720px,48px)}76.37%{transform:translate(688px,48px)}78.39%{transform:translate(576px,48px)}78.96%{transform:translate(576px,80px)}79.25%{transform:translate(560px,80px)}79.83%{transform:translate(560px,48px)}80.4%{transform:translate(528px,48px)}80.69%{transform:translate(528px,64px)}83.57%{transform:translate(672px,80px)}84.44%{transform:translate(720px,80px)}84.73%{transform:translate(720px,64px)}85.3%{transform:translate(736px,48px)}97.12%{transform:translate(80px,48px)}97.69%{transform:translate(80px,16px)}97.98%{transform:translate(64px,16px)}98.56%{transform:translate(64px,-16px)}}.s.s0{transform:translate(0px,-16px);animation-name:s0}@keyframes s1{0%,99.71%{transform:translate(16px,-16px)}0.29%{transform:translate(0px,-16px)}0.58%{transform:translate(0px,0px)}7.78%{transform:translate(400px,0px)}8.07%{transform:translate(400px,16px)}8.36%{transform:translate(416px,16px)}8.65%{transform:translate(416px,32px)}8.93%{transform:translate(400px,32px)}9.22%{transform:translate(400px,48px)}10.37%{transform:translate(464px,48px)}10.66%{transform:translate(464px,64px)}12.68%{transform:translate(352px,64px)}12.97%{transform:translate(352px,80px)}13.26%{transform:translate(336px,80px)}13.54%{transform:translate(336px,64px)}17.29%{transform:translate(544px,64px)}18.44%{transform:translate(544px,0px)}19.31%{transform:translate(592px,0px)}19.6%{transform:translate(592px,16px)}21.04%,44.67%,52.74%{transform:translate(672px,16px)}21.33%,45.53%{transform:translate(672px,32px)}21.9%,42.65%,55.91%{transform:translate(640px,32px)}22.77%{transform:translate(640px,80px)}23.05%{transform:translate(624px,80px)}23.34%{transform:translate(624px,64px)}23.92%{transform:translate(656px,64px)}24.78%{transform:translate(656px,112px)}25.94%{transform:translate(720px,112px)}26.22%{transform:translate(720px,96px)}27.67%,71.47%{transform:translate(800px,96px)}28.82%,33.43%{transform:translate(800px,32px)}29.11%{transform:translate(816px,32px)}29.39%,69.74%{transform:translate(816px,16px)}29.68%{transform:translate(832px,16px)}29.97%{transform:translate(832px,0px)}31.41%{transform:translate(752px,0px)}31.7%,39.77%{transform:translate(752px,-16px)}31.99%{transform:translate(768px,-16px)}32.56%{transform:translate(768px,16px)}33.14%{transform:translate(800px,16px)}33.72%{transform:translate(784px,32px)}34.01%{transform:translate(784px,48px)}34.58%{transform:translate(752px,48px)}34.87%{transform:translate(752px,64px)}35.45%{transform:translate(784px,64px)}35.73%{transform:translate(784px,80px)}36.6%,47.55%{transform:translate(736px,80px)}36.89%{transform:translate(736px,96px)}37.18%{transform:translate(752px,96px)}38.33%{transform:translate(752px,32px)}38.62%{transform:translate(736px,32px)}38.9%,51.01%{transform:translate(736px,16px)}39.19%{transform:translate(752px,16px)}41.5%{transform:translate(656px,-16px)}42.36%,45.24%{transform:translate(656px,32px)}43.23%{transform:translate(640px,64px)}43.8%,46.11%,83.57%{transform:translate(672px,64px)}44.96%,54.76%{transform:translate(656px,16px)}46.69%{transform:translate(704px,64px)}46.97%,59.08%,73.49%{transform:translate(704px,80px)}47.84%,85.3%{transform:translate(736px,64px)}48.41%{transform:translate(768px,64px)}48.99%{transform:translate(768px,32px)}49.86%{transform:translate(720px,32px)}50.43%,75.22%{transform:translate(720px,0px)}50.72%{transform:translate(736px,0px)}51.87%,53.03%{transform:translate(688px,16px)}52.16%,75.79%{transform:translate(688px,0px)}52.45%{transform:translate(672px,0px)}53.31%{transform:translate(688px,32px)}53.6%{transform:translate(704px,32px)}53.89%{transform:translate(704px,16px)}55.33%{transform:translate(656px,48px)}55.62%{transform:translate(640px,48px)}56.2%{transform:translate(624px,32px)}57.35%{transform:translate(624px,96px)}58.79%{transform:translate(704px,96px)}59.37%{transform:translate(688px,80px)}59.65%{transform:translate(688px,96px)}61.96%{transform:translate(560px,96px)}63.11%{transform:translate(560px,32px)}63.98%{transform:translate(512px,32px)}64.27%{transform:translate(512px,16px)}71.18%{transform:translate(816px,96px)}71.76%{transform:translate(800px,80px)}74.06%{transform:translate(704px,48px)}74.35%{transform:translate(720px,48px)}76.66%{transform:translate(688px,48px)}78.67%{transform:translate(576px,48px)}79.25%{transform:translate(576px,80px)}79.54%{transform:translate(560px,80px)}80.12%{transform:translate(560px,48px)}80.69%{transform:translate(528px,48px)}80.98%{transform:translate(528px,64px)}83.86%{transform:translate(672px,80px)}84.73%{transform:translate(720px,80px)}85.01%{transform:translate(720px,64px)}85.59%{transform:translate(736px,48px)}97.41%{transform:translate(80px,48px)}97.98%{transform:translate(80px,16px)}98.27%{transform:translate(64px,16px)}98.85%{transform:translate(64px,-16px)}}.s.s1{transform:translate(16px,-16px);animation-name:s1}@keyframes s2{0%,99.71%{transform:translate(32px,-16px)}0.58%{transform:translate(0px,-16px)}0.86%{transform:translate(0px,0px)}8.07%{transform:translate(400px,0px)}8.36%{transform:translate(400px,16px)}8.65%{transform:translate(416px,16px)}8.93%{transform:translate(416px,32px)}9.22%{transform:translate(400px,32px)}9.51%{transform:translate(400px,48px)}10.66%{transform:translate(464px,48px)}10.95%{transform:translate(464px,64px)}12.97%{transform:translate(352px,64px)}13.26%{transform:translate(352px,80px)}13.54%{transform:translate(336px,80px)}13.83%{transform:translate(336px,64px)}17.58%{transform:translate(544px,64px)}18.73%{transform:translate(544px,0px)}19.6%{transform:translate(592px,0px)}19.88%{transform:translate(592px,16px)}21.33%,44.96%,53.03%{transform:translate(672px,16px)}21.61%,45.82%{transform:translate(672px,32px)}22.19%,42.94%,56.2%{transform:translate(640px,32px)}23.05%{transform:translate(640px,80px)}23.34%{transform:translate(624px,80px)}23.63%{transform:translate(624px,64px)}24.21%{transform:translate(656px,64px)}25.07%{transform:translate(656px,112px)}26.22%{transform:translate(720px,112px)}26.51%{transform:translate(720px,96px)}27.95%,71.76%{transform:translate(800px,96px)}29.11%,33.72%{transform:translate(800px,32px)}29.39%{transform:translate(816px,32px)}29.68%,70.03%{transform:translate(816px,16px)}29.97%{transform:translate(832px,16px)}30.26%{transform:translate(832px,0px)}31.7%{transform:translate(752px,0px)}31.99%,40.06%{transform:translate(752px,-16px)}32.28%{transform:translate(768px,-16px)}32.85%{transform:translate(768px,16px)}33.43%{transform:translate(800px,16px)}34.01%{transform:translate(784px,32px)}34.29%{transform:translate(784px,48px)}34.87%{transform:translate(752px,48px)}35.16%{transform:translate(752px,64px)}35.73%{transform:translate(784px,64px)}36.02%{transform:translate(784px,80px)}36.89%,47.84%{transform:translate(736px,80px)}37.18%{transform:translate(736px,96px)}37.46%{transform:translate(752px,96px)}38.62%{transform:translate(752px,32px)}38.9%{transform:translate(736px,32px)}39.19%,51.3%{transform:translate(736px,16px)}39.48%{transform:translate(752px,16px)}41.79%{transform:translate(656px,-16px)}42.65%,45.53%{transform:translate(656px,32px)}43.52%{transform:translate(640px,64px)}44.09%,46.4%,83.86%{transform:translate(672px,64px)}45.24%,55.04%{transform:translate(656px,16px)}46.97%{transform:translate(704px,64px)}47.26%,59.37%,73.78%{transform:translate(704px,80px)}48.13%,85.59%{transform:translate(736px,64px)}48.7%{transform:translate(768px,64px)}49.28%{transform:translate(768px,32px)}50.14%{transform:translate(720px,32px)}50.72%,75.5%{transform:translate(720px,0px)}51.01%{transform:translate(736px,0px)}52.16%,53.31%{transform:translate(688px,16px)}52.45%,76.08%{transform:translate(688px,0px)}52.74%{transform:translate(672px,0px)}53.6%{transform:translate(688px,32px)}53.89%{transform:translate(704px,32px)}54.18%{transform:translate(704px,16px)}55.62%{transform:translate(656px,48px)}55.91%{transform:translate(640px,48px)}56.48%{transform:translate(624px,32px)}57.64%{transform:translate(624px,96px)}59.08%{transform:translate(704px,96px)}59.65%{transform:translate(688px,80px)}59.94%{transform:translate(688px,96px)}62.25%{transform:translate(560px,96px)}63.4%{transform:translate(560px,32px)}64.27%{transform:translate(512px,32px)}64.55%{transform:translate(512px,16px)}71.47%{transform:translate(816px,96px)}72.05%{transform:translate(800px,80px)}74.35%{transform:translate(704px,48px)}74.64%{transform:translate(720px,48px)}76.95%{transform:translate(688px,48px)}78.96%{transform:translate(576px,48px)}79.54%{transform:translate(576px,80px)}79.83%{transform:translate(560px,80px)}80.4%{transform:translate(560px,48px)}80.98%{transform:translate(528px,48px)}81.27%{transform:translate(528px,64px)}84.15%{transform:translate(672px,80px)}85.01%{transform:translate(720px,80px)}85.3%{transform:translate(720px,64px)}85.88%{transform:translate(736px,48px)}97.69%{transform:translate(80px,48px)}98.27%{transform:translate(80px,16px)}98.56%{transform:translate(64px,16px)}99.14%{transform:translate(64px,-16px)}}.s.s2{transform:translate(32px,-16px);animation-name:s2}@keyframes s3{0%,99.71%{transform:translate(48px,-16px)}0.86%{transform:translate(0px,-16px)}1.15%{transform:translate(0px,0px)}8.36%{transform:translate(400px,0px)}8.65%{transform:translate(400px,16px)}8.93%{transform:translate(416px,16px)}9.22%{transform:translate(416px,32px)}9.51%{transform:translate(400px,32px)}9.8%{transform:translate(400px,48px)}10.95%{transform:translate(464px,48px)}11.24%{transform:translate(464px,64px)}13.26%{transform:translate(352px,64px)}13.54%{transform:translate(352px,80px)}13.83%{transform:translate(336px,80px)}14.12%{transform:translate(336px,64px)}17.87%{transform:translate(544px,64px)}19.02%{transform:translate(544px,0px)}19.88%{transform:translate(592px,0px)}20.17%{transform:translate(592px,16px)}21.61%,45.24%,53.31%{transform:translate(672px,16px)}21.9%,46.11%{transform:translate(672px,32px)}22.48%,43.23%,56.48%{transform:translate(640px,32px)}23.34%{transform:translate(640px,80px)}23.63%{transform:translate(624px,80px)}23.92%{transform:translate(624px,64px)}24.5%{transform:translate(656px,64px)}25.36%{transform:translate(656px,112px)}26.51%{transform:translate(720px,112px)}26.8%{transform:translate(720px,96px)}28.24%,72.05%{transform:translate(800px,96px)}29.39%,34.01%{transform:translate(800px,32px)}29.68%{transform:translate(816px,32px)}29.97%,70.32%{transform:translate(816px,16px)}30.26%{transform:translate(832px,16px)}30.55%{transform:translate(832px,0px)}31.99%{transform:translate(752px,0px)}32.28%,40.35%{transform:translate(752px,-16px)}32.56%{transform:translate(768px,-16px)}33.14%{transform:translate(768px,16px)}33.72%{transform:translate(800px,16px)}34.29%{transform:translate(784px,32px)}34.58%{transform:translate(784px,48px)}35.16%{transform:translate(752px,48px)}35.45%{transform:translate(752px,64px)}36.02%{transform:translate(784px,64px)}36.31%{transform:translate(784px,80px)}37.18%,48.13%{transform:translate(736px,80px)}37.46%{transform:translate(736px,96px)}37.75%{transform:translate(752px,96px)}38.9%{transform:translate(752px,32px)}39.19%{transform:translate(736px,32px)}39.48%,51.59%{transform:translate(736px,16px)}39.77%{transform:translate(752px,16px)}42.07%{transform:translate(656px,-16px)}42.94%,45.82%{transform:translate(656px,32px)}43.8%{transform:translate(640px,64px)}44.38%,46.69%,84.15%{transform:translate(672px,64px)}45.53%,55.33%{transform:translate(656px,16px)}47.26%{transform:translate(704px,64px)}47.55%,59.65%,74.06%{transform:translate(704px,80px)}48.41%,85.88%{transform:translate(736px,64px)}48.99%{transform:translate(768px,64px)}49.57%{transform:translate(768px,32px)}50.43%{transform:translate(720px,32px)}51.01%,75.79%{transform:translate(720px,0px)}51.3%{transform:translate(736px,0px)}52.45%,53.6%{transform:translate(688px,16px)}52.74%,76.37%{transform:translate(688px,0px)}53.03%{transform:translate(672px,0px)}53.89%{transform:translate(688px,32px)}54.18%{transform:translate(704px,32px)}54.47%{transform:translate(704px,16px)}55.91%{transform:translate(656px,48px)}56.2%{transform:translate(640px,48px)}56.77%{transform:translate(624px,32px)}57.93%{transform:translate(624px,96px)}59.37%{transform:translate(704px,96px)}59.94%{transform:translate(688px,80px)}60.23%{transform:translate(688px,96px)}62.54%{transform:translate(560px,96px)}63.69%{transform:translate(560px,32px)}64.55%{transform:translate(512px,32px)}64.84%{transform:translate(512px,16px)}71.76%{transform:translate(816px,96px)}72.33%{transform:translate(800px,80px)}74.64%{transform:translate(704px,48px)}74.93%{transform:translate(720px,48px)}77.23%{transform:translate(688px,48px)}79.25%{transform:translate(576px,48px)}79.83%{transform:translate(576px,80px)}80.12%{transform:translate(560px,80px)}80.69%{transform:translate(560px,48px)}81.27%{transform:translate(528px,48px)}81.56%{transform:translate(528px,64px)}84.44%{transform:translate(672px,80px)}85.3%{transform:translate(720px,80px)}85.59%{transform:translate(720px,64px)}86.17%{transform:translate(736px,48px)}97.98%{transform:translate(80px,48px)}98.56%{transform:translate(80px,16px)}98.85%{transform:translate(64px,16px)}99.42%{transform:translate(64px,-16px)}}.s.s3{transform:translate(48px,-16px);animation-name:s3}</style><rect class="c" x="2" y="2" rx="2" ry="2"/><rect class="c" x="2" y="18" rx="2" ry="2"/><rect class="c" x="2" y="34" rx="2" ry="2"/><rect class="c" x="2" y="50" rx="2" ry="2"/><rect class="c" x="2" y="66" rx="2" ry="2"/><rect class="c" x="2" y="82" rx="2" ry="2"/><rect class="c" x="2" y="98" rx="2" ry="2"/><rect class="c" x="18" y="2" rx="2" ry="2"/><rect class="c" x="18" y="18" rx="2" ry="2"/><rect class="c" x="18" y="34" rx="2" ry="2"/><rect class="c" x="18" y="50" rx="2" ry="2"/><rect class="c" x="18" y="66" rx="2" ry="2"/><rect class="c" x="18" y="82" rx="2" ry="2"/><rect class="c" x="18" y="98" rx="2" ry="2"/><rect class="c" x="34" y="2" rx="2" ry="2"/><rect class="c" x="34" y="18" rx="2" ry="2"/><rect class="c" x="34" y="34" rx="2" ry="2"/><rect class="c" x="34" y="50" rx="2" ry="2"/><rect class="c" x="34" y="66" rx="2" ry="2"/><rect class="c" x="34" y="82" rx="2" ry="2"/><rect class="c" x="34" y="98" rx="2" ry="2"/><rect class="c" x="50" y="2" rx="2" ry="2"/><rect class="c" x="50" y="18" rx="2" ry="2"/><rect class="c" x="50" y="34" rx="2" ry="2"/><rect class="c" x="50" y="50" rx="2" ry="2"/><rect class="c" x="50" y="66" rx="2" ry="2"/><rect class="c" x="50" y="82" rx="2" ry="2"/><rect class="c" x="50" y="98" rx="2" ry="2"/><rect class="c" x="66" y="2" rx="2" ry="2"/><rect class="c" x="66" y="18" rx="2" ry="2"/><rect class="c" x="66" y="34" rx="2" ry="2"/><rect class="c" x="66" y="50" rx="2" ry="2"/><rect class="c" x="66" y="66" rx="2" ry="2"/><rect class="c" x="66" y="82" rx="2" ry="2"/><rect class="c" x="66" y="98" rx="2" ry="2"/><rect class="c" x="82" y="2" rx="2" ry="2"/><rect class="c" x="82" y="18" rx="2" ry="2"/><rect class="c" x="82" y="34" rx="2" ry="2"/><rect class="c" x="82" y="50" rx="2" ry="2"/><rect class="c" x="82" y="66" rx="2" ry="2"/><rect class="c" x="82" y="82" rx="2" ry="2"/><rect class="c" x="82" y="98" rx="2" ry="2"/><rect class="c" x="98" y="2" rx="2" ry="2"/><rect class="c" x="98" y="18" rx="2" ry="2"/><rect class="c" x="98" y="34" rx="2" ry="2"/><rect class="c" x="98" y="50" rx="2" ry="2"/><rect class="c" x="98" y="66" rx="2" ry="2"/><rect class="c" x="98" y="82" rx="2" ry="2"/><rect class="c" x="98" y="98" rx="2" ry="2"/><rect class="c" x="114" y="2" rx="2" ry="2"/><rect class="c" x="114" y="18" rx="2" ry="2"/><rect class="c" x="114" y="34" rx="2" ry="2"/><rect class="c" x="114" y="50" rx="2" ry="2"/><rect class="c" x="114" y="66" rx="2" ry="2"/><rect class="c" x="114" y="82" rx="2" ry="2"/><rect class="c" x="114" y="98" rx="2" ry="2"/><rect class="c" x="130" y="2" rx="2" ry="2"/><rect class="c" x="130" y="18" rx="2" ry="2"/><rect class="c" x="130" y="34" rx="2" ry="2"/><rect class="c" x="130" y="50" rx="2" ry="2"/><rect class="c" x="130" y="66" rx="2" ry="2"/><rect class="c" x="130" y="82" rx="2" ry="2"/><rect class="c" x="130" y="98" rx="2" ry="2"/><rect class="c" x="146" y="2" rx="2" ry="2"/><rect class="c" x="146" y="18" rx="2" ry="2"/><rect class="c" x="146" y="34" rx="2" ry="2"/><rect class="c" x="146" y="50" rx="2" ry="2"/><rect class="c" x="146" y="66" rx="2" ry="2"/><rect class="c" x="146" y="82" rx="2" ry="2"/><rect class="c" x="146" y="98" rx="2" ry="2"/><rect class="c" x="162" y="2" rx="2" ry="2"/><rect class="c" x="162" y="18" rx="2" ry="2"/><rect class="c" x="162" y="34" rx="2" ry="2"/><rect class="c" x="162" y="50" rx="2" ry="2"/><rect class="c" x="162" y="66" rx="2" ry="2"/><rect class="c" x="162" y="82" rx="2" ry="2"/><rect class="c" x="162" y="98" rx="2" ry="2"/><rect class="c" x="178" y="2" rx="2" ry="2"/><rect class="c" x="178" y="18" rx="2" ry="2"/><rect class="c" x="178" y="34" rx="2" ry="2"/><rect class="c" x="178" y="50" rx="2" ry="2"/><rect class="c" x="178" y="66" rx="2" ry="2"/><rect class="c" x="178" y="82" rx="2" ry="2"/><rect class="c" x="178" y="98" rx="2" ry="2"/><rect class="c" x="194" y="2" rx="2" ry="2"/><rect class="c" x="194" y="18" rx="2" ry="2"/><rect class="c" x="194" y="34" rx="2" ry="2"/><rect class="c" x="194" y="50" rx="2" ry="2"/><rect class="c" x="194" y="66" rx="2" ry="2"/><rect class="c" x="194" y="82" rx="2" ry="2"/><rect class="c" x="194" y="98" rx="2" ry="2"/><rect class="c" x="210" y="2" rx="2" ry="2"/><rect class="c" x="210" y="18" rx="2" ry="2"/><rect class="c" x="210" y="34" rx="2" ry="2"/><rect class="c" x="210" y="50" rx="2" ry="2"/><rect class="c" x="210" y="66" rx="2" ry="2"/><rect class="c" x="210" y="82" rx="2" ry="2"/><rect class="c" x="210" y="98" rx="2" ry="2"/><rect class="c" x="226" y="2" rx="2" ry="2"/><rect class="c" x="226" y="18" rx="2" ry="2"/><rect class="c" x="226" y="34" rx="2" ry="2"/><rect class="c" x="226" y="50" rx="2" ry="2"/><rect class="c" x="226" y="66" rx="2" ry="2"/><rect class="c" x="226" y="82" rx="2" ry="2"/><rect class="c" x="226" y="98" rx="2" ry="2"/><rect class="c" x="242" y="2" rx="2" ry="2"/><rect class="c" x="242" y="18" rx="2" ry="2"/><rect class="c" x="242" y="34" rx="2" ry="2"/><rect class="c" x="242" y="50" rx="2" ry="2"/><rect class="c" x="242" y="66" rx="2" ry="2"/><rect class="c" x="242" y="82" rx="2" ry="2"/><rect class="c" x="242" y="98" rx="2" ry="2"/><rect class="c" x="258" y="2" rx="2" ry="2"/><rect class="c" x="258" y="18" rx="2" ry="2"/><rect class="c" x="258" y="34" rx="2" ry="2"/><rect class="c" x="258" y="50" rx="2" ry="2"/><rect class="c" x="258" y="66" rx="2" ry="2"/><rect class="c" x="258" y="82" rx="2" ry="2"/><rect class="c" x="258" y="98" rx="2" ry="2"/><rect class="c" x="274" y="2" rx="2" ry="2"/><rect class="c" x="274" y="18" rx="2" ry="2"/><rect class="c" x="274" y="34" rx="2" ry="2"/><rect class="c" x="274" y="50" rx="2" ry="2"/><rect class="c" x="274" y="66" rx="2" ry="2"/><rect class="c" x="274" y="82" rx="2" ry="2"/><rect class="c" x="274" y="98" rx="2" ry="2"/><rect class="c" x="290" y="2" rx="2" ry="2"/><rect class="c" x="290" y="18" rx="2" ry="2"/><rect class="c" x="290" y="34" rx="2" ry="2"/><rect class="c" x="290" y="50" rx="2" ry="2"/><rect class="c" x="290" y="66" rx="2" ry="2"/><rect class="c" x="290" y="82" rx="2" ry="2"/><rect class="c" x="290" y="98" rx="2" ry="2"/><rect class="c" x="306" y="2" rx="2" ry="2"/><rect class="c" x="306" y="18" rx="2" ry="2"/><rect class="c" x="306" y="34" rx="2" ry="2"/><rect class="c" x="306" y="50" rx="2" ry="2"/><rect class="c" x="306" y="66" rx="2" ry="2"/><rect class="c" x="306" y="82" rx="2" ry="2"/><rect class="c" x="306" y="98" rx="2" ry="2"/><rect class="c" x="322" y="2" rx="2" ry="2"/><rect class="c" x="322" y="18" rx="2" ry="2"/><rect class="c" x="322" y="34" rx="2" ry="2"/><rect class="c" x="322" y="50" rx="2" ry="2"/><rect class="c" x="322" y="66" rx="2" ry="2"/><rect class="c" x="322" y="82" rx="2" ry="2"/><rect class="c" x="322" y="98" rx="2" ry="2"/><rect class="c" x="338" y="2" rx="2" ry="2"/><rect class="c" x="338" y="18" rx="2" ry="2"/><rect class="c" x="338" y="34" rx="2" ry="2"/><rect class="c" x="338" y="50" rx="2" ry="2"/><rect class="c" x="338" y="66" rx="2" ry="2"/><rect class="c c0" x="338" y="82" rx="2" ry="2"/><rect class="c" x="338" y="98" rx="2" ry="2"/><rect class="c" x="354" y="2" rx="2" ry="2"/><rect class="c" x="354" y="18" rx="2" ry="2"/><rect class="c" x="354" y="34" rx="2" ry="2"/><rect class="c" x="354" y="50" rx="2" ry="2"/><rect class="c" x="354" y="66" rx="2" ry="2"/><rect class="c c1" x="354" y="82" rx="2" ry="2"/><rect class="c" x="354" y="98" rx="2" ry="2"/><rect class="c" x="370" y="2" rx="2" ry="2"/><rect class="c" x="370" y="18" rx="2" ry="2"/><rect class="c" x="370" y="34" rx="2" ry="2"/><rect class="c" x="370" y="50" rx="2" ry="2"/><rect class="c" x="370" y="66" rx="2" ry="2"/><rect class="c" x="370" y="82" rx="2" ry="2"/><rect class="c" x="370" y="98" rx="2" ry="2"/><rect class="c" x="386" y="2" rx="2" ry="2"/><rect class="c" x="386" y="18" rx="2" ry="2"/><rect class="c" x="386" y="34" rx="2" ry="2"/><rect class="c" x="386" y="50" rx="2" ry="2"/><rect class="c" x="386" y="66" rx="2" ry="2"/><rect class="c" x="386" y="82" rx="2" ry="2"/><rect class="c" x="386" y="98" rx="2" ry="2"/><rect class="c" x="402" y="2" rx="2" ry="2"/><rect class="c c2" x="402" y="18" rx="2" ry="2"/><rect class="c c3" x="402" y="34" rx="2" ry="2"/><rect class="c" x="402" y="50" rx="2" ry="2"/><rect class="c" x="402" y="66" rx="2" ry="2"/><rect class="c" x="402" y="82" rx="2" ry="2"/><rect class="c" x="402" y="98" rx="2" ry="2"/><rect class="c" x="418" y="2" rx="2" ry="2"/><rect class="c c4" x="418" y="18" rx="2" ry="2"/><rect class="c c5" x="418" y="34" rx="2" ry="2"/><rect class="c" x="418" y="50" rx="2" ry="2"/><rect class="c" x="418" y="66" rx="2" ry="2"/><rect class="c" x="418" y="82" rx="2" ry="2"/><rect class="c" x="418" y="98" rx="2" ry="2"/><rect class="c" x="434" y="2" rx="2" ry="2"/><rect class="c" x="434" y="18" rx="2" ry="2"/><rect class="c" x="434" y="34" rx="2" ry="2"/><rect class="c" x="434" y="50" rx="2" ry="2"/><rect class="c" x="434" y="66" rx="2" ry="2"/><rect class="c" x="434" y="82" rx="2" ry="2"/><rect class="c" x="434" y="98" rx="2" ry="2"/><rect class="c" x="450" y="2" rx="2" ry="2"/><rect class="c" x="450" y="18" rx="2" ry="2"/><rect class="c" x="450" y="34" rx="2" ry="2"/><rect class="c" x="450" y="50" rx="2" ry="2"/><rect class="c" x="450" y="66" rx="2" ry="2"/><rect class="c" x="450" y="82" rx="2" ry="2"/><rect class="c" x="450" y="98" rx="2" ry="2"/><rect class="c" x="466" y="2" rx="2" ry="2"/><rect class="c" x="466" y="18" rx="2" ry="2"/><rect class="c" x="466" y="34" rx="2" ry="2"/><rect class="c c6" x="466" y="50" rx="2" ry="2"/><rect class="c c7" x="466" y="66" rx="2" ry="2"/><rect class="c" x="466" y="82" rx="2" ry="2"/><rect class="c" x="466" y="98" rx="2" ry="2"/><rect class="c" x="482" y="2" rx="2" ry="2"/><rect class="c" x="482" y="18" rx="2" ry="2"/><rect class="c" x="482" y="34" rx="2" ry="2"/><rect class="c" x="482" y="50" rx="2" ry="2"/><rect class="c" x="482" y="66" rx="2" ry="2"/><rect class="c" x="482" y="82" rx="2" ry="2"/><rect class="c" x="482" y="98" rx="2" ry="2"/><rect class="c" x="498" y="2" rx="2" ry="2"/><rect class="c" x="498" y="18" rx="2" ry="2"/><rect class="c" x="498" y="34" rx="2" ry="2"/><rect class="c" x="498" y="50" rx="2" ry="2"/><rect class="c" x="498" y="66" rx="2" ry="2"/><rect class="c" x="498" y="82" rx="2" ry="2"/><rect class="c" x="498" y="98" rx="2" ry="2"/><rect class="c" x="514" y="2" rx="2" ry="2"/><rect class="c" x="514" y="18" rx="2" ry="2"/><rect class="c c8" x="514" y="34" rx="2" ry="2"/><rect class="c" x="514" y="50" rx="2" ry="2"/><rect class="c" x="514" y="66" rx="2" ry="2"/><rect class="c" x="514" y="82" rx="2" ry="2"/><rect class="c" x="514" y="98" rx="2" ry="2"/><rect class="c" x="530" y="2" rx="2" ry="2"/><rect class="c" x="530" y="18" rx="2" ry="2"/><rect class="c c9" x="530" y="34" rx="2" ry="2"/><rect class="c ca" x="530" y="50" rx="2" ry="2"/><rect class="c" x="530" y="66" rx="2" ry="2"/><rect class="c" x="530" y="82" rx="2" ry="2"/><rect class="c" x="530" y="98" rx="2" ry="2"/><rect class="c cb" x="546" y="2" rx="2" ry="2"/><rect class="c" x="546" y="18" rx="2" ry="2"/><rect class="c" x="546" y="34" rx="2" ry="2"/><rect class="c" x="546" y="50" rx="2" ry="2"/><rect class="c" x="546" y="66" rx="2" ry="2"/><rect class="c" x="546" y="82" rx="2" ry="2"/><rect class="c" x="546" y="98" rx="2" ry="2"/><rect class="c" x="562" y="2" rx="2" ry="2"/><rect class="c" x="562" y="18" rx="2" ry="2"/><rect class="c" x="562" y="34" rx="2" ry="2"/><rect class="c" x="562" y="50" rx="2" ry="2"/><rect class="c" x="562" y="66" rx="2" ry="2"/><rect class="c" x="562" y="82" rx="2" ry="2"/><rect class="c" x="562" y="98" rx="2" ry="2"/><rect class="c" x="578" y="2" rx="2" ry="2"/><rect class="c" x="578" y="18" rx="2" ry="2"/><rect class="c" x="578" y="34" rx="2" ry="2"/><rect class="c" x="578" y="50" rx="2" ry="2"/><rect class="c" x="578" y="66" rx="2" ry="2"/><rect class="c cc" x="578" y="82" rx="2" ry="2"/><rect class="c cd" x="578" y="98" rx="2" ry="2"/><rect class="c" x="594" y="2" rx="2" ry="2"/><rect class="c ce" x="594" y="18" rx="2" ry="2"/><rect class="c" x="594" y="34" rx="2" ry="2"/><rect class="c" x="594" y="50" rx="2" ry="2"/><rect class="c" x="594" y="66" rx="2" ry="2"/><rect class="c" x="594" y="82" rx="2" ry="2"/><rect class="c" x="594" y="98" rx="2" ry="2"/><rect class="c" x="610" y="2" rx="2" ry="2"/><rect class="c" x="610" y="18" rx="2" ry="2"/><rect class="c" x="610" y="34" rx="2" ry="2"/><rect class="c" x="610" y="50" rx="2" ry="2"/><rect class="c" x="610" y="66" rx="2" ry="2"/><rect class="c" x="610" y="82" rx="2" ry="2"/><rect class="c" x="610" y="98" rx="2" ry="2"/><rect class="c" x="626" y="2" rx="2" ry="2"/><rect class="c" x="626" y="18" rx="2" ry="2"/><rect class="c cf" x="626" y="34" rx="2" ry="2"/><rect class="c" x="626" y="50" rx="2" ry="2"/><rect class="c" x="626" y="66" rx="2" ry="2"/><rect class="c cg" x="626" y="82" rx="2" ry="2"/><rect class="c ch" x="626" y="98" rx="2" ry="2"/><rect class="c" x="642" y="2" rx="2" ry="2"/><rect class="c" x="642" y="18" rx="2" ry="2"/><rect class="c" x="642" y="34" rx="2" ry="2"/><rect class="c" x="642" y="50" rx="2" ry="2"/><rect class="c" x="642" y="66" rx="2" ry="2"/><rect class="c ci" x="642" y="82" rx="2" ry="2"/><rect class="c cj" x="642" y="98" rx="2" ry="2"/><rect class="c" x="658" y="2" rx="2" ry="2"/><rect class="c" x="658" y="18" rx="2" ry="2"/><rect class="c ck" x="658" y="34" rx="2" ry="2"/><rect class="c cl" x="658" y="50" rx="2" ry="2"/><rect class="c" x="658" y="66" rx="2" ry="2"/><rect class="c" x="658" y="82" rx="2" ry="2"/><rect class="c" x="658" y="98" rx="2" ry="2"/><rect class="c" x="674" y="2" rx="2" ry="2"/><rect class="c cm" x="674" y="18" rx="2" ry="2"/><rect class="c cn" x="674" y="34" rx="2" ry="2"/><rect class="c co" x="674" y="50" rx="2" ry="2"/><rect class="c cp" x="674" y="66" rx="2" ry="2"/><rect class="c cq" x="674" y="82" rx="2" ry="2"/><rect class="c cr" x="674" y="98" rx="2" ry="2"/><rect class="c cs" x="690" y="2" rx="2" ry="2"/><rect class="c ct" x="690" y="18" rx="2" ry="2"/><rect class="c cu" x="690" y="34" rx="2" ry="2"/><rect class="c cv" x="690" y="50" rx="2" ry="2"/><rect class="c cw" x="690" y="66" rx="2" ry="2"/><rect class="c cx" x="690" y="82" rx="2" ry="2"/><rect class="c cy" x="690" y="98" rx="2" ry="2"/><rect class="c cz" x="706" y="2" rx="2" ry="2"/><rect class="c c10" x="706" y="18" rx="2" ry="2"/><rect class="c c11" x="706" y="34" rx="2" ry="2"/><rect class="c c12" x="706" y="50" rx="2" ry="2"/><rect class="c c13" x="706" y="66" rx="2" ry="2"/><rect class="c c14" x="706" y="82" rx="2" ry="2"/><rect class="c c15" x="706" y="98" rx="2" ry="2"/><rect class="c c16" x="722" y="2" rx="2" ry="2"/><rect class="c c17" x="722" y="18" rx="2" ry="2"/><rect class="c c18" x="722" y="34" rx="2" ry="2"/><rect class="c c19" x="722" y="50" rx="2" ry="2"/><rect class="c c1a" x="722" y="66" rx="2" ry="2"/><rect class="c c1b" x="722" y="82" rx="2" ry="2"/><rect class="c c1c" x="722" y="98" rx="2" ry="2"/><rect class="c c1d" x="738" y="2" rx="2" ry="2"/><rect class="c c1e" x="738" y="18" rx="2" ry="2"/><rect class="c c1f" x="738" y="34" rx="2" ry="2"/><rect class="c c1g" x="738" y="50" rx="2" ry="2"/><rect class="c c1h" x="738" y="66" rx="2" ry="2"/><rect class="c c1i" x="738" y="82" rx="2" ry="2"/><rect class="c c1j" x="738" y="98" rx="2" ry="2"/><rect class="c c1k" x="754" y="2" rx="2" ry="2"/><rect class="c c1l" x="754" y="18" rx="2" ry="2"/><rect class="c c1m" x="754" y="34" rx="2" ry="2"/><rect class="c c1n" x="754" y="50" rx="2" ry="2"/><rect class="c c1o" x="754" y="66" rx="2" ry="2"/><rect class="c c1p" x="754" y="82" rx="2" ry="2"/><rect class="c c1q" x="754" y="98" rx="2" ry="2"/><rect class="c c1r" x="770" y="2" rx="2" ry="2"/><rect class="c c1s" x="770" y="18" rx="2" ry="2"/><rect class="c c1t" x="770" y="34" rx="2" ry="2"/><rect class="c c1u" x="770" y="50" rx="2" ry="2"/><rect class="c c1v" x="770" y="66" rx="2" ry="2"/><rect class="c c1w" x="770" y="82" rx="2" ry="2"/><rect class="c c1x" x="770" y="98" rx="2" ry="2"/><rect class="c c1y" x="786" y="2" rx="2" ry="2"/><rect class="c c1z" x="786" y="18" rx="2" ry="2"/><rect class="c c20" x="786" y="34" rx="2" ry="2"/><rect class="c c21" x="786" y="50" rx="2" ry="2"/><rect class="c c22" x="786" y="66" rx="2" ry="2"/><rect class="c c23" x="786" y="82" rx="2" ry="2"/><rect class="c c24" x="786" y="98" rx="2" ry="2"/><rect class="c c25" x="802" y="2" rx="2" ry="2"/><rect class="c c26" x="802" y="18" rx="2" ry="2"/><rect class="c c27" x="802" y="34" rx="2" ry="2"/><rect class="c c28" x="802" y="50" rx="2" ry="2"/><rect class="c c29" x="802" y="66" rx="2" ry="2"/><rect class="c c2a" x="802" y="82" rx="2" ry="2"/><rect class="c c2b" x="802" y="98" rx="2" ry="2"/><rect class="c c2c" x="818" y="2" rx="2" ry="2"/><rect class="c c2d" x="818" y="18" rx="2" ry="2"/><rect class="c c2e" x="818" y="34" rx="2" ry="2"/><rect class="c c2f" x="818" y="50" rx="2" ry="2"/><rect class="c c2g" x="818" y="66" rx="2" ry="2"/><rect class="c c2h" x="818" y="82" rx="2" ry="2"/><rect class="c c2i" x="818" y="98" rx="2" ry="2"/><rect class="c c2j" x="834" y="2" rx="2" ry="2"/><rect class="c c2k" x="834" y="18" rx="2" ry="2"/><rect class="u u0" height="12" width="465.6" x="0.0" y="144"/><rect class="u u1" height="12" width="9.7" x="465.0" y="144"/><rect class="u u2" height="12" width="9.7" x="474.2" y="144"/><rect class="u u3" height="12" width="18.8" x="483.3" y="144"/><rect class="u u4" height="12" width="9.7" x="501.5" y="144"/><rect class="u u5" height="12" width="228.6" x="510.6" y="144"/><rect class="u u6" height="12" width="73.5" x="738.6" y="144"/><rect class="u u7" height="12" width="37.1" x="811.5" y="144"/><rect class="s s0" x="0.8" y="0.8" width="14.4" height="14.4" rx="4.5" ry="4.5"/><rect class="s s1" x="1.8" y="1.8" width="12.3" height="12.3" rx="4.1" ry="4.1"/><rect class="s s2" x="2.6" y="2.6" width="10.8" height="10.8" rx="3.6" ry="3.6"/><rect class="s s3" x="3.0" y="3.0" width="9.9" height="9.9" rx="3.3" ry="3.3"/></svg>