<svg viewBox="-16 -32 880 192" width="880" height="192" xmlns="http://www.w3.org/2000/svg"><desc>Generated with https://github.com/Platane/snk</desc><style>:root{--cb:#1b1f230a;--cs:764ba2;--ce:#ebedf0;--c0:#ebedf0;--c1:#9be9a8;--c2:#40c463;--c3:#30a14e;--c4:#216e39}.c{shape-rendering:geometricPrecision;fill:var(--ce);stroke-width:1px;stroke:var(--cb);animation:none 24500ms linear infinite;width:12px;height:12px}@keyframes c0{21.21%{fill:var(--c1)}21.23%,100%{fill:var(--ce)}}.c.c0{fill:var(--c1);animation-name:c0}@keyframes c1{20.81%{fill:var(--c1)}20.83%,100%{fill:var(--ce)}}.c.c1{fill:var(--c1);animation-name:c1}@keyframes c2{13.87%{fill:var(--c1)}13.89%,100%{fill:var(--ce)}}.c.c2{fill:var(--c1);animation-name:c2}@keyframes c3{15.09%{fill:var(--c1)}15.11%,100%{fill:var(--ce)}}.c.c3{fill:var(--c1);animation-name:c3}@keyframes c4{14.28%{fill:var(--c1)}14.3%,100%{fill:var(--ce)}}.c.c4{fill:var(--c1);animation-name:c4}@keyframes c5{14.68%{fill:var(--c1)}14.7%,100%{fill:var(--ce)}}.c.c5{fill:var(--c1);animation-name:c5}@keyframes c6{17.13%{fill:var(--c1)}17.15%,100%{fill:var(--ce)}}.c.c6{fill:var(--c1);animation-name:c6}@keyframes c7{17.54%{fill:var(--c1)}17.56%,100%{fill:var(--ce)}}.c.c7{fill:var(--c1);animation-name:c7}@keyframes c8{50.6%{fill:var(--c2)}50.62%,100%{fill:var(--ce)}}.c.c8{fill:var(--c2);animation-name:c8}@keyframes c9{50.19%{fill:var(--c2)}50.21%,100%{fill:var(--ce)}}.c.c9{fill:var(--c2);animation-name:c9}@keyframes ca{70.19%{fill:var(--c4)}70.21%,100%{fill:var(--ce)}}.c.ca{fill:var(--c4);animation-name:ca}@keyframes cb{28.56%{fill:var(--c1)}28.58%,100%{fill:var(--ce)}}.c.cb{fill:var(--c1);animation-name:cb}@keyframes cc{68.15%{fill:var(--c3)}68.17%,100%{fill:var(--ce)}}.c.cc{fill:var(--c3);animation-name:cc}@keyframes cd{47.34%{fill:var(--c2)}47.36%,100%{fill:var(--ce)}}.c.cd{fill:var(--c2);animation-name:cd}@keyframes ce{30.19%{fill:var(--c1)}30.21%,100%{fill:var(--ce)}}.c.ce{fill:var(--c1);animation-name:ce}@keyframes cf{54.28%{fill:var(--c2)}54.3%,100%{fill:var(--ce)}}.c.cf{fill:var(--c2);animation-name:cf}@keyframes cg{35.09%{fill:var(--c1)}35.11%,100%{fill:var(--ce)}}.c.cg{fill:var(--c1);animation-name:cg}@keyframes ch{46.11%{fill:var(--c2)}46.13%,100%{fill:var(--ce)}}.c.ch{fill:var(--c2);animation-name:ch}@keyframes ci{34.68%{fill:var(--c1)}34.7%,100%{fill:var(--ce)}}.c.ci{fill:var(--c1);animation-name:ci}@keyframes cj{45.7%{fill:var(--c2)}45.72%,100%{fill:var(--ce)}}.c.cj{fill:var(--c2);animation-name:cj}@keyframes ck{33.05%{fill:var(--c1)}33.07%,100%{fill:var(--ce)}}.c.ck{fill:var(--c1);animation-name:ck}@keyframes cl{55.5%{fill:var(--c2)}55.52%,100%{fill:var(--ce)}}.c.cl{fill:var(--c2);animation-name:cl}@keyframes cm{32.23%{fill:var(--c1)}32.25%,100%{fill:var(--ce)}}.c.cm{fill:var(--c1);animation-name:cm}@keyframes cn{32.64%{fill:var(--c1)}32.66%,100%{fill:var(--ce)}}.c.cn{fill:var(--c1);animation-name:cn}@keyframes co{37.13%{fill:var(--c2)}37.15%,100%{fill:var(--ce)}}.c.co{fill:var(--c2);animation-name:co}@keyframes cp{36.72%{fill:var(--c1)}36.74%,100%{fill:var(--ce)}}.c.cp{fill:var(--c1);animation-name:cp}@keyframes cq{74.68%{fill:var(--c4)}74.7%,100%{fill:var(--ce)}}.c.cq{fill:var(--c4);animation-name:cq}@keyframes cr{44.89%{fill:var(--c2)}44.91%,100%{fill:var(--ce)}}.c.cr{fill:var(--c2);animation-name:cr}@keyframes cs{60.81%{fill:var(--c2)}60.83%,100%{fill:var(--ce)}}.c.cs{fill:var(--c2);animation-name:cs}@keyframes ct{60.4%{fill:var(--c2)}60.42%,100%{fill:var(--ce)}}.c.ct{fill:var(--c2);animation-name:ct}@keyframes cu{56.72%{fill:var(--c2)}56.74%,100%{fill:var(--ce)}}.c.cu{fill:var(--c2);animation-name:cu}@keyframes cv{64.48%{fill:var(--c3)}64.5%,100%{fill:var(--ce)}}.c.cv{fill:var(--c3);animation-name:cv}@keyframes cw{40.4%{fill:var(--c2)}40.42%,100%{fill:var(--ce)}}.c.cw{fill:var(--c2);animation-name:cw}@keyframes cx{43.26%{fill:var(--c2)}43.28%,100%{fill:var(--ce)}}.c.cx{fill:var(--c2);animation-name:cx}@keyframes cy{42.85%{fill:var(--c2)}42.87%,100%{fill:var(--ce)}}.c.cy{fill:var(--c2);animation-name:cy}@keyframes cz{61.21%{fill:var(--c3)}61.23%,100%{fill:var(--ce)}}.c.cz{fill:var(--c3);animation-name:cz}@keyframes c10{59.99%{fill:var(--c2)}60.01%,100%{fill:var(--ce)}}.c.c10{fill:var(--c2);animation-name:c10}@keyframes c11{57.13%{fill:var(--c2)}57.15%,100%{fill:var(--ce)}}.c.c11{fill:var(--c2);animation-name:c11}@keyframes c12{62.44%{fill:var(--c3)}62.46%,100%{fill:var(--ce)}}.c.c12{fill:var(--c3);animation-name:c12}@keyframes c13{40.81%{fill:var(--c1)}40.83%,100%{fill:var(--ce)}}.c.c13{fill:var(--c1);animation-name:c13}@keyframes c14{41.21%{fill:var(--c2)}41.23%,100%{fill:var(--ce)}}.c.c14{fill:var(--c2);animation-name:c14}@keyframes c15{42.44%{fill:var(--c2)}42.46%,100%{fill:var(--ce)}}.c.c15{fill:var(--c2);animation-name:c15}@keyframes c16{58.36%{fill:var(--c2)}58.38%,100%{fill:var(--ce)}}.c.c16{fill:var(--c2);animation-name:c16}@keyframes c17{57.95%{fill:var(--c2)}57.97%,100%{fill:var(--ce)}}.c.c17{fill:var(--c2);animation-name:c17}@keyframes c18{57.54%{fill:var(--c2)}57.56%,100%{fill:var(--ce)}}.c.c18{fill:var(--c2);animation-name:c18}@keyframes c19{62.85%{fill:var(--c3)}62.87%,100%{fill:var(--ce)}}.c.c19{fill:var(--c3);animation-name:c19}@keyframes c1a{76.32%{fill:var(--c4)}76.34%,100%{fill:var(--ce)}}.c.c1a{fill:var(--c4);animation-name:c1a}@keyframes c1b{41.62%{fill:var(--c2)}41.64%,100%{fill:var(--ce)}}.c.c1b{fill:var(--c2);animation-name:c1b}.u{transform-origin:0 0;transform:scale(0,1);animation:none linear 24500ms infinite}@keyframes u0{13.87%{transform:scale(0.000,1)}13.89%,14.28%{transform:scale(0.063,1)}14.3%,14.68%{transform:scale(0.125,1)}14.7%,15.09%{transform:scale(0.188,1)}15.11%,17.13%{transform:scale(0.250,1)}17.15%,17.54%{transform:scale(0.313,1)}17.56%,20.81%{transform:scale(0.375,1)}20.83%,21.21%{transform:scale(0.438,1)}21.23%,28.56%{transform:scale(0.500,1)}28.58%,30.19%{transform:scale(0.563,1)}30.21%,32.23%{transform:scale(0.625,1)}32.25%,32.64%{transform:scale(0.688,1)}32.66%,33.05%{transform:scale(0.750,1)}33.07%,34.68%{transform:scale(0.813,1)}34.7%,35.09%{transform:scale(0.875,1)}35.11%,36.72%{transform:scale(0.938,1)}36.74%,100%{transform:scale(1.000,1)}}.u.u0{fill:var(--c1);animation-name:u0;transform-origin:0.0px 0}@keyframes u1{37.13%{transform:scale(0.000,1)}37.15%,40.4%{transform:scale(0.500,1)}40.42%,100%{transform:scale(1.000,1)}}.u.u1{fill:var(--c2);animation-name:u1;transform-origin:282.7px 0}@keyframes u2{40.81%{transform:scale(0.000,1)}40.83%,100%{transform:scale(1.000,1)}}.u.u2{fill:var(--c1);animation-name:u2;transform-origin:318.0px 0}@keyframes u3{41.21%{transform:scale(0.000,1)}41.23%,41.62%{transform:scale(0.048,1)}41.64%,42.44%{transform:scale(0.095,1)}42.46%,42.85%{transform:scale(0.143,1)}42.87%,43.26%{transform:scale(0.190,1)}43.28%,44.89%{transform:scale(0.238,1)}44.91%,45.7%{transform:scale(0.286,1)}45.72%,46.11%{transform:scale(0.333,1)}46.13%,47.34%{transform:scale(0.381,1)}47.36%,50.19%{transform:scale(0.429,1)}50.21%,50.6%{transform:scale(0.476,1)}50.62%,54.28%{transform:scale(0.524,1)}54.3%,55.5%{transform:scale(0.571,1)}55.52%,56.72%{transform:scale(0.619,1)}56.74%,57.13%{transform:scale(0.667,1)}57.15%,57.54%{transform:scale(0.714,1)}57.56%,57.95%{transform:scale(0.762,1)}57.97%,58.36%{transform:scale(0.810,1)}58.38%,59.99%{transform:scale(0.857,1)}60.01%,60.4%{transform:scale(0.905,1)}60.42%,60.81%{transform:scale(0.952,1)}60.83%,100%{transform:scale(1.000,1)}}.u.u3{fill:var(--c2);animation-name:u3;transform-origin:335.7px 0}@keyframes u4{61.21%{transform:scale(0.000,1)}61.23%,62.44%{transform:scale(0.200,1)}62.46%,62.85%{transform:scale(0.400,1)}62.87%,64.48%{transform:scale(0.600,1)}64.5%,68.15%{transform:scale(0.800,1)}68.17%,100%{transform:scale(1.000,1)}}.u.u4{fill:var(--c3);animation-name:u4;transform-origin:706.7px 0}@keyframes u5{70.19%{transform:scale(0.000,1)}70.21%,74.68%{transform:scale(0.333,1)}74.7%,76.32%{transform:scale(0.667,1)}76.34%,100%{transform:scale(1.000,1)}}.u.u5{fill:var(--c4);animation-name:u5;transform-origin:795.0px 0}.s{shape-rendering:geometricPrecision;fill:var(--cs);animation:none linear 24500ms infinite}@keyframes s0{0%,99.59%{transform:translate(0px,-16px)}0.41%{transform:translate(0px,0px)}13.47%{transform:translate(512px,0px)}13.88%{transform:translate(512px,16px)}14.29%{transform:translate(528px,16px)}14.69%{transform:translate(528px,32px)}15.1%{transform:translate(512px,32px)}15.51%{transform:translate(512px,48px)}17.14%{transform:translate(576px,48px)}17.55%{transform:translate(576px,64px)}20.41%{transform:translate(464px,64px)}20.82%{transform:translate(464px,80px)}21.22%{transform:translate(448px,80px)}21.63%{transform:translate(448px,64px)}26.94%{transform:translate(656px,64px)}28.57%{transform:translate(656px,0px)}29.8%{transform:translate(704px,0px)}30.2%{transform:translate(704px,16px)}32.24%,37.96%{transform:translate(784px,16px)}32.65%,39.18%,56.33%{transform:translate(784px,32px)}33.47%{transform:translate(752px,32px)}34.69%{transform:translate(752px,80px)}35.1%{transform:translate(736px,80px)}35.51%{transform:translate(736px,64px)}36.73%,40%,74.29%{transform:translate(784px,64px)}38.37%{transform:translate(768px,16px)}38.78%,55.1%{transform:translate(768px,32px)}40.82%{transform:translate(816px,64px)}41.22%,43.67%{transform:translate(816px,80px)}41.63%,75.92%{transform:translate(832px,80px)}42.04%{transform:translate(832px,96px)}42.86%{transform:translate(800px,96px)}43.27%{transform:translate(800px,80px)}44.08%{transform:translate(816px,96px)}47.76%{transform:translate(672px,96px)}49.39%{transform:translate(672px,32px)}50.61%{transform:translate(624px,32px)}51.02%{transform:translate(624px,16px)}53.88%{transform:translate(736px,16px)}54.29%{transform:translate(736px,32px)}55.51%{transform:translate(768px,48px)}55.92%{transform:translate(784px,48px)}57.55%,63.27%{transform:translate(832px,32px)}58.37%{transform:translate(832px,0px)}58.78%{transform:translate(848px,0px)}59.18%{transform:translate(848px,16px)}60.41%{transform:translate(800px,16px)}60.82%{transform:translate(800px,0px)}61.22%{transform:translate(816px,0px)}62.45%{transform:translate(816px,48px)}62.86%{transform:translate(832px,48px)}64.08%{transform:translate(800px,32px)}64.49%{transform:translate(800px,48px)}67.35%{transform:translate(688px,48px)}68.16%{transform:translate(688px,80px)}68.57%{transform:translate(672px,80px)}69.39%{transform:translate(672px,48px)}70.2%{transform:translate(640px,48px)}70.61%{transform:translate(640px,64px)}74.69%{transform:translate(784px,80px)}76.33%{transform:translate(832px,64px)}94.69%{transform:translate(112px,64px)}95.51%{transform:translate(112px,32px)}96.73%{transform:translate(64px,32px)}97.55%{transform:translate(64px,0px)}97.96%{transform:translate(48px,0px)}98.37%{transform:translate(48px,-16px)}}.s.s0{transform:translate(0px,-16px);animation-name:s0}@keyframes s1{0%,99.59%{transform:translate(16px,-16px)}0.41%{transform:translate(0px,-16px)}0.82%{transform:translate(0px,0px)}13.88%{transform:translate(512px,0px)}14.29%{transform:translate(512px,16px)}14.69%{transform:translate(528px,16px)}15.1%{transform:translate(528px,32px)}15.51%{transform:translate(512px,32px)}15.92%{transform:translate(512px,48px)}17.55%{transform:translate(576px,48px)}17.96%{transform:translate(576px,64px)}20.82%{transform:translate(464px,64px)}21.22%{transform:translate(464px,80px)}21.63%{transform:translate(448px,80px)}22.04%{transform:translate(448px,64px)}27.35%{transform:translate(656px,64px)}28.98%{transform:translate(656px,0px)}30.2%{transform:translate(704px,0px)}30.61%{transform:translate(704px,16px)}32.65%,38.37%{transform:translate(784px,16px)}33.06%,39.59%,56.73%{transform:translate(784px,32px)}33.88%{transform:translate(752px,32px)}35.1%{transform:translate(752px,80px)}35.51%{transform:translate(736px,80px)}35.92%{transform:translate(736px,64px)}37.14%,40.41%,74.69%{transform:translate(784px,64px)}38.78%{transform:translate(768px,16px)}39.18%,55.51%{transform:translate(768px,32px)}41.22%{transform:translate(816px,64px)}41.63%,44.08%{transform:translate(816px,80px)}42.04%,76.33%{transform:translate(832px,80px)}42.45%{transform:translate(832px,96px)}43.27%{transform:translate(800px,96px)}43.67%{transform:translate(800px,80px)}44.49%{transform:translate(816px,96px)}48.16%{transform:translate(672px,96px)}49.8%{transform:translate(672px,32px)}51.02%{transform:translate(624px,32px)}51.43%{transform:translate(624px,16px)}54.29%{transform:translate(736px,16px)}54.69%{transform:translate(736px,32px)}55.92%{transform:translate(768px,48px)}56.33%{transform:translate(784px,48px)}57.96%,63.67%{transform:translate(832px,32px)}58.78%{transform:translate(832px,0px)}59.18%{transform:translate(848px,0px)}59.59%{transform:translate(848px,16px)}60.82%{transform:translate(800px,16px)}61.22%{transform:translate(800px,0px)}61.63%{transform:translate(816px,0px)}62.86%{transform:translate(816px,48px)}63.27%{transform:translate(832px,48px)}64.49%{transform:translate(800px,32px)}64.9%{transform:translate(800px,48px)}67.76%{transform:translate(688px,48px)}68.57%{transform:translate(688px,80px)}68.98%{transform:translate(672px,80px)}69.8%{transform:translate(672px,48px)}70.61%{transform:translate(640px,48px)}71.02%{transform:translate(640px,64px)}75.1%{transform:translate(784px,80px)}76.73%{transform:translate(832px,64px)}95.1%{transform:translate(112px,64px)}95.92%{transform:translate(112px,32px)}97.14%{transform:translate(64px,32px)}97.96%{transform:translate(64px,0px)}98.37%{transform:translate(48px,0px)}98.78%{transform:translate(48px,-16px)}}.s.s1{transform:translate(16px,-16px);animation-name:s1}@keyframes s2{0%,99.59%{transform:translate(32px,-16px)}0.82%{transform:translate(0px,-16px)}1.22%{transform:translate(0px,0px)}14.29%{transform:translate(512px,0px)}14.69%{transform:translate(512px,16px)}15.1%{transform:translate(528px,16px)}15.51%{transform:translate(528px,32px)}15.92%{transform:translate(512px,32px)}16.33%{transform:translate(512px,48px)}17.96%{transform:translate(576px,48px)}18.37%{transform:translate(576px,64px)}21.22%{transform:translate(464px,64px)}21.63%{transform:translate(464px,80px)}22.04%{transform:translate(448px,80px)}22.45%{transform:translate(448px,64px)}27.76%{transform:translate(656px,64px)}29.39%{transform:translate(656px,0px)}30.61%{transform:translate(704px,0px)}31.02%{transform:translate(704px,16px)}33.06%,38.78%{transform:translate(784px,16px)}33.47%,40%,57.14%{transform:translate(784px,32px)}34.29%{transform:translate(752px,32px)}35.51%{transform:translate(752px,80px)}35.92%{transform:translate(736px,80px)}36.33%{transform:translate(736px,64px)}37.55%,40.82%,75.1%{transform:translate(784px,64px)}39.18%{transform:translate(768px,16px)}39.59%,55.92%{transform:translate(768px,32px)}41.63%{transform:translate(816px,64px)}42.04%,44.49%{transform:translate(816px,80px)}42.45%,76.73%{transform:translate(832px,80px)}42.86%{transform:translate(832px,96px)}43.67%{transform:translate(800px,96px)}44.08%{transform:translate(800px,80px)}44.9%{transform:translate(816px,96px)}48.57%{transform:translate(672px,96px)}50.2%{transform:translate(672px,32px)}51.43%{transform:translate(624px,32px)}51.84%{transform:translate(624px,16px)}54.69%{transform:translate(736px,16px)}55.1%{transform:translate(736px,32px)}56.33%{transform:translate(768px,48px)}56.73%{transform:translate(784px,48px)}58.37%,64.08%{transform:translate(832px,32px)}59.18%{transform:translate(832px,0px)}59.59%{transform:translate(848px,0px)}60%{transform:translate(848px,16px)}61.22%{transform:translate(800px,16px)}61.63%{transform:translate(800px,0px)}62.04%{transform:translate(816px,0px)}63.27%{transform:translate(816px,48px)}63.67%{transform:translate(832px,48px)}64.9%{transform:translate(800px,32px)}65.31%{transform:translate(800px,48px)}68.16%{transform:translate(688px,48px)}68.98%{transform:translate(688px,80px)}69.39%{transform:translate(672px,80px)}70.2%{transform:translate(672px,48px)}71.02%{transform:translate(640px,48px)}71.43%{transform:translate(640px,64px)}75.51%{transform:translate(784px,80px)}77.14%{transform:translate(832px,64px)}95.51%{transform:translate(112px,64px)}96.33%{transform:translate(112px,32px)}97.55%{transform:translate(64px,32px)}98.37%{transform:translate(64px,0px)}98.78%{transform:translate(48px,0px)}99.18%{transform:translate(48px,-16px)}}.s.s2{transform:translate(32px,-16px);animation-name:s2}@keyframes s3{0%,99.59%{transform:translate(48px,-16px)}1.22%{transform:translate(0px,-16px)}1.63%{transform:translate(0px,0px)}14.69%{transform:translate(512px,0px)}15.1%{transform:translate(512px,16px)}15.51%{transform:translate(528px,16px)}15.92%{transform:translate(528px,32px)}16.33%{transform:translate(512px,32px)}16.73%{transform:translate(512px,48px)}18.37%{transform:translate(576px,48px)}18.78%{transform:translate(576px,64px)}21.63%{transform:translate(464px,64px)}22.04%{transform:translate(464px,80px)}22.45%{transform:translate(448px,80px)}22.86%{transform:translate(448px,64px)}28.16%{transform:translate(656px,64px)}29.8%{transform:translate(656px,0px)}31.02%{transform:translate(704px,0px)}31.43%{transform:translate(704px,16px)}33.47%,39.18%{transform:translate(784px,16px)}33.88%,40.41%,57.55%{transform:translate(784px,32px)}34.69%{transform:translate(752px,32px)}35.92%{transform:translate(752px,80px)}36.33%{transform:translate(736px,80px)}36.73%{transform:translate(736px,64px)}37.96%,41.22%,75.51%{transform:translate(784px,64px)}39.59%{transform:translate(768px,16px)}40%,56.33%{transform:translate(768px,32px)}42.04%{transform:translate(816px,64px)}42.45%,44.9%{transform:translate(816px,80px)}42.86%,77.14%{transform:translate(832px,80px)}43.27%{transform:translate(832px,96px)}44.08%{transform:translate(800px,96px)}44.49%{transform:translate(800px,80px)}45.31%{transform:translate(816px,96px)}48.98%{transform:translate(672px,96px)}50.61%{transform:translate(672px,32px)}51.84%{transform:translate(624px,32px)}52.24%{transform:translate(624px,16px)}55.1%{transform:translate(736px,16px)}55.51%{transform:translate(736px,32px)}56.73%{transform:translate(768px,48px)}57.14%{transform:translate(784px,48px)}58.78%,64.49%{transform:translate(832px,32px)}59.59%{transform:translate(832px,0px)}60%{transform:translate(848px,0px)}60.41%{transform:translate(848px,16px)}61.63%{transform:translate(800px,16px)}62.04%{transform:translate(800px,0px)}62.45%{transform:translate(816px,0px)}63.67%{transform:translate(816px,48px)}64.08%{transform:translate(832px,48px)}65.31%{transform:translate(800px,32px)}65.71%{transform:translate(800px,48px)}68.57%{transform:translate(688px,48px)}69.39%{transform:translate(688px,80px)}69.8%{transform:translate(672px,80px)}70.61%{transform:translate(672px,48px)}71.43%{transform:translate(640px,48px)}71.84%{transform:translate(640px,64px)}75.92%{transform:translate(784px,80px)}77.55%{transform:translate(832px,64px)}95.92%{transform:translate(112px,64px)}96.73%{transform:translate(112px,32px)}97.96%{transform:translate(64px,32px)}98.78%{transform:translate(64px,0px)}99.18%{transform:translate(48px,0px)}}.s.s3{transform:translate(48px,-16px);animation-name:s3}</style><rect class="c" x="2" y="2" rx="2" ry="2"/><rect class="c" x="2" y="18" rx="2" ry="2"/><rect class="c" x="2" y="34" rx="2" ry="2"/><rect class="c" x="2" y="50" rx="2" ry="2"/><rect class="c" x="2" y="66" rx="2" ry="2"/><rect class="c" x="2" y="82" rx="2" ry="2"/><rect class="c" x="2" y="98" rx="2" ry="2"/><rect class="c" x="18" y="2" rx="2" ry="2"/><rect class="c" x="18" y="18" rx="2" ry="2"/><rect class="c" x="18" y="34" rx="2" ry="2"/><rect class="c" x="18" y="50" rx="2" ry="2"/><rect class="c" x="18" y="66" rx="2" ry="2"/><rect class="c" x="18" y="82" rx="2" ry="2"/><rect class="c" x="18" y="98" rx="2" ry="2"/><rect class="c" x="34" y="2" rx="2" ry="2"/><rect class="c" x="34" y="18" rx="2" ry="2"/><rect class="c" x="34" y="34" rx="2" ry="2"/><rect class="c" x="34" y="50" rx="2" ry="2"/><rect class="c" x="34" y="66" rx="2" ry="2"/><rect class="c" x="34" y="82" rx="2" ry="2"/><rect class="c" x="34" y="98" rx="2" ry="2"/><rect class="c" x="50" y="2" rx="2" ry="2"/><rect class="c" x="50" y="18" rx="2" ry="2"/><rect class="c" x="50" y="34" rx="2" ry="2"/><rect class="c" x="50" y="50" rx="2" ry="2"/><rect class="c" x="50" y="66" rx="2" ry="2"/><rect class="c" x="50" y="82" rx="2" ry="2"/><rect class="c" x="50" y="98" rx="2" ry="2"/><rect class="c" x="66" y="2" rx="2" ry="2"/><rect class="c" x="66" y="18" rx="2" ry="2"/><rect class="c" x="66" y="34" rx="2" ry="2"/><rect class="c" x="66" y="50" rx="2" ry="2"/><rect class="c" x="66" y="66" rx="2" ry="2"/><rect class="c" x="66" y="82" rx="2" ry="2"/><rect class="c" x="66" y="98" rx="2" ry="2"/><rect class="c" x="82" y="2" rx="2" ry="2"/><rect class="c" x="82" y="18" rx="2" ry="2"/><rect class="c" x="82" y="34" rx="2" ry="2"/><rect class="c" x="82" y="50" rx="2" ry="2"/><rect class="c" x="82" y="66" rx="2" ry="2"/><rect class="c" x="82" y="82" rx="2" ry="2"/><rect class="c" x="82" y="98" rx="2" ry="2"/><rect class="c" x="98" y="2" rx="2" ry="2"/><rect class="c" x="98" y="18" rx="2" ry="2"/><rect class="c" x="98" y="34" rx="2" ry="2"/><rect class="c" x="98" y="50" rx="2" ry="2"/><rect class="c" x="98" y="66" rx="2" ry="2"/><rect class="c" x="98" y="82" rx="2" ry="2"/><rect class="c" x="98" y="98" rx="2" ry="2"/><rect class="c" x="114" y="2" rx="2" ry="2"/><rect class="c" x="114" y="18" rx="2" ry="2"/><rect class="c" x="114" y="34" rx="2" ry="2"/><rect class="c" x="114" y="50" rx="2" ry="2"/><rect class="c" x="114" y="66" rx="2" ry="2"/><rect class="c" x="114" y="82" rx="2" ry="2"/><rect class="c" x="114" y="98" rx="2" ry="2"/><rect class="c" x="130" y="2" rx="2" ry="2"/><rect class="c" x="130" y="18" rx="2" ry="2"/><rect class="c" x="130" y="34" rx="2" ry="2"/><rect class="c" x="130" y="50" rx="2" ry="2"/><rect class="c" x="130" y="66" rx="2" ry="2"/><rect class="c" x="130" y="82" rx="2" ry="2"/><rect class="c" x="130" y="98" rx="2" ry="2"/><rect class="c" x="146" y="2" rx="2" ry="2"/><rect class="c" x="146" y="18" rx="2" ry="2"/><rect class="c" x="146" y="34" rx="2" ry="2"/><rect class="c" x="146" y="50" rx="2" ry="2"/><rect class="c" x="146" y="66" rx="2" ry="2"/><rect class="c" x="146" y="82" rx="2" ry="2"/><rect class="c" x="146" y="98" rx="2" ry="2"/><rect class="c" x="162" y="2" rx="2" ry="2"/><rect class="c" x="162" y="18" rx="2" ry="2"/><rect class="c" x="162" y="34" rx="2" ry="2"/><rect class="c" x="162" y="50" rx="2" ry="2"/><rect class="c" x="162" y="66" rx="2" ry="2"/><rect class="c" x="162" y="82" rx="2" ry="2"/><rect class="c" x="162" y="98" rx="2" ry="2"/><rect class="c" x="178" y="2" rx="2" ry="2"/><rect class="c" x="178" y="18" rx="2" ry="2"/><rect class="c" x="178" y="34" rx="2" ry="2"/><rect class="c" x="178" y="50" rx="2" ry="2"/><rect class="c" x="178" y="66" rx="2" ry="2"/><rect class="c" x="178" y="82" rx="2" ry="2"/><rect class="c" x="178" y="98" rx="2" ry="2"/><rect class="c" x="194" y="2" rx="2" ry="2"/><rect class="c" x="194" y="18" rx="2" ry="2"/><rect class="c" x="194" y="34" rx="2" ry="2"/><rect class="c" x="194" y="50" rx="2" ry="2"/><rect class="c" x="194" y="66" rx="2" ry="2"/><rect class="c" x="194" y="82" rx="2" ry="2"/><rect class="c" x="194" y="98" rx="2" ry="2"/><rect class="c" x="210" y="2" rx="2" ry="2"/><rect class="c" x="210" y="18" rx="2" ry="2"/><rect class="c" x="210" y="34" rx="2" ry="2"/><rect class="c" x="210" y="50" rx="2" ry="2"/><rect class="c" x="210" y="66" rx="2" ry="2"/><rect class="c" x="210" y="82" rx="2" ry="2"/><rect class="c" x="210" y="98" rx="2" ry="2"/><rect class="c" x="226" y="2" rx="2" ry="2"/><rect class="c" x="226" y="18" rx="2" ry="2"/><rect class="c" x="226" y="34" rx="2" ry="2"/><rect class="c" x="226" y="50" rx="2" ry="2"/><rect class="c" x="226" y="66" rx="2" ry="2"/><rect class="c" x="226" y="82" rx="2" ry="2"/><rect class="c" x="226" y="98" rx="2" ry="2"/><rect class="c" x="242" y="2" rx="2" ry="2"/><rect class="c" x="242" y="18" rx="2" ry="2"/><rect class="c" x="242" y="34" rx="2" ry="2"/><rect class="c" x="242" y="50" rx="2" ry="2"/><rect class="c" x="242" y="66" rx="2" ry="2"/><rect class="c" x="242" y="82" rx="2" ry="2"/><rect class="c" x="242" y="98" rx="2" ry="2"/><rect class="c" x="258" y="2" rx="2" ry="2"/><rect class="c" x="258" y="18" rx="2" ry="2"/><rect class="c" x="258" y="34" rx="2" ry="2"/><rect class="c" x="258" y="50" rx="2" ry="2"/><rect class="c" x="258" y="66" rx="2" ry="2"/><rect class="c" x="258" y="82" rx="2" ry="2"/><rect class="c" x="258" y="98" rx="2" ry="2"/><rect class="c" x="274" y="2" rx="2" ry="2"/><rect class="c" x="274" y="18" rx="2" ry="2"/><rect class="c" x="274" y="34" rx="2" ry="2"/><rect class="c" x="274" y="50" rx="2" ry="2"/><rect class="c" x="274" y="66" rx="2" ry="2"/><rect class="c" x="274" y="82" rx="2" ry="2"/><rect class="c" x="274" y="98" rx="2" ry="2"/><rect class="c" x="290" y="2" rx="2" ry="2"/><rect class="c" x="290" y="18" rx="2" ry="2"/><rect class="c" x="290" y="34" rx="2" ry="2"/><rect class="c" x="290" y="50" rx="2" ry="2"/><rect class="c" x="290" y="66" rx="2" ry="2"/><rect class="c" x="290" y="82" rx="2" ry="2"/><rect class="c" x="290" y="98" rx="2" ry="2"/><rect class="c" x="306" y="2" rx="2" ry="2"/><rect class="c" x="306" y="18" rx="2" ry="2"/><rect class="c" x="306" y="34" rx="2" ry="2"/><rect class="c" x="306" y="50" rx="2" ry="2"/><rect class="c" x="306" y="66" rx="2" ry="2"/><rect class="c" x="306" y="82" rx="2" ry="2"/><rect class="c" x="306" y="98" rx="2" ry="2"/><rect class="c" x="322" y="2" rx="2" ry="2"/><rect class="c" x="322" y="18" rx="2" ry="2"/><rect class="c" x="322" y="34" rx="2" ry="2"/><rect class="c" x="322" y="50" rx="2" ry="2"/><rect class="c" x="322" y="66" rx="2" ry="2"/><rect class="c" x="322" y="82" rx="2" ry="2"/><rect class="c" x="322" y="98" rx="2" ry="2"/><rect class="c" x="338" y="2" rx="2" ry="2"/><rect class="c" x="338" y="18" rx="2" ry="2"/><rect class="c" x="338" y="34" rx="2" ry="2"/><rect class="c" x="338" y="50" rx="2" ry="2"/><rect class="c" x="338" y="66" rx="2" ry="2"/><rect class="c" x="338" y="82" rx="2" ry="2"/><rect class="c" x="338" y="98" rx="2" ry="2"/><rect class="c" x="354" y="2" rx="2" ry="2"/><rect class="c" x="354" y="18" rx="2" ry="2"/><rect class="c" x="354" y="34" rx="2" ry="2"/><rect class="c" x="354" y="50" rx="2" ry="2"/><rect class="c" x="354" y="66" rx="2" ry="2"/><rect class="c" x="354" y="82" rx="2" ry="2"/><rect class="c" x="354" y="98" rx="2" ry="2"/><rect class="c" x="370" y="2" rx="2" ry="2"/><rect class="c" x="370" y="18" rx="2" ry="2"/><rect class="c" x="370" y="34" rx="2" ry="2"/><rect class="c" x="370" y="50" rx="2" ry="2"/><rect class="c" x="370" y="66" rx="2" ry="2"/><rect class="c" x="370" y="82" rx="2" ry="2"/><rect class="c" x="370" y="98" rx="2" ry="2"/><rect class="c" x="386" y="2" rx="2" ry="2"/><rect class="c" x="386" y="18" rx="2" ry="2"/><rect class="c" x="386" y="34" rx="2" ry="2"/><rect class="c" x="386" y="50" rx="2" ry="2"/><rect class="c" x="386" y="66" rx="2" ry="2"/><rect class="c" x="386" y="82" rx="2" ry="2"/><rect class="c" x="386" y="98" rx="2" ry="2"/><rect class="c" x="402" y="2" rx="2" ry="2"/><rect class="c" x="402" y="18" rx="2" ry="2"/><rect class="c" x="402" y="34" rx="2" ry="2"/><rect class="c" x="402" y="50" rx="2" ry="2"/><rect class="c" x="402" y="66" rx="2" ry="2"/><rect class="c" x="402" y="82" rx="2" ry="2"/><rect class="c" x="402" y="98" rx="2" ry="2"/><rect class="c" x="418" y="2" rx="2" ry="2"/><rect class="c" x="418" y="18" rx="2" ry="2"/><rect class="c" x="418" y="34" rx="2" ry="2"/><rect class="c" x="418" y="50" rx="2" ry="2"/><rect class="c" x="418" y="66" rx="2" ry="2"/><rect class="c" x="418" y="82" rx="2" ry="2"/><rect class="c" x="418" y="98" rx="2" ry="2"/><rect class="c" x="434" y="2" rx="2" ry="2"/><rect class="c" x="434" y="18" rx="2" ry="2"/><rect class="c" x="434" y="34" rx="2" ry="2"/><rect class="c" x="434" y="50" rx="2" ry="2"/><rect class="c" x="434" y="66" rx="2" ry="2"/><rect class="c" x="434" y="82" rx="2" ry="2"/><rect class="c" x="434" y="98" rx="2" ry="2"/><rect class="c" x="450" y="2" rx="2" ry="2"/><rect class="c" x="450" y="18" rx="2" ry="2"/><rect class="c" x="450" y="34" rx="2" ry="2"/><rect class="c" x="450" y="50" rx="2" ry="2"/><rect class="c" x="450" y="66" rx="2" ry="2"/><rect class="c c0" x="450" y="82" rx="2" ry="2"/><rect class="c" x="450" y="98" rx="2" ry="2"/><rect class="c" x="466" y="2" rx="2" ry="2"/><rect class="c" x="466" y="18" rx="2" ry="2"/><rect class="c" x="466" y="34" rx="2" ry="2"/><rect class="c" x="466" y="50" rx="2" ry="2"/><rect class="c" x="466" y="66" rx="2" ry="2"/><rect class="c c1" x="466" y="82" rx="2" ry="2"/><rect class="c" x="466" y="98" rx="2" ry="2"/><rect class="c" x="482" y="2" rx="2" ry="2"/><rect class="c" x="482" y="18" rx="2" ry="2"/><rect class="c" x="482" y="34" rx="2" ry="2"/><rect class="c" x="482" y="50" rx="2" ry="2"/><rect class="c" x="482" y="66" rx="2" ry="2"/><rect class="c" x="482" y="82" rx="2" ry="2"/><rect class="c" x="482" y="98" rx="2" ry="2"/><rect class="c" x="498" y="2" rx="2" ry="2"/><rect class="c" x="498" y="18" rx="2" ry="2"/><rect class="c" x="498" y="34" rx="2" ry="2"/><rect class="c" x="498" y="50" rx="2" ry="2"/><rect class="c" x="498" y="66" rx="2" ry="2"/><rect class="c" x="498" y="82" rx="2" ry="2"/><rect class="c" x="498" y="98" rx="2" ry="2"/><rect class="c" x="514" y="2" rx="2" ry="2"/><rect class="c c2" x="514" y="18" rx="2" ry="2"/><rect class="c c3" x="514" y="34" rx="2" ry="2"/><rect class="c" x="514" y="50" rx="2" ry="2"/><rect class="c" x="514" y="66" rx="2" ry="2"/><rect class="c" x="514" y="82" rx="2" ry="2"/><rect class="c" x="514" y="98" rx="2" ry="2"/><rect class="c" x="530" y="2" rx="2" ry="2"/><rect class="c c4" x="530" y="18" rx="2" ry="2"/><rect class="c c5" x="530" y="34" rx="2" ry="2"/><rect class="c" x="530" y="50" rx="2" ry="2"/><rect class="c" x="530" y="66" rx="2" ry="2"/><rect class="c" x="530" y="82" rx="2" ry="2"/><rect class="c" x="530" y="98" rx="2" ry="2"/><rect class="c" x="546" y="2" rx="2" ry="2"/><rect class="c" x="546" y="18" rx="2" ry="2"/><rect class="c" x="546" y="34" rx="2" ry="2"/><rect class="c" x="546" y="50" rx="2" ry="2"/><rect class="c" x="546" y="66" rx="2" ry="2"/><rect class="c" x="546" y="82" rx="2" ry="2"/><rect class="c" x="546" y="98" rx="2" ry="2"/><rect class="c" x="562" y="2" rx="2" ry="2"/><rect class="c" x="562" y="18" rx="2" ry="2"/><rect class="c" x="562" y="34" rx="2" ry="2"/><rect class="c" x="562" y="50" rx="2" ry="2"/><rect class="c" x="562" y="66" rx="2" ry="2"/><rect class="c" x="562" y="82" rx="2" ry="2"/><rect class="c" x="562" y="98" rx="2" ry="2"/><rect class="c" x="578" y="2" rx="2" ry="2"/><rect class="c" x="578" y="18" rx="2" ry="2"/><rect class="c" x="578" y="34" rx="2" ry="2"/><rect class="c c6" x="578" y="50" rx="2" ry="2"/><rect class="c c7" x="578" y="66" rx="2" ry="2"/><rect class="c" x="578" y="82" rx="2" ry="2"/><rect class="c" x="578" y="98" rx="2" ry="2"/><rect class="c" x="594" y="2" rx="2" ry="2"/><rect class="c" x="594" y="18" rx="2" ry="2"/><rect class="c" x="594" y="34" rx="2" ry="2"/><rect class="c" x="594" y="50" rx="2" ry="2"/><rect class="c" x="594" y="66" rx="2" ry="2"/><rect class="c" x="594" y="82" rx="2" ry="2"/><rect class="c" x="594" y="98" rx="2" ry="2"/><rect class="c" x="610" y="2" rx="2" ry="2"/><rect class="c" x="610" y="18" rx="2" ry="2"/><rect class="c" x="610" y="34" rx="2" ry="2"/><rect class="c" x="610" y="50" rx="2" ry="2"/><rect class="c" x="610" y="66" rx="2" ry="2"/><rect class="c" x="610" y="82" rx="2" ry="2"/><rect class="c" x="610" y="98" rx="2" ry="2"/><rect class="c" x="626" y="2" rx="2" ry="2"/><rect class="c" x="626" y="18" rx="2" ry="2"/><rect class="c c8" x="626" y="34" rx="2" ry="2"/><rect class="c" x="626" y="50" rx="2" ry="2"/><rect class="c" x="626" y="66" rx="2" ry="2"/><rect class="c" x="626" y="82" rx="2" ry="2"/><rect class="c" x="626" y="98" rx="2" ry="2"/><rect class="c" x="642" y="2" rx="2" ry="2"/><rect class="c" x="642" y="18" rx="2" ry="2"/><rect class="c c9" x="642" y="34" rx="2" ry="2"/><rect class="c ca" x="642" y="50" rx="2" ry="2"/><rect class="c" x="642" y="66" rx="2" ry="2"/><rect class="c" x="642" y="82" rx="2" ry="2"/><rect class="c" x="642" y="98" rx="2" ry="2"/><rect class="c cb" x="658" y="2" rx="2" ry="2"/><rect class="c" x="658" y="18" rx="2" ry="2"/><rect class="c" x="658" y="34" rx="2" ry="2"/><rect class="c" x="658" y="50" rx="2" ry="2"/><rect class="c" x="658" y="66" rx="2" ry="2"/><rect class="c" x="658" y="82" rx="2" ry="2"/><rect class="c" x="658" y="98" rx="2" ry="2"/><rect class="c" x="674" y="2" rx="2" ry="2"/><rect class="c" x="674" y="18" rx="2" ry="2"/><rect class="c" x="674" y="34" rx="2" ry="2"/><rect class="c" x="674" y="50" rx="2" ry="2"/><rect class="c" x="674" y="66" rx="2" ry="2"/><rect class="c" x="674" y="82" rx="2" ry="2"/><rect class="c" x="674" y="98" rx="2" ry="2"/><rect class="c" x="690" y="2" rx="2" ry="2"/><rect class="c" x="690" y="18" rx="2" ry="2"/><rect class="c" x="690" y="34" rx="2" ry="2"/><rect class="c" x="690" y="50" rx="2" ry="2"/><rect class="c" x="690" y="66" rx="2" ry="2"/><rect class="c cc" x="690" y="82" rx="2" ry="2"/><rect class="c cd" x="690" y="98" rx="2" ry="2"/><rect class="c" x="706" y="2" rx="2" ry="2"/><rect class="c ce" x="706" y="18" rx="2" ry="2"/><rect class="c" x="706" y="34" rx="2" ry="2"/><rect class="c" x="706" y="50" rx="2" ry="2"/><rect class="c" x="706" y="66" rx="2" ry="2"/><rect class="c" x="706" y="82" rx="2" ry="2"/><rect class="c" x="706" y="98" rx="2" ry="2"/><rect class="c" x="722" y="2" rx="2" ry="2"/><rect class="c" x="722" y="18" rx="2" ry="2"/><rect class="c" x="722" y="34" rx="2" ry="2"/><rect class="c" x="722" y="50" rx="2" ry="2"/><rect class="c" x="722" y="66" rx="2" ry="2"/><rect class="c" x="722" y="82" rx="2" ry="2"/><rect class="c" x="722" y="98" rx="2" ry="2"/><rect class="c" x="738" y="2" rx="2" ry="2"/><rect class="c" x="738" y="18" rx="2" ry="2"/><rect class="c cf" x="738" y="34" rx="2" ry="2"/><rect class="c" x="738" y="50" rx="2" ry="2"/><rect class="c" x="738" y="66" rx="2" ry="2"/><rect class="c cg" x="738" y="82" rx="2" ry="2"/><rect class="c ch" x="738" y="98" rx="2" ry="2"/><rect class="c" x="754" y="2" rx="2" ry="2"/><rect class="c" x="754" y="18" rx="2" ry="2"/><rect class="c" x="754" y="34" rx="2" ry="2"/><rect class="c" x="754" y="50" rx="2" ry="2"/><rect class="c" x="754" y="66" rx="2" ry="2"/><rect class="c ci" x="754" y="82" rx="2" ry="2"/><rect class="c cj" x="754" y="98" rx="2" ry="2"/><rect class="c" x="770" y="2" rx="2" ry="2"/><rect class="c" x="770" y="18" rx="2" ry="2"/><rect class="c ck" x="770" y="34" rx="2" ry="2"/><rect class="c cl" x="770" y="50" rx="2" ry="2"/><rect class="c" x="770" y="66" rx="2" ry="2"/><rect class="c" x="770" y="82" rx="2" ry="2"/><rect class="c" x="770" y="98" rx="2" ry="2"/><rect class="c" x="786" y="2" rx="2" ry="2"/><rect class="c cm" x="786" y="18" rx="2" ry="2"/><rect class="c cn" x="786" y="34" rx="2" ry="2"/><rect class="c co" x="786" y="50" rx="2" ry="2"/><rect class="c cp" x="786" y="66" rx="2" ry="2"/><rect class="c cq" x="786" y="82" rx="2" ry="2"/><rect class="c cr" x="786" y="98" rx="2" ry="2"/><rect class="c cs" x="802" y="2" rx="2" ry="2"/><rect class="c ct" x="802" y="18" rx="2" ry="2"/><rect class="c cu" x="802" y="34" rx="2" ry="2"/><rect class="c cv" x="802" y="50" rx="2" ry="2"/><rect class="c cw" x="802" y="66" rx="2" ry="2"/><rect class="c cx" x="802" y="82" rx="2" ry="2"/><rect class="c cy" x="802" y="98" rx="2" ry="2"/><rect class="c cz" x="818" y="2" rx="2" ry="2"/><rect class="c c10" x="818" y="18" rx="2" ry="2"/><rect class="c c11" x="818" y="34" rx="2" ry="2"/><rect class="c c12" x="818" y="50" rx="2" ry="2"/><rect class="c c13" x="818" y="66" rx="2" ry="2"/><rect class="c c14" x="818" y="82" rx="2" ry="2"/><rect class="c c15" x="818" y="98" rx="2" ry="2"/><rect class="c c16" x="834" y="2" rx="2" ry="2"/><rect class="c c17" x="834" y="18" rx="2" ry="2"/><rect class="c c18" x="834" y="34" rx="2" ry="2"/><rect class="c c19" x="834" y="50" rx="2" ry="2"/><rect class="c c1a" x="834" y="66" rx="2" ry="2"/><rect class="c c1b" x="834" y="82" rx="2" ry="2"/><rect class="u u0" height="12" width="283.3" x="0.0" y="144"/><rect class="u u1" height="12" width="35.9" x="282.7" y="144"/><rect class="u u2" height="12" width="18.3" x="318.0" y="144"/><rect class="u u3" height="12" width="371.6" x="335.7" y="144"/><rect class="u u4" height="12" width="88.9" x="706.7" y="144"/><rect class="u u5" height="12" width="53.6" x="795.0" y="144"/><rect class="s s0" x="0.8" y="0.8" width="14.4" height="14.4" rx="4.5" ry="4.5"/><rect class="s s1" x="1.8" y="1.8" width="12.3" height="12.3" rx="4.1" ry="4.1"/><rect class="s s2" x="2.6" y="2.6" width="10.8" height="10.8" rx="3.6" ry="3.6"/><rect class="s s3" x="3.0" y="3.0" width="9.9" height="9.9" rx="3.3" ry="3.3"/></svg>