<svg viewBox="-16 -32 880 192" width="880" height="192" xmlns="http://www.w3.org/2000/svg"><desc>Generated with https://github.com/Platane/snk</desc><style>:root{--cb:#1b1f230a;--cs:764ba2;--ce:#ebedf0;--c0:#ebedf0;--c1:#9be9a8;--c2:#40c463;--c3:#30a14e;--c4:#216e39}.c{shape-rendering:geometricPrecision;fill:var(--ce);stroke-width:1px;stroke:var(--cb);animation:none 28500ms linear infinite;width:12px;height:12px}@keyframes c0{60.34%{fill:var(--c2)}60.36%,100%{fill:var(--ce)}}.c.c0{fill:var(--c2);animation-name:c0}@keyframes c1{34.73%{fill:var(--c1)}34.75%,100%{fill:var(--ce)}}.c.c1{fill:var(--c1);animation-name:c1}@keyframes c2{12.62%{fill:var(--c1)}12.64%,100%{fill:var(--ce)}}.c.c2{fill:var(--c1);animation-name:c2}@keyframes c3{57.88%{fill:var(--c2)}57.9%,100%{fill:var(--ce)}}.c.c3{fill:var(--c2);animation-name:c3}@keyframes c4{12.97%{fill:var(--c1)}12.99%,100%{fill:var(--ce)}}.c.c4{fill:var(--c1);animation-name:c4}@keyframes c5{57.53%{fill:var(--c2)}57.55%,100%{fill:var(--ce)}}.c.c5{fill:var(--c2);animation-name:c5}@keyframes c6{14.73%{fill:var(--c1)}14.75%,100%{fill:var(--ce)}}.c.c6{fill:var(--c1);animation-name:c6}@keyframes c7{55.78%{fill:var(--c2)}55.8%,100%{fill:var(--ce)}}.c.c7{fill:var(--c2);animation-name:c7}@keyframes c8{78.59%{fill:var(--c4)}78.61%,100%{fill:var(--ce)}}.c.c8{fill:var(--c4);animation-name:c8}@keyframes c9{78.24%{fill:var(--c4)}78.26%,100%{fill:var(--ce)}}.c.c9{fill:var(--c4);animation-name:c9}@keyframes ca{77.88%{fill:var(--c4)}77.9%,100%{fill:var(--ce)}}.c.ca{fill:var(--c4);animation-name:ca}@keyframes cb{17.53%{fill:var(--c1)}17.55%,100%{fill:var(--ce)}}.c.cb{fill:var(--c1);animation-name:cb}@keyframes cc{76.13%{fill:var(--c4)}76.15%,100%{fill:var(--ce)}}.c.cc{fill:var(--c4);animation-name:cc}@keyframes cd{75.78%{fill:var(--c4)}75.8%,100%{fill:var(--ce)}}.c.cd{fill:var(--c4);animation-name:cd}@keyframes ce{45.6%{fill:var(--c2)}45.62%,100%{fill:var(--ce)}}.c.ce{fill:var(--c2);animation-name:ce}@keyframes cf{81.74%{fill:var(--c4)}81.76%,100%{fill:var(--ce)}}.c.cf{fill:var(--c4);animation-name:cf}@keyframes cg{47.71%{fill:var(--c2)}47.73%,100%{fill:var(--ce)}}.c.cg{fill:var(--c2);animation-name:cg}@keyframes ch{74.73%{fill:var(--c4)}74.75%,100%{fill:var(--ce)}}.c.ch{fill:var(--c4);animation-name:ch}@keyframes ci{48.06%{fill:var(--c2)}48.08%,100%{fill:var(--ce)}}.c.ci{fill:var(--c2);animation-name:ci}@keyframes cj{74.38%{fill:var(--c4)}74.4%,100%{fill:var(--ce)}}.c.cj{fill:var(--c4);animation-name:cj}@keyframes ck{20.69%{fill:var(--c1)}20.71%,100%{fill:var(--ce)}}.c.ck{fill:var(--c1);animation-name:ck}@keyframes cl{68.06%{fill:var(--c3)}68.08%,100%{fill:var(--ce)}}.c.cl{fill:var(--c3);animation-name:cl}@keyframes cm{43.85%{fill:var(--c2)}43.87%,100%{fill:var(--ce)}}.c.cm{fill:var(--c2);animation-name:cm}@keyframes cn{43.5%{fill:var(--c1)}43.52%,100%{fill:var(--ce)}}.c.cn{fill:var(--c1);animation-name:cn}@keyframes co{68.41%{fill:var(--c3)}68.43%,100%{fill:var(--ce)}}.c.co{fill:var(--c3);animation-name:co}@keyframes cp{49.11%{fill:var(--c2)}49.13%,100%{fill:var(--ce)}}.c.cp{fill:var(--c2);animation-name:cp}@keyframes cq{73.32%{fill:var(--c4)}73.34%,100%{fill:var(--ce)}}.c.cq{fill:var(--c4);animation-name:cq}@keyframes cr{72.97%{fill:var(--c3)}72.99%,100%{fill:var(--ce)}}.c.cr{fill:var(--c3);animation-name:cr}@keyframes cs{69.81%{fill:var(--c3)}69.83%,100%{fill:var(--ce)}}.c.cs{fill:var(--c3);animation-name:cs}@keyframes ct{69.46%{fill:var(--c3)}69.48%,100%{fill:var(--ce)}}.c.ct{fill:var(--c3);animation-name:ct}@keyframes cu{69.11%{fill:var(--c3)}69.13%,100%{fill:var(--ce)}}.c.cu{fill:var(--c3);animation-name:cu}@keyframes cv{25.25%{fill:var(--c1)}25.27%,100%{fill:var(--ce)}}.c.cv{fill:var(--c1);animation-name:cv}.u{transform-origin:0 0;transform:scale(0,1);animation:none linear 28500ms infinite}@keyframes u0{12.62%{transform:scale(0.000,1)}12.64%,12.97%{transform:scale(0.125,1)}12.99%,14.73%{transform:scale(0.250,1)}14.75%,17.53%{transform:scale(0.375,1)}17.55%,20.69%{transform:scale(0.500,1)}20.71%,25.25%{transform:scale(0.625,1)}25.27%,34.73%{transform:scale(0.750,1)}34.75%,43.5%{transform:scale(0.875,1)}43.52%,100%{transform:scale(1.000,1)}}.u.u0{fill:var(--c1);animation-name:u0;transform-origin:0.0px 0}@keyframes u1{43.85%{transform:scale(0.000,1)}43.87%,45.6%{transform:scale(0.111,1)}45.62%,47.71%{transform:scale(0.222,1)}47.73%,48.06%{transform:scale(0.333,1)}48.08%,49.11%{transform:scale(0.444,1)}49.13%,55.78%{transform:scale(0.556,1)}55.8%,57.53%{transform:scale(0.667,1)}57.55%,57.88%{transform:scale(0.778,1)}57.9%,60.34%{transform:scale(0.889,1)}60.36%,100%{transform:scale(1.000,1)}}.u.u1{fill:var(--c2);animation-name:u1;transform-origin:212.0px 0}@keyframes u2{68.06%{transform:scale(0.000,1)}68.08%,68.41%{transform:scale(0.167,1)}68.43%,69.11%{transform:scale(0.333,1)}69.13%,69.46%{transform:scale(0.500,1)}69.48%,69.81%{transform:scale(0.667,1)}69.83%,72.97%{transform:scale(0.833,1)}72.99%,100%{transform:scale(1.000,1)}}.u.u2{fill:var(--c3);animation-name:u2;transform-origin:450.5px 0}@keyframes u3{73.32%{transform:scale(0.000,1)}73.34%,74.38%{transform:scale(0.111,1)}74.4%,74.73%{transform:scale(0.222,1)}74.75%,75.78%{transform:scale(0.333,1)}75.8%,76.13%{transform:scale(0.444,1)}76.15%,77.88%{transform:scale(0.556,1)}77.9%,78.24%{transform:scale(0.667,1)}78.26%,78.59%{transform:scale(0.778,1)}78.61%,81.74%{transform:scale(0.889,1)}81.76%,100%{transform:scale(1.000,1)}}.u.u3{fill:var(--c4);animation-name:u3;transform-origin:609.5px 0}.s{shape-rendering:geometricPrecision;fill:var(--cs);animation:none linear 28500ms infinite}@keyframes s0{0%,99.65%{transform:translate(0px,-16px)}0.35%{transform:translate(0px,0px)}12.28%{transform:translate(544px,0px)}12.63%{transform:translate(544px,16px)}14.04%{transform:translate(608px,16px)}14.74%{transform:translate(608px,48px)}15.44%,38.6%{transform:translate(640px,48px)}16.14%{transform:translate(640px,16px)}17.19%{transform:translate(688px,16px)}17.54%{transform:translate(688px,0px)}20%,22.11%{transform:translate(800px,0px)}20.7%{transform:translate(800px,32px)}21.05%,42.81%{transform:translate(784px,32px)}21.4%{transform:translate(784px,16px)}21.75%{transform:translate(800px,16px)}22.46%{transform:translate(816px,0px)}22.81%{transform:translate(816px,-16px)}23.51%{transform:translate(848px,-16px)}24.91%,50.18%{transform:translate(848px,48px)}25.26%,50.53%,68.77%{transform:translate(832px,48px)}26.67%{transform:translate(832px,112px)}29.47%{transform:translate(704px,112px)}30.18%,65.26%{transform:translate(704px,80px)}34.74%{transform:translate(496px,80px)}35.44%{transform:translate(496px,48px)}38.95%{transform:translate(640px,64px)}40%{transform:translate(688px,64px)}40.35%{transform:translate(688px,48px)}42.46%{transform:translate(784px,48px)}43.51%{transform:translate(816px,32px)}43.86%{transform:translate(816px,16px)}45.61%{transform:translate(736px,16px)}45.96%{transform:translate(736px,32px)}46.32%{transform:translate(752px,32px)}46.67%{transform:translate(752px,48px)}47.02%{transform:translate(768px,48px)}47.72%{transform:translate(768px,80px)}48.42%{transform:translate(800px,80px)}48.77%,67.72%{transform:translate(800px,64px)}49.82%{transform:translate(848px,64px)}50.88%{transform:translate(832px,64px)}55.79%{transform:translate(608px,64px)}56.49%{transform:translate(608px,32px)}59.3%{transform:translate(480px,32px)}60.35%{transform:translate(480px,80px)}65.61%{transform:translate(704px,64px)}68.07%{transform:translate(800px,48px)}69.82%{transform:translate(832px,0px)}70.18%{transform:translate(848px,0px)}70.53%{transform:translate(848px,16px)}70.88%{transform:translate(832px,16px)}72.63%{transform:translate(832px,96px)}72.98%{transform:translate(816px,96px)}73.33%{transform:translate(816px,80px)}74.04%{transform:translate(784px,80px)}74.39%{transform:translate(784px,96px)}75.79%{transform:translate(720px,96px)}76.84%{transform:translate(720px,48px)}77.89%{transform:translate(672px,48px)}78.25%{transform:translate(672px,32px)}78.6%{transform:translate(656px,32px)}78.95%{transform:translate(656px,16px)}81.4%{transform:translate(768px,16px)}81.75%{transform:translate(768px,32px)}97.19%{transform:translate(64px,32px)}98.25%{transform:translate(64px,-16px)}}.s.s0{transform:translate(0px,-16px);animation-name:s0}@keyframes s1{0%,99.65%{transform:translate(16px,-16px)}0.35%{transform:translate(0px,-16px)}0.7%{transform:translate(0px,0px)}12.63%{transform:translate(544px,0px)}12.98%{transform:translate(544px,16px)}14.39%{transform:translate(608px,16px)}15.09%{transform:translate(608px,48px)}15.79%,38.95%{transform:translate(640px,48px)}16.49%{transform:translate(640px,16px)}17.54%{transform:translate(688px,16px)}17.89%{transform:translate(688px,0px)}20.35%,22.46%{transform:translate(800px,0px)}21.05%{transform:translate(800px,32px)}21.4%,43.16%{transform:translate(784px,32px)}21.75%{transform:translate(784px,16px)}22.11%{transform:translate(800px,16px)}22.81%{transform:translate(816px,0px)}23.16%{transform:translate(816px,-16px)}23.86%{transform:translate(848px,-16px)}25.26%,50.53%{transform:translate(848px,48px)}25.61%,50.88%,69.12%{transform:translate(832px,48px)}27.02%{transform:translate(832px,112px)}29.82%{transform:translate(704px,112px)}30.53%,65.61%{transform:translate(704px,80px)}35.09%{transform:translate(496px,80px)}35.79%{transform:translate(496px,48px)}39.3%{transform:translate(640px,64px)}40.35%{transform:translate(688px,64px)}40.7%{transform:translate(688px,48px)}42.81%{transform:translate(784px,48px)}43.86%{transform:translate(816px,32px)}44.21%{transform:translate(816px,16px)}45.96%{transform:translate(736px,16px)}46.32%{transform:translate(736px,32px)}46.67%{transform:translate(752px,32px)}47.02%{transform:translate(752px,48px)}47.37%{transform:translate(768px,48px)}48.07%{transform:translate(768px,80px)}48.77%{transform:translate(800px,80px)}49.12%,68.07%{transform:translate(800px,64px)}50.18%{transform:translate(848px,64px)}51.23%{transform:translate(832px,64px)}56.14%{transform:translate(608px,64px)}56.84%{transform:translate(608px,32px)}59.65%{transform:translate(480px,32px)}60.7%{transform:translate(480px,80px)}65.96%{transform:translate(704px,64px)}68.42%{transform:translate(800px,48px)}70.18%{transform:translate(832px,0px)}70.53%{transform:translate(848px,0px)}70.88%{transform:translate(848px,16px)}71.23%{transform:translate(832px,16px)}72.98%{transform:translate(832px,96px)}73.33%{transform:translate(816px,96px)}73.68%{transform:translate(816px,80px)}74.39%{transform:translate(784px,80px)}74.74%{transform:translate(784px,96px)}76.14%{transform:translate(720px,96px)}77.19%{transform:translate(720px,48px)}78.25%{transform:translate(672px,48px)}78.6%{transform:translate(672px,32px)}78.95%{transform:translate(656px,32px)}79.3%{transform:translate(656px,16px)}81.75%{transform:translate(768px,16px)}82.11%{transform:translate(768px,32px)}97.54%{transform:translate(64px,32px)}98.6%{transform:translate(64px,-16px)}}.s.s1{transform:translate(16px,-16px);animation-name:s1}@keyframes s2{0%,99.65%{transform:translate(32px,-16px)}0.7%{transform:translate(0px,-16px)}1.05%{transform:translate(0px,0px)}12.98%{transform:translate(544px,0px)}13.33%{transform:translate(544px,16px)}14.74%{transform:translate(608px,16px)}15.44%{transform:translate(608px,48px)}16.14%,39.3%{transform:translate(640px,48px)}16.84%{transform:translate(640px,16px)}17.89%{transform:translate(688px,16px)}18.25%{transform:translate(688px,0px)}20.7%,22.81%{transform:translate(800px,0px)}21.4%{transform:translate(800px,32px)}21.75%,43.51%{transform:translate(784px,32px)}22.11%{transform:translate(784px,16px)}22.46%{transform:translate(800px,16px)}23.16%{transform:translate(816px,0px)}23.51%{transform:translate(816px,-16px)}24.21%{transform:translate(848px,-16px)}25.61%,50.88%{transform:translate(848px,48px)}25.96%,51.23%,69.47%{transform:translate(832px,48px)}27.37%{transform:translate(832px,112px)}30.18%{transform:translate(704px,112px)}30.88%,65.96%{transform:translate(704px,80px)}35.44%{transform:translate(496px,80px)}36.14%{transform:translate(496px,48px)}39.65%{transform:translate(640px,64px)}40.7%{transform:translate(688px,64px)}41.05%{transform:translate(688px,48px)}43.16%{transform:translate(784px,48px)}44.21%{transform:translate(816px,32px)}44.56%{transform:translate(816px,16px)}46.32%{transform:translate(736px,16px)}46.67%{transform:translate(736px,32px)}47.02%{transform:translate(752px,32px)}47.37%{transform:translate(752px,48px)}47.72%{transform:translate(768px,48px)}48.42%{transform:translate(768px,80px)}49.12%{transform:translate(800px,80px)}49.47%,68.42%{transform:translate(800px,64px)}50.53%{transform:translate(848px,64px)}51.58%{transform:translate(832px,64px)}56.49%{transform:translate(608px,64px)}57.19%{transform:translate(608px,32px)}60%{transform:translate(480px,32px)}61.05%{transform:translate(480px,80px)}66.32%{transform:translate(704px,64px)}68.77%{transform:translate(800px,48px)}70.53%{transform:translate(832px,0px)}70.88%{transform:translate(848px,0px)}71.23%{transform:translate(848px,16px)}71.58%{transform:translate(832px,16px)}73.33%{transform:translate(832px,96px)}73.68%{transform:translate(816px,96px)}74.04%{transform:translate(816px,80px)}74.74%{transform:translate(784px,80px)}75.09%{transform:translate(784px,96px)}76.49%{transform:translate(720px,96px)}77.54%{transform:translate(720px,48px)}78.6%{transform:translate(672px,48px)}78.95%{transform:translate(672px,32px)}79.3%{transform:translate(656px,32px)}79.65%{transform:translate(656px,16px)}82.11%{transform:translate(768px,16px)}82.46%{transform:translate(768px,32px)}97.89%{transform:translate(64px,32px)}98.95%{transform:translate(64px,-16px)}}.s.s2{transform:translate(32px,-16px);animation-name:s2}@keyframes s3{0%,99.65%{transform:translate(48px,-16px)}1.05%{transform:translate(0px,-16px)}1.4%{transform:translate(0px,0px)}13.33%{transform:translate(544px,0px)}13.68%{transform:translate(544px,16px)}15.09%{transform:translate(608px,16px)}15.79%{transform:translate(608px,48px)}16.49%,39.65%{transform:translate(640px,48px)}17.19%{transform:translate(640px,16px)}18.25%{transform:translate(688px,16px)}18.6%{transform:translate(688px,0px)}21.05%,23.16%{transform:translate(800px,0px)}21.75%{transform:translate(800px,32px)}22.11%,43.86%{transform:translate(784px,32px)}22.46%{transform:translate(784px,16px)}22.81%{transform:translate(800px,16px)}23.51%{transform:translate(816px,0px)}23.86%{transform:translate(816px,-16px)}24.56%{transform:translate(848px,-16px)}25.96%,51.23%{transform:translate(848px,48px)}26.32%,51.58%,69.82%{transform:translate(832px,48px)}27.72%{transform:translate(832px,112px)}30.53%{transform:translate(704px,112px)}31.23%,66.32%{transform:translate(704px,80px)}35.79%{transform:translate(496px,80px)}36.49%{transform:translate(496px,48px)}40%{transform:translate(640px,64px)}41.05%{transform:translate(688px,64px)}41.4%{transform:translate(688px,48px)}43.51%{transform:translate(784px,48px)}44.56%{transform:translate(816px,32px)}44.91%{transform:translate(816px,16px)}46.67%{transform:translate(736px,16px)}47.02%{transform:translate(736px,32px)}47.37%{transform:translate(752px,32px)}47.72%{transform:translate(752px,48px)}48.07%{transform:translate(768px,48px)}48.77%{transform:translate(768px,80px)}49.47%{transform:translate(800px,80px)}49.82%,68.77%{transform:translate(800px,64px)}50.88%{transform:translate(848px,64px)}51.93%{transform:translate(832px,64px)}56.84%{transform:translate(608px,64px)}57.54%{transform:translate(608px,32px)}60.35%{transform:translate(480px,32px)}61.4%{transform:translate(480px,80px)}66.67%{transform:translate(704px,64px)}69.12%{transform:translate(800px,48px)}70.88%{transform:translate(832px,0px)}71.23%{transform:translate(848px,0px)}71.58%{transform:translate(848px,16px)}71.93%{transform:translate(832px,16px)}73.68%{transform:translate(832px,96px)}74.04%{transform:translate(816px,96px)}74.39%{transform:translate(816px,80px)}75.09%{transform:translate(784px,80px)}75.44%{transform:translate(784px,96px)}76.84%{transform:translate(720px,96px)}77.89%{transform:translate(720px,48px)}78.95%{transform:translate(672px,48px)}79.3%{transform:translate(672px,32px)}79.65%{transform:translate(656px,32px)}80%{transform:translate(656px,16px)}82.46%{transform:translate(768px,16px)}82.81%{transform:translate(768px,32px)}98.25%{transform:translate(64px,32px)}99.3%{transform:translate(64px,-16px)}}.s.s3{transform:translate(48px,-16px);animation-name:s3}</style><rect class="c" x="2" y="2" rx="2" ry="2"/><rect class="c" x="2" y="18" rx="2" ry="2"/><rect class="c" x="2" y="34" rx="2" ry="2"/><rect class="c" x="2" y="50" rx="2" ry="2"/><rect class="c" x="2" y="66" rx="2" ry="2"/><rect class="c" x="2" y="82" rx="2" ry="2"/><rect class="c" x="2" y="98" rx="2" ry="2"/><rect class="c" x="18" y="2" rx="2" ry="2"/><rect class="c" x="18" y="18" rx="2" ry="2"/><rect class="c" x="18" y="34" rx="2" ry="2"/><rect class="c" x="18" y="50" rx="2" ry="2"/><rect class="c" x="18" y="66" rx="2" ry="2"/><rect class="c" x="18" y="82" rx="2" ry="2"/><rect class="c" x="18" y="98" rx="2" ry="2"/><rect class="c" x="34" y="2" rx="2" ry="2"/><rect class="c" x="34" y="18" rx="2" ry="2"/><rect class="c" x="34" y="34" rx="2" ry="2"/><rect class="c" x="34" y="50" rx="2" ry="2"/><rect class="c" x="34" y="66" rx="2" ry="2"/><rect class="c" x="34" y="82" rx="2" ry="2"/><rect class="c" x="34" y="98" rx="2" ry="2"/><rect class="c" x="50" y="2" rx="2" ry="2"/><rect class="c" x="50" y="18" rx="2" ry="2"/><rect class="c" x="50" y="34" rx="2" ry="2"/><rect class="c" x="50" y="50" rx="2" ry="2"/><rect class="c" x="50" y="66" rx="2" ry="2"/><rect class="c" x="50" y="82" rx="2" ry="2"/><rect class="c" x="50" y="98" rx="2" ry="2"/><rect class="c" x="66" y="2" rx="2" ry="2"/><rect class="c" x="66" y="18" rx="2" ry="2"/><rect class="c" x="66" y="34" rx="2" ry="2"/><rect class="c" x="66" y="50" rx="2" ry="2"/><rect class="c" x="66" y="66" rx="2" ry="2"/><rect class="c" x="66" y="82" rx="2" ry="2"/><rect class="c" x="66" y="98" rx="2" ry="2"/><rect class="c" x="82" y="2" rx="2" ry="2"/><rect class="c" x="82" y="18" rx="2" ry="2"/><rect class="c" x="82" y="34" rx="2" ry="2"/><rect class="c" x="82" y="50" rx="2" ry="2"/><rect class="c" x="82" y="66" rx="2" ry="2"/><rect class="c" x="82" y="82" rx="2" ry="2"/><rect class="c" x="82" y="98" rx="2" ry="2"/><rect class="c" x="98" y="2" rx="2" ry="2"/><rect class="c" x="98" y="18" rx="2" ry="2"/><rect class="c" x="98" y="34" rx="2" ry="2"/><rect class="c" x="98" y="50" rx="2" ry="2"/><rect class="c" x="98" y="66" rx="2" ry="2"/><rect class="c" x="98" y="82" rx="2" ry="2"/><rect class="c" x="98" y="98" rx="2" ry="2"/><rect class="c" x="114" y="2" rx="2" ry="2"/><rect class="c" x="114" y="18" rx="2" ry="2"/><rect class="c" x="114" y="34" rx="2" ry="2"/><rect class="c" x="114" y="50" rx="2" ry="2"/><rect class="c" x="114" y="66" rx="2" ry="2"/><rect class="c" x="114" y="82" rx="2" ry="2"/><rect class="c" x="114" y="98" rx="2" ry="2"/><rect class="c" x="130" y="2" rx="2" ry="2"/><rect class="c" x="130" y="18" rx="2" ry="2"/><rect class="c" x="130" y="34" rx="2" ry="2"/><rect class="c" x="130" y="50" rx="2" ry="2"/><rect class="c" x="130" y="66" rx="2" ry="2"/><rect class="c" x="130" y="82" rx="2" ry="2"/><rect class="c" x="130" y="98" rx="2" ry="2"/><rect class="c" x="146" y="2" rx="2" ry="2"/><rect class="c" x="146" y="18" rx="2" ry="2"/><rect class="c" x="146" y="34" rx="2" ry="2"/><rect class="c" x="146" y="50" rx="2" ry="2"/><rect class="c" x="146" y="66" rx="2" ry="2"/><rect class="c" x="146" y="82" rx="2" ry="2"/><rect class="c" x="146" y="98" rx="2" ry="2"/><rect class="c" x="162" y="2" rx="2" ry="2"/><rect class="c" x="162" y="18" rx="2" ry="2"/><rect class="c" x="162" y="34" rx="2" ry="2"/><rect class="c" x="162" y="50" rx="2" ry="2"/><rect class="c" x="162" y="66" rx="2" ry="2"/><rect class="c" x="162" y="82" rx="2" ry="2"/><rect class="c" x="162" y="98" rx="2" ry="2"/><rect class="c" x="178" y="2" rx="2" ry="2"/><rect class="c" x="178" y="18" rx="2" ry="2"/><rect class="c" x="178" y="34" rx="2" ry="2"/><rect class="c" x="178" y="50" rx="2" ry="2"/><rect class="c" x="178" y="66" rx="2" ry="2"/><rect class="c" x="178" y="82" rx="2" ry="2"/><rect class="c" x="178" y="98" rx="2" ry="2"/><rect class="c" x="194" y="2" rx="2" ry="2"/><rect class="c" x="194" y="18" rx="2" ry="2"/><rect class="c" x="194" y="34" rx="2" ry="2"/><rect class="c" x="194" y="50" rx="2" ry="2"/><rect class="c" x="194" y="66" rx="2" ry="2"/><rect class="c" x="194" y="82" rx="2" ry="2"/><rect class="c" x="194" y="98" rx="2" ry="2"/><rect class="c" x="210" y="2" rx="2" ry="2"/><rect class="c" x="210" y="18" rx="2" ry="2"/><rect class="c" x="210" y="34" rx="2" ry="2"/><rect class="c" x="210" y="50" rx="2" ry="2"/><rect class="c" x="210" y="66" rx="2" ry="2"/><rect class="c" x="210" y="82" rx="2" ry="2"/><rect class="c" x="210" y="98" rx="2" ry="2"/><rect class="c" x="226" y="2" rx="2" ry="2"/><rect class="c" x="226" y="18" rx="2" ry="2"/><rect class="c" x="226" y="34" rx="2" ry="2"/><rect class="c" x="226" y="50" rx="2" ry="2"/><rect class="c" x="226" y="66" rx="2" ry="2"/><rect class="c" x="226" y="82" rx="2" ry="2"/><rect class="c" x="226" y="98" rx="2" ry="2"/><rect class="c" x="242" y="2" rx="2" ry="2"/><rect class="c" x="242" y="18" rx="2" ry="2"/><rect class="c" x="242" y="34" rx="2" ry="2"/><rect class="c" x="242" y="50" rx="2" ry="2"/><rect class="c" x="242" y="66" rx="2" ry="2"/><rect class="c" x="242" y="82" rx="2" ry="2"/><rect class="c" x="242" y="98" rx="2" ry="2"/><rect class="c" x="258" y="2" rx="2" ry="2"/><rect class="c" x="258" y="18" rx="2" ry="2"/><rect class="c" x="258" y="34" rx="2" ry="2"/><rect class="c" x="258" y="50" rx="2" ry="2"/><rect class="c" x="258" y="66" rx="2" ry="2"/><rect class="c" x="258" y="82" rx="2" ry="2"/><rect class="c" x="258" y="98" rx="2" ry="2"/><rect class="c" x="274" y="2" rx="2" ry="2"/><rect class="c" x="274" y="18" rx="2" ry="2"/><rect class="c" x="274" y="34" rx="2" ry="2"/><rect class="c" x="274" y="50" rx="2" ry="2"/><rect class="c" x="274" y="66" rx="2" ry="2"/><rect class="c" x="274" y="82" rx="2" ry="2"/><rect class="c" x="274" y="98" rx="2" ry="2"/><rect class="c" x="290" y="2" rx="2" ry="2"/><rect class="c" x="290" y="18" rx="2" ry="2"/><rect class="c" x="290" y="34" rx="2" ry="2"/><rect class="c" x="290" y="50" rx="2" ry="2"/><rect class="c" x="290" y="66" rx="2" ry="2"/><rect class="c" x="290" y="82" rx="2" ry="2"/><rect class="c" x="290" y="98" rx="2" ry="2"/><rect class="c" x="306" y="2" rx="2" ry="2"/><rect class="c" x="306" y="18" rx="2" ry="2"/><rect class="c" x="306" y="34" rx="2" ry="2"/><rect class="c" x="306" y="50" rx="2" ry="2"/><rect class="c" x="306" y="66" rx="2" ry="2"/><rect class="c" x="306" y="82" rx="2" ry="2"/><rect class="c" x="306" y="98" rx="2" ry="2"/><rect class="c" x="322" y="2" rx="2" ry="2"/><rect class="c" x="322" y="18" rx="2" ry="2"/><rect class="c" x="322" y="34" rx="2" ry="2"/><rect class="c" x="322" y="50" rx="2" ry="2"/><rect class="c" x="322" y="66" rx="2" ry="2"/><rect class="c" x="322" y="82" rx="2" ry="2"/><rect class="c" x="322" y="98" rx="2" ry="2"/><rect class="c" x="338" y="2" rx="2" ry="2"/><rect class="c" x="338" y="18" rx="2" ry="2"/><rect class="c" x="338" y="34" rx="2" ry="2"/><rect class="c" x="338" y="50" rx="2" ry="2"/><rect class="c" x="338" y="66" rx="2" ry="2"/><rect class="c" x="338" y="82" rx="2" ry="2"/><rect class="c" x="338" y="98" rx="2" ry="2"/><rect class="c" x="354" y="2" rx="2" ry="2"/><rect class="c" x="354" y="18" rx="2" ry="2"/><rect class="c" x="354" y="34" rx="2" ry="2"/><rect class="c" x="354" y="50" rx="2" ry="2"/><rect class="c" x="354" y="66" rx="2" ry="2"/><rect class="c" x="354" y="82" rx="2" ry="2"/><rect class="c" x="354" y="98" rx="2" ry="2"/><rect class="c" x="370" y="2" rx="2" ry="2"/><rect class="c" x="370" y="18" rx="2" ry="2"/><rect class="c" x="370" y="34" rx="2" ry="2"/><rect class="c" x="370" y="50" rx="2" ry="2"/><rect class="c" x="370" y="66" rx="2" ry="2"/><rect class="c" x="370" y="82" rx="2" ry="2"/><rect class="c" x="370" y="98" rx="2" ry="2"/><rect class="c" x="386" y="2" rx="2" ry="2"/><rect class="c" x="386" y="18" rx="2" ry="2"/><rect class="c" x="386" y="34" rx="2" ry="2"/><rect class="c" x="386" y="50" rx="2" ry="2"/><rect class="c" x="386" y="66" rx="2" ry="2"/><rect class="c" x="386" y="82" rx="2" ry="2"/><rect class="c" x="386" y="98" rx="2" ry="2"/><rect class="c" x="402" y="2" rx="2" ry="2"/><rect class="c" x="402" y="18" rx="2" ry="2"/><rect class="c" x="402" y="34" rx="2" ry="2"/><rect class="c" x="402" y="50" rx="2" ry="2"/><rect class="c" x="402" y="66" rx="2" ry="2"/><rect class="c" x="402" y="82" rx="2" ry="2"/><rect class="c" x="402" y="98" rx="2" ry="2"/><rect class="c" x="418" y="2" rx="2" ry="2"/><rect class="c" x="418" y="18" rx="2" ry="2"/><rect class="c" x="418" y="34" rx="2" ry="2"/><rect class="c" x="418" y="50" rx="2" ry="2"/><rect class="c" x="418" y="66" rx="2" ry="2"/><rect class="c" x="418" y="82" rx="2" ry="2"/><rect class="c" x="418" y="98" rx="2" ry="2"/><rect class="c" x="434" y="2" rx="2" ry="2"/><rect class="c" x="434" y="18" rx="2" ry="2"/><rect class="c" x="434" y="34" rx="2" ry="2"/><rect class="c" x="434" y="50" rx="2" ry="2"/><rect class="c" x="434" y="66" rx="2" ry="2"/><rect class="c" x="434" y="82" rx="2" ry="2"/><rect class="c" x="434" y="98" rx="2" ry="2"/><rect class="c" x="450" y="2" rx="2" ry="2"/><rect class="c" x="450" y="18" rx="2" ry="2"/><rect class="c" x="450" y="34" rx="2" ry="2"/><rect class="c" x="450" y="50" rx="2" ry="2"/><rect class="c" x="450" y="66" rx="2" ry="2"/><rect class="c" x="450" y="82" rx="2" ry="2"/><rect class="c" x="450" y="98" rx="2" ry="2"/><rect class="c" x="466" y="2" rx="2" ry="2"/><rect class="c" x="466" y="18" rx="2" ry="2"/><rect class="c" x="466" y="34" rx="2" ry="2"/><rect class="c" x="466" y="50" rx="2" ry="2"/><rect class="c" x="466" y="66" rx="2" ry="2"/><rect class="c" x="466" y="82" rx="2" ry="2"/><rect class="c" x="466" y="98" rx="2" ry="2"/><rect class="c" x="482" y="2" rx="2" ry="2"/><rect class="c" x="482" y="18" rx="2" ry="2"/><rect class="c" x="482" y="34" rx="2" ry="2"/><rect class="c" x="482" y="50" rx="2" ry="2"/><rect class="c" x="482" y="66" rx="2" ry="2"/><rect class="c c0" x="482" y="82" rx="2" ry="2"/><rect class="c" x="482" y="98" rx="2" ry="2"/><rect class="c" x="498" y="2" rx="2" ry="2"/><rect class="c" x="498" y="18" rx="2" ry="2"/><rect class="c" x="498" y="34" rx="2" ry="2"/><rect class="c" x="498" y="50" rx="2" ry="2"/><rect class="c" x="498" y="66" rx="2" ry="2"/><rect class="c c1" x="498" y="82" rx="2" ry="2"/><rect class="c" x="498" y="98" rx="2" ry="2"/><rect class="c" x="514" y="2" rx="2" ry="2"/><rect class="c" x="514" y="18" rx="2" ry="2"/><rect class="c" x="514" y="34" rx="2" ry="2"/><rect class="c" x="514" y="50" rx="2" ry="2"/><rect class="c" x="514" y="66" rx="2" ry="2"/><rect class="c" x="514" y="82" rx="2" ry="2"/><rect class="c" x="514" y="98" rx="2" ry="2"/><rect class="c" x="530" y="2" rx="2" ry="2"/><rect class="c" x="530" y="18" rx="2" ry="2"/><rect class="c" x="530" y="34" rx="2" ry="2"/><rect class="c" x="530" y="50" rx="2" ry="2"/><rect class="c" x="530" y="66" rx="2" ry="2"/><rect class="c" x="530" y="82" rx="2" ry="2"/><rect class="c" x="530" y="98" rx="2" ry="2"/><rect class="c" x="546" y="2" rx="2" ry="2"/><rect class="c c2" x="546" y="18" rx="2" ry="2"/><rect class="c c3" x="546" y="34" rx="2" ry="2"/><rect class="c" x="546" y="50" rx="2" ry="2"/><rect class="c" x="546" y="66" rx="2" ry="2"/><rect class="c" x="546" y="82" rx="2" ry="2"/><rect class="c" x="546" y="98" rx="2" ry="2"/><rect class="c" x="562" y="2" rx="2" ry="2"/><rect class="c c4" x="562" y="18" rx="2" ry="2"/><rect class="c c5" x="562" y="34" rx="2" ry="2"/><rect class="c" x="562" y="50" rx="2" ry="2"/><rect class="c" x="562" y="66" rx="2" ry="2"/><rect class="c" x="562" y="82" rx="2" ry="2"/><rect class="c" x="562" y="98" rx="2" ry="2"/><rect class="c" x="578" y="2" rx="2" ry="2"/><rect class="c" x="578" y="18" rx="2" ry="2"/><rect class="c" x="578" y="34" rx="2" ry="2"/><rect class="c" x="578" y="50" rx="2" ry="2"/><rect class="c" x="578" y="66" rx="2" ry="2"/><rect class="c" x="578" y="82" rx="2" ry="2"/><rect class="c" x="578" y="98" rx="2" ry="2"/><rect class="c" x="594" y="2" rx="2" ry="2"/><rect class="c" x="594" y="18" rx="2" ry="2"/><rect class="c" x="594" y="34" rx="2" ry="2"/><rect class="c" x="594" y="50" rx="2" ry="2"/><rect class="c" x="594" y="66" rx="2" ry="2"/><rect class="c" x="594" y="82" rx="2" ry="2"/><rect class="c" x="594" y="98" rx="2" ry="2"/><rect class="c" x="610" y="2" rx="2" ry="2"/><rect class="c" x="610" y="18" rx="2" ry="2"/><rect class="c" x="610" y="34" rx="2" ry="2"/><rect class="c c6" x="610" y="50" rx="2" ry="2"/><rect class="c c7" x="610" y="66" rx="2" ry="2"/><rect class="c" x="610" y="82" rx="2" ry="2"/><rect class="c" x="610" y="98" rx="2" ry="2"/><rect class="c" x="626" y="2" rx="2" ry="2"/><rect class="c" x="626" y="18" rx="2" ry="2"/><rect class="c" x="626" y="34" rx="2" ry="2"/><rect class="c" x="626" y="50" rx="2" ry="2"/><rect class="c" x="626" y="66" rx="2" ry="2"/><rect class="c" x="626" y="82" rx="2" ry="2"/><rect class="c" x="626" y="98" rx="2" ry="2"/><rect class="c" x="642" y="2" rx="2" ry="2"/><rect class="c" x="642" y="18" rx="2" ry="2"/><rect class="c" x="642" y="34" rx="2" ry="2"/><rect class="c" x="642" y="50" rx="2" ry="2"/><rect class="c" x="642" y="66" rx="2" ry="2"/><rect class="c" x="642" y="82" rx="2" ry="2"/><rect class="c" x="642" y="98" rx="2" ry="2"/><rect class="c" x="658" y="2" rx="2" ry="2"/><rect class="c" x="658" y="18" rx="2" ry="2"/><rect class="c c8" x="658" y="34" rx="2" ry="2"/><rect class="c" x="658" y="50" rx="2" ry="2"/><rect class="c" x="658" y="66" rx="2" ry="2"/><rect class="c" x="658" y="82" rx="2" ry="2"/><rect class="c" x="658" y="98" rx="2" ry="2"/><rect class="c" x="674" y="2" rx="2" ry="2"/><rect class="c" x="674" y="18" rx="2" ry="2"/><rect class="c c9" x="674" y="34" rx="2" ry="2"/><rect class="c ca" x="674" y="50" rx="2" ry="2"/><rect class="c" x="674" y="66" rx="2" ry="2"/><rect class="c" x="674" y="82" rx="2" ry="2"/><rect class="c" x="674" y="98" rx="2" ry="2"/><rect class="c cb" x="690" y="2" rx="2" ry="2"/><rect class="c" x="690" y="18" rx="2" ry="2"/><rect class="c" x="690" y="34" rx="2" ry="2"/><rect class="c" x="690" y="50" rx="2" ry="2"/><rect class="c" x="690" y="66" rx="2" ry="2"/><rect class="c" x="690" y="82" rx="2" ry="2"/><rect class="c" x="690" y="98" rx="2" ry="2"/><rect class="c" x="706" y="2" rx="2" ry="2"/><rect class="c" x="706" y="18" rx="2" ry="2"/><rect class="c" x="706" y="34" rx="2" ry="2"/><rect class="c" x="706" y="50" rx="2" ry="2"/><rect class="c" x="706" y="66" rx="2" ry="2"/><rect class="c" x="706" y="82" rx="2" ry="2"/><rect class="c" x="706" y="98" rx="2" ry="2"/><rect class="c" x="722" y="2" rx="2" ry="2"/><rect class="c" x="722" y="18" rx="2" ry="2"/><rect class="c" x="722" y="34" rx="2" ry="2"/><rect class="c" x="722" y="50" rx="2" ry="2"/><rect class="c" x="722" y="66" rx="2" ry="2"/><rect class="c cc" x="722" y="82" rx="2" ry="2"/><rect class="c cd" x="722" y="98" rx="2" ry="2"/><rect class="c" x="738" y="2" rx="2" ry="2"/><rect class="c ce" x="738" y="18" rx="2" ry="2"/><rect class="c" x="738" y="34" rx="2" ry="2"/><rect class="c" x="738" y="50" rx="2" ry="2"/><rect class="c" x="738" y="66" rx="2" ry="2"/><rect class="c" x="738" y="82" rx="2" ry="2"/><rect class="c" x="738" y="98" rx="2" ry="2"/><rect class="c" x="754" y="2" rx="2" ry="2"/><rect class="c" x="754" y="18" rx="2" ry="2"/><rect class="c" x="754" y="34" rx="2" ry="2"/><rect class="c" x="754" y="50" rx="2" ry="2"/><rect class="c" x="754" y="66" rx="2" ry="2"/><rect class="c" x="754" y="82" rx="2" ry="2"/><rect class="c" x="754" y="98" rx="2" ry="2"/><rect class="c" x="770" y="2" rx="2" ry="2"/><rect class="c" x="770" y="18" rx="2" ry="2"/><rect class="c cf" x="770" y="34" rx="2" ry="2"/><rect class="c" x="770" y="50" rx="2" ry="2"/><rect class="c" x="770" y="66" rx="2" ry="2"/><rect class="c cg" x="770" y="82" rx="2" ry="2"/><rect class="c ch" x="770" y="98" rx="2" ry="2"/><rect class="c" x="786" y="2" rx="2" ry="2"/><rect class="c" x="786" y="18" rx="2" ry="2"/><rect class="c" x="786" y="34" rx="2" ry="2"/><rect class="c" x="786" y="50" rx="2" ry="2"/><rect class="c" x="786" y="66" rx="2" ry="2"/><rect class="c ci" x="786" y="82" rx="2" ry="2"/><rect class="c cj" x="786" y="98" rx="2" ry="2"/><rect class="c" x="802" y="2" rx="2" ry="2"/><rect class="c" x="802" y="18" rx="2" ry="2"/><rect class="c ck" x="802" y="34" rx="2" ry="2"/><rect class="c cl" x="802" y="50" rx="2" ry="2"/><rect class="c" x="802" y="66" rx="2" ry="2"/><rect class="c" x="802" y="82" rx="2" ry="2"/><rect class="c" x="802" y="98" rx="2" ry="2"/><rect class="c" x="818" y="2" rx="2" ry="2"/><rect class="c cm" x="818" y="18" rx="2" ry="2"/><rect class="c cn" x="818" y="34" rx="2" ry="2"/><rect class="c co" x="818" y="50" rx="2" ry="2"/><rect class="c cp" x="818" y="66" rx="2" ry="2"/><rect class="c cq" x="818" y="82" rx="2" ry="2"/><rect class="c cr" x="818" y="98" rx="2" ry="2"/><rect class="c cs" x="834" y="2" rx="2" ry="2"/><rect class="c ct" x="834" y="18" rx="2" ry="2"/><rect class="c cu" x="834" y="34" rx="2" ry="2"/><rect class="c cv" x="834" y="50" rx="2" ry="2"/><rect class="u u0" height="12" width="212.6" x="0.0" y="144"/><rect class="u u1" height="12" width="239.1" x="212.0" y="144"/><rect class="u u2" height="12" width="159.6" x="450.5" y="144"/><rect class="u u3" height="12" width="239.1" x="609.5" y="144"/><rect class="s s0" x="0.8" y="0.8" width="14.4" height="14.4" rx="4.5" ry="4.5"/><rect class="s s1" x="1.8" y="1.8" width="12.3" height="12.3" rx="4.1" ry="4.1"/><rect class="s s2" x="2.6" y="2.6" width="10.8" height="10.8" rx="3.6" ry="3.6"/><rect class="s s3" x="3.0" y="3.0" width="9.9" height="9.9" rx="3.3" ry="3.3"/></svg>