<svg viewBox="-16 -32 880 192" width="880" height="192" xmlns="http://www.w3.org/2000/svg"><desc>Generated with https://github.com/Platane/snk</desc><style>:root{--cb:#1b1f230a;--cs:764ba2;--ce:#ebedf0;--c0:#ebedf0;--c1:#9be9a8;--c2:#40c463;--c3:#30a14e;--c4:#216e39}.c{shape-rendering:geometricPrecision;fill:var(--ce);stroke-width:1px;stroke:var(--cb);animation:none 30100ms linear infinite;width:12px;height:12px}@keyframes c0{15.6%{fill:var(--c1)}15.62%,100%{fill:var(--ce)}}.c.c0{fill:var(--c1);animation-name:c0}@keyframes c1{15.27%{fill:var(--c1)}15.29%,100%{fill:var(--ce)}}.c.c1{fill:var(--c1);animation-name:c1}@keyframes c2{9.62%{fill:var(--c1)}9.64%,100%{fill:var(--ce)}}.c.c2{fill:var(--c1);animation-name:c2}@keyframes c3{10.62%{fill:var(--c1)}10.64%,100%{fill:var(--ce)}}.c.c3{fill:var(--c1);animation-name:c3}@keyframes c4{9.96%{fill:var(--c1)}9.98%,100%{fill:var(--ce)}}.c.c4{fill:var(--c1);animation-name:c4}@keyframes c5{10.29%{fill:var(--c1)}10.31%,100%{fill:var(--ce)}}.c.c5{fill:var(--c1);animation-name:c5}@keyframes c6{12.28%{fill:var(--c1)}12.3%,100%{fill:var(--ce)}}.c.c6{fill:var(--c1);animation-name:c6}@keyframes c7{12.61%{fill:var(--c1)}12.63%,100%{fill:var(--ce)}}.c.c7{fill:var(--c1);animation-name:c7}@keyframes c8{72.08%{fill:var(--c2)}72.1%,100%{fill:var(--ce)}}.c.c8{fill:var(--c2);animation-name:c8}@keyframes c9{71.75%{fill:var(--c2)}71.77%,100%{fill:var(--ce)}}.c.c9{fill:var(--c2);animation-name:c9}@keyframes ca{86.7%{fill:var(--c4)}86.72%,100%{fill:var(--ce)}}.c.ca{fill:var(--c4);animation-name:ca}@keyframes cb{21.58%{fill:var(--c1)}21.6%,100%{fill:var(--ce)}}.c.cb{fill:var(--c1);animation-name:cb}@keyframes cc{74.41%{fill:var(--c3)}74.43%,100%{fill:var(--ce)}}.c.cc{fill:var(--c3);animation-name:cc}@keyframes cd{69.43%{fill:var(--c2)}69.45%,100%{fill:var(--ce)}}.c.cd{fill:var(--c2);animation-name:cd}@keyframes ce{22.91%{fill:var(--c1)}22.93%,100%{fill:var(--ce)}}.c.ce{fill:var(--c1);animation-name:ce}@keyframes cf{63.11%{fill:var(--c2)}63.13%,100%{fill:var(--ce)}}.c.cf{fill:var(--c2);animation-name:cf}@keyframes cg{26.9%{fill:var(--c1)}26.92%,100%{fill:var(--ce)}}.c.cg{fill:var(--c1);animation-name:cg}@keyframes ch{64.44%{fill:var(--c2)}64.46%,100%{fill:var(--ce)}}.c.ch{fill:var(--c2);animation-name:ch}@keyframes ci{26.57%{fill:var(--c1)}26.59%,100%{fill:var(--ce)}}.c.ci{fill:var(--c1);animation-name:ci}@keyframes cj{64.77%{fill:var(--c2)}64.79%,100%{fill:var(--ce)}}.c.cj{fill:var(--c2);animation-name:cj}@keyframes ck{25.24%{fill:var(--c1)}25.26%,100%{fill:var(--ce)}}.c.ck{fill:var(--c1);animation-name:ck}@keyframes cl{62.12%{fill:var(--c2)}62.14%,100%{fill:var(--ce)}}.c.cl{fill:var(--c2);animation-name:cl}@keyframes cm{24.57%{fill:var(--c1)}24.59%,100%{fill:var(--ce)}}.c.cm{fill:var(--c1);animation-name:cm}@keyframes cn{24.91%{fill:var(--c1)}24.93%,100%{fill:var(--ce)}}.c.cn{fill:var(--c1);animation-name:cn}@keyframes co{49.16%{fill:var(--c2)}49.18%,100%{fill:var(--ce)}}.c.co{fill:var(--c2);animation-name:co}@keyframes cp{48.83%{fill:var(--c1)}48.85%,100%{fill:var(--ce)}}.c.cp{fill:var(--c1);animation-name:cp}@keyframes cq{83.05%{fill:var(--c4)}83.07%,100%{fill:var(--ce)}}.c.cq{fill:var(--c4);animation-name:cq}@keyframes cr{65.44%{fill:var(--c2)}65.46%,100%{fill:var(--ce)}}.c.cr{fill:var(--c2);animation-name:cr}@keyframes cs{58.46%{fill:var(--c2)}58.48%,100%{fill:var(--ce)}}.c.cs{fill:var(--c2);animation-name:cs}@keyframes ct{58.13%{fill:var(--c2)}58.15%,100%{fill:var(--ce)}}.c.ct{fill:var(--c2);animation-name:ct}@keyframes cu{59.79%{fill:var(--c2)}59.81%,100%{fill:var(--ce)}}.c.cu{fill:var(--c2);animation-name:cu}@keyframes cv{77.4%{fill:var(--c3)}77.42%,100%{fill:var(--ce)}}.c.cv{fill:var(--c3);animation-name:cv}@keyframes cw{51.82%{fill:var(--c2)}51.84%,100%{fill:var(--ce)}}.c.cw{fill:var(--c2);animation-name:cw}@keyframes cx{66.77%{fill:var(--c2)}66.79%,100%{fill:var(--ce)}}.c.cx{fill:var(--c2);animation-name:cx}@keyframes cy{65.77%{fill:var(--c2)}65.79%,100%{fill:var(--ce)}}.c.cy{fill:var(--c2);animation-name:cy}@keyframes cz{79.39%{fill:var(--c3)}79.41%,100%{fill:var(--ce)}}.c.cz{fill:var(--c3);animation-name:cz}@keyframes c10{57.8%{fill:var(--c2)}57.82%,100%{fill:var(--ce)}}.c.c10{fill:var(--c2);animation-name:c10}@keyframes c11{60.12%{fill:var(--c2)}60.14%,100%{fill:var(--ce)}}.c.c11{fill:var(--c2);animation-name:c11}@keyframes c12{77.73%{fill:var(--c3)}77.75%,100%{fill:var(--ce)}}.c.c12{fill:var(--c3);animation-name:c12}@keyframes c13{52.15%{fill:var(--c1)}52.17%,100%{fill:var(--ce)}}.c.c13{fill:var(--c1);animation-name:c13}@keyframes c14{52.48%{fill:var(--c2)}52.5%,100%{fill:var(--ce)}}.c.c14{fill:var(--c2);animation-name:c14}@keyframes c15{66.1%{fill:var(--c2)}66.12%,100%{fill:var(--ce)}}.c.c15{fill:var(--c2);animation-name:c15}@keyframes c16{56.47%{fill:var(--c2)}56.49%,100%{fill:var(--ce)}}.c.c16{fill:var(--c2);animation-name:c16}@keyframes c17{56.14%{fill:var(--c2)}56.16%,100%{fill:var(--ce)}}.c.c17{fill:var(--c2);animation-name:c17}@keyframes c18{55.8%{fill:var(--c2)}55.82%,100%{fill:var(--ce)}}.c.c18{fill:var(--c2);animation-name:c18}@keyframes c19{78.06%{fill:var(--c3)}78.08%,100%{fill:var(--ce)}}.c.c19{fill:var(--c3);animation-name:c19}@keyframes c1a{81.72%{fill:var(--c4)}81.74%,100%{fill:var(--ce)}}.c.c1a{fill:var(--c4);animation-name:c1a}@keyframes c1b{52.81%{fill:var(--c2)}52.83%,100%{fill:var(--ce)}}.c.c1b{fill:var(--c2);animation-name:c1b}@keyframes c1c{30.55%{fill:var(--c1)}30.57%,100%{fill:var(--ce)}}.c.c1c{fill:var(--c1);animation-name:c1c}@keyframes c1d{56.8%{fill:var(--c2)}56.82%,100%{fill:var(--ce)}}.c.c1d{fill:var(--c2);animation-name:c1d}@keyframes c1e{43.18%{fill:var(--c1)}43.2%,100%{fill:var(--ce)}}.c.c1e{fill:var(--c1);animation-name:c1e}@keyframes c1f{42.85%{fill:var(--c1)}42.87%,100%{fill:var(--ce)}}.c.c1f{fill:var(--c1);animation-name:c1f}@keyframes c1g{81.05%{fill:var(--c4)}81.07%,100%{fill:var(--ce)}}.c.c1g{fill:var(--c4);animation-name:c1g}@keyframes c1h{53.48%{fill:var(--c2)}53.5%,100%{fill:var(--ce)}}.c.c1h{fill:var(--c2);animation-name:c1h}@keyframes c1i{40.52%{fill:var(--c1)}40.54%,100%{fill:var(--ce)}}.c.c1i{fill:var(--c1);animation-name:c1i}@keyframes c1j{30.89%{fill:var(--c1)}30.91%,100%{fill:var(--ce)}}.c.c1j{fill:var(--c1);animation-name:c1j}@keyframes c1k{35.21%{fill:var(--c1)}35.23%,100%{fill:var(--ce)}}.c.c1k{fill:var(--c1);animation-name:c1k}@keyframes c1l{43.51%{fill:var(--c2)}43.53%,100%{fill:var(--ce)}}.c.c1l{fill:var(--c2);animation-name:c1l}@keyframes c1m{42.51%{fill:var(--c1)}42.53%,100%{fill:var(--ce)}}.c.c1m{fill:var(--c1);animation-name:c1m}@keyframes c1n{38.2%{fill:var(--c1)}38.22%,100%{fill:var(--ce)}}.c.c1n{fill:var(--c1);animation-name:c1n}@keyframes c1o{38.53%{fill:var(--c1)}38.55%,100%{fill:var(--ce)}}.c.c1o{fill:var(--c1);animation-name:c1o}@keyframes c1p{40.19%{fill:var(--c1)}40.21%,100%{fill:var(--ce)}}.c.c1p{fill:var(--c1);animation-name:c1p}@keyframes c1q{31.22%{fill:var(--c1)}31.24%,100%{fill:var(--ce)}}.c.c1q{fill:var(--c1);animation-name:c1q}@keyframes c1r{34.87%{fill:var(--c1)}34.89%,100%{fill:var(--ce)}}.c.c1r{fill:var(--c1);animation-name:c1r}@keyframes c1s{36.53%{fill:var(--c1)}36.55%,100%{fill:var(--ce)}}.c.c1s{fill:var(--c1);animation-name:c1s}@keyframes c1t{54.81%{fill:var(--c2)}54.83%,100%{fill:var(--ce)}}.c.c1t{fill:var(--c2);animation-name:c1t}@keyframes c1u{37.86%{fill:var(--c1)}37.88%,100%{fill:var(--ce)}}.c.c1u{fill:var(--c1);animation-name:c1u}@keyframes c1v{38.86%{fill:var(--c1)}38.88%,100%{fill:var(--ce)}}.c.c1v{fill:var(--c1);animation-name:c1v}@keyframes c1w{39.86%{fill:var(--c1)}39.88%,100%{fill:var(--ce)}}.c.c1w{fill:var(--c1);animation-name:c1w}@keyframes c1x{31.55%{fill:var(--c1)}31.57%,100%{fill:var(--ce)}}.c.c1x{fill:var(--c1);animation-name:c1x}@keyframes c1y{34.54%{fill:var(--c1)}34.56%,100%{fill:var(--ce)}}.c.c1y{fill:var(--c1);animation-name:c1y}@keyframes c1z{36.87%{fill:var(--c1)}36.89%,100%{fill:var(--ce)}}.c.c1z{fill:var(--c1);animation-name:c1z}@keyframes c20{37.2%{fill:var(--c1)}37.22%,100%{fill:var(--ce)}}.c.c20{fill:var(--c1);animation-name:c20}@keyframes c21{37.53%{fill:var(--c1)}37.55%,100%{fill:var(--ce)}}.c.c21{fill:var(--c1);animation-name:c21}@keyframes c22{39.19%{fill:var(--c1)}39.21%,100%{fill:var(--ce)}}.c.c22{fill:var(--c1);animation-name:c22}@keyframes c23{32.22%{fill:var(--c1)}32.24%,100%{fill:var(--ce)}}.c.c23{fill:var(--c1);animation-name:c23}@keyframes c24{31.88%{fill:var(--c1)}31.9%,100%{fill:var(--ce)}}.c.c24{fill:var(--c1);animation-name:c24}@keyframes c25{34.21%{fill:var(--c1)}34.23%,100%{fill:var(--ce)}}.c.c25{fill:var(--c1);animation-name:c25}@keyframes c26{33.88%{fill:var(--c1)}33.9%,100%{fill:var(--ce)}}.c.c26{fill:var(--c1);animation-name:c26}@keyframes c27{33.54%{fill:var(--c1)}33.56%,100%{fill:var(--ce)}}.c.c27{fill:var(--c1);animation-name:c27}@keyframes c28{33.21%{fill:var(--c1)}33.23%,100%{fill:var(--ce)}}.c.c28{fill:var(--c1);animation-name:c28}@keyframes c29{32.88%{fill:var(--c1)}32.9%,100%{fill:var(--ce)}}.c.c29{fill:var(--c1);animation-name:c29}@keyframes c2a{32.55%{fill:var(--c1)}32.57%,100%{fill:var(--ce)}}.c.c2a{fill:var(--c1);animation-name:c2a}.u{transform-origin:0 0;transform:scale(0,1);animation:none linear 30100ms infinite}@keyframes u0{9.62%{transform:scale(0.000,1)}9.64%,9.96%{transform:scale(0.022,1)}9.98%,10.29%{transform:scale(0.044,1)}10.31%,10.62%{transform:scale(0.067,1)}10.64%,12.28%{transform:scale(0.089,1)}12.3%,12.61%{transform:scale(0.111,1)}12.63%,15.27%{transform:scale(0.133,1)}15.29%,15.6%{transform:scale(0.156,1)}15.62%,21.58%{transform:scale(0.178,1)}21.6%,22.91%{transform:scale(0.200,1)}22.93%,24.57%{transform:scale(0.222,1)}24.59%,24.91%{transform:scale(0.244,1)}24.93%,25.24%{transform:scale(0.267,1)}25.26%,26.57%{transform:scale(0.289,1)}26.59%,26.9%{transform:scale(0.311,1)}26.92%,30.55%{transform:scale(0.333,1)}30.57%,30.89%{transform:scale(0.356,1)}30.91%,31.22%{transform:scale(0.378,1)}31.24%,31.55%{transform:scale(0.400,1)}31.57%,31.88%{transform:scale(0.422,1)}31.9%,32.22%{transform:scale(0.444,1)}32.24%,32.55%{transform:scale(0.467,1)}32.57%,32.88%{transform:scale(0.489,1)}32.9%,33.21%{transform:scale(0.511,1)}33.23%,33.54%{transform:scale(0.533,1)}33.56%,33.88%{transform:scale(0.556,1)}33.9%,34.21%{transform:scale(0.578,1)}34.23%,34.54%{transform:scale(0.600,1)}34.56%,34.87%{transform:scale(0.622,1)}34.89%,35.21%{transform:scale(0.644,1)}35.23%,36.53%{transform:scale(0.667,1)}36.55%,36.87%{transform:scale(0.689,1)}36.89%,37.2%{transform:scale(0.711,1)}37.22%,37.53%{transform:scale(0.733,1)}37.55%,37.86%{transform:scale(0.756,1)}37.88%,38.2%{transform:scale(0.778,1)}38.22%,38.53%{transform:scale(0.800,1)}38.55%,38.86%{transform:scale(0.822,1)}38.88%,39.19%{transform:scale(0.844,1)}39.21%,39.86%{transform:scale(0.867,1)}39.88%,40.19%{transform:scale(0.889,1)}40.21%,40.52%{transform:scale(0.911,1)}40.54%,42.51%{transform:scale(0.933,1)}42.53%,42.85%{transform:scale(0.956,1)}42.87%,43.18%{transform:scale(0.978,1)}43.2%,100%{transform:scale(1.000,1)}}.u.u0{fill:var(--c1);animation-name:u0;transform-origin:0.0px 0}@keyframes u1{43.51%{transform:scale(0.000,1)}43.53%,100%{transform:scale(1.000,1)}}.u.u1{fill:var(--c2);animation-name:u1;transform-origin:459.8px 0}@keyframes u2{48.83%{transform:scale(0.000,1)}48.85%,100%{transform:scale(1.000,1)}}.u.u2{fill:var(--c1);animation-name:u2;transform-origin:470.0px 0}@keyframes u3{49.16%{transform:scale(0.000,1)}49.18%,51.82%{transform:scale(0.500,1)}51.84%,100%{transform:scale(1.000,1)}}.u.u3{fill:var(--c2);animation-name:u3;transform-origin:480.2px 0}@keyframes u4{52.15%{transform:scale(0.000,1)}52.17%,100%{transform:scale(1.000,1)}}.u.u4{fill:var(--c1);animation-name:u4;transform-origin:500.6px 0}@keyframes u5{52.48%{transform:scale(0.000,1)}52.5%,52.81%{transform:scale(0.042,1)}52.83%,53.48%{transform:scale(0.083,1)}53.5%,54.81%{transform:scale(0.125,1)}54.83%,55.8%{transform:scale(0.167,1)}55.82%,56.14%{transform:scale(0.208,1)}56.16%,56.47%{transform:scale(0.250,1)}56.49%,56.8%{transform:scale(0.292,1)}56.82%,57.8%{transform:scale(0.333,1)}57.82%,58.13%{transform:scale(0.375,1)}58.15%,58.46%{transform:scale(0.417,1)}58.48%,59.79%{transform:scale(0.458,1)}59.81%,60.12%{transform:scale(0.500,1)}60.14%,62.12%{transform:scale(0.542,1)}62.14%,63.11%{transform:scale(0.583,1)}63.13%,64.44%{transform:scale(0.625,1)}64.46%,64.77%{transform:scale(0.667,1)}64.79%,65.44%{transform:scale(0.708,1)}65.46%,65.77%{transform:scale(0.750,1)}65.79%,66.1%{transform:scale(0.792,1)}66.12%,66.77%{transform:scale(0.833,1)}66.79%,69.43%{transform:scale(0.875,1)}69.45%,71.75%{transform:scale(0.917,1)}71.77%,72.08%{transform:scale(0.958,1)}72.1%,100%{transform:scale(1.000,1)}}.u.u5{fill:var(--c2);animation-name:u5;transform-origin:510.8px 0}@keyframes u6{74.41%{transform:scale(0.000,1)}74.43%,77.4%{transform:scale(0.200,1)}77.42%,77.73%{transform:scale(0.400,1)}77.75%,78.06%{transform:scale(0.600,1)}78.08%,79.39%{transform:scale(0.800,1)}79.41%,100%{transform:scale(1.000,1)}}.u.u6{fill:var(--c3);animation-name:u6;transform-origin:756.0px 0}@keyframes u7{81.05%{transform:scale(0.000,1)}81.07%,81.72%{transform:scale(0.250,1)}81.74%,83.05%{transform:scale(0.500,1)}83.07%,86.7%{transform:scale(0.750,1)}86.72%,100%{transform:scale(1.000,1)}}.u.u7{fill:var(--c4);animation-name:u7;transform-origin:807.1px 0}.s{shape-rendering:geometricPrecision;fill:var(--cs);animation:none linear 30100ms infinite}@keyframes s0{0%,99.67%{transform:translate(0px,-16px)}0.33%{transform:translate(0px,0px)}9.3%{transform:translate(432px,0px)}9.63%{transform:translate(432px,16px)}9.97%{transform:translate(448px,16px)}10.3%{transform:translate(448px,32px)}10.63%{transform:translate(432px,32px)}10.96%{transform:translate(432px,48px)}12.29%{transform:translate(496px,48px)}12.62%{transform:translate(496px,64px)}14.95%{transform:translate(384px,64px)}15.28%{transform:translate(384px,80px)}15.61%{transform:translate(368px,80px)}15.95%{transform:translate(368px,64px)}20.27%{transform:translate(576px,64px)}21.59%{transform:translate(576px,0px)}22.59%{transform:translate(624px,0px)}22.92%{transform:translate(624px,16px)}24.58%,49.83%,59.14%{transform:translate(704px,16px)}24.92%,50.83%{transform:translate(704px,32px)}25.58%,47.51%,62.79%{transform:translate(672px,32px)}26.58%{transform:translate(672px,80px)}26.91%{transform:translate(656px,80px)}27.24%{transform:translate(656px,64px)}27.91%,76.41%{transform:translate(688px,64px)}28.9%{transform:translate(688px,112px)}30.23%{transform:translate(752px,112px)}30.56%{transform:translate(752px,96px)}31.89%{transform:translate(816px,96px)}32.23%,39.53%{transform:translate(816px,80px)}32.56%{transform:translate(832px,80px)}34.22%{transform:translate(832px,0px)}35.22%{transform:translate(784px,0px)}35.55%,44.19%{transform:translate(784px,-16px)}35.88%{transform:translate(800px,-16px)}36.54%{transform:translate(800px,16px)}36.88%{transform:translate(816px,16px)}37.54%{transform:translate(816px,48px)}38.21%{transform:translate(784px,48px)}38.54%{transform:translate(784px,64px)}39.2%{transform:translate(816px,64px)}40.53%,53.16%{transform:translate(768px,80px)}40.86%{transform:translate(768px,96px)}41.2%{transform:translate(784px,96px)}42.52%{transform:translate(784px,32px)}42.86%{transform:translate(768px,32px)}43.19%,57.14%,80.4%{transform:translate(768px,16px)}43.52%{transform:translate(784px,16px)}46.18%{transform:translate(688px,-16px)}47.18%,50.5%{transform:translate(688px,32px)}48.17%{transform:translate(672px,64px)}48.84%,51.5%,82.72%{transform:translate(704px,64px)}50.17%,61.46%{transform:translate(688px,16px)}52.16%{transform:translate(736px,64px)}52.49%,66.45%{transform:translate(736px,80px)}53.49%{transform:translate(768px,64px)}54.15%{transform:translate(800px,64px)}54.82%{transform:translate(800px,32px)}55.81%{transform:translate(752px,32px)}56.48%,79.07%{transform:translate(752px,0px)}56.81%{transform:translate(768px,0px)}58.14%,59.47%{transform:translate(720px,16px)}58.47%{transform:translate(720px,0px)}58.8%{transform:translate(704px,0px)}59.8%{transform:translate(720px,32px)}60.13%{transform:translate(736px,32px)}60.47%,79.73%{transform:translate(736px,16px)}62.13%,84.05%{transform:translate(688px,48px)}62.46%{transform:translate(672px,48px)}63.12%{transform:translate(656px,32px)}64.45%{transform:translate(656px,96px)}66.11%{transform:translate(736px,96px)}66.78%{transform:translate(720px,80px)}67.11%{transform:translate(720px,96px)}69.77%{transform:translate(592px,96px)}71.1%{transform:translate(592px,32px)}72.09%{transform:translate(544px,32px)}72.76%{transform:translate(544px,64px)}74.09%{transform:translate(608px,64px)}74.42%{transform:translate(608px,80px)}76.08%,83.39%{transform:translate(688px,80px)}77.08%{transform:translate(720px,64px)}77.41%{transform:translate(720px,48px)}78.07%,81.4%{transform:translate(752px,48px)}79.4%{transform:translate(736px,0px)}81.06%{transform:translate(768px,48px)}81.73%{transform:translate(752px,64px)}83.06%{transform:translate(704px,80px)}96.35%{transform:translate(96px,48px)}97.01%{transform:translate(96px,16px)}98.01%{transform:translate(48px,16px)}98.67%{transform:translate(48px,-16px)}}.s.s0{transform:translate(0px,-16px);animation-name:s0}@keyframes s1{0%,99.67%{transform:translate(16px,-16px)}0.33%{transform:translate(0px,-16px)}0.66%{transform:translate(0px,0px)}9.63%{transform:translate(432px,0px)}9.97%{transform:translate(432px,16px)}10.3%{transform:translate(448px,16px)}10.63%{transform:translate(448px,32px)}10.96%{transform:translate(432px,32px)}11.3%{transform:translate(432px,48px)}12.62%{transform:translate(496px,48px)}12.96%{transform:translate(496px,64px)}15.28%{transform:translate(384px,64px)}15.61%{transform:translate(384px,80px)}15.95%{transform:translate(368px,80px)}16.28%{transform:translate(368px,64px)}20.6%{transform:translate(576px,64px)}21.93%{transform:translate(576px,0px)}22.92%{transform:translate(624px,0px)}23.26%{transform:translate(624px,16px)}24.92%,50.17%,59.47%{transform:translate(704px,16px)}25.25%,51.16%{transform:translate(704px,32px)}25.91%,47.84%,63.12%{transform:translate(672px,32px)}26.91%{transform:translate(672px,80px)}27.24%{transform:translate(656px,80px)}27.57%{transform:translate(656px,64px)}28.24%,76.74%{transform:translate(688px,64px)}29.24%{transform:translate(688px,112px)}30.56%{transform:translate(752px,112px)}30.9%{transform:translate(752px,96px)}32.23%{transform:translate(816px,96px)}32.56%,39.87%{transform:translate(816px,80px)}32.89%{transform:translate(832px,80px)}34.55%{transform:translate(832px,0px)}35.55%{transform:translate(784px,0px)}35.88%,44.52%{transform:translate(784px,-16px)}36.21%{transform:translate(800px,-16px)}36.88%{transform:translate(800px,16px)}37.21%{transform:translate(816px,16px)}37.87%{transform:translate(816px,48px)}38.54%{transform:translate(784px,48px)}38.87%{transform:translate(784px,64px)}39.53%{transform:translate(816px,64px)}40.86%,53.49%{transform:translate(768px,80px)}41.2%{transform:translate(768px,96px)}41.53%{transform:translate(784px,96px)}42.86%{transform:translate(784px,32px)}43.19%{transform:translate(768px,32px)}43.52%,57.48%,80.73%{transform:translate(768px,16px)}43.85%{transform:translate(784px,16px)}46.51%{transform:translate(688px,-16px)}47.51%,50.83%{transform:translate(688px,32px)}48.5%{transform:translate(672px,64px)}49.17%,51.83%,83.06%{transform:translate(704px,64px)}50.5%,61.79%{transform:translate(688px,16px)}52.49%{transform:translate(736px,64px)}52.82%,66.78%{transform:translate(736px,80px)}53.82%{transform:translate(768px,64px)}54.49%{transform:translate(800px,64px)}55.15%{transform:translate(800px,32px)}56.15%{transform:translate(752px,32px)}56.81%,79.4%{transform:translate(752px,0px)}57.14%{transform:translate(768px,0px)}58.47%,59.8%{transform:translate(720px,16px)}58.8%{transform:translate(720px,0px)}59.14%{transform:translate(704px,0px)}60.13%{transform:translate(720px,32px)}60.47%{transform:translate(736px,32px)}60.8%,80.07%{transform:translate(736px,16px)}62.46%,84.39%{transform:translate(688px,48px)}62.79%{transform:translate(672px,48px)}63.46%{transform:translate(656px,32px)}64.78%{transform:translate(656px,96px)}66.45%{transform:translate(736px,96px)}67.11%{transform:translate(720px,80px)}67.44%{transform:translate(720px,96px)}70.1%{transform:translate(592px,96px)}71.43%{transform:translate(592px,32px)}72.43%{transform:translate(544px,32px)}73.09%{transform:translate(544px,64px)}74.42%{transform:translate(608px,64px)}74.75%{transform:translate(608px,80px)}76.41%,83.72%{transform:translate(688px,80px)}77.41%{transform:translate(720px,64px)}77.74%{transform:translate(720px,48px)}78.41%,81.73%{transform:translate(752px,48px)}79.73%{transform:translate(736px,0px)}81.4%{transform:translate(768px,48px)}82.06%{transform:translate(752px,64px)}83.39%{transform:translate(704px,80px)}96.68%{transform:translate(96px,48px)}97.34%{transform:translate(96px,16px)}98.34%{transform:translate(48px,16px)}99%{transform:translate(48px,-16px)}}.s.s1{transform:translate(16px,-16px);animation-name:s1}@keyframes s2{0%,99.67%{transform:translate(32px,-16px)}0.66%{transform:translate(0px,-16px)}1%{transform:translate(0px,0px)}9.97%{transform:translate(432px,0px)}10.3%{transform:translate(432px,16px)}10.63%{transform:translate(448px,16px)}10.96%{transform:translate(448px,32px)}11.3%{transform:translate(432px,32px)}11.63%{transform:translate(432px,48px)}12.96%{transform:translate(496px,48px)}13.29%{transform:translate(496px,64px)}15.61%{transform:translate(384px,64px)}15.95%{transform:translate(384px,80px)}16.28%{transform:translate(368px,80px)}16.61%{transform:translate(368px,64px)}20.93%{transform:translate(576px,64px)}22.26%{transform:translate(576px,0px)}23.26%{transform:translate(624px,0px)}23.59%{transform:translate(624px,16px)}25.25%,50.5%,59.8%{transform:translate(704px,16px)}25.58%,51.5%{transform:translate(704px,32px)}26.25%,48.17%,63.46%{transform:translate(672px,32px)}27.24%{transform:translate(672px,80px)}27.57%{transform:translate(656px,80px)}27.91%{transform:translate(656px,64px)}28.57%,77.08%{transform:translate(688px,64px)}29.57%{transform:translate(688px,112px)}30.9%{transform:translate(752px,112px)}31.23%{transform:translate(752px,96px)}32.56%{transform:translate(816px,96px)}32.89%,40.2%{transform:translate(816px,80px)}33.22%{transform:translate(832px,80px)}34.88%{transform:translate(832px,0px)}35.88%{transform:translate(784px,0px)}36.21%,44.85%{transform:translate(784px,-16px)}36.54%{transform:translate(800px,-16px)}37.21%{transform:translate(800px,16px)}37.54%{transform:translate(816px,16px)}38.21%{transform:translate(816px,48px)}38.87%{transform:translate(784px,48px)}39.2%{transform:translate(784px,64px)}39.87%{transform:translate(816px,64px)}41.2%,53.82%{transform:translate(768px,80px)}41.53%{transform:translate(768px,96px)}41.86%{transform:translate(784px,96px)}43.19%{transform:translate(784px,32px)}43.52%{transform:translate(768px,32px)}43.85%,57.81%,81.06%{transform:translate(768px,16px)}44.19%{transform:translate(784px,16px)}46.84%{transform:translate(688px,-16px)}47.84%,51.16%{transform:translate(688px,32px)}48.84%{transform:translate(672px,64px)}49.5%,52.16%,83.39%{transform:translate(704px,64px)}50.83%,62.13%{transform:translate(688px,16px)}52.82%{transform:translate(736px,64px)}53.16%,67.11%{transform:translate(736px,80px)}54.15%{transform:translate(768px,64px)}54.82%{transform:translate(800px,64px)}55.48%{transform:translate(800px,32px)}56.48%{transform:translate(752px,32px)}57.14%,79.73%{transform:translate(752px,0px)}57.48%{transform:translate(768px,0px)}58.8%,60.13%{transform:translate(720px,16px)}59.14%{transform:translate(720px,0px)}59.47%{transform:translate(704px,0px)}60.47%{transform:translate(720px,32px)}60.8%{transform:translate(736px,32px)}61.13%,80.4%{transform:translate(736px,16px)}62.79%,84.72%{transform:translate(688px,48px)}63.12%{transform:translate(672px,48px)}63.79%{transform:translate(656px,32px)}65.12%{transform:translate(656px,96px)}66.78%{transform:translate(736px,96px)}67.44%{transform:translate(720px,80px)}67.77%{transform:translate(720px,96px)}70.43%{transform:translate(592px,96px)}71.76%{transform:translate(592px,32px)}72.76%{transform:translate(544px,32px)}73.42%{transform:translate(544px,64px)}74.75%{transform:translate(608px,64px)}75.08%{transform:translate(608px,80px)}76.74%,84.05%{transform:translate(688px,80px)}77.74%{transform:translate(720px,64px)}78.07%{transform:translate(720px,48px)}78.74%,82.06%{transform:translate(752px,48px)}80.07%{transform:translate(736px,0px)}81.73%{transform:translate(768px,48px)}82.39%{transform:translate(752px,64px)}83.72%{transform:translate(704px,80px)}97.01%{transform:translate(96px,48px)}97.67%{transform:translate(96px,16px)}98.67%{transform:translate(48px,16px)}99.34%{transform:translate(48px,-16px)}}.s.s2{transform:translate(32px,-16px);animation-name:s2}@keyframes s3{0%,99.67%{transform:translate(48px,-16px)}1%{transform:translate(0px,-16px)}1.33%{transform:translate(0px,0px)}10.3%{transform:translate(432px,0px)}10.63%{transform:translate(432px,16px)}10.96%{transform:translate(448px,16px)}11.3%{transform:translate(448px,32px)}11.63%{transform:translate(432px,32px)}11.96%{transform:translate(432px,48px)}13.29%{transform:translate(496px,48px)}13.62%{transform:translate(496px,64px)}15.95%{transform:translate(384px,64px)}16.28%{transform:translate(384px,80px)}16.61%{transform:translate(368px,80px)}16.94%{transform:translate(368px,64px)}21.26%{transform:translate(576px,64px)}22.59%{transform:translate(576px,0px)}23.59%{transform:translate(624px,0px)}23.92%{transform:translate(624px,16px)}25.58%,50.83%,60.13%{transform:translate(704px,16px)}25.91%,51.83%{transform:translate(704px,32px)}26.58%,48.5%,63.79%{transform:translate(672px,32px)}27.57%{transform:translate(672px,80px)}27.91%{transform:translate(656px,80px)}28.24%{transform:translate(656px,64px)}28.9%,77.41%{transform:translate(688px,64px)}29.9%{transform:translate(688px,112px)}31.23%{transform:translate(752px,112px)}31.56%{transform:translate(752px,96px)}32.89%{transform:translate(816px,96px)}33.22%,40.53%{transform:translate(816px,80px)}33.55%{transform:translate(832px,80px)}35.22%{transform:translate(832px,0px)}36.21%{transform:translate(784px,0px)}36.54%,45.18%{transform:translate(784px,-16px)}36.88%{transform:translate(800px,-16px)}37.54%{transform:translate(800px,16px)}37.87%{transform:translate(816px,16px)}38.54%{transform:translate(816px,48px)}39.2%{transform:translate(784px,48px)}39.53%{transform:translate(784px,64px)}40.2%{transform:translate(816px,64px)}41.53%,54.15%{transform:translate(768px,80px)}41.86%{transform:translate(768px,96px)}42.19%{transform:translate(784px,96px)}43.52%{transform:translate(784px,32px)}43.85%{transform:translate(768px,32px)}44.19%,58.14%,81.4%{transform:translate(768px,16px)}44.52%{transform:translate(784px,16px)}47.18%{transform:translate(688px,-16px)}48.17%,51.5%{transform:translate(688px,32px)}49.17%{transform:translate(672px,64px)}49.83%,52.49%,83.72%{transform:translate(704px,64px)}51.16%,62.46%{transform:translate(688px,16px)}53.16%{transform:translate(736px,64px)}53.49%,67.44%{transform:translate(736px,80px)}54.49%{transform:translate(768px,64px)}55.15%{transform:translate(800px,64px)}55.81%{transform:translate(800px,32px)}56.81%{transform:translate(752px,32px)}57.48%,80.07%{transform:translate(752px,0px)}57.81%{transform:translate(768px,0px)}59.14%,60.47%{transform:translate(720px,16px)}59.47%{transform:translate(720px,0px)}59.8%{transform:translate(704px,0px)}60.8%{transform:translate(720px,32px)}61.13%{transform:translate(736px,32px)}61.46%,80.73%{transform:translate(736px,16px)}63.12%,85.05%{transform:translate(688px,48px)}63.46%{transform:translate(672px,48px)}64.12%{transform:translate(656px,32px)}65.45%{transform:translate(656px,96px)}67.11%{transform:translate(736px,96px)}67.77%{transform:translate(720px,80px)}68.11%{transform:translate(720px,96px)}70.76%{transform:translate(592px,96px)}72.09%{transform:translate(592px,32px)}73.09%{transform:translate(544px,32px)}73.75%{transform:translate(544px,64px)}75.08%{transform:translate(608px,64px)}75.42%{transform:translate(608px,80px)}77.08%,84.39%{transform:translate(688px,80px)}78.07%{transform:translate(720px,64px)}78.41%{transform:translate(720px,48px)}79.07%,82.39%{transform:translate(752px,48px)}80.4%{transform:translate(736px,0px)}82.06%{transform:translate(768px,48px)}82.72%{transform:translate(752px,64px)}84.05%{transform:translate(704px,80px)}97.34%{transform:translate(96px,48px)}98.01%{transform:translate(96px,16px)}99%{transform:translate(48px,16px)}}.s.s3{transform:translate(48px,-16px);animation-name:s3}</style><rect class="c" x="2" y="2" rx="2" ry="2"/><rect class="c" x="2" y="18" rx="2" ry="2"/><rect class="c" x="2" y="34" rx="2" ry="2"/><rect class="c" x="2" y="50" rx="2" ry="2"/><rect class="c" x="2" y="66" rx="2" ry="2"/><rect class="c" x="2" y="82" rx="2" ry="2"/><rect class="c" x="2" y="98" rx="2" ry="2"/><rect class="c" x="18" y="2" rx="2" ry="2"/><rect class="c" x="18" y="18" rx="2" ry="2"/><rect class="c" x="18" y="34" rx="2" ry="2"/><rect class="c" x="18" y="50" rx="2" ry="2"/><rect class="c" x="18" y="66" rx="2" ry="2"/><rect class="c" x="18" y="82" rx="2" ry="2"/><rect class="c" x="18" y="98" rx="2" ry="2"/><rect class="c" x="34" y="2" rx="2" ry="2"/><rect class="c" x="34" y="18" rx="2" ry="2"/><rect class="c" x="34" y="34" rx="2" ry="2"/><rect class="c" x="34" y="50" rx="2" ry="2"/><rect class="c" x="34" y="66" rx="2" ry="2"/><rect class="c" x="34" y="82" rx="2" ry="2"/><rect class="c" x="34" y="98" rx="2" ry="2"/><rect class="c" x="50" y="2" rx="2" ry="2"/><rect class="c" x="50" y="18" rx="2" ry="2"/><rect class="c" x="50" y="34" rx="2" ry="2"/><rect class="c" x="50" y="50" rx="2" ry="2"/><rect class="c" x="50" y="66" rx="2" ry="2"/><rect class="c" x="50" y="82" rx="2" ry="2"/><rect class="c" x="50" y="98" rx="2" ry="2"/><rect class="c" x="66" y="2" rx="2" ry="2"/><rect class="c" x="66" y="18" rx="2" ry="2"/><rect class="c" x="66" y="34" rx="2" ry="2"/><rect class="c" x="66" y="50" rx="2" ry="2"/><rect class="c" x="66" y="66" rx="2" ry="2"/><rect class="c" x="66" y="82" rx="2" ry="2"/><rect class="c" x="66" y="98" rx="2" ry="2"/><rect class="c" x="82" y="2" rx="2" ry="2"/><rect class="c" x="82" y="18" rx="2" ry="2"/><rect class="c" x="82" y="34" rx="2" ry="2"/><rect class="c" x="82" y="50" rx="2" ry="2"/><rect class="c" x="82" y="66" rx="2" ry="2"/><rect class="c" x="82" y="82" rx="2" ry="2"/><rect class="c" x="82" y="98" rx="2" ry="2"/><rect class="c" x="98" y="2" rx="2" ry="2"/><rect class="c" x="98" y="18" rx="2" ry="2"/><rect class="c" x="98" y="34" rx="2" ry="2"/><rect class="c" x="98" y="50" rx="2" ry="2"/><rect class="c" x="98" y="66" rx="2" ry="2"/><rect class="c" x="98" y="82" rx="2" ry="2"/><rect class="c" x="98" y="98" rx="2" ry="2"/><rect class="c" x="114" y="2" rx="2" ry="2"/><rect class="c" x="114" y="18" rx="2" ry="2"/><rect class="c" x="114" y="34" rx="2" ry="2"/><rect class="c" x="114" y="50" rx="2" ry="2"/><rect class="c" x="114" y="66" rx="2" ry="2"/><rect class="c" x="114" y="82" rx="2" ry="2"/><rect class="c" x="114" y="98" rx="2" ry="2"/><rect class="c" x="130" y="2" rx="2" ry="2"/><rect class="c" x="130" y="18" rx="2" ry="2"/><rect class="c" x="130" y="34" rx="2" ry="2"/><rect class="c" x="130" y="50" rx="2" ry="2"/><rect class="c" x="130" y="66" rx="2" ry="2"/><rect class="c" x="130" y="82" rx="2" ry="2"/><rect class="c" x="130" y="98" rx="2" ry="2"/><rect class="c" x="146" y="2" rx="2" ry="2"/><rect class="c" x="146" y="18" rx="2" ry="2"/><rect class="c" x="146" y="34" rx="2" ry="2"/><rect class="c" x="146" y="50" rx="2" ry="2"/><rect class="c" x="146" y="66" rx="2" ry="2"/><rect class="c" x="146" y="82" rx="2" ry="2"/><rect class="c" x="146" y="98" rx="2" ry="2"/><rect class="c" x="162" y="2" rx="2" ry="2"/><rect class="c" x="162" y="18" rx="2" ry="2"/><rect class="c" x="162" y="34" rx="2" ry="2"/><rect class="c" x="162" y="50" rx="2" ry="2"/><rect class="c" x="162" y="66" rx="2" ry="2"/><rect class="c" x="162" y="82" rx="2" ry="2"/><rect class="c" x="162" y="98" rx="2" ry="2"/><rect class="c" x="178" y="2" rx="2" ry="2"/><rect class="c" x="178" y="18" rx="2" ry="2"/><rect class="c" x="178" y="34" rx="2" ry="2"/><rect class="c" x="178" y="50" rx="2" ry="2"/><rect class="c" x="178" y="66" rx="2" ry="2"/><rect class="c" x="178" y="82" rx="2" ry="2"/><rect class="c" x="178" y="98" rx="2" ry="2"/><rect class="c" x="194" y="2" rx="2" ry="2"/><rect class="c" x="194" y="18" rx="2" ry="2"/><rect class="c" x="194" y="34" rx="2" ry="2"/><rect class="c" x="194" y="50" rx="2" ry="2"/><rect class="c" x="194" y="66" rx="2" ry="2"/><rect class="c" x="194" y="82" rx="2" ry="2"/><rect class="c" x="194" y="98" rx="2" ry="2"/><rect class="c" x="210" y="2" rx="2" ry="2"/><rect class="c" x="210" y="18" rx="2" ry="2"/><rect class="c" x="210" y="34" rx="2" ry="2"/><rect class="c" x="210" y="50" rx="2" ry="2"/><rect class="c" x="210" y="66" rx="2" ry="2"/><rect class="c" x="210" y="82" rx="2" ry="2"/><rect class="c" x="210" y="98" rx="2" ry="2"/><rect class="c" x="226" y="2" rx="2" ry="2"/><rect class="c" x="226" y="18" rx="2" ry="2"/><rect class="c" x="226" y="34" rx="2" ry="2"/><rect class="c" x="226" y="50" rx="2" ry="2"/><rect class="c" x="226" y="66" rx="2" ry="2"/><rect class="c" x="226" y="82" rx="2" ry="2"/><rect class="c" x="226" y="98" rx="2" ry="2"/><rect class="c" x="242" y="2" rx="2" ry="2"/><rect class="c" x="242" y="18" rx="2" ry="2"/><rect class="c" x="242" y="34" rx="2" ry="2"/><rect class="c" x="242" y="50" rx="2" ry="2"/><rect class="c" x="242" y="66" rx="2" ry="2"/><rect class="c" x="242" y="82" rx="2" ry="2"/><rect class="c" x="242" y="98" rx="2" ry="2"/><rect class="c" x="258" y="2" rx="2" ry="2"/><rect class="c" x="258" y="18" rx="2" ry="2"/><rect class="c" x="258" y="34" rx="2" ry="2"/><rect class="c" x="258" y="50" rx="2" ry="2"/><rect class="c" x="258" y="66" rx="2" ry="2"/><rect class="c" x="258" y="82" rx="2" ry="2"/><rect class="c" x="258" y="98" rx="2" ry="2"/><rect class="c" x="274" y="2" rx="2" ry="2"/><rect class="c" x="274" y="18" rx="2" ry="2"/><rect class="c" x="274" y="34" rx="2" ry="2"/><rect class="c" x="274" y="50" rx="2" ry="2"/><rect class="c" x="274" y="66" rx="2" ry="2"/><rect class="c" x="274" y="82" rx="2" ry="2"/><rect class="c" x="274" y="98" rx="2" ry="2"/><rect class="c" x="290" y="2" rx="2" ry="2"/><rect class="c" x="290" y="18" rx="2" ry="2"/><rect class="c" x="290" y="34" rx="2" ry="2"/><rect class="c" x="290" y="50" rx="2" ry="2"/><rect class="c" x="290" y="66" rx="2" ry="2"/><rect class="c" x="290" y="82" rx="2" ry="2"/><rect class="c" x="290" y="98" rx="2" ry="2"/><rect class="c" x="306" y="2" rx="2" ry="2"/><rect class="c" x="306" y="18" rx="2" ry="2"/><rect class="c" x="306" y="34" rx="2" ry="2"/><rect class="c" x="306" y="50" rx="2" ry="2"/><rect class="c" x="306" y="66" rx="2" ry="2"/><rect class="c" x="306" y="82" rx="2" ry="2"/><rect class="c" x="306" y="98" rx="2" ry="2"/><rect class="c" x="322" y="2" rx="2" ry="2"/><rect class="c" x="322" y="18" rx="2" ry="2"/><rect class="c" x="322" y="34" rx="2" ry="2"/><rect class="c" x="322" y="50" rx="2" ry="2"/><rect class="c" x="322" y="66" rx="2" ry="2"/><rect class="c" x="322" y="82" rx="2" ry="2"/><rect class="c" x="322" y="98" rx="2" ry="2"/><rect class="c" x="338" y="2" rx="2" ry="2"/><rect class="c" x="338" y="18" rx="2" ry="2"/><rect class="c" x="338" y="34" rx="2" ry="2"/><rect class="c" x="338" y="50" rx="2" ry="2"/><rect class="c" x="338" y="66" rx="2" ry="2"/><rect class="c" x="338" y="82" rx="2" ry="2"/><rect class="c" x="338" y="98" rx="2" ry="2"/><rect class="c" x="354" y="2" rx="2" ry="2"/><rect class="c" x="354" y="18" rx="2" ry="2"/><rect class="c" x="354" y="34" rx="2" ry="2"/><rect class="c" x="354" y="50" rx="2" ry="2"/><rect class="c" x="354" y="66" rx="2" ry="2"/><rect class="c" x="354" y="82" rx="2" ry="2"/><rect class="c" x="354" y="98" rx="2" ry="2"/><rect class="c" x="370" y="2" rx="2" ry="2"/><rect class="c" x="370" y="18" rx="2" ry="2"/><rect class="c" x="370" y="34" rx="2" ry="2"/><rect class="c" x="370" y="50" rx="2" ry="2"/><rect class="c" x="370" y="66" rx="2" ry="2"/><rect class="c c0" x="370" y="82" rx="2" ry="2"/><rect class="c" x="370" y="98" rx="2" ry="2"/><rect class="c" x="386" y="2" rx="2" ry="2"/><rect class="c" x="386" y="18" rx="2" ry="2"/><rect class="c" x="386" y="34" rx="2" ry="2"/><rect class="c" x="386" y="50" rx="2" ry="2"/><rect class="c" x="386" y="66" rx="2" ry="2"/><rect class="c c1" x="386" y="82" rx="2" ry="2"/><rect class="c" x="386" y="98" rx="2" ry="2"/><rect class="c" x="402" y="2" rx="2" ry="2"/><rect class="c" x="402" y="18" rx="2" ry="2"/><rect class="c" x="402" y="34" rx="2" ry="2"/><rect class="c" x="402" y="50" rx="2" ry="2"/><rect class="c" x="402" y="66" rx="2" ry="2"/><rect class="c" x="402" y="82" rx="2" ry="2"/><rect class="c" x="402" y="98" rx="2" ry="2"/><rect class="c" x="418" y="2" rx="2" ry="2"/><rect class="c" x="418" y="18" rx="2" ry="2"/><rect class="c" x="418" y="34" rx="2" ry="2"/><rect class="c" x="418" y="50" rx="2" ry="2"/><rect class="c" x="418" y="66" rx="2" ry="2"/><rect class="c" x="418" y="82" rx="2" ry="2"/><rect class="c" x="418" y="98" rx="2" ry="2"/><rect class="c" x="434" y="2" rx="2" ry="2"/><rect class="c c2" x="434" y="18" rx="2" ry="2"/><rect class="c c3" x="434" y="34" rx="2" ry="2"/><rect class="c" x="434" y="50" rx="2" ry="2"/><rect class="c" x="434" y="66" rx="2" ry="2"/><rect class="c" x="434" y="82" rx="2" ry="2"/><rect class="c" x="434" y="98" rx="2" ry="2"/><rect class="c" x="450" y="2" rx="2" ry="2"/><rect class="c c4" x="450" y="18" rx="2" ry="2"/><rect class="c c5" x="450" y="34" rx="2" ry="2"/><rect class="c" x="450" y="50" rx="2" ry="2"/><rect class="c" x="450" y="66" rx="2" ry="2"/><rect class="c" x="450" y="82" rx="2" ry="2"/><rect class="c" x="450" y="98" rx="2" ry="2"/><rect class="c" x="466" y="2" rx="2" ry="2"/><rect class="c" x="466" y="18" rx="2" ry="2"/><rect class="c" x="466" y="34" rx="2" ry="2"/><rect class="c" x="466" y="50" rx="2" ry="2"/><rect class="c" x="466" y="66" rx="2" ry="2"/><rect class="c" x="466" y="82" rx="2" ry="2"/><rect class="c" x="466" y="98" rx="2" ry="2"/><rect class="c" x="482" y="2" rx="2" ry="2"/><rect class="c" x="482" y="18" rx="2" ry="2"/><rect class="c" x="482" y="34" rx="2" ry="2"/><rect class="c" x="482" y="50" rx="2" ry="2"/><rect class="c" x="482" y="66" rx="2" ry="2"/><rect class="c" x="482" y="82" rx="2" ry="2"/><rect class="c" x="482" y="98" rx="2" ry="2"/><rect class="c" x="498" y="2" rx="2" ry="2"/><rect class="c" x="498" y="18" rx="2" ry="2"/><rect class="c" x="498" y="34" rx="2" ry="2"/><rect class="c c6" x="498" y="50" rx="2" ry="2"/><rect class="c c7" x="498" y="66" rx="2" ry="2"/><rect class="c" x="498" y="82" rx="2" ry="2"/><rect class="c" x="498" y="98" rx="2" ry="2"/><rect class="c" x="514" y="2" rx="2" ry="2"/><rect class="c" x="514" y="18" rx="2" ry="2"/><rect class="c" x="514" y="34" rx="2" ry="2"/><rect class="c" x="514" y="50" rx="2" ry="2"/><rect class="c" x="514" y="66" rx="2" ry="2"/><rect class="c" x="514" y="82" rx="2" ry="2"/><rect class="c" x="514" y="98" rx="2" ry="2"/><rect class="c" x="530" y="2" rx="2" ry="2"/><rect class="c" x="530" y="18" rx="2" ry="2"/><rect class="c" x="530" y="34" rx="2" ry="2"/><rect class="c" x="530" y="50" rx="2" ry="2"/><rect class="c" x="530" y="66" rx="2" ry="2"/><rect class="c" x="530" y="82" rx="2" ry="2"/><rect class="c" x="530" y="98" rx="2" ry="2"/><rect class="c" x="546" y="2" rx="2" ry="2"/><rect class="c" x="546" y="18" rx="2" ry="2"/><rect class="c c8" x="546" y="34" rx="2" ry="2"/><rect class="c" x="546" y="50" rx="2" ry="2"/><rect class="c" x="546" y="66" rx="2" ry="2"/><rect class="c" x="546" y="82" rx="2" ry="2"/><rect class="c" x="546" y="98" rx="2" ry="2"/><rect class="c" x="562" y="2" rx="2" ry="2"/><rect class="c" x="562" y="18" rx="2" ry="2"/><rect class="c c9" x="562" y="34" rx="2" ry="2"/><rect class="c ca" x="562" y="50" rx="2" ry="2"/><rect class="c" x="562" y="66" rx="2" ry="2"/><rect class="c" x="562" y="82" rx="2" ry="2"/><rect class="c" x="562" y="98" rx="2" ry="2"/><rect class="c cb" x="578" y="2" rx="2" ry="2"/><rect class="c" x="578" y="18" rx="2" ry="2"/><rect class="c" x="578" y="34" rx="2" ry="2"/><rect class="c" x="578" y="50" rx="2" ry="2"/><rect class="c" x="578" y="66" rx="2" ry="2"/><rect class="c" x="578" y="82" rx="2" ry="2"/><rect class="c" x="578" y="98" rx="2" ry="2"/><rect class="c" x="594" y="2" rx="2" ry="2"/><rect class="c" x="594" y="18" rx="2" ry="2"/><rect class="c" x="594" y="34" rx="2" ry="2"/><rect class="c" x="594" y="50" rx="2" ry="2"/><rect class="c" x="594" y="66" rx="2" ry="2"/><rect class="c" x="594" y="82" rx="2" ry="2"/><rect class="c" x="594" y="98" rx="2" ry="2"/><rect class="c" x="610" y="2" rx="2" ry="2"/><rect class="c" x="610" y="18" rx="2" ry="2"/><rect class="c" x="610" y="34" rx="2" ry="2"/><rect class="c" x="610" y="50" rx="2" ry="2"/><rect class="c" x="610" y="66" rx="2" ry="2"/><rect class="c cc" x="610" y="82" rx="2" ry="2"/><rect class="c cd" x="610" y="98" rx="2" ry="2"/><rect class="c" x="626" y="2" rx="2" ry="2"/><rect class="c ce" x="626" y="18" rx="2" ry="2"/><rect class="c" x="626" y="34" rx="2" ry="2"/><rect class="c" x="626" y="50" rx="2" ry="2"/><rect class="c" x="626" y="66" rx="2" ry="2"/><rect class="c" x="626" y="82" rx="2" ry="2"/><rect class="c" x="626" y="98" rx="2" ry="2"/><rect class="c" x="642" y="2" rx="2" ry="2"/><rect class="c" x="642" y="18" rx="2" ry="2"/><rect class="c" x="642" y="34" rx="2" ry="2"/><rect class="c" x="642" y="50" rx="2" ry="2"/><rect class="c" x="642" y="66" rx="2" ry="2"/><rect class="c" x="642" y="82" rx="2" ry="2"/><rect class="c" x="642" y="98" rx="2" ry="2"/><rect class="c" x="658" y="2" rx="2" ry="2"/><rect class="c" x="658" y="18" rx="2" ry="2"/><rect class="c cf" x="658" y="34" rx="2" ry="2"/><rect class="c" x="658" y="50" rx="2" ry="2"/><rect class="c" x="658" y="66" rx="2" ry="2"/><rect class="c cg" x="658" y="82" rx="2" ry="2"/><rect class="c ch" x="658" y="98" rx="2" ry="2"/><rect class="c" x="674" y="2" rx="2" ry="2"/><rect class="c" x="674" y="18" rx="2" ry="2"/><rect class="c" x="674" y="34" rx="2" ry="2"/><rect class="c" x="674" y="50" rx="2" ry="2"/><rect class="c" x="674" y="66" rx="2" ry="2"/><rect class="c ci" x="674" y="82" rx="2" ry="2"/><rect class="c cj" x="674" y="98" rx="2" ry="2"/><rect class="c" x="690" y="2" rx="2" ry="2"/><rect class="c" x="690" y="18" rx="2" ry="2"/><rect class="c ck" x="690" y="34" rx="2" ry="2"/><rect class="c cl" x="690" y="50" rx="2" ry="2"/><rect class="c" x="690" y="66" rx="2" ry="2"/><rect class="c" x="690" y="82" rx="2" ry="2"/><rect class="c" x="690" y="98" rx="2" ry="2"/><rect class="c" x="706" y="2" rx="2" ry="2"/><rect class="c cm" x="706" y="18" rx="2" ry="2"/><rect class="c cn" x="706" y="34" rx="2" ry="2"/><rect class="c co" x="706" y="50" rx="2" ry="2"/><rect class="c cp" x="706" y="66" rx="2" ry="2"/><rect class="c cq" x="706" y="82" rx="2" ry="2"/><rect class="c cr" x="706" y="98" rx="2" ry="2"/><rect class="c cs" x="722" y="2" rx="2" ry="2"/><rect class="c ct" x="722" y="18" rx="2" ry="2"/><rect class="c cu" x="722" y="34" rx="2" ry="2"/><rect class="c cv" x="722" y="50" rx="2" ry="2"/><rect class="c cw" x="722" y="66" rx="2" ry="2"/><rect class="c cx" x="722" y="82" rx="2" ry="2"/><rect class="c cy" x="722" y="98" rx="2" ry="2"/><rect class="c cz" x="738" y="2" rx="2" ry="2"/><rect class="c c10" x="738" y="18" rx="2" ry="2"/><rect class="c c11" x="738" y="34" rx="2" ry="2"/><rect class="c c12" x="738" y="50" rx="2" ry="2"/><rect class="c c13" x="738" y="66" rx="2" ry="2"/><rect class="c c14" x="738" y="82" rx="2" ry="2"/><rect class="c c15" x="738" y="98" rx="2" ry="2"/><rect class="c c16" x="754" y="2" rx="2" ry="2"/><rect class="c c17" x="754" y="18" rx="2" ry="2"/><rect class="c c18" x="754" y="34" rx="2" ry="2"/><rect class="c c19" x="754" y="50" rx="2" ry="2"/><rect class="c c1a" x="754" y="66" rx="2" ry="2"/><rect class="c c1b" x="754" y="82" rx="2" ry="2"/><rect class="c c1c" x="754" y="98" rx="2" ry="2"/><rect class="c c1d" x="770" y="2" rx="2" ry="2"/><rect class="c c1e" x="770" y="18" rx="2" ry="2"/><rect class="c c1f" x="770" y="34" rx="2" ry="2"/><rect class="c c1g" x="770" y="50" rx="2" ry="2"/><rect class="c c1h" x="770" y="66" rx="2" ry="2"/><rect class="c c1i" x="770" y="82" rx="2" ry="2"/><rect class="c c1j" x="770" y="98" rx="2" ry="2"/><rect class="c c1k" x="786" y="2" rx="2" ry="2"/><rect class="c c1l" x="786" y="18" rx="2" ry="2"/><rect class="c c1m" x="786" y="34" rx="2" ry="2"/><rect class="c c1n" x="786" y="50" rx="2" ry="2"/><rect class="c c1o" x="786" y="66" rx="2" ry="2"/><rect class="c c1p" x="786" y="82" rx="2" ry="2"/><rect class="c c1q" x="786" y="98" rx="2" ry="2"/><rect class="c c1r" x="802" y="2" rx="2" ry="2"/><rect class="c c1s" x="802" y="18" rx="2" ry="2"/><rect class="c c1t" x="802" y="34" rx="2" ry="2"/><rect class="c c1u" x="802" y="50" rx="2" ry="2"/><rect class="c c1v" x="802" y="66" rx="2" ry="2"/><rect class="c c1w" x="802" y="82" rx="2" ry="2"/><rect class="c c1x" x="802" y="98" rx="2" ry="2"/><rect class="c c1y" x="818" y="2" rx="2" ry="2"/><rect class="c c1z" x="818" y="18" rx="2" ry="2"/><rect class="c c20" x="818" y="34" rx="2" ry="2"/><rect class="c c21" x="818" y="50" rx="2" ry="2"/><rect class="c c22" x="818" y="66" rx="2" ry="2"/><rect class="c c23" x="818" y="82" rx="2" ry="2"/><rect class="c c24" x="818" y="98" rx="2" ry="2"/><rect class="c c25" x="834" y="2" rx="2" ry="2"/><rect class="c c26" x="834" y="18" rx="2" ry="2"/><rect class="c c27" x="834" y="34" rx="2" ry="2"/><rect class="c c28" x="834" y="50" rx="2" ry="2"/><rect class="c c29" x="834" y="66" rx="2" ry="2"/><rect class="c c2a" x="834" y="82" rx="2" ry="2"/><rect class="u u0" height="12" width="460.4" x="0.0" y="144"/><rect class="u u1" height="12" width="10.8" x="459.8" y="144"/><rect class="u u2" height="12" width="10.8" x="470.0" y="144"/><rect class="u u3" height="12" width="21.0" x="480.2" y="144"/><rect class="u u4" height="12" width="10.8" x="500.6" y="144"/><rect class="u u5" height="12" width="245.8" x="510.8" y="144"/><rect class="u u6" height="12" width="51.7" x="756.0" y="144"/><rect class="u u7" height="12" width="41.5" x="807.1" y="144"/><rect class="s s0" x="0.8" y="0.8" width="14.4" height="14.4" rx="4.5" ry="4.5"/><rect class="s s1" x="1.8" y="1.8" width="12.3" height="12.3" rx="4.1" ry="4.1"/><rect class="s s2" x="2.6" y="2.6" width="10.8" height="10.8" rx="3.6" ry="3.6"/><rect class="s s3" x="3.0" y="3.0" width="9.9" height="9.9" rx="3.3" ry="3.3"/></svg>