<svg viewBox="-16 -32 880 192" width="880" height="192" xmlns="http://www.w3.org/2000/svg"><desc>Generated with https://github.com/Platane/snk</desc><style>:root{--cb:#1b1f230a;--cs:764ba2;--ce:#ebedf0;--c0:#ebedf0;--c1:#9be9a8;--c2:#40c463;--c3:#30a14e;--c4:#216e39}.c{shape-rendering:geometricPrecision;fill:var(--ce);stroke-width:1px;stroke:var(--cb);animation:none 27900ms linear infinite;width:12px;height:12px}@keyframes c0{58.41%{fill:var(--c2)}58.43%,100%{fill:var(--ce)}}.c.c0{fill:var(--c2);animation-name:c0}@keyframes c1{17.91%{fill:var(--c1)}17.93%,100%{fill:var(--ce)}}.c.c1{fill:var(--c1);animation-name:c1}@keyframes c2{12.53%{fill:var(--c1)}12.55%,100%{fill:var(--ce)}}.c.c2{fill:var(--c1);animation-name:c2}@keyframes c3{55.9%{fill:var(--c2)}55.92%,100%{fill:var(--ce)}}.c.c3{fill:var(--c2);animation-name:c3}@keyframes c4{12.89%{fill:var(--c1)}12.91%,100%{fill:var(--ce)}}.c.c4{fill:var(--c1);animation-name:c4}@keyframes c5{13.25%{fill:var(--c1)}13.27%,100%{fill:var(--ce)}}.c.c5{fill:var(--c1);animation-name:c5}@keyframes c6{14.69%{fill:var(--c1)}14.71%,100%{fill:var(--ce)}}.c.c6{fill:var(--c1);animation-name:c6}@keyframes c7{15.04%{fill:var(--c1)}15.06%,100%{fill:var(--ce)}}.c.c7{fill:var(--c1);animation-name:c7}@keyframes c8{63.43%{fill:var(--c3)}63.45%,100%{fill:var(--ce)}}.c.c8{fill:var(--c3);animation-name:c8}@keyframes c9{63.79%{fill:var(--c3)}63.81%,100%{fill:var(--ce)}}.c.c9{fill:var(--c3);animation-name:c9}@keyframes ca{74.18%{fill:var(--c4)}74.2%,100%{fill:var(--ce)}}.c.ca{fill:var(--c4);animation-name:ca}@keyframes cb{24%{fill:var(--c1)}24.02%,100%{fill:var(--ce)}}.c.cb{fill:var(--c1);animation-name:cb}@keyframes cc{72.39%{fill:var(--c4)}72.41%,100%{fill:var(--ce)}}.c.cc{fill:var(--c4);animation-name:cc}@keyframes cd{72.03%{fill:var(--c3)}72.05%,100%{fill:var(--ce)}}.c.cd{fill:var(--c3);animation-name:cd}@keyframes ce{51.24%{fill:var(--c2)}51.26%,100%{fill:var(--ce)}}.c.ce{fill:var(--c2);animation-name:ce}@keyframes cf{65.94%{fill:var(--c3)}65.96%,100%{fill:var(--ce)}}.c.cf{fill:var(--c3);animation-name:cf}@keyframes cg{44.79%{fill:var(--c2)}44.81%,100%{fill:var(--ce)}}.c.cg{fill:var(--c2);animation-name:cg}@keyframes ch{67.37%{fill:var(--c3)}67.39%,100%{fill:var(--ce)}}.c.ch{fill:var(--c3);animation-name:ch}@keyframes ci{44.43%{fill:var(--c2)}44.45%,100%{fill:var(--ce)}}.c.ci{fill:var(--c2);animation-name:ci}@keyframes cj{67.73%{fill:var(--c3)}67.75%,100%{fill:var(--ce)}}.c.cj{fill:var(--c3);animation-name:cj}@keyframes ck{27.23%{fill:var(--c1)}27.25%,100%{fill:var(--ce)}}.c.ck{fill:var(--c1);animation-name:ck}@keyframes cl{40.49%{fill:var(--c2)}40.51%,100%{fill:var(--ce)}}.c.cl{fill:var(--c2);animation-name:cl}@keyframes cm{36.55%{fill:var(--c2)}36.57%,100%{fill:var(--ce)}}.c.cm{fill:var(--c2);animation-name:cm}@keyframes cn{36.19%{fill:var(--c1)}36.21%,100%{fill:var(--ce)}}.c.cn{fill:var(--c1);animation-name:cn}@keyframes co{40.13%{fill:var(--c2)}40.15%,100%{fill:var(--ce)}}.c.co{fill:var(--c2);animation-name:co}@keyframes cp{41.21%{fill:var(--c2)}41.23%,100%{fill:var(--ce)}}.c.cp{fill:var(--c2);animation-name:cp}@keyframes cq{78.13%{fill:var(--c4)}78.15%,100%{fill:var(--ce)}}.c.cq{fill:var(--c4);animation-name:cq}@keyframes cr{46.94%{fill:var(--c2)}46.96%,100%{fill:var(--ce)}}.c.cr{fill:var(--c2);animation-name:cr}@keyframes cs{38.7%{fill:var(--c2)}38.72%,100%{fill:var(--ce)}}.c.cs{fill:var(--c2);animation-name:cs}@keyframes ct{36.91%{fill:var(--c2)}36.93%,100%{fill:var(--ce)}}.c.ct{fill:var(--c2);animation-name:ct}@keyframes cu{37.98%{fill:var(--c2)}38%,100%{fill:var(--ce)}}.c.cu{fill:var(--c2);animation-name:cu}@keyframes cv{79.2%{fill:var(--c4)}79.22%,100%{fill:var(--ce)}}.c.cv{fill:var(--c4);animation-name:cv}@keyframes cw{41.57%{fill:var(--c2)}41.59%,100%{fill:var(--ce)}}.c.cw{fill:var(--c2);animation-name:cw}@keyframes cx{42.64%{fill:var(--c2)}42.66%,100%{fill:var(--ce)}}.c.cx{fill:var(--c2);animation-name:cx}@keyframes cy{68.81%{fill:var(--c3)}68.83%,100%{fill:var(--ce)}}.c.cy{fill:var(--c3);animation-name:cy}@keyframes cz{80.64%{fill:var(--c4)}80.66%,100%{fill:var(--ce)}}.c.cz{fill:var(--c4);animation-name:cz}@keyframes c10{37.27%{fill:var(--c2)}37.29%,100%{fill:var(--ce)}}.c.c10{fill:var(--c2);animation-name:c10}@keyframes c11{37.62%{fill:var(--c2)}37.64%,100%{fill:var(--ce)}}.c.c11{fill:var(--c2);animation-name:c11}@keyframes c12{79.56%{fill:var(--c4)}79.58%,100%{fill:var(--ce)}}.c.c12{fill:var(--c4);animation-name:c12}@keyframes c13{41.93%{fill:var(--c2)}41.95%,100%{fill:var(--ce)}}.c.c13{fill:var(--c2);animation-name:c13}@keyframes c14{42.28%{fill:var(--c2)}42.3%,100%{fill:var(--ce)}}.c.c14{fill:var(--c2);animation-name:c14}@keyframes c15{31.17%{fill:var(--c1)}31.19%,100%{fill:var(--ce)}}.c.c15{fill:var(--c1);animation-name:c15}.u{transform-origin:0 0;transform:scale(0,1);animation:none linear 27900ms infinite}@keyframes u0{12.53%{transform:scale(0.000,1)}12.55%,12.89%{transform:scale(0.100,1)}12.91%,13.25%{transform:scale(0.200,1)}13.27%,14.69%{transform:scale(0.300,1)}14.71%,15.04%{transform:scale(0.400,1)}15.06%,17.91%{transform:scale(0.500,1)}17.93%,24%{transform:scale(0.600,1)}24.02%,27.23%{transform:scale(0.700,1)}27.25%,31.17%{transform:scale(0.800,1)}31.19%,36.19%{transform:scale(0.900,1)}36.21%,100%{transform:scale(1.000,1)}}.u.u0{fill:var(--c1);animation-name:u0;transform-origin:0.0px 0}@keyframes u1{36.55%{transform:scale(0.000,1)}36.57%,36.91%{transform:scale(0.053,1)}36.93%,37.27%{transform:scale(0.105,1)}37.29%,37.62%{transform:scale(0.158,1)}37.64%,37.98%{transform:scale(0.211,1)}38%,38.7%{transform:scale(0.263,1)}38.72%,40.13%{transform:scale(0.316,1)}40.15%,40.49%{transform:scale(0.368,1)}40.51%,41.21%{transform:scale(0.421,1)}41.23%,41.57%{transform:scale(0.474,1)}41.59%,41.93%{transform:scale(0.526,1)}41.95%,42.28%{transform:scale(0.579,1)}42.3%,42.64%{transform:scale(0.632,1)}42.66%,44.43%{transform:scale(0.684,1)}44.45%,44.79%{transform:scale(0.737,1)}44.81%,46.94%{transform:scale(0.789,1)}46.96%,51.24%{transform:scale(0.842,1)}51.26%,55.9%{transform:scale(0.895,1)}55.92%,58.41%{transform:scale(0.947,1)}58.43%,100%{transform:scale(1.000,1)}}.u.u1{fill:var(--c2);animation-name:u1;transform-origin:201.9px 0}@keyframes u2{63.43%{transform:scale(0.000,1)}63.45%,63.79%{transform:scale(0.143,1)}63.81%,65.94%{transform:scale(0.286,1)}65.96%,67.37%{transform:scale(0.429,1)}67.39%,67.73%{transform:scale(0.571,1)}67.75%,68.81%{transform:scale(0.714,1)}68.83%,72.03%{transform:scale(0.857,1)}72.05%,100%{transform:scale(1.000,1)}}.u.u2{fill:var(--c3);animation-name:u2;transform-origin:585.5px 0}@keyframes u3{72.39%{transform:scale(0.000,1)}72.41%,74.18%{transform:scale(0.167,1)}74.2%,78.13%{transform:scale(0.333,1)}78.15%,79.2%{transform:scale(0.500,1)}79.22%,79.56%{transform:scale(0.667,1)}79.58%,80.64%{transform:scale(0.833,1)}80.66%,100%{transform:scale(1.000,1)}}.u.u3{fill:var(--c4);animation-name:u3;transform-origin:726.9px 0}.s{shape-rendering:geometricPrecision;fill:var(--cs);animation:none linear 27900ms infinite}@keyframes s0{0%,99.64%{transform:translate(0px,-16px)}0.36%{transform:translate(0px,0px)}12.19%{transform:translate(528px,0px)}12.54%,55.56%{transform:translate(528px,16px)}12.9%{transform:translate(544px,16px)}13.26%{transform:translate(544px,32px)}14.34%{transform:translate(592px,32px)}15.05%{transform:translate(592px,64px)}17.56%{transform:translate(480px,64px)}17.92%{transform:translate(480px,80px)}22.22%{transform:translate(672px,80px)}24.01%{transform:translate(672px,0px)}26.52%{transform:translate(784px,0px)}27.24%{transform:translate(784px,32px)}27.6%,35.48%{transform:translate(768px,32px)}28.32%,34.77%,44.09%{transform:translate(768px,64px)}28.67%,34.41%,40.86%,45.88%{transform:translate(784px,64px)}29.75%,33.33%,47.67%{transform:translate(784px,112px)}30.82%{transform:translate(832px,112px)}31.18%{transform:translate(832px,96px)}31.54%{transform:translate(848px,96px)}31.9%{transform:translate(848px,112px)}36.2%{transform:translate(800px,32px)}36.56%{transform:translate(800px,16px)}37.28%{transform:translate(832px,16px)}37.63%{transform:translate(832px,32px)}37.99%{transform:translate(816px,32px)}38.71%{transform:translate(816px,0px)}39.07%{transform:translate(800px,0px)}40.14%{transform:translate(800px,48px)}40.5%{transform:translate(784px,48px)}41.94%{transform:translate(832px,64px)}42.29%{transform:translate(832px,80px)}42.65%,78.49%{transform:translate(816px,80px)}43.01%{transform:translate(816px,64px)}44.44%{transform:translate(768px,80px)}44.8%{transform:translate(752px,80px)}45.16%{transform:translate(752px,64px)}46.59%{transform:translate(784px,96px)}46.95%,69.89%{transform:translate(800px,96px)}47.31%,69.53%{transform:translate(800px,112px)}49.82%{transform:translate(784px,16px)}55.91%{transform:translate(528px,32px)}57.35%{transform:translate(464px,32px)}58.42%{transform:translate(464px,80px)}62.37%{transform:translate(640px,80px)}63.44%{transform:translate(640px,32px)}65.95%{transform:translate(752px,32px)}67.38%{transform:translate(752px,96px)}68.82%{transform:translate(816px,96px)}69.18%{transform:translate(816px,112px)}72.04%{transform:translate(704px,96px)}73.12%{transform:translate(704px,48px)}74.19%{transform:translate(656px,48px)}74.55%{transform:translate(656px,64px)}77.78%{transform:translate(800px,64px)}78.14%{transform:translate(800px,80px)}79.21%{transform:translate(816px,48px)}79.57%{transform:translate(832px,48px)}80.65%{transform:translate(832px,0px)}97.85%{transform:translate(64px,0px)}98.21%{transform:translate(64px,-16px)}}.s.s0{transform:translate(0px,-16px);animation-name:s0}@keyframes s1{0%,99.64%{transform:translate(16px,-16px)}0.36%{transform:translate(0px,-16px)}0.72%{transform:translate(0px,0px)}12.54%{transform:translate(528px,0px)}12.9%,55.91%{transform:translate(528px,16px)}13.26%{transform:translate(544px,16px)}13.62%{transform:translate(544px,32px)}14.7%{transform:translate(592px,32px)}15.41%{transform:translate(592px,64px)}17.92%{transform:translate(480px,64px)}18.28%{transform:translate(480px,80px)}22.58%{transform:translate(672px,80px)}24.37%{transform:translate(672px,0px)}26.88%{transform:translate(784px,0px)}27.6%{transform:translate(784px,32px)}27.96%,35.84%{transform:translate(768px,32px)}28.67%,35.13%,44.44%{transform:translate(768px,64px)}29.03%,34.77%,41.22%,46.24%{transform:translate(784px,64px)}30.11%,33.69%,48.03%{transform:translate(784px,112px)}31.18%{transform:translate(832px,112px)}31.54%{transform:translate(832px,96px)}31.9%{transform:translate(848px,96px)}32.26%{transform:translate(848px,112px)}36.56%{transform:translate(800px,32px)}36.92%{transform:translate(800px,16px)}37.63%{transform:translate(832px,16px)}37.99%{transform:translate(832px,32px)}38.35%{transform:translate(816px,32px)}39.07%{transform:translate(816px,0px)}39.43%{transform:translate(800px,0px)}40.5%{transform:translate(800px,48px)}40.86%{transform:translate(784px,48px)}42.29%{transform:translate(832px,64px)}42.65%{transform:translate(832px,80px)}43.01%,78.85%{transform:translate(816px,80px)}43.37%{transform:translate(816px,64px)}44.8%{transform:translate(768px,80px)}45.16%{transform:translate(752px,80px)}45.52%{transform:translate(752px,64px)}46.95%{transform:translate(784px,96px)}47.31%,70.25%{transform:translate(800px,96px)}47.67%,69.89%{transform:translate(800px,112px)}50.18%{transform:translate(784px,16px)}56.27%{transform:translate(528px,32px)}57.71%{transform:translate(464px,32px)}58.78%{transform:translate(464px,80px)}62.72%{transform:translate(640px,80px)}63.8%{transform:translate(640px,32px)}66.31%{transform:translate(752px,32px)}67.74%{transform:translate(752px,96px)}69.18%{transform:translate(816px,96px)}69.53%{transform:translate(816px,112px)}72.4%{transform:translate(704px,96px)}73.48%{transform:translate(704px,48px)}74.55%{transform:translate(656px,48px)}74.91%{transform:translate(656px,64px)}78.14%{transform:translate(800px,64px)}78.49%{transform:translate(800px,80px)}79.57%{transform:translate(816px,48px)}79.93%{transform:translate(832px,48px)}81%{transform:translate(832px,0px)}98.21%{transform:translate(64px,0px)}98.57%{transform:translate(64px,-16px)}}.s.s1{transform:translate(16px,-16px);animation-name:s1}@keyframes s2{0%,99.64%{transform:translate(32px,-16px)}0.72%{transform:translate(0px,-16px)}1.08%{transform:translate(0px,0px)}12.9%{transform:translate(528px,0px)}13.26%,56.27%{transform:translate(528px,16px)}13.62%{transform:translate(544px,16px)}13.98%{transform:translate(544px,32px)}15.05%{transform:translate(592px,32px)}15.77%{transform:translate(592px,64px)}18.28%{transform:translate(480px,64px)}18.64%{transform:translate(480px,80px)}22.94%{transform:translate(672px,80px)}24.73%{transform:translate(672px,0px)}27.24%{transform:translate(784px,0px)}27.96%{transform:translate(784px,32px)}28.32%,36.2%{transform:translate(768px,32px)}29.03%,35.48%,44.8%{transform:translate(768px,64px)}29.39%,35.13%,41.58%,46.59%{transform:translate(784px,64px)}30.47%,34.05%,48.39%{transform:translate(784px,112px)}31.54%{transform:translate(832px,112px)}31.9%{transform:translate(832px,96px)}32.26%{transform:translate(848px,96px)}32.62%{transform:translate(848px,112px)}36.92%{transform:translate(800px,32px)}37.28%{transform:translate(800px,16px)}37.99%{transform:translate(832px,16px)}38.35%{transform:translate(832px,32px)}38.71%{transform:translate(816px,32px)}39.43%{transform:translate(816px,0px)}39.78%{transform:translate(800px,0px)}40.86%{transform:translate(800px,48px)}41.22%{transform:translate(784px,48px)}42.65%{transform:translate(832px,64px)}43.01%{transform:translate(832px,80px)}43.37%,79.21%{transform:translate(816px,80px)}43.73%{transform:translate(816px,64px)}45.16%{transform:translate(768px,80px)}45.52%{transform:translate(752px,80px)}45.88%{transform:translate(752px,64px)}47.31%{transform:translate(784px,96px)}47.67%,70.61%{transform:translate(800px,96px)}48.03%,70.25%{transform:translate(800px,112px)}50.54%{transform:translate(784px,16px)}56.63%{transform:translate(528px,32px)}58.06%{transform:translate(464px,32px)}59.14%{transform:translate(464px,80px)}63.08%{transform:translate(640px,80px)}64.16%{transform:translate(640px,32px)}66.67%{transform:translate(752px,32px)}68.1%{transform:translate(752px,96px)}69.53%{transform:translate(816px,96px)}69.89%{transform:translate(816px,112px)}72.76%{transform:translate(704px,96px)}73.84%{transform:translate(704px,48px)}74.91%{transform:translate(656px,48px)}75.27%{transform:translate(656px,64px)}78.49%{transform:translate(800px,64px)}78.85%{transform:translate(800px,80px)}79.93%{transform:translate(816px,48px)}80.29%{transform:translate(832px,48px)}81.36%{transform:translate(832px,0px)}98.57%{transform:translate(64px,0px)}98.92%{transform:translate(64px,-16px)}}.s.s2{transform:translate(32px,-16px);animation-name:s2}@keyframes s3{0%,99.64%{transform:translate(48px,-16px)}1.08%{transform:translate(0px,-16px)}1.43%{transform:translate(0px,0px)}13.26%{transform:translate(528px,0px)}13.62%,56.63%{transform:translate(528px,16px)}13.98%{transform:translate(544px,16px)}14.34%{transform:translate(544px,32px)}15.41%{transform:translate(592px,32px)}16.13%{transform:translate(592px,64px)}18.64%{transform:translate(480px,64px)}19%{transform:translate(480px,80px)}23.3%{transform:translate(672px,80px)}25.09%{transform:translate(672px,0px)}27.6%{transform:translate(784px,0px)}28.32%{transform:translate(784px,32px)}28.67%,36.56%{transform:translate(768px,32px)}29.39%,35.84%,45.16%{transform:translate(768px,64px)}29.75%,35.48%,41.94%,46.95%{transform:translate(784px,64px)}30.82%,34.41%,48.75%{transform:translate(784px,112px)}31.9%{transform:translate(832px,112px)}32.26%{transform:translate(832px,96px)}32.62%{transform:translate(848px,96px)}32.97%{transform:translate(848px,112px)}37.28%{transform:translate(800px,32px)}37.63%{transform:translate(800px,16px)}38.35%{transform:translate(832px,16px)}38.71%{transform:translate(832px,32px)}39.07%{transform:translate(816px,32px)}39.78%{transform:translate(816px,0px)}40.14%{transform:translate(800px,0px)}41.22%{transform:translate(800px,48px)}41.58%{transform:translate(784px,48px)}43.01%{transform:translate(832px,64px)}43.37%{transform:translate(832px,80px)}43.73%,79.57%{transform:translate(816px,80px)}44.09%{transform:translate(816px,64px)}45.52%{transform:translate(768px,80px)}45.88%{transform:translate(752px,80px)}46.24%{transform:translate(752px,64px)}47.67%{transform:translate(784px,96px)}48.03%,70.97%{transform:translate(800px,96px)}48.39%,70.61%{transform:translate(800px,112px)}50.9%{transform:translate(784px,16px)}56.99%{transform:translate(528px,32px)}58.42%{transform:translate(464px,32px)}59.5%{transform:translate(464px,80px)}63.44%{transform:translate(640px,80px)}64.52%{transform:translate(640px,32px)}67.03%{transform:translate(752px,32px)}68.46%{transform:translate(752px,96px)}69.89%{transform:translate(816px,96px)}70.25%{transform:translate(816px,112px)}73.12%{transform:translate(704px,96px)}74.19%{transform:translate(704px,48px)}75.27%{transform:translate(656px,48px)}75.63%{transform:translate(656px,64px)}78.85%{transform:translate(800px,64px)}79.21%{transform:translate(800px,80px)}80.29%{transform:translate(816px,48px)}80.65%{transform:translate(832px,48px)}81.72%{transform:translate(832px,0px)}98.92%{transform:translate(64px,0px)}99.28%{transform:translate(64px,-16px)}}.s.s3{transform:translate(48px,-16px);animation-name:s3}</style><rect class="c" x="2" y="2" rx="2" ry="2"/><rect class="c" x="2" y="18" rx="2" ry="2"/><rect class="c" x="2" y="34" rx="2" ry="2"/><rect class="c" x="2" y="50" rx="2" ry="2"/><rect class="c" x="2" y="66" rx="2" ry="2"/><rect class="c" x="2" y="82" rx="2" ry="2"/><rect class="c" x="2" y="98" rx="2" ry="2"/><rect class="c" x="18" y="2" rx="2" ry="2"/><rect class="c" x="18" y="18" rx="2" ry="2"/><rect class="c" x="18" y="34" rx="2" ry="2"/><rect class="c" x="18" y="50" rx="2" ry="2"/><rect class="c" x="18" y="66" rx="2" ry="2"/><rect class="c" x="18" y="82" rx="2" ry="2"/><rect class="c" x="18" y="98" rx="2" ry="2"/><rect class="c" x="34" y="2" rx="2" ry="2"/><rect class="c" x="34" y="18" rx="2" ry="2"/><rect class="c" x="34" y="34" rx="2" ry="2"/><rect class="c" x="34" y="50" rx="2" ry="2"/><rect class="c" x="34" y="66" rx="2" ry="2"/><rect class="c" x="34" y="82" rx="2" ry="2"/><rect class="c" x="34" y="98" rx="2" ry="2"/><rect class="c" x="50" y="2" rx="2" ry="2"/><rect class="c" x="50" y="18" rx="2" ry="2"/><rect class="c" x="50" y="34" rx="2" ry="2"/><rect class="c" x="50" y="50" rx="2" ry="2"/><rect class="c" x="50" y="66" rx="2" ry="2"/><rect class="c" x="50" y="82" rx="2" ry="2"/><rect class="c" x="50" y="98" rx="2" ry="2"/><rect class="c" x="66" y="2" rx="2" ry="2"/><rect class="c" x="66" y="18" rx="2" ry="2"/><rect class="c" x="66" y="34" rx="2" ry="2"/><rect class="c" x="66" y="50" rx="2" ry="2"/><rect class="c" x="66" y="66" rx="2" ry="2"/><rect class="c" x="66" y="82" rx="2" ry="2"/><rect class="c" x="66" y="98" rx="2" ry="2"/><rect class="c" x="82" y="2" rx="2" ry="2"/><rect class="c" x="82" y="18" rx="2" ry="2"/><rect class="c" x="82" y="34" rx="2" ry="2"/><rect class="c" x="82" y="50" rx="2" ry="2"/><rect class="c" x="82" y="66" rx="2" ry="2"/><rect class="c" x="82" y="82" rx="2" ry="2"/><rect class="c" x="82" y="98" rx="2" ry="2"/><rect class="c" x="98" y="2" rx="2" ry="2"/><rect class="c" x="98" y="18" rx="2" ry="2"/><rect class="c" x="98" y="34" rx="2" ry="2"/><rect class="c" x="98" y="50" rx="2" ry="2"/><rect class="c" x="98" y="66" rx="2" ry="2"/><rect class="c" x="98" y="82" rx="2" ry="2"/><rect class="c" x="98" y="98" rx="2" ry="2"/><rect class="c" x="114" y="2" rx="2" ry="2"/><rect class="c" x="114" y="18" rx="2" ry="2"/><rect class="c" x="114" y="34" rx="2" ry="2"/><rect class="c" x="114" y="50" rx="2" ry="2"/><rect class="c" x="114" y="66" rx="2" ry="2"/><rect class="c" x="114" y="82" rx="2" ry="2"/><rect class="c" x="114" y="98" rx="2" ry="2"/><rect class="c" x="130" y="2" rx="2" ry="2"/><rect class="c" x="130" y="18" rx="2" ry="2"/><rect class="c" x="130" y="34" rx="2" ry="2"/><rect class="c" x="130" y="50" rx="2" ry="2"/><rect class="c" x="130" y="66" rx="2" ry="2"/><rect class="c" x="130" y="82" rx="2" ry="2"/><rect class="c" x="130" y="98" rx="2" ry="2"/><rect class="c" x="146" y="2" rx="2" ry="2"/><rect class="c" x="146" y="18" rx="2" ry="2"/><rect class="c" x="146" y="34" rx="2" ry="2"/><rect class="c" x="146" y="50" rx="2" ry="2"/><rect class="c" x="146" y="66" rx="2" ry="2"/><rect class="c" x="146" y="82" rx="2" ry="2"/><rect class="c" x="146" y="98" rx="2" ry="2"/><rect class="c" x="162" y="2" rx="2" ry="2"/><rect class="c" x="162" y="18" rx="2" ry="2"/><rect class="c" x="162" y="34" rx="2" ry="2"/><rect class="c" x="162" y="50" rx="2" ry="2"/><rect class="c" x="162" y="66" rx="2" ry="2"/><rect class="c" x="162" y="82" rx="2" ry="2"/><rect class="c" x="162" y="98" rx="2" ry="2"/><rect class="c" x="178" y="2" rx="2" ry="2"/><rect class="c" x="178" y="18" rx="2" ry="2"/><rect class="c" x="178" y="34" rx="2" ry="2"/><rect class="c" x="178" y="50" rx="2" ry="2"/><rect class="c" x="178" y="66" rx="2" ry="2"/><rect class="c" x="178" y="82" rx="2" ry="2"/><rect class="c" x="178" y="98" rx="2" ry="2"/><rect class="c" x="194" y="2" rx="2" ry="2"/><rect class="c" x="194" y="18" rx="2" ry="2"/><rect class="c" x="194" y="34" rx="2" ry="2"/><rect class="c" x="194" y="50" rx="2" ry="2"/><rect class="c" x="194" y="66" rx="2" ry="2"/><rect class="c" x="194" y="82" rx="2" ry="2"/><rect class="c" x="194" y="98" rx="2" ry="2"/><rect class="c" x="210" y="2" rx="2" ry="2"/><rect class="c" x="210" y="18" rx="2" ry="2"/><rect class="c" x="210" y="34" rx="2" ry="2"/><rect class="c" x="210" y="50" rx="2" ry="2"/><rect class="c" x="210" y="66" rx="2" ry="2"/><rect class="c" x="210" y="82" rx="2" ry="2"/><rect class="c" x="210" y="98" rx="2" ry="2"/><rect class="c" x="226" y="2" rx="2" ry="2"/><rect class="c" x="226" y="18" rx="2" ry="2"/><rect class="c" x="226" y="34" rx="2" ry="2"/><rect class="c" x="226" y="50" rx="2" ry="2"/><rect class="c" x="226" y="66" rx="2" ry="2"/><rect class="c" x="226" y="82" rx="2" ry="2"/><rect class="c" x="226" y="98" rx="2" ry="2"/><rect class="c" x="242" y="2" rx="2" ry="2"/><rect class="c" x="242" y="18" rx="2" ry="2"/><rect class="c" x="242" y="34" rx="2" ry="2"/><rect class="c" x="242" y="50" rx="2" ry="2"/><rect class="c" x="242" y="66" rx="2" ry="2"/><rect class="c" x="242" y="82" rx="2" ry="2"/><rect class="c" x="242" y="98" rx="2" ry="2"/><rect class="c" x="258" y="2" rx="2" ry="2"/><rect class="c" x="258" y="18" rx="2" ry="2"/><rect class="c" x="258" y="34" rx="2" ry="2"/><rect class="c" x="258" y="50" rx="2" ry="2"/><rect class="c" x="258" y="66" rx="2" ry="2"/><rect class="c" x="258" y="82" rx="2" ry="2"/><rect class="c" x="258" y="98" rx="2" ry="2"/><rect class="c" x="274" y="2" rx="2" ry="2"/><rect class="c" x="274" y="18" rx="2" ry="2"/><rect class="c" x="274" y="34" rx="2" ry="2"/><rect class="c" x="274" y="50" rx="2" ry="2"/><rect class="c" x="274" y="66" rx="2" ry="2"/><rect class="c" x="274" y="82" rx="2" ry="2"/><rect class="c" x="274" y="98" rx="2" ry="2"/><rect class="c" x="290" y="2" rx="2" ry="2"/><rect class="c" x="290" y="18" rx="2" ry="2"/><rect class="c" x="290" y="34" rx="2" ry="2"/><rect class="c" x="290" y="50" rx="2" ry="2"/><rect class="c" x="290" y="66" rx="2" ry="2"/><rect class="c" x="290" y="82" rx="2" ry="2"/><rect class="c" x="290" y="98" rx="2" ry="2"/><rect class="c" x="306" y="2" rx="2" ry="2"/><rect class="c" x="306" y="18" rx="2" ry="2"/><rect class="c" x="306" y="34" rx="2" ry="2"/><rect class="c" x="306" y="50" rx="2" ry="2"/><rect class="c" x="306" y="66" rx="2" ry="2"/><rect class="c" x="306" y="82" rx="2" ry="2"/><rect class="c" x="306" y="98" rx="2" ry="2"/><rect class="c" x="322" y="2" rx="2" ry="2"/><rect class="c" x="322" y="18" rx="2" ry="2"/><rect class="c" x="322" y="34" rx="2" ry="2"/><rect class="c" x="322" y="50" rx="2" ry="2"/><rect class="c" x="322" y="66" rx="2" ry="2"/><rect class="c" x="322" y="82" rx="2" ry="2"/><rect class="c" x="322" y="98" rx="2" ry="2"/><rect class="c" x="338" y="2" rx="2" ry="2"/><rect class="c" x="338" y="18" rx="2" ry="2"/><rect class="c" x="338" y="34" rx="2" ry="2"/><rect class="c" x="338" y="50" rx="2" ry="2"/><rect class="c" x="338" y="66" rx="2" ry="2"/><rect class="c" x="338" y="82" rx="2" ry="2"/><rect class="c" x="338" y="98" rx="2" ry="2"/><rect class="c" x="354" y="2" rx="2" ry="2"/><rect class="c" x="354" y="18" rx="2" ry="2"/><rect class="c" x="354" y="34" rx="2" ry="2"/><rect class="c" x="354" y="50" rx="2" ry="2"/><rect class="c" x="354" y="66" rx="2" ry="2"/><rect class="c" x="354" y="82" rx="2" ry="2"/><rect class="c" x="354" y="98" rx="2" ry="2"/><rect class="c" x="370" y="2" rx="2" ry="2"/><rect class="c" x="370" y="18" rx="2" ry="2"/><rect class="c" x="370" y="34" rx="2" ry="2"/><rect class="c" x="370" y="50" rx="2" ry="2"/><rect class="c" x="370" y="66" rx="2" ry="2"/><rect class="c" x="370" y="82" rx="2" ry="2"/><rect class="c" x="370" y="98" rx="2" ry="2"/><rect class="c" x="386" y="2" rx="2" ry="2"/><rect class="c" x="386" y="18" rx="2" ry="2"/><rect class="c" x="386" y="34" rx="2" ry="2"/><rect class="c" x="386" y="50" rx="2" ry="2"/><rect class="c" x="386" y="66" rx="2" ry="2"/><rect class="c" x="386" y="82" rx="2" ry="2"/><rect class="c" x="386" y="98" rx="2" ry="2"/><rect class="c" x="402" y="2" rx="2" ry="2"/><rect class="c" x="402" y="18" rx="2" ry="2"/><rect class="c" x="402" y="34" rx="2" ry="2"/><rect class="c" x="402" y="50" rx="2" ry="2"/><rect class="c" x="402" y="66" rx="2" ry="2"/><rect class="c" x="402" y="82" rx="2" ry="2"/><rect class="c" x="402" y="98" rx="2" ry="2"/><rect class="c" x="418" y="2" rx="2" ry="2"/><rect class="c" x="418" y="18" rx="2" ry="2"/><rect class="c" x="418" y="34" rx="2" ry="2"/><rect class="c" x="418" y="50" rx="2" ry="2"/><rect class="c" x="418" y="66" rx="2" ry="2"/><rect class="c" x="418" y="82" rx="2" ry="2"/><rect class="c" x="418" y="98" rx="2" ry="2"/><rect class="c" x="434" y="2" rx="2" ry="2"/><rect class="c" x="434" y="18" rx="2" ry="2"/><rect class="c" x="434" y="34" rx="2" ry="2"/><rect class="c" x="434" y="50" rx="2" ry="2"/><rect class="c" x="434" y="66" rx="2" ry="2"/><rect class="c" x="434" y="82" rx="2" ry="2"/><rect class="c" x="434" y="98" rx="2" ry="2"/><rect class="c" x="450" y="2" rx="2" ry="2"/><rect class="c" x="450" y="18" rx="2" ry="2"/><rect class="c" x="450" y="34" rx="2" ry="2"/><rect class="c" x="450" y="50" rx="2" ry="2"/><rect class="c" x="450" y="66" rx="2" ry="2"/><rect class="c" x="450" y="82" rx="2" ry="2"/><rect class="c" x="450" y="98" rx="2" ry="2"/><rect class="c" x="466" y="2" rx="2" ry="2"/><rect class="c" x="466" y="18" rx="2" ry="2"/><rect class="c" x="466" y="34" rx="2" ry="2"/><rect class="c" x="466" y="50" rx="2" ry="2"/><rect class="c" x="466" y="66" rx="2" ry="2"/><rect class="c c0" x="466" y="82" rx="2" ry="2"/><rect class="c" x="466" y="98" rx="2" ry="2"/><rect class="c" x="482" y="2" rx="2" ry="2"/><rect class="c" x="482" y="18" rx="2" ry="2"/><rect class="c" x="482" y="34" rx="2" ry="2"/><rect class="c" x="482" y="50" rx="2" ry="2"/><rect class="c" x="482" y="66" rx="2" ry="2"/><rect class="c c1" x="482" y="82" rx="2" ry="2"/><rect class="c" x="482" y="98" rx="2" ry="2"/><rect class="c" x="498" y="2" rx="2" ry="2"/><rect class="c" x="498" y="18" rx="2" ry="2"/><rect class="c" x="498" y="34" rx="2" ry="2"/><rect class="c" x="498" y="50" rx="2" ry="2"/><rect class="c" x="498" y="66" rx="2" ry="2"/><rect class="c" x="498" y="82" rx="2" ry="2"/><rect class="c" x="498" y="98" rx="2" ry="2"/><rect class="c" x="514" y="2" rx="2" ry="2"/><rect class="c" x="514" y="18" rx="2" ry="2"/><rect class="c" x="514" y="34" rx="2" ry="2"/><rect class="c" x="514" y="50" rx="2" ry="2"/><rect class="c" x="514" y="66" rx="2" ry="2"/><rect class="c" x="514" y="82" rx="2" ry="2"/><rect class="c" x="514" y="98" rx="2" ry="2"/><rect class="c" x="530" y="2" rx="2" ry="2"/><rect class="c c2" x="530" y="18" rx="2" ry="2"/><rect class="c c3" x="530" y="34" rx="2" ry="2"/><rect class="c" x="530" y="50" rx="2" ry="2"/><rect class="c" x="530" y="66" rx="2" ry="2"/><rect class="c" x="530" y="82" rx="2" ry="2"/><rect class="c" x="530" y="98" rx="2" ry="2"/><rect class="c" x="546" y="2" rx="2" ry="2"/><rect class="c c4" x="546" y="18" rx="2" ry="2"/><rect class="c c5" x="546" y="34" rx="2" ry="2"/><rect class="c" x="546" y="50" rx="2" ry="2"/><rect class="c" x="546" y="66" rx="2" ry="2"/><rect class="c" x="546" y="82" rx="2" ry="2"/><rect class="c" x="546" y="98" rx="2" ry="2"/><rect class="c" x="562" y="2" rx="2" ry="2"/><rect class="c" x="562" y="18" rx="2" ry="2"/><rect class="c" x="562" y="34" rx="2" ry="2"/><rect class="c" x="562" y="50" rx="2" ry="2"/><rect class="c" x="562" y="66" rx="2" ry="2"/><rect class="c" x="562" y="82" rx="2" ry="2"/><rect class="c" x="562" y="98" rx="2" ry="2"/><rect class="c" x="578" y="2" rx="2" ry="2"/><rect class="c" x="578" y="18" rx="2" ry="2"/><rect class="c" x="578" y="34" rx="2" ry="2"/><rect class="c" x="578" y="50" rx="2" ry="2"/><rect class="c" x="578" y="66" rx="2" ry="2"/><rect class="c" x="578" y="82" rx="2" ry="2"/><rect class="c" x="578" y="98" rx="2" ry="2"/><rect class="c" x="594" y="2" rx="2" ry="2"/><rect class="c" x="594" y="18" rx="2" ry="2"/><rect class="c" x="594" y="34" rx="2" ry="2"/><rect class="c c6" x="594" y="50" rx="2" ry="2"/><rect class="c c7" x="594" y="66" rx="2" ry="2"/><rect class="c" x="594" y="82" rx="2" ry="2"/><rect class="c" x="594" y="98" rx="2" ry="2"/><rect class="c" x="610" y="2" rx="2" ry="2"/><rect class="c" x="610" y="18" rx="2" ry="2"/><rect class="c" x="610" y="34" rx="2" ry="2"/><rect class="c" x="610" y="50" rx="2" ry="2"/><rect class="c" x="610" y="66" rx="2" ry="2"/><rect class="c" x="610" y="82" rx="2" ry="2"/><rect class="c" x="610" y="98" rx="2" ry="2"/><rect class="c" x="626" y="2" rx="2" ry="2"/><rect class="c" x="626" y="18" rx="2" ry="2"/><rect class="c" x="626" y="34" rx="2" ry="2"/><rect class="c" x="626" y="50" rx="2" ry="2"/><rect class="c" x="626" y="66" rx="2" ry="2"/><rect class="c" x="626" y="82" rx="2" ry="2"/><rect class="c" x="626" y="98" rx="2" ry="2"/><rect class="c" x="642" y="2" rx="2" ry="2"/><rect class="c" x="642" y="18" rx="2" ry="2"/><rect class="c c8" x="642" y="34" rx="2" ry="2"/><rect class="c" x="642" y="50" rx="2" ry="2"/><rect class="c" x="642" y="66" rx="2" ry="2"/><rect class="c" x="642" y="82" rx="2" ry="2"/><rect class="c" x="642" y="98" rx="2" ry="2"/><rect class="c" x="658" y="2" rx="2" ry="2"/><rect class="c" x="658" y="18" rx="2" ry="2"/><rect class="c c9" x="658" y="34" rx="2" ry="2"/><rect class="c ca" x="658" y="50" rx="2" ry="2"/><rect class="c" x="658" y="66" rx="2" ry="2"/><rect class="c" x="658" y="82" rx="2" ry="2"/><rect class="c" x="658" y="98" rx="2" ry="2"/><rect class="c cb" x="674" y="2" rx="2" ry="2"/><rect class="c" x="674" y="18" rx="2" ry="2"/><rect class="c" x="674" y="34" rx="2" ry="2"/><rect class="c" x="674" y="50" rx="2" ry="2"/><rect class="c" x="674" y="66" rx="2" ry="2"/><rect class="c" x="674" y="82" rx="2" ry="2"/><rect class="c" x="674" y="98" rx="2" ry="2"/><rect class="c" x="690" y="2" rx="2" ry="2"/><rect class="c" x="690" y="18" rx="2" ry="2"/><rect class="c" x="690" y="34" rx="2" ry="2"/><rect class="c" x="690" y="50" rx="2" ry="2"/><rect class="c" x="690" y="66" rx="2" ry="2"/><rect class="c" x="690" y="82" rx="2" ry="2"/><rect class="c" x="690" y="98" rx="2" ry="2"/><rect class="c" x="706" y="2" rx="2" ry="2"/><rect class="c" x="706" y="18" rx="2" ry="2"/><rect class="c" x="706" y="34" rx="2" ry="2"/><rect class="c" x="706" y="50" rx="2" ry="2"/><rect class="c" x="706" y="66" rx="2" ry="2"/><rect class="c cc" x="706" y="82" rx="2" ry="2"/><rect class="c cd" x="706" y="98" rx="2" ry="2"/><rect class="c" x="722" y="2" rx="2" ry="2"/><rect class="c ce" x="722" y="18" rx="2" ry="2"/><rect class="c" x="722" y="34" rx="2" ry="2"/><rect class="c" x="722" y="50" rx="2" ry="2"/><rect class="c" x="722" y="66" rx="2" ry="2"/><rect class="c" x="722" y="82" rx="2" ry="2"/><rect class="c" x="722" y="98" rx="2" ry="2"/><rect class="c" x="738" y="2" rx="2" ry="2"/><rect class="c" x="738" y="18" rx="2" ry="2"/><rect class="c" x="738" y="34" rx="2" ry="2"/><rect class="c" x="738" y="50" rx="2" ry="2"/><rect class="c" x="738" y="66" rx="2" ry="2"/><rect class="c" x="738" y="82" rx="2" ry="2"/><rect class="c" x="738" y="98" rx="2" ry="2"/><rect class="c" x="754" y="2" rx="2" ry="2"/><rect class="c" x="754" y="18" rx="2" ry="2"/><rect class="c cf" x="754" y="34" rx="2" ry="2"/><rect class="c" x="754" y="50" rx="2" ry="2"/><rect class="c" x="754" y="66" rx="2" ry="2"/><rect class="c cg" x="754" y="82" rx="2" ry="2"/><rect class="c ch" x="754" y="98" rx="2" ry="2"/><rect class="c" x="770" y="2" rx="2" ry="2"/><rect class="c" x="770" y="18" rx="2" ry="2"/><rect class="c" x="770" y="34" rx="2" ry="2"/><rect class="c" x="770" y="50" rx="2" ry="2"/><rect class="c" x="770" y="66" rx="2" ry="2"/><rect class="c ci" x="770" y="82" rx="2" ry="2"/><rect class="c cj" x="770" y="98" rx="2" ry="2"/><rect class="c" x="786" y="2" rx="2" ry="2"/><rect class="c" x="786" y="18" rx="2" ry="2"/><rect class="c ck" x="786" y="34" rx="2" ry="2"/><rect class="c cl" x="786" y="50" rx="2" ry="2"/><rect class="c" x="786" y="66" rx="2" ry="2"/><rect class="c" x="786" y="82" rx="2" ry="2"/><rect class="c" x="786" y="98" rx="2" ry="2"/><rect class="c" x="802" y="2" rx="2" ry="2"/><rect class="c cm" x="802" y="18" rx="2" ry="2"/><rect class="c cn" x="802" y="34" rx="2" ry="2"/><rect class="c co" x="802" y="50" rx="2" ry="2"/><rect class="c cp" x="802" y="66" rx="2" ry="2"/><rect class="c cq" x="802" y="82" rx="2" ry="2"/><rect class="c cr" x="802" y="98" rx="2" ry="2"/><rect class="c cs" x="818" y="2" rx="2" ry="2"/><rect class="c ct" x="818" y="18" rx="2" ry="2"/><rect class="c cu" x="818" y="34" rx="2" ry="2"/><rect class="c cv" x="818" y="50" rx="2" ry="2"/><rect class="c cw" x="818" y="66" rx="2" ry="2"/><rect class="c cx" x="818" y="82" rx="2" ry="2"/><rect class="c cy" x="818" y="98" rx="2" ry="2"/><rect class="c cz" x="834" y="2" rx="2" ry="2"/><rect class="c c10" x="834" y="18" rx="2" ry="2"/><rect class="c c11" x="834" y="34" rx="2" ry="2"/><rect class="c c12" x="834" y="50" rx="2" ry="2"/><rect class="c c13" x="834" y="66" rx="2" ry="2"/><rect class="c c14" x="834" y="82" rx="2" ry="2"/><rect class="c c15" x="834" y="98" rx="2" ry="2"/><rect class="u u0" height="12" width="202.5" x="0.0" y="144"/><rect class="u u1" height="12" width="384.2" x="201.9" y="144"/><rect class="u u2" height="12" width="141.9" x="585.5" y="144"/><rect class="u u3" height="12" width="121.7" x="726.9" y="144"/><rect class="s s0" x="0.8" y="0.8" width="14.4" height="14.4" rx="4.5" ry="4.5"/><rect class="s s1" x="1.8" y="1.8" width="12.3" height="12.3" rx="4.1" ry="4.1"/><rect class="s s2" x="2.6" y="2.6" width="10.8" height="10.8" rx="3.6" ry="3.6"/><rect class="s s3" x="3.0" y="3.0" width="9.9" height="9.9" rx="3.3" ry="3.3"/></svg>