<svg viewBox="-16 -32 880 192" width="880" height="192" xmlns="http://www.w3.org/2000/svg"><desc>Generated with https://github.com/Platane/snk</desc><style>:root{--cb:#1b1f230a;--cs:764ba2;--ce:#ebedf0;--c0:#ebedf0;--c1:#9be9a8;--c2:#40c463;--c3:#30a14e;--c4:#216e39}.c{shape-rendering:geometricPrecision;fill:var(--ce);stroke-width:1px;stroke:var(--cb);animation:none 28900ms linear infinite;width:12px;height:12px}@keyframes c0{55.01%{fill:var(--c2)}55.03%,100%{fill:var(--ce)}}.c.c0{fill:var(--c2);animation-name:c0}@keyframes c1{33.9%{fill:var(--c1)}33.92%,100%{fill:var(--ce)}}.c.c1{fill:var(--c1);animation-name:c1}@keyframes c2{12.1%{fill:var(--c1)}12.12%,100%{fill:var(--ce)}}.c.c2{fill:var(--c1);animation-name:c2}@keyframes c3{52.59%{fill:var(--c2)}52.61%,100%{fill:var(--ce)}}.c.c3{fill:var(--c2);animation-name:c3}@keyframes c4{12.45%{fill:var(--c1)}12.47%,100%{fill:var(--ce)}}.c.c4{fill:var(--c1);animation-name:c4}@keyframes c5{52.24%{fill:var(--c2)}52.26%,100%{fill:var(--ce)}}.c.c5{fill:var(--c2);animation-name:c5}@keyframes c6{14.18%{fill:var(--c1)}14.2%,100%{fill:var(--ce)}}.c.c6{fill:var(--c1);animation-name:c6}@keyframes c7{50.51%{fill:var(--c2)}50.53%,100%{fill:var(--ce)}}.c.c7{fill:var(--c2);animation-name:c7}@keyframes c8{74.38%{fill:var(--c3)}74.4%,100%{fill:var(--ce)}}.c.c8{fill:var(--c3);animation-name:c8}@keyframes c9{74.73%{fill:var(--c4)}74.75%,100%{fill:var(--ce)}}.c.c9{fill:var(--c4);animation-name:c9}@keyframes ca{75.08%{fill:var(--c4)}75.1%,100%{fill:var(--ce)}}.c.ca{fill:var(--c4);animation-name:ca}@keyframes cb{16.95%{fill:var(--c1)}16.97%,100%{fill:var(--ce)}}.c.cb{fill:var(--c1);animation-name:cb}@keyframes cc{76.81%{fill:var(--c4)}76.83%,100%{fill:var(--ce)}}.c.cc{fill:var(--c4);animation-name:cc}@keyframes cd{77.15%{fill:var(--c4)}77.17%,100%{fill:var(--ce)}}.c.cd{fill:var(--c4);animation-name:cd}@keyframes ce{43.93%{fill:var(--c2)}43.95%,100%{fill:var(--ce)}}.c.ce{fill:var(--c2);animation-name:ce}@keyframes cf{82.34%{fill:var(--c4)}82.36%,100%{fill:var(--ce)}}.c.cf{fill:var(--c4);animation-name:cf}@keyframes cg{46.01%{fill:var(--c2)}46.03%,100%{fill:var(--ce)}}.c.cg{fill:var(--c2);animation-name:cg}@keyframes ch{70.58%{fill:var(--c3)}70.6%,100%{fill:var(--ce)}}.c.ch{fill:var(--c3);animation-name:ch}@keyframes ci{46.36%{fill:var(--c2)}46.38%,100%{fill:var(--ce)}}.c.ci{fill:var(--c2);animation-name:ci}@keyframes cj{78.54%{fill:var(--c4)}78.56%,100%{fill:var(--ce)}}.c.cj{fill:var(--c4);animation-name:cj}@keyframes ck{20.06%{fill:var(--c1)}20.08%,100%{fill:var(--ce)}}.c.ck{fill:var(--c1);animation-name:ck}@keyframes cl{65.39%{fill:var(--c3)}65.41%,100%{fill:var(--ce)}}.c.cl{fill:var(--c3);animation-name:cl}@keyframes cm{42.2%{fill:var(--c2)}42.22%,100%{fill:var(--ce)}}.c.cm{fill:var(--c2);animation-name:cm}@keyframes cn{41.86%{fill:var(--c1)}41.88%,100%{fill:var(--ce)}}.c.cn{fill:var(--c1);animation-name:cn}@keyframes co{65.73%{fill:var(--c3)}65.75%,100%{fill:var(--ce)}}.c.co{fill:var(--c3);animation-name:co}@keyframes cp{62.62%{fill:var(--c2)}62.64%,100%{fill:var(--ce)}}.c.cp{fill:var(--c2);animation-name:cp}@keyframes cq{79.57%{fill:var(--c4)}79.59%,100%{fill:var(--ce)}}.c.cq{fill:var(--c4);animation-name:cq}@keyframes cr{64%{fill:var(--c3)}64.02%,100%{fill:var(--ce)}}.c.cr{fill:var(--c3);animation-name:cr}@keyframes cs{67.12%{fill:var(--c3)}67.14%,100%{fill:var(--ce)}}.c.cs{fill:var(--c3);animation-name:cs}@keyframes ct{66.77%{fill:var(--c3)}66.79%,100%{fill:var(--ce)}}.c.ct{fill:var(--c3);animation-name:ct}@keyframes cu{66.43%{fill:var(--c3)}66.45%,100%{fill:var(--ce)}}.c.cu{fill:var(--c3);animation-name:cu}@keyframes cv{80.61%{fill:var(--c4)}80.63%,100%{fill:var(--ce)}}.c.cv{fill:var(--c4);animation-name:cv}@keyframes cw{62.97%{fill:var(--c3)}62.99%,100%{fill:var(--ce)}}.c.cw{fill:var(--c3);animation-name:cw}@keyframes cx{63.31%{fill:var(--c3)}63.33%,100%{fill:var(--ce)}}.c.cx{fill:var(--c3);animation-name:cx}@keyframes cy{63.66%{fill:var(--c3)}63.68%,100%{fill:var(--ce)}}.c.cy{fill:var(--c3);animation-name:cy}@keyframes cz{23.17%{fill:var(--c1)}23.19%,100%{fill:var(--ce)}}.c.cz{fill:var(--c1);animation-name:cz}.u{transform-origin:0 0;transform:scale(0,1);animation:none linear 28900ms infinite}@keyframes u0{12.1%{transform:scale(0.000,1)}12.12%,12.45%{transform:scale(0.125,1)}12.47%,14.18%{transform:scale(0.250,1)}14.2%,16.95%{transform:scale(0.375,1)}16.97%,20.06%{transform:scale(0.500,1)}20.08%,23.17%{transform:scale(0.625,1)}23.19%,33.9%{transform:scale(0.750,1)}33.92%,41.86%{transform:scale(0.875,1)}41.88%,100%{transform:scale(1.000,1)}}.u.u0{fill:var(--c1);animation-name:u0;transform-origin:0.0px 0}@keyframes u1{42.2%{transform:scale(0.000,1)}42.22%,43.93%{transform:scale(0.111,1)}43.95%,46.01%{transform:scale(0.222,1)}46.03%,46.36%{transform:scale(0.333,1)}46.38%,50.51%{transform:scale(0.444,1)}50.53%,52.24%{transform:scale(0.556,1)}52.26%,52.59%{transform:scale(0.667,1)}52.61%,55.01%{transform:scale(0.778,1)}55.03%,62.62%{transform:scale(0.889,1)}62.64%,100%{transform:scale(1.000,1)}}.u.u1{fill:var(--c2);animation-name:u1;transform-origin:188.4px 0}@keyframes u2{62.97%{transform:scale(0.000,1)}62.99%,63.31%{transform:scale(0.091,1)}63.33%,63.66%{transform:scale(0.182,1)}63.68%,64%{transform:scale(0.273,1)}64.02%,65.39%{transform:scale(0.364,1)}65.41%,65.73%{transform:scale(0.455,1)}65.75%,66.43%{transform:scale(0.545,1)}66.45%,66.77%{transform:scale(0.636,1)}66.79%,67.12%{transform:scale(0.727,1)}67.14%,70.58%{transform:scale(0.818,1)}70.6%,74.38%{transform:scale(0.909,1)}74.4%,100%{transform:scale(1.000,1)}}.u.u2{fill:var(--c3);animation-name:u2;transform-origin:400.4px 0}@keyframes u3{74.73%{transform:scale(0.000,1)}74.75%,75.08%{transform:scale(0.125,1)}75.1%,76.81%{transform:scale(0.250,1)}76.83%,77.15%{transform:scale(0.375,1)}77.17%,78.54%{transform:scale(0.500,1)}78.56%,79.57%{transform:scale(0.625,1)}79.59%,80.61%{transform:scale(0.750,1)}80.63%,82.34%{transform:scale(0.875,1)}82.36%,100%{transform:scale(1.000,1)}}.u.u3{fill:var(--c4);animation-name:u3;transform-origin:659.6px 0}.s{shape-rendering:geometricPrecision;fill:var(--cs);animation:none linear 28900ms infinite}@keyframes s0{0%,99.65%{transform:translate(0px,-16px)}0.35%{transform:translate(0px,0px)}11.76%{transform:translate(528px,0px)}12.11%{transform:translate(528px,16px)}13.49%{transform:translate(592px,16px)}14.19%{transform:translate(592px,48px)}14.88%{transform:translate(624px,48px)}15.57%{transform:translate(624px,16px)}16.61%{transform:translate(672px,16px)}16.96%{transform:translate(672px,0px)}19.38%,21.45%{transform:translate(784px,0px)}20.07%{transform:translate(784px,32px)}20.42%,41.18%{transform:translate(768px,32px)}20.76%{transform:translate(768px,16px)}21.11%{transform:translate(784px,16px)}21.8%{transform:translate(800px,0px)}22.15%{transform:translate(800px,-16px)}22.84%{transform:translate(832px,-16px)}23.18%{transform:translate(832px,0px)}23.53%{transform:translate(848px,0px)}23.88%{transform:translate(848px,-16px)}31.83%{transform:translate(480px,-16px)}33.91%,55.36%{transform:translate(480px,80px)}36.68%{transform:translate(608px,80px)}37.02%{transform:translate(608px,64px)}38.41%{transform:translate(672px,64px)}38.75%{transform:translate(672px,48px)}40.83%,69.2%{transform:translate(768px,48px)}41.87%,66.09%{transform:translate(800px,32px)}42.21%{transform:translate(800px,16px)}43.94%{transform:translate(720px,16px)}44.29%{transform:translate(720px,32px)}44.64%{transform:translate(736px,32px)}44.98%{transform:translate(736px,48px)}45.33%,69.55%{transform:translate(752px,48px)}46.02%{transform:translate(752px,80px)}46.37%{transform:translate(768px,80px)}46.71%{transform:translate(768px,64px)}50.52%{transform:translate(592px,64px)}51.21%{transform:translate(592px,32px)}53.98%{transform:translate(464px,32px)}55.02%{transform:translate(464px,80px)}55.71%{transform:translate(480px,64px)}62.98%{transform:translate(816px,64px)}63.67%{transform:translate(816px,96px)}64.36%{transform:translate(784px,96px)}65.4%{transform:translate(784px,48px)}65.74%{transform:translate(800px,48px)}66.44%,80.97%{transform:translate(816px,32px)}67.13%{transform:translate(816px,0px)}68.17%{transform:translate(768px,0px)}70.59%{transform:translate(752px,96px)}70.93%{transform:translate(736px,96px)}71.63%{transform:translate(736px,64px)}73.7%{transform:translate(640px,64px)}74.39%{transform:translate(640px,32px)}74.74%{transform:translate(656px,32px)}75.09%{transform:translate(656px,48px)}76.12%{transform:translate(704px,48px)}77.16%{transform:translate(704px,96px)}79.24%{transform:translate(800px,96px)}79.58%{transform:translate(800px,80px)}79.93%{transform:translate(816px,80px)}94.12%{transform:translate(208px,32px)}94.46%{transform:translate(208px,16px)}94.81%{transform:translate(192px,16px)}95.16%{transform:translate(192px,0px)}96.54%{transform:translate(128px,0px)}96.89%{transform:translate(128px,-16px)}}.s.s0{transform:translate(0px,-16px);animation-name:s0}@keyframes s1{0%,99.65%{transform:translate(16px,-16px)}0.35%{transform:translate(0px,-16px)}0.69%{transform:translate(0px,0px)}12.11%{transform:translate(528px,0px)}12.46%{transform:translate(528px,16px)}13.84%{transform:translate(592px,16px)}14.53%{transform:translate(592px,48px)}15.22%{transform:translate(624px,48px)}15.92%{transform:translate(624px,16px)}16.96%{transform:translate(672px,16px)}17.3%{transform:translate(672px,0px)}19.72%,21.8%{transform:translate(784px,0px)}20.42%{transform:translate(784px,32px)}20.76%,41.52%{transform:translate(768px,32px)}21.11%{transform:translate(768px,16px)}21.45%{transform:translate(784px,16px)}22.15%{transform:translate(800px,0px)}22.49%{transform:translate(800px,-16px)}23.18%{transform:translate(832px,-16px)}23.53%{transform:translate(832px,0px)}23.88%{transform:translate(848px,0px)}24.22%{transform:translate(848px,-16px)}32.18%{transform:translate(480px,-16px)}34.26%,55.71%{transform:translate(480px,80px)}37.02%{transform:translate(608px,80px)}37.37%{transform:translate(608px,64px)}38.75%{transform:translate(672px,64px)}39.1%{transform:translate(672px,48px)}41.18%,69.55%{transform:translate(768px,48px)}42.21%,66.44%{transform:translate(800px,32px)}42.56%{transform:translate(800px,16px)}44.29%{transform:translate(720px,16px)}44.64%{transform:translate(720px,32px)}44.98%{transform:translate(736px,32px)}45.33%{transform:translate(736px,48px)}45.67%,69.9%{transform:translate(752px,48px)}46.37%{transform:translate(752px,80px)}46.71%{transform:translate(768px,80px)}47.06%{transform:translate(768px,64px)}50.87%{transform:translate(592px,64px)}51.56%{transform:translate(592px,32px)}54.33%{transform:translate(464px,32px)}55.36%{transform:translate(464px,80px)}56.06%{transform:translate(480px,64px)}63.32%{transform:translate(816px,64px)}64.01%{transform:translate(816px,96px)}64.71%{transform:translate(784px,96px)}65.74%{transform:translate(784px,48px)}66.09%{transform:translate(800px,48px)}66.78%,81.31%{transform:translate(816px,32px)}67.47%{transform:translate(816px,0px)}68.51%{transform:translate(768px,0px)}70.93%{transform:translate(752px,96px)}71.28%{transform:translate(736px,96px)}71.97%{transform:translate(736px,64px)}74.05%{transform:translate(640px,64px)}74.74%{transform:translate(640px,32px)}75.09%{transform:translate(656px,32px)}75.43%{transform:translate(656px,48px)}76.47%{transform:translate(704px,48px)}77.51%{transform:translate(704px,96px)}79.58%{transform:translate(800px,96px)}79.93%{transform:translate(800px,80px)}80.28%{transform:translate(816px,80px)}94.46%{transform:translate(208px,32px)}94.81%{transform:translate(208px,16px)}95.16%{transform:translate(192px,16px)}95.5%{transform:translate(192px,0px)}96.89%{transform:translate(128px,0px)}97.23%{transform:translate(128px,-16px)}}.s.s1{transform:translate(16px,-16px);animation-name:s1}@keyframes s2{0%,99.65%{transform:translate(32px,-16px)}0.69%{transform:translate(0px,-16px)}1.04%{transform:translate(0px,0px)}12.46%{transform:translate(528px,0px)}12.8%{transform:translate(528px,16px)}14.19%{transform:translate(592px,16px)}14.88%{transform:translate(592px,48px)}15.57%{transform:translate(624px,48px)}16.26%{transform:translate(624px,16px)}17.3%{transform:translate(672px,16px)}17.65%{transform:translate(672px,0px)}20.07%,22.15%{transform:translate(784px,0px)}20.76%{transform:translate(784px,32px)}21.11%,41.87%{transform:translate(768px,32px)}21.45%{transform:translate(768px,16px)}21.8%{transform:translate(784px,16px)}22.49%{transform:translate(800px,0px)}22.84%{transform:translate(800px,-16px)}23.53%{transform:translate(832px,-16px)}23.88%{transform:translate(832px,0px)}24.22%{transform:translate(848px,0px)}24.57%{transform:translate(848px,-16px)}32.53%{transform:translate(480px,-16px)}34.6%,56.06%{transform:translate(480px,80px)}37.37%{transform:translate(608px,80px)}37.72%{transform:translate(608px,64px)}39.1%{transform:translate(672px,64px)}39.45%{transform:translate(672px,48px)}41.52%,69.9%{transform:translate(768px,48px)}42.56%,66.78%{transform:translate(800px,32px)}42.91%{transform:translate(800px,16px)}44.64%{transform:translate(720px,16px)}44.98%{transform:translate(720px,32px)}45.33%{transform:translate(736px,32px)}45.67%{transform:translate(736px,48px)}46.02%,70.24%{transform:translate(752px,48px)}46.71%{transform:translate(752px,80px)}47.06%{transform:translate(768px,80px)}47.4%{transform:translate(768px,64px)}51.21%{transform:translate(592px,64px)}51.9%{transform:translate(592px,32px)}54.67%{transform:translate(464px,32px)}55.71%{transform:translate(464px,80px)}56.4%{transform:translate(480px,64px)}63.67%{transform:translate(816px,64px)}64.36%{transform:translate(816px,96px)}65.05%{transform:translate(784px,96px)}66.09%{transform:translate(784px,48px)}66.44%{transform:translate(800px,48px)}67.13%,81.66%{transform:translate(816px,32px)}67.82%{transform:translate(816px,0px)}68.86%{transform:translate(768px,0px)}71.28%{transform:translate(752px,96px)}71.63%{transform:translate(736px,96px)}72.32%{transform:translate(736px,64px)}74.39%{transform:translate(640px,64px)}75.09%{transform:translate(640px,32px)}75.43%{transform:translate(656px,32px)}75.78%{transform:translate(656px,48px)}76.82%{transform:translate(704px,48px)}77.85%{transform:translate(704px,96px)}79.93%{transform:translate(800px,96px)}80.28%{transform:translate(800px,80px)}80.62%{transform:translate(816px,80px)}94.81%{transform:translate(208px,32px)}95.16%{transform:translate(208px,16px)}95.5%{transform:translate(192px,16px)}95.85%{transform:translate(192px,0px)}97.23%{transform:translate(128px,0px)}97.58%{transform:translate(128px,-16px)}}.s.s2{transform:translate(32px,-16px);animation-name:s2}@keyframes s3{0%,99.65%{transform:translate(48px,-16px)}1.04%{transform:translate(0px,-16px)}1.38%{transform:translate(0px,0px)}12.8%{transform:translate(528px,0px)}13.15%{transform:translate(528px,16px)}14.53%{transform:translate(592px,16px)}15.22%{transform:translate(592px,48px)}15.92%{transform:translate(624px,48px)}16.61%{transform:translate(624px,16px)}17.65%{transform:translate(672px,16px)}17.99%{transform:translate(672px,0px)}20.42%,22.49%{transform:translate(784px,0px)}21.11%{transform:translate(784px,32px)}21.45%,42.21%{transform:translate(768px,32px)}21.8%{transform:translate(768px,16px)}22.15%{transform:translate(784px,16px)}22.84%{transform:translate(800px,0px)}23.18%{transform:translate(800px,-16px)}23.88%{transform:translate(832px,-16px)}24.22%{transform:translate(832px,0px)}24.57%{transform:translate(848px,0px)}24.91%{transform:translate(848px,-16px)}32.87%{transform:translate(480px,-16px)}34.95%,56.4%{transform:translate(480px,80px)}37.72%{transform:translate(608px,80px)}38.06%{transform:translate(608px,64px)}39.45%{transform:translate(672px,64px)}39.79%{transform:translate(672px,48px)}41.87%,70.24%{transform:translate(768px,48px)}42.91%,67.13%{transform:translate(800px,32px)}43.25%{transform:translate(800px,16px)}44.98%{transform:translate(720px,16px)}45.33%{transform:translate(720px,32px)}45.67%{transform:translate(736px,32px)}46.02%{transform:translate(736px,48px)}46.37%,70.59%{transform:translate(752px,48px)}47.06%{transform:translate(752px,80px)}47.4%{transform:translate(768px,80px)}47.75%{transform:translate(768px,64px)}51.56%{transform:translate(592px,64px)}52.25%{transform:translate(592px,32px)}55.02%{transform:translate(464px,32px)}56.06%{transform:translate(464px,80px)}56.75%{transform:translate(480px,64px)}64.01%{transform:translate(816px,64px)}64.71%{transform:translate(816px,96px)}65.4%{transform:translate(784px,96px)}66.44%{transform:translate(784px,48px)}66.78%{transform:translate(800px,48px)}67.47%,82.01%{transform:translate(816px,32px)}68.17%{transform:translate(816px,0px)}69.2%{transform:translate(768px,0px)}71.63%{transform:translate(752px,96px)}71.97%{transform:translate(736px,96px)}72.66%{transform:translate(736px,64px)}74.74%{transform:translate(640px,64px)}75.43%{transform:translate(640px,32px)}75.78%{transform:translate(656px,32px)}76.12%{transform:translate(656px,48px)}77.16%{transform:translate(704px,48px)}78.2%{transform:translate(704px,96px)}80.28%{transform:translate(800px,96px)}80.62%{transform:translate(800px,80px)}80.97%{transform:translate(816px,80px)}95.16%{transform:translate(208px,32px)}95.5%{transform:translate(208px,16px)}95.85%{transform:translate(192px,16px)}96.19%{transform:translate(192px,0px)}97.58%{transform:translate(128px,0px)}97.92%{transform:translate(128px,-16px)}}.s.s3{transform:translate(48px,-16px);animation-name:s3}</style><rect class="c" x="2" y="2" rx="2" ry="2"/><rect class="c" x="2" y="18" rx="2" ry="2"/><rect class="c" x="2" y="34" rx="2" ry="2"/><rect class="c" x="2" y="50" rx="2" ry="2"/><rect class="c" x="2" y="66" rx="2" ry="2"/><rect class="c" x="2" y="82" rx="2" ry="2"/><rect class="c" x="2" y="98" rx="2" ry="2"/><rect class="c" x="18" y="2" rx="2" ry="2"/><rect class="c" x="18" y="18" rx="2" ry="2"/><rect class="c" x="18" y="34" rx="2" ry="2"/><rect class="c" x="18" y="50" rx="2" ry="2"/><rect class="c" x="18" y="66" rx="2" ry="2"/><rect class="c" x="18" y="82" rx="2" ry="2"/><rect class="c" x="18" y="98" rx="2" ry="2"/><rect class="c" x="34" y="2" rx="2" ry="2"/><rect class="c" x="34" y="18" rx="2" ry="2"/><rect class="c" x="34" y="34" rx="2" ry="2"/><rect class="c" x="34" y="50" rx="2" ry="2"/><rect class="c" x="34" y="66" rx="2" ry="2"/><rect class="c" x="34" y="82" rx="2" ry="2"/><rect class="c" x="34" y="98" rx="2" ry="2"/><rect class="c" x="50" y="2" rx="2" ry="2"/><rect class="c" x="50" y="18" rx="2" ry="2"/><rect class="c" x="50" y="34" rx="2" ry="2"/><rect class="c" x="50" y="50" rx="2" ry="2"/><rect class="c" x="50" y="66" rx="2" ry="2"/><rect class="c" x="50" y="82" rx="2" ry="2"/><rect class="c" x="50" y="98" rx="2" ry="2"/><rect class="c" x="66" y="2" rx="2" ry="2"/><rect class="c" x="66" y="18" rx="2" ry="2"/><rect class="c" x="66" y="34" rx="2" ry="2"/><rect class="c" x="66" y="50" rx="2" ry="2"/><rect class="c" x="66" y="66" rx="2" ry="2"/><rect class="c" x="66" y="82" rx="2" ry="2"/><rect class="c" x="66" y="98" rx="2" ry="2"/><rect class="c" x="82" y="2" rx="2" ry="2"/><rect class="c" x="82" y="18" rx="2" ry="2"/><rect class="c" x="82" y="34" rx="2" ry="2"/><rect class="c" x="82" y="50" rx="2" ry="2"/><rect class="c" x="82" y="66" rx="2" ry="2"/><rect class="c" x="82" y="82" rx="2" ry="2"/><rect class="c" x="82" y="98" rx="2" ry="2"/><rect class="c" x="98" y="2" rx="2" ry="2"/><rect class="c" x="98" y="18" rx="2" ry="2"/><rect class="c" x="98" y="34" rx="2" ry="2"/><rect class="c" x="98" y="50" rx="2" ry="2"/><rect class="c" x="98" y="66" rx="2" ry="2"/><rect class="c" x="98" y="82" rx="2" ry="2"/><rect class="c" x="98" y="98" rx="2" ry="2"/><rect class="c" x="114" y="2" rx="2" ry="2"/><rect class="c" x="114" y="18" rx="2" ry="2"/><rect class="c" x="114" y="34" rx="2" ry="2"/><rect class="c" x="114" y="50" rx="2" ry="2"/><rect class="c" x="114" y="66" rx="2" ry="2"/><rect class="c" x="114" y="82" rx="2" ry="2"/><rect class="c" x="114" y="98" rx="2" ry="2"/><rect class="c" x="130" y="2" rx="2" ry="2"/><rect class="c" x="130" y="18" rx="2" ry="2"/><rect class="c" x="130" y="34" rx="2" ry="2"/><rect class="c" x="130" y="50" rx="2" ry="2"/><rect class="c" x="130" y="66" rx="2" ry="2"/><rect class="c" x="130" y="82" rx="2" ry="2"/><rect class="c" x="130" y="98" rx="2" ry="2"/><rect class="c" x="146" y="2" rx="2" ry="2"/><rect class="c" x="146" y="18" rx="2" ry="2"/><rect class="c" x="146" y="34" rx="2" ry="2"/><rect class="c" x="146" y="50" rx="2" ry="2"/><rect class="c" x="146" y="66" rx="2" ry="2"/><rect class="c" x="146" y="82" rx="2" ry="2"/><rect class="c" x="146" y="98" rx="2" ry="2"/><rect class="c" x="162" y="2" rx="2" ry="2"/><rect class="c" x="162" y="18" rx="2" ry="2"/><rect class="c" x="162" y="34" rx="2" ry="2"/><rect class="c" x="162" y="50" rx="2" ry="2"/><rect class="c" x="162" y="66" rx="2" ry="2"/><rect class="c" x="162" y="82" rx="2" ry="2"/><rect class="c" x="162" y="98" rx="2" ry="2"/><rect class="c" x="178" y="2" rx="2" ry="2"/><rect class="c" x="178" y="18" rx="2" ry="2"/><rect class="c" x="178" y="34" rx="2" ry="2"/><rect class="c" x="178" y="50" rx="2" ry="2"/><rect class="c" x="178" y="66" rx="2" ry="2"/><rect class="c" x="178" y="82" rx="2" ry="2"/><rect class="c" x="178" y="98" rx="2" ry="2"/><rect class="c" x="194" y="2" rx="2" ry="2"/><rect class="c" x="194" y="18" rx="2" ry="2"/><rect class="c" x="194" y="34" rx="2" ry="2"/><rect class="c" x="194" y="50" rx="2" ry="2"/><rect class="c" x="194" y="66" rx="2" ry="2"/><rect class="c" x="194" y="82" rx="2" ry="2"/><rect class="c" x="194" y="98" rx="2" ry="2"/><rect class="c" x="210" y="2" rx="2" ry="2"/><rect class="c" x="210" y="18" rx="2" ry="2"/><rect class="c" x="210" y="34" rx="2" ry="2"/><rect class="c" x="210" y="50" rx="2" ry="2"/><rect class="c" x="210" y="66" rx="2" ry="2"/><rect class="c" x="210" y="82" rx="2" ry="2"/><rect class="c" x="210" y="98" rx="2" ry="2"/><rect class="c" x="226" y="2" rx="2" ry="2"/><rect class="c" x="226" y="18" rx="2" ry="2"/><rect class="c" x="226" y="34" rx="2" ry="2"/><rect class="c" x="226" y="50" rx="2" ry="2"/><rect class="c" x="226" y="66" rx="2" ry="2"/><rect class="c" x="226" y="82" rx="2" ry="2"/><rect class="c" x="226" y="98" rx="2" ry="2"/><rect class="c" x="242" y="2" rx="2" ry="2"/><rect class="c" x="242" y="18" rx="2" ry="2"/><rect class="c" x="242" y="34" rx="2" ry="2"/><rect class="c" x="242" y="50" rx="2" ry="2"/><rect class="c" x="242" y="66" rx="2" ry="2"/><rect class="c" x="242" y="82" rx="2" ry="2"/><rect class="c" x="242" y="98" rx="2" ry="2"/><rect class="c" x="258" y="2" rx="2" ry="2"/><rect class="c" x="258" y="18" rx="2" ry="2"/><rect class="c" x="258" y="34" rx="2" ry="2"/><rect class="c" x="258" y="50" rx="2" ry="2"/><rect class="c" x="258" y="66" rx="2" ry="2"/><rect class="c" x="258" y="82" rx="2" ry="2"/><rect class="c" x="258" y="98" rx="2" ry="2"/><rect class="c" x="274" y="2" rx="2" ry="2"/><rect class="c" x="274" y="18" rx="2" ry="2"/><rect class="c" x="274" y="34" rx="2" ry="2"/><rect class="c" x="274" y="50" rx="2" ry="2"/><rect class="c" x="274" y="66" rx="2" ry="2"/><rect class="c" x="274" y="82" rx="2" ry="2"/><rect class="c" x="274" y="98" rx="2" ry="2"/><rect class="c" x="290" y="2" rx="2" ry="2"/><rect class="c" x="290" y="18" rx="2" ry="2"/><rect class="c" x="290" y="34" rx="2" ry="2"/><rect class="c" x="290" y="50" rx="2" ry="2"/><rect class="c" x="290" y="66" rx="2" ry="2"/><rect class="c" x="290" y="82" rx="2" ry="2"/><rect class="c" x="290" y="98" rx="2" ry="2"/><rect class="c" x="306" y="2" rx="2" ry="2"/><rect class="c" x="306" y="18" rx="2" ry="2"/><rect class="c" x="306" y="34" rx="2" ry="2"/><rect class="c" x="306" y="50" rx="2" ry="2"/><rect class="c" x="306" y="66" rx="2" ry="2"/><rect class="c" x="306" y="82" rx="2" ry="2"/><rect class="c" x="306" y="98" rx="2" ry="2"/><rect class="c" x="322" y="2" rx="2" ry="2"/><rect class="c" x="322" y="18" rx="2" ry="2"/><rect class="c" x="322" y="34" rx="2" ry="2"/><rect class="c" x="322" y="50" rx="2" ry="2"/><rect class="c" x="322" y="66" rx="2" ry="2"/><rect class="c" x="322" y="82" rx="2" ry="2"/><rect class="c" x="322" y="98" rx="2" ry="2"/><rect class="c" x="338" y="2" rx="2" ry="2"/><rect class="c" x="338" y="18" rx="2" ry="2"/><rect class="c" x="338" y="34" rx="2" ry="2"/><rect class="c" x="338" y="50" rx="2" ry="2"/><rect class="c" x="338" y="66" rx="2" ry="2"/><rect class="c" x="338" y="82" rx="2" ry="2"/><rect class="c" x="338" y="98" rx="2" ry="2"/><rect class="c" x="354" y="2" rx="2" ry="2"/><rect class="c" x="354" y="18" rx="2" ry="2"/><rect class="c" x="354" y="34" rx="2" ry="2"/><rect class="c" x="354" y="50" rx="2" ry="2"/><rect class="c" x="354" y="66" rx="2" ry="2"/><rect class="c" x="354" y="82" rx="2" ry="2"/><rect class="c" x="354" y="98" rx="2" ry="2"/><rect class="c" x="370" y="2" rx="2" ry="2"/><rect class="c" x="370" y="18" rx="2" ry="2"/><rect class="c" x="370" y="34" rx="2" ry="2"/><rect class="c" x="370" y="50" rx="2" ry="2"/><rect class="c" x="370" y="66" rx="2" ry="2"/><rect class="c" x="370" y="82" rx="2" ry="2"/><rect class="c" x="370" y="98" rx="2" ry="2"/><rect class="c" x="386" y="2" rx="2" ry="2"/><rect class="c" x="386" y="18" rx="2" ry="2"/><rect class="c" x="386" y="34" rx="2" ry="2"/><rect class="c" x="386" y="50" rx="2" ry="2"/><rect class="c" x="386" y="66" rx="2" ry="2"/><rect class="c" x="386" y="82" rx="2" ry="2"/><rect class="c" x="386" y="98" rx="2" ry="2"/><rect class="c" x="402" y="2" rx="2" ry="2"/><rect class="c" x="402" y="18" rx="2" ry="2"/><rect class="c" x="402" y="34" rx="2" ry="2"/><rect class="c" x="402" y="50" rx="2" ry="2"/><rect class="c" x="402" y="66" rx="2" ry="2"/><rect class="c" x="402" y="82" rx="2" ry="2"/><rect class="c" x="402" y="98" rx="2" ry="2"/><rect class="c" x="418" y="2" rx="2" ry="2"/><rect class="c" x="418" y="18" rx="2" ry="2"/><rect class="c" x="418" y="34" rx="2" ry="2"/><rect class="c" x="418" y="50" rx="2" ry="2"/><rect class="c" x="418" y="66" rx="2" ry="2"/><rect class="c" x="418" y="82" rx="2" ry="2"/><rect class="c" x="418" y="98" rx="2" ry="2"/><rect class="c" x="434" y="2" rx="2" ry="2"/><rect class="c" x="434" y="18" rx="2" ry="2"/><rect class="c" x="434" y="34" rx="2" ry="2"/><rect class="c" x="434" y="50" rx="2" ry="2"/><rect class="c" x="434" y="66" rx="2" ry="2"/><rect class="c" x="434" y="82" rx="2" ry="2"/><rect class="c" x="434" y="98" rx="2" ry="2"/><rect class="c" x="450" y="2" rx="2" ry="2"/><rect class="c" x="450" y="18" rx="2" ry="2"/><rect class="c" x="450" y="34" rx="2" ry="2"/><rect class="c" x="450" y="50" rx="2" ry="2"/><rect class="c" x="450" y="66" rx="2" ry="2"/><rect class="c" x="450" y="82" rx="2" ry="2"/><rect class="c" x="450" y="98" rx="2" ry="2"/><rect class="c" x="466" y="2" rx="2" ry="2"/><rect class="c" x="466" y="18" rx="2" ry="2"/><rect class="c" x="466" y="34" rx="2" ry="2"/><rect class="c" x="466" y="50" rx="2" ry="2"/><rect class="c" x="466" y="66" rx="2" ry="2"/><rect class="c c0" x="466" y="82" rx="2" ry="2"/><rect class="c" x="466" y="98" rx="2" ry="2"/><rect class="c" x="482" y="2" rx="2" ry="2"/><rect class="c" x="482" y="18" rx="2" ry="2"/><rect class="c" x="482" y="34" rx="2" ry="2"/><rect class="c" x="482" y="50" rx="2" ry="2"/><rect class="c" x="482" y="66" rx="2" ry="2"/><rect class="c c1" x="482" y="82" rx="2" ry="2"/><rect class="c" x="482" y="98" rx="2" ry="2"/><rect class="c" x="498" y="2" rx="2" ry="2"/><rect class="c" x="498" y="18" rx="2" ry="2"/><rect class="c" x="498" y="34" rx="2" ry="2"/><rect class="c" x="498" y="50" rx="2" ry="2"/><rect class="c" x="498" y="66" rx="2" ry="2"/><rect class="c" x="498" y="82" rx="2" ry="2"/><rect class="c" x="498" y="98" rx="2" ry="2"/><rect class="c" x="514" y="2" rx="2" ry="2"/><rect class="c" x="514" y="18" rx="2" ry="2"/><rect class="c" x="514" y="34" rx="2" ry="2"/><rect class="c" x="514" y="50" rx="2" ry="2"/><rect class="c" x="514" y="66" rx="2" ry="2"/><rect class="c" x="514" y="82" rx="2" ry="2"/><rect class="c" x="514" y="98" rx="2" ry="2"/><rect class="c" x="530" y="2" rx="2" ry="2"/><rect class="c c2" x="530" y="18" rx="2" ry="2"/><rect class="c c3" x="530" y="34" rx="2" ry="2"/><rect class="c" x="530" y="50" rx="2" ry="2"/><rect class="c" x="530" y="66" rx="2" ry="2"/><rect class="c" x="530" y="82" rx="2" ry="2"/><rect class="c" x="530" y="98" rx="2" ry="2"/><rect class="c" x="546" y="2" rx="2" ry="2"/><rect class="c c4" x="546" y="18" rx="2" ry="2"/><rect class="c c5" x="546" y="34" rx="2" ry="2"/><rect class="c" x="546" y="50" rx="2" ry="2"/><rect class="c" x="546" y="66" rx="2" ry="2"/><rect class="c" x="546" y="82" rx="2" ry="2"/><rect class="c" x="546" y="98" rx="2" ry="2"/><rect class="c" x="562" y="2" rx="2" ry="2"/><rect class="c" x="562" y="18" rx="2" ry="2"/><rect class="c" x="562" y="34" rx="2" ry="2"/><rect class="c" x="562" y="50" rx="2" ry="2"/><rect class="c" x="562" y="66" rx="2" ry="2"/><rect class="c" x="562" y="82" rx="2" ry="2"/><rect class="c" x="562" y="98" rx="2" ry="2"/><rect class="c" x="578" y="2" rx="2" ry="2"/><rect class="c" x="578" y="18" rx="2" ry="2"/><rect class="c" x="578" y="34" rx="2" ry="2"/><rect class="c" x="578" y="50" rx="2" ry="2"/><rect class="c" x="578" y="66" rx="2" ry="2"/><rect class="c" x="578" y="82" rx="2" ry="2"/><rect class="c" x="578" y="98" rx="2" ry="2"/><rect class="c" x="594" y="2" rx="2" ry="2"/><rect class="c" x="594" y="18" rx="2" ry="2"/><rect class="c" x="594" y="34" rx="2" ry="2"/><rect class="c c6" x="594" y="50" rx="2" ry="2"/><rect class="c c7" x="594" y="66" rx="2" ry="2"/><rect class="c" x="594" y="82" rx="2" ry="2"/><rect class="c" x="594" y="98" rx="2" ry="2"/><rect class="c" x="610" y="2" rx="2" ry="2"/><rect class="c" x="610" y="18" rx="2" ry="2"/><rect class="c" x="610" y="34" rx="2" ry="2"/><rect class="c" x="610" y="50" rx="2" ry="2"/><rect class="c" x="610" y="66" rx="2" ry="2"/><rect class="c" x="610" y="82" rx="2" ry="2"/><rect class="c" x="610" y="98" rx="2" ry="2"/><rect class="c" x="626" y="2" rx="2" ry="2"/><rect class="c" x="626" y="18" rx="2" ry="2"/><rect class="c" x="626" y="34" rx="2" ry="2"/><rect class="c" x="626" y="50" rx="2" ry="2"/><rect class="c" x="626" y="66" rx="2" ry="2"/><rect class="c" x="626" y="82" rx="2" ry="2"/><rect class="c" x="626" y="98" rx="2" ry="2"/><rect class="c" x="642" y="2" rx="2" ry="2"/><rect class="c" x="642" y="18" rx="2" ry="2"/><rect class="c c8" x="642" y="34" rx="2" ry="2"/><rect class="c" x="642" y="50" rx="2" ry="2"/><rect class="c" x="642" y="66" rx="2" ry="2"/><rect class="c" x="642" y="82" rx="2" ry="2"/><rect class="c" x="642" y="98" rx="2" ry="2"/><rect class="c" x="658" y="2" rx="2" ry="2"/><rect class="c" x="658" y="18" rx="2" ry="2"/><rect class="c c9" x="658" y="34" rx="2" ry="2"/><rect class="c ca" x="658" y="50" rx="2" ry="2"/><rect class="c" x="658" y="66" rx="2" ry="2"/><rect class="c" x="658" y="82" rx="2" ry="2"/><rect class="c" x="658" y="98" rx="2" ry="2"/><rect class="c cb" x="674" y="2" rx="2" ry="2"/><rect class="c" x="674" y="18" rx="2" ry="2"/><rect class="c" x="674" y="34" rx="2" ry="2"/><rect class="c" x="674" y="50" rx="2" ry="2"/><rect class="c" x="674" y="66" rx="2" ry="2"/><rect class="c" x="674" y="82" rx="2" ry="2"/><rect class="c" x="674" y="98" rx="2" ry="2"/><rect class="c" x="690" y="2" rx="2" ry="2"/><rect class="c" x="690" y="18" rx="2" ry="2"/><rect class="c" x="690" y="34" rx="2" ry="2"/><rect class="c" x="690" y="50" rx="2" ry="2"/><rect class="c" x="690" y="66" rx="2" ry="2"/><rect class="c" x="690" y="82" rx="2" ry="2"/><rect class="c" x="690" y="98" rx="2" ry="2"/><rect class="c" x="706" y="2" rx="2" ry="2"/><rect class="c" x="706" y="18" rx="2" ry="2"/><rect class="c" x="706" y="34" rx="2" ry="2"/><rect class="c" x="706" y="50" rx="2" ry="2"/><rect class="c" x="706" y="66" rx="2" ry="2"/><rect class="c cc" x="706" y="82" rx="2" ry="2"/><rect class="c cd" x="706" y="98" rx="2" ry="2"/><rect class="c" x="722" y="2" rx="2" ry="2"/><rect class="c ce" x="722" y="18" rx="2" ry="2"/><rect class="c" x="722" y="34" rx="2" ry="2"/><rect class="c" x="722" y="50" rx="2" ry="2"/><rect class="c" x="722" y="66" rx="2" ry="2"/><rect class="c" x="722" y="82" rx="2" ry="2"/><rect class="c" x="722" y="98" rx="2" ry="2"/><rect class="c" x="738" y="2" rx="2" ry="2"/><rect class="c" x="738" y="18" rx="2" ry="2"/><rect class="c" x="738" y="34" rx="2" ry="2"/><rect class="c" x="738" y="50" rx="2" ry="2"/><rect class="c" x="738" y="66" rx="2" ry="2"/><rect class="c" x="738" y="82" rx="2" ry="2"/><rect class="c" x="738" y="98" rx="2" ry="2"/><rect class="c" x="754" y="2" rx="2" ry="2"/><rect class="c" x="754" y="18" rx="2" ry="2"/><rect class="c cf" x="754" y="34" rx="2" ry="2"/><rect class="c" x="754" y="50" rx="2" ry="2"/><rect class="c" x="754" y="66" rx="2" ry="2"/><rect class="c cg" x="754" y="82" rx="2" ry="2"/><rect class="c ch" x="754" y="98" rx="2" ry="2"/><rect class="c" x="770" y="2" rx="2" ry="2"/><rect class="c" x="770" y="18" rx="2" ry="2"/><rect class="c" x="770" y="34" rx="2" ry="2"/><rect class="c" x="770" y="50" rx="2" ry="2"/><rect class="c" x="770" y="66" rx="2" ry="2"/><rect class="c ci" x="770" y="82" rx="2" ry="2"/><rect class="c cj" x="770" y="98" rx="2" ry="2"/><rect class="c" x="786" y="2" rx="2" ry="2"/><rect class="c" x="786" y="18" rx="2" ry="2"/><rect class="c ck" x="786" y="34" rx="2" ry="2"/><rect class="c cl" x="786" y="50" rx="2" ry="2"/><rect class="c" x="786" y="66" rx="2" ry="2"/><rect class="c" x="786" y="82" rx="2" ry="2"/><rect class="c" x="786" y="98" rx="2" ry="2"/><rect class="c" x="802" y="2" rx="2" ry="2"/><rect class="c cm" x="802" y="18" rx="2" ry="2"/><rect class="c cn" x="802" y="34" rx="2" ry="2"/><rect class="c co" x="802" y="50" rx="2" ry="2"/><rect class="c cp" x="802" y="66" rx="2" ry="2"/><rect class="c cq" x="802" y="82" rx="2" ry="2"/><rect class="c cr" x="802" y="98" rx="2" ry="2"/><rect class="c cs" x="818" y="2" rx="2" ry="2"/><rect class="c ct" x="818" y="18" rx="2" ry="2"/><rect class="c cu" x="818" y="34" rx="2" ry="2"/><rect class="c cv" x="818" y="50" rx="2" ry="2"/><rect class="c cw" x="818" y="66" rx="2" ry="2"/><rect class="c cx" x="818" y="82" rx="2" ry="2"/><rect class="c cy" x="818" y="98" rx="2" ry="2"/><rect class="c cz" x="834" y="2" rx="2" ry="2"/><rect class="u u0" height="12" width="189.0" x="0.0" y="144"/><rect class="u u1" height="12" width="212.6" x="188.4" y="144"/><rect class="u u2" height="12" width="259.7" x="400.4" y="144"/><rect class="u u3" height="12" width="189.0" x="659.6" y="144"/><rect class="s s0" x="0.8" y="0.8" width="14.4" height="14.4" rx="4.5" ry="4.5"/><rect class="s s1" x="1.8" y="1.8" width="12.3" height="12.3" rx="4.1" ry="4.1"/><rect class="s s2" x="2.6" y="2.6" width="10.8" height="10.8" rx="3.6" ry="3.6"/><rect class="s s3" x="3.0" y="3.0" width="9.9" height="9.9" rx="3.3" ry="3.3"/></svg>