<svg viewBox="-16 -32 880 192" width="880" height="192" xmlns="http://www.w3.org/2000/svg"><desc>Generated with https://github.com/Platane/snk</desc><style>:root{--cb:#1b1f230a;--cs:764ba2;--ce:#ebedf0;--c0:#ebedf0;--c1:#9be9a8;--c2:#40c463;--c3:#30a14e;--c4:#216e39}.c{shape-rendering:geometricPrecision;fill:var(--ce);stroke-width:1px;stroke:var(--cb);animation:none 29500ms linear infinite;width:12px;height:12px}@keyframes c0{16.94%{fill:var(--c1)}16.96%,100%{fill:var(--ce)}}.c.c0{fill:var(--c1);animation-name:c0}@keyframes c1{16.6%{fill:var(--c1)}16.62%,100%{fill:var(--ce)}}.c.c1{fill:var(--c1);animation-name:c1}@keyframes c2{10.84%{fill:var(--c1)}10.86%,100%{fill:var(--ce)}}.c.c2{fill:var(--c1);animation-name:c2}@keyframes c3{11.85%{fill:var(--c1)}11.87%,100%{fill:var(--ce)}}.c.c3{fill:var(--c1);animation-name:c3}@keyframes c4{11.18%{fill:var(--c1)}11.2%,100%{fill:var(--ce)}}.c.c4{fill:var(--c1);animation-name:c4}@keyframes c5{11.52%{fill:var(--c1)}11.54%,100%{fill:var(--ce)}}.c.c5{fill:var(--c1);animation-name:c5}@keyframes c6{13.55%{fill:var(--c1)}13.57%,100%{fill:var(--ce)}}.c.c6{fill:var(--c1);animation-name:c6}@keyframes c7{13.89%{fill:var(--c1)}13.91%,100%{fill:var(--ce)}}.c.c7{fill:var(--c1);animation-name:c7}@keyframes c8{70.5%{fill:var(--c2)}70.52%,100%{fill:var(--ce)}}.c.c8{fill:var(--c2);animation-name:c8}@keyframes c9{70.16%{fill:var(--c2)}70.18%,100%{fill:var(--ce)}}.c.c9{fill:var(--c2);animation-name:c9}@keyframes ca{85.41%{fill:var(--c4)}85.43%,100%{fill:var(--ce)}}.c.ca{fill:var(--c4);animation-name:ca}@keyframes cb{23.04%{fill:var(--c1)}23.06%,100%{fill:var(--ce)}}.c.cb{fill:var(--c1);animation-name:cb}@keyframes cc{72.87%{fill:var(--c3)}72.89%,100%{fill:var(--ce)}}.c.cc{fill:var(--c3);animation-name:cc}@keyframes cd{67.79%{fill:var(--c2)}67.81%,100%{fill:var(--ce)}}.c.cd{fill:var(--c2);animation-name:cd}@keyframes ce{24.4%{fill:var(--c1)}24.42%,100%{fill:var(--ce)}}.c.ce{fill:var(--c1);animation-name:ce}@keyframes cf{61.35%{fill:var(--c2)}61.37%,100%{fill:var(--ce)}}.c.cf{fill:var(--c2);animation-name:cf}@keyframes cg{28.46%{fill:var(--c1)}28.48%,100%{fill:var(--ce)}}.c.cg{fill:var(--c1);animation-name:cg}@keyframes ch{62.7%{fill:var(--c2)}62.72%,100%{fill:var(--ce)}}.c.ch{fill:var(--c2);animation-name:ch}@keyframes ci{28.13%{fill:var(--c1)}28.15%,100%{fill:var(--ce)}}.c.ci{fill:var(--c1);animation-name:ci}@keyframes cj{63.04%{fill:var(--c2)}63.06%,100%{fill:var(--ce)}}.c.cj{fill:var(--c2);animation-name:cj}@keyframes ck{26.77%{fill:var(--c1)}26.79%,100%{fill:var(--ce)}}.c.ck{fill:var(--c1);animation-name:ck}@keyframes cl{60.33%{fill:var(--c2)}60.35%,100%{fill:var(--ce)}}.c.cl{fill:var(--c2);animation-name:cl}@keyframes cm{26.09%{fill:var(--c1)}26.11%,100%{fill:var(--ce)}}.c.cm{fill:var(--c1);animation-name:cm}@keyframes cn{26.43%{fill:var(--c1)}26.45%,100%{fill:var(--ce)}}.c.cn{fill:var(--c1);animation-name:cn}@keyframes co{47.79%{fill:var(--c2)}47.81%,100%{fill:var(--ce)}}.c.co{fill:var(--c2);animation-name:co}@keyframes cp{47.45%{fill:var(--c1)}47.47%,100%{fill:var(--ce)}}.c.cp{fill:var(--c1);animation-name:cp}@keyframes cq{81.68%{fill:var(--c4)}81.7%,100%{fill:var(--ce)}}.c.cq{fill:var(--c4);animation-name:cq}@keyframes cr{63.72%{fill:var(--c2)}63.74%,100%{fill:var(--ce)}}.c.cr{fill:var(--c2);animation-name:cr}@keyframes cs{56.6%{fill:var(--c2)}56.62%,100%{fill:var(--ce)}}.c.cs{fill:var(--c2);animation-name:cs}@keyframes ct{56.26%{fill:var(--c2)}56.28%,100%{fill:var(--ce)}}.c.ct{fill:var(--c2);animation-name:ct}@keyframes cu{57.96%{fill:var(--c2)}57.98%,100%{fill:var(--ce)}}.c.cu{fill:var(--c2);animation-name:cu}@keyframes cv{75.92%{fill:var(--c3)}75.94%,100%{fill:var(--ce)}}.c.cv{fill:var(--c3);animation-name:cv}@keyframes cw{50.5%{fill:var(--c2)}50.52%,100%{fill:var(--ce)}}.c.cw{fill:var(--c2);animation-name:cw}@keyframes cx{65.07%{fill:var(--c2)}65.09%,100%{fill:var(--ce)}}.c.cx{fill:var(--c2);animation-name:cx}@keyframes cy{64.06%{fill:var(--c2)}64.08%,100%{fill:var(--ce)}}.c.cy{fill:var(--c2);animation-name:cy}@keyframes cz{77.96%{fill:var(--c3)}77.98%,100%{fill:var(--ce)}}.c.cz{fill:var(--c3);animation-name:cz}@keyframes c10{55.92%{fill:var(--c2)}55.94%,100%{fill:var(--ce)}}.c.c10{fill:var(--c2);animation-name:c10}@keyframes c11{58.3%{fill:var(--c2)}58.32%,100%{fill:var(--ce)}}.c.c11{fill:var(--c2);animation-name:c11}@keyframes c12{76.26%{fill:var(--c3)}76.28%,100%{fill:var(--ce)}}.c.c12{fill:var(--c3);animation-name:c12}@keyframes c13{50.84%{fill:var(--c1)}50.86%,100%{fill:var(--ce)}}.c.c13{fill:var(--c1);animation-name:c13}@keyframes c14{51.18%{fill:var(--c2)}51.2%,100%{fill:var(--ce)}}.c.c14{fill:var(--c2);animation-name:c14}@keyframes c15{64.4%{fill:var(--c2)}64.42%,100%{fill:var(--ce)}}.c.c15{fill:var(--c2);animation-name:c15}@keyframes c16{54.57%{fill:var(--c2)}54.59%,100%{fill:var(--ce)}}.c.c16{fill:var(--c2);animation-name:c16}@keyframes c17{54.23%{fill:var(--c2)}54.25%,100%{fill:var(--ce)}}.c.c17{fill:var(--c2);animation-name:c17}@keyframes c18{53.89%{fill:var(--c2)}53.91%,100%{fill:var(--ce)}}.c.c18{fill:var(--c2);animation-name:c18}@keyframes c19{76.6%{fill:var(--c3)}76.62%,100%{fill:var(--ce)}}.c.c19{fill:var(--c3);animation-name:c19}@keyframes c1a{80.33%{fill:var(--c4)}80.35%,100%{fill:var(--ce)}}.c.c1a{fill:var(--c4);animation-name:c1a}@keyframes c1b{51.52%{fill:var(--c2)}51.54%,100%{fill:var(--ce)}}.c.c1b{fill:var(--c2);animation-name:c1b}@keyframes c1c{32.19%{fill:var(--c1)}32.21%,100%{fill:var(--ce)}}.c.c1c{fill:var(--c1);animation-name:c1c}@keyframes c1d{54.91%{fill:var(--c2)}54.93%,100%{fill:var(--ce)}}.c.c1d{fill:var(--c2);animation-name:c1d}@keyframes c1e{41.68%{fill:var(--c1)}41.7%,100%{fill:var(--ce)}}.c.c1e{fill:var(--c1);animation-name:c1e}@keyframes c1f{41.35%{fill:var(--c1)}41.37%,100%{fill:var(--ce)}}.c.c1f{fill:var(--c1);animation-name:c1f}@keyframes c1g{79.65%{fill:var(--c4)}79.67%,100%{fill:var(--ce)}}.c.c1g{fill:var(--c4);animation-name:c1g}@keyframes c1h{52.19%{fill:var(--c2)}52.21%,100%{fill:var(--ce)}}.c.c1h{fill:var(--c2);animation-name:c1h}@keyframes c1i{38.97%{fill:var(--c1)}38.99%,100%{fill:var(--ce)}}.c.c1i{fill:var(--c1);animation-name:c1i}@keyframes c1j{32.53%{fill:var(--c1)}32.55%,100%{fill:var(--ce)}}.c.c1j{fill:var(--c1);animation-name:c1j}@keyframes c1k{35.58%{fill:var(--c1)}35.6%,100%{fill:var(--ce)}}.c.c1k{fill:var(--c1);animation-name:c1k}@keyframes c1l{42.02%{fill:var(--c2)}42.04%,100%{fill:var(--ce)}}.c.c1l{fill:var(--c2);animation-name:c1l}@keyframes c1m{34.23%{fill:var(--c1)}34.25%,100%{fill:var(--ce)}}.c.c1m{fill:var(--c1);animation-name:c1m}@keyframes c1n{33.89%{fill:var(--c1)}33.91%,100%{fill:var(--ce)}}.c.c1n{fill:var(--c1);animation-name:c1n}@keyframes c1o{33.55%{fill:var(--c1)}33.57%,100%{fill:var(--ce)}}.c.c1o{fill:var(--c1);animation-name:c1o}@keyframes c1p{33.21%{fill:var(--c1)}33.23%,100%{fill:var(--ce)}}.c.c1p{fill:var(--c1);animation-name:c1p}@keyframes c1q{32.87%{fill:var(--c1)}32.89%,100%{fill:var(--ce)}}.c.c1q{fill:var(--c1);animation-name:c1q}.u{transform-origin:0 0;transform:scale(0,1);animation:none linear 29500ms infinite}@keyframes u0{10.84%{transform:scale(0.000,1)}10.86%,11.18%{transform:scale(0.038,1)}11.2%,11.52%{transform:scale(0.077,1)}11.54%,11.85%{transform:scale(0.115,1)}11.87%,13.55%{transform:scale(0.154,1)}13.57%,13.89%{transform:scale(0.192,1)}13.91%,16.6%{transform:scale(0.231,1)}16.62%,16.94%{transform:scale(0.269,1)}16.96%,23.04%{transform:scale(0.308,1)}23.06%,24.4%{transform:scale(0.346,1)}24.42%,26.09%{transform:scale(0.385,1)}26.11%,26.43%{transform:scale(0.423,1)}26.45%,26.77%{transform:scale(0.462,1)}26.79%,28.13%{transform:scale(0.500,1)}28.15%,28.46%{transform:scale(0.538,1)}28.48%,32.19%{transform:scale(0.577,1)}32.21%,32.53%{transform:scale(0.615,1)}32.55%,32.87%{transform:scale(0.654,1)}32.89%,33.21%{transform:scale(0.692,1)}33.23%,33.55%{transform:scale(0.731,1)}33.57%,33.89%{transform:scale(0.769,1)}33.91%,34.23%{transform:scale(0.808,1)}34.25%,35.58%{transform:scale(0.846,1)}35.6%,38.97%{transform:scale(0.885,1)}38.99%,41.35%{transform:scale(0.923,1)}41.37%,41.68%{transform:scale(0.962,1)}41.7%,100%{transform:scale(1.000,1)}}.u.u0{fill:var(--c1);animation-name:u0;transform-origin:0.0px 0}@keyframes u1{42.02%{transform:scale(0.000,1)}42.04%,100%{transform:scale(1.000,1)}}.u.u1{fill:var(--c2);animation-name:u1;transform-origin:350.0px 0}@keyframes u2{47.45%{transform:scale(0.000,1)}47.47%,100%{transform:scale(1.000,1)}}.u.u2{fill:var(--c1);animation-name:u2;transform-origin:363.4px 0}@keyframes u3{47.79%{transform:scale(0.000,1)}47.81%,50.5%{transform:scale(0.500,1)}50.52%,100%{transform:scale(1.000,1)}}.u.u3{fill:var(--c2);animation-name:u3;transform-origin:376.9px 0}@keyframes u4{50.84%{transform:scale(0.000,1)}50.86%,100%{transform:scale(1.000,1)}}.u.u4{fill:var(--c1);animation-name:u4;transform-origin:403.8px 0}@keyframes u5{51.18%{transform:scale(0.000,1)}51.2%,51.52%{transform:scale(0.043,1)}51.54%,52.19%{transform:scale(0.087,1)}52.21%,53.89%{transform:scale(0.130,1)}53.91%,54.23%{transform:scale(0.174,1)}54.25%,54.57%{transform:scale(0.217,1)}54.59%,54.91%{transform:scale(0.261,1)}54.93%,55.92%{transform:scale(0.304,1)}55.94%,56.26%{transform:scale(0.348,1)}56.28%,56.6%{transform:scale(0.391,1)}56.62%,57.96%{transform:scale(0.435,1)}57.98%,58.3%{transform:scale(0.478,1)}58.32%,60.33%{transform:scale(0.522,1)}60.35%,61.35%{transform:scale(0.565,1)}61.37%,62.7%{transform:scale(0.609,1)}62.72%,63.04%{transform:scale(0.652,1)}63.06%,63.72%{transform:scale(0.696,1)}63.74%,64.06%{transform:scale(0.739,1)}64.08%,64.4%{transform:scale(0.783,1)}64.42%,65.07%{transform:scale(0.826,1)}65.09%,67.79%{transform:scale(0.870,1)}67.81%,70.16%{transform:scale(0.913,1)}70.18%,70.5%{transform:scale(0.957,1)}70.52%,100%{transform:scale(1.000,1)}}.u.u5{fill:var(--c2);animation-name:u5;transform-origin:417.3px 0}@keyframes u6{72.87%{transform:scale(0.000,1)}72.89%,75.92%{transform:scale(0.200,1)}75.94%,76.26%{transform:scale(0.400,1)}76.28%,76.6%{transform:scale(0.600,1)}76.62%,77.96%{transform:scale(0.800,1)}77.98%,100%{transform:scale(1.000,1)}}.u.u6{fill:var(--c3);animation-name:u6;transform-origin:726.9px 0}@keyframes u7{79.65%{transform:scale(0.000,1)}79.67%,80.33%{transform:scale(0.250,1)}80.35%,81.68%{transform:scale(0.500,1)}81.7%,85.41%{transform:scale(0.750,1)}85.43%,100%{transform:scale(1.000,1)}}.u.u7{fill:var(--c4);animation-name:u7;transform-origin:794.2px 0}.s{shape-rendering:geometricPrecision;fill:var(--cs);animation:none linear 29500ms infinite}@keyframes s0{0%,99.66%{transform:translate(0px,-16px)}0.34%{transform:translate(0px,0px)}10.51%{transform:translate(480px,0px)}10.85%{transform:translate(480px,16px)}11.19%{transform:translate(496px,16px)}11.53%{transform:translate(496px,32px)}11.86%{transform:translate(480px,32px)}12.2%{transform:translate(480px,48px)}13.56%{transform:translate(544px,48px)}13.9%{transform:translate(544px,64px)}16.27%{transform:translate(432px,64px)}16.61%{transform:translate(432px,80px)}16.95%{transform:translate(416px,80px)}17.29%{transform:translate(416px,64px)}21.69%{transform:translate(624px,64px)}23.05%{transform:translate(624px,0px)}24.07%{transform:translate(672px,0px)}24.41%{transform:translate(672px,16px)}26.1%,48.47%,57.29%{transform:translate(752px,16px)}26.44%,49.49%{transform:translate(752px,32px)}27.12%,46.1%,61.02%{transform:translate(720px,32px)}28.14%{transform:translate(720px,80px)}28.47%{transform:translate(704px,80px)}28.81%{transform:translate(704px,64px)}29.49%,74.92%{transform:translate(736px,64px)}30.51%{transform:translate(736px,112px)}31.86%{transform:translate(800px,112px)}32.2%{transform:translate(800px,96px)}32.88%,39.66%{transform:translate(832px,96px)}34.24%,37.63%,41.02%,53.22%{transform:translate(832px,32px)}34.58%,37.29%{transform:translate(848px,32px)}35.25%{transform:translate(848px,0px)}35.59%{transform:translate(832px,0px)}35.93%,42.71%{transform:translate(832px,-16px)}36.27%{transform:translate(848px,-16px)}38.64%{transform:translate(832px,80px)}38.98%,51.86%{transform:translate(816px,80px)}39.32%{transform:translate(816px,96px)}41.36%{transform:translate(816px,32px)}41.69%,55.25%,78.98%{transform:translate(816px,16px)}42.03%{transform:translate(832px,16px)}44.41%{transform:translate(752px,-16px)}44.75%,56.95%{transform:translate(752px,0px)}45.08%{transform:translate(736px,0px)}45.76%,49.15%{transform:translate(736px,32px)}46.78%{transform:translate(720px,64px)}47.46%,50.17%,81.36%{transform:translate(752px,64px)}48.81%,59.66%{transform:translate(736px,16px)}50.85%{transform:translate(784px,64px)}51.19%,64.75%{transform:translate(784px,80px)}52.2%{transform:translate(816px,64px)}52.54%{transform:translate(832px,64px)}53.9%{transform:translate(800px,32px)}54.58%,77.63%{transform:translate(800px,0px)}54.92%{transform:translate(816px,0px)}56.27%,57.63%{transform:translate(768px,16px)}56.61%{transform:translate(768px,0px)}57.97%{transform:translate(768px,32px)}58.31%{transform:translate(784px,32px)}58.64%,78.31%{transform:translate(784px,16px)}60.34%,82.71%{transform:translate(736px,48px)}60.68%{transform:translate(720px,48px)}61.36%{transform:translate(704px,32px)}62.71%{transform:translate(704px,96px)}64.41%{transform:translate(784px,96px)}65.08%{transform:translate(768px,80px)}65.42%{transform:translate(768px,96px)}68.14%{transform:translate(640px,96px)}69.49%{transform:translate(640px,32px)}70.51%{transform:translate(592px,32px)}71.19%{transform:translate(592px,64px)}72.54%{transform:translate(656px,64px)}72.88%{transform:translate(656px,80px)}74.58%,82.03%{transform:translate(736px,80px)}75.59%{transform:translate(768px,64px)}75.93%{transform:translate(768px,48px)}76.61%,80%{transform:translate(800px,48px)}77.97%{transform:translate(784px,0px)}79.66%{transform:translate(816px,48px)}80.34%{transform:translate(800px,64px)}81.69%{transform:translate(752px,80px)}96.61%{transform:translate(80px,48px)}97.63%{transform:translate(80px,0px)}97.97%{transform:translate(64px,0px)}98.31%{transform:translate(64px,-16px)}}.s.s0{transform:translate(0px,-16px);animation-name:s0}@keyframes s1{0%,99.66%{transform:translate(16px,-16px)}0.34%{transform:translate(0px,-16px)}0.68%{transform:translate(0px,0px)}10.85%{transform:translate(480px,0px)}11.19%{transform:translate(480px,16px)}11.53%{transform:translate(496px,16px)}11.86%{transform:translate(496px,32px)}12.2%{transform:translate(480px,32px)}12.54%{transform:translate(480px,48px)}13.9%{transform:translate(544px,48px)}14.24%{transform:translate(544px,64px)}16.61%{transform:translate(432px,64px)}16.95%{transform:translate(432px,80px)}17.29%{transform:translate(416px,80px)}17.63%{transform:translate(416px,64px)}22.03%{transform:translate(624px,64px)}23.39%{transform:translate(624px,0px)}24.41%{transform:translate(672px,0px)}24.75%{transform:translate(672px,16px)}26.44%,48.81%,57.63%{transform:translate(752px,16px)}26.78%,49.83%{transform:translate(752px,32px)}27.46%,46.44%,61.36%{transform:translate(720px,32px)}28.47%{transform:translate(720px,80px)}28.81%{transform:translate(704px,80px)}29.15%{transform:translate(704px,64px)}29.83%,75.25%{transform:translate(736px,64px)}30.85%{transform:translate(736px,112px)}32.2%{transform:translate(800px,112px)}32.54%{transform:translate(800px,96px)}33.22%,40%{transform:translate(832px,96px)}34.58%,37.97%,41.36%,53.56%{transform:translate(832px,32px)}34.92%,37.63%{transform:translate(848px,32px)}35.59%{transform:translate(848px,0px)}35.93%{transform:translate(832px,0px)}36.27%,43.05%{transform:translate(832px,-16px)}36.61%{transform:translate(848px,-16px)}38.98%{transform:translate(832px,80px)}39.32%,52.2%{transform:translate(816px,80px)}39.66%{transform:translate(816px,96px)}41.69%{transform:translate(816px,32px)}42.03%,55.59%,79.32%{transform:translate(816px,16px)}42.37%{transform:translate(832px,16px)}44.75%{transform:translate(752px,-16px)}45.08%,57.29%{transform:translate(752px,0px)}45.42%{transform:translate(736px,0px)}46.1%,49.49%{transform:translate(736px,32px)}47.12%{transform:translate(720px,64px)}47.8%,50.51%,81.69%{transform:translate(752px,64px)}49.15%,60%{transform:translate(736px,16px)}51.19%{transform:translate(784px,64px)}51.53%,65.08%{transform:translate(784px,80px)}52.54%{transform:translate(816px,64px)}52.88%{transform:translate(832px,64px)}54.24%{transform:translate(800px,32px)}54.92%,77.97%{transform:translate(800px,0px)}55.25%{transform:translate(816px,0px)}56.61%,57.97%{transform:translate(768px,16px)}56.95%{transform:translate(768px,0px)}58.31%{transform:translate(768px,32px)}58.64%{transform:translate(784px,32px)}58.98%,78.64%{transform:translate(784px,16px)}60.68%,83.05%{transform:translate(736px,48px)}61.02%{transform:translate(720px,48px)}61.69%{transform:translate(704px,32px)}63.05%{transform:translate(704px,96px)}64.75%{transform:translate(784px,96px)}65.42%{transform:translate(768px,80px)}65.76%{transform:translate(768px,96px)}68.47%{transform:translate(640px,96px)}69.83%{transform:translate(640px,32px)}70.85%{transform:translate(592px,32px)}71.53%{transform:translate(592px,64px)}72.88%{transform:translate(656px,64px)}73.22%{transform:translate(656px,80px)}74.92%,82.37%{transform:translate(736px,80px)}75.93%{transform:translate(768px,64px)}76.27%{transform:translate(768px,48px)}76.95%,80.34%{transform:translate(800px,48px)}78.31%{transform:translate(784px,0px)}80%{transform:translate(816px,48px)}80.68%{transform:translate(800px,64px)}82.03%{transform:translate(752px,80px)}96.95%{transform:translate(80px,48px)}97.97%{transform:translate(80px,0px)}98.31%{transform:translate(64px,0px)}98.64%{transform:translate(64px,-16px)}}.s.s1{transform:translate(16px,-16px);animation-name:s1}@keyframes s2{0%,99.66%{transform:translate(32px,-16px)}0.68%{transform:translate(0px,-16px)}1.02%{transform:translate(0px,0px)}11.19%{transform:translate(480px,0px)}11.53%{transform:translate(480px,16px)}11.86%{transform:translate(496px,16px)}12.2%{transform:translate(496px,32px)}12.54%{transform:translate(480px,32px)}12.88%{transform:translate(480px,48px)}14.24%{transform:translate(544px,48px)}14.58%{transform:translate(544px,64px)}16.95%{transform:translate(432px,64px)}17.29%{transform:translate(432px,80px)}17.63%{transform:translate(416px,80px)}17.97%{transform:translate(416px,64px)}22.37%{transform:translate(624px,64px)}23.73%{transform:translate(624px,0px)}24.75%{transform:translate(672px,0px)}25.08%{transform:translate(672px,16px)}26.78%,49.15%,57.97%{transform:translate(752px,16px)}27.12%,50.17%{transform:translate(752px,32px)}27.8%,46.78%,61.69%{transform:translate(720px,32px)}28.81%{transform:translate(720px,80px)}29.15%{transform:translate(704px,80px)}29.49%{transform:translate(704px,64px)}30.17%,75.59%{transform:translate(736px,64px)}31.19%{transform:translate(736px,112px)}32.54%{transform:translate(800px,112px)}32.88%{transform:translate(800px,96px)}33.56%,40.34%{transform:translate(832px,96px)}34.92%,38.31%,41.69%,53.9%{transform:translate(832px,32px)}35.25%,37.97%{transform:translate(848px,32px)}35.93%{transform:translate(848px,0px)}36.27%{transform:translate(832px,0px)}36.61%,43.39%{transform:translate(832px,-16px)}36.95%{transform:translate(848px,-16px)}39.32%{transform:translate(832px,80px)}39.66%,52.54%{transform:translate(816px,80px)}40%{transform:translate(816px,96px)}42.03%{transform:translate(816px,32px)}42.37%,55.93%,79.66%{transform:translate(816px,16px)}42.71%{transform:translate(832px,16px)}45.08%{transform:translate(752px,-16px)}45.42%,57.63%{transform:translate(752px,0px)}45.76%{transform:translate(736px,0px)}46.44%,49.83%{transform:translate(736px,32px)}47.46%{transform:translate(720px,64px)}48.14%,50.85%,82.03%{transform:translate(752px,64px)}49.49%,60.34%{transform:translate(736px,16px)}51.53%{transform:translate(784px,64px)}51.86%,65.42%{transform:translate(784px,80px)}52.88%{transform:translate(816px,64px)}53.22%{transform:translate(832px,64px)}54.58%{transform:translate(800px,32px)}55.25%,78.31%{transform:translate(800px,0px)}55.59%{transform:translate(816px,0px)}56.95%,58.31%{transform:translate(768px,16px)}57.29%{transform:translate(768px,0px)}58.64%{transform:translate(768px,32px)}58.98%{transform:translate(784px,32px)}59.32%,78.98%{transform:translate(784px,16px)}61.02%,83.39%{transform:translate(736px,48px)}61.36%{transform:translate(720px,48px)}62.03%{transform:translate(704px,32px)}63.39%{transform:translate(704px,96px)}65.08%{transform:translate(784px,96px)}65.76%{transform:translate(768px,80px)}66.1%{transform:translate(768px,96px)}68.81%{transform:translate(640px,96px)}70.17%{transform:translate(640px,32px)}71.19%{transform:translate(592px,32px)}71.86%{transform:translate(592px,64px)}73.22%{transform:translate(656px,64px)}73.56%{transform:translate(656px,80px)}75.25%,82.71%{transform:translate(736px,80px)}76.27%{transform:translate(768px,64px)}76.61%{transform:translate(768px,48px)}77.29%,80.68%{transform:translate(800px,48px)}78.64%{transform:translate(784px,0px)}80.34%{transform:translate(816px,48px)}81.02%{transform:translate(800px,64px)}82.37%{transform:translate(752px,80px)}97.29%{transform:translate(80px,48px)}98.31%{transform:translate(80px,0px)}98.64%{transform:translate(64px,0px)}98.98%{transform:translate(64px,-16px)}}.s.s2{transform:translate(32px,-16px);animation-name:s2}@keyframes s3{0%,99.66%{transform:translate(48px,-16px)}1.02%{transform:translate(0px,-16px)}1.36%{transform:translate(0px,0px)}11.53%{transform:translate(480px,0px)}11.86%{transform:translate(480px,16px)}12.2%{transform:translate(496px,16px)}12.54%{transform:translate(496px,32px)}12.88%{transform:translate(480px,32px)}13.22%{transform:translate(480px,48px)}14.58%{transform:translate(544px,48px)}14.92%{transform:translate(544px,64px)}17.29%{transform:translate(432px,64px)}17.63%{transform:translate(432px,80px)}17.97%{transform:translate(416px,80px)}18.31%{transform:translate(416px,64px)}22.71%{transform:translate(624px,64px)}24.07%{transform:translate(624px,0px)}25.08%{transform:translate(672px,0px)}25.42%{transform:translate(672px,16px)}27.12%,49.49%,58.31%{transform:translate(752px,16px)}27.46%,50.51%{transform:translate(752px,32px)}28.14%,47.12%,62.03%{transform:translate(720px,32px)}29.15%{transform:translate(720px,80px)}29.49%{transform:translate(704px,80px)}29.83%{transform:translate(704px,64px)}30.51%,75.93%{transform:translate(736px,64px)}31.53%{transform:translate(736px,112px)}32.88%{transform:translate(800px,112px)}33.22%{transform:translate(800px,96px)}33.9%,40.68%{transform:translate(832px,96px)}35.25%,38.64%,42.03%,54.24%{transform:translate(832px,32px)}35.59%,38.31%{transform:translate(848px,32px)}36.27%{transform:translate(848px,0px)}36.61%{transform:translate(832px,0px)}36.95%,43.73%{transform:translate(832px,-16px)}37.29%{transform:translate(848px,-16px)}39.66%{transform:translate(832px,80px)}40%,52.88%{transform:translate(816px,80px)}40.34%{transform:translate(816px,96px)}42.37%{transform:translate(816px,32px)}42.71%,56.27%,80%{transform:translate(816px,16px)}43.05%{transform:translate(832px,16px)}45.42%{transform:translate(752px,-16px)}45.76%,57.97%{transform:translate(752px,0px)}46.1%{transform:translate(736px,0px)}46.78%,50.17%{transform:translate(736px,32px)}47.8%{transform:translate(720px,64px)}48.47%,51.19%,82.37%{transform:translate(752px,64px)}49.83%,60.68%{transform:translate(736px,16px)}51.86%{transform:translate(784px,64px)}52.2%,65.76%{transform:translate(784px,80px)}53.22%{transform:translate(816px,64px)}53.56%{transform:translate(832px,64px)}54.92%{transform:translate(800px,32px)}55.59%,78.64%{transform:translate(800px,0px)}55.93%{transform:translate(816px,0px)}57.29%,58.64%{transform:translate(768px,16px)}57.63%{transform:translate(768px,0px)}58.98%{transform:translate(768px,32px)}59.32%{transform:translate(784px,32px)}59.66%,79.32%{transform:translate(784px,16px)}61.36%,83.73%{transform:translate(736px,48px)}61.69%{transform:translate(720px,48px)}62.37%{transform:translate(704px,32px)}63.73%{transform:translate(704px,96px)}65.42%{transform:translate(784px,96px)}66.1%{transform:translate(768px,80px)}66.44%{transform:translate(768px,96px)}69.15%{transform:translate(640px,96px)}70.51%{transform:translate(640px,32px)}71.53%{transform:translate(592px,32px)}72.2%{transform:translate(592px,64px)}73.56%{transform:translate(656px,64px)}73.9%{transform:translate(656px,80px)}75.59%,83.05%{transform:translate(736px,80px)}76.61%{transform:translate(768px,64px)}76.95%{transform:translate(768px,48px)}77.63%,81.02%{transform:translate(800px,48px)}78.98%{transform:translate(784px,0px)}80.68%{transform:translate(816px,48px)}81.36%{transform:translate(800px,64px)}82.71%{transform:translate(752px,80px)}97.63%{transform:translate(80px,48px)}98.64%{transform:translate(80px,0px)}98.98%{transform:translate(64px,0px)}99.32%{transform:translate(64px,-16px)}}.s.s3{transform:translate(48px,-16px);animation-name:s3}</style><rect class="c" x="2" y="2" rx="2" ry="2"/><rect class="c" x="2" y="18" rx="2" ry="2"/><rect class="c" x="2" y="34" rx="2" ry="2"/><rect class="c" x="2" y="50" rx="2" ry="2"/><rect class="c" x="2" y="66" rx="2" ry="2"/><rect class="c" x="2" y="82" rx="2" ry="2"/><rect class="c" x="2" y="98" rx="2" ry="2"/><rect class="c" x="18" y="2" rx="2" ry="2"/><rect class="c" x="18" y="18" rx="2" ry="2"/><rect class="c" x="18" y="34" rx="2" ry="2"/><rect class="c" x="18" y="50" rx="2" ry="2"/><rect class="c" x="18" y="66" rx="2" ry="2"/><rect class="c" x="18" y="82" rx="2" ry="2"/><rect class="c" x="18" y="98" rx="2" ry="2"/><rect class="c" x="34" y="2" rx="2" ry="2"/><rect class="c" x="34" y="18" rx="2" ry="2"/><rect class="c" x="34" y="34" rx="2" ry="2"/><rect class="c" x="34" y="50" rx="2" ry="2"/><rect class="c" x="34" y="66" rx="2" ry="2"/><rect class="c" x="34" y="82" rx="2" ry="2"/><rect class="c" x="34" y="98" rx="2" ry="2"/><rect class="c" x="50" y="2" rx="2" ry="2"/><rect class="c" x="50" y="18" rx="2" ry="2"/><rect class="c" x="50" y="34" rx="2" ry="2"/><rect class="c" x="50" y="50" rx="2" ry="2"/><rect class="c" x="50" y="66" rx="2" ry="2"/><rect class="c" x="50" y="82" rx="2" ry="2"/><rect class="c" x="50" y="98" rx="2" ry="2"/><rect class="c" x="66" y="2" rx="2" ry="2"/><rect class="c" x="66" y="18" rx="2" ry="2"/><rect class="c" x="66" y="34" rx="2" ry="2"/><rect class="c" x="66" y="50" rx="2" ry="2"/><rect class="c" x="66" y="66" rx="2" ry="2"/><rect class="c" x="66" y="82" rx="2" ry="2"/><rect class="c" x="66" y="98" rx="2" ry="2"/><rect class="c" x="82" y="2" rx="2" ry="2"/><rect class="c" x="82" y="18" rx="2" ry="2"/><rect class="c" x="82" y="34" rx="2" ry="2"/><rect class="c" x="82" y="50" rx="2" ry="2"/><rect class="c" x="82" y="66" rx="2" ry="2"/><rect class="c" x="82" y="82" rx="2" ry="2"/><rect class="c" x="82" y="98" rx="2" ry="2"/><rect class="c" x="98" y="2" rx="2" ry="2"/><rect class="c" x="98" y="18" rx="2" ry="2"/><rect class="c" x="98" y="34" rx="2" ry="2"/><rect class="c" x="98" y="50" rx="2" ry="2"/><rect class="c" x="98" y="66" rx="2" ry="2"/><rect class="c" x="98" y="82" rx="2" ry="2"/><rect class="c" x="98" y="98" rx="2" ry="2"/><rect class="c" x="114" y="2" rx="2" ry="2"/><rect class="c" x="114" y="18" rx="2" ry="2"/><rect class="c" x="114" y="34" rx="2" ry="2"/><rect class="c" x="114" y="50" rx="2" ry="2"/><rect class="c" x="114" y="66" rx="2" ry="2"/><rect class="c" x="114" y="82" rx="2" ry="2"/><rect class="c" x="114" y="98" rx="2" ry="2"/><rect class="c" x="130" y="2" rx="2" ry="2"/><rect class="c" x="130" y="18" rx="2" ry="2"/><rect class="c" x="130" y="34" rx="2" ry="2"/><rect class="c" x="130" y="50" rx="2" ry="2"/><rect class="c" x="130" y="66" rx="2" ry="2"/><rect class="c" x="130" y="82" rx="2" ry="2"/><rect class="c" x="130" y="98" rx="2" ry="2"/><rect class="c" x="146" y="2" rx="2" ry="2"/><rect class="c" x="146" y="18" rx="2" ry="2"/><rect class="c" x="146" y="34" rx="2" ry="2"/><rect class="c" x="146" y="50" rx="2" ry="2"/><rect class="c" x="146" y="66" rx="2" ry="2"/><rect class="c" x="146" y="82" rx="2" ry="2"/><rect class="c" x="146" y="98" rx="2" ry="2"/><rect class="c" x="162" y="2" rx="2" ry="2"/><rect class="c" x="162" y="18" rx="2" ry="2"/><rect class="c" x="162" y="34" rx="2" ry="2"/><rect class="c" x="162" y="50" rx="2" ry="2"/><rect class="c" x="162" y="66" rx="2" ry="2"/><rect class="c" x="162" y="82" rx="2" ry="2"/><rect class="c" x="162" y="98" rx="2" ry="2"/><rect class="c" x="178" y="2" rx="2" ry="2"/><rect class="c" x="178" y="18" rx="2" ry="2"/><rect class="c" x="178" y="34" rx="2" ry="2"/><rect class="c" x="178" y="50" rx="2" ry="2"/><rect class="c" x="178" y="66" rx="2" ry="2"/><rect class="c" x="178" y="82" rx="2" ry="2"/><rect class="c" x="178" y="98" rx="2" ry="2"/><rect class="c" x="194" y="2" rx="2" ry="2"/><rect class="c" x="194" y="18" rx="2" ry="2"/><rect class="c" x="194" y="34" rx="2" ry="2"/><rect class="c" x="194" y="50" rx="2" ry="2"/><rect class="c" x="194" y="66" rx="2" ry="2"/><rect class="c" x="194" y="82" rx="2" ry="2"/><rect class="c" x="194" y="98" rx="2" ry="2"/><rect class="c" x="210" y="2" rx="2" ry="2"/><rect class="c" x="210" y="18" rx="2" ry="2"/><rect class="c" x="210" y="34" rx="2" ry="2"/><rect class="c" x="210" y="50" rx="2" ry="2"/><rect class="c" x="210" y="66" rx="2" ry="2"/><rect class="c" x="210" y="82" rx="2" ry="2"/><rect class="c" x="210" y="98" rx="2" ry="2"/><rect class="c" x="226" y="2" rx="2" ry="2"/><rect class="c" x="226" y="18" rx="2" ry="2"/><rect class="c" x="226" y="34" rx="2" ry="2"/><rect class="c" x="226" y="50" rx="2" ry="2"/><rect class="c" x="226" y="66" rx="2" ry="2"/><rect class="c" x="226" y="82" rx="2" ry="2"/><rect class="c" x="226" y="98" rx="2" ry="2"/><rect class="c" x="242" y="2" rx="2" ry="2"/><rect class="c" x="242" y="18" rx="2" ry="2"/><rect class="c" x="242" y="34" rx="2" ry="2"/><rect class="c" x="242" y="50" rx="2" ry="2"/><rect class="c" x="242" y="66" rx="2" ry="2"/><rect class="c" x="242" y="82" rx="2" ry="2"/><rect class="c" x="242" y="98" rx="2" ry="2"/><rect class="c" x="258" y="2" rx="2" ry="2"/><rect class="c" x="258" y="18" rx="2" ry="2"/><rect class="c" x="258" y="34" rx="2" ry="2"/><rect class="c" x="258" y="50" rx="2" ry="2"/><rect class="c" x="258" y="66" rx="2" ry="2"/><rect class="c" x="258" y="82" rx="2" ry="2"/><rect class="c" x="258" y="98" rx="2" ry="2"/><rect class="c" x="274" y="2" rx="2" ry="2"/><rect class="c" x="274" y="18" rx="2" ry="2"/><rect class="c" x="274" y="34" rx="2" ry="2"/><rect class="c" x="274" y="50" rx="2" ry="2"/><rect class="c" x="274" y="66" rx="2" ry="2"/><rect class="c" x="274" y="82" rx="2" ry="2"/><rect class="c" x="274" y="98" rx="2" ry="2"/><rect class="c" x="290" y="2" rx="2" ry="2"/><rect class="c" x="290" y="18" rx="2" ry="2"/><rect class="c" x="290" y="34" rx="2" ry="2"/><rect class="c" x="290" y="50" rx="2" ry="2"/><rect class="c" x="290" y="66" rx="2" ry="2"/><rect class="c" x="290" y="82" rx="2" ry="2"/><rect class="c" x="290" y="98" rx="2" ry="2"/><rect class="c" x="306" y="2" rx="2" ry="2"/><rect class="c" x="306" y="18" rx="2" ry="2"/><rect class="c" x="306" y="34" rx="2" ry="2"/><rect class="c" x="306" y="50" rx="2" ry="2"/><rect class="c" x="306" y="66" rx="2" ry="2"/><rect class="c" x="306" y="82" rx="2" ry="2"/><rect class="c" x="306" y="98" rx="2" ry="2"/><rect class="c" x="322" y="2" rx="2" ry="2"/><rect class="c" x="322" y="18" rx="2" ry="2"/><rect class="c" x="322" y="34" rx="2" ry="2"/><rect class="c" x="322" y="50" rx="2" ry="2"/><rect class="c" x="322" y="66" rx="2" ry="2"/><rect class="c" x="322" y="82" rx="2" ry="2"/><rect class="c" x="322" y="98" rx="2" ry="2"/><rect class="c" x="338" y="2" rx="2" ry="2"/><rect class="c" x="338" y="18" rx="2" ry="2"/><rect class="c" x="338" y="34" rx="2" ry="2"/><rect class="c" x="338" y="50" rx="2" ry="2"/><rect class="c" x="338" y="66" rx="2" ry="2"/><rect class="c" x="338" y="82" rx="2" ry="2"/><rect class="c" x="338" y="98" rx="2" ry="2"/><rect class="c" x="354" y="2" rx="2" ry="2"/><rect class="c" x="354" y="18" rx="2" ry="2"/><rect class="c" x="354" y="34" rx="2" ry="2"/><rect class="c" x="354" y="50" rx="2" ry="2"/><rect class="c" x="354" y="66" rx="2" ry="2"/><rect class="c" x="354" y="82" rx="2" ry="2"/><rect class="c" x="354" y="98" rx="2" ry="2"/><rect class="c" x="370" y="2" rx="2" ry="2"/><rect class="c" x="370" y="18" rx="2" ry="2"/><rect class="c" x="370" y="34" rx="2" ry="2"/><rect class="c" x="370" y="50" rx="2" ry="2"/><rect class="c" x="370" y="66" rx="2" ry="2"/><rect class="c" x="370" y="82" rx="2" ry="2"/><rect class="c" x="370" y="98" rx="2" ry="2"/><rect class="c" x="386" y="2" rx="2" ry="2"/><rect class="c" x="386" y="18" rx="2" ry="2"/><rect class="c" x="386" y="34" rx="2" ry="2"/><rect class="c" x="386" y="50" rx="2" ry="2"/><rect class="c" x="386" y="66" rx="2" ry="2"/><rect class="c" x="386" y="82" rx="2" ry="2"/><rect class="c" x="386" y="98" rx="2" ry="2"/><rect class="c" x="402" y="2" rx="2" ry="2"/><rect class="c" x="402" y="18" rx="2" ry="2"/><rect class="c" x="402" y="34" rx="2" ry="2"/><rect class="c" x="402" y="50" rx="2" ry="2"/><rect class="c" x="402" y="66" rx="2" ry="2"/><rect class="c" x="402" y="82" rx="2" ry="2"/><rect class="c" x="402" y="98" rx="2" ry="2"/><rect class="c" x="418" y="2" rx="2" ry="2"/><rect class="c" x="418" y="18" rx="2" ry="2"/><rect class="c" x="418" y="34" rx="2" ry="2"/><rect class="c" x="418" y="50" rx="2" ry="2"/><rect class="c" x="418" y="66" rx="2" ry="2"/><rect class="c c0" x="418" y="82" rx="2" ry="2"/><rect class="c" x="418" y="98" rx="2" ry="2"/><rect class="c" x="434" y="2" rx="2" ry="2"/><rect class="c" x="434" y="18" rx="2" ry="2"/><rect class="c" x="434" y="34" rx="2" ry="2"/><rect class="c" x="434" y="50" rx="2" ry="2"/><rect class="c" x="434" y="66" rx="2" ry="2"/><rect class="c c1" x="434" y="82" rx="2" ry="2"/><rect class="c" x="434" y="98" rx="2" ry="2"/><rect class="c" x="450" y="2" rx="2" ry="2"/><rect class="c" x="450" y="18" rx="2" ry="2"/><rect class="c" x="450" y="34" rx="2" ry="2"/><rect class="c" x="450" y="50" rx="2" ry="2"/><rect class="c" x="450" y="66" rx="2" ry="2"/><rect class="c" x="450" y="82" rx="2" ry="2"/><rect class="c" x="450" y="98" rx="2" ry="2"/><rect class="c" x="466" y="2" rx="2" ry="2"/><rect class="c" x="466" y="18" rx="2" ry="2"/><rect class="c" x="466" y="34" rx="2" ry="2"/><rect class="c" x="466" y="50" rx="2" ry="2"/><rect class="c" x="466" y="66" rx="2" ry="2"/><rect class="c" x="466" y="82" rx="2" ry="2"/><rect class="c" x="466" y="98" rx="2" ry="2"/><rect class="c" x="482" y="2" rx="2" ry="2"/><rect class="c c2" x="482" y="18" rx="2" ry="2"/><rect class="c c3" x="482" y="34" rx="2" ry="2"/><rect class="c" x="482" y="50" rx="2" ry="2"/><rect class="c" x="482" y="66" rx="2" ry="2"/><rect class="c" x="482" y="82" rx="2" ry="2"/><rect class="c" x="482" y="98" rx="2" ry="2"/><rect class="c" x="498" y="2" rx="2" ry="2"/><rect class="c c4" x="498" y="18" rx="2" ry="2"/><rect class="c c5" x="498" y="34" rx="2" ry="2"/><rect class="c" x="498" y="50" rx="2" ry="2"/><rect class="c" x="498" y="66" rx="2" ry="2"/><rect class="c" x="498" y="82" rx="2" ry="2"/><rect class="c" x="498" y="98" rx="2" ry="2"/><rect class="c" x="514" y="2" rx="2" ry="2"/><rect class="c" x="514" y="18" rx="2" ry="2"/><rect class="c" x="514" y="34" rx="2" ry="2"/><rect class="c" x="514" y="50" rx="2" ry="2"/><rect class="c" x="514" y="66" rx="2" ry="2"/><rect class="c" x="514" y="82" rx="2" ry="2"/><rect class="c" x="514" y="98" rx="2" ry="2"/><rect class="c" x="530" y="2" rx="2" ry="2"/><rect class="c" x="530" y="18" rx="2" ry="2"/><rect class="c" x="530" y="34" rx="2" ry="2"/><rect class="c" x="530" y="50" rx="2" ry="2"/><rect class="c" x="530" y="66" rx="2" ry="2"/><rect class="c" x="530" y="82" rx="2" ry="2"/><rect class="c" x="530" y="98" rx="2" ry="2"/><rect class="c" x="546" y="2" rx="2" ry="2"/><rect class="c" x="546" y="18" rx="2" ry="2"/><rect class="c" x="546" y="34" rx="2" ry="2"/><rect class="c c6" x="546" y="50" rx="2" ry="2"/><rect class="c c7" x="546" y="66" rx="2" ry="2"/><rect class="c" x="546" y="82" rx="2" ry="2"/><rect class="c" x="546" y="98" rx="2" ry="2"/><rect class="c" x="562" y="2" rx="2" ry="2"/><rect class="c" x="562" y="18" rx="2" ry="2"/><rect class="c" x="562" y="34" rx="2" ry="2"/><rect class="c" x="562" y="50" rx="2" ry="2"/><rect class="c" x="562" y="66" rx="2" ry="2"/><rect class="c" x="562" y="82" rx="2" ry="2"/><rect class="c" x="562" y="98" rx="2" ry="2"/><rect class="c" x="578" y="2" rx="2" ry="2"/><rect class="c" x="578" y="18" rx="2" ry="2"/><rect class="c" x="578" y="34" rx="2" ry="2"/><rect class="c" x="578" y="50" rx="2" ry="2"/><rect class="c" x="578" y="66" rx="2" ry="2"/><rect class="c" x="578" y="82" rx="2" ry="2"/><rect class="c" x="578" y="98" rx="2" ry="2"/><rect class="c" x="594" y="2" rx="2" ry="2"/><rect class="c" x="594" y="18" rx="2" ry="2"/><rect class="c c8" x="594" y="34" rx="2" ry="2"/><rect class="c" x="594" y="50" rx="2" ry="2"/><rect class="c" x="594" y="66" rx="2" ry="2"/><rect class="c" x="594" y="82" rx="2" ry="2"/><rect class="c" x="594" y="98" rx="2" ry="2"/><rect class="c" x="610" y="2" rx="2" ry="2"/><rect class="c" x="610" y="18" rx="2" ry="2"/><rect class="c c9" x="610" y="34" rx="2" ry="2"/><rect class="c ca" x="610" y="50" rx="2" ry="2"/><rect class="c" x="610" y="66" rx="2" ry="2"/><rect class="c" x="610" y="82" rx="2" ry="2"/><rect class="c" x="610" y="98" rx="2" ry="2"/><rect class="c cb" x="626" y="2" rx="2" ry="2"/><rect class="c" x="626" y="18" rx="2" ry="2"/><rect class="c" x="626" y="34" rx="2" ry="2"/><rect class="c" x="626" y="50" rx="2" ry="2"/><rect class="c" x="626" y="66" rx="2" ry="2"/><rect class="c" x="626" y="82" rx="2" ry="2"/><rect class="c" x="626" y="98" rx="2" ry="2"/><rect class="c" x="642" y="2" rx="2" ry="2"/><rect class="c" x="642" y="18" rx="2" ry="2"/><rect class="c" x="642" y="34" rx="2" ry="2"/><rect class="c" x="642" y="50" rx="2" ry="2"/><rect class="c" x="642" y="66" rx="2" ry="2"/><rect class="c" x="642" y="82" rx="2" ry="2"/><rect class="c" x="642" y="98" rx="2" ry="2"/><rect class="c" x="658" y="2" rx="2" ry="2"/><rect class="c" x="658" y="18" rx="2" ry="2"/><rect class="c" x="658" y="34" rx="2" ry="2"/><rect class="c" x="658" y="50" rx="2" ry="2"/><rect class="c" x="658" y="66" rx="2" ry="2"/><rect class="c cc" x="658" y="82" rx="2" ry="2"/><rect class="c cd" x="658" y="98" rx="2" ry="2"/><rect class="c" x="674" y="2" rx="2" ry="2"/><rect class="c ce" x="674" y="18" rx="2" ry="2"/><rect class="c" x="674" y="34" rx="2" ry="2"/><rect class="c" x="674" y="50" rx="2" ry="2"/><rect class="c" x="674" y="66" rx="2" ry="2"/><rect class="c" x="674" y="82" rx="2" ry="2"/><rect class="c" x="674" y="98" rx="2" ry="2"/><rect class="c" x="690" y="2" rx="2" ry="2"/><rect class="c" x="690" y="18" rx="2" ry="2"/><rect class="c" x="690" y="34" rx="2" ry="2"/><rect class="c" x="690" y="50" rx="2" ry="2"/><rect class="c" x="690" y="66" rx="2" ry="2"/><rect class="c" x="690" y="82" rx="2" ry="2"/><rect class="c" x="690" y="98" rx="2" ry="2"/><rect class="c" x="706" y="2" rx="2" ry="2"/><rect class="c" x="706" y="18" rx="2" ry="2"/><rect class="c cf" x="706" y="34" rx="2" ry="2"/><rect class="c" x="706" y="50" rx="2" ry="2"/><rect class="c" x="706" y="66" rx="2" ry="2"/><rect class="c cg" x="706" y="82" rx="2" ry="2"/><rect class="c ch" x="706" y="98" rx="2" ry="2"/><rect class="c" x="722" y="2" rx="2" ry="2"/><rect class="c" x="722" y="18" rx="2" ry="2"/><rect class="c" x="722" y="34" rx="2" ry="2"/><rect class="c" x="722" y="50" rx="2" ry="2"/><rect class="c" x="722" y="66" rx="2" ry="2"/><rect class="c ci" x="722" y="82" rx="2" ry="2"/><rect class="c cj" x="722" y="98" rx="2" ry="2"/><rect class="c" x="738" y="2" rx="2" ry="2"/><rect class="c" x="738" y="18" rx="2" ry="2"/><rect class="c ck" x="738" y="34" rx="2" ry="2"/><rect class="c cl" x="738" y="50" rx="2" ry="2"/><rect class="c" x="738" y="66" rx="2" ry="2"/><rect class="c" x="738" y="82" rx="2" ry="2"/><rect class="c" x="738" y="98" rx="2" ry="2"/><rect class="c" x="754" y="2" rx="2" ry="2"/><rect class="c cm" x="754" y="18" rx="2" ry="2"/><rect class="c cn" x="754" y="34" rx="2" ry="2"/><rect class="c co" x="754" y="50" rx="2" ry="2"/><rect class="c cp" x="754" y="66" rx="2" ry="2"/><rect class="c cq" x="754" y="82" rx="2" ry="2"/><rect class="c cr" x="754" y="98" rx="2" ry="2"/><rect class="c cs" x="770" y="2" rx="2" ry="2"/><rect class="c ct" x="770" y="18" rx="2" ry="2"/><rect class="c cu" x="770" y="34" rx="2" ry="2"/><rect class="c cv" x="770" y="50" rx="2" ry="2"/><rect class="c cw" x="770" y="66" rx="2" ry="2"/><rect class="c cx" x="770" y="82" rx="2" ry="2"/><rect class="c cy" x="770" y="98" rx="2" ry="2"/><rect class="c cz" x="786" y="2" rx="2" ry="2"/><rect class="c c10" x="786" y="18" rx="2" ry="2"/><rect class="c c11" x="786" y="34" rx="2" ry="2"/><rect class="c c12" x="786" y="50" rx="2" ry="2"/><rect class="c c13" x="786" y="66" rx="2" ry="2"/><rect class="c c14" x="786" y="82" rx="2" ry="2"/><rect class="c c15" x="786" y="98" rx="2" ry="2"/><rect class="c c16" x="802" y="2" rx="2" ry="2"/><rect class="c c17" x="802" y="18" rx="2" ry="2"/><rect class="c c18" x="802" y="34" rx="2" ry="2"/><rect class="c c19" x="802" y="50" rx="2" ry="2"/><rect class="c c1a" x="802" y="66" rx="2" ry="2"/><rect class="c c1b" x="802" y="82" rx="2" ry="2"/><rect class="c c1c" x="802" y="98" rx="2" ry="2"/><rect class="c c1d" x="818" y="2" rx="2" ry="2"/><rect class="c c1e" x="818" y="18" rx="2" ry="2"/><rect class="c c1f" x="818" y="34" rx="2" ry="2"/><rect class="c c1g" x="818" y="50" rx="2" ry="2"/><rect class="c c1h" x="818" y="66" rx="2" ry="2"/><rect class="c c1i" x="818" y="82" rx="2" ry="2"/><rect class="c c1j" x="818" y="98" rx="2" ry="2"/><rect class="c c1k" x="834" y="2" rx="2" ry="2"/><rect class="c c1l" x="834" y="18" rx="2" ry="2"/><rect class="c c1m" x="834" y="34" rx="2" ry="2"/><rect class="c c1n" x="834" y="50" rx="2" ry="2"/><rect class="c c1o" x="834" y="66" rx="2" ry="2"/><rect class="c c1p" x="834" y="82" rx="2" ry="2"/><rect class="c c1q" x="834" y="98" rx="2" ry="2"/><rect class="u u0" height="12" width="350.6" x="0.0" y="144"/><rect class="u u1" height="12" width="14.1" x="350.0" y="144"/><rect class="u u2" height="12" width="14.1" x="363.4" y="144"/><rect class="u u3" height="12" width="27.5" x="376.9" y="144"/><rect class="u u4" height="12" width="14.1" x="403.8" y="144"/><rect class="u u5" height="12" width="310.2" x="417.3" y="144"/><rect class="u u6" height="12" width="67.9" x="726.9" y="144"/><rect class="u u7" height="12" width="54.4" x="794.2" y="144"/><rect class="s s0" x="0.8" y="0.8" width="14.4" height="14.4" rx="4.5" ry="4.5"/><rect class="s s1" x="1.8" y="1.8" width="12.3" height="12.3" rx="4.1" ry="4.1"/><rect class="s s2" x="2.6" y="2.6" width="10.8" height="10.8" rx="3.6" ry="3.6"/><rect class="s s3" x="3.0" y="3.0" width="9.9" height="9.9" rx="3.3" ry="3.3"/></svg>