<svg viewBox="-16 -32 880 192" width="880" height="192" xmlns="http://www.w3.org/2000/svg"><desc>Generated with https://github.com/Platane/snk</desc><style>:root{--cb:#1b1f230a;--cs:764ba2;--ce:#ebedf0;--c0:#ebedf0;--c1:#9be9a8;--c2:#40c463;--c3:#30a14e;--c4:#216e39}.c{shape-rendering:geometricPrecision;fill:var(--ce);stroke-width:1px;stroke:var(--cb);animation:none 27700ms linear infinite;width:12px;height:12px}@keyframes c0{18.4%{fill:var(--c1)}18.42%,100%{fill:var(--ce)}}.c.c0{fill:var(--c1);animation-name:c0}@keyframes c1{18.04%{fill:var(--c1)}18.06%,100%{fill:var(--ce)}}.c.c1{fill:var(--c1);animation-name:c1}@keyframes c2{11.9%{fill:var(--c1)}11.92%,100%{fill:var(--ce)}}.c.c2{fill:var(--c1);animation-name:c2}@keyframes c3{12.99%{fill:var(--c1)}13.01%,100%{fill:var(--ce)}}.c.c3{fill:var(--c1);animation-name:c3}@keyframes c4{12.26%{fill:var(--c1)}12.28%,100%{fill:var(--ce)}}.c.c4{fill:var(--c1);animation-name:c4}@keyframes c5{12.63%{fill:var(--c1)}12.65%,100%{fill:var(--ce)}}.c.c5{fill:var(--c1);animation-name:c5}@keyframes c6{14.79%{fill:var(--c1)}14.81%,100%{fill:var(--ce)}}.c.c6{fill:var(--c1);animation-name:c6}@keyframes c7{15.15%{fill:var(--c1)}15.17%,100%{fill:var(--ce)}}.c.c7{fill:var(--c1);animation-name:c7}@keyframes c8{55.95%{fill:var(--c2)}55.97%,100%{fill:var(--ce)}}.c.c8{fill:var(--c2);animation-name:c8}@keyframes c9{55.59%{fill:var(--c2)}55.61%,100%{fill:var(--ce)}}.c.c9{fill:var(--c2);animation-name:c9}@keyframes ca{73.28%{fill:var(--c4)}73.3%,100%{fill:var(--ce)}}.c.ca{fill:var(--c4);animation-name:ca}@keyframes cb{24.9%{fill:var(--c1)}24.92%,100%{fill:var(--ce)}}.c.cb{fill:var(--c1);animation-name:cb}@keyframes cc{71.47%{fill:var(--c3)}71.49%,100%{fill:var(--ce)}}.c.cc{fill:var(--c3);animation-name:cc}@keyframes cd{53.06%{fill:var(--c2)}53.08%,100%{fill:var(--ce)}}.c.cd{fill:var(--c2);animation-name:cd}@keyframes ce{26.34%{fill:var(--c1)}26.36%,100%{fill:var(--ce)}}.c.ce{fill:var(--c1);animation-name:ce}@keyframes cf{59.2%{fill:var(--c2)}59.22%,100%{fill:var(--ce)}}.c.cf{fill:var(--c2);animation-name:cf}@keyframes cg{30.68%{fill:var(--c1)}30.7%,100%{fill:var(--ce)}}.c.cg{fill:var(--c1);animation-name:cg}@keyframes ch{51.98%{fill:var(--c2)}52%,100%{fill:var(--ce)}}.c.ch{fill:var(--c2);animation-name:ch}@keyframes ci{30.31%{fill:var(--c1)}30.33%,100%{fill:var(--ce)}}.c.ci{fill:var(--c1);animation-name:ci}@keyframes cj{51.61%{fill:var(--c2)}51.63%,100%{fill:var(--ce)}}.c.cj{fill:var(--c2);animation-name:cj}@keyframes ck{28.87%{fill:var(--c1)}28.89%,100%{fill:var(--ce)}}.c.ck{fill:var(--c1);animation-name:ck}@keyframes cl{60.28%{fill:var(--c2)}60.3%,100%{fill:var(--ce)}}.c.cl{fill:var(--c2);animation-name:cl}@keyframes cm{28.15%{fill:var(--c1)}28.17%,100%{fill:var(--ce)}}.c.cm{fill:var(--c1);animation-name:cm}@keyframes cn{28.51%{fill:var(--c1)}28.53%,100%{fill:var(--ce)}}.c.cn{fill:var(--c1);animation-name:cn}@keyframes co{44.03%{fill:var(--c2)}44.05%,100%{fill:var(--ce)}}.c.co{fill:var(--c2);animation-name:co}@keyframes cp{43.67%{fill:var(--c1)}43.69%,100%{fill:var(--ce)}}.c.cp{fill:var(--c1);animation-name:cp}@keyframes cq{77.25%{fill:var(--c4)}77.27%,100%{fill:var(--ce)}}.c.cq{fill:var(--c4);animation-name:cq}@keyframes cr{50.89%{fill:var(--c2)}50.91%,100%{fill:var(--ce)}}.c.cr{fill:var(--c2);animation-name:cr}@keyframes cs{64.97%{fill:var(--c2)}64.99%,100%{fill:var(--ce)}}.c.cs{fill:var(--c2);animation-name:cs}@keyframes ct{64.61%{fill:var(--c2)}64.63%,100%{fill:var(--ce)}}.c.ct{fill:var(--c2);animation-name:ct}@keyframes cu{61.36%{fill:var(--c2)}61.38%,100%{fill:var(--ce)}}.c.cu{fill:var(--c2);animation-name:cu}@keyframes cv{68.22%{fill:var(--c3)}68.24%,100%{fill:var(--ce)}}.c.cv{fill:var(--c3);animation-name:cv}@keyframes cw{46.92%{fill:var(--c2)}46.94%,100%{fill:var(--ce)}}.c.cw{fill:var(--c2);animation-name:cw}@keyframes cx{49.45%{fill:var(--c2)}49.47%,100%{fill:var(--ce)}}.c.cx{fill:var(--c2);animation-name:cx}@keyframes cy{49.09%{fill:var(--c2)}49.11%,100%{fill:var(--ce)}}.c.cy{fill:var(--c2);animation-name:cy}@keyframes cz{65.33%{fill:var(--c3)}65.35%,100%{fill:var(--ce)}}.c.cz{fill:var(--c3);animation-name:cz}@keyframes c10{64.25%{fill:var(--c2)}64.27%,100%{fill:var(--ce)}}.c.c10{fill:var(--c2);animation-name:c10}@keyframes c11{61.72%{fill:var(--c2)}61.74%,100%{fill:var(--ce)}}.c.c11{fill:var(--c2);animation-name:c11}@keyframes c12{66.42%{fill:var(--c3)}66.44%,100%{fill:var(--ce)}}.c.c12{fill:var(--c3);animation-name:c12}@keyframes c13{47.28%{fill:var(--c1)}47.3%,100%{fill:var(--ce)}}.c.c13{fill:var(--c1);animation-name:c13}@keyframes c14{47.64%{fill:var(--c2)}47.66%,100%{fill:var(--ce)}}.c.c14{fill:var(--c2);animation-name:c14}@keyframes c15{48.73%{fill:var(--c2)}48.75%,100%{fill:var(--ce)}}.c.c15{fill:var(--c2);animation-name:c15}@keyframes c16{62.81%{fill:var(--c2)}62.83%,100%{fill:var(--ce)}}.c.c16{fill:var(--c2);animation-name:c16}@keyframes c17{62.44%{fill:var(--c2)}62.46%,100%{fill:var(--ce)}}.c.c17{fill:var(--c2);animation-name:c17}@keyframes c18{62.08%{fill:var(--c2)}62.1%,100%{fill:var(--ce)}}.c.c18{fill:var(--c2);animation-name:c18}@keyframes c19{66.78%{fill:var(--c3)}66.8%,100%{fill:var(--ce)}}.c.c19{fill:var(--c3);animation-name:c19}@keyframes c1a{78.69%{fill:var(--c4)}78.71%,100%{fill:var(--ce)}}.c.c1a{fill:var(--c4);animation-name:c1a}@keyframes c1b{48%{fill:var(--c2)}48.02%,100%{fill:var(--ce)}}.c.c1b{fill:var(--c2);animation-name:c1b}@keyframes c1c{34.65%{fill:var(--c1)}34.67%,100%{fill:var(--ce)}}.c.c1c{fill:var(--c1);animation-name:c1c}@keyframes c1d{63.17%{fill:var(--c2)}63.19%,100%{fill:var(--ce)}}.c.c1d{fill:var(--c2);animation-name:c1d}@keyframes c1e{37.54%{fill:var(--c1)}37.56%,100%{fill:var(--ce)}}.c.c1e{fill:var(--c1);animation-name:c1e}@keyframes c1f{37.17%{fill:var(--c1)}37.19%,100%{fill:var(--ce)}}.c.c1f{fill:var(--c1);animation-name:c1f}@keyframes c1g{79.41%{fill:var(--c4)}79.43%,100%{fill:var(--ce)}}.c.c1g{fill:var(--c4);animation-name:c1g}.u{transform-origin:0 0;transform:scale(0,1);animation:none linear 27700ms infinite}@keyframes u0{11.9%{transform:scale(0.000,1)}11.92%,12.26%{transform:scale(0.053,1)}12.28%,12.63%{transform:scale(0.105,1)}12.65%,12.99%{transform:scale(0.158,1)}13.01%,14.79%{transform:scale(0.211,1)}14.81%,15.15%{transform:scale(0.263,1)}15.17%,18.04%{transform:scale(0.316,1)}18.06%,18.4%{transform:scale(0.368,1)}18.42%,24.9%{transform:scale(0.421,1)}24.92%,26.34%{transform:scale(0.474,1)}26.36%,28.15%{transform:scale(0.526,1)}28.17%,28.51%{transform:scale(0.579,1)}28.53%,28.87%{transform:scale(0.632,1)}28.89%,30.31%{transform:scale(0.684,1)}30.33%,30.68%{transform:scale(0.737,1)}30.7%,34.65%{transform:scale(0.789,1)}34.67%,37.17%{transform:scale(0.842,1)}37.19%,37.54%{transform:scale(0.895,1)}37.56%,43.67%{transform:scale(0.947,1)}43.69%,100%{transform:scale(1.000,1)}}.u.u0{fill:var(--c1);animation-name:u0;transform-origin:0.0px 0}@keyframes u1{44.03%{transform:scale(0.000,1)}44.05%,46.92%{transform:scale(0.500,1)}46.94%,100%{transform:scale(1.000,1)}}.u.u1{fill:var(--c2);animation-name:u1;transform-origin:304.0px 0}@keyframes u2{47.28%{transform:scale(0.000,1)}47.3%,100%{transform:scale(1.000,1)}}.u.u2{fill:var(--c1);animation-name:u2;transform-origin:336.0px 0}@keyframes u3{47.64%{transform:scale(0.000,1)}47.66%,48%{transform:scale(0.045,1)}48.02%,48.73%{transform:scale(0.091,1)}48.75%,49.09%{transform:scale(0.136,1)}49.11%,49.45%{transform:scale(0.182,1)}49.47%,50.89%{transform:scale(0.227,1)}50.91%,51.61%{transform:scale(0.273,1)}51.63%,51.98%{transform:scale(0.318,1)}52%,53.06%{transform:scale(0.364,1)}53.08%,55.59%{transform:scale(0.409,1)}55.61%,55.95%{transform:scale(0.455,1)}55.97%,59.2%{transform:scale(0.500,1)}59.22%,60.28%{transform:scale(0.545,1)}60.3%,61.36%{transform:scale(0.591,1)}61.38%,61.72%{transform:scale(0.636,1)}61.74%,62.08%{transform:scale(0.682,1)}62.1%,62.44%{transform:scale(0.727,1)}62.46%,62.81%{transform:scale(0.773,1)}62.83%,63.17%{transform:scale(0.818,1)}63.19%,64.25%{transform:scale(0.864,1)}64.27%,64.61%{transform:scale(0.909,1)}64.63%,64.97%{transform:scale(0.955,1)}64.99%,100%{transform:scale(1.000,1)}}.u.u3{fill:var(--c2);animation-name:u3;transform-origin:352.0px 0}@keyframes u4{65.33%{transform:scale(0.000,1)}65.35%,66.42%{transform:scale(0.200,1)}66.44%,66.78%{transform:scale(0.400,1)}66.8%,68.22%{transform:scale(0.600,1)}68.24%,71.47%{transform:scale(0.800,1)}71.49%,100%{transform:scale(1.000,1)}}.u.u4{fill:var(--c3);animation-name:u4;transform-origin:704.0px 0}@keyframes u5{73.28%{transform:scale(0.000,1)}73.3%,77.25%{transform:scale(0.250,1)}77.27%,78.69%{transform:scale(0.500,1)}78.71%,79.41%{transform:scale(0.750,1)}79.43%,100%{transform:scale(1.000,1)}}.u.u5{fill:var(--c4);animation-name:u5;transform-origin:784.0px 0}.s{shape-rendering:geometricPrecision;fill:var(--cs);animation:none linear 27700ms infinite}@keyframes s0{0%,99.64%{transform:translate(0px,-16px)}0.36%{transform:translate(0px,0px)}11.55%{transform:translate(496px,0px)}11.91%{transform:translate(496px,16px)}12.27%{transform:translate(512px,16px)}12.64%{transform:translate(512px,32px)}13%{transform:translate(496px,32px)}13.36%{transform:translate(496px,48px)}14.8%{transform:translate(560px,48px)}15.16%{transform:translate(560px,64px)}17.69%{transform:translate(448px,64px)}18.05%{transform:translate(448px,80px)}18.41%{transform:translate(432px,80px)}18.77%{transform:translate(432px,64px)}23.47%{transform:translate(640px,64px)}24.91%{transform:translate(640px,0px)}25.99%{transform:translate(688px,0px)}26.35%{transform:translate(688px,16px)}28.16%,44.77%{transform:translate(768px,16px)}28.52%,45.85%,61.01%{transform:translate(768px,32px)}29.24%,42.24%{transform:translate(736px,32px)}30.32%{transform:translate(736px,80px)}30.69%{transform:translate(720px,80px)}31.05%{transform:translate(720px,64px)}31.77%{transform:translate(752px,64px)}32.85%{transform:translate(752px,112px)}34.3%{transform:translate(816px,112px)}34.66%,48.38%{transform:translate(816px,96px)}35.38%{transform:translate(848px,96px)}36.82%{transform:translate(848px,32px)}37.18%{transform:translate(832px,32px)}37.55%,63.54%{transform:translate(832px,16px)}37.91%{transform:translate(848px,16px)}38.63%{transform:translate(848px,-16px)}40.43%{transform:translate(768px,-16px)}40.79%{transform:translate(768px,0px)}41.16%{transform:translate(752px,0px)}41.88%,45.49%,59.93%{transform:translate(752px,32px)}42.96%{transform:translate(736px,64px)}43.68%,46.57%,76.9%{transform:translate(768px,64px)}45.13%{transform:translate(752px,16px)}47.29%{transform:translate(800px,64px)}47.65%,49.82%{transform:translate(800px,80px)}48.01%,78.34%{transform:translate(816px,80px)}49.1%{transform:translate(784px,96px)}49.46%{transform:translate(784px,80px)}50.18%{transform:translate(800px,96px)}53.43%{transform:translate(656px,96px)}54.87%{transform:translate(656px,32px)}55.96%{transform:translate(608px,32px)}56.32%{transform:translate(608px,16px)}58.84%{transform:translate(720px,16px)}59.21%{transform:translate(720px,32px)}60.29%{transform:translate(752px,48px)}60.65%{transform:translate(768px,48px)}62.09%,67.15%{transform:translate(816px,32px)}62.82%{transform:translate(816px,0px)}63.18%{transform:translate(832px,0px)}64.62%{transform:translate(784px,16px)}64.98%{transform:translate(784px,0px)}65.34%{transform:translate(800px,0px)}66.43%{transform:translate(800px,48px)}66.79%{transform:translate(816px,48px)}67.87%{transform:translate(784px,32px)}68.23%{transform:translate(784px,48px)}70.76%{transform:translate(672px,48px)}71.48%{transform:translate(672px,80px)}71.84%{transform:translate(656px,80px)}72.56%{transform:translate(656px,48px)}73.29%{transform:translate(624px,48px)}73.65%{transform:translate(624px,64px)}77.26%{transform:translate(768px,80px)}78.7%{transform:translate(816px,64px)}79.06%{transform:translate(832px,64px)}79.42%{transform:translate(832px,48px)}95.31%{transform:translate(128px,48px)}95.67%{transform:translate(128px,32px)}96.39%{transform:translate(96px,32px)}97.47%{transform:translate(96px,-16px)}}.s.s0{transform:translate(0px,-16px);animation-name:s0}@keyframes s1{0%,99.64%{transform:translate(16px,-16px)}0.36%{transform:translate(0px,-16px)}0.72%{transform:translate(0px,0px)}11.91%{transform:translate(496px,0px)}12.27%{transform:translate(496px,16px)}12.64%{transform:translate(512px,16px)}13%{transform:translate(512px,32px)}13.36%{transform:translate(496px,32px)}13.72%{transform:translate(496px,48px)}15.16%{transform:translate(560px,48px)}15.52%{transform:translate(560px,64px)}18.05%{transform:translate(448px,64px)}18.41%{transform:translate(448px,80px)}18.77%{transform:translate(432px,80px)}19.13%{transform:translate(432px,64px)}23.83%{transform:translate(640px,64px)}25.27%{transform:translate(640px,0px)}26.35%{transform:translate(688px,0px)}26.71%{transform:translate(688px,16px)}28.52%,45.13%{transform:translate(768px,16px)}28.88%,46.21%,61.37%{transform:translate(768px,32px)}29.6%,42.6%{transform:translate(736px,32px)}30.69%{transform:translate(736px,80px)}31.05%{transform:translate(720px,80px)}31.41%{transform:translate(720px,64px)}32.13%{transform:translate(752px,64px)}33.21%{transform:translate(752px,112px)}34.66%{transform:translate(816px,112px)}35.02%,48.74%{transform:translate(816px,96px)}35.74%{transform:translate(848px,96px)}37.18%{transform:translate(848px,32px)}37.55%{transform:translate(832px,32px)}37.91%,63.9%{transform:translate(832px,16px)}38.27%{transform:translate(848px,16px)}38.99%{transform:translate(848px,-16px)}40.79%{transform:translate(768px,-16px)}41.16%{transform:translate(768px,0px)}41.52%{transform:translate(752px,0px)}42.24%,45.85%,60.29%{transform:translate(752px,32px)}43.32%{transform:translate(736px,64px)}44.04%,46.93%,77.26%{transform:translate(768px,64px)}45.49%{transform:translate(752px,16px)}47.65%{transform:translate(800px,64px)}48.01%,50.18%{transform:translate(800px,80px)}48.38%,78.7%{transform:translate(816px,80px)}49.46%{transform:translate(784px,96px)}49.82%{transform:translate(784px,80px)}50.54%{transform:translate(800px,96px)}53.79%{transform:translate(656px,96px)}55.23%{transform:translate(656px,32px)}56.32%{transform:translate(608px,32px)}56.68%{transform:translate(608px,16px)}59.21%{transform:translate(720px,16px)}59.57%{transform:translate(720px,32px)}60.65%{transform:translate(752px,48px)}61.01%{transform:translate(768px,48px)}62.45%,67.51%{transform:translate(816px,32px)}63.18%{transform:translate(816px,0px)}63.54%{transform:translate(832px,0px)}64.98%{transform:translate(784px,16px)}65.34%{transform:translate(784px,0px)}65.7%{transform:translate(800px,0px)}66.79%{transform:translate(800px,48px)}67.15%{transform:translate(816px,48px)}68.23%{transform:translate(784px,32px)}68.59%{transform:translate(784px,48px)}71.12%{transform:translate(672px,48px)}71.84%{transform:translate(672px,80px)}72.2%{transform:translate(656px,80px)}72.92%{transform:translate(656px,48px)}73.65%{transform:translate(624px,48px)}74.01%{transform:translate(624px,64px)}77.62%{transform:translate(768px,80px)}79.06%{transform:translate(816px,64px)}79.42%{transform:translate(832px,64px)}79.78%{transform:translate(832px,48px)}95.67%{transform:translate(128px,48px)}96.03%{transform:translate(128px,32px)}96.75%{transform:translate(96px,32px)}97.83%{transform:translate(96px,-16px)}}.s.s1{transform:translate(16px,-16px);animation-name:s1}@keyframes s2{0%,99.64%{transform:translate(32px,-16px)}0.72%{transform:translate(0px,-16px)}1.08%{transform:translate(0px,0px)}12.27%{transform:translate(496px,0px)}12.64%{transform:translate(496px,16px)}13%{transform:translate(512px,16px)}13.36%{transform:translate(512px,32px)}13.72%{transform:translate(496px,32px)}14.08%{transform:translate(496px,48px)}15.52%{transform:translate(560px,48px)}15.88%{transform:translate(560px,64px)}18.41%{transform:translate(448px,64px)}18.77%{transform:translate(448px,80px)}19.13%{transform:translate(432px,80px)}19.49%{transform:translate(432px,64px)}24.19%{transform:translate(640px,64px)}25.63%{transform:translate(640px,0px)}26.71%{transform:translate(688px,0px)}27.08%{transform:translate(688px,16px)}28.88%,45.49%{transform:translate(768px,16px)}29.24%,46.57%,61.73%{transform:translate(768px,32px)}29.96%,42.96%{transform:translate(736px,32px)}31.05%{transform:translate(736px,80px)}31.41%{transform:translate(720px,80px)}31.77%{transform:translate(720px,64px)}32.49%{transform:translate(752px,64px)}33.57%{transform:translate(752px,112px)}35.02%{transform:translate(816px,112px)}35.38%,49.1%{transform:translate(816px,96px)}36.1%{transform:translate(848px,96px)}37.55%{transform:translate(848px,32px)}37.91%{transform:translate(832px,32px)}38.27%,64.26%{transform:translate(832px,16px)}38.63%{transform:translate(848px,16px)}39.35%{transform:translate(848px,-16px)}41.16%{transform:translate(768px,-16px)}41.52%{transform:translate(768px,0px)}41.88%{transform:translate(752px,0px)}42.6%,46.21%,60.65%{transform:translate(752px,32px)}43.68%{transform:translate(736px,64px)}44.4%,47.29%,77.62%{transform:translate(768px,64px)}45.85%{transform:translate(752px,16px)}48.01%{transform:translate(800px,64px)}48.38%,50.54%{transform:translate(800px,80px)}48.74%,79.06%{transform:translate(816px,80px)}49.82%{transform:translate(784px,96px)}50.18%{transform:translate(784px,80px)}50.9%{transform:translate(800px,96px)}54.15%{transform:translate(656px,96px)}55.6%{transform:translate(656px,32px)}56.68%{transform:translate(608px,32px)}57.04%{transform:translate(608px,16px)}59.57%{transform:translate(720px,16px)}59.93%{transform:translate(720px,32px)}61.01%{transform:translate(752px,48px)}61.37%{transform:translate(768px,48px)}62.82%,67.87%{transform:translate(816px,32px)}63.54%{transform:translate(816px,0px)}63.9%{transform:translate(832px,0px)}65.34%{transform:translate(784px,16px)}65.7%{transform:translate(784px,0px)}66.06%{transform:translate(800px,0px)}67.15%{transform:translate(800px,48px)}67.51%{transform:translate(816px,48px)}68.59%{transform:translate(784px,32px)}68.95%{transform:translate(784px,48px)}71.48%{transform:translate(672px,48px)}72.2%{transform:translate(672px,80px)}72.56%{transform:translate(656px,80px)}73.29%{transform:translate(656px,48px)}74.01%{transform:translate(624px,48px)}74.37%{transform:translate(624px,64px)}77.98%{transform:translate(768px,80px)}79.42%{transform:translate(816px,64px)}79.78%{transform:translate(832px,64px)}80.14%{transform:translate(832px,48px)}96.03%{transform:translate(128px,48px)}96.39%{transform:translate(128px,32px)}97.11%{transform:translate(96px,32px)}98.19%{transform:translate(96px,-16px)}}.s.s2{transform:translate(32px,-16px);animation-name:s2}@keyframes s3{0%,99.64%{transform:translate(48px,-16px)}1.08%{transform:translate(0px,-16px)}1.44%{transform:translate(0px,0px)}12.64%{transform:translate(496px,0px)}13%{transform:translate(496px,16px)}13.36%{transform:translate(512px,16px)}13.72%{transform:translate(512px,32px)}14.08%{transform:translate(496px,32px)}14.44%{transform:translate(496px,48px)}15.88%{transform:translate(560px,48px)}16.25%{transform:translate(560px,64px)}18.77%{transform:translate(448px,64px)}19.13%{transform:translate(448px,80px)}19.49%{transform:translate(432px,80px)}19.86%{transform:translate(432px,64px)}24.55%{transform:translate(640px,64px)}25.99%{transform:translate(640px,0px)}27.08%{transform:translate(688px,0px)}27.44%{transform:translate(688px,16px)}29.24%,45.85%{transform:translate(768px,16px)}29.6%,46.93%,62.09%{transform:translate(768px,32px)}30.32%,43.32%{transform:translate(736px,32px)}31.41%{transform:translate(736px,80px)}31.77%{transform:translate(720px,80px)}32.13%{transform:translate(720px,64px)}32.85%{transform:translate(752px,64px)}33.94%{transform:translate(752px,112px)}35.38%{transform:translate(816px,112px)}35.74%,49.46%{transform:translate(816px,96px)}36.46%{transform:translate(848px,96px)}37.91%{transform:translate(848px,32px)}38.27%{transform:translate(832px,32px)}38.63%,64.62%{transform:translate(832px,16px)}38.99%{transform:translate(848px,16px)}39.71%{transform:translate(848px,-16px)}41.52%{transform:translate(768px,-16px)}41.88%{transform:translate(768px,0px)}42.24%{transform:translate(752px,0px)}42.96%,46.57%,61.01%{transform:translate(752px,32px)}44.04%{transform:translate(736px,64px)}44.77%,47.65%,77.98%{transform:translate(768px,64px)}46.21%{transform:translate(752px,16px)}48.38%{transform:translate(800px,64px)}48.74%,50.9%{transform:translate(800px,80px)}49.1%,79.42%{transform:translate(816px,80px)}50.18%{transform:translate(784px,96px)}50.54%{transform:translate(784px,80px)}51.26%{transform:translate(800px,96px)}54.51%{transform:translate(656px,96px)}55.96%{transform:translate(656px,32px)}57.04%{transform:translate(608px,32px)}57.4%{transform:translate(608px,16px)}59.93%{transform:translate(720px,16px)}60.29%{transform:translate(720px,32px)}61.37%{transform:translate(752px,48px)}61.73%{transform:translate(768px,48px)}63.18%,68.23%{transform:translate(816px,32px)}63.9%{transform:translate(816px,0px)}64.26%{transform:translate(832px,0px)}65.7%{transform:translate(784px,16px)}66.06%{transform:translate(784px,0px)}66.43%{transform:translate(800px,0px)}67.51%{transform:translate(800px,48px)}67.87%{transform:translate(816px,48px)}68.95%{transform:translate(784px,32px)}69.31%{transform:translate(784px,48px)}71.84%{transform:translate(672px,48px)}72.56%{transform:translate(672px,80px)}72.92%{transform:translate(656px,80px)}73.65%{transform:translate(656px,48px)}74.37%{transform:translate(624px,48px)}74.73%{transform:translate(624px,64px)}78.34%{transform:translate(768px,80px)}79.78%{transform:translate(816px,64px)}80.14%{transform:translate(832px,64px)}80.51%{transform:translate(832px,48px)}96.39%{transform:translate(128px,48px)}96.75%{transform:translate(128px,32px)}97.47%{transform:translate(96px,32px)}98.56%{transform:translate(96px,-16px)}}.s.s3{transform:translate(48px,-16px);animation-name:s3}</style><rect class="c" x="2" y="2" rx="2" ry="2"/><rect class="c" x="2" y="18" rx="2" ry="2"/><rect class="c" x="2" y="34" rx="2" ry="2"/><rect class="c" x="2" y="50" rx="2" ry="2"/><rect class="c" x="2" y="66" rx="2" ry="2"/><rect class="c" x="2" y="82" rx="2" ry="2"/><rect class="c" x="2" y="98" rx="2" ry="2"/><rect class="c" x="18" y="2" rx="2" ry="2"/><rect class="c" x="18" y="18" rx="2" ry="2"/><rect class="c" x="18" y="34" rx="2" ry="2"/><rect class="c" x="18" y="50" rx="2" ry="2"/><rect class="c" x="18" y="66" rx="2" ry="2"/><rect class="c" x="18" y="82" rx="2" ry="2"/><rect class="c" x="18" y="98" rx="2" ry="2"/><rect class="c" x="34" y="2" rx="2" ry="2"/><rect class="c" x="34" y="18" rx="2" ry="2"/><rect class="c" x="34" y="34" rx="2" ry="2"/><rect class="c" x="34" y="50" rx="2" ry="2"/><rect class="c" x="34" y="66" rx="2" ry="2"/><rect class="c" x="34" y="82" rx="2" ry="2"/><rect class="c" x="34" y="98" rx="2" ry="2"/><rect class="c" x="50" y="2" rx="2" ry="2"/><rect class="c" x="50" y="18" rx="2" ry="2"/><rect class="c" x="50" y="34" rx="2" ry="2"/><rect class="c" x="50" y="50" rx="2" ry="2"/><rect class="c" x="50" y="66" rx="2" ry="2"/><rect class="c" x="50" y="82" rx="2" ry="2"/><rect class="c" x="50" y="98" rx="2" ry="2"/><rect class="c" x="66" y="2" rx="2" ry="2"/><rect class="c" x="66" y="18" rx="2" ry="2"/><rect class="c" x="66" y="34" rx="2" ry="2"/><rect class="c" x="66" y="50" rx="2" ry="2"/><rect class="c" x="66" y="66" rx="2" ry="2"/><rect class="c" x="66" y="82" rx="2" ry="2"/><rect class="c" x="66" y="98" rx="2" ry="2"/><rect class="c" x="82" y="2" rx="2" ry="2"/><rect class="c" x="82" y="18" rx="2" ry="2"/><rect class="c" x="82" y="34" rx="2" ry="2"/><rect class="c" x="82" y="50" rx="2" ry="2"/><rect class="c" x="82" y="66" rx="2" ry="2"/><rect class="c" x="82" y="82" rx="2" ry="2"/><rect class="c" x="82" y="98" rx="2" ry="2"/><rect class="c" x="98" y="2" rx="2" ry="2"/><rect class="c" x="98" y="18" rx="2" ry="2"/><rect class="c" x="98" y="34" rx="2" ry="2"/><rect class="c" x="98" y="50" rx="2" ry="2"/><rect class="c" x="98" y="66" rx="2" ry="2"/><rect class="c" x="98" y="82" rx="2" ry="2"/><rect class="c" x="98" y="98" rx="2" ry="2"/><rect class="c" x="114" y="2" rx="2" ry="2"/><rect class="c" x="114" y="18" rx="2" ry="2"/><rect class="c" x="114" y="34" rx="2" ry="2"/><rect class="c" x="114" y="50" rx="2" ry="2"/><rect class="c" x="114" y="66" rx="2" ry="2"/><rect class="c" x="114" y="82" rx="2" ry="2"/><rect class="c" x="114" y="98" rx="2" ry="2"/><rect class="c" x="130" y="2" rx="2" ry="2"/><rect class="c" x="130" y="18" rx="2" ry="2"/><rect class="c" x="130" y="34" rx="2" ry="2"/><rect class="c" x="130" y="50" rx="2" ry="2"/><rect class="c" x="130" y="66" rx="2" ry="2"/><rect class="c" x="130" y="82" rx="2" ry="2"/><rect class="c" x="130" y="98" rx="2" ry="2"/><rect class="c" x="146" y="2" rx="2" ry="2"/><rect class="c" x="146" y="18" rx="2" ry="2"/><rect class="c" x="146" y="34" rx="2" ry="2"/><rect class="c" x="146" y="50" rx="2" ry="2"/><rect class="c" x="146" y="66" rx="2" ry="2"/><rect class="c" x="146" y="82" rx="2" ry="2"/><rect class="c" x="146" y="98" rx="2" ry="2"/><rect class="c" x="162" y="2" rx="2" ry="2"/><rect class="c" x="162" y="18" rx="2" ry="2"/><rect class="c" x="162" y="34" rx="2" ry="2"/><rect class="c" x="162" y="50" rx="2" ry="2"/><rect class="c" x="162" y="66" rx="2" ry="2"/><rect class="c" x="162" y="82" rx="2" ry="2"/><rect class="c" x="162" y="98" rx="2" ry="2"/><rect class="c" x="178" y="2" rx="2" ry="2"/><rect class="c" x="178" y="18" rx="2" ry="2"/><rect class="c" x="178" y="34" rx="2" ry="2"/><rect class="c" x="178" y="50" rx="2" ry="2"/><rect class="c" x="178" y="66" rx="2" ry="2"/><rect class="c" x="178" y="82" rx="2" ry="2"/><rect class="c" x="178" y="98" rx="2" ry="2"/><rect class="c" x="194" y="2" rx="2" ry="2"/><rect class="c" x="194" y="18" rx="2" ry="2"/><rect class="c" x="194" y="34" rx="2" ry="2"/><rect class="c" x="194" y="50" rx="2" ry="2"/><rect class="c" x="194" y="66" rx="2" ry="2"/><rect class="c" x="194" y="82" rx="2" ry="2"/><rect class="c" x="194" y="98" rx="2" ry="2"/><rect class="c" x="210" y="2" rx="2" ry="2"/><rect class="c" x="210" y="18" rx="2" ry="2"/><rect class="c" x="210" y="34" rx="2" ry="2"/><rect class="c" x="210" y="50" rx="2" ry="2"/><rect class="c" x="210" y="66" rx="2" ry="2"/><rect class="c" x="210" y="82" rx="2" ry="2"/><rect class="c" x="210" y="98" rx="2" ry="2"/><rect class="c" x="226" y="2" rx="2" ry="2"/><rect class="c" x="226" y="18" rx="2" ry="2"/><rect class="c" x="226" y="34" rx="2" ry="2"/><rect class="c" x="226" y="50" rx="2" ry="2"/><rect class="c" x="226" y="66" rx="2" ry="2"/><rect class="c" x="226" y="82" rx="2" ry="2"/><rect class="c" x="226" y="98" rx="2" ry="2"/><rect class="c" x="242" y="2" rx="2" ry="2"/><rect class="c" x="242" y="18" rx="2" ry="2"/><rect class="c" x="242" y="34" rx="2" ry="2"/><rect class="c" x="242" y="50" rx="2" ry="2"/><rect class="c" x="242" y="66" rx="2" ry="2"/><rect class="c" x="242" y="82" rx="2" ry="2"/><rect class="c" x="242" y="98" rx="2" ry="2"/><rect class="c" x="258" y="2" rx="2" ry="2"/><rect class="c" x="258" y="18" rx="2" ry="2"/><rect class="c" x="258" y="34" rx="2" ry="2"/><rect class="c" x="258" y="50" rx="2" ry="2"/><rect class="c" x="258" y="66" rx="2" ry="2"/><rect class="c" x="258" y="82" rx="2" ry="2"/><rect class="c" x="258" y="98" rx="2" ry="2"/><rect class="c" x="274" y="2" rx="2" ry="2"/><rect class="c" x="274" y="18" rx="2" ry="2"/><rect class="c" x="274" y="34" rx="2" ry="2"/><rect class="c" x="274" y="50" rx="2" ry="2"/><rect class="c" x="274" y="66" rx="2" ry="2"/><rect class="c" x="274" y="82" rx="2" ry="2"/><rect class="c" x="274" y="98" rx="2" ry="2"/><rect class="c" x="290" y="2" rx="2" ry="2"/><rect class="c" x="290" y="18" rx="2" ry="2"/><rect class="c" x="290" y="34" rx="2" ry="2"/><rect class="c" x="290" y="50" rx="2" ry="2"/><rect class="c" x="290" y="66" rx="2" ry="2"/><rect class="c" x="290" y="82" rx="2" ry="2"/><rect class="c" x="290" y="98" rx="2" ry="2"/><rect class="c" x="306" y="2" rx="2" ry="2"/><rect class="c" x="306" y="18" rx="2" ry="2"/><rect class="c" x="306" y="34" rx="2" ry="2"/><rect class="c" x="306" y="50" rx="2" ry="2"/><rect class="c" x="306" y="66" rx="2" ry="2"/><rect class="c" x="306" y="82" rx="2" ry="2"/><rect class="c" x="306" y="98" rx="2" ry="2"/><rect class="c" x="322" y="2" rx="2" ry="2"/><rect class="c" x="322" y="18" rx="2" ry="2"/><rect class="c" x="322" y="34" rx="2" ry="2"/><rect class="c" x="322" y="50" rx="2" ry="2"/><rect class="c" x="322" y="66" rx="2" ry="2"/><rect class="c" x="322" y="82" rx="2" ry="2"/><rect class="c" x="322" y="98" rx="2" ry="2"/><rect class="c" x="338" y="2" rx="2" ry="2"/><rect class="c" x="338" y="18" rx="2" ry="2"/><rect class="c" x="338" y="34" rx="2" ry="2"/><rect class="c" x="338" y="50" rx="2" ry="2"/><rect class="c" x="338" y="66" rx="2" ry="2"/><rect class="c" x="338" y="82" rx="2" ry="2"/><rect class="c" x="338" y="98" rx="2" ry="2"/><rect class="c" x="354" y="2" rx="2" ry="2"/><rect class="c" x="354" y="18" rx="2" ry="2"/><rect class="c" x="354" y="34" rx="2" ry="2"/><rect class="c" x="354" y="50" rx="2" ry="2"/><rect class="c" x="354" y="66" rx="2" ry="2"/><rect class="c" x="354" y="82" rx="2" ry="2"/><rect class="c" x="354" y="98" rx="2" ry="2"/><rect class="c" x="370" y="2" rx="2" ry="2"/><rect class="c" x="370" y="18" rx="2" ry="2"/><rect class="c" x="370" y="34" rx="2" ry="2"/><rect class="c" x="370" y="50" rx="2" ry="2"/><rect class="c" x="370" y="66" rx="2" ry="2"/><rect class="c" x="370" y="82" rx="2" ry="2"/><rect class="c" x="370" y="98" rx="2" ry="2"/><rect class="c" x="386" y="2" rx="2" ry="2"/><rect class="c" x="386" y="18" rx="2" ry="2"/><rect class="c" x="386" y="34" rx="2" ry="2"/><rect class="c" x="386" y="50" rx="2" ry="2"/><rect class="c" x="386" y="66" rx="2" ry="2"/><rect class="c" x="386" y="82" rx="2" ry="2"/><rect class="c" x="386" y="98" rx="2" ry="2"/><rect class="c" x="402" y="2" rx="2" ry="2"/><rect class="c" x="402" y="18" rx="2" ry="2"/><rect class="c" x="402" y="34" rx="2" ry="2"/><rect class="c" x="402" y="50" rx="2" ry="2"/><rect class="c" x="402" y="66" rx="2" ry="2"/><rect class="c" x="402" y="82" rx="2" ry="2"/><rect class="c" x="402" y="98" rx="2" ry="2"/><rect class="c" x="418" y="2" rx="2" ry="2"/><rect class="c" x="418" y="18" rx="2" ry="2"/><rect class="c" x="418" y="34" rx="2" ry="2"/><rect class="c" x="418" y="50" rx="2" ry="2"/><rect class="c" x="418" y="66" rx="2" ry="2"/><rect class="c" x="418" y="82" rx="2" ry="2"/><rect class="c" x="418" y="98" rx="2" ry="2"/><rect class="c" x="434" y="2" rx="2" ry="2"/><rect class="c" x="434" y="18" rx="2" ry="2"/><rect class="c" x="434" y="34" rx="2" ry="2"/><rect class="c" x="434" y="50" rx="2" ry="2"/><rect class="c" x="434" y="66" rx="2" ry="2"/><rect class="c c0" x="434" y="82" rx="2" ry="2"/><rect class="c" x="434" y="98" rx="2" ry="2"/><rect class="c" x="450" y="2" rx="2" ry="2"/><rect class="c" x="450" y="18" rx="2" ry="2"/><rect class="c" x="450" y="34" rx="2" ry="2"/><rect class="c" x="450" y="50" rx="2" ry="2"/><rect class="c" x="450" y="66" rx="2" ry="2"/><rect class="c c1" x="450" y="82" rx="2" ry="2"/><rect class="c" x="450" y="98" rx="2" ry="2"/><rect class="c" x="466" y="2" rx="2" ry="2"/><rect class="c" x="466" y="18" rx="2" ry="2"/><rect class="c" x="466" y="34" rx="2" ry="2"/><rect class="c" x="466" y="50" rx="2" ry="2"/><rect class="c" x="466" y="66" rx="2" ry="2"/><rect class="c" x="466" y="82" rx="2" ry="2"/><rect class="c" x="466" y="98" rx="2" ry="2"/><rect class="c" x="482" y="2" rx="2" ry="2"/><rect class="c" x="482" y="18" rx="2" ry="2"/><rect class="c" x="482" y="34" rx="2" ry="2"/><rect class="c" x="482" y="50" rx="2" ry="2"/><rect class="c" x="482" y="66" rx="2" ry="2"/><rect class="c" x="482" y="82" rx="2" ry="2"/><rect class="c" x="482" y="98" rx="2" ry="2"/><rect class="c" x="498" y="2" rx="2" ry="2"/><rect class="c c2" x="498" y="18" rx="2" ry="2"/><rect class="c c3" x="498" y="34" rx="2" ry="2"/><rect class="c" x="498" y="50" rx="2" ry="2"/><rect class="c" x="498" y="66" rx="2" ry="2"/><rect class="c" x="498" y="82" rx="2" ry="2"/><rect class="c" x="498" y="98" rx="2" ry="2"/><rect class="c" x="514" y="2" rx="2" ry="2"/><rect class="c c4" x="514" y="18" rx="2" ry="2"/><rect class="c c5" x="514" y="34" rx="2" ry="2"/><rect class="c" x="514" y="50" rx="2" ry="2"/><rect class="c" x="514" y="66" rx="2" ry="2"/><rect class="c" x="514" y="82" rx="2" ry="2"/><rect class="c" x="514" y="98" rx="2" ry="2"/><rect class="c" x="530" y="2" rx="2" ry="2"/><rect class="c" x="530" y="18" rx="2" ry="2"/><rect class="c" x="530" y="34" rx="2" ry="2"/><rect class="c" x="530" y="50" rx="2" ry="2"/><rect class="c" x="530" y="66" rx="2" ry="2"/><rect class="c" x="530" y="82" rx="2" ry="2"/><rect class="c" x="530" y="98" rx="2" ry="2"/><rect class="c" x="546" y="2" rx="2" ry="2"/><rect class="c" x="546" y="18" rx="2" ry="2"/><rect class="c" x="546" y="34" rx="2" ry="2"/><rect class="c" x="546" y="50" rx="2" ry="2"/><rect class="c" x="546" y="66" rx="2" ry="2"/><rect class="c" x="546" y="82" rx="2" ry="2"/><rect class="c" x="546" y="98" rx="2" ry="2"/><rect class="c" x="562" y="2" rx="2" ry="2"/><rect class="c" x="562" y="18" rx="2" ry="2"/><rect class="c" x="562" y="34" rx="2" ry="2"/><rect class="c c6" x="562" y="50" rx="2" ry="2"/><rect class="c c7" x="562" y="66" rx="2" ry="2"/><rect class="c" x="562" y="82" rx="2" ry="2"/><rect class="c" x="562" y="98" rx="2" ry="2"/><rect class="c" x="578" y="2" rx="2" ry="2"/><rect class="c" x="578" y="18" rx="2" ry="2"/><rect class="c" x="578" y="34" rx="2" ry="2"/><rect class="c" x="578" y="50" rx="2" ry="2"/><rect class="c" x="578" y="66" rx="2" ry="2"/><rect class="c" x="578" y="82" rx="2" ry="2"/><rect class="c" x="578" y="98" rx="2" ry="2"/><rect class="c" x="594" y="2" rx="2" ry="2"/><rect class="c" x="594" y="18" rx="2" ry="2"/><rect class="c" x="594" y="34" rx="2" ry="2"/><rect class="c" x="594" y="50" rx="2" ry="2"/><rect class="c" x="594" y="66" rx="2" ry="2"/><rect class="c" x="594" y="82" rx="2" ry="2"/><rect class="c" x="594" y="98" rx="2" ry="2"/><rect class="c" x="610" y="2" rx="2" ry="2"/><rect class="c" x="610" y="18" rx="2" ry="2"/><rect class="c c8" x="610" y="34" rx="2" ry="2"/><rect class="c" x="610" y="50" rx="2" ry="2"/><rect class="c" x="610" y="66" rx="2" ry="2"/><rect class="c" x="610" y="82" rx="2" ry="2"/><rect class="c" x="610" y="98" rx="2" ry="2"/><rect class="c" x="626" y="2" rx="2" ry="2"/><rect class="c" x="626" y="18" rx="2" ry="2"/><rect class="c c9" x="626" y="34" rx="2" ry="2"/><rect class="c ca" x="626" y="50" rx="2" ry="2"/><rect class="c" x="626" y="66" rx="2" ry="2"/><rect class="c" x="626" y="82" rx="2" ry="2"/><rect class="c" x="626" y="98" rx="2" ry="2"/><rect class="c cb" x="642" y="2" rx="2" ry="2"/><rect class="c" x="642" y="18" rx="2" ry="2"/><rect class="c" x="642" y="34" rx="2" ry="2"/><rect class="c" x="642" y="50" rx="2" ry="2"/><rect class="c" x="642" y="66" rx="2" ry="2"/><rect class="c" x="642" y="82" rx="2" ry="2"/><rect class="c" x="642" y="98" rx="2" ry="2"/><rect class="c" x="658" y="2" rx="2" ry="2"/><rect class="c" x="658" y="18" rx="2" ry="2"/><rect class="c" x="658" y="34" rx="2" ry="2"/><rect class="c" x="658" y="50" rx="2" ry="2"/><rect class="c" x="658" y="66" rx="2" ry="2"/><rect class="c" x="658" y="82" rx="2" ry="2"/><rect class="c" x="658" y="98" rx="2" ry="2"/><rect class="c" x="674" y="2" rx="2" ry="2"/><rect class="c" x="674" y="18" rx="2" ry="2"/><rect class="c" x="674" y="34" rx="2" ry="2"/><rect class="c" x="674" y="50" rx="2" ry="2"/><rect class="c" x="674" y="66" rx="2" ry="2"/><rect class="c cc" x="674" y="82" rx="2" ry="2"/><rect class="c cd" x="674" y="98" rx="2" ry="2"/><rect class="c" x="690" y="2" rx="2" ry="2"/><rect class="c ce" x="690" y="18" rx="2" ry="2"/><rect class="c" x="690" y="34" rx="2" ry="2"/><rect class="c" x="690" y="50" rx="2" ry="2"/><rect class="c" x="690" y="66" rx="2" ry="2"/><rect class="c" x="690" y="82" rx="2" ry="2"/><rect class="c" x="690" y="98" rx="2" ry="2"/><rect class="c" x="706" y="2" rx="2" ry="2"/><rect class="c" x="706" y="18" rx="2" ry="2"/><rect class="c" x="706" y="34" rx="2" ry="2"/><rect class="c" x="706" y="50" rx="2" ry="2"/><rect class="c" x="706" y="66" rx="2" ry="2"/><rect class="c" x="706" y="82" rx="2" ry="2"/><rect class="c" x="706" y="98" rx="2" ry="2"/><rect class="c" x="722" y="2" rx="2" ry="2"/><rect class="c" x="722" y="18" rx="2" ry="2"/><rect class="c cf" x="722" y="34" rx="2" ry="2"/><rect class="c" x="722" y="50" rx="2" ry="2"/><rect class="c" x="722" y="66" rx="2" ry="2"/><rect class="c cg" x="722" y="82" rx="2" ry="2"/><rect class="c ch" x="722" y="98" rx="2" ry="2"/><rect class="c" x="738" y="2" rx="2" ry="2"/><rect class="c" x="738" y="18" rx="2" ry="2"/><rect class="c" x="738" y="34" rx="2" ry="2"/><rect class="c" x="738" y="50" rx="2" ry="2"/><rect class="c" x="738" y="66" rx="2" ry="2"/><rect class="c ci" x="738" y="82" rx="2" ry="2"/><rect class="c cj" x="738" y="98" rx="2" ry="2"/><rect class="c" x="754" y="2" rx="2" ry="2"/><rect class="c" x="754" y="18" rx="2" ry="2"/><rect class="c ck" x="754" y="34" rx="2" ry="2"/><rect class="c cl" x="754" y="50" rx="2" ry="2"/><rect class="c" x="754" y="66" rx="2" ry="2"/><rect class="c" x="754" y="82" rx="2" ry="2"/><rect class="c" x="754" y="98" rx="2" ry="2"/><rect class="c" x="770" y="2" rx="2" ry="2"/><rect class="c cm" x="770" y="18" rx="2" ry="2"/><rect class="c cn" x="770" y="34" rx="2" ry="2"/><rect class="c co" x="770" y="50" rx="2" ry="2"/><rect class="c cp" x="770" y="66" rx="2" ry="2"/><rect class="c cq" x="770" y="82" rx="2" ry="2"/><rect class="c cr" x="770" y="98" rx="2" ry="2"/><rect class="c cs" x="786" y="2" rx="2" ry="2"/><rect class="c ct" x="786" y="18" rx="2" ry="2"/><rect class="c cu" x="786" y="34" rx="2" ry="2"/><rect class="c cv" x="786" y="50" rx="2" ry="2"/><rect class="c cw" x="786" y="66" rx="2" ry="2"/><rect class="c cx" x="786" y="82" rx="2" ry="2"/><rect class="c cy" x="786" y="98" rx="2" ry="2"/><rect class="c cz" x="802" y="2" rx="2" ry="2"/><rect class="c c10" x="802" y="18" rx="2" ry="2"/><rect class="c c11" x="802" y="34" rx="2" ry="2"/><rect class="c c12" x="802" y="50" rx="2" ry="2"/><rect class="c c13" x="802" y="66" rx="2" ry="2"/><rect class="c c14" x="802" y="82" rx="2" ry="2"/><rect class="c c15" x="802" y="98" rx="2" ry="2"/><rect class="c c16" x="818" y="2" rx="2" ry="2"/><rect class="c c17" x="818" y="18" rx="2" ry="2"/><rect class="c c18" x="818" y="34" rx="2" ry="2"/><rect class="c c19" x="818" y="50" rx="2" ry="2"/><rect class="c c1a" x="818" y="66" rx="2" ry="2"/><rect class="c c1b" x="818" y="82" rx="2" ry="2"/><rect class="c c1c" x="818" y="98" rx="2" ry="2"/><rect class="c c1d" x="834" y="2" rx="2" ry="2"/><rect class="c c1e" x="834" y="18" rx="2" ry="2"/><rect class="c c1f" x="834" y="34" rx="2" ry="2"/><rect class="c c1g" x="834" y="50" rx="2" ry="2"/><rect class="u u0" height="12" width="304.6" x="0.0" y="144"/><rect class="u u1" height="12" width="32.6" x="304.0" y="144"/><rect class="u u2" height="12" width="16.6" x="336.0" y="144"/><rect class="u u3" height="12" width="352.6" x="352.0" y="144"/><rect class="u u4" height="12" width="80.6" x="704.0" y="144"/><rect class="u u5" height="12" width="64.6" x="784.0" y="144"/><rect class="s s0" x="0.8" y="0.8" width="14.4" height="14.4" rx="4.5" ry="4.5"/><rect class="s s1" x="1.8" y="1.8" width="12.3" height="12.3" rx="4.1" ry="4.1"/><rect class="s s2" x="2.6" y="2.6" width="10.8" height="10.8" rx="3.6" ry="3.6"/><rect class="s s3" x="3.0" y="3.0" width="9.9" height="9.9" rx="3.3" ry="3.3"/></svg>